<svg xmlns="http://www.w3.org/2000/svg" xmlns:xlink="http://www.w3.org/1999/xlink" width="820" height="359" viewBox="0 0 820 359">
  <defs>
    <clipPath id="clip-path">
      <rect id="Rectángulo_350153" data-name="Rectángulo 350153" width="715.595" height="337.076" fill="none"/>
    </clipPath>
    <clipPath id="clip-path-3">
      <rect id="Rectángulo_350146" data-name="Rectángulo 350146" width="136.851" height="22.953" transform="translate(20.454 152.23)" fill="none"/>
    </clipPath>
    <clipPath id="clip-path-4">
      <rect id="Rectángulo_350147" data-name="Rectángulo 350147" width="158.921" height="22.953" transform="translate(545.491 152.23)" fill="none"/>
    </clipPath>
  </defs>
  <g id="Grupo_1010073" data-name="Grupo 1010073" transform="translate(-391 -4832)">
    <g id="Grupo_1010072" data-name="Grupo 1010072">
      <path id="Trazado_728949" data-name="Trazado 728949" d="M0,0H820V359H0Z" transform="translate(391 4832)" fill="#f3f9ff"/>
      <g id="Grupo_1009651" data-name="Grupo 1009651" transform="translate(443 4843)" clip-path="url(#clip-path)">
        <g id="Grupo_1009642" data-name="Grupo 1009642">
          <g id="Grupo_1009641" data-name="Grupo 1009641" clip-path="url(#clip-path)">
            <path id="Rectángulo_350141" data-name="Rectángulo 350141" d="M17.082,0h142.39a17.082,17.082,0,0,1,17.082,17.082v3.794a17.082,17.082,0,0,1-17.082,17.082H17.081A17.081,17.081,0,0,1,0,20.877V17.082A17.082,17.082,0,0,1,17.082,0Z" transform="translate(0.603 209.048)" fill="#fff0df"/>
            <path id="Rectángulo_350142" data-name="Rectángulo 350142" d="M17.082,0h142.39a17.082,17.082,0,0,1,17.082,17.082v3.794a17.082,17.082,0,0,1-17.082,17.082H17.081A17.081,17.081,0,0,1,0,20.877V17.082A17.082,17.082,0,0,1,17.082,0Z" transform="translate(0.603 209.048)" fill="none" stroke="#1d1d1b" stroke-miterlimit="10" stroke-width="1.205"/>
            <rect id="Rectángulo_350143" data-name="Rectángulo 350143" width="180.081" height="46.343" rx="17.082" transform="translate(534.911 209.261)" fill="#fff0df"/>
            <rect id="Rectángulo_350144" data-name="Rectángulo 350144" width="180.081" height="46.343" rx="17.082" transform="translate(534.911 209.261)" fill="none" stroke="#1d1d1b" stroke-miterlimit="10" stroke-width="1.205"/>
            <path id="Rectángulo_350145" data-name="Rectángulo 350145" d="M17.082,0h316.3a17.083,17.083,0,0,1,17.083,17.083V27.939a17.082,17.082,0,0,1-17.082,17.082H17.082A17.082,17.082,0,0,1,0,27.939V17.082A17.082,17.082,0,0,1,17.082,0Z" transform="translate(181.213 66.686)" fill="#4db1f0"/>
            <g id="Grupo_1009637" data-name="Grupo 1009637" opacity="0.5">
              <g id="Grupo_1009636" data-name="Grupo 1009636">
                <g id="Grupo_1009635" data-name="Grupo 1009635" clip-path="url(#clip-path-3)">
                  <path id="Trazado_726601" data-name="Trazado 726601" d="M157.3,163.706a11.477,11.477,0,0,1-11.477,11.477H31.93a11.477,11.477,0,0,1,0-22.954h113.9A11.477,11.477,0,0,1,157.3,163.706" fill="#4db1f0"/>
                </g>
              </g>
            </g>
            <g id="Grupo_1009640" data-name="Grupo 1009640" opacity="0.5">
              <g id="Grupo_1009639" data-name="Grupo 1009639">
                <g id="Grupo_1009638" data-name="Grupo 1009638" clip-path="url(#clip-path-4)">
                  <path id="Trazado_726602" data-name="Trazado 726602" d="M704.412,163.706c0,6.338-5.966,11.477-13.327,11.477H558.818c-7.36,0-13.327-5.139-13.327-11.477s5.967-11.477,13.327-11.477H691.085c7.361,0,13.327,5.139,13.327,11.477" fill="#4db1f0"/>
                </g>
              </g>
            </g>
            <line id="Línea_2940" data-name="Línea 2940" y2="10.763" transform="translate(356.443 54.545)" fill="none" stroke="#1d1d1b" stroke-miterlimit="10" stroke-width="1.205"/>
            <line id="Línea_2941" data-name="Línea 2941" y2="10.763" transform="translate(356.443 32.974)" fill="none" stroke="#1d1d1b" stroke-miterlimit="10" stroke-width="1.205"/>
            <path id="Trazado_726603" data-name="Trazado 726603" d="M354.4,62.908l2.043,2.044,2.044-2.044v1.735l-2.044,2.043L354.4,64.643Z" fill="#1d1d1b"/>
            <line id="Línea_2942" data-name="Línea 2942" y2="31.763" transform="translate(88.879 247.006)" fill="none" stroke="#1d1d1b" stroke-miterlimit="10" stroke-width="1.205"/>
            <path id="Trazado_726604" data-name="Trazado 726604" d="M86.836,276.369l2.043,2.044,2.044-2.044V278.1l-2.044,2.043L86.836,278.1Z" fill="#1d1d1b"/>
            <line id="Línea_2943" data-name="Línea 2943" y2="31.763" transform="translate(624.952 255.604)" fill="none" stroke="#1d1d1b" stroke-miterlimit="10" stroke-width="1.205"/>
            <path id="Trazado_726605" data-name="Trazado 726605" d="M622.909,284.967l2.043,2.044L627,284.967V286.7l-2.044,2.043-2.043-2.043Z" fill="#1d1d1b"/>
            <path id="Trazado_726606" data-name="Trazado 726606" d="M480.638,16.772a16.773,16.773,0,0,1-16.773,16.773H249.021a16.773,16.773,0,0,1,0-33.546H463.865a16.773,16.773,0,0,1,16.773,16.773" fill="#3076b6"/>
          </g>
        </g>
        <text id="N" transform="translate(261.549 22.33)" fill="#fff" font-size="19.297" font-family="MyriadPro-Bold, Myriad Pro" font-weight="700"><tspan x="0" y="0">N</tspan></text>
        <text id="omencl" transform="translate(274.826 22.33)" fill="#fff" font-size="19.297" font-family="MyriadPro-Bold, Myriad Pro" font-weight="700"><tspan x="0" y="0">omencl</tspan></text>
        <text id="a" transform="translate(338.063 22.33)" fill="#fff" font-size="19.297" font-family="MyriadPro-Bold, Myriad Pro" font-weight="700"><tspan x="0" y="0">a</tspan></text>
        <text id="tu" transform="translate(348.098 22.33)" fill="#fff" font-size="19.297" font-family="MyriadPro-Bold, Myriad Pro" font-weight="700"><tspan x="0" y="0">tu</tspan></text>
        <text id="r" transform="translate(366.43 22.33)" fill="#fff" font-size="19.297" font-family="MyriadPro-Bold, Myriad Pro" font-weight="700"><tspan x="0" y="0">r</tspan></text>
        <text id="a-2" data-name="a" transform="translate(373.57 22.33)" fill="#fff" font-size="19.297" font-family="MyriadPro-Bold, Myriad Pro" font-weight="700"><tspan x="0" y="0">a</tspan></text>
        <text id="ur" transform="translate(387.818 22.33)" fill="#fff" font-size="19.297" font-family="MyriadPro-Bold, Myriad Pro" font-weight="700"><tspan x="0" y="0">ur</tspan></text>
        <text id="bana" transform="translate(408.112 22.33)" fill="#fff" font-size="19.297" font-family="MyriadPro-Bold, Myriad Pro" font-weight="700"><tspan x="0" y="0">bana</tspan></text>
        <text id="es" transform="translate(349.957 52.471)" fill="#1d1d1b" font-size="14.463" font-family="SegoeUI, Segoe UI"><tspan x="0" y="0">es</tspan></text>
        <g id="Grupo_1009644" data-name="Grupo 1009644">
          <g id="Grupo_1009643" data-name="Grupo 1009643" clip-path="url(#clip-path)">
            <line id="Línea_2944" data-name="Línea 2944" y2="10.763" transform="translate(89.282 196.182)" fill="none" stroke="#1d1d1b" stroke-miterlimit="10" stroke-width="1.205"/>
            <path id="Trazado_726607" data-name="Trazado 726607" d="M87.239,204.545l2.043,2.044,2.044-2.044v1.735l-2.044,2.043-2.043-2.043Z" fill="#1d1d1b"/>
          </g>
        </g>
        <text id="es-2" data-name="es" transform="translate(82.794 194.107)" fill="#1d1d1b" font-size="14.463" font-family="SegoeUI, Segoe UI"><tspan x="0" y="0">es</tspan></text>
        <g id="Grupo_1009646" data-name="Grupo 1009646">
          <g id="Grupo_1009645" data-name="Grupo 1009645" clip-path="url(#clip-path)">
            <line id="Línea_2945" data-name="Línea 2945" y2="10.763" transform="translate(624.952 196.121)" fill="none" stroke="#1d1d1b" stroke-miterlimit="10" stroke-width="1.205"/>
            <line id="Línea_2946" data-name="Línea 2946" y2="10.763" transform="translate(89.282 175.493)" fill="none" stroke="#1d1d1b" stroke-miterlimit="10" stroke-width="1.205"/>
            <line id="Línea_2947" data-name="Línea 2947" y2="10.763" transform="translate(624.952 175.431)" fill="none" stroke="#1d1d1b" stroke-miterlimit="10" stroke-width="1.205"/>
            <path id="Trazado_726608" data-name="Trazado 726608" d="M622.909,204.483l2.043,2.044L627,204.483v1.735l-2.044,2.043-2.043-2.043Z" fill="#1d1d1b"/>
          </g>
        </g>
        <text id="es-3" data-name="es" transform="translate(618.467 194.046)" fill="#1d1d1b" font-size="14.463" font-family="SegoeUI, Segoe UI"><tspan x="0" y="0">es</tspan></text>
        <g id="Grupo_1009648" data-name="Grupo 1009648">
          <g id="Grupo_1009647" data-name="Grupo 1009647" clip-path="url(#clip-path)">
            <path id="Trazado_726609" data-name="Trazado 726609" d="M212.436,74.816h1.258v8.691h4.165v1.055h-5.423ZM223.1,84.562l-.1-.882h-.044a2.6,2.6,0,0,1-2.14,1.041,1.994,1.994,0,0,1-2.14-2.01c0-1.692,1.5-2.617,4.208-2.6v-.144a1.443,1.443,0,0,0-1.591-1.62,3.491,3.491,0,0,0-1.822.521l-.289-.839a4.344,4.344,0,0,1,2.3-.622c2.141,0,2.661,1.461,2.661,2.863v2.618a9.824,9.824,0,0,0,.116,1.677Zm-.188-3.572c-1.388-.028-2.964.217-2.964,1.577a1.125,1.125,0,0,0,1.2,1.214,1.742,1.742,0,0,0,1.692-1.171,1.34,1.34,0,0,0,.072-.4Zm7.767-5.393a.788.788,0,0,1-1.576,0,.775.775,0,0,1,.795-.8.756.756,0,0,1,.781.8m-1.417,1.966h1.273v7h-1.273Zm9.429-3.268v8.46c0,.622.014,1.33.058,1.807H237.6l-.058-1.214h-.029a2.589,2.589,0,0,1-2.386,1.373c-1.692,0-2.993-1.431-2.993-3.557-.014-2.328,1.432-3.76,3.138-3.76a2.34,2.34,0,0,1,2.111,1.07h.029V74.295Zm-1.273,6.117a2.215,2.215,0,0,0-.058-.535,1.871,1.871,0,0,0-1.836-1.475c-1.316,0-2.1,1.157-2.1,2.7,0,1.417.694,2.589,2.068,2.589a1.912,1.912,0,0,0,1.865-1.519,2.177,2.177,0,0,0,.058-.549Zm4.094.882a2.243,2.243,0,0,0,2.4,2.43,4.609,4.609,0,0,0,1.938-.362l.217.911a5.659,5.659,0,0,1-2.328.434,3.25,3.25,0,0,1-3.442-3.529c0-2.111,1.244-3.774,3.283-3.774,2.285,0,2.892,2.01,2.892,3.3a4.9,4.9,0,0,1-.043.593Zm3.731-.911a1.812,1.812,0,0,0-1.765-2.068,2.109,2.109,0,0,0-1.952,2.068Zm2.806-.925c0-.723-.014-1.316-.058-1.895h1.128l.073,1.157h.029a2.573,2.573,0,0,1,2.313-1.316c.969,0,2.473.579,2.473,2.979v4.179H252.73V80.528c0-1.128-.42-2.068-1.62-2.068a1.807,1.807,0,0,0-1.706,1.3,1.825,1.825,0,0,0-.087.593v4.208h-1.273Zm9.5-3.9v2.01h1.822v.969h-1.822v3.774c0,.868.246,1.36.954,1.36a2.847,2.847,0,0,0,.738-.087l.057.954a3.09,3.09,0,0,1-1.127.174,1.763,1.763,0,0,1-1.374-.535,2.591,2.591,0,0,1-.492-1.822V78.532h-1.085v-.969H256.3V75.886Zm4.671.044a.788.788,0,0,1-1.576,0,.776.776,0,0,1,.795-.8.755.755,0,0,1,.781.8M260.8,77.563h1.273v7H260.8Zm3.514,7v-6.03h-.983v-.969h.983v-.376a2.805,2.805,0,0,1,3.052-3.051,3.493,3.493,0,0,1,1.778.463l-.361.969a2.675,2.675,0,0,0-1.475-.4c-1.345,0-1.735.94-1.735,2.053v.347h4.063v7h-1.258v-6.03h-2.805v6.03Zm12.423-.26a4.677,4.677,0,0,1-2.01.4,3.326,3.326,0,0,1-3.485-3.572A3.556,3.556,0,0,1,275,77.419a4.262,4.262,0,0,1,1.764.361l-.289.983A2.959,2.959,0,0,0,275,78.431a2.639,2.639,0,0,0-.043,5.264,3.611,3.611,0,0,0,1.561-.347Zm5.366.26-.1-.882h-.043a2.608,2.608,0,0,1-2.141,1.041,1.994,1.994,0,0,1-2.14-2.01c0-1.692,1.5-2.617,4.208-2.6v-.144a1.443,1.443,0,0,0-1.59-1.62,3.486,3.486,0,0,0-1.822.521l-.29-.839a4.348,4.348,0,0,1,2.3-.622c2.14,0,2.66,1.461,2.66,2.863v2.618a9.824,9.824,0,0,0,.116,1.677Zm-.188-3.572c-1.388-.028-2.964.217-2.964,1.577a1.125,1.125,0,0,0,1.2,1.214,1.741,1.741,0,0,0,1.692-1.171,1.34,1.34,0,0,0,.072-.4Zm8.273,3.312a4.681,4.681,0,0,1-2.01.4,3.326,3.326,0,0,1-3.485-3.572,3.556,3.556,0,0,1,3.76-3.716,4.262,4.262,0,0,1,1.764.361l-.289.983a2.959,2.959,0,0,0-1.475-.332,2.639,2.639,0,0,0-.044,5.264,3.619,3.619,0,0,0,1.562-.347Zm2.907-8.705a.788.788,0,0,1-1.576,0,.776.776,0,0,1,.8-.8.755.755,0,0,1,.78.8m-1.417,1.966h1.273v7h-1.273ZM301.395,81a3.42,3.42,0,0,1-3.485,3.716,3.327,3.327,0,0,1-3.355-3.6,3.418,3.418,0,0,1,3.471-3.717,3.314,3.314,0,0,1,3.369,3.6m-5.553.072c0,1.533.883,2.69,2.126,2.69,1.215,0,2.126-1.142,2.126-2.719,0-1.185-.593-2.689-2.1-2.689s-2.155,1.388-2.155,2.718m4.035-6.536-1.764,2.068H297.2l1.272-2.068ZM303,79.458c0-.723-.015-1.316-.058-1.895h1.128l.072,1.157h.029a2.574,2.574,0,0,1,2.314-1.316c.969,0,2.473.579,2.473,2.979v4.179h-1.273V80.528c0-1.128-.419-2.068-1.62-2.068a1.866,1.866,0,0,0-1.793,1.894v4.208H303Zm17.137-5.163v8.46c0,.622.015,1.33.058,1.807h-1.142L319,83.348h-.029a2.59,2.59,0,0,1-2.386,1.373c-1.692,0-2.993-1.431-2.993-3.557-.015-2.328,1.431-3.76,3.138-3.76a2.34,2.34,0,0,1,2.111,1.07h.029V74.295Zm-1.272,6.117a2.266,2.266,0,0,0-.058-.535,1.871,1.871,0,0,0-1.836-1.475c-1.316,0-2.1,1.157-2.1,2.7,0,1.417.694,2.589,2.068,2.589a1.912,1.912,0,0,0,1.865-1.519,2.224,2.224,0,0,0,.058-.549Zm4.093.882a2.243,2.243,0,0,0,2.4,2.43,4.609,4.609,0,0,0,1.938-.362l.217.911a5.664,5.664,0,0,1-2.329.434,3.25,3.25,0,0,1-3.441-3.529c0-2.111,1.243-3.774,3.282-3.774,2.285,0,2.893,2.01,2.893,3.3a4.662,4.662,0,0,1-.044.593Zm3.731-.911a1.811,1.811,0,0,0-1.764-2.068,2.109,2.109,0,0,0-1.952,2.068Zm6.365-2.82L334.43,81.5a18.122,18.122,0,0,1,.564,1.793h.043c.159-.579.362-1.157.593-1.793l1.359-3.934h1.331l-2.748,7h-1.215l-2.66-7Zm9.053-3.022-1.764,2.068h-.911l1.273-2.068Zm-2.588,3.022h1.273v7h-1.273Zm7.26,7-.1-.882h-.043a2.6,2.6,0,0,1-2.14,1.041,1.994,1.994,0,0,1-2.14-2.01c0-1.692,1.5-2.617,4.208-2.6v-.144a1.443,1.443,0,0,0-1.591-1.62,3.489,3.489,0,0,0-1.822.521l-.289-.839a4.342,4.342,0,0,1,2.3-.622c2.14,0,2.661,1.461,2.661,2.863v2.618a9.827,9.827,0,0,0,.116,1.677Zm-.188-3.572c-1.389-.028-2.965.217-2.965,1.577a1.126,1.126,0,0,0,1.2,1.214,1.74,1.74,0,0,0,1.692-1.171,1.311,1.311,0,0,0,.073-.4Zm3.11,2.271a3.333,3.333,0,0,0,1.677.506c.926,0,1.36-.463,1.36-1.041,0-.608-.362-.94-1.3-1.287-1.258-.449-1.851-1.143-1.851-1.981A2.159,2.159,0,0,1,352,77.4a3.5,3.5,0,0,1,1.721.434l-.318.925a2.731,2.731,0,0,0-1.432-.4c-.752,0-1.171.433-1.171.954,0,.578.419.839,1.33,1.186,1.215.463,1.837,1.07,1.837,2.111,0,1.229-.955,2.1-2.618,2.1a3.99,3.99,0,0,1-1.966-.477Zm9.43-5.7,1.532,4.136c.16.463.333,1.012.449,1.432h.029c.13-.42.274-.955.448-1.461l1.388-4.107h1.345l-1.909,4.989c-.911,2.4-1.533,3.63-2.4,4.382a3.456,3.456,0,0,1-1.562.824l-.318-1.07a3.365,3.365,0,0,0,1.113-.622,3.855,3.855,0,0,0,1.07-1.417.91.91,0,0,0,.1-.3,1.107,1.107,0,0,0-.087-.332l-2.589-6.45Zm9.415,2.285c0-.9-.029-1.62-.058-2.285h1.143l.057,1.2h.029a2.753,2.753,0,0,1,2.488-1.359c1.692,0,2.964,1.432,2.964,3.558,0,2.516-1.533,3.759-3.181,3.759a2.454,2.454,0,0,1-2.155-1.1h-.029v3.8h-1.258Zm1.258,1.865a2.86,2.86,0,0,0,.058.521,1.964,1.964,0,0,0,1.909,1.49c1.345,0,2.126-1.1,2.126-2.705,0-1.4-.738-2.6-2.083-2.6a2.031,2.031,0,0,0-1.923,1.577,2.08,2.08,0,0,0-.087.52Zm6.972-1.966c0-.824-.015-1.533-.058-2.184h1.113l.044,1.374h.057a2.1,2.1,0,0,1,1.938-1.533,1.375,1.375,0,0,1,.362.044v1.2a1.909,1.909,0,0,0-.434-.044,1.786,1.786,0,0,0-1.707,1.634,3.7,3.7,0,0,0-.057.593v3.731h-1.258Zm5.293,1.547a2.243,2.243,0,0,0,2.4,2.43,4.608,4.608,0,0,0,1.938-.362l.217.911a5.659,5.659,0,0,1-2.328.434,3.25,3.25,0,0,1-3.442-3.529c0-2.111,1.244-3.774,3.283-3.774,2.285,0,2.892,2.01,2.892,3.3a4.9,4.9,0,0,1-.043.593Zm3.731-.911a1.812,1.812,0,0,0-1.764-2.068,2.11,2.11,0,0,0-1.953,2.068Zm8.851-6.088v8.46c0,.622.014,1.33.058,1.807h-1.143l-.057-1.214h-.029a2.591,2.591,0,0,1-2.386,1.373c-1.692,0-2.994-1.431-2.994-3.557-.014-2.328,1.432-3.76,3.138-3.76a2.34,2.34,0,0,1,2.111,1.07h.029V74.295Zm-1.273,6.117a2.265,2.265,0,0,0-.057-.535,1.872,1.872,0,0,0-1.837-1.475c-1.316,0-2.1,1.157-2.1,2.7,0,1.417.694,2.589,2.068,2.589a1.914,1.914,0,0,0,1.866-1.519,2.225,2.225,0,0,0,.057-.549Zm4.8-4.815a.789.789,0,0,1-1.577,0,.776.776,0,0,1,.8-.8.756.756,0,0,1,.781.8m-1.418,1.966h1.273v7h-1.273ZM406.484,81A3.421,3.421,0,0,1,403,84.721a3.327,3.327,0,0,1-3.354-3.6,3.417,3.417,0,0,1,3.47-3.717,3.315,3.315,0,0,1,3.37,3.6m-5.553.072c0,1.533.882,2.69,2.125,2.69,1.215,0,2.126-1.142,2.126-2.719,0-1.185-.593-2.689-2.1-2.689s-2.154,1.388-2.154,2.718m6.985,2.184a3.333,3.333,0,0,0,1.678.506c.925,0,1.359-.463,1.359-1.041,0-.608-.361-.94-1.3-1.287-1.259-.449-1.851-1.143-1.851-1.981a2.159,2.159,0,0,1,2.415-2.054,3.494,3.494,0,0,1,1.72.434l-.318.925a2.73,2.73,0,0,0-1.431-.4c-.752,0-1.172.433-1.172.954,0,.578.42.839,1.331,1.186,1.214.463,1.836,1.07,1.836,2.111,0,1.229-.954,2.1-2.617,2.1a4,4,0,0,1-1.967-.477Zm15.012-8.966v8.46c0,.622.014,1.33.058,1.807h-1.143l-.057-1.214h-.029a2.591,2.591,0,0,1-2.386,1.373c-1.692,0-2.994-1.431-2.994-3.557-.014-2.328,1.432-3.76,3.138-3.76a2.343,2.343,0,0,1,2.112,1.07h.028V74.295Zm-1.273,6.117a2.265,2.265,0,0,0-.057-.535,1.872,1.872,0,0,0-1.837-1.475c-1.316,0-2.1,1.157-2.1,2.7,0,1.417.694,2.589,2.068,2.589a1.914,1.914,0,0,0,1.866-1.519,2.225,2.225,0,0,0,.057-.549Zm4.094.882a2.243,2.243,0,0,0,2.4,2.43,4.6,4.6,0,0,0,1.937-.362l.217.911a5.659,5.659,0,0,1-2.328.434,3.25,3.25,0,0,1-3.442-3.529c0-2.111,1.244-3.774,3.283-3.774,2.285,0,2.892,2.01,2.892,3.3a4.895,4.895,0,0,1-.043.593Zm3.731-.911a1.812,1.812,0,0,0-1.764-2.068,2.111,2.111,0,0,0-1.953,2.068Zm11.729,2.27c0,.724.015,1.36.058,1.909h-1.128l-.072-1.142h-.029a2.634,2.634,0,0,1-2.314,1.3c-1.1,0-2.415-.607-2.415-3.065V77.563h1.273v3.876c0,1.33.4,2.227,1.562,2.227a1.839,1.839,0,0,0,1.677-1.157,1.871,1.871,0,0,0,.116-.651V77.563h1.272Zm2.113-3.195c0-.723-.015-1.316-.058-1.895h1.128l.072,1.157h.029a2.574,2.574,0,0,1,2.314-1.316c.969,0,2.473.579,2.473,2.979v4.179h-1.273V80.528c0-1.128-.419-2.068-1.62-2.068a1.866,1.866,0,0,0-1.793,1.894v4.208h-1.272Zm11.9,5.1-.1-.882h-.043a2.608,2.608,0,0,1-2.141,1.041,1.994,1.994,0,0,1-2.14-2.01c0-1.692,1.5-2.617,4.208-2.6v-.144a1.443,1.443,0,0,0-1.59-1.62,3.492,3.492,0,0,0-1.823.521l-.289-.839a4.345,4.345,0,0,1,2.3-.622c2.14,0,2.66,1.461,2.66,2.863v2.618a9.824,9.824,0,0,0,.116,1.677Zm-.188-3.572c-1.388-.028-2.964.217-2.964,1.577a1.125,1.125,0,0,0,1.2,1.214,1.742,1.742,0,0,0,1.692-1.171,1.34,1.34,0,0,0,.072-.4ZM466.375,84.3a4.681,4.681,0,0,1-2.01.4,3.326,3.326,0,0,1-3.485-3.572,3.556,3.556,0,0,1,3.76-3.716,4.262,4.262,0,0,1,1.764.361l-.289.983a2.959,2.959,0,0,0-1.475-.332,2.639,2.639,0,0,0-.044,5.264,3.615,3.615,0,0,0,1.562-.347Zm2.908-8.705a.789.789,0,0,1-1.577,0,.776.776,0,0,1,.8-.8.756.756,0,0,1,.781.8m-1.418,1.966h1.273v7h-1.273Zm9.241,5.09c0,.724.015,1.36.058,1.909h-1.128l-.072-1.142h-.029a2.634,2.634,0,0,1-2.314,1.3c-1.1,0-2.415-.607-2.415-3.065V77.563h1.273v3.876c0,1.33.4,2.227,1.562,2.227a1.839,1.839,0,0,0,1.677-1.157,1.871,1.871,0,0,0,.116-.651V77.563h1.272Zm8.157-8.358v8.46c0,.622.015,1.33.058,1.807h-1.142l-.058-1.214h-.029a2.59,2.59,0,0,1-2.386,1.373c-1.692,0-2.993-1.431-2.993-3.557-.015-2.328,1.431-3.76,3.138-3.76a2.34,2.34,0,0,1,2.111,1.07h.029V74.295Zm-1.272,6.117a2.266,2.266,0,0,0-.058-.535A1.871,1.871,0,0,0,482.1,78.4c-1.316,0-2.1,1.157-2.1,2.7,0,1.417.694,2.589,2.068,2.589a1.912,1.912,0,0,0,1.865-1.519,2.224,2.224,0,0,0,.058-.549Zm7.26,4.15-.1-.882h-.043a2.607,2.607,0,0,1-2.14,1.041,1.994,1.994,0,0,1-2.141-2.01c0-1.692,1.5-2.617,4.208-2.6v-.144a1.443,1.443,0,0,0-1.59-1.62,3.486,3.486,0,0,0-1.822.521l-.29-.839a4.348,4.348,0,0,1,2.3-.622c2.14,0,2.661,1.461,2.661,2.863v2.618a9.833,9.833,0,0,0,.115,1.677Zm-.188-3.572c-1.388-.028-2.964.217-2.964,1.577a1.125,1.125,0,0,0,1.2,1.214,1.741,1.741,0,0,0,1.692-1.171,1.34,1.34,0,0,0,.072-.4Zm9.329-6.695v8.46c0,.622.014,1.33.057,1.807h-1.142l-.058-1.214h-.029a2.589,2.589,0,0,1-2.386,1.373c-1.692,0-2.993-1.431-2.993-3.557-.015-2.328,1.431-3.76,3.138-3.76a2.339,2.339,0,0,1,2.111,1.07h.029V74.295Zm-1.273,6.117a2.215,2.215,0,0,0-.058-.535,1.871,1.871,0,0,0-1.836-1.475c-1.316,0-2.1,1.157-2.1,2.7,0,1.417.694,2.589,2.068,2.589a1.912,1.912,0,0,0,1.865-1.519,2.177,2.177,0,0,0,.058-.549Z" fill="#1d1d1b"/>
          </g>
        </g>
        <text id="o_población_" data-name="o población " transform="translate(204.656 101.919)" fill="#1d1d1b" font-size="14.463" font-family="SegoeUI, Segoe UI"><tspan x="0" y="0">o población </tspan></text>
        <text id="c" transform="translate(279.342 101.919)" fill="#1d1d1b" font-size="14.463" font-family="SegoeUI, Segoe UI"><tspan x="0" y="0">c</tspan></text>
        <text id="on_si" data-name="on si" transform="translate(285.735 101.919)" fill="#1d1d1b" font-size="14.463" font-family="SegoeUI, Segoe UI"><tspan x="0" y="0">on si</tspan></text>
        <text id="g" transform="translate(313.88 101.919)" fill="#1d1d1b" font-size="14.463" font-family="SegoeUI, Segoe UI"><tspan x="0" y="0">g</tspan></text>
        <text id="nos_numé" data-name="nos numé" transform="translate(321.893 101.919)" fill="#1d1d1b" font-size="14.463" font-family="SegoeUI, Segoe UI"><tspan x="0" y="0">nos numé</tspan></text>
        <text id="r-2" data-name="r" transform="translate(381.957 101.919)" fill="#1d1d1b" font-size="14.463" font-family="SegoeUI, Segoe UI"><tspan x="0" y="0">r</tspan></text>
        <text id="i" transform="translate(386.73 101.919)" fill="#1d1d1b" font-size="14.463" font-family="SegoeUI, Segoe UI"><tspan x="0" y="0">i</tspan></text>
        <text id="c-2" data-name="c" transform="translate(390.115 101.919)" fill="#1d1d1b" font-size="14.463" font-family="SegoeUI, Segoe UI"><tspan x="0" y="0">c</tspan></text>
        <text id="os_y_alfanumé" data-name="os y alfanumé" transform="translate(396.521 101.919)" fill="#1d1d1b" font-size="14.463" font-family="SegoeUI, Segoe UI"><tspan x="0" y="0">os y alfanumé</tspan></text>
        <text id="r-3" data-name="r" transform="translate(480.017 101.919)" fill="#1d1d1b" font-size="14.463" font-family="SegoeUI, Segoe UI"><tspan x="0" y="0">r</tspan></text>
        <text id="i-2" data-name="i" transform="translate(484.79 101.919)" fill="#1d1d1b" font-size="14.463" font-family="SegoeUI, Segoe UI"><tspan x="0" y="0">i</tspan></text>
        <text id="c-3" data-name="c" transform="translate(488.174 101.919)" fill="#1d1d1b" font-size="14.463" font-family="SegoeUI, Segoe UI"><tspan x="0" y="0">c</tspan></text>
        <text id="os" transform="translate(494.566 101.919)" fill="#1d1d1b" font-size="14.463" font-family="SegoeUI, Segoe UI"><tspan x="0" y="0">os</tspan></text>
        <text id="N-2" data-name="N" transform="translate(33.494 168.014)" fill="#1d1d1b" font-size="13" font-family="MyriadPro-Bold, Myriad Pro" font-weight="700"><tspan x="0" y="0">N</tspan></text>
        <text id="omencl-2" data-name="omencl" transform="translate(42.438 168.014)" fill="#1d1d1b" font-size="13" font-family="MyriadPro-Bold, Myriad Pro" font-weight="700"><tspan x="0" y="0">omencl</tspan></text>
        <text id="a-3" data-name="a" transform="translate(85.039 168.014)" fill="#1d1d1b" font-size="13" font-family="MyriadPro-Bold, Myriad Pro" font-weight="700"><tspan x="0" y="0">a</tspan></text>
        <text id="tu-2" data-name="tu" transform="translate(91.799 168.014)" fill="#1d1d1b" font-size="13" font-family="MyriadPro-Bold, Myriad Pro" font-weight="700"><tspan x="0" y="0">tu</tspan></text>
        <text id="r-4" data-name="r" transform="translate(104.148 168.014)" fill="#1d1d1b" font-size="13" font-family="MyriadPro-Bold, Myriad Pro" font-weight="700"><tspan x="0" y="0">r</tspan></text>
        <text id="a-4" data-name="a" transform="translate(108.958 168.014)" fill="#1d1d1b" font-size="13" font-family="MyriadPro-Bold, Myriad Pro" font-weight="700"><tspan x="0" y="0">a</tspan></text>
        <text id="_" data-name=" " transform="translate(115.823 168.014)" fill="#1d1d1b" font-size="13" font-family="MyriadPro-Bold, Myriad Pro" font-weight="700"><tspan x="0" y="0"> </tspan></text>
        <text id="v" transform="translate(117.968 168.014)" fill="#1d1d1b" font-size="13" font-family="MyriadPro-Bold, Myriad Pro" font-weight="700"><tspan x="0" y="0">v</tspan></text>
        <text id="ial" transform="translate(125.897 168.014)" fill="#1d1d1b" font-size="13" font-family="MyriadPro-Bold, Myriad Pro" font-weight="700"><tspan x="0" y="0">ial</tspan></text>
        <text id="compuesta_por" data-name="compuesta por" transform="translate(44.537 291.621)" fill="#1d1d1b" font-size="14.463" font-family="SegoeUI, Segoe UI"><tspan x="0" y="0">compuesta por</tspan></text>
        <text id="_-" data-name="-" transform="translate(219.667 257.705)" fill="#1d1d1b" font-size="14.463" font-family="SegoeUI, Segoe UI"><tspan x="0" y="0">-</tspan></text>
        <text id="C-4" data-name="C" transform="translate(224.31 257.705)" fill="#1d1d1b" font-size="14.463" font-family="SegoeUI, Segoe UI"><tspan x="0" y="0">C</tspan></text>
        <text id="alles" transform="translate(232.612 257.705)" fill="#1d1d1b" font-size="14.463" font-family="SegoeUI, Segoe UI"><tspan x="0" y="0">alles</tspan></text>
        <text id="_--2" data-name="-" transform="translate(219.667 275.06)" fill="#1d1d1b" font-size="14.463" font-family="SegoeUI, Segoe UI"><tspan x="0" y="0">-</tspan></text>
        <text id="C-5" data-name="C" transform="translate(224.31 275.06)" fill="#1d1d1b" font-size="14.463" font-family="SegoeUI, Segoe UI"><tspan x="0" y="0">C</tspan></text>
        <text id="a-5" data-name="a" transform="translate(232.612 275.06)" fill="#1d1d1b" font-size="14.463" font-family="SegoeUI, Segoe UI"><tspan x="0" y="0">a</tspan></text>
        <text id="r-5" data-name="r" transform="translate(239.583 275.06)" fill="#1d1d1b" font-size="14.463" font-family="SegoeUI, Segoe UI"><tspan x="0" y="0">r</tspan></text>
        <text id="r-6" data-name="r" transform="translate(244.355 275.06)" fill="#1d1d1b" font-size="14.463" font-family="SegoeUI, Segoe UI"><tspan x="0" y="0">r</tspan></text>
        <text id="e" transform="translate(248.955 275.06)" fill="#1d1d1b" font-size="14.463" font-family="SegoeUI, Segoe UI"><tspan x="0" y="0">e</tspan></text>
        <text id="r-7" data-name="r" transform="translate(256.201 275.06)" fill="#1d1d1b" font-size="14.463" font-family="SegoeUI, Segoe UI"><tspan x="0" y="0">r</tspan></text>
        <text id="as" transform="translate(260.858 275.06)" fill="#1d1d1b" font-size="14.463" font-family="SegoeUI, Segoe UI"><tspan x="0" y="0">as</tspan></text>
        <text id="_-Diagonales" data-name="-Diagonales" transform="translate(219.667 292.417)" fill="#1d1d1b" font-size="14.463" font-family="SegoeUI, Segoe UI"><tspan x="0" y="0">-Diagonales</tspan></text>
        <text id="_--3" data-name="-" transform="translate(219.667 309.772)" fill="#1d1d1b" font-size="14.463" font-family="SegoeUI, Segoe UI"><tspan x="0" y="0">-</tspan></text>
        <text id="T" transform="translate(223.398 309.772)" fill="#1d1d1b" font-size="14.463" font-family="SegoeUI, Segoe UI"><tspan x="0" y="0">T</tspan></text>
        <text id="r-8" data-name="r" transform="translate(229.95 309.772)" fill="#1d1d1b" font-size="14.463" font-family="SegoeUI, Segoe UI"><tspan x="0" y="0">r</tspan></text>
        <text id="ans" transform="translate(234.607 309.772)" fill="#1d1d1b" font-size="14.463" font-family="SegoeUI, Segoe UI"><tspan x="0" y="0">ans</tspan></text>
        <text id="v-2" data-name="v" transform="translate(255.333 309.772)" fill="#1d1d1b" font-size="14.463" font-family="SegoeUI, Segoe UI"><tspan x="0" y="0">v</tspan></text>
        <text id="ersales" transform="translate(262.16 309.772)" fill="#1d1d1b" font-size="14.463" font-family="SegoeUI, Segoe UI"><tspan x="0" y="0">ersales</tspan></text>
        <text id="_--4" data-name="-" transform="translate(219.667 327.128)" fill="#1d1d1b" font-size="14.463" font-family="SegoeUI, Segoe UI"><tspan x="0" y="0">-</tspan></text>
        <text id="A-6" data-name="A" transform="translate(224.064 327.128)" fill="#1d1d1b" font-size="14.463" font-family="SegoeUI, Segoe UI"><tspan x="0" y="0">A</tspan></text>
        <text id="v-3" data-name="v" transform="translate(232.612 327.128)" fill="#1d1d1b" font-size="14.463" font-family="SegoeUI, Segoe UI"><tspan x="0" y="0">v</tspan></text>
        <text id="enidas" transform="translate(239.438 327.128)" fill="#1d1d1b" font-size="14.463" font-family="SegoeUI, Segoe UI"><tspan x="0" y="0">enidas</tspan></text>
        <text id="_--5" data-name="-" transform="translate(410.376 283.276)" fill="#1d1d1b" font-size="14.463" font-family="SegoeUI, Segoe UI"><tspan x="0" y="0">-</tspan></text>
        <text id="D" transform="translate(414.816 283.276)" fill="#1d1d1b" font-size="14.463" font-family="SegoeUI, Segoe UI"><tspan x="0" y="0">D</tspan></text>
        <text id="os_" data-name="os " transform="translate(424.507 283.276)" fill="#1d1d1b" font-size="14.463" font-family="SegoeUI, Segoe UI"><tspan x="0" y="0">os </tspan></text>
        <text id="v-4" data-name="v" transform="translate(441.24 283.276)" fill="#1d1d1b" font-size="14.463" font-family="SegoeUI, Segoe UI"><tspan x="0" y="0">v</tspan></text>
        <text id="alo" transform="translate(448.153 283.276)" fill="#1d1d1b" font-size="14.463" font-family="SegoeUI, Segoe UI"><tspan x="0" y="0">alo</tspan></text>
        <text id="r-9" data-name="r" transform="translate(466.479 283.276)" fill="#1d1d1b" font-size="14.463" font-family="SegoeUI, Segoe UI"><tspan x="0" y="0">r</tspan></text>
        <text id="es-4" data-name="es" transform="translate(471.063 283.276)" fill="#1d1d1b" font-size="14.463" font-family="SegoeUI, Segoe UI"><tspan x="0" y="0">es</tspan></text>
        <text id="_numé" data-name="  numé" transform="translate(410.376 300.632)" fill="#1d1d1b" font-size="14.463" font-family="SegoeUI, Segoe UI"><tspan x="0" y="0" xml:space="preserve">  numé</tspan></text>
        <text id="r-10" data-name="r" transform="translate(451.813 300.632)" fill="#1d1d1b" font-size="14.463" font-family="SegoeUI, Segoe UI"><tspan x="0" y="0">r</tspan></text>
        <text id="i-3" data-name="i" transform="translate(456.586 300.632)" fill="#1d1d1b" font-size="14.463" font-family="SegoeUI, Segoe UI"><tspan x="0" y="0">i</tspan></text>
        <text id="c-6" data-name="c" transform="translate(459.97 300.632)" fill="#1d1d1b" font-size="14.463" font-family="SegoeUI, Segoe UI"><tspan x="0" y="0">c</tspan></text>
        <text id="os-2" data-name="os" transform="translate(466.362 300.632)" fill="#1d1d1b" font-size="14.463" font-family="SegoeUI, Segoe UI"><tspan x="0" y="0">os</tspan></text>
        <text id="_-Un_guion" data-name="-Un guion" transform="translate(410.376 315.341)" fill="#1d1d1b" font-size="14.463" font-family="SegoeUI, Segoe UI"><tspan x="0" y="0">-Un guion</tspan></text>
        <text id="compuesta_por-2" data-name="compuesta por" transform="translate(578.5 299.532)" fill="#1d1d1b" font-size="14.463" font-family="SegoeUI, Segoe UI"><tspan x="0" y="0">compuesta por</tspan></text>
        <text id="Nume" transform="translate(7.003 231.599)" fill="#1d1d1b" font-size="14.463" font-family="SegoeUI, Segoe UI"><tspan x="0" y="0">Nume</tspan></text>
        <text id="r-11" data-name="r" transform="translate(43.797 231.599)" fill="#1d1d1b" font-size="14.463" font-family="SegoeUI, Segoe UI"><tspan x="0" y="0">r</tspan></text>
        <text id="ación_de_la_" data-name="ación de la " transform="translate(48.454 231.599)" fill="#1d1d1b" font-size="14.463" font-family="SegoeUI, Segoe UI"><tspan x="0" y="0">ación de la </tspan></text>
        <text id="r-12" data-name="r" transform="translate(116.242 231.599)" fill="#1d1d1b" font-size="14.463" font-family="SegoeUI, Segoe UI"><tspan x="0" y="0">r</tspan></text>
        <text id="ama_vial" data-name="ama vial" transform="translate(120.914 231.599)" fill="#1d1d1b" font-size="14.463" font-family="SegoeUI, Segoe UI"><tspan x="0" y="0">ama vial</tspan></text>
        <text id="Nume-2" data-name="Nume" transform="translate(542.9 229.257)" fill="#1d1d1b" font-size="14.463" font-family="SegoeUI, Segoe UI"><tspan x="0" y="0">Nume</tspan></text>
        <text id="r-13" data-name="r" transform="translate(579.694 229.257)" fill="#1d1d1b" font-size="14.463" font-family="SegoeUI, Segoe UI"><tspan x="0" y="0">r</tspan></text>
        <text id="ación_de_los_p" data-name="ación de los p" transform="translate(584.352 229.257)" fill="#1d1d1b" font-size="14.463" font-family="SegoeUI, Segoe UI"><tspan x="0" y="0">ación de los p</tspan></text>
        <text id="r-14" data-name="r" transform="translate(667.065 229.257)" fill="#1d1d1b" font-size="14.463" font-family="SegoeUI, Segoe UI"><tspan x="0" y="0">r</tspan></text>
        <text id="edio" transform="translate(671.665 229.257)" fill="#1d1d1b" font-size="14.463" font-family="SegoeUI, Segoe UI"><tspan x="0" y="0">edio</tspan></text>
        <text id="s" transform="translate(698.393 229.257)" fill="#1d1d1b" font-size="14.463" font-family="SegoeUI, Segoe UI"><tspan x="0" y="0">s</tspan></text>
        <text id="_2" data-name="," transform="translate(703.961 229.257)" fill="#1d1d1b" font-size="14.463" font-family="SegoeUI, Segoe UI"><tspan x="0" y="0">,</tspan></text>
        <text id="r-15" data-name="r" transform="translate(553.474 246.612)" fill="#1d1d1b" font-size="14.463" font-family="SegoeUI, Segoe UI"><tspan x="0" y="0">r</tspan></text>
        <text id="esidencias_o_domicilios" data-name="esidencias o domicilios" transform="translate(558.058 246.612)" fill="#1d1d1b" font-size="14.463" font-family="SegoeUI, Segoe UI"><tspan x="0" y="0">esidencias o domicilios</tspan></text>
        <text id="N-3" data-name="N" transform="translate(560.83 168.044)" fill="#1d1d1b" font-size="13" font-family="MyriadPro-Bold, Myriad Pro" font-weight="700"><tspan x="0" y="0">N</tspan></text>
        <text id="omencl-3" data-name="omencl" transform="translate(569.773 168.044)" fill="#1d1d1b" font-size="13" font-family="MyriadPro-Bold, Myriad Pro" font-weight="700"><tspan x="0" y="0">omencl</tspan></text>
        <text id="a-7" data-name="a" transform="translate(612.374 168.044)" fill="#1d1d1b" font-size="13" font-family="MyriadPro-Bold, Myriad Pro" font-weight="700"><tspan x="0" y="0">a</tspan></text>
        <text id="tu-3" data-name="tu" transform="translate(619.135 168.044)" fill="#1d1d1b" font-size="13" font-family="MyriadPro-Bold, Myriad Pro" font-weight="700"><tspan x="0" y="0">tu</tspan></text>
        <text id="r-16" data-name="r" transform="translate(631.484 168.044)" fill="#1d1d1b" font-size="13" font-family="MyriadPro-Bold, Myriad Pro" font-weight="700"><tspan x="0" y="0">r</tspan></text>
        <text id="a_" data-name="a " transform="translate(636.295 168.044)" fill="#1d1d1b" font-size="13" font-family="MyriadPro-Bold, Myriad Pro" font-weight="700"><tspan x="0" y="0">a </tspan></text>
        <text id="p" transform="translate(645.784 168.044)" fill="#1d1d1b" font-size="13" font-family="MyriadPro-Bold, Myriad Pro" font-weight="700"><tspan x="0" y="0">p</tspan></text>
        <text id="r-17" data-name="r" transform="translate(653.221 168.044)" fill="#1d1d1b" font-size="13" font-family="MyriadPro-Bold, Myriad Pro" font-weight="700"><tspan x="0" y="0">r</tspan></text>
        <text id="edial" transform="translate(658.069 168.044)" fill="#1d1d1b" font-size="13" font-family="MyriadPro-Bold, Myriad Pro" font-weight="700"><tspan x="0" y="0">edial</tspan></text>
        <g id="Grupo_1009650" data-name="Grupo 1009650">
          <g id="Grupo_1009649" data-name="Grupo 1009649" clip-path="url(#clip-path)">
            <path id="Trazado_726610" data-name="Trazado 726610" d="M356.443,111.708v17.57H88.907v20.8" fill="none" stroke="#1d1d1b" stroke-miterlimit="10" stroke-width="1.205"/>
            <path id="Trazado_726611" data-name="Trazado 726611" d="M86.864,147.682l2.043,2.044,2.044-2.044v1.735l-2.044,2.043-2.043-2.043Z" fill="#1d1d1b"/>
            <path id="Trazado_726612" data-name="Trazado 726612" d="M356.443,129.278H624.952v21.574" fill="none" stroke="#1d1d1b" stroke-miterlimit="10" stroke-width="1.205"/>
            <path id="Trazado_726613" data-name="Trazado 726613" d="M622.909,148.452l2.043,2.044L627,148.452v1.735l-2.044,2.043-2.043-2.043Z" fill="#1d1d1b"/>
            <line id="Línea_2948" data-name="Línea 2948" y2="83.808" transform="translate(215.495 245.111)" fill="none" stroke="#1d1d1b" stroke-miterlimit="10" stroke-width="1.205"/>
            <line id="Línea_2949" data-name="Línea 2949" x2="76.291" transform="translate(139.203 287.856)" fill="none" stroke="#1d1d1b" stroke-miterlimit="10" stroke-width="1.205"/>
            <line id="Línea_2950" data-name="Línea 2950" y1="83.808" transform="translate(492.842 253.268)" fill="none" stroke="#1d1d1b" stroke-miterlimit="10" stroke-width="1.205"/>
            <line id="Línea_2951" data-name="Línea 2951" x1="76.291" transform="translate(492.842 294.331)" fill="none" stroke="#1d1d1b" stroke-miterlimit="10" stroke-width="1.205"/>
          </g>
        </g>
      </g>
    </g>
  </g>
</svg>
