<svg xmlns="http://www.w3.org/2000/svg" xmlns:xlink="http://www.w3.org/1999/xlink" width="517.944" height="95.743" viewBox="0 0 517.944 95.743">
  <defs>
    <clipPath id="clip-path">
      <rect id="Rect치ngulo_348363" data-name="Rect치ngulo 348363" width="517.944" height="95.743" fill="none"/>
    </clipPath>
    <clipPath id="clip-path-2">
      <rect id="Rect치ngulo_348362" data-name="Rect치ngulo 348362" width="64.89" height="45.35" fill="none"/>
    </clipPath>
  </defs>
  <g id="Grupo_1010064" data-name="Grupo 1010064" transform="translate(-227 -7111)">
    <g id="Grupo_1009421" data-name="Grupo 1009421" transform="translate(227 7111)">
      <g id="Grupo_1009420" data-name="Grupo 1009420" clip-path="url(#clip-path)">
        <path id="Trazado_718644" data-name="Trazado 718644" d="M147.232,22.675A22.676,22.676,0,0,1,124.557,45.35H23.9A22.676,22.676,0,0,1,23.9,0H124.557a22.676,22.676,0,0,1,22.675,22.676" transform="translate(-0.112 0)" fill="#3076b6"/>
        <path id="Trazado_718645" data-name="Trazado 718645" d="M231.541,22.675A22.676,22.676,0,0,1,208.866,45.35H195.147a22.676,22.676,0,1,1,0-45.351h13.718a22.676,22.676,0,0,1,22.675,22.676" transform="translate(-15.792 0)" fill="#4db1f0"/>
        <g id="Grupo_1009419" data-name="Grupo 1009419" transform="translate(215.749)" opacity="0.5">
          <g id="Grupo_1009418" data-name="Grupo 1009418">
            <g id="Grupo_1009417" data-name="Grupo 1009417" clip-path="url(#clip-path-2)">
              <path id="Trazado_718646" data-name="Trazado 718646" d="M302.385,22.675c0,12.524-9.192,22.676-20.531,22.676H258.026c-11.339,0-20.531-10.152-20.531-22.676S246.687,0,258.026,0h23.828c11.339,0,20.531,10.152,20.531,22.676" transform="translate(-237.495 0)" fill="#4db1f0"/>
            </g>
          </g>
        </g>
      </g>
    </g>
    <path id="Trazado_728949" data-name="Trazado 728949" d="M10.222-2.622A7.235,7.235,0,0,1,7.809-2.2a3.824,3.824,0,0,1-4.1-4.18A3.852,3.852,0,0,1,7.79-10.621a6.254,6.254,0,0,1,2.432.475l.589-2.3a7.551,7.551,0,0,0-3.154-.57c-3.876,0-6.992,2.432-6.992,6.8,0,3.648,2.28,6.4,6.707,6.4a8.254,8.254,0,0,0,3.287-.551Z" transform="translate(252.751 7140.707)" fill="#fff"/>
    <path id="Trazado_728950" data-name="Trazado 728950" d="M8.32-3.46,9.36,0h3.28L8.46-13.48h-4L.34,0H3.5l.96-3.46ZM4.9-5.74,5.7-8.6c.22-.78.42-1.8.62-2.6h.04c.2.8.44,1.8.68,2.6l.84,2.86ZM15.24,0h8.42V-2.56H18.3V-13.48H15.24ZM26.26,0h8.42V-2.56H29.32V-13.48H26.26Z" transform="translate(265.655 7141.707)" fill="#fff"/>
    <path id="Trazado_728951" data-name="Trazado 728951" d="M9.34-8.18H4.38v-2.8H9.64v-2.5H1.32V0h8.6V-2.5H4.38V-5.7H9.34Z" transform="translate(301.626 7141.707)" fill="#fff"/>
    <path id="Trazado_728952" data-name="Trazado 728952" d="M8.226-11.862a7.818,7.818,0,0,0-1.1.018A7.01,7.01,0,0,0,2.61-10.116a7.005,7.005,0,0,0-2.07,5.2C.54-2.124,2.07.2,5.184.2A4.19,4.19,0,0,0,9.5-4.032,3.551,3.551,0,0,0,5.886-7.848,3.3,3.3,0,0,0,3.4-6.912H3.348C3.654-8.28,4.734-9.522,7.164-9.72a7.521,7.521,0,0,1,1.062-.036ZM5.148-1.818c-1.242,0-1.836-1.116-1.89-2.358a1.579,1.579,0,0,1,.108-.684A1.785,1.785,0,0,1,4.986-5.9,1.788,1.788,0,0,1,6.732-3.888C6.732-2.7,6.12-1.818,5.148-1.818Z" transform="translate(317.91 7139.707)" fill="#fff"/>
    <path id="Trazado_728953" data-name="Trazado 728953" d="M9.054,0V-2.25H4.644v-.036l1.08-.9C7.416-4.7,8.838-6.264,8.838-8.226c0-2.124-1.458-3.672-4.1-3.672A6.477,6.477,0,0,0,.9-10.692L1.674-8.73a4.24,4.24,0,0,1,2.5-.972c1.35,0,1.926.756,1.926,1.71C6.066-6.624,4.824-5.31,2.268-3.024L.756-1.656V0Z" transform="translate(329.814 7139.707)" fill="#fff"/>
    <path id="Trazado_728954" data-name="Trazado 728954" d="M1.254-.057a22.405,22.405,0,0,0,3.135.19c2.546,0,4.1-.418,5.035-1.159a3.412,3.412,0,0,0,1.33-2.717A3.2,3.2,0,0,0,8.208-6.9v-.038a2.894,2.894,0,0,0,2.109-2.736,2.787,2.787,0,0,0-1.539-2.508A7.073,7.073,0,0,0,5-12.9a23.072,23.072,0,0,0-3.743.266ZM4.123-10.716a7.907,7.907,0,0,1,1.235-.076c1.311,0,2.052.513,2.052,1.482,0,.95-.817,1.577-2.337,1.577h-.95Zm0,5.054h.988c1.444,0,2.6.513,2.6,1.805,0,1.349-1.159,1.843-2.47,1.843a9.136,9.136,0,0,1-1.121-.038Z" transform="translate(341.698 7140.707)" fill="#fff"/>
    <path id="Trazado_728955" data-name="Trazado 728955" transform="translate(354.582 7141.707)" fill="#1d1d1b"/>
    <path id="Trazado_728956" data-name="Trazado 728956" transform="translate(364.265 7141.707)" fill="#1d1d1b"/>
    <path id="Trazado_728957" data-name="Trazado 728957" d="M4.237-5.149l.3-2.128H6.27l-.3,2.128ZM3.458,0l.475-3.4H5.662L5.187,0H6.9l.475-3.4H9.234V-5.149H7.657l.3-2.128H9.747V-9.044H8.227l.494-3.306H7.03L6.536-9.044H4.807l.475-3.306H3.591L3.116-9.044H1.235v1.767H2.85l-.3,2.128H.7V-3.4H2.242L1.748,0Z" transform="translate(393.192 7140.707)" fill="#1d1d1b"/>
    <path id="Trazado_728958" data-name="Trazado 728958" d="M4.484,0H7.277V-12.35H4.883L1.615-10.83,2.09-8.664,4.446-9.785h.038ZM13,.171a9.966,9.966,0,0,0,1.311,0,7.3,7.3,0,0,0,4.712-1.729,7.373,7.373,0,0,0,2.166-5.681c0-2.888-1.5-5.32-4.674-5.32a4.49,4.49,0,0,0-4.655,4.446,3.721,3.721,0,0,0,3.857,3.857,3.26,3.26,0,0,0,2.47-.893l.057.019a3.839,3.839,0,0,1-1.558,2.28,4.964,4.964,0,0,1-2.432.76A6.8,6.8,0,0,1,13-2.09ZM16.435-10.45c1.311,0,1.805,1.292,1.805,2.6a1.361,1.361,0,0,1-.152.722,1.82,1.82,0,0,1-1.6.817,1.759,1.759,0,0,1-1.748-1.976C14.725-9.576,15.447-10.45,16.435-10.45Z" transform="translate(404.997 7140.707)" fill="#1d1d1b"/>
    <path id="Trazado_728959" data-name="Trazado 728959" d="M.6-6.26v2.02H5.84V-6.26Z" transform="translate(438.406 7141.707)" fill="#1d1d1b"/>
    <path id="Trazado_728960" data-name="Trazado 728960" d="M9.557,0V-2.375H4.9v-.038l1.14-.95c1.786-1.6,3.287-3.249,3.287-5.32,0-2.242-1.539-3.876-4.332-3.876A6.837,6.837,0,0,0,.95-11.286l.817,2.071a4.475,4.475,0,0,1,2.641-1.026c1.425,0,2.033.8,2.033,1.805C6.4-6.992,5.092-5.605,2.394-3.192L.8-1.748V0ZM20.33-12.35h-6.8l-.817,6.479a10.663,10.663,0,0,1,1.672-.114c2.47,0,3.477.779,3.477,2.052,0,1.311-1.273,1.881-2.47,1.881A7.1,7.1,0,0,1,12.6-2.66L12.084-.494a7.849,7.849,0,0,0,3.439.7c3.325,0,5.3-2.033,5.3-4.332a3.515,3.515,0,0,0-1.5-3.1,5.648,5.648,0,0,0-3.249-.893,5.352,5.352,0,0,0-.8.038l.266-1.9H20.33Zm7.562-.209c-3.192,0-4.712,2.831-4.712,6.4C23.2-2.66,24.605.209,27.8.209c3.154,0,4.693-2.622,4.693-6.441C32.49-9.614,31.2-12.559,27.892-12.559Zm-.038,2.185c1.159,0,1.748,1.444,1.748,4.18,0,2.812-.608,4.218-1.729,4.218s-1.805-1.349-1.786-4.18C26.068-9.025,26.79-10.374,27.854-10.374Z" transform="translate(455.332 7140.707)" fill="#1d1d1b"/>
    <path id="Trazado_728961" data-name="Trazado 728961" d="M2.06,2.2A27.684,27.684,0,0,0,4.58-3.5l-3.1.2A33.784,33.784,0,0,1,.04,2.38Z" transform="translate(490.981 7141.707)" fill="#1d1d1b"/>
    <path id="Trazado_728962" data-name="Trazado 728962" transform="translate(496.985 7138.707)" fill="#1d1d1b"/>
    <path id="Trazado_728963" data-name="Trazado 728963" transform="translate(501.806 7138.707)" fill="#1d1d1b"/>
    <path id="Trazado_728964" data-name="Trazado 728964" transform="translate(506.648 7141.707)" fill="#1d1d1b"/>
    <path id="Trazado_728965" data-name="Trazado 728965" d="M3.724,0H6.631V-10.374h3.5v-2.432H.285v2.432H3.724Z" transform="translate(543.198 7140.707)" fill="#1d1d1b"/>
    <path id="Trazado_728966" data-name="Trazado 728966" d="M5.586-9.5A4.638,4.638,0,0,0,.627-4.579,4.551,4.551,0,0,0,5.434.209a4.662,4.662,0,0,0,4.9-4.959A4.518,4.518,0,0,0,5.586-9.5ZM5.51-7.448c1.311,0,1.843,1.406,1.843,2.793,0,1.672-.722,2.793-1.843,2.793-1.235,0-1.9-1.2-1.9-2.793C3.61-6.023,4.123-7.448,5.51-7.448Z" transform="translate(553.361 7140.707)" fill="#1d1d1b"/>
    <path id="Trazado_728967" data-name="Trazado 728967" d="M1.159,0H4.047V-4.712A3.406,3.406,0,0,1,4.1-5.358,1.857,1.857,0,0,1,6.08-6.821a4.14,4.14,0,0,1,.779.076V-9.462A2.977,2.977,0,0,0,6.251-9.5,2.729,2.729,0,0,0,3.743-7.581H3.667l-.095-1.71H1.083c.038.8.076,1.691.076,3.059Z" transform="translate(565.686 7140.707)" fill="#1d1d1b"/>
    <path id="Trazado_728968" data-name="Trazado 728968" d="M1.159,0H4.047V-4.712A3.406,3.406,0,0,1,4.1-5.358,1.857,1.857,0,0,1,6.08-6.821a4.14,4.14,0,0,1,.779.076V-9.462A2.977,2.977,0,0,0,6.251-9.5,2.729,2.729,0,0,0,3.743-7.581H3.667l-.095-1.71H1.083c.038.8.076,1.691.076,3.059Z" transform="translate(574.088 7140.707)" fill="#1d1d1b"/>
    <path id="Trazado_728969" data-name="Trazado 728969" d="M9.367-3.724a6.861,6.861,0,0,0,.1-1.14c0-2.3-1.14-4.636-4.142-4.636C2.09-9.5.627-6.9.627-4.541.627-1.634,2.432.19,5.586.19A9.171,9.171,0,0,0,8.949-.38l-.38-1.957A8.183,8.183,0,0,1,6-1.957c-1.349,0-2.527-.57-2.622-1.767Zm-6-1.976A1.9,1.9,0,0,1,5.149-7.581,1.677,1.677,0,0,1,6.783-5.7Z" transform="translate(582.33 7140.707)" fill="#1d1d1b"/>
    <path id="Trazado_728970" data-name="Trazado 728970" d="M9.54,0h2.94V-13H9.96L6.52-11.4l.5,2.28L9.5-10.3h.04Z" transform="translate(593.693 7141.707)" fill="#1d1d1b"/>
    <path id="Trazado_728971" data-name="Trazado 728971" d="M8.32-3.46,9.36,0h3.28L8.46-13.48h-4L.34,0H3.5l.96-3.46ZM4.9-5.74,5.7-8.6c.22-.78.42-1.8.62-2.6h.04c.2.8.44,1.8.68,2.6l.84,2.86Z" transform="translate(610.398 7141.707)" fill="#1d1d1b"/>
    <path id="Trazado_728972" data-name="Trazado 728972" d="M7.9-3.287,8.892,0h3.116L8.037-12.806h-3.8L.323,0h3l.912-3.287ZM4.655-5.453l.76-2.717c.209-.741.4-1.71.589-2.47h.038c.19.76.418,1.71.646,2.47l.8,2.717Z" transform="translate(629.165 7140.707)" fill="#1d1d1b"/>
    <path id="Trazado_728973" data-name="Trazado 728973" d="M1.159,3.762H4.047V-.855h.038A2.886,2.886,0,0,0,6.5.209c2.071,0,4.218-1.6,4.218-4.978,0-2.964-1.824-4.731-3.857-4.731A3.566,3.566,0,0,0,3.762-8H3.724L3.591-9.291H1.083c.038.855.076,1.9.076,3.116ZM4.047-5.263A2.234,2.234,0,0,1,4.1-5.776,1.814,1.814,0,0,1,5.833-7.239c1.292,0,1.957,1.121,1.957,2.6,0,1.577-.741,2.622-2,2.622A1.748,1.748,0,0,1,4.1-3.382a2.876,2.876,0,0,1-.057-.608Z" transform="translate(642.969 7140.707)" fill="#1d1d1b"/>
    <path id="Trazado_728974" data-name="Trazado 728974" d="M1.64-11.9v2.12H.34v2.24h1.3v4a4.052,4.052,0,0,0,.84,2.9A3.162,3.162,0,0,0,4.76.2,5.964,5.964,0,0,0,6.74-.06l-.02-2.3a4.965,4.965,0,0,1-.9.08c-.92,0-1.2-.54-1.2-1.72V-7.54H6.8V-9.78H4.62v-2.8Z" transform="translate(655.732 7141.707)" fill="#1d1d1b"/>
    <path id="Trazado_728975" data-name="Trazado 728975" d="M5.88-10A4.882,4.882,0,0,0,.66-4.82,4.791,4.791,0,0,0,5.72.22,4.907,4.907,0,0,0,10.88-5,4.756,4.756,0,0,0,5.88-10ZM5.8-7.84c1.38,0,1.94,1.48,1.94,2.94,0,1.76-.76,2.94-1.94,2.94-1.3,0-2-1.26-2-2.94C3.8-6.34,4.34-7.84,5.8-7.84Z" transform="translate(663.775 7141.707)" fill="#1d1d1b"/>
    <path id="Trazado_728976" data-name="Trazado 728976" d="M9.054,0V-2.25H4.644v-.036l1.08-.9C7.416-4.7,8.838-6.264,8.838-8.226c0-2.124-1.458-3.672-4.1-3.672A6.477,6.477,0,0,0,.9-10.692L1.674-8.73a4.24,4.24,0,0,1,2.5-.972c1.35,0,1.926.756,1.926,1.71C6.066-6.624,4.824-5.31,2.268-3.024L.756-1.656V0Z" transform="translate(680.96 7139.707)" fill="#1d1d1b"/>
    <path id="Trazado_728977" data-name="Trazado 728977" d="M5.04-11.9C2.016-11.9.576-9.216.576-5.832.594-2.52,1.926.2,4.95.2,7.938.2,9.4-2.286,9.4-5.9,9.4-9.108,8.172-11.9,5.04-11.9ZM5-9.828c1.1,0,1.656,1.368,1.656,3.96,0,2.664-.576,4-1.638,4S3.312-3.15,3.33-5.832C3.312-8.55,4-9.828,5-9.828Z" transform="translate(692.844 7139.707)" fill="#1d1d1b"/>
    <path id="Trazado_728978" data-name="Trazado 728978" d="M4.48,0,7.854-9.436h-1.3l-1.6,4.662c-.42,1.232-.812,2.422-1.078,3.514H3.85c-.252-1.106-.6-2.254-1.008-3.528L1.372-9.436H.056L3.136,0Z" transform="translate(291.332 7194.392)" fill="#1d1d1b"/>
    <path id="Trazado_728979" data-name="Trazado 728979" d="M2.254,0V-6.776H1.022V0ZM2.17-9.7.938-7.7H1.82l1.708-2Zm7,9.7a9.541,9.541,0,0,1-.112-1.624V-4.158c0-1.358-.5-2.772-2.576-2.772a4.205,4.205,0,0,0-2.226.6l.28.812A3.376,3.376,0,0,1,6.3-6.02,1.4,1.4,0,0,1,7.84-4.452v.14c-2.618-.014-4.074.882-4.074,2.52A1.93,1.93,0,0,0,5.838.154,2.524,2.524,0,0,0,7.91-.854h.042L8.05,0Zm-1.3-2.282a1.286,1.286,0,0,1-.07.392A1.686,1.686,0,0,1,6.16-.756,1.09,1.09,0,0,1,5-1.932c0-1.316,1.526-1.554,2.87-1.526Z" transform="translate(299.78 7194.392)" fill="#1d1d1b"/>
    <path id="Trazado_728980" data-name="Trazado 728980" d="M2.212,0V-4.032c0-1.568-.028-2.7-.1-3.892l.042-.014A29.951,29.951,0,0,0,3.92-4.788L6.916,0H8.148V-9.436H7v3.948c0,1.47.028,2.618.14,3.878L7.112-1.6A26.711,26.711,0,0,0,5.418-4.662L2.394-9.436H1.064V0ZM15.9-6.776H14.672v4.158a1.8,1.8,0,0,1-.112.63,1.781,1.781,0,0,1-1.624,1.12c-1.12,0-1.512-.868-1.512-2.156V-6.776H10.192v3.962c0,2.38,1.274,2.968,2.338,2.968a2.549,2.549,0,0,0,2.24-1.26H14.8L14.868,0H15.96c-.042-.532-.056-1.148-.056-1.848ZM13.706-9.7l-1.232,2h.882l1.708-2ZM17.948,0h1.2V-4.088a1.7,1.7,0,0,1,.1-.6,1.683,1.683,0,0,1,1.526-1.232c.938,0,1.414.784,1.414,1.862V0h1.2V-4.186a2.029,2.029,0,0,1,.1-.616,1.6,1.6,0,0,1,1.456-1.12c.994,0,1.47.784,1.47,2.086V0h1.2V-3.99c0-2.352-1.33-2.94-2.226-2.94a2.312,2.312,0,0,0-1.5.476,2.791,2.791,0,0,0-.756.882h-.028A2,2,0,0,0,21.2-6.93a2.335,2.335,0,0,0-2.128,1.246h-.042L18.97-6.776H17.892c.042.56.056,1.134.056,1.834ZM35.07-3.164a4.647,4.647,0,0,0,.042-.574c0-1.246-.588-3.192-2.8-3.192-1.974,0-3.178,1.61-3.178,3.654A3.147,3.147,0,0,0,32.466.14,5.488,5.488,0,0,0,34.72-.28l-.21-.882a4.455,4.455,0,0,1-1.876.35A2.171,2.171,0,0,1,30.31-3.164Zm-4.746-.882a2.042,2.042,0,0,1,1.89-2,1.754,1.754,0,0,1,1.708,2Z" transform="translate(419.136 7187.283)" fill="#1d1d1b"/>
    <path id="Trazado_728981" data-name="Trazado 728981" d="M1.022,0H2.24V-3.612A3.468,3.468,0,0,1,2.3-4.186,1.728,1.728,0,0,1,3.948-5.768a1.851,1.851,0,0,1,.42.042V-6.888a1.333,1.333,0,0,0-.35-.042A2.033,2.033,0,0,0,2.142-5.446H2.086l-.042-1.33H.966c.042.63.056,1.316.056,2.114Z" transform="translate(458.714 7187.283)" fill="#1d1d1b"/>
    <path id="Trazado_728982" data-name="Trazado 728982" d="M3.892-6.93a3.309,3.309,0,0,0-3.36,3.6A3.221,3.221,0,0,0,3.78.154a3.312,3.312,0,0,0,3.374-3.6A3.209,3.209,0,0,0,3.892-6.93Zm-.028.924c1.456,0,2.03,1.456,2.03,2.6,0,1.526-.882,2.632-2.058,2.632-1.2,0-2.058-1.12-2.058-2.6C1.778-4.662,2.408-6.006,3.864-6.006Z" transform="translate(463.646 7187.283)" fill="#1d1d1b"/>
    <g id="Grupo_1009423" data-name="Grupo 1009423" transform="translate(227 7111)">
      <g id="Grupo_1009422" data-name="Grupo 1009422" clip-path="url(#clip-path)">
        <text id="de_la_placa" data-name="de la placa" transform="translate(184.248 90.502)" fill="#1d1d1b" font-size="14" font-family="MyriadPro-Regular, Myriad Pro"><tspan x="0" y="0">de la placa</tspan></text>
      </g>
    </g>
    <path id="Trazado_728983" data-name="Trazado 728983" d="M1.064-.028A19.659,19.659,0,0,0,3.276.084,5.813,5.813,0,0,0,7.448-1.274,4.991,4.991,0,0,0,8.806-4.942,4.346,4.346,0,0,0,7.476-8.33,5.4,5.4,0,0,0,3.654-9.506a17.446,17.446,0,0,0-2.59.2ZM2.282-8.414A6.921,6.921,0,0,1,3.71-8.54c2.576,0,3.836,1.414,3.822,3.64,0,2.548-1.414,4-4.018,4a7.691,7.691,0,0,1-1.232-.07ZM11.578,0V-6.776H10.346V0Zm-.616-9.45a.751.751,0,0,0-.77.77.733.733,0,0,0,.742.756.728.728,0,0,0,.784-.756A.731.731,0,0,0,10.962-9.45Z" transform="translate(573.792 7194.392)" fill="#1d1d1b"/>
    <path id="Trazado_728984" data-name="Trazado 728984" d="M1.022,0H2.24V-3.612A3.468,3.468,0,0,1,2.3-4.186,1.728,1.728,0,0,1,3.948-5.768a1.851,1.851,0,0,1,.42.042V-6.888a1.333,1.333,0,0,0-.35-.042A2.033,2.033,0,0,0,2.142-5.446H2.086l-.042-1.33H.966c.042.63.056,1.316.056,2.114Z" transform="translate(587.793 7194.392)" fill="#1d1d1b"/>
    <path id="Trazado_728985" data-name="Trazado 728985" d="M6.468-3.164a4.647,4.647,0,0,0,.042-.574c0-1.246-.588-3.192-2.8-3.192C1.736-6.93.532-5.32.532-3.276A3.147,3.147,0,0,0,3.864.14,5.488,5.488,0,0,0,6.118-.28l-.21-.882a4.455,4.455,0,0,1-1.876.35A2.171,2.171,0,0,1,1.708-3.164ZM1.722-4.046a2.042,2.042,0,0,1,1.89-2,1.754,1.754,0,0,1,1.708,2Z" transform="translate(592.725 7194.392)" fill="#1d1d1b"/>
    <path id="Trazado_728986" data-name="Trazado 728986" d="M5.642-1.176A3.5,3.5,0,0,1,4.13-.84,2.323,2.323,0,0,1,1.778-3.374,2.345,2.345,0,0,1,4.172-5.936,2.857,2.857,0,0,1,5.6-5.614l.28-.952a4.118,4.118,0,0,0-1.708-.35,3.443,3.443,0,0,0-3.64,3.6A3.219,3.219,0,0,0,3.906.14,4.538,4.538,0,0,0,5.852-.252Z" transform="translate(600.52 7194.392)" fill="#1d1d1b"/>
    <path id="Trazado_728987" data-name="Trazado 728987" d="M5.642-1.176A3.5,3.5,0,0,1,4.13-.84,2.323,2.323,0,0,1,1.778-3.374,2.345,2.345,0,0,1,4.172-5.936,2.857,2.857,0,0,1,5.6-5.614l.28-.952a4.118,4.118,0,0,0-1.708-.35,3.443,3.443,0,0,0-3.64,3.6A3.219,3.219,0,0,0,3.906.14,4.538,4.538,0,0,0,5.852-.252ZM8.526,0V-6.776H7.294V0ZM7.91-9.45a.751.751,0,0,0-.77.77.733.733,0,0,0,.742.756.728.728,0,0,0,.784-.756A.731.731,0,0,0,7.91-9.45Zm5.53,2.52a3.309,3.309,0,0,0-3.36,3.6A3.221,3.221,0,0,0,13.328.154a3.312,3.312,0,0,0,3.374-3.6A3.209,3.209,0,0,0,13.44-6.93Zm-.028.924c1.456,0,2.03,1.456,2.03,2.6,0,1.526-.882,2.632-2.058,2.632-1.2,0-2.058-1.12-2.058-2.6C11.326-4.662,11.956-6.006,13.412-6.006Zm.462-3.7-1.232,2h.882l1.708-2ZM18.256,0h1.232V-4.074a1.771,1.771,0,0,1,.084-.574,1.75,1.75,0,0,1,1.652-1.26c1.162,0,1.568.91,1.568,2V0h1.232V-4.046c0-2.324-1.456-2.884-2.394-2.884a2.492,2.492,0,0,0-2.24,1.274h-.028l-.07-1.12H18.2c.042.56.056,1.134.056,1.834Zm11.97,0V-6.776H28.994V0ZM29.61-9.45a.751.751,0,0,0-.77.77.733.733,0,0,0,.742.756.728.728,0,0,0,.784-.756A.731.731,0,0,0,29.61-9.45Z" transform="translate(607.412 7194.392)" fill="#1d1d1b"/>
    <path id="Trazado_728988" data-name="Trazado 728988" d="M1.022,0H2.254V-4.074a1.771,1.771,0,0,1,.084-.574A1.75,1.75,0,0,1,3.99-5.908c1.162,0,1.568.91,1.568,2V0H6.79V-4.046C6.79-6.37,5.334-6.93,4.4-6.93a2.492,2.492,0,0,0-2.24,1.274H2.128l-.07-1.12H.966c.042.56.056,1.134.056,1.834Z" transform="translate(642.135 7194.392)" fill="#1d1d1b"/>
    <path id="Trazado_728989" data-name="Trazado 728989" d="M1.3-8.4v1.624H.252v.938H1.3v3.7A2.51,2.51,0,0,0,1.778-.378,1.707,1.707,0,0,0,3.108.14,3.016,3.016,0,0,0,4.2-.028L4.144-.952a2.741,2.741,0,0,1-.714.084c-.686,0-.924-.476-.924-1.316V-5.838H4.27v-.938H2.506V-8.722Z" transform="translate(650.724 7194.392)" fill="#1d1d1b"/>
    <path id="Trazado_728990" data-name="Trazado 728990" d="M6.468-3.164a4.647,4.647,0,0,0,.042-.574c0-1.246-.588-3.192-2.8-3.192C1.736-6.93.532-5.32.532-3.276A3.147,3.147,0,0,0,3.864.14,5.488,5.488,0,0,0,6.118-.28l-.21-.882a4.455,4.455,0,0,1-1.876.35A2.171,2.171,0,0,1,1.708-3.164ZM1.722-4.046a2.042,2.042,0,0,1,1.89-2,1.754,1.754,0,0,1,1.708,2Z" transform="translate(655.795 7194.392)" fill="#1d1d1b"/>
    <path id="Trazado_728991" data-name="Trazado 728991" d="M1.022,0H2.24V-3.612A3.468,3.468,0,0,1,2.3-4.186,1.728,1.728,0,0,1,3.948-5.768a1.851,1.851,0,0,1,.42.042V-6.888a1.333,1.333,0,0,0-.35-.042A2.033,2.033,0,0,0,2.142-5.446H2.086l-.042-1.33H.966c.042.63.056,1.316.056,2.114Z" transform="translate(663.589 7194.392)" fill="#1d1d1b"/>
    <path id="Trazado_728992" data-name="Trazado 728992" d="M2.254,0V-6.776H1.022V0ZM1.638-9.45a.751.751,0,0,0-.77.77.733.733,0,0,0,.742.756.728.728,0,0,0,.784-.756A.731.731,0,0,0,1.638-9.45Zm5.53,2.52a3.309,3.309,0,0,0-3.36,3.6A3.221,3.221,0,0,0,7.056.154a3.312,3.312,0,0,0,3.374-3.6A3.209,3.209,0,0,0,7.168-6.93Zm-.028.924c1.456,0,2.03,1.456,2.03,2.6C9.17-1.876,8.288-.77,7.112-.77c-1.2,0-2.058-1.12-2.058-2.6C5.054-4.662,5.684-6.006,7.14-6.006ZM11.984,0H13.2V-3.612a3.468,3.468,0,0,1,.056-.574A1.728,1.728,0,0,1,14.91-5.768a1.851,1.851,0,0,1,.42.042V-6.888a1.333,1.333,0,0,0-.35-.042A2.033,2.033,0,0,0,13.1-5.446h-.056l-.042-1.33H11.928c.042.63.056,1.316.056,2.114Z" transform="translate(668.723 7194.392)" fill="#1d1d1b"/>
    <g id="Grupo_1009425" data-name="Grupo 1009425" transform="translate(227 7111)">
      <g id="Grupo_1009424" data-name="Grupo 1009424" clip-path="url(#clip-path)">
        <path id="Trazado_718647" data-name="Trazado 718647" d="M1.223,49.922v11.99H147.232V49.922" transform="translate(-0.112 -4.571)" fill="none" stroke="#1d1d1b" stroke-miterlimit="10" stroke-width="2.446"/>
        <path id="Trazado_718648" data-name="Trazado 718648" d="M318.045,49.922v11.99h227.91V49.922" transform="translate(-29.121 -4.571)" fill="none" stroke="#1d1d1b" stroke-miterlimit="10" stroke-width="2.446"/>
        <path id="Trazado_718649" data-name="Trazado 718649" d="M172.471,49.922v11.99h123.96V49.922" transform="translate(-15.792 -4.571)" fill="none" stroke="#1d1d1b" stroke-miterlimit="10" stroke-width="2.446"/>
      </g>
    </g>
    <path id="Trazado_728993" data-name="Trazado 728993" d="M0,0H517.944V95.743H0Z" transform="translate(227 7111)" fill="none"/>
  </g>
</svg>
