<svg xmlns="http://www.w3.org/2000/svg" xmlns:xlink="http://www.w3.org/1999/xlink" width="517.944" height="95.743" viewBox="0 0 517.944 95.743">
  <defs>
    <clipPath id="clip-path">
      <rect id="Rect치ngulo_348363" data-name="Rect치ngulo 348363" width="517.944" height="95.743" fill="none"/>
    </clipPath>
    <clipPath id="clip-path-2">
      <rect id="Rect치ngulo_348362" data-name="Rect치ngulo 348362" width="64.89" height="45.35" fill="none"/>
    </clipPath>
  </defs>
  <g id="Grupo_1010073" data-name="Grupo 1010073" transform="translate(-227 -7111)">
    <g id="Grupo_1009420" data-name="Grupo 1009420" transform="translate(227 7111)" clip-path="url(#clip-path)">
      <path id="Trazado_718644" data-name="Trazado 718644" d="M147.232,22.675A22.676,22.676,0,0,1,124.557,45.35H23.9A22.676,22.676,0,0,1,23.9,0H124.557a22.676,22.676,0,0,1,22.675,22.676" transform="translate(-0.112 0)" fill="#3076b6"/>
      <path id="Trazado_718645" data-name="Trazado 718645" d="M231.541,22.675A22.676,22.676,0,0,1,208.866,45.35H195.147a22.676,22.676,0,1,1,0-45.351h13.718a22.676,22.676,0,0,1,22.675,22.676" transform="translate(-15.792 0)" fill="#4db1f0"/>
      <g id="Grupo_1009419" data-name="Grupo 1009419" transform="translate(215.749)" opacity="0.5">
        <g id="Grupo_1009418" data-name="Grupo 1009418">
          <g id="Grupo_1009417" data-name="Grupo 1009417" clip-path="url(#clip-path-2)">
            <path id="Trazado_718646" data-name="Trazado 718646" d="M302.385,22.675c0,12.524-9.192,22.676-20.531,22.676H258.026c-11.339,0-20.531-10.152-20.531-22.676S246.687,0,258.026,0h23.828c11.339,0,20.531,10.152,20.531,22.676" transform="translate(-237.495 0)" fill="#4db1f0"/>
          </g>
        </g>
      </g>
    </g>
    <path id="Trazado_728950" data-name="Trazado 728950" d="M-28.794-2.622a7.235,7.235,0,0,1-2.413.418,3.824,3.824,0,0,1-4.1-4.18,3.852,3.852,0,0,1,4.085-4.237,6.254,6.254,0,0,1,2.432.475l.589-2.3a7.551,7.551,0,0,0-3.154-.57c-3.876,0-6.992,2.432-6.992,6.8,0,3.648,2.28,6.4,6.707,6.4a8.254,8.254,0,0,0,3.287-.551ZM-18.857,0a14.4,14.4,0,0,1-.133-2.261v-3.23c0-2.185-.988-4.009-4.085-4.009a7.669,7.669,0,0,0-3.61.817l.532,1.862a5.225,5.225,0,0,1,2.565-.7c1.425,0,1.691.7,1.691,1.2v.133c-3.287-.019-5.453,1.14-5.453,3.553a2.848,2.848,0,0,0,3,2.85,3.347,3.347,0,0,0,2.66-1.14h.057L-21.46,0ZM-21.8-3.382a2.071,2.071,0,0,1-.057.494,1.578,1.578,0,0,1-1.5,1.064,1.037,1.037,0,0,1-1.14-1.1c0-1.121,1.178-1.482,2.7-1.463ZM-16.71,0h2.888V-13.49H-16.71Zm5.225,0H-8.6V-13.49h-2.888ZM1.948-3.724a6.861,6.861,0,0,0,.1-1.14C2.043-7.163.9-9.5-2.1-9.5c-3.23,0-4.693,2.6-4.693,4.959C-6.792-1.634-4.987.19-1.833.19A9.171,9.171,0,0,0,1.53-.38L1.15-2.337a8.183,8.183,0,0,1-2.565.38c-1.349,0-2.527-.57-2.622-1.767Zm-6-1.976A1.9,1.9,0,0,1-2.27-7.581,1.677,1.677,0,0,1-.636-5.7Zm19.19-6.821a8.252,8.252,0,0,0-1.159.019,7.4,7.4,0,0,0-4.769,1.824A7.394,7.394,0,0,0,7.021-5.187c0,2.945,1.615,5.4,4.9,5.4a4.423,4.423,0,0,0,4.56-4.465,3.748,3.748,0,0,0-3.819-4.028,3.478,3.478,0,0,0-2.622.988H9.985c.323-1.444,1.463-2.755,4.028-2.964a7.939,7.939,0,0,1,1.121-.038Zm-3.249,10.6c-1.311,0-1.938-1.178-1.995-2.489A1.667,1.667,0,0,1,10-5.13a1.884,1.884,0,0,1,1.71-1.1A1.887,1.887,0,0,1,13.557-4.1C13.557-2.85,12.911-1.919,11.885-1.919ZM26.553,0V-2.375H21.9v-.038l1.14-.95c1.786-1.6,3.287-3.249,3.287-5.32,0-2.242-1.539-3.876-4.332-3.876a6.837,6.837,0,0,0-4.047,1.273l.817,2.071A4.475,4.475,0,0,1,21.4-10.241c1.425,0,2.033.8,2.033,1.805C23.4-6.992,22.088-5.605,19.39-3.192l-1.6,1.444V0Zm2.242-.057a22.405,22.405,0,0,0,3.135.19c2.546,0,4.1-.418,5.035-1.159a3.412,3.412,0,0,0,1.33-2.717A3.2,3.2,0,0,0,35.749-6.9v-.038a2.894,2.894,0,0,0,2.109-2.736,2.787,2.787,0,0,0-1.539-2.508,7.073,7.073,0,0,0-3.781-.722,23.072,23.072,0,0,0-3.743.266Zm2.869-10.659a7.907,7.907,0,0,1,1.235-.076c1.311,0,2.052.513,2.052,1.482,0,.95-.817,1.577-2.337,1.577h-.95Zm0,5.054h.988c1.444,0,2.6.513,2.6,1.805,0,1.349-1.159,1.843-2.47,1.843a9.136,9.136,0,0,1-1.121-.038Z" transform="translate(298.751 7139.707)" fill="#fff"/>
    <path id="Trazado_728951" data-name="Trazado 728951" transform="translate(364.265 7141.707)" fill="#1d1d1b"/>
    <path id="Trazado_728952" data-name="Trazado 728952" d="M4.237-5.149l.3-2.128H6.27l-.3,2.128ZM3.458,0l.475-3.4H5.662L5.187,0H6.9l.475-3.4H9.234V-5.149H7.657l.3-2.128H9.747V-9.044H8.227l.494-3.306H7.03L6.536-9.044H4.807l.475-3.306H3.591L3.116-9.044H1.235v1.767H2.85l-.3,2.128H.7V-3.4H2.242L1.748,0Z" transform="translate(393.192 7140.707)" fill="#1d1d1b"/>
    <path id="Trazado_728953" data-name="Trazado 728953" d="M4.484,0H7.277V-12.35H4.883L1.615-10.83,2.09-8.664,4.446-9.785h.038ZM13,.171a9.966,9.966,0,0,0,1.311,0,7.3,7.3,0,0,0,4.712-1.729,7.373,7.373,0,0,0,2.166-5.681c0-2.888-1.5-5.32-4.674-5.32a4.49,4.49,0,0,0-4.655,4.446,3.721,3.721,0,0,0,3.857,3.857,3.26,3.26,0,0,0,2.47-.893l.057.019a3.839,3.839,0,0,1-1.558,2.28,4.964,4.964,0,0,1-2.432.76A6.8,6.8,0,0,1,13-2.09ZM16.435-10.45c1.311,0,1.805,1.292,1.805,2.6a1.361,1.361,0,0,1-.152.722,1.82,1.82,0,0,1-1.6.817,1.759,1.759,0,0,1-1.748-1.976C14.725-9.576,15.447-10.45,16.435-10.45Z" transform="translate(404.997 7140.707)" fill="#1d1d1b"/>
    <path id="Trazado_728954" data-name="Trazado 728954" d="M.6-6.26v2.02H5.84V-6.26Z" transform="translate(438.406 7141.707)" fill="#1d1d1b"/>
    <path id="Trazado_728955" data-name="Trazado 728955" d="M9.557,0V-2.375H4.9v-.038l1.14-.95c1.786-1.6,3.287-3.249,3.287-5.32,0-2.242-1.539-3.876-4.332-3.876A6.837,6.837,0,0,0,.95-11.286l.817,2.071a4.475,4.475,0,0,1,2.641-1.026c1.425,0,2.033.8,2.033,1.805C6.4-6.992,5.092-5.605,2.394-3.192L.8-1.748V0ZM20.33-12.35h-6.8l-.817,6.479a10.663,10.663,0,0,1,1.672-.114c2.47,0,3.477.779,3.477,2.052,0,1.311-1.273,1.881-2.47,1.881A7.1,7.1,0,0,1,12.6-2.66L12.084-.494a7.849,7.849,0,0,0,3.439.7c3.325,0,5.3-2.033,5.3-4.332a3.515,3.515,0,0,0-1.5-3.1,5.648,5.648,0,0,0-3.249-.893,5.352,5.352,0,0,0-.8.038l.266-1.9H20.33Zm7.562-.209c-3.192,0-4.712,2.831-4.712,6.4C23.2-2.66,24.605.209,27.8.209c3.154,0,4.693-2.622,4.693-6.441C32.49-9.614,31.2-12.559,27.892-12.559Zm-.038,2.185c1.159,0,1.748,1.444,1.748,4.18,0,2.812-.608,4.218-1.729,4.218s-1.805-1.349-1.786-4.18C26.068-9.025,26.79-10.374,27.854-10.374Z" transform="translate(455.332 7140.707)" fill="#1d1d1b"/>
    <path id="Trazado_728961" data-name="Trazado 728961" d="M2.06,2.2A27.684,27.684,0,0,0,4.58-3.5l-3.1.2A33.784,33.784,0,0,1,.04,2.38Z" transform="translate(490.981 7141.707)" fill="#1d1d1b"/>
    <path id="Trazado_728962" data-name="Trazado 728962" transform="translate(496.985 7138.707)" fill="#1d1d1b"/>
    <path id="Trazado_728963" data-name="Trazado 728963" transform="translate(501.806 7138.707)" fill="#1d1d1b"/>
    <path id="Trazado_728964" data-name="Trazado 728964" transform="translate(506.648 7141.707)" fill="#1d1d1b"/>
    <path id="Trazado_728965" data-name="Trazado 728965" d="M3.724,0H6.631V-10.374h3.5v-2.432H.285v2.432H3.724ZM14.459-9.5A4.638,4.638,0,0,0,9.5-4.579,4.551,4.551,0,0,0,14.307.209a4.662,4.662,0,0,0,4.9-4.959A4.518,4.518,0,0,0,14.459-9.5Zm-.076,2.052c1.311,0,1.843,1.406,1.843,2.793,0,1.672-.722,2.793-1.843,2.793-1.235,0-1.9-1.2-1.9-2.793C12.483-6.023,13-7.448,14.383-7.448ZM20.995,0h2.888V-4.712a3.406,3.406,0,0,1,.057-.646,1.857,1.857,0,0,1,1.976-1.463,4.14,4.14,0,0,1,.779.076V-9.462a2.977,2.977,0,0,0-.608-.038,2.729,2.729,0,0,0-2.508,1.919H23.5l-.095-1.71H20.919c.038.8.076,1.691.076,3.059Zm7.22,0H31.1V-4.712a3.406,3.406,0,0,1,.057-.646,1.857,1.857,0,0,1,1.976-1.463,4.14,4.14,0,0,1,.779.076V-9.462a2.977,2.977,0,0,0-.608-.038A2.729,2.729,0,0,0,30.8-7.581h-.076l-.095-1.71H28.139c.038.8.076,1.691.076,3.059ZM43.491-3.724a6.86,6.86,0,0,0,.1-1.14c0-2.3-1.14-4.636-4.142-4.636-3.23,0-4.693,2.6-4.693,4.959C34.751-1.634,36.556.19,39.71.19a9.171,9.171,0,0,0,3.363-.57l-.38-1.957a8.183,8.183,0,0,1-2.565.38c-1.349,0-2.527-.57-2.622-1.767Zm-6-1.976a1.9,1.9,0,0,1,1.786-1.881A1.677,1.677,0,0,1,40.907-5.7ZM52.478,0h2.793V-12.35H52.877l-3.268,1.52.475,2.166L52.44-9.785h.038ZM66.443-3.287,67.431,0h3.116L66.576-12.806h-3.8L58.862,0h3l.912-3.287ZM63.194-5.453l.76-2.717c.209-.741.4-1.71.589-2.47h.038c.19.76.418,1.71.646,2.47l.8,2.717ZM82.745-3.287,83.733,0h3.116L82.878-12.806h-3.8L75.164,0h3l.912-3.287ZM79.5-5.453l.76-2.717c.209-.741.4-1.71.589-2.47h.038c.19.76.418,1.71.646,2.47l.8,2.717ZM88.35,3.762h2.888V-.855h.038A2.886,2.886,0,0,0,93.689.209c2.071,0,4.218-1.6,4.218-4.978,0-2.964-1.824-4.731-3.857-4.731a3.566,3.566,0,0,0-3.1,1.5h-.038l-.133-1.292H88.274c.038.855.076,1.9.076,3.116Zm2.888-9.025a2.234,2.234,0,0,1,.057-.513,1.814,1.814,0,0,1,1.729-1.463c1.292,0,1.957,1.121,1.957,2.6,0,1.577-.741,2.622-2,2.622a1.748,1.748,0,0,1-1.691-1.368,2.876,2.876,0,0,1-.057-.608Zm8.873-6.042v2.014H98.876v2.128h1.235v3.8a3.85,3.85,0,0,0,.8,2.755,3,3,0,0,0,2.166.8,5.666,5.666,0,0,0,1.881-.247l-.019-2.185a4.717,4.717,0,0,1-.855.076c-.874,0-1.14-.513-1.14-1.634V-7.163h2.071V-9.291h-2.071v-2.66ZM111.017-9.5a4.638,4.638,0,0,0-4.959,4.921A4.551,4.551,0,0,0,110.865.209a4.662,4.662,0,0,0,4.9-4.959A4.518,4.518,0,0,0,111.017-9.5Zm-.076,2.052c1.311,0,1.843,1.406,1.843,2.793,0,1.672-.722,2.793-1.843,2.793-1.235,0-1.9-1.2-1.9-2.793C109.041-6.023,109.554-7.448,110.941-7.448ZM129.789,0V-2.375h-4.655v-.038l1.14-.95c1.786-1.6,3.287-3.249,3.287-5.32,0-2.242-1.539-3.876-4.332-3.876a6.837,6.837,0,0,0-4.047,1.273L122-9.215a4.475,4.475,0,0,1,2.641-1.026c1.425,0,2.033.8,2.033,1.805-.038,1.444-1.349,2.831-4.047,5.244l-1.6,1.444V0ZM136.1-12.559c-3.192,0-4.712,2.831-4.712,6.4C131.4-2.66,132.81.209,136,.209c3.154,0,4.693-2.622,4.693-6.441C140.695-9.614,139.4-12.559,136.1-12.559Zm-.038,2.185c1.159,0,1.748,1.444,1.748,4.18,0,2.812-.608,4.218-1.729,4.218s-1.8-1.349-1.786-4.18C134.273-9.025,134.995-10.374,136.059-10.374Z" transform="translate(553.412 7141.707)" fill="#1d1d1b"/>
    <path id="Trazado_728956" data-name="Trazado 728956" d="M8.572-9.8,4.942,0H3.678L.123-9.8H1.4L4.115-2.03a4.615,4.615,0,0,1,.2.868h.027a4.258,4.258,0,0,1,.226-.882L7.335-9.8Z" transform="translate(291.332 7194.392)" fill="#1d1d1b"/>
    <path id="Trazado_728957" data-name="Trazado 728957" d="M2.256,0H1.135V-7H2.256Zm1-10.568L1.47-8.326H.6l1.524-2.242ZM9.536,0H8.415V-1.094H8.388A2.347,2.347,0,0,1,6.234.164,2.3,2.3,0,0,1,4.6-.39a1.918,1.918,0,0,1-.591-1.47q0-1.962,2.311-2.283l2.1-.294q0-1.784-1.442-1.784a3.446,3.446,0,0,0-2.283.861V-6.508a4.338,4.338,0,0,1,2.379-.656q2.468,0,2.468,2.611ZM8.415-3.541l-1.688.232a2.741,2.741,0,0,0-1.176.386,1.114,1.114,0,0,0-.4.981A1.068,1.068,0,0,0,5.52-1.1a1.413,1.413,0,0,0,.974.325,1.8,1.8,0,0,0,1.377-.584,2.088,2.088,0,0,0,.543-1.48Z" transform="translate(299.78 7194.392)" fill="#1d1d1b"/>
    <path id="Trazado_728958" data-name="Trazado 728958" d="M9.188,0H7.779L2.734-7.813a3.265,3.265,0,0,1-.314-.615H2.379a10.092,10.092,0,0,1,.055,1.347V0H1.285V-9.8h1.49l4.908,7.69q.308.479.4.656h.027A10.371,10.371,0,0,1,8.039-2.9V-9.8H9.188Zm8.08,0H16.146V-1.107h-.027A2.3,2.3,0,0,1,13.959.164q-2.5,0-2.5-2.98V-7h1.114v4.006q0,2.215,1.7,2.215a1.715,1.715,0,0,0,1.35-.6,2.315,2.315,0,0,0,.53-1.583V-7h1.121ZM16.215-10.568,14.424-8.326h-.868l1.524-2.242ZM29.47,0H28.349V-4.02A3.032,3.032,0,0,0,27.99-5.7a1.361,1.361,0,0,0-1.207-.52,1.494,1.494,0,0,0-1.22.656,2.511,2.511,0,0,0-.5,1.572V0H23.939V-4.156q0-2.064-1.593-2.064A1.475,1.475,0,0,0,21.13-5.6a2.557,2.557,0,0,0-.479,1.61V0H19.53V-7h1.121v1.107h.027a2.378,2.378,0,0,1,2.174-1.271,2.027,2.027,0,0,1,1.251.4,2.012,2.012,0,0,1,.731,1.049,2.5,2.5,0,0,1,2.324-1.449q2.311,0,2.311,2.851Zm7.745-3.22H32.272a2.618,2.618,0,0,0,.629,1.8,2.168,2.168,0,0,0,1.654.636,3.439,3.439,0,0,0,2.174-.779V-.506a4.063,4.063,0,0,1-2.44.67A2.959,2.959,0,0,1,31.958-.79a3.9,3.9,0,0,1-.848-2.683,3.828,3.828,0,0,1,.926-2.663,2.97,2.97,0,0,1,2.3-1.029,2.632,2.632,0,0,1,2.126.889,3.705,3.705,0,0,1,.752,2.468Zm-1.148-.95A2.281,2.281,0,0,0,35.6-5.681a1.6,1.6,0,0,0-1.282-.54,1.811,1.811,0,0,0-1.347.567,2.575,2.575,0,0,0-.684,1.483Z" transform="translate(419.136 7187.283)" fill="#1d1d1b"/>
    <path id="Trazado_728959" data-name="Trazado 728959" d="M4.785-5.865a1.371,1.371,0,0,0-.848-.226,1.431,1.431,0,0,0-1.2.677,3.129,3.129,0,0,0-.482,1.846V0H1.135V-7H2.256v1.442h.027a2.444,2.444,0,0,1,.731-1.152,1.668,1.668,0,0,1,1.1-.414,1.83,1.83,0,0,1,.67.1Z" transform="translate(458.714 7187.283)" fill="#1d1d1b"/>
    <path id="Trazado_728960" data-name="Trazado 728960" d="M4.061.164A3.247,3.247,0,0,1,1.583-.817a3.633,3.633,0,0,1-.926-2.6A3.785,3.785,0,0,1,1.62-6.173a3.465,3.465,0,0,1,2.6-.991A3.14,3.14,0,0,1,6.668-6.2a3.822,3.822,0,0,1,.878,2.673A3.761,3.761,0,0,1,6.6-.844,3.317,3.317,0,0,1,4.061.164Zm.082-6.385a2.132,2.132,0,0,0-1.709.735A3.018,3.018,0,0,0,1.8-3.459,2.854,2.854,0,0,0,2.44-1.5a2.161,2.161,0,0,0,1.7.718,2.049,2.049,0,0,0,1.671-.7,3.055,3.055,0,0,0,.584-2A3.108,3.108,0,0,0,5.814-5.51,2.04,2.04,0,0,0,4.143-6.221Z" transform="translate(463.646 7187.283)" fill="#1d1d1b"/>
    <g id="Grupo_1009422" data-name="Grupo 1009422" transform="translate(227 7111)" clip-path="url(#clip-path)">
      <text id="de_la_placa" data-name="de la placa" transform="translate(184.248 90.502)" fill="#1d1d1b" font-size="14" font-family="SegoeUI, Segoe UI"><tspan x="0" y="0">de la placa</tspan></text>
    </g>
    <path id="Trazado_728966" data-name="Trazado 728966" d="M1.285,0V-9.8H3.992q5.182,0,5.182,4.778A4.815,4.815,0,0,1,7.735-1.377,5.338,5.338,0,0,1,3.883,0ZM2.434-8.764v7.725H3.9a4.152,4.152,0,0,0,3-1.032A3.869,3.869,0,0,0,7.971-5q0-3.767-4.006-3.767Zm9.092-.014a.71.71,0,0,1-.513-.205A.692.692,0,0,1,10.8-9.5a.7.7,0,0,1,.212-.523.7.7,0,0,1,.513-.208.724.724,0,0,1,.523.208.7.7,0,0,1,.215.523.693.693,0,0,1-.215.513A.718.718,0,0,1,11.525-8.777ZM12.072,0H10.951V-7h1.121Z" transform="translate(573.792 7194.392)" fill="#1d1d1b"/>
    <path id="Trazado_728967" data-name="Trazado 728967" d="M4.785-5.865a1.371,1.371,0,0,0-.848-.226,1.431,1.431,0,0,0-1.2.677,3.129,3.129,0,0,0-.482,1.846V0H1.135V-7H2.256v1.442h.027a2.444,2.444,0,0,1,.731-1.152,1.668,1.668,0,0,1,1.1-.414,1.83,1.83,0,0,1,.67.1Z" transform="translate(587.793 7194.392)" fill="#1d1d1b"/>
    <path id="Trazado_728968" data-name="Trazado 728968" d="M6.761-3.22H1.818a2.618,2.618,0,0,0,.629,1.8A2.168,2.168,0,0,0,4.1-.779a3.439,3.439,0,0,0,2.174-.779V-.506a4.063,4.063,0,0,1-2.44.67A2.959,2.959,0,0,1,1.5-.79,3.9,3.9,0,0,1,.656-3.473a3.828,3.828,0,0,1,.926-2.663,2.97,2.97,0,0,1,2.3-1.029,2.632,2.632,0,0,1,2.126.889,3.705,3.705,0,0,1,.752,2.468ZM5.612-4.17a2.281,2.281,0,0,0-.468-1.511,1.6,1.6,0,0,0-1.282-.54,1.811,1.811,0,0,0-1.347.567A2.575,2.575,0,0,0,1.832-4.17Z" transform="translate(592.725 7194.392)" fill="#1d1d1b"/>
    <path id="Trazado_728969" data-name="Trazado 728969" d="M5.906-.321A3.643,3.643,0,0,1,3.992.164,3.169,3.169,0,0,1,1.576-.81,3.53,3.53,0,0,1,.656-3.336a3.881,3.881,0,0,1,.991-2.779A3.467,3.467,0,0,1,4.293-7.164a3.682,3.682,0,0,1,1.627.342v1.148a2.85,2.85,0,0,0-1.668-.547,2.254,2.254,0,0,0-1.76.769A2.918,2.918,0,0,0,1.8-3.432,2.779,2.779,0,0,0,2.451-1.49a2.227,2.227,0,0,0,1.733.711,2.81,2.81,0,0,0,1.723-.608Z" transform="translate(600.52 7194.392)" fill="#1d1d1b"/>
    <path id="Trazado_728970" data-name="Trazado 728970" d="M5.906-.321A3.643,3.643,0,0,1,3.992.164,3.169,3.169,0,0,1,1.576-.81,3.53,3.53,0,0,1,.656-3.336a3.881,3.881,0,0,1,.991-2.779A3.467,3.467,0,0,1,4.293-7.164a3.682,3.682,0,0,1,1.627.342v1.148a2.85,2.85,0,0,0-1.668-.547,2.254,2.254,0,0,0-1.76.769A2.918,2.918,0,0,0,1.8-3.432,2.779,2.779,0,0,0,2.451-1.49a2.227,2.227,0,0,0,1.733.711,2.81,2.81,0,0,0,1.723-.608Zm2.27-8.456a.71.71,0,0,1-.513-.205.692.692,0,0,1-.212-.52.7.7,0,0,1,.212-.523.7.7,0,0,1,.513-.208.724.724,0,0,1,.523.208.7.7,0,0,1,.215.523.693.693,0,0,1-.215.513A.718.718,0,0,1,8.176-8.777ZM8.723,0H7.6V-7H8.723Zm5.2.164A3.247,3.247,0,0,1,11.44-.817a3.634,3.634,0,0,1-.926-2.6,3.785,3.785,0,0,1,.964-2.755,3.465,3.465,0,0,1,2.6-.991,3.14,3.14,0,0,1,2.444.964A3.822,3.822,0,0,1,17.4-3.527a3.761,3.761,0,0,1-.947,2.683A3.317,3.317,0,0,1,13.918.164ZM14-6.221a2.132,2.132,0,0,0-1.709.735,3.018,3.018,0,0,0-.629,2.027A2.854,2.854,0,0,0,12.3-1.5,2.161,2.161,0,0,0,14-.779a2.049,2.049,0,0,0,1.671-.7,3.055,3.055,0,0,0,.584-2,3.108,3.108,0,0,0-.584-2.023A2.04,2.04,0,0,0,14-6.221Zm1.641-4.348L13.85-8.326h-.868l1.524-2.242ZM25.006,0H23.885V-3.992q0-2.229-1.627-2.229a1.765,1.765,0,0,0-1.391.632,2.344,2.344,0,0,0-.55,1.6V0H19.2V-7h1.121v1.162h.027a2.526,2.526,0,0,1,2.3-1.326,2.142,2.142,0,0,1,1.757.742,3.3,3.3,0,0,1,.608,2.143Zm6.521-8.777a.71.71,0,0,1-.513-.205A.692.692,0,0,1,30.8-9.5a.7.7,0,0,1,.212-.523.7.7,0,0,1,.513-.208.724.724,0,0,1,.523.208.7.7,0,0,1,.215.523.693.693,0,0,1-.215.513A.718.718,0,0,1,31.527-8.777ZM32.074,0H30.953V-7h1.121Z" transform="translate(607.412 7194.392)" fill="#1d1d1b"/>
    <path id="Trazado_728971" data-name="Trazado 728971" d="M6.945,0H5.824V-3.992q0-2.229-1.627-2.229a1.765,1.765,0,0,0-1.391.632,2.344,2.344,0,0,0-.55,1.6V0H1.135V-7H2.256v1.162h.027a2.526,2.526,0,0,1,2.3-1.326,2.142,2.142,0,0,1,1.757.742,3.3,3.3,0,0,1,.608,2.143Z" transform="translate(642.135 7194.392)" fill="#1d1d1b"/>
    <path id="Trazado_728972" data-name="Trazado 728972" d="M4.382-.068A2.161,2.161,0,0,1,3.336.15Q1.5.15,1.5-1.9V-6.043H.294V-7H1.5V-8.709l1.121-.362V-7H4.382v.957H2.618V-2.1a1.635,1.635,0,0,0,.239,1,.955.955,0,0,0,.793.3,1.179,1.179,0,0,0,.731-.232Z" transform="translate(650.724 7194.392)" fill="#1d1d1b"/>
    <path id="Trazado_728973" data-name="Trazado 728973" d="M6.761-3.22H1.818a2.618,2.618,0,0,0,.629,1.8A2.168,2.168,0,0,0,4.1-.779a3.439,3.439,0,0,0,2.174-.779V-.506a4.063,4.063,0,0,1-2.44.67A2.959,2.959,0,0,1,1.5-.79,3.9,3.9,0,0,1,.656-3.473a3.828,3.828,0,0,1,.926-2.663,2.97,2.97,0,0,1,2.3-1.029,2.632,2.632,0,0,1,2.126.889,3.705,3.705,0,0,1,.752,2.468ZM5.612-4.17a2.281,2.281,0,0,0-.468-1.511,1.6,1.6,0,0,0-1.282-.54,1.811,1.811,0,0,0-1.347.567A2.575,2.575,0,0,0,1.832-4.17Z" transform="translate(655.795 7194.392)" fill="#1d1d1b"/>
    <path id="Trazado_728974" data-name="Trazado 728974" d="M4.785-5.865a1.371,1.371,0,0,0-.848-.226,1.431,1.431,0,0,0-1.2.677,3.129,3.129,0,0,0-.482,1.846V0H1.135V-7H2.256v1.442h.027a2.444,2.444,0,0,1,.731-1.152,1.668,1.668,0,0,1,1.1-.414,1.83,1.83,0,0,1,.67.1Z" transform="translate(663.589 7194.392)" fill="#1d1d1b"/>
    <path id="Trazado_728975" data-name="Trazado 728975" d="M1.709-8.777A.71.71,0,0,1,1.2-8.982.692.692,0,0,1,.984-9.5a.7.7,0,0,1,.212-.523.7.7,0,0,1,.513-.208.724.724,0,0,1,.523.208.7.7,0,0,1,.215.523.693.693,0,0,1-.215.513A.718.718,0,0,1,1.709-8.777ZM2.256,0H1.135V-7H2.256Zm5.2.164A3.247,3.247,0,0,1,4.973-.817a3.633,3.633,0,0,1-.926-2.6,3.785,3.785,0,0,1,.964-2.755,3.465,3.465,0,0,1,2.6-.991,3.14,3.14,0,0,1,2.444.964,3.822,3.822,0,0,1,.878,2.673A3.761,3.761,0,0,1,9.991-.844,3.317,3.317,0,0,1,7.451.164Zm.082-6.385a2.132,2.132,0,0,0-1.709.735A3.018,3.018,0,0,0,5.2-3.459,2.854,2.854,0,0,0,5.831-1.5a2.161,2.161,0,0,0,1.7.718,2.049,2.049,0,0,0,1.671-.7,3.055,3.055,0,0,0,.584-2A3.108,3.108,0,0,0,9.2-5.51,2.04,2.04,0,0,0,7.533-6.221Zm8.846.355a1.371,1.371,0,0,0-.848-.226,1.431,1.431,0,0,0-1.2.677,3.129,3.129,0,0,0-.482,1.846V0H12.729V-7H13.85v1.442h.027a2.444,2.444,0,0,1,.731-1.152,1.668,1.668,0,0,1,1.1-.414,1.83,1.83,0,0,1,.67.1Z" transform="translate(668.723 7194.392)" fill="#1d1d1b"/>
    <g id="Grupo_1009424" data-name="Grupo 1009424" transform="translate(227 7111)" clip-path="url(#clip-path)">
      <path id="Trazado_718647" data-name="Trazado 718647" d="M1.223,49.922v11.99H147.232V49.922" transform="translate(-0.112 -4.571)" fill="none" stroke="#1d1d1b" stroke-miterlimit="10" stroke-width="2.446"/>
      <path id="Trazado_718648" data-name="Trazado 718648" d="M318.045,49.922v11.99h227.91V49.922" transform="translate(-29.121 -4.571)" fill="none" stroke="#1d1d1b" stroke-miterlimit="10" stroke-width="2.446"/>
      <path id="Trazado_718649" data-name="Trazado 718649" d="M172.471,49.922v11.99h123.96V49.922" transform="translate(-15.792 -4.571)" fill="none" stroke="#1d1d1b" stroke-miterlimit="10" stroke-width="2.446"/>
    </g>
    <path id="Trazado_728949" data-name="Trazado 728949" d="M0,0H517.944V95.743H0Z" transform="translate(227 7111)" fill="none"/>
  </g>
</svg>
