<svg id="Grupo_1009477" data-name="Grupo 1009477" xmlns="http://www.w3.org/2000/svg" xmlns:xlink="http://www.w3.org/1999/xlink" width="66" height="66" viewBox="0 0 66 66">
  <defs>
    <clipPath id="clip-path">
      <rect id="Rectángulo_349997" data-name="Rectángulo 349997" width="66" height="66" fill="none"/>
    </clipPath>
  </defs>
  <g id="Grupo_1009477-2" data-name="Grupo 1009477" clip-path="url(#clip-path)">
    <path id="Trazado_726156" data-name="Trazado 726156" d="M3.3,0H62.7A3.309,3.309,0,0,1,66,3.3V62.7A3.309,3.309,0,0,1,62.7,66H3.3A3.31,3.31,0,0,1,0,62.7V3.3A3.31,3.31,0,0,1,3.3,0" fill="#193b68" fill-rule="evenodd"/>
    <path id="Trazado_726157" data-name="Trazado 726157" d="M3.3,1.1H62.7a2.207,2.207,0,0,1,2.2,2.2V62.7a2.206,2.206,0,0,1-2.2,2.2H3.3a2.206,2.206,0,0,1-2.2-2.2V3.3A2.207,2.207,0,0,1,3.3,1.1m0,1.321a.883.883,0,0,0-.88.88V62.7a.883.883,0,0,0,.88.88H62.7a.883.883,0,0,0,.88-.88V3.3a.883.883,0,0,0-.88-.88Z" fill="#fff" fill-rule="evenodd"/>
    <path id="Trazado_726158" data-name="Trazado 726158" d="M22.92,57.751h5.442V29.438c1.945-.521,2.915-1.92,2.82-4.338L30.19,8.381l-1.9,0V21.532H26.36V8.376H24.246V21.532H22.321V8.377l-1.9,0L19.426,25.1c-.094,2.418.875,3.817,2.82,4.338h.674Zm2.418-26.806h.605a.708.708,0,0,1,.706.706V52.007a.706.706,0,0,1-.706.705h-.605a.706.706,0,0,1-.7-.705V31.651a.708.708,0,0,1,.7-.706" fill="#fff" fill-rule="evenodd"/>
    <path id="Trazado_726159" data-name="Trazado 726159" d="M41.139,57.751H46.58v-47h-.035V8.336c-4.244-.446-6.773.825-7.23,4.175V32.879a3.49,3.49,0,0,0,1.824,2.68Zm2.418-20.139h.6a.71.71,0,0,1,.706.706V52.006a.711.711,0,0,1-.706.706h-.6a.71.71,0,0,1-.7-.706V38.318a.708.708,0,0,1,.7-.706" fill="#fff" fill-rule="evenodd"/>
  </g>
</svg>
