<svg xmlns="http://www.w3.org/2000/svg" xmlns:xlink="http://www.w3.org/1999/xlink" width="620" height="366.768" viewBox="0 0 620 366.768">
  <defs>
    <clipPath id="clip-path">
      <rect id="Rectángulo_350029" data-name="Rectángulo 350029" width="620" height="352.534" fill="none"/>
    </clipPath>
    <clipPath id="clip-path-2">
      <path id="Trazado_726247" data-name="Trazado 726247" d="M10.84,15.42H132.093C115.907,5.821,94.694,0,71.466,0S27.024,5.821,10.84,15.42" fill="none"/>
    </clipPath>
    <linearGradient id="linear-gradient" x1="-0.089" y1="23.122" x2="-0.081" y2="23.122" gradientUnits="objectBoundingBox">
      <stop offset="0" stop-color="#b1b1b1"/>
      <stop offset="1" stop-color="#575756"/>
    </linearGradient>
    <clipPath id="clip-path-3">
      <path id="Trazado_726248" data-name="Trazado 726248" d="M169.861,15.42H291.115C274.931,5.821,253.716,0,230.488,0s-44.443,5.821-60.627,15.42" fill="none"/>
    </clipPath>
    <linearGradient id="linear-gradient-2" x1="-1.401" y1="23.122" x2="-1.393" y2="23.122" xlink:href="#linear-gradient"/>
    <clipPath id="clip-path-4">
      <path id="Trazado_726249" data-name="Trazado 726249" d="M328.883,15.42H450.139C433.953,5.821,412.74,0,389.512,0s-44.441,5.821-60.629,15.42" fill="none"/>
    </clipPath>
    <linearGradient id="linear-gradient-3" x1="-2.712" y1="23.122" x2="-2.704" y2="23.122" xlink:href="#linear-gradient"/>
    <clipPath id="clip-path-6">
      <path id="Trazado_726253" data-name="Trazado 726253" d="M487.907,15.42H609.16C592.975,5.821,571.762,0,548.534,0s-44.441,5.821-60.627,15.42" fill="none"/>
    </clipPath>
    <linearGradient id="linear-gradient-4" x1="-4.024" y1="23.122" x2="-4.016" y2="23.122" xlink:href="#linear-gradient"/>
    <clipPath id="clip-path-8">
      <path id="Trazado_726256" data-name="Trazado 726256" d="M10.84,194.275H132.093c-16.186-9.6-37.4-15.416-60.627-15.416s-44.442,5.819-60.626,15.416" fill="none"/>
    </clipPath>
    <linearGradient id="linear-gradient-5" x1="-0.089" y1="11.525" x2="-0.081" y2="11.525" xlink:href="#linear-gradient"/>
    <clipPath id="clip-path-9">
      <path id="Trazado_726257" data-name="Trazado 726257" d="M169.861,194.275H291.115c-16.184-9.6-37.4-15.416-60.627-15.416s-44.443,5.819-60.627,15.416" fill="none"/>
    </clipPath>
    <linearGradient id="linear-gradient-6" x1="-1.401" y1="11.525" x2="-1.393" y2="11.525" xlink:href="#linear-gradient"/>
    <clipPath id="clip-path-10">
      <path id="Trazado_726284" data-name="Trazado 726284" d="M328.883,194.275H450.139c-16.184-9.6-37.4-15.416-60.627-15.416s-44.441,5.819-60.629,15.416" fill="none"/>
    </clipPath>
    <linearGradient id="linear-gradient-7" x1="-2.712" y1="11.525" x2="-2.704" y2="11.525" xlink:href="#linear-gradient"/>
    <clipPath id="clip-path-11">
      <path id="Trazado_726323" data-name="Trazado 726323" d="M487.907,194.275H609.16c-16.185-9.6-37.4-15.416-60.626-15.416s-44.441,5.819-60.627,15.416" fill="none"/>
    </clipPath>
    <linearGradient id="linear-gradient-8" x1="-4.024" y1="11.525" x2="-4.016" y2="11.525" xlink:href="#linear-gradient"/>
  </defs>
  <g id="Grupo_1010076" data-name="Grupo 1010076" transform="translate(3307 1521.768)">
    <g id="Grupo_1009518" data-name="Grupo 1009518" transform="translate(-3307 -1521.768)">
      <g id="Grupo_1009517" data-name="Grupo 1009517" clip-path="url(#clip-path)">
        <path id="Trazado_726242" data-name="Trazado 726242" d="M13.025,15.42H129.906a9.766,9.766,0,0,1,9.737,9.738v116.88a9.766,9.766,0,0,1-9.737,9.738H13.025a9.767,9.767,0,0,1-9.738-9.738V25.158a9.766,9.766,0,0,1,9.738-9.738" fill="#fff" fill-rule="evenodd"/>
        <path id="Rectángulo_350024" data-name="Rectángulo 350024" d="M9.738,0H126.619a9.737,9.737,0,0,1,9.737,9.737V126.618a9.738,9.738,0,0,1-9.738,9.738H9.738A9.738,9.738,0,0,1,0,126.618V9.738A9.738,9.738,0,0,1,9.738,0Z" transform="translate(3.287 15.42)" fill="none" stroke="#b1b1b1" stroke-miterlimit="22.926" stroke-width="2.728"/>
        <path id="Trazado_726243" data-name="Trazado 726243" d="M172.049,15.42H288.93a9.766,9.766,0,0,1,9.737,9.738v116.88a9.766,9.766,0,0,1-9.737,9.738H172.049a9.766,9.766,0,0,1-9.738-9.738V25.158a9.766,9.766,0,0,1,9.738-9.738" fill="#fff" fill-rule="evenodd"/>
        <path id="Rectángulo_350025" data-name="Rectángulo 350025" d="M9.738,0H126.619a9.737,9.737,0,0,1,9.737,9.737V126.619a9.737,9.737,0,0,1-9.737,9.737H9.738A9.738,9.738,0,0,1,0,126.618V9.738A9.738,9.738,0,0,1,9.738,0Z" transform="translate(162.311 15.42)" fill="none" stroke="#b1b1b1" stroke-miterlimit="22.926" stroke-width="2.728"/>
        <path id="Trazado_726244" data-name="Trazado 726244" d="M331.071,15.42H447.952a9.766,9.766,0,0,1,9.737,9.738v116.88a9.766,9.766,0,0,1-9.737,9.738H331.071a9.766,9.766,0,0,1-9.738-9.738V25.158a9.766,9.766,0,0,1,9.738-9.738" fill="#fff" fill-rule="evenodd"/>
        <path id="Rectángulo_350026" data-name="Rectángulo 350026" d="M9.738,0H126.619a9.737,9.737,0,0,1,9.737,9.737V126.618a9.738,9.738,0,0,1-9.738,9.738H9.738A9.738,9.738,0,0,1,0,126.618V9.738A9.738,9.738,0,0,1,9.738,0Z" transform="translate(321.333 15.42)" fill="none" stroke="#b1b1b1" stroke-miterlimit="22.926" stroke-width="2.728"/>
        <path id="Trazado_726245" data-name="Trazado 726245" d="M13.025,194.277H129.906a9.766,9.766,0,0,1,9.737,9.738v116.88a9.766,9.766,0,0,1-9.737,9.738H13.025a9.766,9.766,0,0,1-9.738-9.738V204.015a9.767,9.767,0,0,1,9.738-9.738" fill="#fff" fill-rule="evenodd"/>
        <path id="Rectángulo_350027" data-name="Rectángulo 350027" d="M9.738,0H126.619a9.737,9.737,0,0,1,9.737,9.737V126.618a9.738,9.738,0,0,1-9.738,9.738H9.738A9.738,9.738,0,0,1,0,126.618V9.738A9.738,9.738,0,0,1,9.738,0Z" transform="translate(3.287 194.277)" fill="none" stroke="#b1b1b1" stroke-miterlimit="22.926" stroke-width="2.728"/>
        <path id="Trazado_726246" data-name="Trazado 726246" d="M172.049,194.277H288.93a9.766,9.766,0,0,1,9.737,9.738v116.88a9.766,9.766,0,0,1-9.737,9.738H172.049a9.766,9.766,0,0,1-9.738-9.738V204.015a9.766,9.766,0,0,1,9.738-9.738" fill="#fff" fill-rule="evenodd"/>
        <path id="Rectángulo_350028" data-name="Rectángulo 350028" d="M9.738,0H126.619a9.737,9.737,0,0,1,9.737,9.737V126.618a9.738,9.738,0,0,1-9.738,9.738H9.738A9.738,9.738,0,0,1,0,126.618V9.738A9.738,9.738,0,0,1,9.738,0Z" transform="translate(162.311 194.277)" fill="none" stroke="#b1b1b1" stroke-miterlimit="22.926" stroke-width="2.728"/>
      </g>
    </g>
    <g id="Grupo_1009520" data-name="Grupo 1009520" transform="translate(-3307 -1521.768)">
      <g id="Grupo_1009519" data-name="Grupo 1009519" clip-path="url(#clip-path-2)">
        <rect id="Rectángulo_350030" data-name="Rectángulo 350030" width="121.253" height="15.42" transform="translate(10.84 0)" fill="url(#linear-gradient)"/>
      </g>
    </g>
    <g id="Grupo_1009522" data-name="Grupo 1009522" transform="translate(-3307 -1521.768)">
      <g id="Grupo_1009521" data-name="Grupo 1009521" clip-path="url(#clip-path-3)">
        <rect id="Rectángulo_350031" data-name="Rectángulo 350031" width="121.254" height="15.42" transform="translate(169.861)" fill="url(#linear-gradient-2)"/>
      </g>
    </g>
    <g id="Grupo_1009524" data-name="Grupo 1009524" transform="translate(-3307 -1521.768)">
      <g id="Grupo_1009523" data-name="Grupo 1009523" clip-path="url(#clip-path-4)">
        <rect id="Rectángulo_350032" data-name="Rectángulo 350032" width="121.256" height="15.42" transform="translate(328.883 0)" fill="url(#linear-gradient-3)"/>
      </g>
    </g>
    <g id="Grupo_1009526" data-name="Grupo 1009526" transform="translate(-3307 -1521.768)">
      <g id="Grupo_1009525" data-name="Grupo 1009525" clip-path="url(#clip-path)">
        <path id="Trazado_726250" data-name="Trazado 726250" d="M55.84,12.007c-.036-.667-.083-1.21-.139-1.632a5.707,5.707,0,0,0,2.339.587,2.335,2.335,0,0,0,.786-.128,1.1,1.1,0,0,0,.537-.362.856.856,0,0,0,.177-.524.927.927,0,0,0-.083-.4,1.88,1.88,0,0,0-.422-.506c-.25-.242-.7-.637-1.339-1.192-.306-.267-.518-.458-.634-.569a4.77,4.77,0,0,1-.6-.676,2.024,2.024,0,0,1-.3-.595,2.137,2.137,0,0,1,.251-1.791A2.28,2.28,0,0,1,57.44,3.37a4.257,4.257,0,0,1,1.731-.3,10.982,10.982,0,0,1,2.117.231c.023.456.067.976.133,1.564a5.354,5.354,0,0,0-1.892-.395,1.78,1.78,0,0,0-1.055.292.831.831,0,0,0-.411.681.862.862,0,0,0,.028.22.926.926,0,0,0,.086.224,1.865,1.865,0,0,0,.205.282,3.368,3.368,0,0,0,.43.408c.189.156.351.281.486.378l.809.738c.2.17.389.337.553.5a4.981,4.981,0,0,1,.417.465,2.676,2.676,0,0,1,.272.427A2.055,2.055,0,0,1,61.5,9.5a1.967,1.967,0,0,1,.05.451,2.221,2.221,0,0,1-.255,1.042,2.151,2.151,0,0,1-.737.807,3.066,3.066,0,0,1-1.053.437,5.822,5.822,0,0,1-1.21.12,7.9,7.9,0,0,1-.978-.07c-.373-.05-.865-.142-1.473-.277m7.148.191.118-1.558.164-3.452.08-2.506q0-.342.005-.691c0-.17,0-.428-.005-.768.561.007,1.016.012,1.366.012.281,0,.671-.006,1.171-.02s.9-.02,1.191-.02a4.937,4.937,0,0,1,1.332.132,2.142,2.142,0,0,1,.8.453,2.033,2.033,0,0,1,.519.744,2.768,2.768,0,0,1,.2,1.045A2.893,2.893,0,0,1,69.5,7.111a2.615,2.615,0,0,1-1.174,1.038,4,4,0,0,1-1.663.342,5.563,5.563,0,0,1-.954-.092c-.1-.457-.205-.883-.328-1.283a4,4,0,0,0,.809.086,2.5,2.5,0,0,0,.947-.164,1.358,1.358,0,0,0,.637-.536,1.545,1.545,0,0,0,.236-.841,1.263,1.263,0,0,0-.1-.5.861.861,0,0,0-.284-.369,1.1,1.1,0,0,0-.416-.187,3.277,3.277,0,0,0-.647-.05c-.243,0-.49,0-.739.014s-.472.012-.665.012q-.078,1.292-.119,2.465l-.078,2.513q-.038,1.335-.039,1.959c0,.159,0,.386.008.684l-.955-.014c-.123,0-.453.006-.987.014m7.121-2.815c.039-.427.062-.867.07-1.328.636.017,1.2.028,1.7.028s1.07-.011,1.7-.028c-.036.372-.059.814-.072,1.328q-.954-.033-1.71-.033c-.491,0-1.055.011-1.689.033m4.315,2.631c-.036-.6-.078-1.111-.131-1.547a7.462,7.462,0,0,0,2.529.495,2.837,2.837,0,0,0,1.05-.186,1.7,1.7,0,0,0,.74-.528,1.265,1.265,0,0,0,.274-.814,1.127,1.127,0,0,0-.227-.693,1.352,1.352,0,0,0-.709-.447A4.347,4.347,0,0,0,76.7,8.147a9.226,9.226,0,0,0-1,.058c.045-.5.078-.981.106-1.431a4.728,4.728,0,0,0,.761.064,5.208,5.208,0,0,0,1.1-.113,1.393,1.393,0,0,0,.811-.456,1.138,1.138,0,0,0,.289-.751.979.979,0,0,0-.05-.317,1.045,1.045,0,0,0-.136-.283.918.918,0,0,0-.225-.228,1.1,1.1,0,0,0-.3-.161,1.921,1.921,0,0,0-.447-.1A4.441,4.441,0,0,0,77,4.386a7.074,7.074,0,0,0-.894.057q-.466.054-1.183.214l.127-.545.158-.863c.5-.07.928-.12,1.275-.144s.72-.04,1.123-.04a8.011,8.011,0,0,1,1.339.112,3.21,3.21,0,0,1,1.109.388,1.752,1.752,0,0,1,.68.717,2.147,2.147,0,0,1,.22.964,2.36,2.36,0,0,1-.1.676,2.186,2.186,0,0,1-.291.613A2.059,2.059,0,0,1,80.134,7a2.791,2.791,0,0,1-.47.3,6.884,6.884,0,0,1-.67.262,4.455,4.455,0,0,1,.723.161,1.876,1.876,0,0,1,.492.27,1.953,1.953,0,0,1,.416.421,1.782,1.782,0,0,1,.254.554,2.5,2.5,0,0,1,.086.652,2.455,2.455,0,0,1-1.14,2.079,3.7,3.7,0,0,1-1.266.509,7.211,7.211,0,0,1-1.479.147,10.1,10.1,0,0,1-1.17-.07c-.4-.05-.9-.139-1.486-.27m8.669.184,1.526-2.965L86.555,5.4l.388-.807c-.4-.005-.716-.008-.968-.008-1.1,0-2.157.028-3.169.078.035-.452.057-.931.071-1.437h6.328q-.041.721-.061,1.478a1.1,1.1,0,0,1-.072.137l-.064.125c-.11.211-.406.808-.889,1.8L86.677,9.687q-.6,1.236-1.156,2.511c-.519,0-.9-.006-1.152-.006Z" fill="#fff"/>
        <path id="Trazado_726251" data-name="Trazado 726251" d="M214.863,12.007c-.036-.667-.083-1.21-.139-1.632a5.7,5.7,0,0,0,2.339.587,2.339,2.339,0,0,0,.786-.128,1.112,1.112,0,0,0,.539-.362.854.854,0,0,0,.175-.524.941.941,0,0,0-.083-.4,1.867,1.867,0,0,0-.423-.506c-.249-.242-.7-.637-1.338-1.192-.307-.267-.518-.458-.636-.569a4.8,4.8,0,0,1-.6-.676,2.01,2.01,0,0,1-.395-1.226,2.1,2.1,0,0,1,.347-1.16,2.263,2.263,0,0,1,1.031-.849,4.257,4.257,0,0,1,1.731-.3,10.99,10.99,0,0,1,2.117.231c.022.456.067.976.133,1.564a5.354,5.354,0,0,0-1.892-.395,1.781,1.781,0,0,0-1.056.292.833.833,0,0,0-.411.681.87.87,0,0,0,.031.22.844.844,0,0,0,.084.224,1.918,1.918,0,0,0,.2.282,3.455,3.455,0,0,0,.431.408c.189.156.35.281.486.378l.809.738q.308.255.553.5a4.843,4.843,0,0,1,.417.465,2.542,2.542,0,0,1,.272.427,2.26,2.26,0,0,1,.148.417,2.025,2.025,0,0,1,.049.451,2.21,2.21,0,0,1-.256,1.042,2.156,2.156,0,0,1-.736.807,3.061,3.061,0,0,1-1.052.437,5.828,5.828,0,0,1-1.21.12,7.9,7.9,0,0,1-.978-.07c-.374-.05-.864-.142-1.474-.277m7.148.191.119-1.558.164-3.452.078-2.506c0-.228.008-.458.008-.691,0-.17,0-.428-.008-.768.561.007,1.017.012,1.367.012.279,0,.672-.006,1.171-.02s.9-.02,1.191-.02a4.945,4.945,0,0,1,1.333.132,2.146,2.146,0,0,1,.8.453,2.045,2.045,0,0,1,.519.744,2.73,2.73,0,0,1,.2,1.045,2.894,2.894,0,0,1-.425,1.542,2.615,2.615,0,0,1-1.174,1.038,4,4,0,0,1-1.663.342,5.572,5.572,0,0,1-.954-.092c-.1-.457-.2-.883-.328-1.283a4.006,4.006,0,0,0,.807.086,2.509,2.509,0,0,0,.949-.164A1.358,1.358,0,0,0,226.8,6.5a1.528,1.528,0,0,0,.236-.841,1.28,1.28,0,0,0-.1-.5.9.9,0,0,0-.286-.369,1.1,1.1,0,0,0-.416-.187,3.261,3.261,0,0,0-.645-.05c-.245,0-.492,0-.742.014s-.47.012-.664.012q-.078,1.292-.119,2.465l-.078,2.513q-.037,1.335-.039,1.959c0,.159,0,.386.006.684L223,12.184c-.123,0-.453.006-.987.014m7.119-2.815c.041-.427.063-.867.072-1.328.636.017,1.2.028,1.7.028s1.068-.011,1.7-.028c-.036.372-.058.814-.072,1.328-.636-.022-1.2-.033-1.71-.033s-1.055.011-1.691.033m7.657,2.815c.083-.883.141-1.784.17-2.709h-1.329l-2.419.041c.01-.057.022-.3.043-.735s.029-.728.029-.884l.494-.623.572-.771,1.421-1.946c.13-.189.263-.381.4-.58s.3-.453.51-.768c.532.007.967.012,1.309.012s.718,0,1.151-.012q-.2,2.8-.245,4.893.316.006.75.006c.344,0,.573,0,.692-.006-.014.337-.02.729-.02,1.171v.222q-.4-.021-1.474-.02c-.012.2-.021.384-.029.55s-.013.461-.021.881-.009.722-.009.9V12.2c-.337-.008-.659-.014-.965-.014-.282,0-.624.006-1.027.014m.422-4.018c.012-.253.019-.4.019-.441l.125-3.19q-1,1.454-1.317,1.873L234.759,8.18Zm4.265,4.018c.014-.167.02-.3.02-.4l.039-.958q.82-.738,1.5-1.423t1.389-1.474c.475-.525.831-.946,1.075-1.265a4.63,4.63,0,0,0,.394-.583,1.5,1.5,0,0,0,.129-.33,1.141,1.141,0,0,0,.035-.273.819.819,0,0,0-.217-.589,1.445,1.445,0,0,0-.6-.353,2.7,2.7,0,0,0-.877-.128,6.611,6.611,0,0,0-1,.081q-.539.084-1.387.3l.122-.666c.028-.156.068-.422.12-.8a16.419,16.419,0,0,1,2.92-.275,6.013,6.013,0,0,1,1.229.122,3.073,3.073,0,0,1,1.056.414,1.932,1.932,0,0,1,.679.676,1.665,1.665,0,0,1,.212.806,2.589,2.589,0,0,1-.048.5,2.189,2.189,0,0,1-.143.451,5.266,5.266,0,0,1-.451.82,12.18,12.18,0,0,1-.855,1.105c-.389.464-.811.933-1.271,1.415s-.967.989-1.528,1.52h.6l1.467-.007c.487,0,.845,0,1.071-.016s.5-.031.824-.063c-.01.136-.022.311-.043.53s-.042.505-.07.864q-1.489-.012-3.1-.014c-1.316,0-2.412.006-3.295.014" fill="#fff"/>
        <path id="Trazado_726252" data-name="Trazado 726252" d="M373.886,12.008q-.054-1-.139-1.633a5.719,5.719,0,0,0,2.338.586,2.331,2.331,0,0,0,.786-.128,1.1,1.1,0,0,0,.539-.361.853.853,0,0,0,.175-.523.954.954,0,0,0-.082-.4,1.887,1.887,0,0,0-.422-.5q-.373-.363-1.338-1.192c-.307-.267-.518-.457-.636-.57a4.772,4.772,0,0,1-.6-.676,2.07,2.07,0,0,1-.3-.6,2.149,2.149,0,0,1,.253-1.79,2.284,2.284,0,0,1,1.033-.848,4.247,4.247,0,0,1,1.731-.3,10.982,10.982,0,0,1,2.116.23q.034.684.132,1.565a5.315,5.315,0,0,0-1.892-.395,1.786,1.786,0,0,0-1.054.291.836.836,0,0,0-.411.681.845.845,0,0,0,.03.222.86.86,0,0,0,.084.221,1.751,1.751,0,0,0,.205.283,3.385,3.385,0,0,0,.431.409c.189.155.348.282.484.377l.811.736c.205.172.387.339.551.5a4.837,4.837,0,0,1,.418.467,2.433,2.433,0,0,1,.271.427,2.061,2.061,0,0,1,.149.417,1.957,1.957,0,0,1,.05.452,2.228,2.228,0,0,1-.256,1.042,2.148,2.148,0,0,1-.736.8,3.029,3.029,0,0,1-1.053.439,5.824,5.824,0,0,1-1.211.121,8.158,8.158,0,0,1-.978-.072c-.372-.049-.864-.141-1.473-.275m7.147.19.119-1.557.164-3.453.078-2.508q.007-.342.008-.688c0-.171,0-.43-.008-.771q.844.012,1.367.013.422,0,1.172-.019c.5-.014.9-.022,1.19-.022a4.959,4.959,0,0,1,1.335.133,2.174,2.174,0,0,1,.8.455,2.07,2.07,0,0,1,.519.742,2.731,2.731,0,0,1,.2,1.046,2.885,2.885,0,0,1-.425,1.542,2.641,2.641,0,0,1-1.173,1.038,4.006,4.006,0,0,1-1.664.34,5.389,5.389,0,0,1-.955-.092c-.1-.456-.2-.882-.328-1.281a4.023,4.023,0,0,0,.809.085,2.481,2.481,0,0,0,.949-.165,1.368,1.368,0,0,0,.636-.535,1.534,1.534,0,0,0,.236-.839,1.253,1.253,0,0,0-.1-.505.854.854,0,0,0-.286-.369,1.1,1.1,0,0,0-.414-.189,3.38,3.38,0,0,0-.647-.048c-.245,0-.492,0-.74.012s-.472.014-.664.014q-.079,1.29-.12,2.464l-.079,2.512q-.038,1.338-.037,1.959c0,.16,0,.386.006.686l-.954-.014q-.186,0-.988.014m7.12-2.815c.04-.427.064-.869.073-1.33q.954.028,1.7.029t1.7-.029c-.035.374-.058.816-.071,1.33-.637-.022-1.206-.034-1.712-.034q-.735,0-1.69.034m7.658,2.815q.125-1.323.17-2.71h-1.329l-2.42.04c.009-.054.023-.3.044-.734s.029-.726.029-.883l.492-.625.574-.77,1.42-1.945c.131-.189.262-.381.4-.579s.3-.454.511-.771c.531.008.965.013,1.309.013s.718,0,1.15-.013q-.2,2.808-.244,4.893c.211.005.459.007.748.007.344,0,.574,0,.692-.007-.012.339-.02.73-.02,1.172v.222c-.267-.012-.759-.02-1.473-.02-.013.2-.022.384-.028.551s-.014.459-.021.88-.011.723-.011.9V12.2c-.337-.009-.659-.014-.963-.014q-.423,0-1.027.014m.422-4.018c.011-.255.017-.4.017-.441l.125-3.191c-.665.968-1.106,1.6-1.317,1.874L393.783,8.18Zm7.791,4.018q.125-1.323.17-2.71h-1.329l-2.42.04c.011-.054.023-.3.044-.734s.029-.726.029-.883l.494-.625q.18-.246.572-.77l1.422-1.945.395-.579c.136-.2.3-.454.511-.771.531.008.965.013,1.309.013s.719,0,1.15-.013q-.2,2.808-.244,4.893.316.008.75.007.513,0,.69-.007c-.012.339-.02.73-.02,1.172v.222c-.267-.012-.758-.02-1.472-.02-.012.2-.023.384-.029.551s-.014.459-.019.88-.012.723-.012.9V12.2c-.338-.009-.658-.014-.966-.014q-.42,0-1.025.014m.422-4.018c.011-.255.019-.4.019-.441l.123-3.191c-.665.968-1.106,1.6-1.317,1.874L402,8.18Z" fill="#fff"/>
      </g>
    </g>
    <g id="Grupo_1009528" data-name="Grupo 1009528" transform="translate(-3307 -1521.768)">
      <g id="Grupo_1009527" data-name="Grupo 1009527" clip-path="url(#clip-path-6)">
        <rect id="Rectángulo_350034" data-name="Rectángulo 350034" width="121.253" height="15.42" transform="translate(487.907 0)" fill="url(#linear-gradient-4)"/>
      </g>
    </g>
    <g id="Grupo_1009530" data-name="Grupo 1009530" transform="translate(-3307 -1521.768)">
      <g id="Grupo_1009529" data-name="Grupo 1009529" clip-path="url(#clip-path)">
        <path id="Trazado_726254" data-name="Trazado 726254" d="M532.909,12.007c-.036-.667-.083-1.21-.139-1.632a5.707,5.707,0,0,0,2.339.587,2.323,2.323,0,0,0,.784-.128,1.109,1.109,0,0,0,.541-.362.867.867,0,0,0,.175-.524.927.927,0,0,0-.083-.4,1.854,1.854,0,0,0-.424-.506c-.248-.242-.7-.637-1.335-1.192-.31-.267-.521-.458-.638-.569a4.8,4.8,0,0,1-.6-.676,2.08,2.08,0,0,1-.3-.595,2.191,2.191,0,0,1-.092-.631,2.115,2.115,0,0,1,.345-1.16,2.28,2.28,0,0,1,1.033-.849,4.254,4.254,0,0,1,1.731-.3,11,11,0,0,1,2.117.231c.022.456.067.976.133,1.564a5.358,5.358,0,0,0-1.892-.395,1.781,1.781,0,0,0-1.056.292.834.834,0,0,0-.411.681.867.867,0,0,0,.029.22.886.886,0,0,0,.086.224,1.9,1.9,0,0,0,.2.282,3.481,3.481,0,0,0,.432.408c.189.156.351.281.486.378l.809.738q.307.255.553.5a4.98,4.98,0,0,1,.417.465,2.678,2.678,0,0,1,.272.427,2.188,2.188,0,0,1,.148.417,1.911,1.911,0,0,1,.049.451,2.22,2.22,0,0,1-.255,1.042,2.167,2.167,0,0,1-.737.807,3.086,3.086,0,0,1-1.052.437,5.845,5.845,0,0,1-1.211.12,7.931,7.931,0,0,1-.979-.07q-.561-.075-1.472-.277m7.148.191.118-1.558.164-3.452.079-2.506c0-.228.006-.458.006-.691,0-.17,0-.428-.006-.768.56.007,1.017.012,1.367.012.279,0,.671-.006,1.171-.02s.9-.02,1.191-.02a4.937,4.937,0,0,1,1.332.132,2.142,2.142,0,0,1,.8.453,2,2,0,0,1,.517.744,2.731,2.731,0,0,1,.2,1.045,2.893,2.893,0,0,1-.424,1.542,2.615,2.615,0,0,1-1.174,1.038,4,4,0,0,1-1.663.342,5.545,5.545,0,0,1-.954-.092c-.1-.457-.2-.883-.328-1.283a4,4,0,0,0,.809.086,2.509,2.509,0,0,0,.947-.164,1.358,1.358,0,0,0,.637-.536,1.543,1.543,0,0,0,.234-.841,1.262,1.262,0,0,0-.1-.5.876.876,0,0,0-.284-.369,1.125,1.125,0,0,0-.416-.187,3.278,3.278,0,0,0-.647-.05c-.245,0-.49,0-.739.014s-.472.012-.665.012c-.05.861-.092,1.683-.119,2.465l-.08,2.513c-.023.89-.037,1.543-.037,1.959,0,.159,0,.386.006.684l-.953-.014c-.123,0-.453.006-.987.014m7.119-2.815c.041-.427.063-.867.072-1.328.636.017,1.2.028,1.7.028s1.07-.011,1.7-.028q-.053.558-.071,1.328-.954-.033-1.71-.033c-.493,0-1.055.011-1.691.033m7.68-2.637a4.442,4.442,0,0,1,.8-.086,3.37,3.37,0,0,1,1.295.254,1.932,1.932,0,0,1,.961.874,2.786,2.786,0,0,1,.348,1.371,3.424,3.424,0,0,1-.232,1.227,3.017,3.017,0,0,1-.73,1.078,2.882,2.882,0,0,1-1.181.686,5.121,5.121,0,0,1-1.455.2,4.853,4.853,0,0,1-1.289-.167,3.2,3.2,0,0,1-1.115-.548,2.312,2.312,0,0,1-.737-.958,3.054,3.054,0,0,1-.239-1.186,5.9,5.9,0,0,1,.1-1.039,6.531,6.531,0,0,1,.481-1.4,15.024,15.024,0,0,1,1-1.819c.416-.657.884-1.328,1.413-2.01h2.391q-.951,1.122-1.278,1.543c-.3.395-.584.8-.849,1.22a12.071,12.071,0,0,0-.671,1.18,9.42,9.42,0,0,0-.453,1.065,3.874,3.874,0,0,0-.158.6,3.526,3.526,0,0,0-.053.586,1.591,1.591,0,0,0,.419,1.153,1.432,1.432,0,0,0,1.075.431,1.6,1.6,0,0,0,.856-.225,1.332,1.332,0,0,0,.542-.6,1.941,1.941,0,0,0,.177-.814,1.512,1.512,0,0,0-.171-.739,1.026,1.026,0,0,0-.565-.469,2.315,2.315,0,0,0-.833-.155,3.076,3.076,0,0,0-.637.08q.647-1.062.782-1.329m5.306,5.452,1.526-2.965L563.624,5.4l.387-.807c-.395-.005-.715-.008-.968-.008-1.1,0-2.156.028-3.168.078.035-.452.057-.931.071-1.437h6.328q-.04.721-.061,1.478a1.11,1.11,0,0,1-.072.137l-.066.125c-.109.211-.4.808-.887,1.8l-1.442,2.927q-.6,1.236-1.156,2.511c-.519,0-.9-.006-1.152-.006Z" fill="#fff"/>
        <path id="Trazado_726255" data-name="Trazado 726255" d="M490.1,15.42h116.88a9.766,9.766,0,0,1,9.737,9.738v116.88a9.766,9.766,0,0,1-9.737,9.738H490.1a9.766,9.766,0,0,1-9.738-9.738V25.158A9.766,9.766,0,0,1,490.1,15.42" fill="#fff" fill-rule="evenodd"/>
        <path id="Rectángulo_350035" data-name="Rectángulo 350035" d="M9.738,0H126.619a9.737,9.737,0,0,1,9.737,9.737V126.618a9.738,9.738,0,0,1-9.738,9.738H9.738A9.738,9.738,0,0,1,0,126.618V9.738A9.738,9.738,0,0,1,9.738,0Z" transform="translate(480.357 15.42)" fill="none" stroke="#b1b1b1" stroke-miterlimit="22.926" stroke-width="2.728"/>
      </g>
    </g>
    <g id="Grupo_1009532" data-name="Grupo 1009532" transform="translate(-3307 -1521.768)">
      <g id="Grupo_1009531" data-name="Grupo 1009531" clip-path="url(#clip-path-8)">
        <rect id="Rectángulo_350037" data-name="Rectángulo 350037" width="121.253" height="15.416" transform="translate(10.84 178.859)" fill="url(#linear-gradient-5)"/>
      </g>
    </g>
    <g id="Grupo_1009534" data-name="Grupo 1009534" transform="translate(-3307 -1521.768)">
      <g id="Grupo_1009533" data-name="Grupo 1009533" clip-path="url(#clip-path-9)">
        <rect id="Rectángulo_350038" data-name="Rectángulo 350038" width="121.254" height="15.416" transform="translate(169.861 178.859)" fill="url(#linear-gradient-6)"/>
      </g>
    </g>
    <path id="Trazado_726265" data-name="Trazado 726265" d="M11.862,79.34,67.208,23.992a6.042,6.042,0,0,1,8.515,0L131.07,79.34a6.04,6.04,0,0,1,0,8.515L75.723,143.2a6.038,6.038,0,0,1-8.515,0L11.862,87.855a6.038,6.038,0,0,1,0-8.515" transform="translate(-3307 -1521.768)" fill="#fdc800" fill-rule="evenodd"/>
    <path id="Trazado_726266" data-name="Trazado 726266" d="M12.927,80.4,68.273,25.058a4.528,4.528,0,0,1,6.385,0L130.005,80.4a4.529,4.529,0,0,1,0,6.387L74.658,142.137a4.528,4.528,0,0,1-6.385,0L12.927,86.791a4.527,4.527,0,0,1,0-6.387m1.064,1.064a3.02,3.02,0,0,0,0,4.257l55.346,55.346a3.018,3.018,0,0,0,4.257,0l55.347-55.346a3.018,3.018,0,0,0,0-4.257L73.594,26.122a3.017,3.017,0,0,0-4.257,0Z" transform="translate(-3307 -1521.768)" fill="#1d1d1b" fill-rule="evenodd"/>
    <path id="Trazado_726267" data-name="Trazado 726267" d="M88.294,72.7l9.8-1.583-.57-6.148L87.475,69.688a17.065,17.065,0,0,1,.819,3.016M71.463,62.521A13.145,13.145,0,0,1,84.607,75.664v27h2.629v-27a15.819,15.819,0,0,0-.138-2.089v-.009l0-.025h0c-.036-.266-.078-.53-.127-.789l-.006-.033-.006-.031,0-.009,0-.022-.007-.031-.028-.14,0-.018-.006-.032L86.9,72.4l-.008-.031-.007-.031-.006-.032,0-.017,0-.014-.008-.031-.014-.061-.006-.033-.008-.029,0-.022,0-.01-.006-.031-.008-.031L86.806,72l-.006-.032-.008-.031-.006-.025v-.006l-.007-.03-.009-.033-.008-.029-.008-.032-.008-.031-.006-.028h0l-.009-.032-.008-.031-.008-.03-.008-.033-.007-.029-.018-.061-.007-.031-.01-.032-.008-.029-.009-.03-.008-.031v-.006l-.007-.024-.011-.03L86.6,71.2l-.009-.03,0-.012,0-.019-.009-.03-.038-.12-.006-.017-.05-.163-.008-.022-.061-.184v0q-.168-.5-.368-.979l0,0-.005-.012A15.8,15.8,0,0,0,80.438,62.7v0a15.733,15.733,0,0,0-3.9-1.967l-.012-.005h0a15.627,15.627,0,0,0-4.195-.806l-.039,0h0l-.04,0-.041,0h-.042l-.039,0h-.081l0,0H71.96l-.042,0h-.124l-.04,0h-.538l-.125,0h-.04l-.165.005-.032,0H70.8l-.152.008h-.011l-.04,0-.15.008-.013,0a15.641,15.641,0,0,0-4.031.8l-.017.006a15.705,15.705,0,0,0-3.881,1.953l-.021.016-.021.012,0,0-.041.03-.007,0c-.324.224-.638.465-.942.713l-.007.005-.118.1-.01.011-.014.009L61.3,63.6l-.071.059-.023.02,0,0-.021.018-.024.02-.023.02-.024.021-.022.02-.018.014-.007.006-.023.02-.022.021-.023.02-.024.022-.023.02-.008.008-.016.013-.022.02-.023.022-.022.02-.023.02-.024.021h0l-.023.021-.022.021-.023.021-.022.02-.024.022-.045.044-.022.02-.023.022h0l-.065.063-.021.022-.022.022-.024.02-.022.022-.017.017-.006,0-.022.022-.022.022-.022.021-.021.022-.022.022-.01.009-.012.013-.022.022-.022.023-.022.021-.022.023-.022.022-.011.011-.01.011-.022.022-.022.021-.042.046-.022.023-.013.013-.009.009-.063.067-.022.022-.021.022-.014.017-.007.006-.022.022-.1.111,0,.005-.122.137-.2.225.013-.012-.024.028-.011.011,0,0,0,0,0,0,0,0,0,0a15.744,15.744,0,0,0-2.345,3.705l-.008.016-.07.159L57,69.363l-.1.233-.006.013,0,.012,0,0-.005.011-.073.178-.013.03-.009.028-.005.009-.008.02-.011.029-.05.131-.006.014c-.04.108-.08.214-.117.322l-.009.025,0,0-.011.03-.05.148-.011.03-.029.089-.01.03-.009.03,0,.006-.007.023-.011.03-.007.031-.01.03-.009.03-.011.029,0,.011-.006.019-.008.031-.011.03-.008.03-.009.029-.01.03,0,.017,0,.014-.009.03-.009.029-.01.032-.007.029-.01.03-.006.022,0,.008-.009.031-.008.03-.008.029-.009.032-.008.031-.073.276-.03.124-.016.062a15.823,15.823,0,0,0-.435,3.695v27h2.626v-27A13.145,13.145,0,0,1,71.463,62.521M55.034,103.978H40.7l.061-.711.578-6.724h0l.062-.714.014-.172.038-.428.579-6.743.061-.711.052-.6.579-6.743h0l.062-.714.014-.183.036-.417h0l.634-7.383a.723.723,0,0,1,.005-.167l0-.011.7-7.573,0-.056,0-.012v-.007l0-.011v0l0-.011v-.017l0-.007v-.008l0-.006,0-.011v-.006l0-.009,0-.007,0-.009,0-.006,0-.01v-.006l.005-.009v-.006l0-.01v-.006l.006-.009v0l0-.011,0-.005.006-.011v0h0l0,0,0,0v0l0,0v0l0,0v0l0-.005h0l0,0,0-.005v0l0-.005,0,0v0l.005-.006v0l.008-.011h0v0l0,0,.012-.022,0,0,.01-.012,4.335-7.142c.009-.017.019-.036.03-.054l0,0,.006-.011,0,0,.007-.011,0,0,.008-.01v-.005l.008-.009,0,0,.008-.009,0,0,.009-.008,0,0,.005-.007.008-.007,0-.006.007-.008a.721.721,0,0,1,.065-.059l0,0,.044-.031,0,0h0l.011-.006,0,0,.008,0,.015-.008v0l.008,0,.006,0h0l.008-.005.006,0h0L49,56.124l.008,0,.009,0h.005l0,0,.008,0,.05-.014.009,0,.016,0h.005l0,0h.011a.236.236,0,0,1,.058-.007h.009l.044,0H65.522V54.4H77.406v1.682H93.691l.044,0h.008l.058.007h.012l0,0h0l.017,0,.008,0h0l.05.014.007,0,0,0h0l.008,0h0l.007,0,.047.021h0l.007,0,.008.005.007,0,.007,0v0l.016.008.008,0,0,0,.011.006h0l0,0,.044.031,0,0a.4.4,0,0,1,.064.059l.007.008.006.006.006.007.006.007,0,0,.008.008,0,0,.008.009,0,0,.007.009,0,.005.008.01v0l.006.011,0,0,.007.011,0,0c.009.018.02.037.03.054l4.333,7.142.011.012,0,0,.014.022v0l0,0h0l.007.011v0l0,.006,0,0v0l0,.005,0,0v.005l0,0h0l0,.005v0l0,0,0,0v.005l0,0v0h0l0,0,.006.011v.005l0,.011v0l.005.009v.006l0,.01,0,.006,0,.009,0,.006v.01l0,.006v.009l0,.007,0,.009v.006l0,.011,0,.006,0,.008v.007l0,.012v.005l0,.011v.034a.364.364,0,0,1,0,.056l.642,6.928h0l.037.425.021.22,0,.011a.744.744,0,0,1,.008.125l.637,7.425.034.4.018.2.06.714.613,7.135.019.211.639,7.454.032.38.021.22.061.714.576,6.724.061.711h-47.2ZM45.771,63.7,49.4,57.734,58.037,65.1a17.108,17.108,0,0,0-2.078,3.382ZM51.017,57.4h7.1l3.051,4.632a17.053,17.053,0,0,0-1.787,1.556c-.169.169-.333.34-.494.515Zm14.505,0V59.64a16.867,16.867,0,0,0-3.222,1.6L59.7,57.4ZM44.83,71.121l9.8,1.583a16.9,16.9,0,0,1,.819-3.016L45.4,64.973Zm9.484,7.994L54.3,74.071,44.726,72.44l-.575,6.675Zm0,1.314H44.038l-.578,6.743H54.339Zm.024,8.057H43.348l-.58,6.743H54.362Zm.023,8.057H42.654l-.525,6.121H54.378v-2.337ZM76.092,55.71H66.835v3.5a17.057,17.057,0,0,1,3.4-.589l.045,0,.175-.01.042,0,.046,0h.045l.042,0,.044,0,.044,0h.043l.044,0,.044,0h.044l.043,0h.089l.044,0h.044l.044,0h.222l.043,0h.121l.012,0h.22l.044,0h.045l.044,0h.088l.045,0h.044l.043,0h.013l.031,0h.044l.044,0a17.074,17.074,0,0,1,3.835.617v-3.5Zm1.314,3.931V57.4h5.816l-2.6,3.848a17.023,17.023,0,0,0-3.22-1.6m4.351,2.386L84.808,57.4h7.1l-7.872,6.7c-.161-.175-.325-.348-.494-.517a17.2,17.2,0,0,0-1.787-1.556m3.131,3.07,8.644-7.363L97.155,63.7,86.969,68.479A17.074,17.074,0,0,0,84.888,65.1M88.55,102.44v.224h12.255l-.527-6.121H88.567Zm.084-28.369,9.574-1.631.573,6.675H88.619Zm10.26,6.358H88.616L88.6,87.172H99.474Zm.692,8.057H88.592l-.02,6.743h11.594Z" transform="translate(-3307 -1521.768)" fill="#1d1d1b" fill-rule="evenodd"/>
    <path id="Trazado_726268" data-name="Trazado 726268" d="M170.885,79.34l55.346-55.346a6.038,6.038,0,0,1,8.515,0L290.092,79.34a6.042,6.042,0,0,1,0,8.515L234.746,143.2a6.038,6.038,0,0,1-8.515,0L170.885,87.855a6.038,6.038,0,0,1,0-8.515" transform="translate(-3307 -1521.768)" fill="#fdc800" fill-rule="evenodd"/>
    <path id="Trazado_726269" data-name="Trazado 726269" d="M171.95,80.4l55.345-55.346a4.529,4.529,0,0,1,6.386,0L289.028,80.4a4.528,4.528,0,0,1,0,6.385l-55.347,55.346a4.529,4.529,0,0,1-6.386,0L171.95,86.79a4.524,4.524,0,0,1,0-6.385m1.064,1.064a3.02,3.02,0,0,0,0,4.257l55.346,55.346a3.018,3.018,0,0,0,4.257,0l55.347-55.346a3.02,3.02,0,0,0,0-4.257L232.617,26.123a3.02,3.02,0,0,0-4.257,0Z" transform="translate(-3307 -1521.768)" fill="#1d1d1b" fill-rule="evenodd"/>
    <path id="Trazado_726270" data-name="Trazado 726270" d="M199.844,89.861c-.458.014-.63-.378-.511-1.177-.01-1,0-1.935.047-2.8.131-2.525,1.826-6.9,2.957-9.312a28.064,28.064,0,0,1,3.734-5.7,5.312,5.312,0,0,1,2.995-1.765,95.556,95.556,0,0,1,17.682,0,5.308,5.308,0,0,1,2.995,1.765,28.386,28.386,0,0,1,3.66,5.543c1.164,2.428,2.9,6.98,3.033,9.53.044.85.055,1.772.045,2.734q.179,1.2-.509,1.177V93.9a2.706,2.706,0,0,1-2.7,2.7H231.9a2.706,2.706,0,0,1-2.7-2.7V91.3a155.894,155.894,0,0,1-22.584,0v2.6a2.706,2.706,0,0,1-2.7,2.7H202.54a2.705,2.705,0,0,1-2.7-2.7Zm1.228-5.695a.4.4,0,0,0-.393.394v1.159a.393.393,0,0,0,.393.392h5.107a.4.4,0,0,0,.394-.392V84.56a.4.4,0,0,0-.394-.394Zm28.388,0a.394.394,0,0,0-.393.394v1.159a.394.394,0,0,0,.393.392h5.107a.393.393,0,0,0,.393-.392V84.56a.4.4,0,0,0-.393-.394Zm-15.19.608a.435.435,0,0,0-.433.434v2.487a.4.4,0,0,0,.027.15h-7.291v-.982a.4.4,0,0,0-.394-.391h-5.107a.394.394,0,0,0-.393.391v1.16a.393.393,0,0,0,.393.392h5.107a.3.3,0,0,0,.053,0h23.175a.3.3,0,0,0,.053,0h5.107a.393.393,0,0,0,.393-.392v-1.16a.394.394,0,0,0-.393-.391H229.46a.393.393,0,0,0-.393.391v.982h-7.115a.446.446,0,0,0,.026-.15V85.208a.436.436,0,0,0-.434-.434Zm-5.215-14.136a2.65,2.65,0,0,0-1.119.706l-4.687,8.016q-.423.919.471.942a229.835,229.835,0,0,1,28.474,0q.893-.022.472-.942l-4.788-8.016a2.631,2.631,0,0,0-1.117-.706,117.98,117.98,0,0,0-17.706,0" transform="translate(-3307 -1521.768)" fill="#1d1d1b" fill-rule="evenodd"/>
    <path id="Trazado_726271" data-name="Trazado 726271" d="M243.765,44.6l-.184,3.067,1.348,1.078.016,3.154,4.913,8.6.186,3.443,1.8,2.933L253.69,72.8l1.127,3.315,2.8,2.665L252.8,86.7,244.084,97.14l-4.572.005-.764-1.975-2.231,1.98-13.192.017-1.529-1.59-1.784,1.6-24.888.032,4.367,4.551h62.848l18.988-20.374Z" transform="translate(-3307 -1521.768)" fill="#1d1d1b" fill-rule="evenodd"/>
    <path id="Trazado_726272" data-name="Trazado 726272" d="M243.635,53.268l1.423,1.819v2.927l-2.926-1.9Z" transform="translate(-3307 -1521.768)" fill="#1d1d1b" fill-rule="evenodd"/>
    <path id="Trazado_726273" data-name="Trazado 726273" d="M247.906,65.052l.475,3.006L246.4,67.9Z" transform="translate(-3307 -1521.768)" fill="#1d1d1b" fill-rule="evenodd"/>
    <path id="Trazado_726274" data-name="Trazado 726274" d="M246.442,78.418l.286,1.819-1.2-.094Z" transform="translate(-3307 -1521.768)" fill="#1d1d1b" fill-rule="evenodd"/>
    <path id="Trazado_726275" data-name="Trazado 726275" d="M245.85,71.222a.873.873,0,1,1-.948.87.91.91,0,0,1,.948-.87" transform="translate(-3307 -1521.768)" fill="#1d1d1b" fill-rule="evenodd"/>
    <path id="Trazado_726276" data-name="Trazado 726276" d="M248.934,74.226a.873.873,0,1,1-.948.87.91.91,0,0,1,.948-.87" transform="translate(-3307 -1521.768)" fill="#1d1d1b" fill-rule="evenodd"/>
    <path id="Trazado_726277" data-name="Trazado 726277" d="M252.256,78.34a.873.873,0,1,1-.948.87.912.912,0,0,1,.948-.87" transform="translate(-3307 -1521.768)" fill="#1d1d1b" fill-rule="evenodd"/>
    <path id="Trazado_726278" data-name="Trazado 726278" d="M249.192,80.4a.675.675,0,1,1-.733.672.705.705,0,0,1,.733-.672" transform="translate(-3307 -1521.768)" fill="#1d1d1b" fill-rule="evenodd"/>
    <path id="Trazado_726279" data-name="Trazado 726279" d="M247.691,84.667a.675.675,0,1,1-.733.672.7.7,0,0,1,.733-.672" transform="translate(-3307 -1521.768)" fill="#1d1d1b" fill-rule="evenodd"/>
    <path id="Trazado_726280" data-name="Trazado 726280" d="M244.764,87.751a.675.675,0,1,1-.733.672.7.7,0,0,1,.733-.672" transform="translate(-3307 -1521.768)" fill="#1d1d1b" fill-rule="evenodd"/>
    <path id="Trazado_726281" data-name="Trazado 726281" d="M243.182,92.418a.675.675,0,1,1-.734.672.705.705,0,0,1,.734-.672" transform="translate(-3307 -1521.768)" fill="#1d1d1b" fill-rule="evenodd"/>
    <path id="Trazado_726282" data-name="Trazado 726282" d="M247.136,90.757a.675.675,0,1,1-.733.672.7.7,0,0,1,.733-.672" transform="translate(-3307 -1521.768)" fill="#1d1d1b" fill-rule="evenodd"/>
    <path id="Trazado_726283" data-name="Trazado 726283" d="M249.192,87.593a.675.675,0,1,1-.733.672.705.705,0,0,1,.733-.672" transform="translate(-3307 -1521.768)" fill="#1d1d1b" fill-rule="evenodd"/>
    <path id="Trazado_728984" data-name="Trazado 728984" d="M0,0H620V356.535H0Z" transform="translate(-3307 -1521.768)" fill="none"/>
    <g id="Grupo_1009538" data-name="Grupo 1009538" transform="translate(-3307 -1521.768)">
      <g id="Grupo_1009537" data-name="Grupo 1009537" clip-path="url(#clip-path-10)">
        <rect id="Rectángulo_350040" data-name="Rectángulo 350040" width="121.256" height="15.416" transform="translate(328.883 178.859)" fill="url(#linear-gradient-7)"/>
      </g>
    </g>
    <path id="Trazado_726285" data-name="Trazado 726285" d="M331.071,194.277H447.952a9.766,9.766,0,0,1,9.737,9.738v116.88a9.766,9.766,0,0,1-9.737,9.738H331.071a9.766,9.766,0,0,1-9.738-9.738V204.015a9.766,9.766,0,0,1,9.738-9.738" transform="translate(-3307 -1521.768)" fill="#fff" fill-rule="evenodd"/>
    <path id="Trazado_728985" data-name="Trazado 728985" d="M9.738,0H126.619a9.737,9.737,0,0,1,9.737,9.737V126.618a9.738,9.738,0,0,1-9.738,9.738H9.738A9.738,9.738,0,0,1,0,126.618V9.738A9.738,9.738,0,0,1,9.738,0Z" transform="translate(-2985.667 -1327.491)" fill="none" stroke="#b1b1b1" stroke-width="2.728"/>
    <path id="Trazado_726287" data-name="Trazado 726287" d="M385.253,322.059l-55.346-55.346a6.039,6.039,0,0,1,0-8.516l55.346-55.346a6.038,6.038,0,0,1,8.515,0L449.115,258.2a6.041,6.041,0,0,1,0,8.516l-55.347,55.346a6.038,6.038,0,0,1-8.515,0" transform="translate(-3307 -1521.768)" fill="#fdc800" fill-rule="evenodd"/>
    <path id="Trazado_726288" data-name="Trazado 726288" d="M386.32,320.992l-55.35-55.344a4.534,4.534,0,0,1,0-6.387l55.35-55.346a4.522,4.522,0,0,1,6.383,0l55.348,55.346a4.529,4.529,0,0,1,0,6.387L392.7,320.992a4.518,4.518,0,0,1-6.383,0m1.062-1.062a3.023,3.023,0,0,0,4.259,0l55.344-55.346a3.019,3.019,0,0,0,0-4.259l-55.344-55.346a3.023,3.023,0,0,0-4.259,0l-55.346,55.346a3.019,3.019,0,0,0,0,4.259Z" transform="translate(-3307 -1521.768)" fill="#1d1d1b" fill-rule="evenodd"/>
    <path id="Trazado_726289" data-name="Trazado 726289" d="M368.991,289.8h0c-2.214.77-3.861,1.928-4.317,3.222-.014.039-.026.078-.037.117h30.638c-1.126-2.326-7.127-3.3-12.3-2.2-.654-1.615-4.171-2.105-8-2.105q-.37-1.044-.692-2.081h-5.815q.232,1.521.517,3.049m35.561-54.976h11.222l.3.516H398.859l-.248-.431h-5.395l-.3-.516H404.3ZM422,252.36h8.768l.3.517H414.156l-.247-.432h-5.7l-.3-.516h13.839ZM399.679,243.2h21.6l.417.724H400.1Zm-.132,15.577h17.221l.456.788H387.536l-.383-.659h-4.946l-.457-.79h17.414Zm-14.9-20.043c3.1-5.17,8.641-5.971,14.547-6.22-6.523-4.351-11.863-1.59-16.07,5.976a4.531,4.531,0,0,0-1.587.286c-3.784-5.184-8.42-.438-8.346,6.705a11.936,11.936,0,0,0,.7,4.14c-.181.311-.358.622-.531.938l1.537.926c2.081,2.833,5.97,3.87,11.115,3.886-4.722-1.214-7.314-3.522-8.713-6.223q.358-.672.729-1.308l-1.682-1.182a19.7,19.7,0,0,1-.6-4.767c-.081-5.213,2.8-5.26,4.162-1.725a1.691,1.691,0,0,0,.08,1.52,39.468,39.468,0,0,0-3.273,3.739l1.922,1.4a29.589,29.589,0,0,1,2.9-3.908,4.558,4.558,0,0,0,1.607.282,4.737,4.737,0,0,0,.638-.042c6.5,10.516,13.972,14.939,19.566,6.945-7.426,3.991-14.7-.607-17.938-7.51a2.8,2.8,0,0,0,.631-.532c3.7,1.638,8.158,9.766,16.317,3.222-10.521,2.025-13.739-3.023-15.834-4.371v-.068a1.756,1.756,0,0,0-.265-.915c10.012,1.878,10.872,5.534,15.516-2.351-10.022,6.094-9.692.492-16.069,1.732a3.486,3.486,0,0,0-1.066-.576m-10.67,46.98q-.624-2.154-1.044-4.267l-5.129-.451q.183,2.3.5,4.619Zm-1.247-5.354q-.4-2.25-.591-4.44l-4.565-.81q-.006,2.342.147,4.722Zm-.678-5.565c-.1-1.545-.133-3.067-.1-4.554l-4.089-1.1q-.229,2.363-.278,4.785Zm-.056-5.7q.109-2.361.428-4.6l-3.648-1.332q-.495,2.352-.782,4.787Zm.6-5.75-3.561-1.371a47.716,47.716,0,0,1,1.352-4.7l3.184,1.49q-.582,2.205-.975,4.579m1.287-5.71-3.081-1.506a42.845,42.845,0,0,1,1.981-4.49l2.644,1.529a46.658,46.658,0,0,0-1.544,4.467" transform="translate(-3307 -1521.768)" fill="#1d1d1b" fill-rule="evenodd"/>
    <path id="Trazado_726290" data-name="Trazado 726290" d="M226.231,322.059l-55.346-55.346a6.038,6.038,0,0,1,0-8.515l55.346-55.347a6.038,6.038,0,0,1,8.515,0L290.092,258.2a6.038,6.038,0,0,1,0,8.515l-55.346,55.346a6.038,6.038,0,0,1-8.515,0" transform="translate(-3307 -1521.768)" fill="#fdc800" fill-rule="evenodd"/>
    <path id="Trazado_726291" data-name="Trazado 726291" d="M227.3,320.992l-55.35-55.344a4.534,4.534,0,0,1,0-6.387l55.35-55.346a4.522,4.522,0,0,1,6.383,0l55.348,55.346a4.529,4.529,0,0,1,0,6.387L233.68,320.992a4.518,4.518,0,0,1-6.383,0m1.062-1.062a3.023,3.023,0,0,0,4.259,0l55.344-55.346a3.019,3.019,0,0,0,0-4.259l-55.344-55.346a3.023,3.023,0,0,0-4.259,0l-55.346,55.346a3.019,3.019,0,0,0,0,4.259Z" transform="translate(-3307 -1521.768)" fill="#1d1d1b" fill-rule="evenodd"/>
    <path id="Trazado_726292" data-name="Trazado 726292" d="M198.9,259.217H214l.921.814v5.958h.592v-3.675a.4.4,0,1,1,.8,0v3.675h.4v-3.675a.4.4,0,1,1,.8,0v3.675h.4v-3.675a.4.4,0,1,1,.8,0v3.675h.4v-3.675a.4.4,0,1,1,.8,0v3.675h.4v-3.675a.4.4,0,1,1,.8,0v3.675h1.052v-4.6l2.27-2.586h24.567v-1.465l-49.648-13.3.779-.736.833.223,2.593-2.329-1-.269.417-.47,46.766,12.531,1.234-1.234h4.942l1.971,1.97V258.8h6.029l1.261,18.567H267.3v2.645h-5.2a6.268,6.268,0,1,0-12.494-.725,6.673,6.673,0,0,0,.042.725H222.171v-.728h-7.249v.728h-2.231a6.673,6.673,0,0,0,.042-.725,6.268,6.268,0,0,0-12.536,0,6.2,6.2,0,0,0,.042.725h-6.018a.549.549,0,0,1-.548-.549v-2.2a.549.549,0,0,1,.548-.55h.425v-10.13l2.9-6.6Zm50.106-2.855v-2.644l.277-.278-1.349-.361Zm-47.472-12.693,3.676.986-1.081-3.313Zm3.676.986.564.152.565.15,3.675.986.564.15.566.151,3.674.986.566.15.564.153,3.676.984.564.15.565.153,3.675.985.564.151.565.152,3.675.984.565.151.564.152,3.677.984.564.152.565.151,3.675.985.564.151.565.152,3.675.984.565.152.564.15,3.676.985-1.082-3.313-2.594,2.328Zm.564.152,2.593-2.33-3.674-.984Zm.565.15,3.675.986-1.081-3.314Zm4.239,1.136,2.6-2.328-3.676-.985Zm.566.151,3.674.986-1.081-3.314Zm4.24,1.136,2.593-2.328-3.674-.984Zm.564.153,3.676.984-1.083-3.313Zm4.24,1.134,2.593-2.328-3.674-.984Zm.565.153,3.675.985-1.081-3.314Zm4.239,1.136,2.6-2.329-3.676-.984Zm.565.152,3.675.984-1.081-3.314Zm4.24,1.135,2.594-2.327-3.675-.986Zm.564.152,3.677.984-1.083-3.313Zm4.241,1.136L237.2,250.2l-3.675-.986Zm.565.151,3.675.985-1.081-3.314Zm4.239,1.136,2.6-2.329-3.676-.984Zm.565.152,3.675.984-1.081-3.314Zm4.24,1.136,2.594-2.33-3.675-.984Zm-48.929,10.979h.253a2.111,2.111,0,0,0,1.715-1.406l1.231-2.64c.292-.623-.328-.9-1-.972Zm11.753-4.794a1.3,1.3,0,0,0-1.294,1.3v2.04a1.3,1.3,0,0,0,1.294,1.292h5.707a1.3,1.3,0,0,0,1.293-1.292v-2.04a1.3,1.3,0,0,0-1.293-1.3Zm-6.079,0a1.707,1.707,0,0,0-1.463,1.3l-.729,2.04c-.242.675.412,1.292,1.122,1.292h3.5a1.487,1.487,0,0,0,1.463-1.292l.139-2.04a1.136,1.136,0,0,0-1.125-1.3Zm24.853.868v.408h1.4v2.964h-1.4v.406h35.505v-.406h-.981v-2.964h.981v-.408Zm1.972,3.372h1.759v-2.962h-1.759Zm2.324,0h1.758v-2.962h-1.758Zm2.327,0h1.759v-2.962h-1.759Zm2.324,0,1.758,0v-2.962h-1.758Zm2.325,0h1.759v-2.962h-1.759Zm2.325,0h1.759v-2.962h-1.759Zm2.326,0h1.758v-2.962h-1.758Zm2.325,0h1.759v-2.962h-1.759Zm2.324,0,1.759,0v-2.964h-1.759Zm2.325,0h1.759v-2.962h-1.759Zm2.326,0h1.758v-2.962h-1.758Zm2.325,0h1.759v-2.962h-1.759Zm2.325,0h1.759v-2.962h-1.759Zm2.324,0h1.759v-2.962h-1.759ZM216.6,267.9a1.087,1.087,0,1,0,1.088,1.088A1.088,1.088,0,0,0,216.6,267.9m3.907,3.533a.756.756,0,1,0,.755.756.755.755,0,0,0-.755-.756m-3.4,3.651h.577v-3.651h-.577Zm3.4-1.511a.755.755,0,1,0,.755.756.756.756,0,0,0-.755-.756m-14.045.536a5.173,5.173,0,1,0,5.175,5.173,5.174,5.174,0,0,0-5.175-5.173m0,2.523a2.65,2.65,0,1,0,2.65,2.651,2.65,2.65,0,0,0-2.65-2.651m49.414-2.523a5.173,5.173,0,1,0,5.171,5.173,5.174,5.174,0,0,0-5.171-5.173m0,2.523a2.65,2.65,0,1,0,2.65,2.651,2.65,2.65,0,0,0-2.65-2.651m-53.926-19.2-.776,1.453h4.168l-.777-1.453Z" transform="translate(-3307 -1521.768)" fill="#1d1d1b" fill-rule="evenodd"/>
    <path id="Trazado_726293" data-name="Trazado 726293" d="M67.209,322.059,11.863,266.713a6.038,6.038,0,0,1,0-8.515l55.346-55.347a6.038,6.038,0,0,1,8.515,0L131.07,258.2a6.038,6.038,0,0,1,0,8.515L75.724,322.059a6.038,6.038,0,0,1-8.515,0" transform="translate(-3307 -1521.768)" fill="#fdc800" fill-rule="evenodd"/>
    <path id="Trazado_726294" data-name="Trazado 726294" d="M68.273,320.992,12.925,265.648a4.534,4.534,0,0,1,0-6.387l55.348-55.346a4.524,4.524,0,0,1,6.385,0L130,259.261a4.527,4.527,0,0,1,0,6.387L74.658,320.992a4.521,4.521,0,0,1-6.385,0m1.064-1.062a3.02,3.02,0,0,0,4.257,0l55.346-55.346a3.019,3.019,0,0,0,0-4.259L73.594,204.979a3.02,3.02,0,0,0-4.257,0L13.991,260.325a3.019,3.019,0,0,0,0,4.259Z" transform="translate(-3307 -1521.768)" fill="#1d1d1b" fill-rule="evenodd"/>
    <path id="Trazado_726295" data-name="Trazado 726295" d="M38.975,271.694H50.217a1.045,1.045,0,0,1,1.044,1.04v3.975a1.046,1.046,0,0,1-1.044,1.042H38.975a1.045,1.045,0,0,1-1.042-1.042v-3.975a1.043,1.043,0,0,1,1.042-1.04m31.376-7.077c2.065,1.157,3.838.367,3.929-.753a14.6,14.6,0,0,0-.672-4.164c-.748-2.492-14.045-2.407-14.275.626-.069.921,1.238,2.292,3.49,1.83,1.938-.283,5.462,1.3,7.528,2.461M44.6,237.759c-1.269-.011-2.55-.016-3.84-.006l-2.481,2.479c2.023-.053,4.068-.073,6.321-.148,4.96.162,8.9.073,13.84.617a4.534,4.534,0,0,1,2,1.229,18.578,18.578,0,0,1,2.358,5.875c.4,1.782-1.056,1.674-3.192,1.553-3.47-.2-6.471-.635-15.006-.635s-11.536.435-15.006.635l-.465.026-8.61,8.61c4.076-.289,9.2.459,9.344,2.332.069.921-1.238,2.292-3.49,1.83-1.938-.283-5.464,1.3-7.528,2.461-.14.079-.279.148-.417.209l15.6,15.6H64.6v2.642a4.1,4.1,0,0,0,4.092,4.09H74.68a4.1,4.1,0,0,0,4.09-4.09V270.063a4.051,4.051,0,0,0-.188-1.222c.3-4.154.522-8.366.061-9.95-.451-1.55-2.612-2.267-3.7-3.461.086-.543-.161-1.115-1.836-2.34a4.124,4.124,0,0,1-1.121-1.167,17.721,17.721,0,0,0,4.705.111,4.362,4.362,0,0,0,2.386-1.919,1.276,1.276,0,0,0-.57-1.476,13.334,13.334,0,0,0-4.484-1.4,1.147,1.147,0,0,0-.959.519c-.474.6-.485,1.531-1.055,2.042-.272.24-1.078-.5-1.083-.132v0a28.543,28.543,0,0,0-3.854-6.8c-.6-.826-3.174-4.035-4.187-4.187a119.1,119.1,0,0,0-18.288-.928" transform="translate(-3307 -1521.768)" fill="#1d1d1b" fill-rule="evenodd"/>
    <path id="Trazado_726296" data-name="Trazado 726296" d="M78.12,286.039a.75.75,0,0,0,1.3.747l10.953-18.971a.75.75,0,0,0-1.3-.749Z" transform="translate(-3307 -1521.768)" fill="#1d1d1b"/>
    <path id="Trazado_726297" data-name="Trazado 726297" d="M81.238,285.876A.752.752,0,1,0,82.3,286.94l23.156-23.157a.752.752,0,0,0-1.064-1.063Z" transform="translate(-3307 -1521.768)" fill="#1d1d1b"/>
    <path id="Trazado_726298" data-name="Trazado 726298" d="M84.4,285.762a.75.75,0,1,0,.747,1.3l18.971-10.953a.749.749,0,1,0-.745-1.3Z" transform="translate(-3307 -1521.768)" fill="#1d1d1b"/>
    <path id="Trazado_726299" data-name="Trazado 726299" d="M106.565,273.659a.752.752,0,1,0-.753-.753.755.755,0,0,0,.753.753" transform="translate(-3307 -1521.768)" fill="#1d1d1b" fill-rule="evenodd"/>
    <path id="Trazado_726300" data-name="Trazado 726300" d="M110.092,265.63a.752.752,0,1,0-.753-.753.755.755,0,0,0,.753.753" transform="translate(-3307 -1521.768)" fill="#1d1d1b" fill-rule="evenodd"/>
    <path id="Trazado_726301" data-name="Trazado 726301" d="M103.037,271.651a.752.752,0,1,0-.753-.753.755.755,0,0,0,.753.753" transform="translate(-3307 -1521.768)" fill="#1d1d1b" fill-rule="evenodd"/>
    <path id="Trazado_726302" data-name="Trazado 726302" d="M92.455,263.624a.752.752,0,1,0-.753-.753.755.755,0,0,0,.753.753" transform="translate(-3307 -1521.768)" fill="#1d1d1b" fill-rule="evenodd"/>
    <path id="Trazado_726303" data-name="Trazado 726303" d="M113.618,269.645a.752.752,0,1,0-.753-.753.755.755,0,0,0,.753.753" transform="translate(-3307 -1521.768)" fill="#1d1d1b" fill-rule="evenodd"/>
    <path id="Trazado_726304" data-name="Trazado 726304" d="M99.509,261.617a.752.752,0,1,0-.753-.753.755.755,0,0,0,.753.753" transform="translate(-3307 -1521.768)" fill="#1d1d1b" fill-rule="evenodd"/>
    <path id="Trazado_726305" data-name="Trazado 726305" d="M95.982,267.638a.753.753,0,1,0-.753-.753.755.755,0,0,0,.753.753" transform="translate(-3307 -1521.768)" fill="#1d1d1b" fill-rule="evenodd"/>
    <path id="Trazado_726306" data-name="Trazado 726306" d="M544.277,143.2,488.931,87.855a6.038,6.038,0,0,1,0-8.515l55.346-55.347a6.038,6.038,0,0,1,8.515,0L608.139,79.34a6.04,6.04,0,0,1,0,8.515L552.792,143.2a6.036,6.036,0,0,1-8.515,0" transform="translate(-3307 -1521.768)" fill="#fdc800" fill-rule="evenodd"/>
    <path id="Trazado_726307" data-name="Trazado 726307" d="M545.341,142.137,489.993,86.791a4.53,4.53,0,0,1,0-6.387l55.348-55.348a4.532,4.532,0,0,1,6.385,0L607.074,80.4a4.53,4.53,0,0,1,0,6.387l-55.348,55.346a4.524,4.524,0,0,1-6.385,0m1.064-1.064a3.023,3.023,0,0,0,4.259,0l55.344-55.346a3.019,3.019,0,0,0,0-4.259L550.664,26.122a3.023,3.023,0,0,0-4.259,0L491.059,81.468a3.019,3.019,0,0,0,0,4.259Z" transform="translate(-3307 -1521.768)" fill="#1d1d1b" fill-rule="evenodd"/>
    <path id="Trazado_726308" data-name="Trazado 726308" d="M542.771,80.015,524.212,58.179h5.662l14.117,21.836Z" transform="translate(-3307 -1521.768)" fill="#1d1d1b" fill-rule="evenodd"/>
    <path id="Trazado_726309" data-name="Trazado 726309" d="M550.821,95.375l18.559,21.836h-5.662L549.6,95.375Z" transform="translate(-3307 -1521.768)" fill="#1d1d1b" fill-rule="evenodd"/>
    <path id="Trazado_726310" data-name="Trazado 726310" d="M549.575,79.043,561.7,64.992h-5.661L548.82,79.509Z" transform="translate(-3307 -1521.768)" fill="#1d1d1b" fill-rule="evenodd"/>
    <path id="Trazado_726311" data-name="Trazado 726311" d="M544.017,96.347,531.893,110.4h5.662l7.217-14.517Z" transform="translate(-3307 -1521.768)" fill="#1d1d1b" fill-rule="evenodd"/>
    <path id="Trazado_726312" data-name="Trazado 726312" d="M543.311,57.521h5.067l-2.127,23.728-.882.3Z" transform="translate(-3307 -1521.768)" fill="#1d1d1b" fill-rule="evenodd"/>
    <path id="Trazado_726313" data-name="Trazado 726313" d="M550.279,117.869h-5.067l2.127-23.728.882-.3Z" transform="translate(-3307 -1521.768)" fill="#1d1d1b" fill-rule="evenodd"/>
    <path id="Trazado_726314" data-name="Trazado 726314" d="M499.131,83.244a9.438,9.438,0,0,1,.877-3.515q.347-.837.929-.941l.741-.064q1.551-.045,3.43.076l.421-.082a42.666,42.666,0,0,1,6.783-1.842l.544-.122a20.09,20.09,0,0,1,5.345.159,29.941,29.941,0,0,1,8.178,1.694l.566.318.361.316a56.633,56.633,0,0,1,5.415,4.168.617.617,0,0,1,.545.256,4.071,4.071,0,0,1,1.32.346c1.472.334,4.646,1.445,4.84,1.345.289-.149,1.089-.705,1.344.47.492-.734,1.242-.469,1.189.469,1.248-.978.938.486,1,.454.68-.332,1.209-.064,1.112.618q1.011-.358.783.723l.259.212a1.144,1.144,0,0,1,.115.571l.179.776.492.417.266,1.342-.616,2.008c.211.009-.189.453-.729.737a7.4,7.4,0,0,1-2.656.1l.119-.464-.549-.142c-1.036,3.046-5.912,2.5-6.143-.408l-1.423-.244-22.189-2.626c-1.146,2.836-6.153,2.2-6.67-1.059l-.739-.141-.117.074a14.569,14.569,0,0,0-2.923-.439l.011-.324a8.851,8.851,0,0,1-2.453-.687.773.773,0,0,1-.375-.833,5.112,5.112,0,0,0-.45-1.664,2,2,0,0,1,.181-1.188,3.126,3.126,0,0,1,.683-.861m9.95,3.416a2.305,2.305,0,1,0,1.938,2.622,2.31,2.31,0,0,0-1.938-2.622m30.044,3.566a2.3,2.3,0,1,0,1.938,2.621,2.308,2.308,0,0,0-1.938-2.621M521.517,78.655l.719,5.137,8.274,1.345a4.817,4.817,0,0,0-.175-1.951c-3.828-4.043-5.87-4.078-8.818-4.531m-1.212-.042c-2.959-.426-5.434-.512-6.684.194-1.673.912-3.329,1.365-2.5,3.126a11.323,11.323,0,0,0,2.293.425l7.117,1.09Z" transform="translate(-3307 -1521.768)" fill="#1d1d1b" fill-rule="evenodd"/>
    <path id="Trazado_726315" data-name="Trazado 726315" d="M550.693,94.7c-.4.023-1.717-1.427-2.075-2.7l-.284.058-.1-1.22.158-.056-.222-.263a1.712,1.712,0,0,1,.747-1.017,3.023,3.023,0,0,1,.012-.315l-.408-1.046.777-.315-.053-.742.739.008c.017-.021.034-.039.053-.06l-.046-.9.869.112,0,0,.05-.88.867.069.1-.861.789.233.1-.886,1.026.349c.868-.486,1.853-.985,2.966-1.494l.868-.408-.307-.311,1.315-.5a74.567,74.567,0,0,1,8.518-6,14.008,14.008,0,0,1,4.112-1.572,16.532,16.532,0,0,1,2.915-1.072,67.922,67.922,0,0,1,13.778-1.557,9.516,9.516,0,0,1,1.762.1l2.831.106.458.52a15.073,15.073,0,0,1,3.776,5.192l.408.211a17.066,17.066,0,0,1,1.071,5.158l.385.339a5.787,5.787,0,0,1,.779,3.634,1.958,1.958,0,0,1-1.57,1.328l-2.509.483-.894.217a4.316,4.316,0,0,1-8.211,1.781l-1.136-.137-22.475,2.968-1.008.086a4.429,4.429,0,0,1-7.932.969s-2.6.379-2.993.4m24.913-14.028,8.764-1.363a41.96,41.96,0,0,0-1.3-5.613.3.3,0,0,0-.343-.286c-2.321.178-4.656.552-7.048.939a.469.469,0,0,0-.391.344,44.716,44.716,0,0,0,.318,5.979m-11.677.6c-.947,1.32-.075,1.217-.075,1.217l9.8-1.539c-.033-1.909-.022-3.878.081-5.906-.006-.195-.192-.268-.564-.215-5.162.639-8.293,5.124-9.241,6.443m21.7-8.02c-.283.052-.364.211-.331.433a45.162,45.162,0,0,0,1.379,4.478.54.54,0,0,0,.588.406q3.052-.41,6.086-.962.652-.1.491-.7a8.5,8.5,0,0,0-2.5-3.453,1.072,1.072,0,0,0-.876-.369ZM589.8,86.019a2.791,2.791,0,1,0,3.137,2.4,2.8,2.8,0,0,0-3.137-2.4M557.011,89.7A2.791,2.791,0,1,0,560.15,92.1a2.8,2.8,0,0,0-3.139-2.395" transform="translate(-3307 -1521.768)" fill="#1d1d1b" fill-rule="evenodd"/>
    <path id="Trazado_726316" data-name="Trazado 726316" d="M329.907,79.34l55.346-55.346a6.039,6.039,0,0,1,8.516,0L449.114,79.34a6.036,6.036,0,0,1,0,8.515L393.769,143.2a6.041,6.041,0,0,1-8.516,0L329.907,87.855a6.036,6.036,0,0,1,0-8.515" transform="translate(-3307 -1521.768)" fill="#fdc800" fill-rule="evenodd"/>
    <path id="Trazado_726317" data-name="Trazado 726317" d="M330.973,80.4l55.346-55.346a4.525,4.525,0,0,1,6.386,0L448.05,80.4a4.53,4.53,0,0,1,0,6.387L392.7,142.137a4.529,4.529,0,0,1-6.386,0L330.973,86.791a4.523,4.523,0,0,1,0-6.387m1.062,1.064a3.023,3.023,0,0,0,0,4.259l55.348,55.346a3.023,3.023,0,0,0,4.259,0l55.343-55.346a3.015,3.015,0,0,0,0-4.259L391.642,26.122a3.019,3.019,0,0,0-4.259,0Z" transform="translate(-3307 -1521.768)" fill="#1d1d1b" fill-rule="evenodd"/>
    <path id="Trazado_726318" data-name="Trazado 726318" d="M367.813,74.647c-.536-.04-.686-.519-.45-1.429.11-1.16.236-2.25.392-3.245.46-2.916,2.961-7.787,4.567-10.458a32.8,32.8,0,0,1,5.029-6.17,6.227,6.227,0,0,1,3.693-1.687A111.8,111.8,0,0,1,401.589,53.8a6.2,6.2,0,0,1,3.265,2.414,33.2,33.2,0,0,1,3.579,6.884c1.058,2.962,2.522,8.461,2.367,11.44-.052.994-.15,2.064-.277,3.183q.06,1.41-.735,1.3l-.491,4.69a3.163,3.163,0,0,1-3.462,2.809l-1.6-.167a3.159,3.159,0,0,1-2.808-3.462l.314-3.014a182.548,182.548,0,0,1-26.239-2.74l-.314,3.014a3.158,3.158,0,0,1-3.463,2.806l-1.6-.166a3.158,3.158,0,0,1-2.807-3.46Zm2.117-6.468a.461.461,0,0,0-.5.408l-.141,1.347a.46.46,0,0,0,.408.5l5.935.621a.46.46,0,0,0,.5-.41l.141-1.347a.46.46,0,0,0-.408-.5Zm32.98,3.445a.459.459,0,0,0-.5.408l-.139,1.347a.459.459,0,0,0,.406.5l5.936.619a.462.462,0,0,0,.5-.408l.139-1.348a.459.459,0,0,0-.407-.5Zm-17.718-1.136a.51.51,0,0,0-.559.45l-.3,2.887a.438.438,0,0,0,.013.178l-8.471-.884.118-1.139a.457.457,0,0,0-.407-.5l-5.934-.618a.457.457,0,0,0-.505.406l-.14,1.35a.459.459,0,0,0,.408.5l5.933.62c.022,0,.042,0,.064,0l26.923,2.812c.019,0,.041.008.06.011l5.935.62a.464.464,0,0,0,.505-.409l.139-1.347a.461.461,0,0,0-.408-.5l-5.934-.619a.459.459,0,0,0-.5.408l-.119,1.139-8.266-.864a.491.491,0,0,0,.05-.171l.3-2.887a.509.509,0,0,0-.451-.558Zm-4.346-17.057a3.076,3.076,0,0,0-1.384.684l-6.42,8.745q-.6,1.017.433,1.153a267.821,267.821,0,0,1,33.085,3.454c.692.053.914-.292.659-1.036l-4.588-9.9a3.1,3.1,0,0,0-1.214-.957,138,138,0,0,0-20.571-2.147" transform="translate(-3307 -1521.768)" fill="#1d1d1b" fill-rule="evenodd"/>
    <path id="Trazado_726319" data-name="Trazado 726319" d="M367.813,74.647c-.536-.04-.686-.519-.45-1.429.11-1.16.236-2.25.392-3.245.46-2.916,2.961-7.787,4.567-10.458a32.8,32.8,0,0,1,5.029-6.17,6.227,6.227,0,0,1,3.693-1.687A111.8,111.8,0,0,1,401.589,53.8a6.2,6.2,0,0,1,3.265,2.414,33.2,33.2,0,0,1,3.579,6.884c1.058,2.962,2.522,8.461,2.367,11.44-.052.994-.15,2.064-.277,3.183q.06,1.41-.735,1.3l-.491,4.69a3.163,3.163,0,0,1-3.462,2.809l-1.6-.167a3.159,3.159,0,0,1-2.808-3.462l.314-3.014a182.548,182.548,0,0,1-26.239-2.74l-.314,3.014a3.158,3.158,0,0,1-3.463,2.806l-1.6-.166a3.158,3.158,0,0,1-2.807-3.46Zm2.117-6.468a.461.461,0,0,0-.5.408l-.141,1.347a.46.46,0,0,0,.408.5l5.935.621a.46.46,0,0,0,.5-.41l.141-1.347a.46.46,0,0,0-.408-.5Zm32.98,3.445a.459.459,0,0,0-.5.408l-.139,1.347a.459.459,0,0,0,.406.5l5.936.619a.462.462,0,0,0,.5-.408l.139-1.348a.459.459,0,0,0-.407-.5Zm-17.718-1.136a.51.51,0,0,0-.559.45l-.3,2.887a.438.438,0,0,0,.013.178l-8.471-.884.118-1.139a.457.457,0,0,0-.407-.5l-5.934-.618a.457.457,0,0,0-.505.406l-.14,1.35a.459.459,0,0,0,.408.5l5.933.62c.022,0,.042,0,.064,0l26.923,2.812c.019,0,.041.008.06.011l5.935.62a.464.464,0,0,0,.505-.409l.139-1.347a.461.461,0,0,0-.408-.5l-5.934-.619a.459.459,0,0,0-.5.408l-.119,1.139-8.266-.864a.491.491,0,0,0,.05-.171l.3-2.887a.509.509,0,0,0-.451-.558Zm-4.346-17.057a3.076,3.076,0,0,0-1.384.684l-6.42,8.745q-.6,1.017.433,1.153a267.821,267.821,0,0,1,33.085,3.454c.692.053.914-.292.659-1.036l-4.588-9.9a3.1,3.1,0,0,0-1.214-.957A138,138,0,0,0,380.846,53.431Z" transform="translate(-3307 -1521.768)" fill="none" stroke="#1d1d1b" stroke-miterlimit="22.926" stroke-width="0.208"/>
    <path id="Trazado_726320" data-name="Trazado 726320" d="M370.345,86.04c-.1-.238,2.478-.594,5.435,0-1.271,8.565,10.954,8.729,10.265,14.486-1.524,6.161-7.381,6.893-6.209,16.551-4.148-.711-8.777-2.616-10.61-2.9-1.4-9.509,6.481-7.352,7.684-13.6,1.139-6.056-7.838-5.967-6.565-14.534" transform="translate(-3307 -1521.768)" fill="#1d1d1b" fill-rule="evenodd"/>
    <path id="Trazado_726321" data-name="Trazado 726321" d="M400.439,88.2c-.1-.2,1.637-1.245,4.768-.744-1.347,7.173,11.719,8.76,10.991,13.58-1.611,5.16-11.492,9.239-10.253,17.327-4.389-.6-7.618-2.184-9.559-2.426-1.478-7.963,9.8-10.5,11.068-15.731,1.2-5.071-8.36-4.833-7.015-12.006" transform="translate(-3307 -1521.768)" fill="#1d1d1b" fill-rule="evenodd"/>
    <path id="Trazado_726322" data-name="Trazado 726322" d="M490.1,194.275h116.88a9.767,9.767,0,0,1,9.737,9.739V320.893a9.766,9.766,0,0,1-9.737,9.738H490.1a9.766,9.766,0,0,1-9.738-9.738V204.014a9.767,9.767,0,0,1,9.738-9.739" transform="translate(-3307 -1521.768)" fill="#fff" fill-rule="evenodd"/>
    <path id="Trazado_728986" data-name="Trazado 728986" d="M9.739,0h116.88a9.737,9.737,0,0,1,9.737,9.737V126.618a9.738,9.738,0,0,1-9.738,9.738H9.738A9.738,9.738,0,0,1,0,126.618V9.739A9.739,9.739,0,0,1,9.739,0Z" transform="translate(-2826.644 -1327.492)" fill="none" stroke="#b1b1b1" stroke-width="2.728"/>
    <path id="Trazado_728987" data-name="Trazado 728987" d="M0,0H620V356.535H0Z" transform="translate(-3307 -1521.768)" fill="none"/>
    <g id="Grupo_1009542" data-name="Grupo 1009542" transform="translate(-3307 -1521.768)">
      <g id="Grupo_1009541" data-name="Grupo 1009541" clip-path="url(#clip-path-11)">
        <rect id="Rectángulo_350044" data-name="Rectángulo 350044" width="121.253" height="15.416" transform="translate(487.907 178.859)" fill="url(#linear-gradient-8)"/>
      </g>
    </g>
    <path id="Trazado_726324" data-name="Trazado 726324" d="M544.277,322.058l-55.346-55.345a6.039,6.039,0,0,1,0-8.516l55.346-55.347a6.041,6.041,0,0,1,8.516,0L608.139,258.2a6.039,6.039,0,0,1,0,8.516l-55.346,55.345a6.039,6.039,0,0,1-8.516,0" transform="translate(-3307 -1521.768)" fill="#fdc800" fill-rule="evenodd"/>
    <path id="Trazado_726325" data-name="Trazado 726325" d="M545.343,320.993l-55.35-55.347a4.532,4.532,0,0,1,0-6.385l55.35-55.347a4.524,4.524,0,0,1,6.383,0l55.348,55.347a4.526,4.526,0,0,1,0,6.385l-55.348,55.347a4.522,4.522,0,0,1-6.383,0m1.062-1.065a3.023,3.023,0,0,0,4.259,0l55.346-55.346a3.02,3.02,0,0,0,0-4.257l-55.346-55.347a3.021,3.021,0,0,0-4.259,0l-55.346,55.347a3.02,3.02,0,0,0,0,4.257Z" transform="translate(-3307 -1521.768)" fill="#1d1d1b" fill-rule="evenodd"/>
    <path id="Trazado_726326" data-name="Trazado 726326" d="M545.36,279.755h18.815a3.214,3.214,0,0,1-2.6-3.715l.359-2.036L546.5,271.281l-15.438-2.723L530.7,270.6a3.161,3.161,0,0,1-.772,1.577H545.36Zm26.173,0h11.516v2.921H514.018v-10.5h7.653a3.216,3.216,0,0,1-1.9-3.505l1.77-10.035a3.117,3.117,0,0,1,.311-.919c.336-3.245.736-6.527,1.306-7.686.561-1.134,2.324-1.4,3.327-2.167.007-.431.277-.839,1.736-1.555a3.275,3.275,0,0,0,1.024-.749,13.825,13.825,0,0,1-3.647-.555,3.415,3.415,0,0,1-1.578-1.805,1,1,0,0,1,.641-1.06,10.415,10.415,0,0,1,3.649-.471.907.907,0,0,1,.671.53c.282.53.165,1.248.535,1.72.175.224.9-.236.852.045a22.466,22.466,0,0,1,3.9-4.718c.578-.556,3-2.682,3.8-2.66a141.269,141.269,0,0,1,28.224,4.977c.76.253,2.31,3.079,2.663,3.8a22.521,22.521,0,0,1,2.049,5.77v0c.052-.279.575.4.816.249.511-.318.645-1.032,1.093-1.433a.9.9,0,0,1,.81-.269,10.457,10.457,0,0,1,3.27,1.691,1,1,0,0,1,.237,1.217,3.409,3.409,0,0,1-2.1,1.154,13.838,13.838,0,0,1-3.616-.725,3.267,3.267,0,0,0,.706,1.055c1.125,1.17,1.239,1.646,1.1,2.054.675,1.069,2.246,1.916,2.382,3.173.142,1.285-.6,4.506-1.4,7.67a3.122,3.122,0,0,1-.022.968l-1.77,10.037a3.162,3.162,0,0,1-.973,1.787M551.986,240.15c-3.85-.55-6.881-1.157-10.763-1.409a3.552,3.552,0,0,0-1.711.678,14.557,14.557,0,0,0-2.618,4.212c-.552,1.32.587,1.436,2.253,1.631,2.7.319,5.079.392,11.664,1.555s8.844,1.9,11.494,2.529c1.629.386,2.738.667,2.673-.764a14.5,14.5,0,0,0-1.021-4.852,3.55,3.55,0,0,0-1.374-1.222c-3.734-1.092-6.792-1.558-10.6-2.358m16.537,22.434c1.434,1.173,2.912.806,3.132-.047a11.4,11.4,0,0,0,.048-3.3c-.237-2.023-10.511-3.768-11.1-1.457-.178.7.642,1.937,2.443,1.887,1.533.044,4.037,1.748,5.475,2.922m-25.175,1.192,8.675,1.529a.818.818,0,0,1,.664.945l-.542,3.067a.815.815,0,0,1-.945.661l-8.676-1.53a.817.817,0,0,1-.662-.945l.54-3.065a.817.817,0,0,1,.946-.662m-14.572-8.2c1.75-.611,4.687-1.356,6.143-.875,1.676.664,2.87-.217,2.94-.936.238-2.373-10.011-4.248-10.928-2.426a11.426,11.426,0,0,0-1.084,3.122c-.083.876,1.178,1.727,2.929,1.115" transform="translate(-3307 -1521.768)" fill="#1d1d1b" fill-rule="evenodd"/>
    <path id="Trazado_728988" data-name="Trazado 728988" d="M.546-.191q-.053-1-.138-1.631a5.736,5.736,0,0,0,2.341.585,2.354,2.354,0,0,0,.786-.128,1.107,1.107,0,0,0,.539-.362.853.853,0,0,0,.174-.523.928.928,0,0,0-.084-.4,1.851,1.851,0,0,0-.419-.506Q3.37-3.518,2.4-4.347q-.46-.4-.635-.572a4.706,4.706,0,0,1-.605-.674,2.151,2.151,0,0,1-.3-.6A2.114,2.114,0,0,1,.769-6.82a2.124,2.124,0,0,1,.345-1.161,2.278,2.278,0,0,1,1.033-.848A4.275,4.275,0,0,1,3.88-9.135,11.146,11.146,0,0,1,6-8.9q.033.684.132,1.565a5.291,5.291,0,0,0-1.89-.395,1.771,1.771,0,0,0-1.053.293.834.834,0,0,0-.41.681.913.913,0,0,0,.029.22.992.992,0,0,0,.086.224,1.746,1.746,0,0,0,.2.283,3.413,3.413,0,0,0,.429.408q.282.233.483.378l.811.737q.308.256.551.5a5.1,5.1,0,0,1,.417.467,2.423,2.423,0,0,1,.272.427,1.978,1.978,0,0,1,.148.418,2,2,0,0,1,.049.45A2.216,2.216,0,0,1,6-1.207,2.143,2.143,0,0,1,5.261-.4,3.054,3.054,0,0,1,4.209.036,5.808,5.808,0,0,1,3,.158a7.755,7.755,0,0,1-.98-.072Q1.46.013.546-.191ZM7.695,0l.118-1.559.165-3.453.079-2.506q.007-.342.007-.691,0-.256-.007-.769.842.013,1.368.013.421,0,1.171-.02T11.785-9a4.928,4.928,0,0,1,1.335.132,2.142,2.142,0,0,1,.8.454,2.018,2.018,0,0,1,.52.743,2.757,2.757,0,0,1,.2,1.046,2.9,2.9,0,0,1-.424,1.542,2.617,2.617,0,0,1-1.174,1.036,3.963,3.963,0,0,1-1.664.342,5.343,5.343,0,0,1-.954-.092q-.145-.684-.329-1.282A3.914,3.914,0,0,0,10.9-5a2.477,2.477,0,0,0,.945-.164,1.343,1.343,0,0,0,.636-.536,1.53,1.53,0,0,0,.236-.839,1.275,1.275,0,0,0-.1-.506.874.874,0,0,0-.285-.368,1.072,1.072,0,0,0-.413-.187,3.226,3.226,0,0,0-.646-.049q-.367,0-.741.013t-.663.013q-.078,1.289-.118,2.466L9.669-2.644Q9.63-1.309,9.63-.684q0,.237.007.684L8.682-.013Q8.5-.013,7.695,0Zm7.122-2.815q.059-.638.072-1.328.954.026,1.7.026t1.7-.026q-.053.559-.072,1.328-.954-.033-1.71-.033Q15.771-2.848,14.817-2.815ZM19.592,0l1.524-2.966L23.048-6.8l.388-.809q-.591-.007-.966-.007-1.649,0-3.167.079.053-.677.072-1.44H25.7q-.042.723-.063,1.48s-.024.05-.072.138l-.066.125q-.164.316-.888,1.8l-1.44,2.927Q22.575-1.276,22.016,0q-.775-.007-1.15-.007ZM29.858,0q.091-1.013.15-2.3l.124-2.631q.065-1.342.085-2.308-.3.184-.449.286T29-6.432q.033-.416.056-.931t.023-.792q.23-.131.6-.352t.46-.284q.092-.062.25-.186.388.013.941.013t1.02-.013l-.072.894q-.026.309-.059.888l-.261,5.228-.02.783q-.007.243-.007.493L31.939,0q-.448-.013-.975-.013Q30.352-.013,29.858,0Z" transform="translate(-3252.12 -1330.379)" fill="#fff"/>
    <path id="Trazado_728989" data-name="Trazado 728989" d="M.546-.191q-.053-1-.138-1.631a5.736,5.736,0,0,0,2.341.585,2.354,2.354,0,0,0,.786-.128,1.107,1.107,0,0,0,.539-.362.853.853,0,0,0,.174-.523.928.928,0,0,0-.084-.4,1.851,1.851,0,0,0-.419-.506Q3.37-3.518,2.4-4.347q-.46-.4-.635-.572a4.706,4.706,0,0,1-.605-.674,2.151,2.151,0,0,1-.3-.6A2.114,2.114,0,0,1,.769-6.82a2.124,2.124,0,0,1,.345-1.161,2.278,2.278,0,0,1,1.033-.848A4.275,4.275,0,0,1,3.88-9.135,11.146,11.146,0,0,1,6-8.9q.033.684.132,1.565a5.291,5.291,0,0,0-1.89-.395,1.771,1.771,0,0,0-1.053.293.834.834,0,0,0-.41.681.913.913,0,0,0,.029.22.992.992,0,0,0,.086.224,1.746,1.746,0,0,0,.2.283,3.413,3.413,0,0,0,.429.408q.282.233.483.378l.811.737q.308.256.551.5a5.1,5.1,0,0,1,.417.467,2.423,2.423,0,0,1,.272.427,1.978,1.978,0,0,1,.148.418,2,2,0,0,1,.049.45A2.216,2.216,0,0,1,6-1.207,2.143,2.143,0,0,1,5.261-.4,3.054,3.054,0,0,1,4.209.036,5.808,5.808,0,0,1,3,.158a7.755,7.755,0,0,1-.98-.072Q1.46.013.546-.191ZM7.695,0l.118-1.559.165-3.453.079-2.506q.007-.342.007-.691,0-.256-.007-.769.842.013,1.368.013.421,0,1.171-.02T11.785-9a4.928,4.928,0,0,1,1.335.132,2.142,2.142,0,0,1,.8.454,2.018,2.018,0,0,1,.52.743,2.757,2.757,0,0,1,.2,1.046,2.9,2.9,0,0,1-.424,1.542,2.617,2.617,0,0,1-1.174,1.036,3.963,3.963,0,0,1-1.664.342,5.343,5.343,0,0,1-.954-.092q-.145-.684-.329-1.282A3.914,3.914,0,0,0,10.9-5a2.477,2.477,0,0,0,.945-.164,1.343,1.343,0,0,0,.636-.536,1.53,1.53,0,0,0,.236-.839,1.275,1.275,0,0,0-.1-.506.874.874,0,0,0-.285-.368,1.072,1.072,0,0,0-.413-.187,3.226,3.226,0,0,0-.646-.049q-.367,0-.741.013t-.663.013q-.078,1.289-.118,2.466L9.669-2.644Q9.63-1.309,9.63-.684q0,.237.007.684L8.682-.013Q8.5-.013,7.695,0Zm7.122-2.815q.059-.638.072-1.328.954.026,1.7.026t1.7-.026q-.053.559-.072,1.328-.954-.033-1.71-.033Q15.771-2.848,14.817-2.815ZM19.592,0l1.524-2.966L23.048-6.8l.388-.809q-.591-.007-.966-.007-1.649,0-3.167.079.053-.677.072-1.44H25.7q-.042.723-.063,1.48s-.024.05-.072.138l-.066.125q-.164.316-.888,1.8l-1.44,2.927Q22.575-1.276,22.016,0q-.775-.007-1.15-.007Zm7.57,0q.02-.25.02-.4l.039-.96q.822-.736,1.5-1.422t1.391-1.472q.71-.785,1.072-1.265a4.379,4.379,0,0,0,.395-.582,1.587,1.587,0,0,0,.132-.328,1.145,1.145,0,0,0,.033-.273.815.815,0,0,0-.217-.588,1.451,1.451,0,0,0-.6-.355,2.737,2.737,0,0,0-.878-.128,6.779,6.779,0,0,0-1,.081q-.539.081-1.388.294l.125-.664q.039-.237.118-.8a16.326,16.326,0,0,1,2.92-.276,6.094,6.094,0,0,1,1.23.122,3.144,3.144,0,0,1,1.056.414,1.922,1.922,0,0,1,.677.677,1.636,1.636,0,0,1,.214.806,2.526,2.526,0,0,1-.049.5,2.085,2.085,0,0,1-.141.45,5.471,5.471,0,0,1-.451.822,12.675,12.675,0,0,1-.855,1.1q-.582.691-1.269,1.414T29.712-1.309h.6l1.467-.007q.73,0,1.072-.016t.822-.062q-.013.2-.043.529T33.56,0q-1.493-.013-3.1-.013Q28.483-.013,27.161,0Z" transform="translate(-3092.662 -1330.379)" fill="#fff"/>
    <path id="Trazado_728990" data-name="Trazado 728990" d="M.546-.191q-.053-1-.138-1.631a5.736,5.736,0,0,0,2.341.585,2.354,2.354,0,0,0,.786-.128,1.107,1.107,0,0,0,.539-.362.853.853,0,0,0,.174-.523.928.928,0,0,0-.084-.4,1.851,1.851,0,0,0-.419-.506Q3.37-3.518,2.4-4.347q-.46-.4-.635-.572a4.706,4.706,0,0,1-.605-.674,2.151,2.151,0,0,1-.3-.6A2.114,2.114,0,0,1,.769-6.82a2.124,2.124,0,0,1,.345-1.161,2.278,2.278,0,0,1,1.033-.848A4.275,4.275,0,0,1,3.88-9.135,11.146,11.146,0,0,1,6-8.9q.033.684.132,1.565a5.291,5.291,0,0,0-1.89-.395,1.771,1.771,0,0,0-1.053.293.834.834,0,0,0-.41.681.913.913,0,0,0,.029.22.992.992,0,0,0,.086.224,1.746,1.746,0,0,0,.2.283,3.413,3.413,0,0,0,.429.408q.282.233.483.378l.811.737q.308.256.551.5a5.1,5.1,0,0,1,.417.467,2.423,2.423,0,0,1,.272.427,1.978,1.978,0,0,1,.148.418,2,2,0,0,1,.049.45A2.216,2.216,0,0,1,6-1.207,2.143,2.143,0,0,1,5.261-.4,3.054,3.054,0,0,1,4.209.036,5.808,5.808,0,0,1,3,.158a7.755,7.755,0,0,1-.98-.072Q1.46.013.546-.191ZM7.695,0l.118-1.559.165-3.453.079-2.506q.007-.342.007-.691,0-.256-.007-.769.842.013,1.368.013.421,0,1.171-.02T11.785-9a4.928,4.928,0,0,1,1.335.132,2.142,2.142,0,0,1,.8.454,2.018,2.018,0,0,1,.52.743,2.757,2.757,0,0,1,.2,1.046,2.9,2.9,0,0,1-.424,1.542,2.617,2.617,0,0,1-1.174,1.036,3.963,3.963,0,0,1-1.664.342,5.343,5.343,0,0,1-.954-.092q-.145-.684-.329-1.282A3.914,3.914,0,0,0,10.9-5a2.477,2.477,0,0,0,.945-.164,1.343,1.343,0,0,0,.636-.536,1.53,1.53,0,0,0,.236-.839,1.275,1.275,0,0,0-.1-.506.874.874,0,0,0-.285-.368,1.072,1.072,0,0,0-.413-.187,3.226,3.226,0,0,0-.646-.049q-.367,0-.741.013t-.663.013q-.078,1.289-.118,2.466L9.669-2.644Q9.63-1.309,9.63-.684q0,.237.007.684L8.682-.013Q8.5-.013,7.695,0Zm7.122-2.815q.059-.638.072-1.328.954.026,1.7.026t1.7-.026q-.053.559-.072,1.328-.954-.033-1.71-.033Q15.771-2.848,14.817-2.815ZM19.592,0l1.524-2.966L23.048-6.8l.388-.809q-.591-.007-.966-.007-1.649,0-3.167.079.053-.677.072-1.44H25.7q-.042.723-.063,1.48s-.024.05-.072.138l-.066.125q-.164.316-.888,1.8l-1.44,2.927Q22.575-1.276,22.016,0q-.775-.007-1.15-.007Zm7.754-.184q-.053-.894-.132-1.546a7.486,7.486,0,0,0,2.528.493A2.853,2.853,0,0,0,30.79-1.42a1.72,1.72,0,0,0,.742-.528,1.267,1.267,0,0,0,.273-.81,1.114,1.114,0,0,0-.226-.692,1.353,1.353,0,0,0-.709-.446,4.346,4.346,0,0,0-1.244-.148,8.857,8.857,0,0,0-1,.059q.066-.76.105-1.44a4.56,4.56,0,0,0,.763.066,5.257,5.257,0,0,0,1.1-.112,1.4,1.4,0,0,0,.812-.457,1.148,1.148,0,0,0,.289-.753A1.043,1.043,0,0,0,31.643-7a1.059,1.059,0,0,0-.138-.283.954.954,0,0,0-.224-.227,1.264,1.264,0,0,0-.3-.161,2.133,2.133,0,0,0-.447-.1,4.384,4.384,0,0,0-.605-.039,7.5,7.5,0,0,0-.9.056q-.464.056-1.181.214l.125-.546.158-.862q.756-.105,1.276-.145t1.125-.039a7.85,7.85,0,0,1,1.338.112,3.192,3.192,0,0,1,1.108.388,1.736,1.736,0,0,1,.681.717,2.134,2.134,0,0,1,.22.968,2.359,2.359,0,0,1-.1.675,2.177,2.177,0,0,1-.293.615,2.026,2.026,0,0,1-.434.467,2.76,2.76,0,0,1-.47.3,6.334,6.334,0,0,1-.671.263,4.166,4.166,0,0,1,.723.161,1.891,1.891,0,0,1,.493.269,1.885,1.885,0,0,1,.414.421,1.728,1.728,0,0,1,.256.552,2.465,2.465,0,0,1,.085.654A2.443,2.443,0,0,1,33.6-1.41a2.457,2.457,0,0,1-.848.91A3.669,3.669,0,0,1,31.482.01,7.244,7.244,0,0,1,30,.158,9.863,9.863,0,0,1,28.832.085Q28.227.013,27.346-.184Z" transform="translate(-2933.486 -1330.379)" fill="#fff"/>
    <path id="Trazado_728991" data-name="Trazado 728991" d="M.546-.191q-.053-1-.138-1.631a5.736,5.736,0,0,0,2.341.585,2.354,2.354,0,0,0,.786-.128,1.107,1.107,0,0,0,.539-.362.853.853,0,0,0,.174-.523.928.928,0,0,0-.084-.4,1.851,1.851,0,0,0-.419-.506Q3.37-3.518,2.4-4.347q-.46-.4-.635-.572a4.706,4.706,0,0,1-.605-.674,2.151,2.151,0,0,1-.3-.6A2.114,2.114,0,0,1,.769-6.82a2.124,2.124,0,0,1,.345-1.161,2.278,2.278,0,0,1,1.033-.848A4.275,4.275,0,0,1,3.88-9.135,11.146,11.146,0,0,1,6-8.9q.033.684.132,1.565a5.291,5.291,0,0,0-1.89-.395,1.771,1.771,0,0,0-1.053.293.834.834,0,0,0-.41.681.913.913,0,0,0,.029.22.992.992,0,0,0,.086.224,1.746,1.746,0,0,0,.2.283,3.413,3.413,0,0,0,.429.408q.282.233.483.378l.811.737q.308.256.551.5a5.1,5.1,0,0,1,.417.467,2.423,2.423,0,0,1,.272.427,1.978,1.978,0,0,1,.148.418,2,2,0,0,1,.049.45A2.216,2.216,0,0,1,6-1.207,2.143,2.143,0,0,1,5.261-.4,3.054,3.054,0,0,1,4.209.036,5.808,5.808,0,0,1,3,.158a7.755,7.755,0,0,1-.98-.072Q1.46.013.546-.191ZM7.695,0l.118-1.559.165-3.453.079-2.506q.007-.342.007-.691,0-.256-.007-.769.842.013,1.368.013.421,0,1.171-.02T11.785-9a4.928,4.928,0,0,1,1.335.132,2.142,2.142,0,0,1,.8.454,2.018,2.018,0,0,1,.52.743,2.757,2.757,0,0,1,.2,1.046,2.9,2.9,0,0,1-.424,1.542,2.617,2.617,0,0,1-1.174,1.036,3.963,3.963,0,0,1-1.664.342,5.343,5.343,0,0,1-.954-.092q-.145-.684-.329-1.282A3.914,3.914,0,0,0,10.9-5a2.477,2.477,0,0,0,.945-.164,1.343,1.343,0,0,0,.636-.536,1.53,1.53,0,0,0,.236-.839,1.275,1.275,0,0,0-.1-.506.874.874,0,0,0-.285-.368,1.072,1.072,0,0,0-.413-.187,3.226,3.226,0,0,0-.646-.049q-.367,0-.741.013t-.663.013q-.078,1.289-.118,2.466L9.669-2.644Q9.63-1.309,9.63-.684q0,.237.007.684L8.682-.013Q8.5-.013,7.695,0Zm7.122-2.815q.059-.638.072-1.328.954.026,1.7.026t1.7-.026q-.053.559-.072,1.328-.954-.033-1.71-.033Q15.771-2.848,14.817-2.815ZM19.592,0l1.524-2.966L23.048-6.8l.388-.809q-.591-.007-.966-.007-1.649,0-3.167.079.053-.677.072-1.44H25.7q-.042.723-.063,1.48s-.024.05-.072.138l-.066.125q-.164.316-.888,1.8l-1.44,2.927Q22.575-1.276,22.016,0q-.775-.007-1.15-.007ZM30.686,0q.125-1.322.17-2.71H29.529l-2.42.039q.013-.086.043-.736t.03-.888l.493-.624q.184-.243.572-.768l1.421-1.944q.2-.282.4-.578t.51-.768q.8.013,1.309.013t1.151-.013q-.2,2.8-.244,4.886.316.007.75.007.513,0,.691-.007-.02.511-.02,1.178v.223q-.4-.02-1.474-.02-.02.3-.03.551t-.02.879q-.01.63-.01.905V0q-.506-.013-.966-.013Q31.291-.013,30.686,0Zm.42-4.025q.02-.381.02-.44l.125-3.183q-1,1.45-1.316,1.87L28.657-4.025Z" transform="translate(-2776.21 -1330.379)" fill="#fff"/>
    <g id="Grupo_1010066" data-name="Grupo 1010066" transform="translate(-902 7)">
      <text id="Tunel" transform="translate(-2404 -1372)" fill="#12263f" font-size="13" font-family="Roboto-Medium, Roboto" font-weight="500"><tspan x="-16.114" y="12">Tunel</tspan></text>
      <text id="Superficie_deslizante" data-name="Superficie deslizante" transform="translate(-2089 -1372)" fill="#12263f" font-size="13" font-family="Roboto-Medium, Roboto" font-weight="500"><tspan x="-60.801" y="12">Superficie deslizante</tspan></text>
      <text id="Zona_de_derrumbees" data-name="Zona de derrumbees" transform="translate(-2242 -1372)" fill="#12263f" font-size="13" font-family="Roboto-Medium, Roboto" font-weight="500"><tspan x="-60.058" y="12">Zona de derrumbees</tspan></text>
      <text id="Riesgo_de_accidente" data-name="Riesgo de accidente" transform="translate(-1927 -1372)" fill="#12263f" font-size="13" font-family="Roboto-Medium, Roboto" font-weight="500"><tspan x="-58.741" y="12">Riesgo de accidente</tspan></text>
    </g>
    <g id="Grupo_1010067" data-name="Grupo 1010067" transform="translate(-902)">
      <text id="Proyección_de_gravilla" data-name="Proyección de
gravilla" transform="translate(-2404 -1185)" fill="#12263f" font-size="13" font-family="Roboto-Medium, Roboto" font-weight="500"><tspan x="-41.146" y="12">Proyección de</tspan><tspan x="-21.055" y="27">gravilla</tspan></text>
      <text id="Ráfagas_de_viento_lateral" data-name="Ráfagas de viento lateral" transform="translate(-2089 -1185)" fill="#12263f" font-size="13" font-family="Roboto-Medium, Roboto" font-weight="500"><tspan x="-52.089" y="12">Ráfagas de viento </tspan><tspan x="-18.192" y="27">lateral</tspan></text>
      <text id="Salida_de_vehículos_de_bomberos" data-name="Salida de vehículos
de bomberos" transform="translate(-2242 -1185)" fill="#12263f" font-size="13" font-family="Roboto-Medium, Roboto" font-weight="500"><tspan x="-56.047" y="12">Salida de vehículos</tspan><tspan x="-38.165" y="27">de bomberos</tspan></text>
      <text id="Desnivel_severo" data-name="Desnivel severo" transform="translate(-1927 -1185)" fill="#12263f" font-size="13" font-family="Roboto-Medium, Roboto" font-weight="500"><tspan x="-45.64" y="12">Desnivel severo</tspan></text>
    </g>
  </g>
</svg>
