<svg xmlns="http://www.w3.org/2000/svg" xmlns:xlink="http://www.w3.org/1999/xlink" width="129.081" height="116.167" viewBox="0 0 129.081 116.167">
  <defs>
    <clipPath id="clip-path">
      <rect id="Rectángulo_348196" data-name="Rectángulo 348196" width="129.081" height="116.167" fill="none"/>
    </clipPath>
  </defs>
  <g id="Grupo_1009293" data-name="Grupo 1009293" transform="translate(0)">
    <g id="Grupo_1009292" data-name="Grupo 1009292" transform="translate(0)" clip-path="url(#clip-path)">
      <path id="Trazado_718528" data-name="Trazado 718528" d="M56.732,7.473l-52.8,92.42a9.723,9.723,0,0,0,8.285,14.6H117.809a9.723,9.723,0,0,0,8.285-14.6L73.3,7.473a9.5,9.5,0,0,0-16.564,0Z" transform="translate(-0.474 -0.475)" fill="#f0c419"/>
      <path id="Trazado_718529" data-name="Trazado 718529" d="M127.484,98.355,74.693,5.939a11.649,11.649,0,0,0-20.307,0L1.6,98.355A11.868,11.868,0,0,0,11.75,116.167H117.331a11.868,11.868,0,0,0,10.154-17.812m-10.154,13.509H11.75a7.568,7.568,0,0,1-6.41-11.38L58.129,8.069a7.34,7.34,0,0,1,12.821,0l52.791,92.416a7.568,7.568,0,0,1-6.411,11.38" transform="translate(0)"/>
      <path id="Trazado_718530" data-name="Trazado 718530" d="M50.1,94.6c1.183.507,2.675,1.139,4.373,1.855a4.771,4.771,0,0,1,.341-1.969l.16-.4a2.053,2.053,0,0,0-.07-1.663,19.565,19.565,0,0,1-.894-2.145L51.33,89.162C50,88.6,48.693,87.048,47.7,86.129c-1.361-1.261-1.536-2.336-3.211-2.234a2.086,2.086,0,0,0-1.442.635,1.874,1.874,0,0,0-.374.588c-.512,1.344,1.008,2.789.406,3.574a1.8,1.8,0,0,1-.165.156c-1.417,1.266-2.287,1.222-2.69,2.106a2.014,2.014,0,0,0-.16.691,3.766,3.766,0,0,0,.5,2.06c.439.775,3.19.279,6.072.389a9.647,9.647,0,0,1,3.465.51" transform="translate(-7.241 -15.164)"/>
      <path id="Trazado_718531" data-name="Trazado 718531" d="M63.062,109.446c0-.364-.026-1.37-.074-2.235l-.007-.125q-.033-.629-.084-1.082l-7.054,2.956c-1.335.56-3.625.206-4.108.2-2.653-.049-2.728-.537-3.829.728a1.981,1.981,0,0,0-.4,2.151c.481,1.089,2.423,1.055,2.649,2.18.132.652-.639,2.55-.2,3.656a2.815,2.815,0,0,0,2.871.937c2.131-.963,2.54-4.059,5.241-4.877,0,0,2.268-.939,5.719-2.371a3.284,3.284,0,0,1-.728-2.115" transform="translate(-8.559 -19.161)"/>
      <path id="Trazado_718532" data-name="Trazado 718532" d="M114.448,91.644a2.028,2.028,0,0,0-.159-.691c-.4-.885-1.274-.841-2.691-2.106a1.8,1.8,0,0,1-.165-.156c-.6-.786.918-2.231.406-3.574a1.872,1.872,0,0,0-.374-.589,2.086,2.086,0,0,0-1.442-.635c-1.675-.1-1.85.974-3.211,2.234-.993.92-2.295,2.475-3.629,3.034l-1.239.519a19.446,19.446,0,0,1-1.093,2.749,2.047,2.047,0,0,0-.069,1.662l.165.41a4.784,4.784,0,0,1,.331,1.435c1.19-.5,2.251-.954,3.138-1.334a9.649,9.649,0,0,1,3.465-.51c2.883-.111,5.633.385,6.073-.389a3.771,3.771,0,0,0,.495-2.06" transform="translate(-18.191 -15.163)"/>
      <path id="Trazado_718533" data-name="Trazado 718533" d="M102.389,109.275c-.483.009-2.772.363-4.108-.2l-5.767-2.417c0,.106-.007.2-.01.271-.006.141-.01.271-.016.385-.042.84-.065,1.8-.065,2.14v.107a3.288,3.288,0,0,1-1.217,2.477l4.848,2.01c2.7.818,3.11,3.913,5.241,4.876a2.815,2.815,0,0,0,2.871-.937c.44-1.106-.331-3-.2-3.656.227-1.125,2.169-1.091,2.65-2.18a1.983,1.983,0,0,0-.4-2.151c-1.1-1.265-1.176-.777-3.829-.728" transform="translate(-16.486 -19.28)"/>
      <path id="Trazado_718534" data-name="Trazado 718534" d="M91.434,90.836a3.8,3.8,0,0,1,.121-3.084,17.718,17.718,0,1,0-31.854,0,3.8,3.8,0,0,1,.12,3.084l-.159.4a3.046,3.046,0,0,0,1.525,3.89l4.514.638c.814.408.892,2.5.945,3.449.05.922.076,1.947.076,2.331,0,.674.25,1.418,2.328,2.275l.111-1.888c.033-.183.809-.171.832.012l.015,2.223a10.627,10.627,0,0,0,2.239.51l.1-1.828c.042-.178.685-.176.714.007l.039,1.926a18.514,18.514,0,0,0,2.282.121l.07-1.829c.087-.186.689-.179.729.017l.093,1.8a15.382,15.382,0,0,0,2.26-.161l.087-1.949c.032-.156.6-.174.628-.028L79.4,104.6A10.882,10.882,0,0,0,81.7,104l-.014-1.938c.01-.292.61-.306.627-.135l.212,1.729c1.62-.764,2.133-1.5,2.133-2.12v-.107c0-.357.023-1.335.067-2.227.048-.953.021-3.043.834-3.455l4.532-.623A3.046,3.046,0,0,0,91.6,91.245ZM71.57,89.167a4.837,4.837,0,0,1-3.542,1.518c-2.137-.149-4.421-2.194-4.165-4.554.228-2.094,2.477-3.145,4.117-3.519,2.218-.506,4.993,1.055,5.284,3.08.238,1.652-1.249,3.055-1.693,3.474m6.389,6.713-.013.016a1.925,1.925,0,0,1-2.051.473l-.267-.094-.267.094A1.927,1.927,0,0,1,73.31,95.9L73.3,95.88a1.147,1.147,0,0,1-.156-1.33l1.828-3.334a1.158,1.158,0,0,1,.648-.522h.022a1.155,1.155,0,0,1,.648.522l1.829,3.334a1.146,1.146,0,0,1-.156,1.33m5.269-5.195a4.839,4.839,0,0,1-3.542-1.518c-.445-.419-1.931-1.822-1.693-3.474.292-2.025,3.066-3.587,5.284-3.08,1.64.374,3.889,1.425,4.117,3.519.257,2.36-2.028,4.405-4.165,4.554" transform="translate(-10.468 -11.255)"/>
    </g>
  </g>
</svg>
