<svg xmlns="http://www.w3.org/2000/svg" xmlns:xlink="http://www.w3.org/1999/xlink" width="129.081" height="116.167" viewBox="0 0 129.081 116.167">
  <defs>
    <clipPath id="clip-path">
      <rect id="Rectángulo_348199" data-name="Rectángulo 348199" width="129.081" height="116.167" fill="none"/>
    </clipPath>
  </defs>
  <g id="Grupo_1009295" data-name="Grupo 1009295" transform="translate(0)">
    <g id="Grupo_1009294" data-name="Grupo 1009294" transform="translate(0)" clip-path="url(#clip-path)">
      <path id="Trazado_718535" data-name="Trazado 718535" d="M56.732,7.473l-52.8,92.42a9.723,9.723,0,0,0,8.285,14.6H117.809a9.723,9.723,0,0,0,8.285-14.6L73.3,7.473a9.5,9.5,0,0,0-16.564,0Z" transform="translate(-0.474 -0.475)" fill="#f0c419"/>
      <path id="Trazado_718536" data-name="Trazado 718536" d="M127.484,98.355,74.693,5.939a11.649,11.649,0,0,0-20.307,0L1.6,98.355A11.868,11.868,0,0,0,11.75,116.167H117.331a11.868,11.868,0,0,0,10.154-17.812m-10.154,13.509H11.75a7.568,7.568,0,0,1-6.41-11.38L58.129,8.069a7.34,7.34,0,0,1,12.821,0l52.791,92.416a7.568,7.568,0,0,1-6.411,11.38" transform="translate(0)"/>
      <path id="Trazado_718537" data-name="Trazado 718537" d="M98.132,80.6c.083,1.411-1.289,3.157-3.165,4.379-1.872,1.244-3.218.758-3.538.113-.342-.65.94-2.805.94-2.805,1.806-2.618,2.345-2.705,3.007-7.034.652-4.179-1.447-5.9-1.447-5.9.041,2.692-.882,3.56-3.311,6.36-2.416,2.77-4.079,3.306-4.886,2.911-.786-.429-.281-2.626.132-3.413a12.359,12.359,0,0,0,1.468-7.352,7.361,7.361,0,0,0-3.758-5.675c.578,2.685-.632,6.271-2.178,8.648s-2.667,1.856-3.012,1.237c-.323-.619.429-2.231.429-2.231a7.583,7.583,0,0,0,1.04-5.423c-.208-1.353-.87-2.791-2.708-4.97a17.672,17.672,0,0,1-4.476-7.854c-1.412-4.515,0-5.143,0-5.143s-1.629.2-2.84,4.329,1.833,10.2,2.261,11.686a3.961,3.961,0,0,1-.662,3,27.666,27.666,0,0,1-6.644-4.128,9.381,9.381,0,0,0-4.715-2.52C65.958,62.663,65.155,67.742,64,70.15a17.124,17.124,0,0,0-1.429,5.2,4.614,4.614,0,0,1-.832-.986,7.229,7.229,0,0,0-6.1-3.641c2.216,1.265,3.306,5.45,1.807,8.1A8.1,8.1,0,0,0,56.19,83.45c-1.883-3.165-9.733-5.76-7.7-4.433C50.537,80.371,53,88.986,54.883,94.78c1.912,5.825,15.118,5.959,14.717,5.825-5.177-1.73-5.515-5-6.348-6.668-.827-1.7-3.759-3.261-4.106-3.644s-.652-1.339.051-1.577c.7-.262,4.459.555,4.459.555a13.417,13.417,0,0,0-.28-4.656c-.407-1.272.171-1.086.171-1.086,2.12.064,3.007,2.323,3.351,2.919.367.557,1.058,2.991,1.7,3.506.654.533.249-1,.059-1.729a11.9,11.9,0,0,1-.931-4.494c-.053-2.792,1.525-4.632,2.7-4.632s1.239,3.081,1.651,4.517c.412,1.476,1.362,1.363,1.94.453.586-.93-.23-2.763-.767-4.343s-1.412-3.531-1.063-4.5-.11-2.232,3.241-.538,2.724,9.923,2.724,10.676-.485,1.921.453,1.611a7.207,7.207,0,0,1,2.812-.589c.7.177.03,2.849-.483,3.7-.493.816.483.732.483.732,2.395-.337,2.591-2.769,2.971-3.647.4-.869-1.75-3.859.922-1.042,2.66,2.852-.089,7.431-1.1,9.1s-5.406,5.031-5.406,5.031c9.247.05,15.332-6.555,17.832-10.651a13.847,13.847,0,0,0,1.5-9.01M75.31,71.7v.141c0-.141-3.969-3.474.464-8.617,0,0,3.758,5.737-.464,8.476" transform="translate(-8.705 -8.396)"/>
      <rect id="Rectángulo_348197" data-name="Rectángulo 348197" width="41.554" height="2.515" transform="translate(43.762 94.711)"/>
      <rect id="Rectángulo_348198" data-name="Rectángulo 348198" width="41.554" height="2.515" transform="translate(43.762 94.711)"/>
    </g>
  </g>
</svg>
