<svg xmlns="http://www.w3.org/2000/svg" xmlns:xlink="http://www.w3.org/1999/xlink" width="129.081" height="116.167" viewBox="0 0 129.081 116.167">
  <defs>
    <clipPath id="clip-path">
      <rect id="Rectángulo_348200" data-name="Rectángulo 348200" width="129.081" height="116.167" fill="none"/>
    </clipPath>
  </defs>
  <g id="Grupo_1009297" data-name="Grupo 1009297" transform="translate(0 0)">
    <g id="Grupo_1009296" data-name="Grupo 1009296" transform="translate(0 0)" clip-path="url(#clip-path)">
      <path id="Trazado_718538" data-name="Trazado 718538" d="M56.732,7.473l-52.8,92.42a9.723,9.723,0,0,0,8.285,14.6H117.809a9.723,9.723,0,0,0,8.285-14.6L73.3,7.473a9.5,9.5,0,0,0-16.564,0Z" transform="translate(-0.474 -0.475)" fill="#f0c419"/>
      <path id="Trazado_718539" data-name="Trazado 718539" d="M127.484,98.355,74.693,5.939a11.649,11.649,0,0,0-20.307,0L1.6,98.355A11.868,11.868,0,0,0,11.75,116.167H117.331a11.868,11.868,0,0,0,10.154-17.812m-10.154,13.509H11.75a7.568,7.568,0,0,1-6.41-11.38L58.129,8.069a7.34,7.34,0,0,1,12.821,0l52.791,92.416a7.568,7.568,0,0,1-6.411,11.38" transform="translate(0)"/>
      <path id="Trazado_718540" data-name="Trazado 718540" d="M67,86.469l1.485-.7c.427-4.25,2.394-4.2,2.394-4.2L71,79.794a13.436,13.436,0,0,1-10.222-6.323C54.386,60.246,66.405,54.95,66.405,54.95c-14.771,5.3-11.484,20.191-11.484,20.191C40.051,81.414,43.338,94.9,43.338,94.9,43.45,84.153,51.76,81.82,51.76,81.82A13.156,13.156,0,0,1,67,86.469" transform="translate(-7.778 -9.933)"/>
      <path id="Trazado_718541" data-name="Trazado 718541" d="M95.879,74.792s3.944-13.653-10.92-19.524c0,0,10.315,6.091,5.671,16.993a13.34,13.34,0,0,1-10.621,7.377l.107,2.1s2.682.165,2.535,3.83l1.736.882s2.789-5.576,10.674-5.789c0,0,11.845.295,13.069,13.467,0,0,2.519-13.064-12.25-19.334" transform="translate(-14.462 -9.99)"/>
      <path id="Trazado_718542" data-name="Trazado 718542" d="M78.267,107.98s-3.292-4.123-.884-12.2l-1.677-1.1s-1.688,1.993-4.7.239l-1.471.951s3.151,6.027-.143,11.3c0,0-6.4,12.252-19.026,4.932a16.715,16.715,0,0,0,14.181,4.037s6.607-1.4,9.1-4.425a16.756,16.756,0,0,0,11.683,4.478,23.086,23.086,0,0,0,11.233-4.09S85.4,118.1,78.267,107.98" transform="translate(-9.104 -17.114)"/>
      <path id="Trazado_718543" data-name="Trazado 718543" d="M69.041,76.494s8-4.468,15.059.16l1.985-3.687s-8.744-6.758-19.327.235Z" transform="translate(-12.067 -12.659)"/>
      <path id="Trazado_718544" data-name="Trazado 718544" d="M57.259,90.664s-.727,11.068,9.777,16.513l1.985-3.962S60.854,99.173,61.6,90.664Z" transform="translate(-10.348 -16.389)"/>
      <path id="Trazado_718545" data-name="Trazado 718545" d="M86.045,103.217l1.842,3.065s9.4-1.833,9.547-16.07L93.1,90.5s1.021,7.405-7.053,12.714" transform="translate(-15.553 -16.307)"/>
    </g>
  </g>
</svg>
