<svg xmlns="http://www.w3.org/2000/svg" xmlns:xlink="http://www.w3.org/1999/xlink" width="132.444" height="131.832" viewBox="0 0 132.444 131.832">
  <defs>
    <linearGradient id="linear-gradient" x1="21.082" y1="8.165" x2="23.176" y2="8.165" gradientUnits="objectBoundingBox">
      <stop offset="0" stop-color="#2c76b6"/>
      <stop offset="1" stop-color="#008b8a"/>
    </linearGradient>
    <linearGradient id="linear-gradient-2" x1="-147.511" y1="-26.243" x2="-144.726" y2="-26.243" gradientUnits="objectBoundingBox">
      <stop offset="0" stop-color="#008b8a"/>
      <stop offset="1" stop-color="#2c76b6"/>
    </linearGradient>
    <linearGradient id="linear-gradient-3" x1="0.255" y1="0.183" x2="1.032" y2="1.188" gradientUnits="objectBoundingBox">
      <stop offset="0" stop-color="#53d8ff"/>
      <stop offset="1" stop-color="#3840f7"/>
    </linearGradient>
    <linearGradient id="linear-gradient-4" x1="-0.404" y1="-0.588" x2="1.174" y2="1.079" xlink:href="#linear-gradient-3"/>
    <linearGradient id="linear-gradient-5" x1="1.473" y1="-2.835" x2="-0.485" y2="3.392" xlink:href="#linear-gradient-3"/>
    <linearGradient id="linear-gradient-6" x1="-0.281" y1="1.359" x2="1.473" y2="-0.461" xlink:href="#linear-gradient-3"/>
    <linearGradient id="linear-gradient-7" x1="0.142" y1="1.149" x2="0.775" y2="0.008" gradientUnits="objectBoundingBox">
      <stop offset="0" stop-color="#008b8a"/>
      <stop offset="1" stop-color="#3e7cb9"/>
    </linearGradient>
    <linearGradient id="linear-gradient-8" x1="-0.077" y1="1.258" x2="1.063" y2="-0.259" xlink:href="#linear-gradient"/>
    <linearGradient id="linear-gradient-9" x1="1.519" y1="-0.775" x2="-1.485" y2="2.906" gradientUnits="objectBoundingBox">
      <stop offset="0" stop-color="#2c76b6"/>
      <stop offset="1" stop-color="#0f3a7b"/>
    </linearGradient>
    <linearGradient id="linear-gradient-10" x1="1.004" y1="-2.464" x2="-0.074" y2="4.126" xlink:href="#linear-gradient-9"/>
    <linearGradient id="linear-gradient-11" x1="0.5" y1="-4.989" x2="0.5" y2="3.866" xlink:href="#linear-gradient-7"/>
    <linearGradient id="linear-gradient-12" x1="0" y1="0.5" x2="1" y2="0.5" xlink:href="#linear-gradient"/>
    <linearGradient id="linear-gradient-13" x1="-147.792" y1="0.5" x2="-148.792" y2="0.5" gradientUnits="objectBoundingBox">
      <stop offset="0" stop-color="#f9b776"/>
      <stop offset="1" stop-color="#f47960"/>
    </linearGradient>
    <linearGradient id="linear-gradient-14" x1="121.293" y1="-3.046" x2="121.313" y2="1.639" gradientUnits="objectBoundingBox">
      <stop offset="0" stop-color="#cb236d"/>
      <stop offset="1" stop-color="#4c246d"/>
    </linearGradient>
    <linearGradient id="linear-gradient-15" x1="479.84" y1="0.499" x2="480.84" y2="0.499" xlink:href="#linear-gradient-13"/>
    <linearGradient id="linear-gradient-16" x1="145.631" y1="1.255" x2="145.838" y2="0.048" gradientUnits="objectBoundingBox">
      <stop offset="0" stop-color="#2b3582"/>
      <stop offset="1" stop-color="#150e42"/>
    </linearGradient>
    <linearGradient id="linear-gradient-17" x1="299.186" y1="-3.752" x2="299.237" y2="1.733" xlink:href="#linear-gradient-14"/>
    <linearGradient id="linear-gradient-18" x1="555.41" y1="0.5" x2="556.41" y2="0.5" xlink:href="#linear-gradient-13"/>
    <linearGradient id="linear-gradient-19" x1="102.539" y1="1.244" x2="102.684" y2="0.059" xlink:href="#linear-gradient-16"/>
    <linearGradient id="linear-gradient-20" x1="-76.071" y1="0.326" x2="-77.321" y2="0.962" gradientUnits="objectBoundingBox">
      <stop offset="0" stop-color="#fdf53f"/>
      <stop offset="1" stop-color="#d93c65"/>
    </linearGradient>
    <linearGradient id="linear-gradient-21" x1="-139.451" y1="0.724" x2="-141.756" y2="2.271" xlink:href="#linear-gradient-20"/>
    <linearGradient id="linear-gradient-22" x1="72.138" y1="0.499" x2="73.138" y2="0.499" xlink:href="#linear-gradient-13"/>
    <linearGradient id="linear-gradient-23" x1="-79.686" y1="-0.363" x2="-80.095" y2="0.754" xlink:href="#linear-gradient-16"/>
    <linearGradient id="linear-gradient-24" x1="364.093" y1="-3.488" x2="363.519" y2="1.806" xlink:href="#linear-gradient-16"/>
    <linearGradient id="linear-gradient-25" x1="191.016" y1="-1.238" x2="190.873" y2="1.15" xlink:href="#linear-gradient-16"/>
    <linearGradient id="linear-gradient-26" x1="238.323" y1="0.5" x2="239.323" y2="0.5" xlink:href="#linear-gradient-13"/>
    <linearGradient id="linear-gradient-27" x1="-534.044" y1="-179.27" x2="-532.912" y2="-179.27" xlink:href="#linear-gradient-13"/>
    <linearGradient id="linear-gradient-28" x1="187.722" y1="0.501" x2="188.722" y2="0.501" xlink:href="#linear-gradient-13"/>
    <linearGradient id="linear-gradient-29" x1="-730.785" y1="-236.24" x2="-731.107" y2="-237.306" xlink:href="#linear-gradient-13"/>
    <linearGradient id="linear-gradient-30" x1="-557.835" y1="-181.95" x2="-557.63" y2="-180.77" xlink:href="#linear-gradient-16"/>
    <linearGradient id="linear-gradient-31" x1="-2384.366" y1="-1145.238" x2="-2385.312" y2="-1149.876" xlink:href="#linear-gradient-13"/>
    <linearGradient id="linear-gradient-32" x1="0.505" y1="-0.013" x2="0.498" y2="0.949" gradientUnits="objectBoundingBox">
      <stop offset="0" stop-color="#41a362"/>
      <stop offset="1" stop-color="#204f2e"/>
    </linearGradient>
    <linearGradient id="linear-gradient-33" x1="1.313" y1="1.056" x2="1.901" y2="0.322" xlink:href="#linear-gradient-32"/>
    <linearGradient id="linear-gradient-34" x1="1.694" y1="-0.185" x2="1.658" y2="1.563" xlink:href="#linear-gradient-32"/>
    <linearGradient id="linear-gradient-35" x1="1.733" y1="5.465" x2="1.911" y2="-1.277" xlink:href="#linear-gradient-32"/>
    <linearGradient id="linear-gradient-36" x1="0.964" y1="1.399" x2="1.964" y2="1.399" xlink:href="#linear-gradient-32"/>
    <linearGradient id="linear-gradient-37" x1="2.062" y1="-0.478" x2="0.342" y2="0.6" xlink:href="#linear-gradient-32"/>
    <linearGradient id="linear-gradient-38" x1="10.085" y1="-0.419" x2="7.931" y2="0.659" xlink:href="#linear-gradient-32"/>
    <linearGradient id="linear-gradient-39" x1="90.714" y1="-0.478" x2="88.994" y2="0.6" xlink:href="#linear-gradient-32"/>
    <linearGradient id="linear-gradient-40" x1="125.569" y1="-0.515" x2="123.416" y2="0.562" xlink:href="#linear-gradient-32"/>
    <linearGradient id="linear-gradient-41" x1="6.78" y1="-0.483" x2="-0.146" y2="0.601" xlink:href="#linear-gradient-32"/>
  </defs>
  <g id="t1" style="isolation: isolate">
    <g id="Capa_2" data-name="Capa 2" transform="translate(0 0)">
      <g id="Capa_2-2" data-name="Capa 2">
        <g id="Grupo_1009848" data-name="Grupo 1009848">
          <path id="Trazado_727850" data-name="Trazado 727850" d="M125.76,88.1c-12.714,29.51-46.594,46.048-75.971,41.584C45.006,128.961,31.9,126.8,20.3,116.6c-22.335-19.631-27.11-58.5-9.091-85.9C24.322,10.759,47.833-.544,70.168.024,74.983.149,93.422.9,109.626,14.062a60.161,60.161,0,0,1,12.363,13.82c11.109,17.123,12.067,40.977,3.778,60.211Z" transform="translate(-0.039 -0.004)" fill="#f4f7fa" opacity="0.25"/>
          <g id="Grupo_1009829" data-name="Grupo 1009829" transform="translate(14.011 0.081)">
            <path id="Trazado_727851" data-name="Trazado 727851" d="M19.04.966A.712.712,0,0,1,20.217.3C25.389,5.01,37.854,19.18,35.158,44.288c-3.373,31.5,3.342,42.885,11.6,49.772A35.173,35.173,0,0,1,28.3,79.391C10.58,51.05,21.65,12.94,19.04.966Z" transform="translate(-17.984 -0.108)" fill="url(#linear-gradient)"/>
            <path id="Trazado_727852" data-name="Trazado 727852" d="M24.5,13.69c.686,3.49,1.309,7,1.8,10.517q.76,5.282,1.2,10.587c.28,3.537.491,7.089.553,10.634.078,3.545,0,7.1-.086,10.657-.07,3.56-.156,7.144.117,10.751a36.122,36.122,0,0,0,2.329,10.61c.335.841.693,1.683,1.091,2.5.382.818.81,1.62,1.239,2.415a38.1,38.1,0,0,0,2.96,4.565,38.873,38.873,0,0,0,7.728,7.611.689.689,0,0,0,.841-1.091h0c-.693-.545-1.371-1.1-2.025-1.675-.335-.288-.654-.584-.974-.88s-.639-.6-.943-.911a35.9,35.9,0,0,1-3.42-3.957,39.687,39.687,0,0,1-5.079-9.13A34.112,34.112,0,0,1,30.319,71.9a39.742,39.742,0,0,1-.771-5.181c-.3-3.5-.234-7.05-.195-10.61s.055-7.144-.078-10.712c-.062-1.784-.156-3.576-.28-5.352-.055-.888-.132-1.784-.2-2.672-.086-.888-.171-1.776-.265-2.664q-.573-5.329-1.472-10.61c-.615-3.513-1.332-7.011-2.173-10.478a.178.178,0,0,0-.226-.132.192.192,0,0,0-.14.218Z" transform="translate(-19.424 -3.062)" fill="#fff" style="mix-blend-mode: soft-light;isolation: isolate"/>
          </g>
          <g id="Grupo_1009830" data-name="Grupo 1009830" transform="translate(0 8.585)">
            <path id="Trazado_727853" data-name="Trazado 727853" d="M24.111,100.243a1.976,1.976,0,0,1-3.186.795A60.333,60.333,0,0,1,1.511,52.987C2.641,30.411,1.106,18.063.023,12.509A1.241,1.241,0,0,1,2.08,11.356c9.738,8.928,39.138,40.93,22.023,88.887Z" transform="translate(0.001 -11.024)" fill="url(#linear-gradient-2)"/>
            <path id="Trazado_727854" data-name="Trazado 727854" d="M24.54,107.337a.5.5,0,0,1-.093.047.547.547,0,0,1-.717-.3c-.132-.319-13.306-32.026-13.15-63.483a.549.549,0,0,1,1.1.008c-.148,31.231,12.932,62.743,13.064,63.054a.55.55,0,0,1-.2.67Z" transform="translate(-2.337 -18.103)" fill="#fff" style="mix-blend-mode: soft-light;isolation: isolate"/>
          </g>
          <g id="Grupo_1009832" data-name="Grupo 1009832" transform="translate(4.708 1.74)">
            <ellipse id="Elipse_8420" data-name="Elipse 8420" cx="56.386" cy="60.858" rx="56.386" ry="60.858" transform="translate(0 112.664) rotate(-87.49)" fill="url(#linear-gradient-3)"/>
            <path id="Trazado_727855" data-name="Trazado 727855" d="M26.767,28.1a11.931,11.931,0,0,0-2.173,7.081c.226,2.914,1.7,5.648,1.776,8.577.125,4.962-3.7,9.115-4.892,13.929-1.332,5.383,3.7,11.514,5.7,14.521s1.145-2.438,2.36-4.557,3.841,8.928,7.931,11.358c2.2,1.3,4.775,2.166,6.357,4.176,2.306,2.929,1.667,7.089,1.317,10.8s.171,8.227,3.513,9.878c1.963.974,4.464.639,6.24,1.932,3.116,2.267,1.628,7.2,2.867,10.844,1.34,3.965,4,4.02,8.125,4.861s-.522-8.211,1.41-11.374c1.013-1.659,2.563-2.984,3.365-4.76,1.106-2.462.795-5.757,2.953-7.385,1.613-1.223,3.856-.9,5.882-.911s4.487-.9,4.721-2.906c.2-1.784-1.581-3.21-3.334-3.622s-3.615-.218-5.329-.748c-4.916-1.511-7.206-8.382-12.332-8.71-4.386-.273-8.055,4.643-12.363,3.786-2.4-.483-4.043-2.61-5.827-4.285-2.29-2.158-5.134-3.778-6.949-6.341s-2.127-6.668.46-8.46c1.924-1.332,4.651-.787,6.552.576s3.194,3.389,4.588,5.258a3.513,3.513,0,0,0,1.6,1.394c1.854.576,3.21-2.025,2.766-3.919S52.28,65.539,52.218,63.6c-.109-3.42,3.576-5.593,6.809-6.723s7.042-2.47,7.993-5.757c.335-1.161.249-2.438.763-3.537,1.7-3.63,10.657-5.445,8.515-7.549s-8.935-2.563-10.26-6.8c-.475-1.519-.958-3.521-2.547-3.669-2.579-.241-4.051,2.953-6.217,3.5-1.028.257-1.122,2-1.083,4.152a2.821,2.821,0,0,1-5.64.109,4.5,4.5,0,0,1,.327-1.745,7.908,7.908,0,0,1,2-2.6c3.326-3.178,13.251-6.668,11.171-8.016S52,19.873,50.512,21.937s.974.319,1.574,2.758-7.377,2.111-11.07,3.171a2.676,2.676,0,0,1-1.854.07c-.639-.312-.9-1.052-1.254-1.667-1.854-3.311-8.016-1.161-8.016-1.161a10.019,10.019,0,0,0-3.108,3.023Z" transform="translate(-9.404 -6.455)" fill="url(#linear-gradient-4)"/>
            <path id="Trazado_727856" data-name="Trazado 727856" d="M64.068,9.693c-.9,1.667,1.768,1.644,2.033,3.521,2.4.265,3.381-3.521,5.757-3.965a3.525,3.525,0,0,1,3.365,1.862c.725,1.153,1.067,2.5,1.683,3.716a9.151,9.151,0,0,0,7.276,4.884,2.508,2.508,0,0,0,1.885-.428c1.449-1.278-.623-3.669-.086-5.516.615-2.111,3.661-1.792,5.726-2.571.569-.21,4.939-1.379,5.009-1.987.125-1.067-1.9-1.753-4.176-2.337-3.841-.989-10.61-.95-13.913-.647-4.4.4-11.724.078-14.56,3.459h0Z" transform="translate(-18.823 -3.076)" fill="url(#linear-gradient-5)"/>
            <path id="Trazado_727857" data-name="Trazado 727857" d="M151.487,87.426a55.552,55.552,0,0,0-.241-18.86c-.312-1.659-1.028-3.63-2.7-3.872-1.932-.273-4.292,1.94-5.5.413a2.575,2.575,0,0,1-.016-2.462,16.151,16.151,0,0,1,3.638-5.695,20.353,20.353,0,0,0,2.882-3.085c1.628-2.54.483-6.248-1.823-8.2s-5.274,1.542-7.7.156-2.5-4.744-2.953-7.494c-.335-2.041-1.839-7.564-3.5-4.877s2.212,13.4,6.575,18.533a3.268,3.268,0,0,1,1.059,2.127c-.109,1.94-2.929,1.854-4.83,2.244-2.353.491-5.952-.771-3.965,3.326,1.052,2.158,6.061,5.118,4.713,6.559s-5.484,5.632-7.424,9.021-2.882,7.6-1.418,11.226,5.866,6.115,9.457,4.6c1.683-.717,3.513-2.2,5.079-1.254,1.418.857,1.208,2.914,1.137,4.565s.88,3.848,2.493,3.459a2.638,2.638,0,0,0,1.3-.943c2.259-2.6,3.194-6.092,3.739-9.5Z" transform="translate(-32.897 -8.975)" fill="url(#linear-gradient-6)"/>
            <ellipse id="Elipse_8421" data-name="Elipse 8421" cx="47.754" cy="45.113" rx="47.754" ry="45.113" transform="translate(12.222 9.818)" fill="#fff" opacity="0.2"/>
            <g id="Grupo_1009831" data-name="Grupo 1009831" transform="translate(9.433 4.801)" opacity="0.68">
              <path id="Trazado_727858" data-name="Trazado 727858" d="M100.275,63.648a170.974,170.974,0,0,1-2.438,29.7c-.444,2.446-.95,4.884-1.566,7.3a69.325,69.325,0,0,1-2.189,7.144c-.436,1.169-.911,2.321-1.441,3.451a28.038,28.038,0,0,1-1.815,3.28,13.4,13.4,0,0,1-2.446,2.859,6.742,6.742,0,0,1-1.6,1.028,4.8,4.8,0,0,1-1.862.444,4.74,4.74,0,0,1-1.885-.351,6.684,6.684,0,0,1-1.636-.974,12.826,12.826,0,0,1-2.5-2.812,25.842,25.842,0,0,1-1.846-3.264c-.545-1.122-1.021-2.275-1.465-3.443a69.31,69.31,0,0,1-2.212-7.136c-.615-2.415-1.137-4.846-1.581-7.292-.888-4.892-1.5-9.839-1.9-14.794s-.608-9.933-.623-14.9c-.008-2.485.055-4.97.14-7.455s.226-4.97.405-7.447c.366-4.962.9-9.909,1.722-14.817.405-2.454.88-4.892,1.457-7.315a69.123,69.123,0,0,1,2.072-7.167c.413-1.176.873-2.337,1.387-3.467a25.288,25.288,0,0,1,1.784-3.287A12.339,12.339,0,0,1,80.683,10.1,6.315,6.315,0,0,1,82.3,9.124a4.578,4.578,0,0,1,1.854-.335,5,5,0,0,1,1.839.428,7.521,7.521,0,0,1,1.6,1A13.731,13.731,0,0,1,90.085,13a26.82,26.82,0,0,1,1.9,3.217q.841,1.671,1.527,3.4a67.269,67.269,0,0,1,2.345,7.081c.662,2.4,1.223,4.822,1.706,7.261a156.7,156.7,0,0,1,2.719,29.673Zm-.6,0c0-4.955-.187-9.917-.6-14.856a144.08,144.08,0,0,0-1.948-14.731c-.46-2.438-1-4.853-1.636-7.253a67.829,67.829,0,0,0-2.275-7.066c-.452-1.153-.943-2.29-1.488-3.4a25.794,25.794,0,0,0-1.854-3.21,13.732,13.732,0,0,0-2.431-2.766A6.988,6.988,0,0,0,85.9,9.389a4.606,4.606,0,0,0-1.761-.428,4.217,4.217,0,0,0-1.776.335,6.145,6.145,0,0,0-1.558.95,12.268,12.268,0,0,0-2.376,2.8A24.279,24.279,0,0,0,76.7,16.322c-.506,1.13-.95,2.283-1.348,3.459a71,71,0,0,0-1.994,7.151c-.545,2.415-1,4.853-1.387,7.3-.763,4.9-1.262,9.839-1.581,14.786s-.436,9.909-.428,14.864c-.008,4.955.156,9.917.53,14.856s.95,9.87,1.8,14.755c.428,2.438.927,4.869,1.527,7.268a68.425,68.425,0,0,0,2.15,7.1c.428,1.161.9,2.306,1.426,3.42a25.069,25.069,0,0,0,1.8,3.225,12.341,12.341,0,0,0,2.407,2.75,6.278,6.278,0,0,0,1.542.935,4.362,4.362,0,0,0,1.753.335,4.517,4.517,0,0,0,1.737-.421,6.653,6.653,0,0,0,1.511-.989,12.924,12.924,0,0,0,2.36-2.8,33.159,33.159,0,0,0,3.178-6.668,69.794,69.794,0,0,0,2.127-7.113c.592-2.407,1.083-4.83,1.511-7.276.849-4.884,1.41-9.816,1.792-14.755s.553-9.9.553-14.856Z" transform="translate(-29.446 -8.485)" fill="#fff" style="mix-blend-mode: soft-light;isolation: isolate"/>
              <path id="Trazado_727859" data-name="Trazado 727859" d="M117.327,63.563a75.715,75.715,0,0,1-.639,9.574,69.991,69.991,0,0,1-1.924,9.4,60.737,60.737,0,0,1-7.915,17.4,49.945,49.945,0,0,1-6.061,7.424,42.608,42.608,0,0,1-7.463,6.006,36.1,36.1,0,0,1-8.7,4,32.909,32.909,0,0,1-18.93.008,36.075,36.075,0,0,1-8.7-3.989,42.307,42.307,0,0,1-7.471-6.006,50,50,0,0,1-6.069-7.424A60.937,60.937,0,0,1,35.521,82.54a69.172,69.172,0,0,1-1.932-9.4,74.2,74.2,0,0,1-.639-9.574,72.839,72.839,0,0,1,.639-9.574,69.2,69.2,0,0,1,1.94-9.4,61.223,61.223,0,0,1,7.938-17.4,49.537,49.537,0,0,1,6.069-7.416,42.221,42.221,0,0,1,7.471-5.991,36.188,36.188,0,0,1,8.7-3.981A32.681,32.681,0,0,1,84.623,9.8a35.862,35.862,0,0,1,8.694,3.989,42.211,42.211,0,0,1,7.463,6,50.283,50.283,0,0,1,6.061,7.416,60.827,60.827,0,0,1,7.923,17.4,70.241,70.241,0,0,1,1.924,9.4,74.186,74.186,0,0,1,.647,9.566Zm-.693,0a72.741,72.741,0,0,0-.608-9.481,69.238,69.238,0,0,0-1.877-9.317,60.886,60.886,0,0,0-7.7-17.31,49.451,49.451,0,0,0-5.944-7.409,41.238,41.238,0,0,0-7.354-6.006,35.44,35.44,0,0,0-8.608-3.989,31.986,31.986,0,0,0-18.759.008,35.412,35.412,0,0,0-8.6,4,41.569,41.569,0,0,0-7.346,6.014A49.4,49.4,0,0,0,43.9,27.478a60.7,60.7,0,0,0-7.689,17.3,72.36,72.36,0,0,0,.008,37.572,60.678,60.678,0,0,0,7.7,17.294,49.435,49.435,0,0,0,5.936,7.4,42.106,42.106,0,0,0,7.338,6.006,35.8,35.8,0,0,0,8.6,3.981,31.8,31.8,0,0,0,18.728,0,35.5,35.5,0,0,0,8.6-3.981,41.535,41.535,0,0,0,7.354-6,49.784,49.784,0,0,0,5.944-7.4,60.718,60.718,0,0,0,7.712-17.294A68.753,68.753,0,0,0,116,73.044a72.74,72.74,0,0,0,.608-9.481Z" transform="translate(-21.42 -8.4)" fill="#fff" style="mix-blend-mode: soft-light;isolation: isolate"/>
              <path id="Trazado_727860" data-name="Trazado 727860" d="M23.857,51.121l12.683-.086,12.683-.047,25.365-.039,25.365.039,12.683.055,12.683.093s.031.016.031.031a.034.034,0,0,1-.031.031l-12.683.093-12.683.055-25.365.039-25.365-.039L36.539,51.3l-12.683-.086s-.047-.023-.047-.047a.05.05,0,0,1,.047-.047Z" transform="translate(-19.401 -17.802)" fill="#fff" style="mix-blend-mode: soft-light;isolation: isolate"/>
              <path id="Trazado_727861" data-name="Trazado 727861" d="M42.747,23.851l9.006-.086,9.006-.047c3-.023,6.006-.016,9.006-.023l9.006-.016,18.011.039,9.006.055c3,.031,6.006.047,9.006.093a.031.031,0,0,1,0,.062c-3,.039-6.006.062-9.006.093l-9.006.055-18.011.039L69.763,24.1c-3,0-6.006,0-9.006-.023l-9.006-.047-9.006-.086s-.047-.023-.047-.047A.05.05,0,0,1,42.747,23.851Z" transform="translate(-23.575 -11.776)" fill="#fff" style="mix-blend-mode: soft-light;isolation: isolate"/>
              <path id="Trazado_727862" data-name="Trazado 727862" d="M18.2,78.391l13.789-.086,13.789-.047,27.57-.039,27.57.039,13.789.055,13.789.093s.031.016.031.031a.034.034,0,0,1-.031.031l-13.789.093-13.789.055-27.57.039-27.57-.039-13.789-.047L18.2,78.485s-.047-.023-.047-.047a.05.05,0,0,1,.047-.047Z" transform="translate(-18.15 -23.828)" fill="#fff" style="mix-blend-mode: soft-light;isolation: isolate"/>
              <path id="Trazado_727863" data-name="Trazado 727863" d="M23.857,105.661l12.683-.086,12.683-.047,25.365-.039,25.365.039,12.683.055,12.683.093s.031.016.031.031a.034.034,0,0,1-.031.031l-12.683.093-12.683.055-25.365.039-25.365-.039-12.683-.047-12.683-.086s-.047-.023-.047-.047a.05.05,0,0,1,.047-.047Z" transform="translate(-19.401 -29.854)" fill="#fff" style="mix-blend-mode: soft-light;isolation: isolate"/>
              <path id="Trazado_727864" data-name="Trazado 727864" d="M117.09,133.162H45.046a.156.156,0,0,1,0-.312H117.09a.156.156,0,0,1,0,.312Z" transform="translate(-24.059 -35.9)" fill="#fff" style="mix-blend-mode: soft-light;isolation: isolate"/>
            </g>
          </g>
          <g id="Grupo_1009839" data-name="Grupo 1009839" transform="translate(38.508 24.356)">
            <path id="Trazado_727865" data-name="Trazado 727865" d="M49.438,53.744a6.613,6.613,0,0,1,6.614-6.614h56.261a5.826,5.826,0,0,1,5.819,5.531l4.152,81.572a4.3,4.3,0,0,1-4.215,4.518L53.582,139.92a4.082,4.082,0,0,1-4.152-4.082V53.744Z" transform="translate(-49.43 -34.773)" fill="url(#linear-gradient-7)"/>
            <path id="Trazado_727866" data-name="Trazado 727866" d="M63.582,160.043h0l-7.214-.093a4.449,4.449,0,0,1-4.378-4.433V144.626a.156.156,0,1,1,.312,0v10.891a4.133,4.133,0,0,0,4.074,4.121l7.214.093a.156.156,0,1,1,0,.312Z" transform="translate(-49.996 -56.283)" fill="#fff"/>
            <path id="Trazado_727867" data-name="Trazado 727867" d="M52.146,139.942a.156.156,0,0,1-.156-.156v-1.761a.156.156,0,0,1,.312,0v1.761A.156.156,0,0,1,52.146,139.942Z" transform="translate(-49.996 -54.824)" fill="#fff"/>
            <g id="Grupo_1009837" data-name="Grupo 1009837" transform="translate(4.62 11.677)">
              <path id="Trazado_727868" data-name="Trazado 727868" d="M55.36,48.191a1.926,1.926,0,0,1,2.181-1.916c7.681,1.044,34.106,4.261,55.95,2.586a1.778,1.778,0,0,1,1.916,1.675l4.355,81.938a2.039,2.039,0,0,1-1.924,2.15c-9.185.545-47.022,2.649-60.523,1.231a1.626,1.626,0,0,1-1.449-1.6L55.36,48.184Z" transform="translate(-55.36 -46.258)" fill="url(#linear-gradient-8)"/>
              <path id="Trazado_727869" data-name="Trazado 727869" d="M56.52,50.842A1.856,1.856,0,0,1,58.616,49c7.393,1,32.82,4.105,53.846,2.493A1.708,1.708,0,0,1,114.3,53.1l4.191,78.853a1.977,1.977,0,0,1-1.846,2.072c-8.842.522-45.254,2.547-58.24,1.184a1.566,1.566,0,0,1-1.394-1.542L56.52,50.842Z" transform="translate(-55.616 -46.859)" fill="#fff" opacity="0.6"/>
              <g id="Grupo_1009833" data-name="Grupo 1009833" transform="translate(12.652 27.945)" opacity="0.6">
                <path id="Trazado_727870" data-name="Trazado 727870" d="M72.223,82.13a.577.577,0,0,0-.615.686l.086.584a.865.865,0,0,0,.826.709H82.958a.708.708,0,0,0,.709-.717v-.055a.766.766,0,0,0-.732-.748l-10.719-.452Z" transform="translate(-71.601 -82.129)" fill="#fff"/>
              </g>
              <g id="Grupo_1009834" data-name="Grupo 1009834" transform="translate(38.212 27.898)" opacity="0.6">
                <path id="Trazado_727871" data-name="Trazado 727871" d="M105.033,82.07a.577.577,0,0,0-.615.686l.086.584a.865.865,0,0,0,.826.709h10.439a.708.708,0,0,0,.709-.717v-.055a.766.766,0,0,0-.732-.748l-10.719-.452Z" transform="translate(-104.411 -82.069)" fill="#fff"/>
              </g>
              <rect id="Rectángulo_350549" data-name="Rectángulo 350549" width="47.162" height="1.979" rx="0.27" transform="translate(7.736 49.135)" fill="#fff" opacity="0.68"/>
              <rect id="Rectángulo_350550" data-name="Rectángulo 350550" width="34.963" height="1.979" rx="0.27" transform="translate(7.736 53.272)" fill="#fff" opacity="0.68"/>
              <rect id="Rectángulo_350551" data-name="Rectángulo 350551" width="47.162" height="1.979" rx="0.27" transform="translate(7.821 45.092)" fill="#fff" opacity="0.68"/>
              <rect id="Rectángulo_350552" data-name="Rectángulo 350552" width="47.162" height="1.979" rx="0.27" transform="translate(7.525 61.638)" fill="#fff" opacity="0.68"/>
              <rect id="Rectángulo_350553" data-name="Rectángulo 350553" width="35.594" height="1.979" rx="0.27" transform="translate(7.525 65.775)" fill="#fff" opacity="0.68"/>
              <rect id="Rectángulo_350554" data-name="Rectángulo 350554" width="47.162" height="1.979" rx="0.27" transform="translate(7.611 57.595)" fill="#fff" opacity="0.68"/>
              <rect id="Rectángulo_350555" data-name="Rectángulo 350555" width="47.162" height="1.979" rx="0.27" transform="translate(7.611 70.153)" fill="#fff" opacity="0.68"/>
              <rect id="Rectángulo_350556" data-name="Rectángulo 350556" width="47.162" height="1.979" rx="0.27" transform="translate(7.393 21.425)" fill="#fff" opacity="0.68"/>
              <rect id="Rectángulo_350557" data-name="Rectángulo 350557" width="31.021" height="1.979" rx="0.27" transform="translate(15.269 13.121)" fill="#fff" opacity="0.68"/>
              <rect id="Rectángulo_350558" data-name="Rectángulo 350558" width="47.162" height="1.979" rx="0.27" transform="translate(7.479 17.382)" fill="#fff" opacity="0.68"/>
              <g id="Grupo_1009835" data-name="Grupo 1009835" transform="translate(7.736 32.269)">
                <rect id="Rectángulo_350559" data-name="Rectángulo 350559" width="21.392" height="1.979" rx="0.27" transform="translate(0.086 3.786)" fill="#fff" opacity="0.68"/>
                <rect id="Rectángulo_350560" data-name="Rectángulo 350560" width="21.392" height="1.979" rx="0.27" transform="translate(0.086 7.572)" fill="#fff" opacity="0.68"/>
                <rect id="Rectángulo_350561" data-name="Rectángulo 350561" width="21.392" height="1.979" rx="0.27" fill="#fff" opacity="0.68"/>
              </g>
              <g id="Grupo_1009836" data-name="Grupo 1009836" transform="translate(33.124 32.355)">
                <rect id="Rectángulo_350562" data-name="Rectángulo 350562" width="21.735" height="1.979" rx="0.27" transform="translate(0.086 3.786)" fill="#fff" opacity="0.68"/>
                <rect id="Rectángulo_350563" data-name="Rectángulo 350563" width="21.735" height="1.979" rx="0.27" transform="translate(0.086 7.572)" fill="#fff" opacity="0.68"/>
                <rect id="Rectángulo_350564" data-name="Rectángulo 350564" width="21.735" height="1.979" rx="0.27" fill="#fff" opacity="0.68"/>
              </g>
            </g>
            <path id="Trazado_727872" data-name="Trazado 727872" d="M96.6,32.5a5.729,5.729,0,0,0-5.04-1.021A2.479,2.479,0,0,0,89.8,34.09l.538,5.858,6.38.569s3.872-5.243-.117-8.008Zm-2.8,4.721a1.589,1.589,0,1,1,1.589-1.589A1.586,1.586,0,0,1,93.793,37.221Z" transform="translate(-58.348 -31.268)" fill="url(#linear-gradient-9)"/>
            <path id="Trazado_727873" data-name="Trazado 727873" d="M91.189,37.719a.159.159,0,0,1-.156-.14l-.086-.935a.15.15,0,0,1,.14-.164.146.146,0,0,1,.164.14l.086.935a.15.15,0,0,1-.14.164h-.016Zm-.164-1.831a.159.159,0,0,1-.156-.14l-.062-.709a2.367,2.367,0,0,1,1.683-2.485,4.747,4.747,0,0,1,2.337-.093.151.151,0,1,1-.062.3,4.488,4.488,0,0,0-2.181.086A2.049,2.049,0,0,0,91.127,35l.062.709a.15.15,0,0,1-.14.164h-.016Z" transform="translate(-58.571 -31.509)" fill="#fff"/>
            <path id="Trazado_727874" data-name="Trazado 727874" d="M79.29,45.916V42.971a1.794,1.794,0,0,1,1.862-1.792l20.3.693a1.743,1.743,0,0,1,1.683,1.644l.171,2.828L79.3,45.916Z" transform="translate(-56.028 -33.458)" fill="url(#linear-gradient-10)"/>
            <path id="Trazado_727875" data-name="Trazado 727875" d="M88.718,42.512h-.873a.156.156,0,1,1,0-.312h.873a.156.156,0,0,1,0,.312Z" transform="translate(-57.884 -33.684)" fill="#fff"/>
            <path id="Trazado_727876" data-name="Trazado 727876" d="M80.656,45.225a.156.156,0,0,1-.156-.156V43.877a1.669,1.669,0,0,1,1.667-1.667h3.21a.156.156,0,0,1,0,.312h-3.21A1.365,1.365,0,0,0,80.8,43.885v1.192a.156.156,0,0,1-.156.156Z" transform="translate(-56.296 -33.686)" fill="#fff"/>
            <path id="Trazado_727877" data-name="Trazado 727877" d="M68.655,47.7a1.911,1.911,0,0,1,1.909-1.823h35.493a2.625,2.625,0,0,1,2.586,2.173l.031.171a2.256,2.256,0,0,1-2.22,2.641H70.034a1.469,1.469,0,0,1-1.465-1.535l.078-1.628Z" transform="translate(-53.659 -34.497)" fill="url(#linear-gradient-11)"/>
            <g id="Grupo_1009838" data-name="Grupo 1009838" transform="translate(26.861 85.907)">
              <path id="Trazado_727878" data-name="Trazado 727878" d="M83.91,151.006a11.892,11.892,0,0,1,1.768-5.282,12.3,12.3,0,0,1,1.753-2.212l.514-.491c.179-.156.358-.312.545-.46s.374-.288.569-.421l.3-.195.148-.1.078-.047s.062-.039.093-.055a1.484,1.484,0,0,1,1.776.21,1.269,1.269,0,0,1,.273.413c.031.07.055.148.078.218a2.033,2.033,0,0,1,.047.21,2.714,2.714,0,0,1,0,.795c-.016.125-.031.249-.055.374l-.07.343-.14.678c-.1.452-.21.9-.335,1.348a30.948,30.948,0,0,1-1.916,5.212l-.3.623c-.109.2-.21.413-.319.615l-.164.3-.086.156-.093.156a4.593,4.593,0,0,1-.428.615,2.929,2.929,0,0,1-.576.538,1.625,1.625,0,0,1-.834.3,1.174,1.174,0,0,1-.234-.008,1.057,1.057,0,0,1-.226-.047,1.4,1.4,0,0,1-.421-.2,1.563,1.563,0,0,1-.545-.693,2.138,2.138,0,0,1-.156-.81,3.413,3.413,0,0,1,.093-.763,6.5,6.5,0,0,1,.2-.693l.117-.335.125-.327a12.614,12.614,0,0,1,3.178-4.6l.132-.117.132-.117.265-.226c.093-.07.187-.14.28-.218s.187-.148.28-.21c.195-.132.382-.273.584-.39l.148-.093.078-.047s.023-.016.039-.023l.047-.031a1.193,1.193,0,0,1,.428-.132,1.076,1.076,0,0,1,.849.265.848.848,0,0,1,.257.413,1.063,1.063,0,0,1,.031.436,2.639,2.639,0,0,1-.078.374l-.093.335-.187.662c-.242.88-.5,1.761-.748,2.641h0l-.39-.07a2.08,2.08,0,0,1,.273-.865,1.518,1.518,0,0,1,.312-.358,1.258,1.258,0,0,1,.428-.226,1.045,1.045,0,0,1,.491-.031,1.023,1.023,0,0,1,.249.078.851.851,0,0,1,.117.062l.078.047a.688.688,0,0,0,.615.039,1.258,1.258,0,0,0,.14-.078.39.39,0,0,0,.062-.055l.031-.031.039-.039.28-.3.561-.6.561-.6.28-.3a.528.528,0,0,1,.28-.156.5.5,0,0,1,.319.039.573.573,0,0,1,.241.21.51.51,0,0,1,.07.319.128.128,0,0,1-.016.078.186.186,0,0,1-.023.07l-.031.093-.062.187a6.765,6.765,0,0,0-.21.779q-.082.4-.14.795c0,.031-.008.07-.008.1v.156a.14.14,0,0,0,.016.078.7.7,0,0,0,.148.28.753.753,0,0,0,.257.187.912.912,0,0,0,.156.047.522.522,0,0,0,.156,0,.661.661,0,0,0,.3-.093l.031-.023.031-.023.062-.055.148-.14c.39-.382.756-.779,1.106-1.192a18.582,18.582,0,0,0,1.877-2.656l.2-.358.093-.179.047-.093.016-.023h0V145h.023l-.016.016-.031.039-.07.07c-.047.047-.086.093-.132.148a5.369,5.369,0,0,0-.467.639c-.07.109-.132.226-.195.343a1.87,1.87,0,0,0-.086.179l-.039.093-.023.047-.016.039a.845.845,0,0,0,.016.647.832.832,0,0,0,.475.444.783.783,0,0,0,.327.055.915.915,0,0,0,.319-.078l.078-.039.086-.055c.055-.031.117-.07.171-.1.117-.07.226-.14.343-.218a10.144,10.144,0,0,0,2.368-2.173h0a.194.194,0,1,1,.3.242,10.742,10.742,0,0,1-2.462,2.251c-.117.078-.234.148-.351.226-.062.039-.117.07-.179.109l-.093.055-.109.055a1.375,1.375,0,0,1-.467.117,1.274,1.274,0,0,1-1.176-.732,1.256,1.256,0,0,1-.031-.95l.023-.055.023-.047.047-.1c.031-.062.062-.132.093-.195q.093-.187.21-.374a4.867,4.867,0,0,1,.506-.686c.047-.055.093-.109.14-.156a.735.735,0,0,1,.078-.078l.039-.039.016-.016a.214.214,0,0,1,.039-.031.425.425,0,0,1,.2-.078.41.41,0,0,1,.2.047.374.374,0,0,1,.195.358.216.216,0,0,1-.023.1c0,.016-.016.031-.023.047l-.016.023-.047.093-.1.187-.2.366a18.8,18.8,0,0,1-1.916,2.719c-.358.421-.74.826-1.13,1.215l-.148.148-.093.078-.047.039-.055.031a.947.947,0,0,1-.475.148,1.313,1.313,0,0,1-.249-.008,1.412,1.412,0,0,1-.242-.07.994.994,0,0,1-.405-.288,1.062,1.062,0,0,1-.234-.444.7.7,0,0,1-.023-.125c0-.039-.008-.086-.008-.125v-.125l.016-.109c.031-.28.086-.553.14-.826s.132-.545.218-.81l.07-.2.039-.1s0-.023.008-.031v-.023a.128.128,0,0,0-.016-.078.139.139,0,0,0-.062-.055.12.12,0,0,0-.148.031l-.28.3-.561.6-.561.6-.28.3-.039.039-.047.047s-.062.055-.093.086a1.213,1.213,0,0,1-.218.125,1.108,1.108,0,0,1-.966-.062l-.093-.062-.062-.039a.47.47,0,0,0-.148-.047.887.887,0,0,0-.319.023.871.871,0,0,0-.514.413,1.612,1.612,0,0,0-.218.693l-.39-.07h0c.218-.888.436-1.776.662-2.664l.171-.662.086-.327a2.175,2.175,0,0,0,.055-.3.746.746,0,0,0-.023-.242.317.317,0,0,0-.109-.156.549.549,0,0,0-.428-.117.6.6,0,0,0-.226.078l-.023.016-.031.023-.07.047-.14.093c-.187.117-.366.257-.545.39-.093.062-.179.14-.265.21l-.257.21-.249.226-.125.109-.117.117a11.618,11.618,0,0,0-1.714,2.041,11.905,11.905,0,0,0-1.223,2.36l-.117.312-.1.319a4.745,4.745,0,0,0-.171.631,1.813,1.813,0,0,0,.047,1.122.921.921,0,0,0,.3.366.62.62,0,0,0,.195.086.647.647,0,0,0,.21.023.866.866,0,0,0,.436-.164,1.98,1.98,0,0,0,.413-.4,4.243,4.243,0,0,0,.351-.514l.078-.14.078-.148.156-.3.3-.608.288-.608a30.973,30.973,0,0,0,1.839-5.087c.117-.436.226-.872.319-1.317.047-.218.093-.444.14-.662l.062-.335c.016-.1.039-.2.047-.3a2.312,2.312,0,0,0,0-.569.755.755,0,0,0-.164-.39.463.463,0,0,0-.14-.1.549.549,0,0,0-.195-.047.781.781,0,0,0-.428.093.446.446,0,0,0-.055.031l-.07.047-.14.093-.28.179c-.179.125-.358.257-.538.39s-.343.28-.514.413L88,144.1a12.647,12.647,0,0,0-3.685,6.972.2.2,0,0,1-.39-.047Z" transform="translate(-83.91 -141.543)" fill="#fff"/>
              <path id="Trazado_727879" data-name="Trazado 727879" d="M110.145,145.549a.183.183,0,0,1-.164-.093.2.2,0,0,1,.062-.273l1.963-1.231a.2.2,0,1,1,.21.335l-1.963,1.231a.392.392,0,0,1-.1.031Z" transform="translate(-89.665 -142.069)" fill="#fff"/>
            </g>
          </g>
          <g id="Grupo_1009841" data-name="Grupo 1009841" transform="translate(115.843 90.13)">
            <path id="Trazado_727880" data-name="Trazado 727880" d="M164.639,116.175a.463.463,0,0,0-.452-.475H149.214a.524.524,0,0,0-.514.483v37.308a.8.8,0,0,0,.241.53.72.72,0,0,0,.514.218l15.137-.047a.681.681,0,0,0,.506-.226.781.781,0,0,0,.2-.538l-.654-37.261Z" transform="translate(-148.7 -115.7)" fill="url(#linear-gradient-12)"/>
            <g id="Grupo_1009840" data-name="Grupo 1009840" transform="translate(2.353 1.967)">
              <rect id="Rectángulo_350565" data-name="Rectángulo 350565" width="0.654" height="4.892" transform="translate(0.09 0.654) rotate(-89.79)" fill="#fff" style="mix-blend-mode: overlay;isolation: isolate"/>
              <path id="Trazado_727881" data-name="Trazado 727881" d="M156.746,122l-4.916-.023v-.662l4.916.023Z" transform="translate(-151.744 -118.907)" fill="#fff" style="mix-blend-mode: overlay;isolation: isolate"/>
              <path id="Trazado_727882" data-name="Trazado 727882" d="M156.759,125.111l-4.939-.031v-.67l4.931.031Z" transform="translate(-151.742 -119.592)" fill="#fff" style="mix-blend-mode: overlay;isolation: isolate"/>
              <path id="Trazado_727883" data-name="Trazado 727883" d="M156.772,128.249l-4.962-.039.008-.67,4.947.039Z" transform="translate(-151.74 -120.284)" fill="#fff" style="mix-blend-mode: overlay;isolation: isolate"/>
              <path id="Trazado_727884" data-name="Trazado 727884" d="M156.778,131.417l-4.978-.039.008-.678,4.97.039Z" transform="translate(-151.738 -120.982)" fill="#fff" style="mix-blend-mode: overlay;isolation: isolate"/>
              <path id="Trazado_727885" data-name="Trazado 727885" d="M156.807,137.83l-5.017-.055v-.686l5.017.055Z" transform="translate(-151.735 -122.394)" fill="#fff" style="mix-blend-mode: overlay;isolation: isolate"/>
              <path id="Trazado_727886" data-name="Trazado 727886" d="M156.847,147.659l-5.087-.07v-.709l5.079.07Z" transform="translate(-151.729 -124.557)" fill="#fff" style="mix-blend-mode: overlay;isolation: isolate"/>
              <path id="Trazado_727887" data-name="Trazado 727887" d="M156.794,134.612l-4.994-.047v-.686l4.994.047Z" transform="translate(-151.738 -121.685)" fill="#fff" style="mix-blend-mode: overlay;isolation: isolate"/>
              <path id="Trazado_727888" data-name="Trazado 727888" d="M156.82,141.086l-5.04-.062v-.693l5.033.055Z" transform="translate(-151.733 -123.11)" fill="#fff" style="mix-blend-mode: overlay;isolation: isolate"/>
              <path id="Trazado_727889" data-name="Trazado 727889" d="M156.834,144.353l-5.064-.062v-.7l5.056.062Z" transform="translate(-151.731 -123.83)" fill="#fff" style="mix-blend-mode: overlay;isolation: isolate"/>
              <path id="Trazado_727890" data-name="Trazado 727890" d="M156.853,150.995l-5.1-.086V150.2l5.1.078Z" transform="translate(-151.727 -125.291)" fill="#fff" style="mix-blend-mode: overlay;isolation: isolate"/>
              <path id="Trazado_727891" data-name="Trazado 727891" d="M156.866,154.352l-5.126-.086v-.717l5.126.086Z" transform="translate(-151.724 -126.031)" fill="#fff" style="mix-blend-mode: overlay;isolation: isolate"/>
              <path id="Trazado_727892" data-name="Trazado 727892" d="M156.879,157.738l-5.149-.093v-.725l5.149.093Z" transform="translate(-151.722 -126.776)" fill="#fff" style="mix-blend-mode: overlay;isolation: isolate"/>
              <path id="Trazado_727893" data-name="Trazado 727893" d="M156.893,161.164l-5.173-.1v-.732l5.173.1Z" transform="translate(-151.72 -127.53)" fill="#fff" style="mix-blend-mode: overlay;isolation: isolate"/>
              <path id="Trazado_727894" data-name="Trazado 727894" d="M164.969,118.93l-4.931-.016-.008-.654,4.923.016Z" transform="translate(-153.556 -118.233)" fill="#fff" style="mix-blend-mode: overlay;isolation: isolate"/>
              <path id="Trazado_727895" data-name="Trazado 727895" d="M165.015,122.036l-4.947-.023-.008-.662,4.939.023Z" transform="translate(-153.563 -118.916)" fill="#fff" style="mix-blend-mode: overlay;isolation: isolate"/>
              <path id="Trazado_727896" data-name="Trazado 727896" d="M165.058,125.161l-4.97-.031-.008-.67,4.97.031Z" transform="translate(-153.567 -119.603)" fill="#fff" style="mix-blend-mode: overlay;isolation: isolate"/>
              <path id="Trazado_727897" data-name="Trazado 727897" d="M165.1,128.309l-4.986-.039-.008-.67,4.986.039Z" transform="translate(-153.574 -120.297)" fill="#fff" style="mix-blend-mode: overlay;isolation: isolate"/>
              <path id="Trazado_727898" data-name="Trazado 727898" d="M165.149,131.487l-5.009-.039v-.678l5,.039Z" transform="translate(-153.581 -120.998)" fill="#fff" style="mix-blend-mode: overlay;isolation: isolate"/>
              <path id="Trazado_727899" data-name="Trazado 727899" d="M165.246,137.928l-5.048-.055-.008-.693,5.048.055Z" transform="translate(-153.592 -122.414)" fill="#fff" style="mix-blend-mode: overlay;isolation: isolate"/>
              <path id="Trazado_727900" data-name="Trazado 727900" d="M165.388,147.787l-5.11-.078L160.27,147l5.11.078Z" transform="translate(-153.609 -124.584)" fill="#fff" style="mix-blend-mode: overlay;isolation: isolate"/>
              <path id="Trazado_727901" data-name="Trazado 727901" d="M165.2,134.692l-5.033-.047-.008-.686,5.025.047Z" transform="translate(-153.585 -121.702)" fill="#fff" style="mix-blend-mode: overlay;isolation: isolate"/>
              <path id="Trazado_727902" data-name="Trazado 727902" d="M165.289,141.186l-5.071-.062-.008-.693,5.071.055Z" transform="translate(-153.596 -123.132)" fill="#fff" style="mix-blend-mode: overlay;isolation: isolate"/>
              <path id="Trazado_727903" data-name="Trazado 727903" d="M165.343,144.471l-5.095-.07-.008-.7,5.087.07Z" transform="translate(-153.603 -123.855)" fill="#fff" style="mix-blend-mode: overlay;isolation: isolate"/>
              <path id="Trazado_727904" data-name="Trazado 727904" d="M165.439,151.125l-5.142-.078-.008-.717,5.134.086Z" transform="translate(-153.614 -125.32)" fill="#fff" style="mix-blend-mode: overlay;isolation: isolate"/>
              <path id="Trazado_727905" data-name="Trazado 727905" d="M165.493,154.5l-5.165-.086-.008-.724,5.157.086Z" transform="translate(-153.62 -126.062)" fill="#fff" style="mix-blend-mode: overlay;isolation: isolate"/>
              <path id="Trazado_727906" data-name="Trazado 727906" d="M165.538,157.9l-5.181-.093-.008-.724,5.181.093Z" transform="translate(-153.627 -126.811)" fill="#fff" style="mix-blend-mode: overlay;isolation: isolate"/>
              <path id="Trazado_727907" data-name="Trazado 727907" d="M165.592,161.334l-5.212-.1V160.5l5.2.1Z" transform="translate(-153.634 -127.567)" fill="#fff" style="mix-blend-mode: overlay;isolation: isolate"/>
            </g>
          </g>
          <g id="Grupo_1009844" data-name="Grupo 1009844" transform="translate(11.277 57.421)">
            <path id="Trazado_727908" data-name="Trazado 727908" d="M47.273,103.712s-3.194,7.37-5.157,6.388-3.436-9.091-3.436-9.091,6.139-1.472,8.6,2.7Z" transform="translate(-19.823 -79.688)" fill="url(#linear-gradient-13)"/>
            <path id="Trazado_727909" data-name="Trazado 727909" d="M35.326,163.25s-.265,1.511-.4,3.007a1.025,1.025,0,0,0,.989,1.114c1.994.086,6.256.241,7.783.179a.334.334,0,0,0,.3-.46.748.748,0,0,0-.382-.405l-7.042-3.233-1.246-.2Z" transform="translate(-18.993 -93.498)" fill="url(#linear-gradient-14)"/>
            <path id="Trazado_727910" data-name="Trazado 727910" d="M35.15,162.03l.218,1.807a2.233,2.233,0,0,0,2.072-.07l-.514-2.018-1.776.28Z" transform="translate(-19.043 -93.166)" fill="url(#linear-gradient-15)"/>
            <path id="Trazado_727911" data-name="Trazado 727911" d="M33.776,118.476c-.093.475-.5,23.558,1.971,33.9a.348.348,0,0,1-.2.405,5.961,5.961,0,0,1-2.01.405.61.61,0,0,1-.6-.436c-.709-2.4-4.082-14.428-4.526-25.918-.491-12.838,0-.436,0-.436l.288-7.938h5.079Z" transform="translate(-17.505 -83.6)" fill="url(#linear-gradient-16)"/>
            <path id="Trazado_727912" data-name="Trazado 727912" d="M24.8,164.26a10.649,10.649,0,0,0-.834,2.789.629.629,0,0,0,.553.756c.654.062,1.667.148,2.485.14a.631.631,0,0,0,.623-.7,5.29,5.29,0,0,0-1.231-2.9l-1.581-.086Z" transform="translate(-16.569 -93.721)" fill="url(#linear-gradient-17)"/>
            <path id="Trazado_727913" data-name="Trazado 727913" d="M24.558,161.249l.5,2.734a1.777,1.777,0,0,0,1.472.1l-.241-2.945-1.737.109Z" transform="translate(-16.701 -93.031)" fill="url(#linear-gradient-18)"/>
            <path id="Trazado_727914" data-name="Trazado 727914" d="M22.6,119.028c-2.018,12.184.436,30.1,1.27,33.615a.54.54,0,0,0,.444.413,3.716,3.716,0,0,0,1.581-.062.5.5,0,0,0,.358-.46c.109-2.836-.086-20.247,1.792-27.133a1.584,1.584,0,0,1,.6-.865l3.654-2.594.28-4.191-9.972,1.278Z" transform="translate(-16.098 -83.443)" fill="url(#linear-gradient-19)"/>
            <path id="Trazado_727915" data-name="Trazado 727915" d="M35.7,90.311a34.026,34.026,0,0,0-12.947,1.13c-1.8,10.517-.312,22.654-.312,22.654,4.682,1.231,9.964-.748,9.964-.748.779-4.394,4.409-16.772,4.409-16.772,2.953-.366.74-6.076-1.114-6.256Z" transform="translate(-16.106 -77.342)" fill="url(#linear-gradient-20)"/>
            <path id="Trazado_727916" data-name="Trazado 727916" d="M23.457,97.658,21.135,91.8s-5.648,3.841-6.575,8.7a13.379,13.379,0,0,1,4.908,1.317c.421-2.3,3.989-4.168,3.989-4.168Z" transform="translate(-14.493 -77.709)" fill="url(#linear-gradient-21)"/>
            <path id="Trazado_727917" data-name="Trazado 727917" d="M28.867,105.646s-6.676,3.576-8.819.514a2.892,2.892,0,0,1-.584-2.01,12.657,12.657,0,0,0-4.923-1.161c-.28,1.465.358,3.03,1.223,4.6,3.747,6.855,13.945-.382,13.945-.382l-.841-1.566Z" transform="translate(-14.474 -80.182)" fill="url(#linear-gradient-22)"/>
            <g id="Grupo_1009842" data-name="Grupo 1009842" transform="translate(13.609 15.724)">
              <path id="Trazado_727918" data-name="Trazado 727918" d="M31.964,108.5l3.459-12.09a.36.36,0,0,1,.3-.257c.631-.07,2.446-.28,4.542-.46a51.972,51.972,0,0,1,7.214-.242.354.354,0,0,1,.288.506c-1,2.018-5.1,10.229-7.151,12.916a.369.369,0,0,1-.288.14l-8.032-.078a.353.353,0,0,1-.335-.452Z" transform="translate(-31.943 -94.229)" fill="url(#linear-gradient-23)"/>
              <path id="Trazado_727919" data-name="Trazado 727919" d="M43,94.32l2.508-.421a.183.183,0,0,1,.2.234l-.249.756a.2.2,0,0,1-.148.125l-2.415.319a.183.183,0,0,1-.2-.218l.156-.654A.194.194,0,0,1,43,94.32Z" transform="translate(-34.319 -93.897)" fill="url(#linear-gradient-24)"/>
              <path id="Trazado_727920" data-name="Trazado 727920" d="M40.68,96.661l.21-1.075a.257.257,0,0,1,.218-.2l5.071-.514a.248.248,0,0,1,.265.3l-.319,1.34a.233.233,0,0,1-.226.187l-4.955.249a.249.249,0,0,1-.257-.3Z" transform="translate(-33.874 -94.111)" fill="url(#linear-gradient-25)"/>
              <path id="Trazado_727921" data-name="Trazado 727921" d="M32.945,107.3a8.808,8.808,0,0,1-.288-2.688c.195-.7.569-1.6,1.831-1.41a18.442,18.442,0,0,1,2.734.732.721.721,0,0,1-1.028.623l.592.46s-.086.732-.888.343l.553.608a.646.646,0,0,1-.943.218c-.592-.39-.88,1.355-2.563,1.122Z" transform="translate(-32.09 -95.947)" fill="url(#linear-gradient-26)"/>
              <path id="Trazado_727922" data-name="Trazado 727922" d="M48.929,103.226A8.652,8.652,0,0,0,50.6,101.1c.21-.7.374-1.667-.8-2.166a17.924,17.924,0,0,0-2.711-.834.723.723,0,0,0,.545,1.075l-.748.07s-.319.67.576.763l-.787.226a.647.647,0,0,0,.678.686c.7-.008.023,1.62,1.574,2.306Z" transform="translate(-35.197 -94.825)" fill="url(#linear-gradient-27)"/>
            </g>
            <path id="Trazado_727923" data-name="Trazado 727923" d="M31.861,84.048,29.937,89.61a.193.193,0,0,0,.093.241,4.515,4.515,0,0,0,4.69-.319.964.964,0,0,0,.436-.678l.623-4.814H31.861Z" transform="translate(-17.888 -75.994)" fill="url(#linear-gradient-28)"/>
            <g id="Grupo_1009843" data-name="Grupo 1009843" transform="translate(10.34)">
              <path id="Trazado_727924" data-name="Trazado 727924" d="M36.389,77.43s2.111,3.981,1.839,5.586-2.89,1.488-5.181.187l-1.6-4.292,4.931-1.472Z" transform="translate(-28.565 -74.534)" fill="url(#linear-gradient-29)"/>
              <path id="Trazado_727925" data-name="Trazado 727925" d="M32.338,80.27a.165.165,0,0,0,.07-.241,4.225,4.225,0,0,1-.584-1.246s-.382-.241.966-.569,3.358-.826,3.778-1.971c.413-1.114-.67-3.926-2.392-1.69a.161.161,0,0,1-.257,0,1.7,1.7,0,0,0-2.057-.67,1.548,1.548,0,0,0-1.059,1.5.164.164,0,0,1-.195.164,1.888,1.888,0,0,0-2.2,1.028,1.517,1.517,0,0,0,.109,1.823.166.166,0,0,1-.07.273.991.991,0,0,0-.693,1.122c.055,1.036,1.223.95,1.55.9a.178.178,0,0,1,.148.055,5.622,5.622,0,0,0,2.945,1.807.164.164,0,0,0,.171-.218l-.6-1.737a.158.158,0,0,1,.086-.2l.3-.132Z" transform="translate(-27.747 -73.712)" fill="url(#linear-gradient-30)"/>
              <path id="Trazado_727926" data-name="Trazado 727926" d="M33.491,82.3s-1.5-1.036-1.613-.164,1.356,1.262,2.08.935l-.467-.771Z" transform="translate(-28.658 -75.497)" fill="url(#linear-gradient-31)"/>
            </g>
          </g>
          <g id="Grupo_1009847" data-name="Grupo 1009847" transform="translate(86.106 72.619)">
            <g id="Grupo_1009845" data-name="Grupo 1009845">
              <path id="Trazado_727927" data-name="Trazado 727927" d="M126.9,98l-.187-2.547a1.766,1.766,0,0,1,1.558-1.885,39.8,39.8,0,0,1,8.928-.14,1.987,1.987,0,0,1,1.7,1.963v2.6h-2.633l.086-1.332a1.988,1.988,0,0,0-1.8-2.111,18.757,18.757,0,0,0-4.277.093,1.764,1.764,0,0,0-1.465,2.173l.3,1.176h-2.212Z" transform="translate(-114.103 -93.222)" fill="url(#linear-gradient-32)"/>
              <path id="Trazado_727928" data-name="Trazado 727928" d="M144.931,150.648l-28.271-.6-2.01-43.236,31.769-1.862Z" transform="translate(-111.439 -95.813)" fill="url(#linear-gradient-33)"/>
              <path id="Trazado_727929" data-name="Trazado 727929" d="M146.463,102.529l-31.753,1.348,3.49-4.363a3.845,3.845,0,0,1,2.929-1.348l19.172-.3a2.544,2.544,0,0,1,1.745.631l4.425,4.028Z" transform="translate(-111.453 -94.249)" fill="url(#linear-gradient-34)"/>
              <path id="Trazado_727930" data-name="Trazado 727930" d="M117.228,162.84l28.271.6-5.134,3.864a2.276,2.276,0,0,1-1.356.46l-16.282.055a2.281,2.281,0,0,1-1.69-.756l-3.817-4.222Z" transform="translate(-112.007 -108.605)" fill="url(#linear-gradient-35)"/>
              <path id="Trazado_727931" data-name="Trazado 727931" d="M110.576,106.347l.763-2.275a1.79,1.79,0,0,1,1.737-.989l32.711-.623a1.927,1.927,0,0,1,1.932,1.067l.888,2.843c.249.81-.608,1.566-1.792,1.574l-34.355.047c-1.231,0-2.158-.81-1.885-1.652Z" transform="translate(-110.529 -95.263)" fill="url(#linear-gradient-36)"/>
              <path id="Trazado_727932" data-name="Trazado 727932" d="M121.519,151.053h0a.484.484,0,0,1-.475-.452l-1.644-36.31a.466.466,0,0,1,.475-.491h0a.484.484,0,0,1,.475.452l1.644,36.31A.467.467,0,0,1,121.519,151.053Z" transform="translate(-112.489 -97.769)" fill="url(#linear-gradient-37)"/>
              <path id="Trazado_727933" data-name="Trazado 727933" d="M127.279,151.056h0a.472.472,0,0,1-.467-.46l-1.122-36.326a.477.477,0,0,1,.483-.491h0a.472.472,0,0,1,.467.46l1.122,36.326A.477.477,0,0,1,127.279,151.056Z" transform="translate(-113.879 -97.764)" fill="url(#linear-gradient-38)"/>
              <path id="Trazado_727934" data-name="Trazado 727934" d="M148.455,151.053h0a.484.484,0,0,0,.475-.452l1.644-36.31a.466.466,0,0,0-.475-.491h0a.484.484,0,0,0-.475.452l-1.644,36.31A.466.466,0,0,0,148.455,151.053Z" transform="translate(-118.804 -97.769)" fill="url(#linear-gradient-39)"/>
              <path id="Trazado_727935" data-name="Trazado 727935" d="M142.853,151.056h0a.472.472,0,0,0,.467-.46l1.122-36.326a.477.477,0,0,0-.483-.491h0a.472.472,0,0,0-.467.46l-1.122,36.326A.477.477,0,0,0,142.853,151.056Z" transform="translate(-117.565 -97.764)" fill="url(#linear-gradient-40)"/>
              <path id="Trazado_727936" data-name="Trazado 727936" d="M134.829,151.2h0a.321.321,0,0,1-.319-.319v-36.1a.321.321,0,0,1,.319-.319h0a.321.321,0,0,1,.319.319v36.1A.321.321,0,0,1,134.829,151.2Z" transform="translate(-115.828 -97.915)" fill="url(#linear-gradient-41)"/>
            </g>
            <g id="Grupo_1009846" data-name="Grupo 1009846" transform="translate(30.827 23.011)">
              <path id="Trazado_727937" data-name="Trazado 727937" d="M150.1,122.76l.039.039Z" transform="translate(-150.1 -122.76)" fill="#fff"/>
              <path id="Trazado_727938" data-name="Trazado 727938" d="M150.1,122.76l.039.078Z" transform="translate(-150.1 -122.76)" fill="#fff"/>
            </g>
          </g>
        </g>
      </g>
    </g>
  </g>
</svg>
