<svg xmlns="http://www.w3.org/2000/svg" xmlns:xlink="http://www.w3.org/1999/xlink" width="93.844" height="73.159" viewBox="0 0 93.844 73.159">
  <defs>
    <clipPath id="clip-path">
      <rect id="Rectángulo_346374" data-name="Rectángulo 346374" width="18.913" height="43.064" fill="none" stroke="#12263f" stroke-width="1"/>
    </clipPath>
  </defs>
  <g id="Grupo_1009261" data-name="Grupo 1009261" transform="translate(-881.341 -431.361)">
    <g id="Grupo_1009239" data-name="Grupo 1009239" transform="matrix(-0.588, -0.809, 0.809, -0.588, 940.345, 471.975)">
      <g id="Grupo_1002212" data-name="Grupo 1002212" transform="translate(0 0)" clip-path="url(#clip-path)">
        <path id="Trazado_707910" data-name="Trazado 707910" d="M4.1,37.527C-1.075,27.176-.5,11.5,1.225,0" transform="translate(9.957 4.132)" fill="none" stroke="#12263f" stroke-linecap="round" stroke-linejoin="round" stroke-width="3"/>
        <path id="Trazado_707911" data-name="Trazado 707911" d="M0,8.625C3.45,5.175,7.476,2.875,10.925,0A31.961,31.961,0,0,0,16.1,9.775" transform="translate(1.406 1.406)" fill="none" stroke="#12263f" stroke-linecap="round" stroke-linejoin="round" stroke-width="3"/>
      </g>
    </g>
    <g id="Grupo_1009257" data-name="Grupo 1009257" transform="matrix(0.998, -0.07, 0.07, 0.998, 14784.199, 11304.862)">
      <path id="Trazado_718448" data-name="Trazado 718448" d="M336.928,8.83a1.61,1.61,0,0,1,.576,1.262,1.574,1.574,0,0,1-.546.8,33.073,33.073,0,0,1-12.385,7.3,1.547,1.547,0,0,1-1.349,0,1.533,1.533,0,0,1-.477-.838,21.4,21.4,0,0,1,.541-13.833c-.082-.308.523-.587.831-.669,2.285-.564,6.286-.145,8.606,1.721,1.465,1.355,2.872,2.773,4.2,4.256" transform="translate(-13412.822 -11800.442)" fill="#66d3d2"/>
      <path id="Trazado_718449" data-name="Trazado 718449" d="M394.345,128.239a2.73,2.73,0,0,1-.872,2.029,5.416,5.416,0,0,1-1.8.948L386.879,133a3.269,3.269,0,0,0-1.512.907c-.192.25-.308.547-.488.8-.686.994-2.227.8-3.436.808a27.738,27.738,0,0,1,2.058-9.844c.419.285,3.2.221,3.7.314a31.757,31.757,0,0,1,7.141,2.256" transform="translate(-13451.538 -11880.388)" fill="#66d3d2"/>
      <path id="Trazado_718450" data-name="Trazado 718450" d="M322.155,17.52a1.794,1.794,0,0,1-1.06-.321,2.318,2.318,0,0,1-.811-1.3,22.173,22.173,0,0,1,.5-14.238,1.16,1.16,0,0,1,.159-.487A2.34,2.34,0,0,1,322.28.306a10.729,10.729,0,0,1,7.478.9.872.872,0,1,1-.81,1.545A8.962,8.962,0,0,0,322.7,2a1.087,1.087,0,0,0-.206.08c-.006.02-.013.039-.02.058a20.42,20.42,0,0,0-.52,13.262,1.132,1.132,0,0,0,.156.382h.014a1.856,1.856,0,0,0,.552-.121,32.24,32.24,0,0,0,12.056-7.108,1.284,1.284,0,0,0,.288-.325c0-.02-.034-.15-.365-.517-1.312-1.456-2.708-2.869-4.148-4.2a.872.872,0,0,1,1.183-1.281c1.479,1.365,2.912,2.816,4.26,4.311a2.433,2.433,0,0,1,.784,2.007,2.4,2.4,0,0,1-.81,1.275,34,34,0,0,1-12.712,7.495,3.429,3.429,0,0,1-1.058.2m.35-15.922h0" transform="translate(-13411.195 -11798.74)" fill="#3e3e3e"/>
      <path id="Trazado_718451" data-name="Trazado 718451" d="M337.445,19.616a2.537,2.537,0,0,1-.391-.03,2.214,2.214,0,0,1-1.114-.491,1.939,1.939,0,0,1-.117-2.765.872.872,0,1,1,1.246,1.22.183.183,0,0,0-.025.113.178.178,0,0,0,.035.11.524.524,0,0,0,.243.089.874.874,0,0,0,.928-.482.56.56,0,0,0-.075-.448.383.383,0,0,0-.242-.194.872.872,0,1,1,.24-1.728,2.1,2.1,0,0,1,1.488,1.007,2.3,2.3,0,0,1,.241,1.926,2.607,2.607,0,0,1-2.456,1.672" transform="translate(-13421.561 -11808.487)" fill="#3e3e3e"/>
      <path id="Trazado_718452" data-name="Trazado 718452" d="M360.117,78.307c-.163,0-.324,0-.479,0-.177,0-.351-.005-.518,0a.872.872,0,0,1-.879-.875,28.472,28.472,0,0,1,1.949-9.732c-3.744-5.544-6.019-11.921-8.221-18.093a120.428,120.428,0,0,0-4.809-12.085.872.872,0,0,1,1.57-.762,121.822,121.822,0,0,1,4.882,12.26c2.215,6.208,4.5,12.627,8.274,18.069a.873.873,0,0,1,.094.817,27.736,27.736,0,0,0-1.973,8.664c.762,0,1.544-.037,1.828-.445a3.1,3.1,0,0,0,.167-.284,3.265,3.265,0,0,1,2.245-1.743l4.786-1.781a4.723,4.723,0,0,0,1.52-.774,1.85,1.85,0,0,0,.517-.847,30.612,30.612,0,0,0-6.353-1.938c-.108-.02-.222-.034-.338-.05a3.43,3.43,0,0,1-1.53-.473.872.872,0,1,1,.984-1.44,2.269,2.269,0,0,0,.777.184c.143.019.284.038.417.062a32.51,32.51,0,0,1,7.347,2.324.872.872,0,0,1,.511.777,3.6,3.6,0,0,1-1.157,2.69,6.1,6.1,0,0,1-2.087,1.12l-4.786,1.781a2.584,2.584,0,0,0-1.129.625,2.621,2.621,0,0,0-.2.323,4.826,4.826,0,0,1-.264.44,3.526,3.526,0,0,1-3.15,1.193" transform="translate(-13429.209 -11822.298)" fill="#3e3e3e"/>
      <path id="Trazado_718453" data-name="Trazado 718453" d="M336.558,51.863a.872.872,0,0,1-.5-1.588l1.431-.994a41.838,41.838,0,0,1,9.9-4.835.872.872,0,0,1,.591,1.641,40.244,40.244,0,0,0-9.494,4.626l-1.43.994a.868.868,0,0,1-.5.156" transform="translate(-13421.811 -11827.583)" fill="#3e3e3e"/>
      <path id="Trazado_718454" data-name="Trazado 718454" d="M344.081,68.416a.872.872,0,0,1-.478-1.6,41.4,41.4,0,0,1,9.229-4.5.872.872,0,0,1,.565,1.65,39.648,39.648,0,0,0-8.84,4.315.869.869,0,0,1-.476.142" transform="translate(-13426.697 -11839.191)" fill="#3e3e3e"/>
      <path id="Trazado_718455" data-name="Trazado 718455" d="M351.286,81.737a.872.872,0,0,1-.439-1.626,56.512,56.512,0,0,0,10.364-7.1.872.872,0,0,1,1.19,1.275,57.83,57.83,0,0,1-10.677,7.337.868.868,0,0,1-.437.118" transform="translate(-13431.38 -11846.021)" fill="#3e3e3e"/>
      <path id="Trazado_718456" data-name="Trazado 718456" d="M361.716,100.1a.872.872,0,0,1-.274-1.7,27.927,27.927,0,0,0,8-4.188.872.872,0,0,1,1.047,1.395,29.654,29.654,0,0,1-8.5,4.449.871.871,0,0,1-.274.044" transform="translate(-13438.156 -11859.834)" fill="#3e3e3e"/>
      <path id="Trazado_718457" data-name="Trazado 718457" d="M367.678,113.955a.872.872,0,0,1-.463-1.612,67.8,67.8,0,0,1,9.708-5.026.872.872,0,1,1,.674,1.609,66.058,66.058,0,0,0-9.458,4.9.868.868,0,0,1-.462.133" transform="translate(-13442.029 -11868.42)" fill="#3e3e3e"/>
      <path id="Trazado_718458" data-name="Trazado 718458" d="M262.834,121.579a11.16,11.16,0,0,0,7.362,8.081,10.761,10.761,0,0,0,10.754-2.443,8.787,8.787,0,0,0,1.4-10.314,15.262,15.262,0,0,0-3.375,4.223,16.946,16.946,0,0,0-4.538-3.625c-.418.921-1.787,3.458-2.457,4.8l-.17-.091a39.936,39.936,0,0,1-4.8-2.691,15.984,15.984,0,0,0-1.542,3.512,3.244,3.244,0,0,1-1.02-.853,1.422,1.422,0,0,0-.608-.486Z" transform="translate(-13374.479 -11874.692)" fill="#faf3e6"/>
      <path id="Trazado_718459" data-name="Trazado 718459" d="M260.141,80.851a17.127,17.127,0,0,0,.592,6.4c1.053-1.171,2.293-2.248,3.346-3.418a1.062,1.062,0,0,1,.583-.4,1.135,1.135,0,0,1,.558.133q2.122.957,4.241,1.9a11.013,11.013,0,0,1,1.424-3.65.621.621,0,0,1,.282-.288.643.643,0,0,1,.473.059c1.969.759,5.741,1,7.709,1.762-.3-3.723-3.868-8.423-8.654-9.472a8.589,8.589,0,0,0-10.554,6.979" transform="translate(-13372.651 -11846.574)" fill="#faf3e6"/>
      <path id="Trazado_718460" data-name="Trazado 718460" d="M302.023,84.463a.8.8,0,0,0,.179,0,.872.872,0,0,0,.8-.94,11.491,11.491,0,0,0-6.686-9.438.872.872,0,1,0-.711,1.593,9.856,9.856,0,0,1,5.658,7.987.873.873,0,0,0,.762.794" transform="translate(-13395.434 -11846.826)" fill="#3e3e3e"/>
      <path id="Trazado_718461" data-name="Trazado 718461" d="M259.006,86.5a.872.872,0,0,0,.754-.281c.51-.564,1.083-1.126,1.638-1.67.573-.562,1.165-1.142,1.71-1.745l.078-.084.061.027,4.237,1.9a.873.873,0,0,0,1.213-.628,10.124,10.124,0,0,1,1.194-3.165l5.72,2.21a.872.872,0,1,0,.629-1.627l-5.906-2.283a1.338,1.338,0,0,0-1.809.586,11.881,11.881,0,0,0-1.282,2.886l-3.282-1.472a1.625,1.625,0,0,0-2.147.479c-.509.564-1.083,1.126-1.637,1.669-.183.179-.368.36-.552.544a12.991,12.991,0,0,1-.243-4.467,7.723,7.723,0,0,1,9.486-6.274.872.872,0,1,0,.42-1.693A9.468,9.468,0,0,0,257.659,79.1a17.963,17.963,0,0,0,.6,6.719.874.874,0,0,0,.745.676" transform="translate(-13371.033 -11844.96)" fill="#3e3e3e"/>
      <path id="Trazado_718462" data-name="Trazado 718462" d="M270.464,129.353a11.424,11.424,0,0,0,9.49-3.141,9.67,9.67,0,0,0,1.539-11.358.872.872,0,0,0-1.343-.212,17.27,17.27,0,0,0-2.962,3.417,17.915,17.915,0,0,0-3.944-2.941.872.872,0,0,0-1.215.4c-.246.539-.5,1.152-.764,1.766-.252.6-.5,1.195-.744,1.719a.872.872,0,0,0,1.587.725c.246-.538.505-1.152.764-1.765.118-.28.236-.559.353-.832a16.017,16.017,0,0,1,3.481,2.957.872.872,0,0,0,1.433-.184,12.92,12.92,0,0,1,2.327-3.146,7.962,7.962,0,0,1-1.761,8.235,9.919,9.919,0,0,1-9.859,2.224,10.367,10.367,0,0,1-6.78-7.435.872.872,0,0,0-1.706.363,12,12,0,0,0,7.948,8.732,11.622,11.622,0,0,0,2.156.477" transform="translate(-13372.859 -11873.075)" fill="#3e3e3e"/>
      <path id="Trazado_718463" data-name="Trazado 718463" d="M263.872,127.124a.872.872,0,0,0,.942-.614,15.015,15.015,0,0,1,1.02-2.526,41.58,41.58,0,0,0,4.111,2.247.872.872,0,1,0,.749-1.575,39.768,39.768,0,0,1-4.7-2.636.873.873,0,0,0-1.229.285,16.877,16.877,0,0,0-1.2,2.472,2.376,2.376,0,0,0-1.186-.77,2.284,2.284,0,0,1-.516-.23.872.872,0,0,0-.919,1.483,3.956,3.956,0,0,0,.869.4.709.709,0,0,1,.455.29,4.056,4.056,0,0,0,1.3,1.084.864.864,0,0,0,.3.094" transform="translate(-13372.984 -11877.923)" fill="#3e3e3e"/>
    </g>
  </g>
</svg>
