<svg xmlns="http://www.w3.org/2000/svg" xmlns:xlink="http://www.w3.org/1999/xlink" width="88.426" height="71.548" viewBox="0 0 88.426 71.548">
  <defs>
    <clipPath id="clip-path">
      <rect id="Rectángulo_346374" data-name="Rectángulo 346374" width="18.913" height="43.064" transform="translate(0)" fill="none" stroke="#12263f" stroke-width="1"/>
    </clipPath>
  </defs>
  <g id="Grupo_1009262" data-name="Grupo 1009262" transform="translate(-859.655 -284.306)">
    <g id="Grupo_1009259" data-name="Grupo 1009259" transform="translate(849.562 290.616) rotate(-68)">
      <g id="Grupo_1002212" data-name="Grupo 1002212" transform="translate(-24.283 65.362)" clip-path="url(#clip-path)">
        <path id="Trazado_707910" data-name="Trazado 707910" d="M4.1,37.527C-1.075,27.176-.5,11.5,1.225,0" transform="translate(9.957 4.132)" fill="none" stroke="#12263f" stroke-linecap="round" stroke-linejoin="round" stroke-width="3"/>
        <path id="Trazado_707911" data-name="Trazado 707911" d="M0,8.625C3.45,5.175,7.476,2.875,10.925,0A31.96,31.96,0,0,0,16.1,9.775" transform="translate(1.406 1.406)" fill="none" stroke="#12263f" stroke-linecap="round" stroke-linejoin="round" stroke-width="3"/>
      </g>
    </g>
    <g id="Grupo_1009260" data-name="Grupo 1009260" transform="translate(13844.896 12109.998)">
      <path id="Trazado_718484" data-name="Trazado 718484" d="M3.828,7.031l-.114-.165C3.479,6.028,3.244,5.184,3,4.347A1.339,1.339,0,0,1,2.94,3.68c.1-.368.5-.559.844-.7A58.346,58.346,0,0,1,13.144.056a1.03,1.03,0,0,1,.7.013.994.994,0,0,1,.413.647,13.067,13.067,0,0,1,.508,2.653v.019A6.9,6.9,0,0,1,20.855,7.24a10.9,10.9,0,0,1,.869,8.263,8.464,8.464,0,0,0-.7,4.182c.222,1.383.686,3.573,1.758,4.531a17.958,17.958,0,0,0,1.529,1.035c1.739,1.225,3.472,5.864,4.087,7.819q2.589,9.244,4.81,18.595a6.842,6.842,0,0,1,.266,2.551,2.306,2.306,0,0,1-1.5,1.923c-1.885.533-3.763-2.24-5.489-1.314-1.282.692-.959,2.678-1.815,3.859a2.224,2.224,0,0,1-2.348.812,7.03,7.03,0,0,1-2.037-1.339,2.071,2.071,0,0,0-2.272-.336c-1.155.787-.368,2.869-1.39,3.827a1.845,1.845,0,0,1-2.3-.057,5.01,5.01,0,0,1-1.4-2.044A110.966,110.966,0,0,1,8.6,47.641c-.743-2.259-2.221-6.606-2.843-8.9a12.069,12.069,0,0,1-.6-4.258,12.707,12.707,0,0,1,2.063-5l-.051-.032c-.952-2.793-.876-7.1-3.249-9.095C1.981,18.721.471,17.68.077,14.938A7.784,7.784,0,0,1,1.956,8.706,11.321,11.321,0,0,1,3.828,7.031" transform="matrix(0.921, 0.391, -0.391, 0.921, -12961.006, -11825.583)" fill="#faf3e6"/>
      <path id="Trazado_718485" data-name="Trazado 718485" d="M4.411,5.194A20.775,20.775,0,0,1,9.8,3.438a3.549,3.549,0,0,0,1.334-.412,1.708,1.708,0,0,0,.041-2.7A3.316,3.316,0,0,0,8.414.278L2.936,1.809C1.9,2.1.724,2.5.311,3.5c-1.463,3.541,2.622,2.411,4.1,1.693" transform="matrix(0.921, 0.391, -0.391, 0.921, -12958.887, -11824.364)" fill="#ffa031"/>
      <path id="Trazado_718486" data-name="Trazado 718486" d="M1.751,8.774a.952.952,0,0,1-.915-.694L.123,5.556A2.145,2.145,0,0,1,.056,4.388a2.153,2.153,0,0,1,1.407-1.34A59.48,59.48,0,0,1,10.974.078a1.935,1.935,0,0,1,1.352.1A1.909,1.909,0,0,1,13.209,1.4a14.213,14.213,0,0,1,.544,2.844.952.952,0,1,1-1.9.166,12.316,12.316,0,0,0-.471-2.464l0-.006a57.567,57.567,0,0,0-9.2,2.873,2.454,2.454,0,0,0-.258.119c.012.035.025.08.033.109l.712,2.525a.952.952,0,0,1-.916,1.211" transform="matrix(0.921, 0.391, -0.391, 0.921, -12958.825, -11825.692)" fill="#3e3e3e"/>
      <path id="Trazado_718487" data-name="Trazado 718487" d="M8.122,26.67a.953.953,0,0,1-.9-.644,23.332,23.332,0,0,1-.735-3.085c-.421-2.182-.857-4.438-2.229-5.593l-.466-.39C2.027,15.49.5,14.223.087,11.347A8.748,8.748,0,0,1,2.2,4.341,13.364,13.364,0,0,1,8.173.541L9.851.04A.952.952,0,1,1,10.4,1.864l-1.678.5a11.574,11.574,0,0,0-5.1,3.245,6.824,6.824,0,0,0-1.646,5.464c.312,2.152,1.4,3.055,3.038,4.421l.475.4c1.887,1.59,2.411,4.3,2.872,6.689a22.1,22.1,0,0,0,.668,2.83.953.953,0,0,1-.9,1.26" transform="matrix(0.921, 0.391, -0.391, 0.921, -12963.341, -11822.521)" fill="#3e3e3e"/>
      <path id="Trazado_718488" data-name="Trazado 718488" d="M16.549,28.936a.953.953,0,0,1-.907-.665c-.536-1.691-1.237-3.587-2.788-4.683-.173-.122-.354-.233-.535-.344a7.329,7.329,0,0,1-1.074-.755c-.981-.871-1.657-2.536-2.067-5.088a8.021,8.021,0,0,1,.556-4.066c.06-.181.12-.366.181-.557a9.929,9.929,0,0,0-.807-7.535A6.044,6.044,0,0,0,1.294,2.371.952.952,0,0,1,.61.594,7.973,7.973,0,0,1,10.794,4.357a11.844,11.844,0,0,1,.936,8.994c-.062.2-.125.389-.187.577a6.339,6.339,0,0,0-.485,3.17c.414,2.581,1.018,3.582,1.452,3.967a5.8,5.8,0,0,0,.807.557c.215.133.43.266.636.411,1.936,1.369,2.828,3.53,3.5,5.663a.953.953,0,0,1-.908,1.24" transform="matrix(0.921, 0.391, -0.391, 0.921, -12951.922, -11819.076)" fill="#3e3e3e"/>
      <path id="Trazado_718489" data-name="Trazado 718489" d="M7.959,30.865A3.162,3.162,0,0,1,6.1,30.238a5.887,5.887,0,0,1-1.69-2.415,111.062,111.062,0,0,1-4.36-12,.952.952,0,1,1,1.814-.58,109.483,109.483,0,0,0,4.281,11.8,4.289,4.289,0,0,0,1.1,1.682.946.946,0,0,0,1.077.121,2.334,2.334,0,0,0,.339-1.294,3.244,3.244,0,0,1,1.169-2.628,2.932,2.932,0,0,1,3.362.354c.2.143.393.3.586.457a3.651,3.651,0,0,0,1.152.737,1.273,1.273,0,0,0,1.319-.455,4.188,4.188,0,0,0,.5-1.409,3.738,3.738,0,0,1,1.634-2.729c1.36-.73,2.669,0,3.72.583.739.411,1.437.8,1.961.653a1.411,1.411,0,0,0,.81-1.154,5.959,5.959,0,0,0-.251-2.184c-1.47-6.187-3.084-12.433-4.8-18.564A.952.952,0,0,1,21.665.7C23.383,6.851,25,13.121,26.479,19.332a7.63,7.63,0,0,1,.281,2.911,3.221,3.221,0,0,1-2.178,2.7,4.457,4.457,0,0,1-3.4-.822c-.9-.5-1.482-.792-1.894-.57-.348.187-.49.69-.683,1.5a5.693,5.693,0,0,1-.815,2.085A3.175,3.175,0,0,1,14.408,28.3a5.172,5.172,0,0,1-1.832-1.09c-.164-.133-.327-.267-.5-.389-.459-.33-.967-.47-1.182-.324-.233.159-.286.685-.342,1.243a3.7,3.7,0,0,1-.927,2.488,2.384,2.384,0,0,1-1.668.64" transform="matrix(0.921, 0.391, -0.391, 0.921, -12966.512, -11793.032)" fill="#3e3e3e"/>
      <path id="Trazado_718490" data-name="Trazado 718490" d="M3.634,21.869a.952.952,0,0,1-.9-.656c-.743-2.268-1.438-4.587-2.065-6.894A12.945,12.945,0,0,1,.032,9.727,12.049,12.049,0,0,1,1.954,4.8,11.08,11.08,0,0,0,3.618.828a.952.952,0,1,1,1.888.248A12.675,12.675,0,0,1,3.6,5.754,10.461,10.461,0,0,0,1.928,9.9,11.23,11.23,0,0,0,2.5,13.82c.617,2.275,1.3,4.563,2.036,6.8a.952.952,0,0,1-.9,1.249" transform="matrix(0.921, 0.391, -0.391, 0.921, -12966.804, -11801.247)" fill="#3e3e3e"/>
      <path id="Trazado_718491" data-name="Trazado 718491" d="M.951,3.5A.952.952,0,0,1,.733,1.619L7.46.026A.952.952,0,0,1,7.9,1.878L1.171,3.471a.949.949,0,0,1-.22.026" transform="matrix(0.921, 0.391, -0.391, 0.921, -12960.22, -11801.442)" fill="#3e3e3e"/>
      <path id="Trazado_718492" data-name="Trazado 718492" d="M.952,5.376A.952.952,0,0,1,.644,3.523,67.161,67.161,0,0,0,8.831.1.952.952,0,0,1,9.68,1.8,69.02,69.02,0,0,1,1.26,5.325a.945.945,0,0,1-.308.052" transform="matrix(0.921, 0.391, -0.391, 0.921, -12960.411, -11808.72)" fill="#3e3e3e"/>
      <path id="Trazado_718493" data-name="Trazado 718493" d="M.953,5.891a.952.952,0,0,1-.429-1.8A56.386,56.386,0,0,1,11.1.033a.952.952,0,1,1,.5,1.837A54.471,54.471,0,0,0,1.381,5.789a.949.949,0,0,1-.428.1" transform="matrix(0.921, 0.391, -0.391, 0.921, -12965.793, -11786.362)" fill="#3e3e3e"/>
    </g>
  </g>
</svg>
