<svg xmlns="http://www.w3.org/2000/svg" width="117.028" height="117.028" viewBox="0 0 117.028 117.028">
  <g id="Grupo_1009933" data-name="Grupo 1009933" transform="translate(-286 -4492)">
    <g id="Trazado_718059" data-name="Trazado 718059" transform="translate(286 4492)" fill="#fff">
      <path d="M 58.513916015625 115.52783203125 C 50.8164176940918 115.52783203125 43.34998321533203 114.0205993652344 36.32198333740234 111.0480194091797 C 32.94400024414062 109.6192474365234 29.68581581115723 107.8507461547852 26.63793182373047 105.7916488647461 C 23.61863327026367 103.7518310546875 20.77935028076172 101.4092178344727 18.19898223876953 98.82884979248047 C 15.61861610412598 96.24848175048828 13.27599906921387 93.40920257568359 11.23618221282959 90.38990020751953 C 9.177083015441895 87.34201812744141 7.40858268737793 84.08383178710938 5.97981595993042 80.70584869384766 C 3.007232666015625 73.67784881591797 1.499999403953552 66.21141815185547 1.499999403953552 58.513916015625 C 1.499999403953552 50.8164176940918 3.007232666015625 43.34998321533203 5.97981595993042 36.32198333740234 C 7.40858268737793 32.94400024414062 9.177083015441895 29.68581581115723 11.23618221282959 26.63793182373047 C 13.27599906921387 23.61863327026367 15.61861610412598 20.77935028076172 18.19898223876953 18.19898223876953 C 20.77935028076172 15.61861610412598 23.61863327026367 13.27599906921387 26.63793182373047 11.23618221282959 C 29.68581581115723 9.177083015441895 32.94400024414062 7.40858268737793 36.32198333740234 5.97981595993042 C 43.34998321533203 3.007232666015625 50.8164176940918 1.499999403953552 58.513916015625 1.499999403953552 C 66.21141815185547 1.499999403953552 73.67784881591797 3.007232666015625 80.70584869384766 5.97981595993042 C 84.08383178710938 7.40858268737793 87.34201812744141 9.177083015441895 90.38990020751953 11.23618221282959 C 93.40920257568359 13.27599906921387 96.24848175048828 15.61861610412598 98.82884979248047 18.19898223876953 C 101.4092178344727 20.77935028076172 103.7518310546875 23.61863327026367 105.7916488647461 26.63793182373047 C 107.8507461547852 29.68581581115723 109.6192474365234 32.94400024414062 111.0480194091797 36.32198333740234 C 114.0205993652344 43.34998321533203 115.52783203125 50.8164176940918 115.52783203125 58.513916015625 C 115.52783203125 66.21141815185547 114.0205993652344 73.67784881591797 111.0480194091797 80.70584869384766 C 109.6192474365234 84.08383178710938 107.8507461547852 87.34201812744141 105.7916488647461 90.38990020751953 C 103.7518310546875 93.40920257568359 101.4092178344727 96.24848175048828 98.82884979248047 98.82884979248047 C 96.24848175048828 101.4092178344727 93.40920257568359 103.7518310546875 90.38990020751953 105.7916488647461 C 87.34201812744141 107.8507461547852 84.08383178710938 109.6192474365234 80.70584869384766 111.0480194091797 C 73.67784881591797 114.0205993652344 66.21141815185547 115.52783203125 58.513916015625 115.52783203125 Z" stroke="none"/>
      <path d="M 58.513916015625 2.999992370605469 C 51.01826477050781 2.999992370605469 43.74840545654297 4.467353820800781 36.90631866455078 7.361312866210938 C 33.61753082275391 8.752349853515625 30.44525909423828 10.47422790527344 27.47764587402344 12.47911834716797 C 24.53744506835938 14.46547698974609 21.77251434326172 16.74677276611328 19.2596435546875 19.2596435546875 C 16.74677276611328 21.77251434326172 14.46547698974609 24.53744506835938 12.47911834716797 27.47764587402344 C 10.47422790527344 30.44525909423828 8.752349853515625 33.61753082275391 7.361312866210938 36.90631866455078 C 4.467353820800781 43.74840545654297 2.999992370605469 51.01826477050781 2.999992370605469 58.513916015625 C 2.999992370605469 66.00956726074219 4.467353820800781 73.27940368652344 7.361312866210938 80.12152099609375 C 8.752349853515625 83.41029357910156 10.47422790527344 86.58255004882812 12.47911834716797 89.55018615722656 C 14.46547698974609 92.49038696289062 16.74677276611328 95.25531768798828 19.2596435546875 97.76817321777344 C 21.77251434326172 100.2810440063477 24.53744506835938 102.5623321533203 27.47764587402344 104.548698425293 C 30.44525909423828 106.5535888671875 33.61753082275391 108.2754592895508 36.90631866455078 109.6664962768555 C 43.74840545654297 112.5604629516602 51.01826477050781 114.0278244018555 58.513916015625 114.0278244018555 C 66.00956726074219 114.0278244018555 73.27942657470703 112.5604629516602 80.12152099609375 109.6664962768555 C 83.41029357910156 108.2754592895508 86.58255004882812 106.5535888671875 89.55018615722656 104.548698425293 C 92.49038696289062 102.5623321533203 95.25531768798828 100.2810440063477 97.7681884765625 97.7681884765625 C 100.2810440063477 95.25531768798828 102.5623321533203 92.49038696289062 104.548698425293 89.55018615722656 C 106.5535888671875 86.58255004882812 108.2754592895508 83.41029357910156 109.6664962768555 80.12152099609375 C 112.5604629516602 73.27942657470703 114.0278244018555 66.00956726074219 114.0278244018555 58.513916015625 C 114.0278244018555 51.01826477050781 112.5604629516602 43.74840545654297 109.6664962768555 36.90631866455078 C 108.2754592895508 33.61753082275391 106.5535888671875 30.44525909423828 104.548698425293 27.47764587402344 C 102.5623321533203 24.53744506835938 100.2810440063477 21.77251434326172 97.76817321777344 19.2596435546875 C 95.25531768798828 16.74677276611328 92.49038696289062 14.46547698974609 89.55018615722656 12.47911834716797 C 86.58255004882812 10.47422790527344 83.41029357910156 8.752349853515625 80.12152099609375 7.361312866210938 C 73.27940368652344 4.467353820800781 66.00956726074219 2.999992370605469 58.513916015625 2.999992370605469 M 58.513916015625 -7.62939453125e-06 C 90.83026123046875 -7.62939453125e-06 117.0278244018555 26.19757080078125 117.0278244018555 58.513916015625 C 117.0278244018555 90.83026123046875 90.83026123046875 117.0278244018555 58.513916015625 117.0278244018555 C 26.19757080078125 117.0278244018555 -7.62939453125e-06 90.83026123046875 -7.62939453125e-06 58.513916015625 C -7.62939453125e-06 26.19757080078125 26.19757080078125 -7.62939453125e-06 58.513916015625 -7.62939453125e-06 Z" stroke="none" fill="#4db1f0"/>
    </g>
    <g id="Grupo_1009929" data-name="Grupo 1009929" transform="translate(5768 11774)">
      <path id="Trazado_728148" data-name="Trazado 728148" d="M27,53H16l-4,5H5L1,63H63l-9-6H50l-2-4H27Z" transform="translate(-5455 -7255)" fill="#4db1f0"/>
      <g id="Grupo_1009928" data-name="Grupo 1009928" transform="translate(-5455 -7255)">
        <path id="Trazado_728149" data-name="Trazado 728149" d="M56.713,5H34V15H56.724a1.492,1.492,0,0,0,.943-.342l5.1-4.145a.678.678,0,0,0,0-1.026L57.676,5.348A1.527,1.527,0,0,0,56.713,5Z" fill="#ffa031"/>
        <path id="Trazado_728150" data-name="Trazado 728150" d="M7.293,15H30V5H7.293a1.538,1.538,0,0,0-.969.35L1.236,9.488a.673.673,0,0,0,0,1.024L6.324,14.65a1.538,1.538,0,0,0,.969.35Z" fill="#ffa031"/>
        <path id="Trazado_728151" data-name="Trazado 728151" d="M56.724,21H34V31H56.724a1.492,1.492,0,0,0,.943-.342l5.1-4.145a.678.678,0,0,0,0-1.026l-5.1-4.145A1.492,1.492,0,0,0,56.724,21Z" fill="#ffa031"/>
      </g>
      <path id="Trazado_728152" data-name="Trazado 728152" d="M32,1a2,2,0,0,1,2,2V53.512a.488.488,0,0,1-.488.488H30.488A.488.488,0,0,1,30,53.512V3A2,2,0,0,1,32,1Z" transform="translate(-5455 -7255)" fill="#b0723b"/>
      <path id="Trazado_728153" data-name="Trazado 728153" d="M58.3,20.567A2.5,2.5,0,0,0,56.724,20H35V16H56.724a2.5,2.5,0,0,0,1.574-.566l5.1-4.146a1.676,1.676,0,0,0,0-2.577L58.307,4.573A2.536,2.536,0,0,0,56.714,4H35V3a3,3,0,1,0-6,0V4H7.293a2.548,2.548,0,0,0-1.6.574L.6,8.712a1.674,1.674,0,0,0,0,2.576l5.088,4.138a2.548,2.548,0,0,0,1.6.574H29V53.512A1.49,1.49,0,0,0,30.488,55h3.024A1.49,1.49,0,0,0,35,53.512V32H56.724a2.5,2.5,0,0,0,1.574-.566l5.1-4.146a1.676,1.676,0,0,0,0-2.577ZM56.714,6a.524.524,0,0,1,.331.125L61.811,10l-4.776,3.883a.493.493,0,0,1-.311.117H35V6ZM7.293,14a.531.531,0,0,1-.338-.126L2.192,10,6.955,6.126A.531.531,0,0,1,7.293,6H29v8ZM33,53H31V3a1,1,0,0,1,2,0ZM57.035,29.883a.493.493,0,0,1-.311.117H35V22H56.724a.494.494,0,0,1,.312.118L61.811,26Z" transform="translate(-5455 -7255)"/>
      <path id="Trazado_728154" data-name="Trazado 728154" d="M25,7h2V9H25Z" transform="translate(-5455 -7255)"/>
      <path id="Trazado_728155" data-name="Trazado 728155" d="M22,7h2V9H22Z" transform="translate(-5455 -7255)"/>
      <path id="Trazado_728156" data-name="Trazado 728156" d="M25,10h2v2H25Z" transform="translate(-5455 -7255)"/>
      <path id="Trazado_728157" data-name="Trazado 728157" d="M36,7h2V9H36Z" transform="translate(-5455 -7255)"/>
      <path id="Trazado_728158" data-name="Trazado 728158" d="M39,7h2V9H39Z" transform="translate(-5455 -7255)"/>
      <path id="Trazado_728159" data-name="Trazado 728159" d="M36,10h2v2H36Z" transform="translate(-5455 -7255)"/>
      <path id="Trazado_728160" data-name="Trazado 728160" d="M36,23h2v2H36Z" transform="translate(-5455 -7255)"/>
      <path id="Trazado_728161" data-name="Trazado 728161" d="M39,23h2v2H39Z" transform="translate(-5455 -7255)"/>
      <path id="Trazado_728162" data-name="Trazado 728162" d="M36,26h2v2H36Z" transform="translate(-5455 -7255)"/>
      <path id="Trazado_728163" data-name="Trazado 728163" d="M63,64H1a1,1,0,0,1-.781-1.625l4-5A1,1,0,0,1,5,57h6.52l3.7-4.625A1,1,0,0,1,16,52H27v2H16.48l-3.7,4.625A1,1,0,0,1,12,59H5.48l-2.4,3H59.7l-6-4H50a1,1,0,0,1-.9-.553L47.382,54H37V52H48a1,1,0,0,1,.9.553L50.618,56H54a1.006,1.006,0,0,1,.555.168l9,6A1,1,0,0,1,63,64Z" transform="translate(-5455 -7255)"/>
      <path id="Trazado_728164" data-name="Trazado 728164" d="M18,56h2v2H18Z" transform="translate(-5455 -7255)"/>
      <path id="Trazado_728165" data-name="Trazado 728165" d="M16,59h2v2H16Z" transform="translate(-5455 -7255)"/>
      <path id="Trazado_728166" data-name="Trazado 728166" d="M21,58h2v2H21Z" transform="translate(-5455 -7255)"/>
      <path id="Trazado_728167" data-name="Trazado 728167" d="M45,57h2v2H45Z" transform="translate(-5455 -7255)"/>
      <path id="Trazado_728168" data-name="Trazado 728168" d="M40,59h2v2H40Z" transform="translate(-5455 -7255)"/>
      <path id="Trazado_728169" data-name="Trazado 728169" d="M36,58h2v2H36Z" transform="translate(-5455 -7255)"/>
      <path id="Trazado_728170" data-name="Trazado 728170" d="M52,28a49.333,49.333,0,0,1-18-3.286V31H56.724a1.492,1.492,0,0,0,.943-.342L62.161,27A51.91,51.91,0,0,1,52,28Z" transform="translate(-5455 -7255)" opacity="0.1"/>
      <path id="Trazado_728171" data-name="Trazado 728171" d="M10.1,5H7.293a1.538,1.538,0,0,0-.969.35L1.236,9.488a.673.673,0,0,0,0,1.024L6.324,14.65a1.538,1.538,0,0,0,.969.35H30V13.988C19.6,13.865,11.116,9.973,10.1,5Z" transform="translate(-5455 -7255)" opacity="0.1"/>
      <path id="Trazado_728172" data-name="Trazado 728172" d="M50.1,12.849C43.334,11.765,37.56,9.109,34,5.824V15H56.724a1.492,1.492,0,0,0,.943-.342l1.8-1.461a37.734,37.734,0,0,1-9.367-.348Z" transform="translate(-5455 -7255)" opacity="0.1"/>
      <path id="Trazado_728173" data-name="Trazado 728173" d="M47.5,60c-10.649,0-20.2-2.712-26.7-7H16l-4,5H5L1,63H63l-5.7-3.8a60.062,60.062,0,0,1-9.8.8Z" transform="translate(-5455 -7255)" opacity="0.1"/>
    </g>
  </g>
</svg>
