<svg xmlns="http://www.w3.org/2000/svg" xmlns:xlink="http://www.w3.org/1999/xlink" width="117.028" height="117.028" viewBox="0 0 117.028 117.028">
  <defs>
    <clipPath id="clip-path">
      <rect id="Rectángulo_350588" data-name="Rectángulo 350588" width="51.56" height="59.871" transform="translate(0 0)" fill="none"/>
    </clipPath>
  </defs>
  <g id="Grupo_1009932" data-name="Grupo 1009932" transform="translate(-1198.972 -4492)">
    <g id="Trazado_718107" data-name="Trazado 718107" transform="translate(1198.972 4492)" fill="#fff">
      <path d="M 58.513916015625 115.52783203125 C 50.8164176940918 115.52783203125 43.34998321533203 114.0205993652344 36.32198333740234 111.0480194091797 C 32.94400024414062 109.6192474365234 29.68581581115723 107.8507461547852 26.63793182373047 105.7916488647461 C 23.61863327026367 103.7518310546875 20.77935028076172 101.4092178344727 18.19898223876953 98.82884979248047 C 15.61861610412598 96.24848175048828 13.27599906921387 93.40920257568359 11.23618221282959 90.38990020751953 C 9.177083015441895 87.34201812744141 7.40858268737793 84.08383178710938 5.97981595993042 80.70584869384766 C 3.007232666015625 73.67784881591797 1.499999403953552 66.21141815185547 1.499999403953552 58.513916015625 C 1.499999403953552 50.8164176940918 3.007232666015625 43.34998321533203 5.97981595993042 36.32198333740234 C 7.40858268737793 32.94400024414062 9.177083015441895 29.68581581115723 11.23618221282959 26.63793182373047 C 13.27599906921387 23.61863327026367 15.61861610412598 20.77935028076172 18.19898223876953 18.19898223876953 C 20.77935028076172 15.61861610412598 23.61863327026367 13.27599906921387 26.63793182373047 11.23618221282959 C 29.68581581115723 9.177083015441895 32.94400024414062 7.40858268737793 36.32198333740234 5.97981595993042 C 43.34998321533203 3.007232666015625 50.8164176940918 1.499999403953552 58.513916015625 1.499999403953552 C 66.21141815185547 1.499999403953552 73.67784881591797 3.007232666015625 80.70584869384766 5.97981595993042 C 84.08383178710938 7.40858268737793 87.34201812744141 9.177083015441895 90.38990020751953 11.23618221282959 C 93.40920257568359 13.27599906921387 96.24848175048828 15.61861610412598 98.82884979248047 18.19898223876953 C 101.4092178344727 20.77935028076172 103.7518310546875 23.61863327026367 105.7916488647461 26.63793182373047 C 107.8507461547852 29.68581581115723 109.6192474365234 32.94400024414062 111.0480194091797 36.32198333740234 C 114.0205993652344 43.34998321533203 115.52783203125 50.8164176940918 115.52783203125 58.513916015625 C 115.52783203125 66.21141815185547 114.0205993652344 73.67784881591797 111.0480194091797 80.70584869384766 C 109.6192474365234 84.08383178710938 107.8507461547852 87.34201812744141 105.7916488647461 90.38990020751953 C 103.7518310546875 93.40920257568359 101.4092178344727 96.24848175048828 98.82884979248047 98.82884979248047 C 96.24848175048828 101.4092178344727 93.40920257568359 103.7518310546875 90.38990020751953 105.7916488647461 C 87.34201812744141 107.8507461547852 84.08383178710938 109.6192474365234 80.70584869384766 111.0480194091797 C 73.67784881591797 114.0205993652344 66.21141815185547 115.52783203125 58.513916015625 115.52783203125 Z" stroke="none"/>
      <path d="M 58.513916015625 2.999992370605469 C 51.01826477050781 2.999992370605469 43.74840545654297 4.467353820800781 36.90631866455078 7.361312866210938 C 33.61753082275391 8.752349853515625 30.44525909423828 10.47422790527344 27.47764587402344 12.47911834716797 C 24.53744506835938 14.46547698974609 21.77251434326172 16.74677276611328 19.2596435546875 19.2596435546875 C 16.74677276611328 21.77251434326172 14.46547698974609 24.53744506835938 12.47911834716797 27.47764587402344 C 10.47422790527344 30.44525909423828 8.752349853515625 33.61753082275391 7.361312866210938 36.90631866455078 C 4.467353820800781 43.74840545654297 2.999992370605469 51.01826477050781 2.999992370605469 58.513916015625 C 2.999992370605469 66.00956726074219 4.467353820800781 73.27940368652344 7.361312866210938 80.12152099609375 C 8.752349853515625 83.41029357910156 10.47422790527344 86.58255004882812 12.47911834716797 89.55018615722656 C 14.46547698974609 92.49038696289062 16.74677276611328 95.25531768798828 19.2596435546875 97.76817321777344 C 21.77251434326172 100.2810440063477 24.53744506835938 102.5623321533203 27.47764587402344 104.548698425293 C 30.44525909423828 106.5535888671875 33.61753082275391 108.2754592895508 36.90631866455078 109.6664962768555 C 43.74840545654297 112.5604629516602 51.01826477050781 114.0278244018555 58.513916015625 114.0278244018555 C 66.00956726074219 114.0278244018555 73.27942657470703 112.5604629516602 80.12152099609375 109.6664962768555 C 83.41029357910156 108.2754592895508 86.58255004882812 106.5535888671875 89.55018615722656 104.548698425293 C 92.49038696289062 102.5623321533203 95.25531768798828 100.2810440063477 97.7681884765625 97.7681884765625 C 100.2810440063477 95.25531768798828 102.5623321533203 92.49038696289062 104.548698425293 89.55018615722656 C 106.5535888671875 86.58255004882812 108.2754592895508 83.41029357910156 109.6664962768555 80.12152099609375 C 112.5604629516602 73.27942657470703 114.0278244018555 66.00956726074219 114.0278244018555 58.513916015625 C 114.0278244018555 51.01826477050781 112.5604629516602 43.74840545654297 109.6664962768555 36.90631866455078 C 108.2754592895508 33.61753082275391 106.5535888671875 30.44525909423828 104.548698425293 27.47764587402344 C 102.5623321533203 24.53744506835938 100.2810440063477 21.77251434326172 97.76817321777344 19.2596435546875 C 95.25531768798828 16.74677276611328 92.49038696289062 14.46547698974609 89.55018615722656 12.47911834716797 C 86.58255004882812 10.47422790527344 83.41029357910156 8.752349853515625 80.12152099609375 7.361312866210938 C 73.27940368652344 4.467353820800781 66.00956726074219 2.999992370605469 58.513916015625 2.999992370605469 M 58.513916015625 -7.62939453125e-06 C 90.83026123046875 -7.62939453125e-06 117.0278244018555 26.19757080078125 117.0278244018555 58.513916015625 C 117.0278244018555 90.83026123046875 90.83026123046875 117.0278244018555 58.513916015625 117.0278244018555 C 26.19757080078125 117.0278244018555 -7.62939453125e-06 90.83026123046875 -7.62939453125e-06 58.513916015625 C -7.62939453125e-06 26.19757080078125 26.19757080078125 -7.62939453125e-06 58.513916015625 -7.62939453125e-06 Z" stroke="none" fill="#ffa031"/>
    </g>
    <g id="Grupo_1009931" data-name="Grupo 1009931" transform="translate(1231.972 4521)">
      <g id="Grupo_1009930" data-name="Grupo 1009930" clip-path="url(#clip-path)">
        <path id="Trazado_728174" data-name="Trazado 728174" d="M43.389,8.171h0a24.9,24.9,0,0,1,0,35.218L29.2,57.577a4.838,4.838,0,0,1-6.843,0L8.171,43.389A24.9,24.9,0,0,1,43.389,8.171" fill="#68bcf1"/>
        <path id="Trazado_728175" data-name="Trazado 728175" d="M21.853,43.389A24.908,24.908,0,0,1,32.62,1.832,24.9,24.9,0,0,0,8.171,43.389L22.358,57.577a4.84,4.84,0,0,0,6.843,0l3.419-3.42Z" fill="#4db1f0"/>
        <path id="Trazado_728176" data-name="Trazado 728176" d="M25.78,15.8,14.1,22.544V36.305a3.508,3.508,0,0,0,3.508,3.508h3.5L25.78,36.75l4.677,3.063h3.5a3.508,3.508,0,0,0,3.508-3.508V22.544Z" fill="#f2f6fc"/>
        <path id="Trazado_728177" data-name="Trazado 728177" d="M14.1,22.543V36.3a3.509,3.509,0,0,0,3.508,3.508h3.508V18.492Z" fill="#e9edf5"/>
        <path id="Trazado_728178" data-name="Trazado 728178" d="M40.971,19.975,27.535,12.217a3.511,3.511,0,0,0-3.508,0L10.59,19.975A3.508,3.508,0,0,0,14.1,26.051l11.683-6.745,11.682,6.745a3.508,3.508,0,0,0,3.508-6.076" fill="#ffa031"/>
        <path id="Trazado_728179" data-name="Trazado 728179" d="M30.458,39.813H21.1V30.458a4.677,4.677,0,0,1,9.355,0Z" fill="#ffa031"/>
        <path id="Trazado_728180" data-name="Trazado 728180" d="M28.119,26.407a4.677,4.677,0,0,0-7.016,4.05v9.355H25.78V30.457a4.674,4.674,0,0,1,2.339-4.05" fill="#d77a0e"/>
        <path id="Trazado_728181" data-name="Trazado 728181" d="M22,15.527a3.769,3.769,0,0,1,1.461-2.983L10.59,19.975A3.508,3.508,0,0,0,14.1,26.051L25.78,19.306A3.779,3.779,0,0,1,22,15.527" fill="#d77a0e"/>
        <path id="Trazado_728182" data-name="Trazado 728182" d="M11.125,46.343,8.17,43.389a24.9,24.9,0,1,1,35.219,0L29.2,57.577a4.838,4.838,0,0,1-6.843,0l-8.726-8.726" fill="none" stroke="#000" stroke-linecap="round" stroke-linejoin="round" stroke-width="1.754"/>
        <path id="Trazado_728183" data-name="Trazado 728183" d="M14.1,26.216V36.3a3.508,3.508,0,0,0,3.508,3.508H33.955A3.508,3.508,0,0,0,37.463,36.3V26.2" fill="none" stroke="#000" stroke-linecap="round" stroke-linejoin="round" stroke-width="1.754"/>
        <path id="Trazado_728184" data-name="Trazado 728184" d="M33.215,15.5l-5.681-3.28a3.506,3.506,0,0,0-3.508,0L10.59,19.975A3.508,3.508,0,0,0,14.1,26.052L25.78,19.307l11.682,6.745a3.508,3.508,0,0,0,3.508-6.077l-4.713-2.721" fill="none" stroke="#000" stroke-linecap="round" stroke-linejoin="round" stroke-width="1.754"/>
        <path id="Trazado_728185" data-name="Trazado 728185" d="M21.1,39.671V30.457a4.677,4.677,0,0,1,9.355,0v9.214" fill="none" stroke="#000" stroke-linecap="round" stroke-linejoin="round" stroke-width="1.754"/>
      </g>
    </g>
  </g>
</svg>
