<svg xmlns="http://www.w3.org/2000/svg" xmlns:xlink="http://www.w3.org/1999/xlink" width="132.446" height="133.614" viewBox="0 0 132.446 133.614">
  <defs>
    <linearGradient id="linear-gradient" x1="0.255" y1="0.183" x2="1.032" y2="1.188" gradientUnits="objectBoundingBox">
      <stop offset="0" stop-color="#53d8ff"/>
      <stop offset="1" stop-color="#3840f7"/>
    </linearGradient>
    <linearGradient id="linear-gradient-2" x1="-0.404" y1="-0.588" x2="1.174" y2="1.079" xlink:href="#linear-gradient"/>
    <linearGradient id="linear-gradient-3" x1="1.473" y1="-2.835" x2="-0.485" y2="3.391" xlink:href="#linear-gradient"/>
    <linearGradient id="linear-gradient-4" x1="-0.281" y1="1.359" x2="1.473" y2="-0.461" xlink:href="#linear-gradient"/>
    <linearGradient id="linear-gradient-5" x1="-586.191" y1="-22.08" x2="-584.489" y2="-23.246" xlink:href="#linear-gradient"/>
    <linearGradient id="linear-gradient-6" x1="-148.015" y1="-27.282" x2="-147.584" y2="-28.712" xlink:href="#linear-gradient"/>
    <linearGradient id="linear-gradient-7" x1="-560.662" y1="-21.912" x2="-562.531" y2="-20.659" xlink:href="#linear-gradient"/>
    <linearGradient id="linear-gradient-8" x1="0.709" y1="-0.575" x2="0.352" y2="1.353" xlink:href="#linear-gradient"/>
    <linearGradient id="linear-gradient-9" x1="-298.153" y1="-130.546" x2="-297.817" y2="-136.446" xlink:href="#linear-gradient"/>
    <linearGradient id="linear-gradient-10" x1="-471.095" y1="-27.606" x2="-470.564" y2="-28.869" xlink:href="#linear-gradient"/>
    <linearGradient id="linear-gradient-11" x1="-285.801" y1="-129.06" x2="-286.171" y2="-122.712" xlink:href="#linear-gradient"/>
    <linearGradient id="linear-gradient-12" x1="-115.715" y1="-31.309" x2="-116.07" y2="-29.276" xlink:href="#linear-gradient"/>
    <linearGradient id="linear-gradient-13" x1="187.838" y1="85.285" x2="186.485" y2="86.14" xlink:href="#linear-gradient"/>
    <linearGradient id="linear-gradient-14" x1="119.561" y1="57.529" x2="118.162" y2="59.062" xlink:href="#linear-gradient"/>
    <linearGradient id="linear-gradient-15" x1="-91.129" y1="-12.776" x2="-90.66" y2="-14.433" gradientUnits="objectBoundingBox">
      <stop offset="0" stop-color="#2b3582"/>
      <stop offset="1" stop-color="#150e42"/>
    </linearGradient>
    <linearGradient id="linear-gradient-16" x1="-287.721" y1="17.633" x2="-287.684" y2="16.642" gradientUnits="objectBoundingBox">
      <stop offset="0" stop-color="#9f5699"/>
      <stop offset="1" stop-color="#202278"/>
    </linearGradient>
    <linearGradient id="linear-gradient-17" x1="-0.57" y1="10.249" x2="0.81" y2="-2.244" xlink:href="#linear-gradient-16"/>
    <linearGradient id="linear-gradient-18" x1="-236.764" y1="-2951.025" x2="-236.683" y2="-2952.699" gradientUnits="objectBoundingBox">
      <stop offset="0" stop-color="#f9b776"/>
      <stop offset="1" stop-color="#f47960"/>
    </linearGradient>
    <linearGradient id="linear-gradient-19" x1="-9663.899" y1="-228809.625" x2="-9663.899" y2="-228812.125" xlink:href="#linear-gradient-18"/>
    <linearGradient id="linear-gradient-20" x1="-52.819" y1="-26.612" x2="-52.753" y2="-28.372" xlink:href="#linear-gradient-18"/>
    <linearGradient id="linear-gradient-21" x1="-115.212" y1="-15.208" x2="-119.827" y2="-10.025" gradientUnits="objectBoundingBox">
      <stop offset="0" stop-color="#fdf53f"/>
      <stop offset="1" stop-color="#d93c65"/>
    </linearGradient>
    <linearGradient id="linear-gradient-22" x1="-70.485" y1="8.202" x2="-70.707" y2="7.471" gradientUnits="objectBoundingBox">
      <stop offset="0" stop-color="#cb236d"/>
      <stop offset="1" stop-color="#4c246d"/>
    </linearGradient>
    <linearGradient id="linear-gradient-23" x1="-102.661" y1="23.49" x2="-101.406" y2="22.566" xlink:href="#linear-gradient-21"/>
    <linearGradient id="linear-gradient-24" x1="-629.819" y1="154.188" x2="-630.048" y2="153.15" xlink:href="#linear-gradient-18"/>
    <linearGradient id="linear-gradient-25" x1="-688.288" y1="0.039" x2="-694.784" y2="2.056" xlink:href="#linear-gradient-18"/>
    <linearGradient id="linear-gradient-26" x1="-145.324" y1="-14.984" x2="-145.368" y2="-17.065" xlink:href="#linear-gradient-18"/>
    <linearGradient id="linear-gradient-27" x1="-379.334" y1="-25.643" x2="-377.385" y2="-28.914" xlink:href="#linear-gradient-15"/>
    <linearGradient id="linear-gradient-28" x1="-62.735" y1="6.763" x2="-62.124" y2="5.772" xlink:href="#linear-gradient-22"/>
    <linearGradient id="linear-gradient-29" x1="-49.213" y1="0.008" x2="-48.511" y2="1.086" xlink:href="#linear-gradient-15"/>
    <linearGradient id="linear-gradient-30" x1="-119.18" y1="53.445" x2="-119.145" y2="52.756" xlink:href="#linear-gradient-18"/>
    <linearGradient id="linear-gradient-31" x1="-255.158" y1="43.407" x2="-251.837" y2="41.406" xlink:href="#linear-gradient-21"/>
    <linearGradient id="linear-gradient-32" x1="1.245" y1="-1.793" x2="-0.014" y2="1.975" xlink:href="#linear-gradient-21"/>
    <linearGradient id="linear-gradient-33" x1="-81.815" y1="73.463" x2="-82.652" y2="77.712" xlink:href="#linear-gradient-15"/>
    <linearGradient id="linear-gradient-34" x1="-82.75" y1="0.117" x2="-82.727" y2="1.145" xlink:href="#linear-gradient"/>
    <linearGradient id="linear-gradient-35" x1="1.507" y1="-0.058" x2="-2.015" y2="1.893" xlink:href="#linear-gradient"/>
    <linearGradient id="linear-gradient-36" x1="-388.697" y1="-35.523" x2="-388.326" y2="-34.626" xlink:href="#linear-gradient"/>
    <linearGradient id="linear-gradient-37" x1="-166.248" y1="-0.673" x2="-163.801" y2="2.267" xlink:href="#linear-gradient"/>
    <linearGradient id="linear-gradient-38" x1="-0.431" y1="1.053" x2="1.451" y2="-0.071" xlink:href="#linear-gradient"/>
    <linearGradient id="linear-gradient-39" x1="-422.723" y1="-31.815" x2="-418.384" y2="-31.815" xlink:href="#linear-gradient"/>
    <linearGradient id="linear-gradient-40" x1="-7082.348" y1="-437.718" x2="-7082.085" y2="-432.69" xlink:href="#linear-gradient-21"/>
    <linearGradient id="linear-gradient-41" x1="-221.372" y1="-1.072" x2="-217.506" y2="10.864" xlink:href="#linear-gradient-15"/>
    <linearGradient id="linear-gradient-42" x1="-14.38" y1="-34.167" x2="-14.321" y2="-32.48" xlink:href="#linear-gradient"/>
    <linearGradient id="linear-gradient-43" x1="-59.47" y1="-200.943" x2="-60.573" y2="-194.543" xlink:href="#linear-gradient"/>
    <linearGradient id="linear-gradient-44" x1="-68.368" y1="-309.34" x2="-69.647" y2="-299.511" xlink:href="#linear-gradient"/>
    <linearGradient id="linear-gradient-45" x1="-57.4" y1="15.898" x2="-57.357" y2="18.149" xlink:href="#linear-gradient"/>
    <linearGradient id="linear-gradient-46" x1="-316.196" y1="60.776" x2="-317.326" y2="66.908" xlink:href="#linear-gradient"/>
    <linearGradient id="linear-gradient-47" x1="-461.51" y1="72.438" x2="-463.157" y2="79.782" xlink:href="#linear-gradient"/>
    <linearGradient id="linear-gradient-48" x1="-35.043" y1="-8.38" x2="-34.949" y2="-6.804" xlink:href="#linear-gradient"/>
    <linearGradient id="linear-gradient-49" x1="-94.124" y1="-73.474" x2="-95.333" y2="-65.109" xlink:href="#linear-gradient"/>
    <linearGradient id="linear-gradient-50" x1="-89.542" y1="-210.791" x2="-90.695" y2="-187.084" xlink:href="#linear-gradient"/>
    <linearGradient id="linear-gradient-51" x1="12.938" y1="-13.829" x2="9.578" y2="-11.277" xlink:href="#linear-gradient"/>
    <linearGradient id="linear-gradient-52" x1="-3.838" y1="2.851" x2="-5.749" y2="7.037" xlink:href="#linear-gradient"/>
    <linearGradient id="linear-gradient-53" x1="434.816" y1="0.501" x2="435.835" y2="0.501" xlink:href="#linear-gradient-22"/>
    <linearGradient id="linear-gradient-54" x1="0.488" y1="-5.016" x2="0.506" y2="3.006" xlink:href="#linear-gradient-22"/>
    <linearGradient id="linear-gradient-55" x1="903.589" y1="0.501" x2="904.589" y2="0.501" xlink:href="#linear-gradient-22"/>
    <linearGradient id="linear-gradient-56" x1="0.102" y1="-28.648" x2="0.678" y2="12.966" xlink:href="#linear-gradient-22"/>
    <linearGradient id="linear-gradient-57" x1="1207.417" y1="16.919" x2="1208.261" y2="16.919" xlink:href="#linear-gradient-18"/>
    <linearGradient id="linear-gradient-58" x1="1683.335" y1="0.5" x2="1684.335" y2="0.5" xlink:href="#linear-gradient-18"/>
    <linearGradient id="linear-gradient-59" x1="-0.243" y1="1.378" x2="1.332" y2="-0.463" xlink:href="#linear-gradient-15"/>
    <linearGradient id="linear-gradient-60" x1="0.326" y1="0.868" x2="4.753" y2="-8.45" xlink:href="#linear-gradient-15"/>
    <linearGradient id="linear-gradient-61" x1="-0.21" y1="0.171" x2="5.443" y2="2.853" xlink:href="#linear-gradient-21"/>
    <linearGradient id="linear-gradient-62" x1="0.227" y1="0.071" x2="1.925" y2="2.311" xlink:href="#linear-gradient-21"/>
    <linearGradient id="linear-gradient-63" x1="798.388" y1="1.325" x2="798.599" y2="0.323" xlink:href="#linear-gradient-18"/>
    <linearGradient id="linear-gradient-64" x1="665.949" y1="20.22" x2="664.689" y2="20.99" xlink:href="#linear-gradient-18"/>
    <linearGradient id="linear-gradient-65" x1="391.156" y1="20.795" x2="391.828" y2="22.016" xlink:href="#linear-gradient-15"/>
    <linearGradient id="linear-gradient-66" x1="2959.986" y1="59.257" x2="2954.375" y2="61.556" xlink:href="#linear-gradient-18"/>
    <linearGradient id="linear-gradient-67" x1="-0.035" y1="-0.138" x2="2.998" y2="3.434" xlink:href="#linear-gradient-21"/>
    <linearGradient id="linear-gradient-68" x1="-0.15" y1="0.444" x2="1.233" y2="0.536" xlink:href="#linear-gradient-18"/>
    <linearGradient id="linear-gradient-69" x1="0" y1="0.5" x2="1" y2="0.5" xlink:href="#linear-gradient-15"/>
    <linearGradient id="linear-gradient-70" x1="2.091" y1="30.036" x2="3.405" y2="31.554" xlink:href="#linear-gradient-18"/>
    <linearGradient id="linear-gradient-71" x1="4.868" y1="35.403" x2="7.518" y2="37.185" xlink:href="#linear-gradient-18"/>
    <linearGradient id="linear-gradient-72" x1="0.808" y1="0.092" x2="-0.323" y2="2.511" xlink:href="#linear-gradient-15"/>
    <linearGradient id="linear-gradient-73" x1="0.866" y1="-0.602" x2="0.256" y2="1.243" xlink:href="#linear-gradient-15"/>
    <linearGradient id="linear-gradient-74" x1="1.158" y1="-0.414" x2="0.079" y2="1.088" xlink:href="#linear-gradient-15"/>
    <linearGradient id="linear-gradient-75" x1="1.597" y1="-0.337" x2="-0.066" y2="1.099" xlink:href="#linear-gradient-15"/>
  </defs>
  <g id="t3" style="isolation: isolate">
    <g id="Capa_2" data-name="Capa 2" transform="translate(0 0)">
      <g id="Capa_2-2" data-name="Capa 2">
        <g id="Grupo_1009901" data-name="Grupo 1009901">
          <path id="Trazado_728068" data-name="Trazado 728068" d="M126.076,89.7c-12.76,30.047-46.757,46.882-76.236,42.34-4.8-.74-17.949-2.937-29.588-13.321C-2.16,98.727-6.951,59.144,11.13,31.255A69.728,69.728,0,0,1,70.29.024c4.83.125,23.332.888,39.59,14.3a60.909,60.909,0,0,1,12.4,14.077c11.148,17.435,12.106,41.725,3.794,61.309Z" transform="translate(-0.002 0.842)" fill="#f4f7fa" opacity="0.83"/>
          <g id="Grupo_1009883" data-name="Grupo 1009883" transform="translate(2.504)">
            <ellipse id="Elipse_8428" data-name="Elipse 8428" cx="56.386" cy="60.858" rx="56.386" ry="60.858" transform="translate(0 112.664) rotate(-87.49)" fill="url(#linear-gradient)"/>
            <path id="Trazado_728069" data-name="Trazado 728069" d="M23.927,24.779a11.931,11.931,0,0,0-2.173,7.081c.226,2.914,1.7,5.648,1.776,8.577.125,4.962-3.7,9.115-4.892,13.929-1.332,5.383,3.7,11.514,5.7,14.521s1.145-2.438,2.36-4.557,3.841,8.928,7.931,11.358c2.2,1.3,4.775,2.166,6.357,4.176,2.306,2.929,1.667,7.089,1.317,10.8s.171,8.227,3.513,9.878c1.963.974,4.464.639,6.24,1.932,3.116,2.267,1.628,7.2,2.867,10.844,1.34,3.965,4,4.02,8.125,4.861s-.522-8.211,1.41-11.374c1.013-1.659,2.563-2.984,3.365-4.76,1.106-2.462.795-5.757,2.953-7.385,1.613-1.223,3.856-.9,5.882-.911s4.487-.9,4.721-2.906c.2-1.784-1.581-3.21-3.334-3.622S74.431,87,72.717,86.47c-4.916-1.511-7.206-8.382-12.332-8.71C56,77.488,52.33,82.4,48.022,81.547c-2.4-.483-4.043-2.61-5.827-4.285-2.29-2.158-5.134-3.778-6.949-6.341s-2.127-6.668.46-8.46c1.924-1.332,4.651-.787,6.552.576s3.194,3.389,4.588,5.258a3.513,3.513,0,0,0,1.6,1.394c1.854.576,3.21-2.025,2.766-3.918s-1.776-3.552-1.839-5.492c-.109-3.42,3.576-5.593,6.809-6.723s7.042-2.47,7.993-5.757c.335-1.161.249-2.438.763-3.537,1.7-3.63,10.657-5.445,8.515-7.549s-8.935-2.563-10.26-6.8c-.475-1.519-.958-3.521-2.547-3.669C58.072,26,56.6,29.2,54.434,29.742c-1.028.257-1.122,2-1.083,4.152a2.821,2.821,0,0,1-5.64.109,4.5,4.5,0,0,1,.327-1.745,7.908,7.908,0,0,1,2-2.6c3.326-3.178,13.251-6.668,11.171-8.016s-12.052-5.087-13.54-3.023.974.319,1.574,2.758-7.377,2.111-11.07,3.171a2.676,2.676,0,0,1-1.854.07c-.639-.312-.9-1.052-1.254-1.667-1.854-3.311-8.016-1.161-8.016-1.161a10.019,10.019,0,0,0-3.108,3.023Z" transform="translate(-6.563 -3.137)" fill="url(#linear-gradient-2)"/>
            <path id="Trazado_728070" data-name="Trazado 728070" d="M61.228,6.383C60.332,8.05,63,8.027,63.261,9.9c2.4.265,3.381-3.521,5.757-3.965A3.524,3.524,0,0,1,72.384,7.8c.725,1.153,1.067,2.5,1.683,3.716A9.151,9.151,0,0,0,81.343,16.4a2.508,2.508,0,0,0,1.885-.428c1.449-1.278-.623-3.669-.086-5.516.615-2.111,3.661-1.792,5.726-2.571.569-.21,4.939-1.379,5.009-1.987C94,4.833,91.976,4.147,89.7,3.563c-3.841-.989-10.61-.95-13.913-.647-4.4.4-11.724.078-14.56,3.459h0Z" transform="translate(-15.982 0.24)" fill="url(#linear-gradient-3)"/>
            <path id="Trazado_728071" data-name="Trazado 728071" d="M148.647,84.106a55.552,55.552,0,0,0-.242-18.86c-.312-1.659-1.028-3.63-2.7-3.872-1.932-.273-4.292,1.94-5.5.413a2.575,2.575,0,0,1-.016-2.462,16.151,16.151,0,0,1,3.638-5.695,20.353,20.353,0,0,0,2.882-3.085c1.628-2.54.483-6.248-1.823-8.2s-5.274,1.542-7.7.156-2.5-4.744-2.953-7.494c-.335-2.041-1.839-7.564-3.5-4.877s2.212,13.4,6.575,18.533a3.268,3.268,0,0,1,1.059,2.127c-.109,1.94-2.929,1.854-4.83,2.244-2.353.491-5.952-.771-3.965,3.326,1.052,2.158,6.061,5.118,4.713,6.559s-5.484,5.632-7.424,9.021-2.882,7.6-1.418,11.226,5.866,6.115,9.457,4.6c1.683-.717,3.513-2.2,5.079-1.254,1.418.857,1.208,2.914,1.137,4.565s.88,3.848,2.493,3.459a2.638,2.638,0,0,0,1.3-.943c2.259-2.6,3.194-6.092,3.739-9.5Z" transform="translate(-30.056 -5.657)" fill="url(#linear-gradient-4)"/>
            <ellipse id="Elipse_8429" data-name="Elipse 8429" cx="47.754" cy="45.113" rx="47.754" ry="45.113" transform="translate(12.223 9.817)" fill="#fff" opacity="0.2"/>
            <g id="Grupo_1009882" data-name="Grupo 1009882" transform="translate(9.434 4.808)" opacity="0.68">
              <path id="Trazado_728072" data-name="Trazado 728072" d="M97.435,60.338A170.974,170.974,0,0,1,95,90.042c-.444,2.446-.95,4.884-1.566,7.3a69.325,69.325,0,0,1-2.189,7.144c-.436,1.169-.911,2.321-1.441,3.451a28.038,28.038,0,0,1-1.815,3.28,13.4,13.4,0,0,1-2.446,2.859,6.742,6.742,0,0,1-1.6,1.028,4.8,4.8,0,0,1-1.862.444A4.74,4.74,0,0,1,80.2,115.2a6.684,6.684,0,0,1-1.636-.974,12.827,12.827,0,0,1-2.5-2.812,25.843,25.843,0,0,1-1.846-3.264c-.545-1.122-1.021-2.275-1.465-3.443a69.312,69.312,0,0,1-2.212-7.136c-.615-2.415-1.137-4.846-1.581-7.292-.888-4.892-1.5-9.839-1.9-14.794s-.608-9.933-.623-14.9c-.008-2.485.055-4.97.14-7.455s.226-4.97.405-7.447c.366-4.962.9-9.909,1.722-14.817.405-2.454.88-4.892,1.457-7.315a69.123,69.123,0,0,1,2.072-7.167c.413-1.176.873-2.337,1.387-3.467A25.288,25.288,0,0,1,75.4,9.624a12.339,12.339,0,0,1,2.446-2.836,6.315,6.315,0,0,1,1.613-.974,4.577,4.577,0,0,1,1.854-.335,5,5,0,0,1,1.839.428,7.521,7.521,0,0,1,1.6,1,13.731,13.731,0,0,1,2.5,2.789,26.82,26.82,0,0,1,1.9,3.217q.841,1.671,1.527,3.4A67.273,67.273,0,0,1,93.018,23.4c.662,2.4,1.223,4.822,1.706,7.261A156.7,156.7,0,0,1,97.443,60.33Zm-.6,0c0-4.955-.187-9.917-.6-14.856a144.08,144.08,0,0,0-1.948-14.731c-.46-2.438-1-4.853-1.636-7.253a67.831,67.831,0,0,0-2.275-7.066c-.452-1.153-.943-2.29-1.488-3.4a25.794,25.794,0,0,0-1.854-3.21A13.732,13.732,0,0,0,84.6,7.061a6.988,6.988,0,0,0-1.542-.982A4.606,4.606,0,0,0,81.3,5.651a4.217,4.217,0,0,0-1.776.335,6.145,6.145,0,0,0-1.558.95,12.268,12.268,0,0,0-2.376,2.8,24.277,24.277,0,0,0-1.729,3.272c-.506,1.13-.95,2.283-1.348,3.459a71,71,0,0,0-1.994,7.151c-.545,2.415-1,4.853-1.387,7.3-.763,4.9-1.262,9.839-1.581,14.786s-.436,9.909-.428,14.864c-.008,4.955.156,9.917.53,14.856s.95,9.87,1.8,14.755c.428,2.438.927,4.869,1.527,7.268a68.423,68.423,0,0,0,2.15,7.1c.428,1.161.9,2.306,1.426,3.42a25.069,25.069,0,0,0,1.8,3.225,12.341,12.341,0,0,0,2.407,2.75,6.278,6.278,0,0,0,1.542.935,4.362,4.362,0,0,0,1.753.335,4.517,4.517,0,0,0,1.737-.421,6.653,6.653,0,0,0,1.511-.989,12.924,12.924,0,0,0,2.36-2.8,33.159,33.159,0,0,0,3.178-6.668,69.794,69.794,0,0,0,2.127-7.113c.592-2.407,1.083-4.83,1.511-7.276.849-4.884,1.41-9.816,1.792-14.755s.553-9.9.553-14.856Z" transform="translate(-26.606 -5.175)" fill="#fff" style="mix-blend-mode: soft-light;isolation: isolate"/>
              <path id="Trazado_728073" data-name="Trazado 728073" d="M114.487,60.253a75.715,75.715,0,0,1-.639,9.574,69.992,69.992,0,0,1-1.924,9.4,60.737,60.737,0,0,1-7.915,17.4,49.945,49.945,0,0,1-6.061,7.424,42.608,42.608,0,0,1-7.463,6.006,36.1,36.1,0,0,1-8.7,4,32.909,32.909,0,0,1-18.93.008,36.076,36.076,0,0,1-8.7-3.989,42.307,42.307,0,0,1-7.471-6.006,50,50,0,0,1-6.069-7.424A60.938,60.938,0,0,1,32.681,79.23a69.172,69.172,0,0,1-1.932-9.4,74.2,74.2,0,0,1-.639-9.574,72.839,72.839,0,0,1,.639-9.574,69.195,69.195,0,0,1,1.94-9.4,61.223,61.223,0,0,1,7.938-17.4A49.537,49.537,0,0,1,46.7,16.456a42.221,42.221,0,0,1,7.471-5.991,36.188,36.188,0,0,1,8.7-3.981,32.681,32.681,0,0,1,18.915.008,35.862,35.862,0,0,1,8.694,3.989,42.211,42.211,0,0,1,7.463,6A50.283,50.283,0,0,1,104,23.9a60.827,60.827,0,0,1,7.923,17.4,70.241,70.241,0,0,1,1.924,9.4,74.185,74.185,0,0,1,.647,9.566Zm-.693,0a72.741,72.741,0,0,0-.608-9.481,69.238,69.238,0,0,0-1.877-9.317,60.885,60.885,0,0,0-7.7-17.31,49.451,49.451,0,0,0-5.944-7.409,41.238,41.238,0,0,0-7.354-6.006A35.44,35.44,0,0,0,81.7,6.742a31.986,31.986,0,0,0-18.759.008,35.412,35.412,0,0,0-8.6,4,41.569,41.569,0,0,0-7.346,6.014,49.4,49.4,0,0,0-5.936,7.409,60.7,60.7,0,0,0-7.689,17.3,72.36,72.36,0,0,0,.008,37.572,60.678,60.678,0,0,0,7.7,17.294,49.434,49.434,0,0,0,5.936,7.4,42.106,42.106,0,0,0,7.338,6.006,35.8,35.8,0,0,0,8.6,3.981,31.8,31.8,0,0,0,18.728,0,35.5,35.5,0,0,0,8.6-3.981,41.535,41.535,0,0,0,7.354-6,49.784,49.784,0,0,0,5.944-7.4,60.718,60.718,0,0,0,7.712-17.294,68.753,68.753,0,0,0,1.877-9.317,72.741,72.741,0,0,0,.608-9.481Z" transform="translate(-18.58 -5.09)" fill="#fff" style="mix-blend-mode: soft-light;isolation: isolate"/>
              <path id="Trazado_728074" data-name="Trazado 728074" d="M21.017,47.8,33.7,47.716l12.683-.047,25.365-.039,25.365.039,12.683.055,12.683.093s.031.016.031.031a.034.034,0,0,1-.031.031l-12.683.093-12.683.055-25.365.039-25.365-.039L33.7,47.981l-12.683-.086s-.047-.023-.047-.047a.05.05,0,0,1,.047-.047Z" transform="translate(-16.561 -14.49)" fill="#fff" style="mix-blend-mode: soft-light;isolation: isolate"/>
              <path id="Trazado_728075" data-name="Trazado 728075" d="M39.907,20.531l9.006-.086,9.006-.047c3-.023,6.006-.016,9.006-.023l9.006-.016L93.94,20.4l9.006.055c3,.031,6.006.047,9.006.093a.031.031,0,0,1,0,.062c-3,.039-6.006.062-9.006.093l-9.006.055L75.929,20.8l-9.006-.016c-3,0-6.006,0-9.006-.023l-9.006-.047-9.006-.086s-.047-.023-.047-.047A.05.05,0,0,1,39.907,20.531Z" transform="translate(-20.735 -8.464)" fill="#fff" style="mix-blend-mode: soft-light;isolation: isolate"/>
              <path id="Trazado_728076" data-name="Trazado 728076" d="M15.357,75.071l13.789-.086,13.789-.047L70.5,74.9l27.57.039,13.789.055,13.789.093s.031.016.031.031a.034.034,0,0,1-.031.031l-13.789.093L98.074,75.3l-27.57.039L42.934,75.3l-13.789-.047-13.789-.086s-.047-.023-.047-.047a.05.05,0,0,1,.047-.047Z" transform="translate(-15.31 -20.516)" fill="#fff" style="mix-blend-mode: soft-light;isolation: isolate"/>
              <path id="Trazado_728077" data-name="Trazado 728077" d="M21.017,102.351l12.683-.086,12.683-.047,25.365-.039,25.365.039,12.683.055,12.683.093s.031.016.031.031a.034.034,0,0,1-.031.031l-12.683.093-12.683.055-25.365.039-25.365-.039L33.7,102.531l-12.683-.086s-.047-.023-.047-.047a.05.05,0,0,1,.047-.047Z" transform="translate(-16.561 -26.544)" fill="#fff" style="mix-blend-mode: soft-light;isolation: isolate"/>
              <path id="Trazado_728078" data-name="Trazado 728078" d="M114.25,129.842H42.206a.156.156,0,0,1,0-.312H114.25a.156.156,0,0,1,0,.312Z" transform="translate(-21.219 -32.588)" fill="#fff" style="mix-blend-mode: soft-light;isolation: isolate"/>
            </g>
          </g>
          <g id="Grupo_1009885" data-name="Grupo 1009885" transform="translate(66.372 113.668)">
            <g id="Grupo_1009884" data-name="Grupo 1009884" transform="translate(7.476)">
              <ellipse id="Elipse_8430" data-name="Elipse 8430" cx="1.083" cy="5.484" rx="1.083" ry="5.484" transform="matrix(0.728, -0.686, 0.686, 0.728, 0.242, 1.486)" fill="url(#linear-gradient-5)"/>
              <path id="Trazado_728079" data-name="Trazado 728079" d="M95.808,145.81s-1.021.615-1.028.615l7.845,8.32.709-.958-7.518-7.977Z" transform="translate(-94.78 -145.045)" fill="url(#linear-gradient-6)"/>
            </g>
            <ellipse id="Elipse_8431" data-name="Elipse 8431" cx="1.13" cy="5.718" rx="1.13" ry="5.718" transform="matrix(0.728, -0.686, 0.686, 0.728, 6.647, 2.151)" fill="url(#linear-gradient-7)"/>
            <path id="Trazado_728080" data-name="Trazado 728080" d="M100.123,154.621c.382-.366-.888-2.337-2.851-4.417s-3.856-3.467-4.246-3.1h0l-7.7,8.71c-.491.467.374,2.181,1.94,3.841s3.225,2.625,3.716,2.158l9.154-7.183h0Z" transform="translate(-85.184 -145.318)" opacity="0.79" fill="url(#linear-gradient-8)"/>
          </g>
          <g id="Grupo_1009887" data-name="Grupo 1009887" transform="translate(98.961 115.156)">
            <g id="Grupo_1009886" data-name="Grupo 1009886">
              <ellipse id="Elipse_8432" data-name="Elipse 8432" cx="4.729" cy="0.935" rx="4.729" ry="0.935" transform="translate(0 8.005) rotate(-57.83)" fill="url(#linear-gradient-9)"/>
              <path id="Trazado_728081" data-name="Trazado 728081" d="M128.04,155.4l.74.724,5.251-8.351-.958-.382Z" transform="translate(-127.243 -146.882)" fill="url(#linear-gradient-10)"/>
            </g>
            <ellipse id="Elipse_8433" data-name="Elipse 8433" cx="4.931" cy="0.974" rx="4.931" ry="0.974" transform="translate(0.709 8.713) rotate(-57.83)" fill="url(#linear-gradient-11)"/>
            <path id="Trazado_728082" data-name="Trazado 728082" d="M134.034,148.393c-.39-.242-1.761,1.246-3.077,3.334s-2.057,3.973-1.675,4.215h0l8.943,4.557c.491.312,1.737-.787,2.789-2.446s1.5-3.264,1-3.568l-7.977-6.092Z" transform="translate(-127.495 -147.098)" opacity="0.79" fill="url(#linear-gradient-12)"/>
          </g>
          <g id="Grupo_1009888" data-name="Grupo 1009888" transform="translate(74.258 97.175)">
            <path id="Trazado_728083" data-name="Trazado 728083" d="M96.879,126.177a22.31,22.31,0,0,0,2.423,6.092.67.67,0,0,0,.95.156l3.311-2.47a.6.6,0,0,0,.132-.179c.584-1.1-1.457-3.56-3.319-5.921l.911-.086,6.341,5.29-7.206,7.518a10.856,10.856,0,0,1-3.545-10.4Z" transform="translate(-95.608 -123.682)" fill="url(#linear-gradient-13)"/>
            <path id="Trazado_728084" data-name="Trazado 728084" d="M112.526,134.6c-3.436-7.05-9.566-10.657-11.093-10.914a1.937,1.937,0,0,0-.67.008l-.686.132a10.18,10.18,0,0,1,4.152,3.412,1.834,1.834,0,0,1-.109,2.322,20.516,20.516,0,0,1-3.864,3.1,1.878,1.878,0,0,1-2.688-.7,12.567,12.567,0,0,1-.989-5.8l-.911.53a.6.6,0,0,0-.358.522c1.441,13.726,5.1,15.448,5.1,15.448s1.909.242,7.2-2.734,4.923-5.321,4.923-5.321Z" transform="translate(-95.307 -123.657)" fill="url(#linear-gradient-14)"/>
          </g>
          <path id="Trazado_728085" data-name="Trazado 728085" d="M26.385,104.255c.491-1.091,1.472-1.122,2.376-1.2,2.08-.171,4.6-.538,6.419,1.145a2.6,2.6,0,0,1,.826,1.5c.086.553-3.459,3.023-3.7,3.638-.6,1.527-3.584,4.246-4.144,3.529a10.389,10.389,0,0,1-2.119-5.648,6.6,6.6,0,0,1,.343-2.96Z" transform="translate(-5.738 -21.896)" fill="url(#linear-gradient-15)"/>
          <path id="Trazado_728086" data-name="Trazado 728086" d="M.051,150.167a1.868,1.868,0,0,1,.288-1.044,1.334,1.334,0,0,1,1.667-.1,1.832,1.832,0,0,1,.943,1.542.461.461,0,0,1-.031.21,2.781,2.781,0,0,0-.608.639,3.545,3.545,0,0,1-.031.405,7.891,7.891,0,0,0-.047,1.215c.016.358,1.815,1.839,1.916,2.111.335.927-.483,1.48-1.324,1.566C.6,156.866.09,154.592.012,153.68c-.062-.826,0-3.3.031-3.513Z" transform="translate(0.014 -32.034)" fill="url(#linear-gradient-16)"/>
          <path id="Trazado_728087" data-name="Trazado 728087" d="M30.3,162a2.348,2.348,0,0,1,1.987-1.161.7.7,0,0,1,.265.039,3.364,3.364,0,0,0,1.909,1.309c1.363.358,2.812.171,4.176.553a.133.133,0,0,1,.055.008,1.842,1.842,0,0,1-.047,1.192,1.861,1.861,0,0,1-2.018,1.044c-1.106-.07-2.2-.2-3.3-.3-.538-.047-1.075-.109-1.6-.179a2.371,2.371,0,0,1-1.317-.39,1.686,1.686,0,0,1-.086-2.119Z" transform="translate(-6.615 -34.699)" fill="url(#linear-gradient-17)"/>
          <g id="Grupo_1009889" data-name="Grupo 1009889" transform="translate(30.907 104.24)">
            <path id="Trazado_728088" data-name="Trazado 728088" d="M39.676,133.454c.023-.506,1.3-.787,2.283-.717.335.023.678.125.756.3s-.07.327-.382.405c-.047.016-.179.062-.047.008l-.125.047c-.016,0-.023.008-.039.016-.039.023-.125.023-.171.047.023-.016.093.078-.07-.016h0s.016.039.008.039l.023.016c-.031.023-.047.047-.078.07a1.358,1.358,0,0,1-.553.273c-.693.21-1.636-.132-1.62-.491Z" transform="translate(-39.66 -132.726)" fill="url(#linear-gradient-18)"/>
            <path id="Trazado_728089" data-name="Trazado 728089" d="M41.145,137.03a.154.154,0,0,1-.055.016h0A.2.2,0,0,0,41.145,137.03Z" transform="translate(-39.976 -133.677)" fill="url(#linear-gradient-19)"/>
          </g>
          <path id="Trazado_728090" data-name="Trazado 728090" d="M36.139,126.613c.187-.3.795-.787,1.207-.569.873.46,7.167,3.038,9.7,2.618.678-.561,1.566-.405,2.423-.483.53-.047.39.467-.148.615a1.637,1.637,0,0,0-.678.249.1.1,0,0,1,.039.016c.631.787.873.6,2.158.888s.171.826-.366.943c-3.7.491-2.6-.234-4.97-.374-.982-.109-8.086-1.1-9.644-2.61a.822.822,0,0,1,.28-1.3Z" transform="translate(-7.865 -26.998)" fill="url(#linear-gradient-20)"/>
          <path id="Trazado_728091" data-name="Trazado 728091" d="M30.381,124.815c-.312-.382-.6-.779-.873-1.184a3.359,3.359,0,0,1-.67-1.278c-.07-.506.8-1.371,1.176-1.511.491-.241,1.722,1.114,3.069,1.87,1.472.826,2.843,1.418,3.093,1.667.148.148-.335,1.4-.576,1.784-.288.452-.553.935-.873,1.363q-.647.88-2.158-.522a15.246,15.246,0,0,1-2.189-2.181Z" transform="translate(-6.361 -25.854)" fill="url(#linear-gradient-21)"/>
          <path id="Trazado_728092" data-name="Trazado 728092" d="M2.426,150.621a7.673,7.673,0,0,0,2.96,1.636,31.516,31.516,0,0,0,6.489,1.613,4.5,4.5,0,0,0,2.462-.234,3.446,3.446,0,0,0,1.737-2.08,48.052,48.052,0,0,0,1.745-6.489c.249-1.161.475-2.314.67-3.482.382-1.262.982-2.82.436-4.043a3.6,3.6,0,0,0-3.326-1.815,3.486,3.486,0,0,0-1.916.28,2.423,2.423,0,0,0-.935,1.885c-.273,1.6-.538,3.217-.8,4.822-.132.8-.265,1.6-.405,2.407A6.574,6.574,0,0,1,11,147.077a3.075,3.075,0,0,1-3.272,1.3,31.276,31.276,0,0,1-4.6-1.021.891.891,0,0,0-.989.335,2.308,2.308,0,0,0,.288,2.937Z" transform="translate(-0.374 -29.147)" fill="url(#linear-gradient-22)"/>
          <path id="Trazado_728093" data-name="Trazado 728093" d="M12.075,127.456c1.815-5.181,7.315-10.618,7.315-10.618,1.683-1.067,3.3-1.309,4.557-.561l.07.07a13.318,13.318,0,0,1,2.734,1.675s1.449.95,1.192,2.064c-.382,1.675-1.5,3.03-1.768,3.911-.436,1.472-5.095,9.239-5.469,10.8-.047.2-2.781,1.317-10.236-3.194,0,0,1-2.89,1.6-4.144Z" transform="translate(-2.302 -24.756)" fill="url(#linear-gradient-23)"/>
          <path id="Trazado_728094" data-name="Trazado 728094" d="M29.756,113.781c.351-.171.654-.312,1-.109a2.48,2.48,0,0,1,.873,1,.408.408,0,0,1-.109.467c-.039.023-.078.055-.117.078-.288.39-.584.779-.88,1.161-.086.109-.171.249-.28.382a.957.957,0,0,1-.016.21.367.367,0,0,1-.031.132,1.4,1.4,0,0,1-.538,1.114,1.488,1.488,0,0,1-1.916-.351,2.682,2.682,0,0,1-.522-1.979c.1-.756,2.173-1.948,2.532-2.119Z" transform="translate(-6 -24.254)" fill="url(#linear-gradient-24)"/>
          <path id="Trazado_728095" data-name="Trazado 728095" d="M27.448,110.8a1.414,1.414,0,0,1,.74-1.363.583.583,0,0,1,.576.117.237.237,0,0,0,.055.039c.21.148.179,1.356.195,1.7.031.576-.265,1.106-.873.834a1.494,1.494,0,0,1-.7-1.324Z" transform="translate(-6.052 -23.332)" fill="url(#linear-gradient-25)"/>
          <path id="Trazado_728096" data-name="Trazado 728096" d="M29.383,108.43a2.806,2.806,0,0,1,1.2-1.246c.265-.14.047-.249.358-.343a5.984,5.984,0,0,1,1.659-.382,2.088,2.088,0,0,1,1.675.724,3.035,3.035,0,0,1,.826,2.742c-.1,1.192-.413,4.059-1.433,4.83a2.016,2.016,0,0,1-2.446.195c-.358-.234-2.477-1.831-2.353-3.49a7.251,7.251,0,0,1,.5-3.015Z" transform="translate(-6.367 -22.681)" fill="url(#linear-gradient-26)"/>
          <path id="Trazado_728097" data-name="Trazado 728097" d="M28.846,107.534a.389.389,0,0,1,.709-.1,2.792,2.792,0,0,1,.335-.576c.241-.319,1.348-.709,1.309-.592a11.78,11.78,0,0,0-1.044,2.688c-.055.834.179,1.831.148,2.244s-.756-.117-.857-.335a8.435,8.435,0,0,1-.335-1.246,4.181,4.181,0,0,1-.257-2.088Z" transform="translate(-6.352 -22.634)" fill="url(#linear-gradient-27)"/>
          <path id="Trazado_728098" data-name="Trazado 728098" d="M10.183,134.643c.475-1.441,9.621,2.594,13.423,3.88a22.709,22.709,0,0,1,3.069,1.262,4.278,4.278,0,0,1,2.236,2.228,10.183,10.183,0,0,1,.506,3.334,38.546,38.546,0,0,1-.086,3.911c-.093,1.309-.241,2.61-.4,3.911-.14,1.208-.257,2.485-1.34,3.108a3.508,3.508,0,0,1-2.423.28c.086-1.659.156-3.326.1-4.978a12.342,12.342,0,0,0-1.021-5.118,4.735,4.735,0,0,0-.553-1.083c-1.1-1.558-3.147-1.862-4.8-2.018-1.5-.14-3.1-.1-4.69-.156a7.35,7.35,0,0,1-3.35-1.613c-1.862-1.761-1.465-4.6-.686-6.964Z" transform="translate(-2.094 -28.842)" fill="url(#linear-gradient-28)"/>
          <path id="Trazado_728099" data-name="Trazado 728099" d="M46.194,138.866c.164.756.343,1.5.53,2.251.156.608.312,1.215.421,1.831a8.9,8.9,0,0,1-1.652,6.809c-2.166,2.618-5.843,3.28-9.06,2.937-2.446-.257-4.807-.717-5.632-3.342-.343-1.083-.413-2.228-.67-3.334a10.659,10.659,0,0,0-3.233-5.5,10.251,10.251,0,0,1-1.387-1.34c-1.028-1.356-.6-3-.109-4.495a18.212,18.212,0,0,1,2.773-4.931c1.1-1.542,2.641-4.028,4.674-4.3a13.054,13.054,0,0,1,4.074.28,42.367,42.367,0,0,1,4.908,1.161c1.137.358,3.069.7,3.334,2.1a5.507,5.507,0,0,1-.195,1.839c-.257,1.535.327,3.373.6,4.884.187,1.052.4,2.1.631,3.139Z" transform="translate(-5.487 -26.864)" fill="url(#linear-gradient-29)"/>
          <g id="Grupo_1009890" data-name="Grupo 1009890" transform="translate(15.755 92.904)">
            <path id="Trazado_728100" data-name="Trazado 728100" d="M27.01,127.2s.6,2.228,3.9,3.108a44.139,44.139,0,0,0,5.344,1.4,4.537,4.537,0,0,1,1.979.522c.179.093,1.137.724,1.418.841.888.366,1.963.3,1.27.841a3.554,3.554,0,0,1-3.35.218c-.865-.366-.717-.522-1.433-.576a30.72,30.72,0,0,1-5.64-.958c-1.854-.53-2.4-.39-3.9-1.262s-2.407-3.521-3.311-4.534c-.28-.319,3.716.4,3.716.4Z" transform="translate(-20.887 -120.064)" fill="url(#linear-gradient-30)"/>
            <path id="Trazado_728101" data-name="Trazado 728101" d="M21.336,118.826a1.908,1.908,0,0,1,3.015.179.3.3,0,0,1,.047.1,8.236,8.236,0,0,1,.857,2.236c.187.545.421,1.1.623,1.659.343.7.686,1.4,1.021,2.1.234.491-1.924,1.636-2.68,1.761-.662.109-1.527.382-2.1-.086a4.831,4.831,0,0,1-1.091-1.839,8.711,8.711,0,0,1-.647-2.111,4.772,4.772,0,0,1,.95-4.012Z" transform="translate(-20.23 -118.175)" fill="url(#linear-gradient-31)"/>
            <path id="Trazado_728102" data-name="Trazado 728102" d="M22.952,127.925a4.888,4.888,0,0,0,.95-.125c.109-.023.21-.039.312-.055a5.712,5.712,0,0,0,2.7-1.574.321.321,0,0,0,.023-.288,18.562,18.562,0,0,0-1.457-2,15.967,15.967,0,0,1-1.457-2.025.079.079,0,0,0-.093-.047.074.074,0,0,0-.047.086,15.885,15.885,0,0,0,1.472,2.064,20.5,20.5,0,0,1,1.441,1.979.15.15,0,0,1-.023.156,5.653,5.653,0,0,1-2.6,1.5c-.1.016-.2.039-.312.062a2.119,2.119,0,0,1-1.737-.125,4.04,4.04,0,0,1-.982-1.6c-.031-.07-.055-.132-.086-.2a8.35,8.35,0,0,1-.639-2.1,6.068,6.068,0,0,1-.07-.748.07.07,0,1,0-.14,0,6.18,6.18,0,0,0,.078.763,8.591,8.591,0,0,0,.647,2.127c.031.062.055.132.086.2a4.2,4.2,0,0,0,1.028,1.659,1.394,1.394,0,0,0,.9.28Z" transform="translate(-20.21 -118.978)" fill="url(#linear-gradient-32)"/>
          </g>
          <path id="Trazado_728103" data-name="Trazado 728103" d="M35.761,126.627a13.743,13.743,0,0,0,1.379.226A30.181,30.181,0,0,1,44,128.621c.382.148,2.244.849,2.47.125.109-.351-.873-.787-1.106-.919a14.81,14.81,0,0,0-3.062-1.153c-2.041-.631-4.074-1.379-6.263-1.192a1.965,1.965,0,0,0-1.215.421.27.27,0,0,0-.109.21c.008.093.1.164.195.2a3.8,3.8,0,0,0,.865.3Z" transform="translate(-7.659 -26.879)" fill="url(#linear-gradient-33)"/>
          <g id="Grupo_1009892" data-name="Grupo 1009892" transform="translate(33.882 89.846)">
            <path id="Trazado_728104" data-name="Trazado 728104" d="M56.988,122.57l-9.021,5.414a1.238,1.238,0,0,1-1.317-.07,9.371,9.371,0,0,1-3.085-4.316,1.236,1.236,0,0,1,.226-1.278c2.353-2.625,7.058-6.661,7.058-6.661l6.139,6.91Z" transform="translate(-43.478 -114.561)" opacity="0.79" fill="url(#linear-gradient-34)"/>
            <path id="Trazado_728105" data-name="Trazado 728105" d="M49.18,128.907s.039.023.062.016l6.489-3.817s.031-.039.023-.062a.052.052,0,0,0-.062-.023L49.2,128.836s-.031.039-.023.062h0Z" transform="translate(-44.738 -116.628)" fill="#fff" opacity="0.62"/>
            <g id="Grupo_1009891" data-name="Grupo 1009891" transform="translate(6.862)">
              <path id="Trazado_728106" data-name="Trazado 728106" d="M57.763,117.689c1.714,2.314,2.54,4.6,1.846,5.118a.631.631,0,0,1-.475.093c-.9-.117-2.477-1.441-3.887-3.342-1.558-2.1-2.384-4.191-1.994-4.939a.553.553,0,0,1,.148-.179c.693-.514,2.649.943,4.363,3.249Z" transform="translate(-52.48 -114.269)" fill="url(#linear-gradient-35)"/>
              <path id="Trazado_728107" data-name="Trazado 728107" d="M57.567,117.955c1.566,2.088,2.415,4.1,1.893,4.479a.454.454,0,0,1-.374.047c-.732-.171-2.111-1.418-3.4-3.139-1.426-1.909-2.251-3.739-2-4.339a.286.286,0,0,1,.109-.14c.522-.382,2.212,1,3.778,3.093Z" transform="translate(-52.587 -114.371)" fill="url(#linear-gradient-36)"/>
              <path id="Trazado_728108" data-name="Trazado 728108" d="M53.053,114.726c-.4.763.538,2.766,2.142,4.923,1.449,1.955,3,3.225,3.919,3.342a2.3,2.3,0,0,1-.187.421c-.74.545-2.758-.927-4.518-3.3s-2.586-4.736-1.854-5.282a.694.694,0,0,1,.5-.109Z" transform="translate(-52.287 -114.351)" fill="url(#linear-gradient-37)"/>
              <path id="Trazado_728109" data-name="Trazado 728109" d="M55.743,118.93s1.924,2.7,3.443,3.319a.184.184,0,0,0,.086.008h0c.023,0,.039-.016.062-.039.351-.327.662-.623,1.013-.95l-5.235-6.957c-.405.234-.8.475-1.207.709-.031.039-.016.109,0,.195a9.371,9.371,0,0,0,1.846,3.716Z" transform="translate(-52.641 -114.263)" fill="url(#linear-gradient-38)"/>
              <path id="Trazado_728110" data-name="Trazado 728110" d="M58.772,117.249c1.449,1.924,2.29,3.716,1.893,4a.329.329,0,0,1-.312.008,9.766,9.766,0,0,1-3.038-2.96c-1.317-1.753-2.135-3.4-1.971-3.9a.239.239,0,0,1,.078-.117c.4-.288,1.9,1.028,3.342,2.952Z" transform="translate(-52.958 -114.249)" fill="url(#linear-gradient-39)"/>
              <path id="Trazado_728111" data-name="Trazado 728111" d="M55.814,114.751l-.156-.2s-.055-.016-.07.008l-.078.218a.3.3,0,0,0,.008.07l.21.319s.055.016.062-.016c.016-.1.039-.257.047-.335a.086.086,0,0,0-.023-.07Z" transform="translate(-53 -114.314)" fill="url(#linear-gradient-40)"/>
            </g>
          </g>
          <path id="Trazado_728112" data-name="Trazado 728112" d="M49.214,131.808l.3-1.566a21.416,21.416,0,0,1-5.048-1.472c.506,1.558,2.96,3.319,4.744,3.046Z" transform="translate(-9.815 -27.612)" fill="url(#linear-gradient-41)"/>
          <g id="Grupo_1009893" data-name="Grupo 1009893" transform="translate(86.201 109.823)">
            <path id="Trazado_728113" data-name="Trazado 728113" d="M122.029,152.553a4.23,4.23,0,0,0,.023-1.239,1.623,1.623,0,0,1,.9-1.636c2.516-1.169,1.137-4.588,1.137-4.588s-.3-.421-.179-.623l.608-1.021-2.322-1.5-.608,1.013c-.125.2-.584.125-.584.125s-3.093.522-3,3.381a1.622,1.622,0,0,1-1.021,1.558,3.589,3.589,0,0,0-1.059.569c-.514.483-5.274,8.764-5.274,8.764s-.273,1.761,2.142,3.42h0a.312.312,0,0,1,.031.023c.008,0,.023.016.031.023h0c2.5,1.519,3.9.491,3.9.491S121.842,153.246,122.029,152.553Z" transform="translate(-110.638 -140.348)" opacity="0.79" fill="url(#linear-gradient-42)"/>
            <path id="Trazado_728114" data-name="Trazado 728114" d="M128.364,141.1l-1.729-1.122a.5.5,0,0,0-.7.156l-.9,1.5,2.6,1.69.9-1.5a.536.536,0,0,0-.171-.717Z" transform="translate(-113.818 -139.893)" fill="url(#linear-gradient-43)"/>
            <path id="Trazado_728115" data-name="Trazado 728115" d="M127.257,144.686l-2.867-1.862.218-.374,2.875,1.862Z" transform="translate(-113.677 -140.458)" fill="url(#linear-gradient-44)"/>
          </g>
          <g id="Grupo_1009894" data-name="Grupo 1009894" transform="translate(39.87 116.922)">
            <path id="Trazado_728116" data-name="Trazado 728116" d="M63.306,153.236a4.085,4.085,0,0,0-1.192-.1,1.581,1.581,0,0,1-1.527-.966c-.974-2.508-4.363-1.387-4.363-1.387s-.428.265-.615.132l-.95-.654-1.589,2.15.943.654c.187.132.086.576.086.576s.312,3.023,3.085,3.108a1.578,1.578,0,0,1,1.441,1.083,3.555,3.555,0,0,0,.483,1.059c.436.53,8.141,5.648,8.141,5.648s1.683.374,3.443-1.854h0a.146.146,0,0,0,.023-.031c0-.008.016-.016.023-.031h0c1.628-2.321.717-3.747.717-3.747s-7.479-5.422-8.141-5.648Z" transform="translate(-51.585 -149.283)" opacity="0.79" fill="url(#linear-gradient-45)"/>
            <path id="Trazado_728117" data-name="Trazado 728117" d="M52.454,149.219l-1.192,1.6a.485.485,0,0,0,.1.686l1.394.966,1.792-2.415-1.394-.966A.51.51,0,0,0,52.454,149.219Z" transform="translate(-51.164 -149.006)" fill="url(#linear-gradient-46)"/>
            <path id="Trazado_728118" data-name="Trazado 728118" d="M55.832,150.652l-1.979,2.656-.343-.242,1.979-2.656Z" transform="translate(-51.683 -149.316)" fill="url(#linear-gradient-47)"/>
          </g>
          <g id="Grupo_1009895" data-name="Grupo 1009895" transform="translate(61.375 99.687)">
            <path id="Trazado_728119" data-name="Trazado 728119" d="M88.594,141.2a4.732,4.732,0,0,0-.576-1.332,1.91,1.91,0,0,1,.164-2.189c2.127-2.485-1.021-5.469-1.021-5.469s-.53-.3-.5-.576l.156-1.387L83.6,129.78l-.156,1.387c-.031.273-.561.421-.561.421s-3.054,2.072-1.558,5.087a1.89,1.89,0,0,1-.335,2.166,4.565,4.565,0,0,0-.857,1.122c-.319.771-1.363,11.966-1.363,11.966s.569,2.018,3.965,2.618h.039a.058.058,0,0,1,.039.008h0c3.42.405,4.417-1.387,4.417-1.387s1.5-11.124,1.363-11.966Z" transform="translate(-78.77 -127.522)" opacity="0.79" fill="url(#linear-gradient-48)"/>
            <path id="Trazado_728120" data-name="Trazado 728120" d="M87.883,127.239l-2.4-.351a.578.578,0,0,0-.67.506l-.234,2.049,3.615.53.234-2.049a.634.634,0,0,0-.538-.686Z" transform="translate(-80.054 -126.882)" fill="url(#linear-gradient-49)"/>
            <path id="Trazado_728121" data-name="Trazado 728121" d="M88.261,131.791l-3.981-.584.055-.506,3.981.584Z" transform="translate(-79.988 -127.726)" fill="url(#linear-gradient-50)"/>
          </g>
          <g id="Grupo_1009896" data-name="Grupo 1009896" transform="translate(45.193 100.096)">
            <path id="Trazado_728122" data-name="Trazado 728122" d="M62.783,133.377c-1.48,1.753-2.633,3.287-3.981,5.142-.538.748-1.013,1.472-.709,2.329.28.8,3.334,5.352,7.673,6.793a2.658,2.658,0,0,0,2.353-.21,16.586,16.586,0,0,0,2.189-2.36c.779-.872,1.987-2.212,2.758-3.085.709-.795,1.48-1.574,2.111-2.438a3.306,3.306,0,0,0,.545-2.384c-.047-.686-.335-5.835-.343-6.154a4.325,4.325,0,0,0,.452-.491c.195.125.21.078.428-.117,0,0,.6-.756.8-1.036s-1.55-1.652-1.971-1.932c-.351-.234-1.363,1.239-1.363,1.239a.726.726,0,0,0,.164.413c-.21.179-.374.319-.382.327-.117.023-4.573.545-5.726.795a8.444,8.444,0,0,0-2.773.834,10.843,10.843,0,0,0-2.236,2.345Zm3.069-1.6a19.04,19.04,0,0,1,2.4-.53c.989-.195,2.158-.639,3.155-.748.538-.062.732.164.475.436s-3.054,3.3-4.705,3.03a2.323,2.323,0,0,1-1.636-1.317.652.652,0,0,1,.312-.872Z" transform="translate(-57.998 -127.408)" opacity="0.79" fill="url(#linear-gradient-51)"/>
            <path id="Trazado_728123" data-name="Trazado 728123" d="M70.888,146.478c.779-.873,2.828-3.225,3.6-4.09A29.817,29.817,0,0,1,64.2,133.78l-3.576,4.448c2.633,4.542,5.773,7.93,10.26,8.25Z" transform="translate(-58.577 -128.816)" fill="url(#linear-gradient-52)"/>
          </g>
          <g id="Grupo_1009900" data-name="Grupo 1009900" transform="translate(62.754 35.663)">
            <g id="Grupo_1009898" data-name="Grupo 1009898" transform="translate(19.13)">
              <path id="Trazado_728124" data-name="Trazado 728124" d="M141.48,163.356c-2.158.1-4.246.039-5.64-.031a28.438,28.438,0,0,1,6.637-3.654l1.683-.1a6.832,6.832,0,0,1,.771,2.843c-.28.351-1.091.834-3.451.943Z" transform="translate(-111.889 -70.081)" fill="url(#linear-gradient-53)"/>
              <path id="Trazado_728125" data-name="Trazado 728125" d="M135.783,164.147s.016-.008.016-.016c1.394.07,3.482.132,5.64.031,2.36-.109,3.171-.592,3.451-.943.008.093.016.179.023.28a.787.787,0,0,1-.724.849c-1.768.132-6.147.436-8.258.327a.3.3,0,0,1-.156-.538Z" transform="translate(-111.848 -70.888)" fill="url(#linear-gradient-54)"/>
              <path id="Trazado_728126" data-name="Trazado 728126" d="M163.087,162.628a16.161,16.161,0,0,1,.608-2.851c.3-.584,1.355,0,1.355,0s.2-1.324.538-.748c.218.366,1.356,3.077,1.761,3.778a.494.494,0,0,1,.062.249l-4.207.148a.855.855,0,0,1-.117-.576Z" transform="translate(-117.908 -69.93)" fill="url(#linear-gradient-55)"/>
              <path id="Trazado_728127" data-name="Trazado 728127" d="M167.447,164.25a.474.474,0,0,1-.467.467l-3,.086a.838.838,0,0,1-.74-.4l4.207-.148Z" transform="translate(-117.944 -71.115)" fill="url(#linear-gradient-56)"/>
              <path id="Trazado_728128" data-name="Trazado 728128" d="M162.04,154.8c.055.117,1,2.633,1.418,3.739a.661.661,0,0,0,.756.413c.171-.039.374-.086.584-.148a.8.8,0,0,0,.569-.857,10.849,10.849,0,0,0-.888-3.622c-.67-.95-2.438.467-2.438.467Z" transform="translate(-117.679 -68.85)" fill="url(#linear-gradient-57)"/>
              <path id="Trazado_728129" data-name="Trazado 728129" d="M146.275,156.444c-.234,0,.093,1.208-.257,2.392a.611.611,0,0,1-.561.483c-.179,0-.4,0-.615-.016a.675.675,0,0,1-.623-.608l-.288-3.085,2.345.841Z" transform="translate(-113.677 -69.206)" fill="url(#linear-gradient-58)"/>
              <path id="Trazado_728130" data-name="Trazado 728130" d="M138.57,114.116c.1.506,3.778,21.937,4,33.023a.37.37,0,0,0,.327.366,7.523,7.523,0,0,0,2.259-.016.273.273,0,0,0,.218-.241c.125-2.064,1.161-19.538-.1-27.764,0,0,10.447,21.984,12.028,28.045a.32.32,0,0,0,.327.242,7.883,7.883,0,0,0,2.119-.374.557.557,0,0,0,.351-.647c-.888-3.63-7.081-28.621-11.3-34.129l-10.221,1.5Z" transform="translate(-112.493 -59.707)" fill="url(#linear-gradient-59)"/>
              <path id="Trazado_728131" data-name="Trazado 728131" d="M146.732,121.126a.26.26,0,0,0,.093-.039.136.136,0,0,0,0-.195l-1.4-1.433a.138.138,0,0,0-.195.195l1.4,1.433A.266.266,0,0,0,146.732,121.126Z" transform="translate(-113.955 -61.209)" fill="url(#linear-gradient-60)"/>
              <path id="Trazado_728132" data-name="Trazado 728132" d="M129.012,82.89s-6.809,14.926-.787,23.737l1.4-.584S127.7,93.29,131.6,90.462Z" transform="translate(-109.657 -53.137)" fill="url(#linear-gradient-61)"/>
              <path id="Trazado_728133" data-name="Trazado 728133" d="M130.669,81.405c3.054-.8,9.083-2.127,13.189-1.387l5.11,27.406a.644.644,0,0,1-.631.763l-11.039.039a.917.917,0,0,1-.857-.6l-6.4-18.12S128.394,82,130.669,81.405Z" transform="translate(-110.481 -52.455)" fill="url(#linear-gradient-62)"/>
              <path id="Trazado_728134" data-name="Trazado 728134" d="M136.241,73.25s2.742,4.207,2.851,5.734c0,0-3.934,1.083-4.962.506l.132-5.882,1.987-.358Z" transform="translate(-111.512 -51.007)" fill="url(#linear-gradient-63)"/>
              <g id="Grupo_1009897" data-name="Grupo 1009897" transform="translate(17.172 16.524)">
                <path id="Trazado_728135" data-name="Trazado 728135" d="M129.912,69.694a19.447,19.447,0,0,0,.2,4.783c.444,1.519.46,2.594,2.283,2.29a3.877,3.877,0,0,0,3.233-3.428s.428-2.719-.179-3.552S129.9,69.7,129.9,69.7Z" transform="translate(-127.738 -66.678)" fill="url(#linear-gradient-64)"/>
                <path id="Trazado_728136" data-name="Trazado 728136" d="M134.073,71.713l-.218.078s.249-2.15-.654-2.2-4.238.413-5.305-.452a2.187,2.187,0,0,1-.2-3.108.12.12,0,0,1,.164,0l.117.109a.126.126,0,0,0,.21-.1h0a.124.124,0,0,1,.195-.109,3.351,3.351,0,0,0,2.664.351c2.259-.358,3.965.008,4.511,1.465a.126.126,0,0,0,.218.031c.125-.148.358-.28.795-.117.756.288.966,1.636.055,3.132a.125.125,0,0,0,.07.187c.288.07.756.3.031,1.1a2.49,2.49,0,0,1-1.527.966.127.127,0,0,1-.132-.093l-.374-1.324a.125.125,0,0,0-.164-.086l-.46.164Z" transform="translate(-127.139 -65.908)" fill="url(#linear-gradient-65)"/>
                <path id="Trazado_728137" data-name="Trazado 728137" d="M136.1,73.228s-.164-1.979.826-1.753.3,2.173-.335,2.47Z" transform="translate(-129.116 -67.134)" fill="url(#linear-gradient-66)"/>
              </g>
              <path id="Trazado_728138" data-name="Trazado 728138" d="M146.69,79.8l.444,8.382s4.542.865,4.807,3.6c.078.779-.647,1.441-1.714,1.987a5.393,5.393,0,0,1,2.68,3.856c3.062-1.013,5.3-3.077,4.565-6.91C155.844,82.145,146.69,79.8,146.69,79.8Z" transform="translate(-114.287 -52.454)" fill="url(#linear-gradient-67)"/>
              <path id="Trazado_728139" data-name="Trazado 728139" d="M129.065,112.284s-2.2,2.758-1.067,4.292,3.272.686,2.851-2.368a3.01,3.01,0,0,1,.055-2.368C131.456,110.438,129.774,111.42,129.065,112.284Z" transform="translate(-110.084 -59.379)" fill="url(#linear-gradient-68)"/>
              <path id="Trazado_728140" data-name="Trazado 728140" d="M155.323,44.879a.365.365,0,0,0-.631,0l-49.515,88.365a.628.628,0,0,0,.241.857.609.609,0,0,0,.3.078.644.644,0,0,0,.553-.319l49.313-88.007a.535.535,0,0,0,0-.53l-.265-.452Z" transform="translate(-105.096 -44.697)" fill="url(#linear-gradient-69)"/>
              <path id="Trazado_728141" data-name="Trazado 728141" d="M148.656,97.73a30.055,30.055,0,0,1-7.572,2.025l-1.5,1.932a22.428,22.428,0,0,0,11.763-.1,5.415,5.415,0,0,0-2.68-3.856Z" transform="translate(-112.716 -56.416)" fill="url(#linear-gradient-70)"/>
              <path id="Trazado_728142" data-name="Trazado 728142" d="M140.209,100.292l-.273-.491a4.83,4.83,0,0,0-3.085-1.893c-1.784-.1-2.594.849-2.446,1.955s1.472,1.488,2.493,1.192,2.01,2.508,3.319-.756Z" transform="translate(-111.569 -56.454)" fill="url(#linear-gradient-71)"/>
            </g>
            <g id="Grupo_1009899" data-name="Grupo 1009899" transform="translate(0 75.381)">
              <path id="Trazado_728143" data-name="Trazado 728143" d="M107.12,141.46c-4.487,5.554-17,13.719-26.58,21.8a22.478,22.478,0,0,0,10.283,0c2.485.483,3.467.242,6.341-.756-.187.763,1,1.106,2.508,1.348a4.819,4.819,0,0,1,2.953-1.137c6.559-6.848,7.619-13.711,5.562-20.566Z" transform="translate(-80.54 -141.46)" fill="url(#linear-gradient-72)"/>
              <path id="Trazado_728144" data-name="Trazado 728144" d="M80.54,163.265c10.673-7.37,20.442-14.685,26.58-21.8l1.067.693c-2.368,6.816-9.489,13.937-17.357,21.112a23.844,23.844,0,0,1-10.283,0Z" transform="translate(-80.54 -141.46)" fill="url(#linear-gradient-73)"/>
              <path id="Trazado_728145" data-name="Trazado 728145" d="M101.767,163.17c3.155-3.8,8.079-12.5,11.023-18.72-2.267,6.668-5.765,16.624-8.515,20.068a4.585,4.585,0,0,1-2.906-1.215l.405-.14Z" transform="translate(-85.143 -142.121)" fill="url(#linear-gradient-74)"/>
              <path id="Trazado_728146" data-name="Trazado 728146" d="M108.89,163.552c6.5-6.91,7.081-12.776,6.115-18.362A46.265,46.265,0,0,1,108.89,163.552Z" transform="translate(-86.805 -142.284)" fill="url(#linear-gradient-75)"/>
            </g>
          </g>
        </g>
      </g>
    </g>
  </g>
</svg>
