<svg id="Grupo_1009321" data-name="Grupo 1009321" xmlns="http://www.w3.org/2000/svg" xmlns:xlink="http://www.w3.org/1999/xlink" width="400" height="128.471" viewBox="0 0 400 128.471">
  <defs>
    <clipPath id="clip-path">
      <rect id="Rect치ngulo_348209" data-name="Rect치ngulo 348209" width="400" height="128.471" fill="none"/>
    </clipPath>
  </defs>
  <rect id="Rect치ngulo_348208" data-name="Rect치ngulo 348208" width="128.468" height="128.471" transform="translate(0 0)" fill="#fff"/>
  <g id="Grupo_1009320" data-name="Grupo 1009320" transform="translate(0 0)">
    <g id="Grupo_1009319" data-name="Grupo 1009319" clip-path="url(#clip-path)">
      <path id="Trazado_718553" data-name="Trazado 718553" d="M62.308,1.236q30.011,0,60.019-.018c.834,0,1.084.173,1.084,1.055q-.043,38.5-.005,76.988c0,.834-.173,1.058-1.05,1.1a10.452,10.452,0,0,1-7.053-1.8c-1.316-.986-2.483-2.175-3.814-3.138-3.355-2.413-7.011-1.737-10.111.452s-5.117,5.4-7.873,7.9a14.789,14.789,0,0,1-2.5,1.925c-2.844,1.649-5.6,1.3-8.263-.413A20.147,20.147,0,0,1,79.5,82.634,50.7,50.7,0,0,0,72.517,76.4a10.671,10.671,0,0,0-10.637-.986,20.045,20.045,0,0,0-5.556,3.775,60.7,60.7,0,0,1-6.02,5.151c-3.352,2.261-6.6,2.049-9.917-.031a32.266,32.266,0,0,0-5.863-3.257,4.552,4.552,0,0,0-1.61-.348c-10.237.008-20.477-.005-30.719.026-.792,0-.973-.194-.97-.978q.031-38.778,0-77.559c0-.787.186-.975.975-.975q30.057.039,60.112.021" transform="translate(1.93 1.92)" fill="#002f6b"/>
      <path id="Trazado_718554" data-name="Trazado 718554" d="M62.3,61.465q-30.007,0-60.016.023c-.877,0-1.074-.235-1.063-1.081.046-4.075.034-8.152.008-12.229-.005-.684.09-.96.893-.96,10.113.034,20.226.023,30.34.021a6.772,6.772,0,0,1,3.386,1.342c2.113,1.239,4.093,2.7,6.477,3.458A10.5,10.5,0,0,0,51.266,50.8a29.917,29.917,0,0,0,5.058-4.1,25.344,25.344,0,0,1,5.667-4.5c3.35-1.69,6.211-1.768,9.427.594a58.778,58.778,0,0,1,6.593,6,14.054,14.054,0,0,0,7.927,4.441,9.66,9.66,0,0,0,7.05-1.713A31.959,31.959,0,0,0,98.271,46.5c1.855-2.041,3.587-4.284,6.2-5.437,2.454-1.086,3.76-.893,5.863.815a33.08,33.08,0,0,0,5.546,4.005,11.682,11.682,0,0,0,5.8.986c1.7-.041,1.7-.008,1.7,1.716,0,3.982-.028,7.964.023,11.945.01.826-.245.952-1,.952q-30.057-.035-60.112-.018" transform="translate(1.93 63.837)" fill="#002f6b"/>
      <path id="Trazado_718555" data-name="Trazado 718555" d="M17.552,52.682c-5.153,0-10.307-.018-15.458.018-.725.005-.883-.188-.872-.888.041-2.939.031-5.879.008-8.818-.005-.539.07-.779.7-.759,5.236.157,10.464-.255,15.7-.188,4.552.059,9.107.075,13.656-.021a7.932,7.932,0,0,1,4.351,1.344c1.584.939,3.092,2.015,4.756,2.815,4.322,2.088,8.389,1.5,12.167-1.319a67.3,67.3,0,0,0,5.2-4.583,16.655,16.655,0,0,1,5.721-3.835,8.384,8.384,0,0,1,8.273,1.476c2.124,1.639,3.889,3.649,5.848,5.458a18.392,18.392,0,0,0,5.388,3.891A10.268,10.268,0,0,0,93.434,46.14c3.208-2.284,5.324-5.644,8.211-8.237a10.691,10.691,0,0,1,3.148-2.085c2.294-.924,4.24-.317,6.026,1.326a17.661,17.661,0,0,0,6.462,4.2,15.12,15.12,0,0,0,5.37.514c.557-.028.759.1.751.712q-.054,4.5,0,9.009c.005.583-.142.777-.735.728-1.515-.119-3.032.132-4.555-.341a12.243,12.243,0,0,1-4-2.4c-1.533-1.239-2.955-2.624-4.87-3.308a7.911,7.911,0,0,0-6.663.828c-2.521,1.368-4.328,3.579-6.209,5.706a23.823,23.823,0,0,1-5.161,4.79c-2.852,1.757-5.69,1.458-8.438-.294a27.378,27.378,0,0,1-3.252-2.635c-2.377-2.077-4.361-4.593-7.048-6.317a10.692,10.692,0,0,0-6.648-1.9,13.46,13.46,0,0,0-7.262,2.9c-1.845,1.4-3.5,3.022-5.2,4.586a15.044,15.044,0,0,1-5.966,3.76,7.205,7.205,0,0,1-5.04-.377c-2.181-.952-4.049-2.446-6.162-3.507a7.994,7.994,0,0,0-3.752-1.138c-4.962.065-9.925.026-14.887.026" transform="translate(1.931 55.929)" fill="#002f6b"/>
      <path id="Trazado_718556" data-name="Trazado 718556" d="M17.346,37.173c4.71,0,9.419.062,14.129-.034a7.978,7.978,0,0,1,4.348,1.342c1.35.792,2.642,1.693,4.015,2.441,4.33,2.356,8.506,1.99,12.477-.872A47.739,47.739,0,0,0,56.7,36.27a24.962,24.962,0,0,1,5.5-4.24c3.7-1.879,6.97-1.241,10.01,1.275,2.16,1.786,4.093,3.8,6.111,5.734a14.968,14.968,0,0,0,6.152,3.806,9.779,9.779,0,0,0,8.162-1.19,26.5,26.5,0,0,0,5.473-5.068c1.894-2.09,3.657-4.4,6.33-5.577,2.573-1.13,3.853-.9,5.938.844a37.246,37.246,0,0,0,4.82,3.6,11.349,11.349,0,0,0,6.359,1.35c1.824-.059,1.827-.01,1.827,1.778,0,2.686-.018,5.373.015,8.059.005.6-.142.795-.774.792a13.346,13.346,0,0,1-5.4-.772,16.353,16.353,0,0,1-3.706-2.565,13.441,13.441,0,0,0-4.219-2.777,8.135,8.135,0,0,0-7.011.947c-2.756,1.683-4.722,4.219-6.859,6.58-1.848,2.044-3.76,4.049-6.666,4.679a7.855,7.855,0,0,1-6.3-1.432c-2.562-1.737-4.557-4.1-6.808-6.188A16.556,16.556,0,0,0,70.291,42.2a11.331,11.331,0,0,0-8.067.067,19.964,19.964,0,0,0-6.449,4.413,41.431,41.431,0,0,1-5.866,4.9,7.893,7.893,0,0,1-8.09.5c-1.858-.9-3.512-2.142-5.339-3.094a9.492,9.492,0,0,0-4.526-1.386c-6.949.036-13.907-.077-20.856.059-2.988.057-5.977.077-8.967.165-.774.023-.916-.235-.906-.942.039-2.877.046-5.755,0-8.629-.015-.821.145-1.1,1.048-1.094,5.024.052,10.051.023,15.076.023" transform="translate(1.931 47.918)" fill="#002f6b"/>
      <path id="Trazado_718557" data-name="Trazado 718557" d="M134.952,49.822a5.712,5.712,0,0,1,4.116,3.522c1.179,3.055-.6,7.177-4.1,7.633a33.336,33.336,0,0,1-3.706.335c-3.032.067-6.067.028-9.1.01-.255,0-.746.227-.7-.315.031-.41-.346-.986.292-1.234.756-.292.839-.852.836-1.572q-.039-7.49,0-14.983c0-.637-.129-1.094-.761-1.321-.71-.253-.359-.857-.364-1.29-.013-.6.521-.31.795-.312,3-.023,6.008-.1,9.006.018a10.819,10.819,0,0,1,4.426.818c2.645,1.262,3,4.79,1.737,6.789a5.277,5.277,0,0,1-2.472,1.9m-5.85,1.27c-.568,0-1.138.026-1.706-.008-.457-.023-.671.067-.666.606.034,2.147.023,4.3.008,6.446,0,.39.085.555.521.555a24.916,24.916,0,0,0,5.592-.395,3.349,3.349,0,0,0,2.6-2.968,4.017,4.017,0,0,0-1.515-3.29,8.379,8.379,0,0,0-4.833-.947m.477-7.935v-.031c-.756,0-1.515.028-2.268-.008-.467-.021-.581.152-.575.594.026,1.386.015,2.772.005,4.155,0,.359.023.588.49.581,1.479-.026,2.962.054,4.439-.026a2.55,2.55,0,0,0,2.663-2.366,2.674,2.674,0,0,0-2.212-2.872,14.905,14.905,0,0,0-2.542-.026" transform="translate(191.842 63.586)" fill="#002f6b"/>
      <path id="Trazado_718558" data-name="Trazado 718558" d="M72.031,14.41a44.03,44.03,0,0,1,5.987.191c5.218.766,6.3,5.2,4.382,8.787a4.506,4.506,0,0,1-2.821,2.186c-.655.175-.534.485-.32.854,1.252,2.152,2.508,4.3,3.788,6.426a2.079,2.079,0,0,0,1.179,1.019c.431.114.493.281.532.684.067.748-.183.965-.929.924-1.195-.065-2.4-.044-3.6,0A.76.76,0,0,1,79.445,35c-1.455-2.635-2.926-5.257-4.377-7.891a1.264,1.264,0,0,0-1.293-.772c-1.933.059-1.969.018-1.925,1.99a24.856,24.856,0,0,0,.168,4.877c.054.237.106.49.328.521,1.068.15.542.963.6,1.489.041.382-.366.243-.583.243-1.706.01-3.412.015-5.117,0-.255,0-.746.219-.7-.323.039-.413-.346-.973.3-1.234a1.327,1.327,0,0,0,.839-1.476c-.036-5.024-.028-10.049-.005-15.07,0-.637-.129-1.1-.761-1.324-.712-.253-.359-.857-.366-1.29-.013-.6.519-.307.8-.312,1.484-.031,2.968-.015,4.679-.015m-.191,5.943c0,.885.026,1.77-.008,2.65-.021.5.062.743.648.715.975-.049,1.964.07,2.932-.036a5.266,5.266,0,0,0,2.8-.764,2.922,2.922,0,0,0,1-2.939,2.985,2.985,0,0,0-2.126-2.526,16.709,16.709,0,0,0-4.82-.392c-.441,0-.421.253-.418.552.005.911,0,1.827,0,2.741" transform="translate(105.065 22.696)" fill="#002f6b"/>
      <path id="Trazado_718559" data-name="Trazado 718559" d="M60.705,61.964a8.566,8.566,0,0,1-5.535-1.2,11.829,11.829,0,0,1-3.605-3.971c-.2-.32.142-.472.307-.591,1.226-.877,2.459-1.742,3.713-2.581.5-.335.552.307.815.475.2.134.539.271.268.735a2.343,2.343,0,0,0,1.257,3.693,6.5,6.5,0,0,0,5.515-.155,2.808,2.808,0,0,0,1.7-2.537,2.585,2.585,0,0,0-1.61-2.452,20.1,20.1,0,0,0-4.3-1.272,16.3,16.3,0,0,1-4.5-1.8,5.011,5.011,0,0,1-1.995-5.4c.588-2.637,2.563-3.971,4.983-4.508a11.762,11.762,0,0,1,8.067.888,13.372,13.372,0,0,1,2.975,2.555c.2.188.255.341.028.545A26.444,26.444,0,0,1,65.9,47.1c-.2.134-.369.431-.612.1-.225-.307-.72-.415-.653-.942.2-1.53-.168-2.261-1.59-2.787a6.127,6.127,0,0,0-5.205.116,2.1,2.1,0,0,0-1.177,1.747A1.856,1.856,0,0,0,57.807,47a19.209,19.209,0,0,0,4.712,1.5,13.586,13.586,0,0,1,4.844,2.144,6.234,6.234,0,0,1,1.677,6.441c-.893,3.022-4.077,4.759-6.725,4.88-.534.023-1.074,0-1.61,0" transform="translate(81.406 63.337)" fill="#002f6b"/>
      <path id="Trazado_718560" data-name="Trazado 718560" d="M70.658,5.536a5.939,5.939,0,0,1,4.131-1.6A5.571,5.571,0,0,1,79,5.268a.68.68,0,0,0,1.03.072,9.257,9.257,0,0,1,4.129-1.453,4.681,4.681,0,0,1,5.339,4.761q0,3.553,0,7.112c0,.658.021,1.267.751,1.618.415.2.181.676.181,1.017,0,.475-.413.279-.648.281-1.391.021-2.782.018-4.173,0-.217-.005-.594.16-.627-.2s-.266-.859.17-1.107c.547-.307.563-.756.56-1.28-.013-2.276-.039-4.552.01-6.828a2.36,2.36,0,0,0-1.161-2.428,3.1,3.1,0,0,0-3.009.181,2.365,2.365,0,0,0-1.381,2.488c.124,2.173.041,4.361.028,6.542-.005.565.088,1.037.676,1.277.555.227.243.715.258,1.068.018.472-.413.279-.645.281-1.391.021-2.782.018-4.175,0-.217-.005-.594.16-.627-.2s-.263-.859.173-1.107c.547-.307.56-.756.557-1.28-.01-2.369-.088-4.746.026-7.109A2.473,2.473,0,0,0,73.26,6.6a4.268,4.268,0,0,0-1.166.511A2.077,2.077,0,0,0,70.88,9.131c.077,2.369.034,4.738.018,7.109,0,.436.013.944.452,1.03.764.152.508.686.485,1.081-.039.65-.594.307-.89.315-1.388.044-2.779.028-4.17.013-.214,0-.6.15-.583-.245.008-.364-.3-.854.219-1.084.627-.274.712-.756.71-1.357q-.023-4.5,0-9.009c0-.594-.059-1.1-.694-1.368-.542-.227-.232-.717-.235-1.076-.005-.454.426-.253.658-.258.919-.026,1.837.039,2.751-.026.813-.059,1.368.041,1.058,1.28" transform="translate(104.484 6.092)" fill="#002f6b"/>
      <path id="Trazado_718561" data-name="Trazado 718561" d="M87.936,44.252c2.25-1.786,4.542-1.77,6.942-1.112a3.026,3.026,0,0,1,1.306.828c.544.532.9.335,1.355-.023,1.948-1.525,6.077-1.623,7.7-.225a4.182,4.182,0,0,1,1.51,3.231c.036,2.369-.01,4.74.021,7.112.01.754-.175,1.6.808,2.049.323.147.145.7.1,1.058s-.408.2-.624.2c-1.424.018-2.844.015-4.266,0-.217,0-.6.132-.56-.276.041-.348-.341-.872.266-1.032.465-.124.472-.418.472-.782,0-2.653-.013-5.308,0-7.966.01-1.463-1.863-2.586-3.636-1.757-1.93.9-1.915,1.04-1.876,2.756.041,2.088.01,4.173.005,6.26,0,.6.062,1.156.7,1.455.532.253.212.725.232,1.084.023.4-.361.255-.575.258-1.424.013-2.844.015-4.266,0-.24-.005-.674.168-.614-.315.036-.338-.343-.857.3-1.006.41-.1.439-.377.436-.712,0-2.686.018-5.375-.01-8.062a2.423,2.423,0,0,0-2.888-2,5.091,5.091,0,0,0-1.752.756,1.934,1.934,0,0,0-.864,1.664c.036,2.276.01,4.552.015,6.826,0,.645-.1,1.3.785,1.582.359.116.139.671.142,1.027s-.31.24-.5.243c-1.548.008-3.1.005-4.648,0-.24,0-.575.062-.506-.338.054-.33-.279-.81.235-.973.617-.194.692-.655.694-1.161.008-3.226,0-6.449.005-9.675,0-.364-.005-.692-.488-.756-.622-.083-.446-.586-.454-.968-.013-.557.434-.338.686-.343.981-.026,1.964.034,2.939-.026.7-.039,1.092.108.877,1.11" transform="translate(131.794 67.54)" fill="#002f6b"/>
      <path id="Trazado_718562" data-name="Trazado 718562" d="M91.372,16.957c1.014,0,2.023,0,3.035,0,.237,0,.578-.075.516.333-.054.33.271.831-.232.973-.7.194-.71.668-.707,1.231.008,3.192-.031,6.387.021,9.576.018,1.3.413,2.57.385,3.9A3.883,3.883,0,0,1,92.675,36.1a9.4,9.4,0,0,1-5.086,1.708A10,10,0,0,1,80.2,35.694c-.924-.751-.986-.859-.134-1.677.72-.7,1.486-1.342,2.206-2.039.276-.268.5-.279.674.034.168.294.957.294.5.872-.555.7-.186,1.107.366,1.492,1.866,1.3,5.182.9,6.369-.779a3.263,3.263,0,0,0,.343-2.433c-.062-.619-.552-.23-.854-.1a8.535,8.535,0,0,1-5.264.521,4.994,4.994,0,0,1-4.088-3.9c-.81-3.19-.565-6.157,1.959-8.578a8.221,8.221,0,0,1,4.4-1.948,26.909,26.909,0,0,1,4.694-.2M90.193,23.7v-3.13c0-1.231-.005-1.28-1.236-1.125a8.572,8.572,0,0,0-2.4.578,5.072,5.072,0,0,0-2.565,5.992,5.069,5.069,0,0,0,.932,2.072c1.2,1.4,2.707,1.195,4.7.142a.969.969,0,0,0,.586-1.024c-.067-1.166-.021-2.338-.021-3.5" transform="translate(125.597 26.789)" fill="#002f6b"/>
      <path id="Trazado_718563" data-name="Trazado 718563" d="M84.782,43.569a9.186,9.186,0,0,1-4.746,1.148,5.653,5.653,0,0,1-5.7-4.965,8.535,8.535,0,0,1,1.538-7A7.07,7.07,0,0,1,79.993,30.3c2.844-.64,5.747-.356,8.627-.395.194,0,.524-.1.5.237-.023.364.294.864-.217,1.084-.684.3-.715.834-.712,1.45.013,2.653.041,5.311-.01,7.964a15.44,15.44,0,0,0,.444,3.977,4.377,4.377,0,0,1-2.668,5.045,11.449,11.449,0,0,1-9.77.134,7.015,7.015,0,0,1-2.178-1.737c-.261-.271-.379-.575-.028-.792.994-.619,1.618-1.639,2.6-2.284a.584.584,0,0,1,.779-.01c.266.2.5.4.335.859a1.271,1.271,0,0,0,.852,1.819,5.724,5.724,0,0,0,4.658-.088,2.424,2.424,0,0,0,1.582-2.475c-.01-.472,0-.947,0-1.523m-.377-6.9V33.458c0-1.146-.183-1.355-1.28-1.05-.462.126-.921.077-1.365.227-2.88.952-3.861,2.911-3.584,5.693a4.188,4.188,0,0,0,1.391,3.107c1.4,1.092,2.774.506,4.137-.116a1.13,1.13,0,0,0,.723-1.244c-.075-1.13-.021-2.268-.021-3.4" transform="translate(116.589 47.223)" fill="#002f6b"/>
      <path id="Trazado_718564" data-name="Trazado 718564" d="M75.43,40.811c-.883,0-1.768,0-2.653,0a.693.693,0,0,0-.792.56c-.514,1.381-1.027,2.753-1.5,4.142a.828.828,0,0,0,.449,1.19.786.786,0,0,1,.545.735c.059.784-.168,1.027-.975.981-1.29-.075-2.588-.01-3.884-.028-.235,0-.658.183-.648-.284s-.3-1.174.194-1.36a1.851,1.851,0,0,0,1.068-1.306q3.2-8.5,6.317-17.032c.281-.764.64-1.215,1.569-1.086a13.32,13.32,0,0,0,2.464.013c.529-.028.723.181.9.671q3.209,8.74,6.49,17.458a2.02,2.02,0,0,0,.991,1.285c.547.263.279.919.25,1.383-.031.49-.5.25-.761.255q-2.462.035-4.929,0c-.255,0-.741.225-.71-.312.028-.472-.359-1.143.405-1.365.557-.165.573-.379.379-.885-.516-1.373-.944-2.779-1.417-4.168a1.083,1.083,0,0,0-1.288-.864,22.411,22.411,0,0,1-2.464.021m2.31-3.061c-.761-2.077-1.476-4.036-2.273-6.214-.8,2.181-1.541,4.178-2.289,6.214Z" transform="translate(104.13 43.145)" fill="#002f6b"/>
      <path id="Trazado_718565" data-name="Trazado 718565" d="M96.185,37.766c0-2.524-.005-5.05.005-7.579,0-.588-.057-1.061-.764-1.262s-.341-.844-.356-1.28c-.015-.524.47-.294.723-.294,2.877-.018,5.752-.1,8.622.018,1.925.072,3.788.312,5.365,1.827,2.134,2.049,2.005,6.653.028,8.738-1.935,2.041-4.426,2.968-6.975,3.8a9.459,9.459,0,0,1-2.119.612c-.281.026-.361.3-.359.578.01.821-.049,1.649.023,2.462a1.5,1.5,0,0,0,.952,1.461c.348.1.328.258.364.514.1.766-.077,1.107-.981,1.058-1.636-.093-3.282-.015-4.926-.039-.255,0-.738.227-.717-.3.018-.439-.346-1.089.361-1.28s.761-.681.759-1.264q-.012-3.882-.005-7.77m4.173,1.83a20.349,20.349,0,0,0,3.584-1.538,6.374,6.374,0,0,0,3.1-3.042c.681-1.69.1-4.015-1.613-4.593a14.6,14.6,0,0,0-4.715-.431c-.4,0-.356.263-.356.516Z" transform="translate(150.14 43.15)" fill="#002f6b"/>
      <path id="Trazado_718566" data-name="Trazado 718566" d="M64.113,23.14a11.938,11.938,0,0,1-6.281-1.123,9.754,9.754,0,0,1-5.773-7.311,12.911,12.911,0,0,1,.335-6.82,9.174,9.174,0,0,1,7.306-6.3,12.894,12.894,0,0,1,8.952,1.133c.108.059.225.1.33.163,2.387,1.4,2.384,1.424.465,3.368-.658.668-1.275,1.378-1.894,2.083-.255.289-.444.253-.686-.015-.276-.312-.978-.286-.844-.919A2.127,2.127,0,0,0,64.43,4.6a6.438,6.438,0,0,0-6.015.968,6.206,6.206,0,0,0-2.173,3.773,9.886,9.886,0,0,0,1.468,7.7c1.662,2.5,5.876,4.031,8.72,2.926A2.241,2.241,0,0,0,67.8,18.733c.354-.846,1.068-.5,1.608-.462.565.039.25.612.263.926.049,1.009.008,2.021.023,3.03.008.372-.059.508-.493.581a22.755,22.755,0,0,1-5.084.333" transform="translate(81.808 1.992)" fill="#002f6b"/>
      <path id="Trazado_718567" data-name="Trazado 718567" d="M62.458,47.2A6.715,6.715,0,0,1,57.7,48.774c-3.463-.173-5.866-2.353-5.894-5.982a11.808,11.808,0,0,1,.32-3.608c.854-2.813,2.833-4.266,5.512-5.014a11.83,11.83,0,0,1,3.886-.372c.49.028.743-.052.72-.645-.049-1.164-.034-2.335-.005-3.5.01-.431-.108-.844-.49-.916-.8-.147-.459-.728-.439-1.1.028-.55.539-.271.823-.281,1.009-.039,2.023.036,3.032-.034.717-.046.88.181.875.883-.031,5.811-.018,11.623-.015,17.434,0,.614-.139,1.249.766,1.476.382.1.16.663.16,1.012,0,.405-.361.255-.575.261-.947.015-1.9-.041-2.839.021-.815.059-1.37-.034-1.076-1.208m-.232-6.937V37.613c0-1.45,0-1.432-1.45-1.36-4.746.24-6.279,5.2-4.39,8.6a2.91,2.91,0,0,0,3.11,1.4c1.778-.477,2.924-1.486,2.751-3.042a26.57,26.57,0,0,1-.021-2.939" transform="translate(81.87 43.143)" fill="#002f6b"/>
      <path id="Trazado_718568" data-name="Trazado 718568" d="M62.591,34.157a6.849,6.849,0,0,1-5,1.662,5.69,5.69,0,0,1-5.786-5.886,10.784,10.784,0,0,1,.49-4.227,6.959,6.959,0,0,1,4.129-4.09,10.288,10.288,0,0,1,4.82-.746c.88.083,1.053-.243,1-1.037-.072-1.1-.031-2.212-.01-3.313.008-.351-.049-.655-.421-.7-.741-.088-.529-.624-.526-1.045,0-.617.5-.348.772-.356,1.074-.031,2.15.034,3.221-.028.663-.039.756.227.754.805q-.031,8.713-.01,17.429c0,.635-.183,1.321.777,1.561.366.09.157.668.147,1.019-.008.4-.369.245-.586.245-.978.018-1.959-.023-2.937.018-.741.036-1.316,0-.839-1.308m-.359-6.828c0-.759.021-1.517-.005-2.273-.023-.622.266-1.386-.129-1.832-.369-.423-1.045.126-1.6.1a.919.919,0,0,0-.188,0,5.141,5.141,0,0,0-4.467,3.744,8.529,8.529,0,0,0-.116,3.03c.323,2.521,2.939,4.436,5.484,2.374a2.236,2.236,0,0,0,1.03-1.917c-.031-1.071-.008-2.147-.008-3.221" transform="translate(81.864 22.703)" fill="#002f6b"/>
      <path id="Trazado_718569" data-name="Trazado 718569" d="M122.239,34.7a8.928,8.928,0,0,1,4.511-1.1c3.347.124,5.324,2.132,5.762,5.466a9.331,9.331,0,0,1-.4,4.361,7.546,7.546,0,0,1-6.2,4.764,63.428,63.428,0,0,1-7.445.175c-.258,0-.728.237-.748-.263-.018-.374-.307-.88.315-1.13.534-.214.6-.717.6-1.218q.008-8.009,0-16.018a.98.98,0,0,0-.668-1.092c-.591-.2-.219-.694-.255-1.043-.044-.405.343-.268.56-.271,1.1-.015,2.212.023,3.316-.021.565-.023.671.191.663.7-.026,2.2-.01,4.4-.01,6.686m.188,6.795c0,1.259.021,2.524-.01,3.783-.01.475.1.666.619.645,2.7-.108,5.115-1.117,5.618-4.374a5.543,5.543,0,0,0-.859-3.992c-.939-1.394-2.973-1.523-4.906-.539a.747.747,0,0,0-.477.784c.044,1.231.015,2.459.015,3.693" transform="translate(185.918 43.164)" fill="#002f6b"/>
      <path id="Trazado_718570" data-name="Trazado 718570" d="M120.894,43.254a6.566,6.566,0,0,1-6.361,1.1,3.844,3.844,0,0,1-2.862-3.3,4.025,4.025,0,0,1,2.137-4.529,26.676,26.676,0,0,1,6.366-2.044c.689-.168.872-.346.475-1a3.291,3.291,0,0,0-3.172-1.277c-1.2.212-2.441.354-3.226,1.543-.248.377-.823.157-1.234.119-.434-.041-.165-.457-.227-.7a2.082,2.082,0,0,1-.005-.475c0-2-.01-2.046,1.9-2.488a13.943,13.943,0,0,1,6.807-.077c2.083.557,2.883,1.75,3.017,4.1.145,2.521.039,5.055.031,7.584,0,.542.021,1.027.6,1.329.485.253.428.774.315,1.182s-.542.175-.823.183c-.79.031-1.577.01-2.369.01-1.285,0-1.285,0-1.37-1.27m-.142-4.39c0-.609-.015-1.117.005-1.621.013-.343-.072-.588-.462-.488-1.569.413-3.231.663-4.33,2.049a1.938,1.938,0,0,0,1.159,3.066,4.089,4.089,0,0,0,3.259-1.081c.748-.524.191-1.36.369-1.925" transform="translate(176.405 47.017)" fill="#002f6b"/>
      <path id="Trazado_718571" data-name="Trazado 718571" d="M104.87,30.38c-.6-.049-.8.444-1.172.627a6.373,6.373,0,0,1-7.045-.5,4.268,4.268,0,0,1,.612-6.7,22.585,22.585,0,0,1,6.658-2.253c.294-.067.725-.065.756-.32a1.151,1.151,0,0,0-.333-.828,4.471,4.471,0,0,0-5.664-.243c-.209.194-.4.4-.6.6a1.223,1.223,0,0,1-1.246.168c-.4-.088-.168-.537-.186-.821-.036-.534.039-1.076-.023-1.608-.077-.674.147-.983.834-1.089a26.11,26.11,0,0,1,5.066-.586,7.115,7.115,0,0,1,4.3,1.143c1.378,1.084,1.5,2.666,1.556,4.2.08,2.335.021,4.673.021,7.009,0,.405-.046.751.529.934.521.168.173.764.212,1.164.041.48-.387.3-.624.307-.821.021-1.644-.034-2.459.018-.914.059-1.664.039-1.184-1.218M104.6,23.7a13.449,13.449,0,0,0-4.111,1.409,2.151,2.151,0,0,0-1.156,1.969,1.752,1.752,0,0,0,1.035,1.719c1.074.444,3.564-.255,4.157-1.236a.928.928,0,0,0,.07-.452c.008-1.135.005-2.273.005-3.409" transform="translate(150.637 26.573)" fill="#002f6b"/>
      <path id="Trazado_718572" data-name="Trazado 718572" d="M96.18,43.036a6.564,6.564,0,0,1-7.618.828,4.3,4.3,0,0,1,.064-7.12A20.844,20.844,0,0,1,94.48,34.67c.119-.034.271-.015.356-.085.346-.284,1.117.183,1.141-.526a1.642,1.642,0,0,0-1.063-1.435c-1.667-.784-4.488-.374-5.326.96-.359.57-.988.356-1.479.292s-.17-.565-.253-.862a1.157,1.157,0,0,1,0-.284c0-2.41,0-2.4,2.426-2.617a20.941,20.941,0,0,1,3.419-.356,14.98,14.98,0,0,1,3.365.539A3.861,3.861,0,0,1,99.6,34.11c.057,2.526.016,5.055.016,7.584,0,.542.026,1.048.617,1.337.57.281.351.844.3,1.264-.057.454-.514.209-.784.225-.694.034-1.393.01-2.088.01-1.437,0-1.437,0-1.473-1.494m-.361-4.294c0-.5-.031-1.012.008-1.515.036-.477-.232-.547-.578-.459a14.106,14.106,0,0,0-3.5,1.352,2.417,2.417,0,0,0-1.037,2.346A1.892,1.892,0,0,0,92.338,41.9a4.137,4.137,0,0,0,2.544-.674c1.239-.524.893-1.561.937-2.488" transform="translate(137.04 47.01)" fill="#002f6b"/>
      <path id="Trazado_718573" data-name="Trazado 718573" d="M138.473,56.054a6.709,6.709,0,0,1-6.064,1.391,4.3,4.3,0,0,1-1.086-8.026,24.586,24.586,0,0,1,6.279-2.008c.782-.186.841-.387.457-1.063a2.646,2.646,0,0,0-2.539-1.195,4.2,4.2,0,0,0-3.8,1.5c-.292.408-.823.175-1.226.142-.485-.039-.225-.5-.253-.766a12.168,12.168,0,0,1-.01-1.228c0-1.378.016-1.311,1.321-1.595a21.253,21.253,0,0,1,3.943-.5,8.756,8.756,0,0,1,4.593.821c1.5.831,1.84,2.338,1.884,3.873.067,2.524.018,5.053.021,7.579,0,.392-.088.779.457,1,.524.212.307.782.279,1.192-.034.508-.49.255-.748.268-.759.034-1.52-.034-2.273.023-.929.07-1.654.005-1.236-1.4m-.274-4.2c0-.733-.023-1.236.008-1.739.021-.392-.163-.532-.5-.441a14.381,14.381,0,0,0-3.36,1.159,2.478,2.478,0,0,0-1.143,3.022,2.26,2.26,0,0,0,3.1.748c1.308-.578,2.421-1.246,1.9-2.748" transform="translate(203.908 67.478)" fill="#002f6b"/>
      <path id="Trazado_718574" data-name="Trazado 718574" d="M86.874,55.878c-2.088,2.028-4.421,2.134-6.836,1.342A3.82,3.82,0,0,1,77.4,53.827a4.091,4.091,0,0,1,1.907-4.165c1.773-1.177,3.842-1.533,5.842-2.085a5.428,5.428,0,0,1,.619-.178c.328-.046.774.1.885-.335s-.191-.764-.488-1.048c-1.541-1.468-4.761-1-5.881.392-.5.622-1.024.421-1.5.366-.508-.062-.152-.627-.255-.95a.654.654,0,0,1,0-.188c0-2.405.01-2.333,2.423-2.648.916-.121,1.863-.25,2.759-.279,1.763-.049,3.623-.034,5.143,1.115a3.878,3.878,0,0,1,1.424,3.184c.036,2.591.018,5.182.008,7.77,0,.557.044,1.053.653,1.29.557.217.255.7.281,1.055.036.488-.387.3-.625.307-.916.018-1.835-.044-2.748.023-.756.057-1.135-.124-.975-.947a4.362,4.362,0,0,0,0-.63m-.379-4.3c0-.5,0-1.006,0-1.51,0-.25-.046-.477-.354-.395-1.595.41-3.352.627-4.392,2.052a1.874,1.874,0,0,0,.813,3c.957.436,1.775-.023,2.658-.408A1.89,1.89,0,0,0,86.5,52.051a3.237,3.237,0,0,1-.005-.475" transform="translate(122.275 67.483)" fill="#002f6b"/>
      <path id="Trazado_718575" data-name="Trazado 718575" d="M68.576,55.918a6.214,6.214,0,0,1-6.539,1.368,3.886,3.886,0,0,1-2.929-3.424,4.018,4.018,0,0,1,1.879-4.178,20.211,20.211,0,0,1,5.842-2.1,4.357,4.357,0,0,1,.712-.178c.31-.031.7.057.815-.312.116-.387-.155-.7-.405-.988a2.811,2.811,0,0,0-1.868-.9c-1.492-.155-2.97-.054-4.023,1.223a1.46,1.46,0,0,1-1.553.364c-.552-.08-.209-.617-.261-.942-.059-.369.046-.766-.026-1.133-.222-1.11.428-1.383,1.321-1.5a33.939,33.939,0,0,1,3.941-.526,9.241,9.241,0,0,1,4.6.821A3.775,3.775,0,0,1,71.972,47c.062,2.622.026,5.241.013,7.866,0,.529.08.981.632,1.205.6.24.307.759.292,1.135-.021.439-.446.227-.681.235-.916.028-1.835-.044-2.748.028-.748.057-1.03-.188-.906-.924a5.256,5.256,0,0,0,0-.624m-.379-4.2c0-.594-.026-1.068.008-1.541.028-.428-.145-.6-.542-.5a13.223,13.223,0,0,0-3.584,1.386,2.525,2.525,0,0,0-.975,2.47,2.263,2.263,0,0,0,2,1.419,4.963,4.963,0,0,0,2.8-1.288c.6-.622.132-1.388.294-1.948" transform="translate(93.346 67.475)" fill="#002f6b"/>
      <path id="Trazado_718576" data-name="Trazado 718576" d="M120.652,18.468c2.181-1.85,4.462-1.824,6.738-1.332,1.781.387,2.563,1.8,2.813,3.517.408,2.784.108,5.589.183,8.387.015.537.041.983.674,1.166.6.173.222.686.263,1.035.044.405-.341.276-.555.279q-2.276.015-4.55,0c-.219,0-.6.119-.544-.292.049-.343-.338-.836.276-1.032.547-.173.653-.6.653-1.1,0-2.5.034-4.988-.013-7.484-.034-1.752-1.977-2.692-3.832-1.886a2.286,2.286,0,0,0-1.685,2.459c.111,2.333.031,4.673.028,7.011,0,.4-.077.8.465.973.581.181.253.7.276,1.053.028.472-.4.292-.632.3q-2.086.023-4.17,0c-.235,0-.663.194-.653-.268.005-.356-.292-.818.237-1.081.467-.23.506-.645.5-1.115-.015-3.221-.005-6.444-.01-9.664,0-.32.134-.7-.351-.844-.674-.2-.415-.774-.374-1.179.044-.475.5-.232.769-.24.79-.034,1.582.023,2.369-.023.808-.049,1.476-.021,1.123,1.368" transform="translate(183.831 26.635)" fill="#002f6b"/>
      <path id="Trazado_718577" data-name="Trazado 718577" d="M102.671,11.378c-.046,4.653-3.125,7.631-7.636,7.6-4.575-.031-7.52-2.962-7.507-7.7.015-4.712,3.135-7.393,7.5-7.391,4.691,0,7.548,2.725,7.644,7.491m-4.165.126a9.9,9.9,0,0,0-.188-2.449,3.847,3.847,0,0,0-2.9-2.56,3.065,3.065,0,0,0-3.182,1.938,7.689,7.689,0,0,0-.106,5.786,3.145,3.145,0,0,0,2.888,2.116,2.739,2.739,0,0,0,2.617-1.326,5.641,5.641,0,0,0,.872-3.5" transform="translate(138.343 6.144)" fill="#002f6b"/>
      <path id="Trazado_718578" data-name="Trazado 718578" d="M74.721,11.386A7.141,7.141,0,0,1,67.1,18.973c-4.784-.1-7.429-2.9-7.486-7.613-.054-4.395,2.606-7.429,7.5-7.471,4.477-.041,7.6,2.488,7.613,7.5m-4.17.01c0-2.23-.059-2.335-.857-3.595a3.04,3.04,0,0,0-5.011-.021,6.912,6.912,0,0,0-.057,7.109,3.034,3.034,0,0,0,4.459.754A5.008,5.008,0,0,0,70.55,11.4" transform="translate(94.218 6.147)" fill="#002f6b"/>
      <path id="Trazado_718579" data-name="Trazado 718579" d="M120.2,42.758a6.979,6.979,0,0,1,7.548,7.4,7.34,7.34,0,0,1-7.871,7.584c-4.488-.116-7.246-3.231-7.288-7.577-.039-4.289,2.872-7.675,7.61-7.406m3.357,7.306a6.187,6.187,0,0,0-.343-2.562,3.541,3.541,0,0,0-2.782-2.276,3.043,3.043,0,0,0-3.12,1.894,7.618,7.618,0,0,0-.1,5.871,3.2,3.2,0,0,0,2.818,2.085,2.747,2.747,0,0,0,2.686-1.375,5.609,5.609,0,0,0,.836-3.636" transform="translate(177.955 67.558)" fill="#002f6b"/>
      <path id="Trazado_718580" data-name="Trazado 718580" d="M98.581,5.538a6.884,6.884,0,0,1,4.126-1.628,4.747,4.747,0,0,1,5.417,4.679c.023,2.467.013,4.931,0,7.4,0,.594.065,1.1.7,1.363.544.23.232.723.235,1.079,0,.454-.428.255-.666.258-1.422.021-2.844.023-4.268,0-.253,0-.741.23-.707-.3.023-.346-.379-.883.382-1.045.5-.106.552-.586.55-1.066-.015-2.433-.008-4.867-.01-7.3a2.271,2.271,0,0,0-2.516-2.405,3.718,3.718,0,0,0-1.99.648A2.152,2.152,0,0,0,98.8,9.167c.106,2.364.046,4.738.028,7.109,0,.519.08.929.65,1.089.63.175.248.681.281,1.022.049.48-.392.294-.624.3q-2.183.027-4.364,0c-.222,0-.6.15-.643-.181-.046-.364-.253-.862.152-1.117a1.807,1.807,0,0,0,.769-1.778c-.018-2.717,0-5.437-.016-8.155,0-.735.183-1.551-.836-1.915-.266-.093-.1-.643-.093-.981.005-.413.351-.271.568-.274.95-.015,1.9.036,2.846-.023.8-.049,1.391.013,1.061,1.275" transform="translate(148.629 6.085)" fill="#002f6b"/>
      <path id="Trazado_718581" data-name="Trazado 718581" d="M117.493,16.89a6.726,6.726,0,0,1,5.716,2.343,6.416,6.416,0,0,1,1.577,3.742,9.157,9.157,0,0,1-.39,4.16,6.806,6.806,0,0,1-5.618,4.57,7.652,7.652,0,0,1-5.984-1.19,6.913,6.913,0,0,1-3-5.69,7.929,7.929,0,0,1,.725-4.057,6.525,6.525,0,0,1,6.227-3.879c.217,0,.439,0,.748,0m3.282,6.978a4.13,4.13,0,0,0-.176-1.737,3.686,3.686,0,0,0-2.795-2.774,3.145,3.145,0,0,0-3.282,1.819,7.278,7.278,0,0,0,.219,6.524,2.95,2.95,0,0,0,2.813,1.494,2.823,2.823,0,0,0,2.655-1.959,7.481,7.481,0,0,0,.565-3.368" transform="translate(173.522 26.665)" fill="#002f6b"/>
      <path id="Trazado_718582" data-name="Trazado 718582" d="M108.936,29.83c4.421-.351,7.708,2.919,7.52,7.814a7.335,7.335,0,0,1-7.721,7.171c-3.85-.059-7.757-2.642-7.318-8.511a6.845,6.845,0,0,1,7.52-6.475m-3.507,7.316a5.838,5.838,0,0,0,1.128,3.817,3.116,3.116,0,0,0,4.679.214,7.663,7.663,0,0,0,.423-7.272,3.116,3.116,0,0,0-5.391-.1,6.277,6.277,0,0,0-.839,3.342" transform="translate(160.242 47.107)" fill="#002f6b"/>
      <path id="Trazado_718583" data-name="Trazado 718583" d="M164.024,50.195c.421,4.439-3.239,7.69-7.628,7.587a7.284,7.284,0,0,1-7.36-7.878c.1-3.7,2.524-7.5,8.469-7.156,3.832.222,6.518,3.084,6.518,7.447m-10.8-.041a5.572,5.572,0,0,0,.728,3.391,3.14,3.14,0,0,0,4.782.738c1.492-1.3,1.848-6.067.338-7.822a3.083,3.083,0,0,0-5.288.64,5.456,5.456,0,0,0-.56,3.053" transform="translate(235.555 67.53)" fill="#002f6b"/>
      <path id="Trazado_718584" data-name="Trazado 718584" d="M106.8,44.23a7.233,7.233,0,0,1,5.184-1.479c3.221.108,4.072,1.948,4.377,4.235a68.7,68.7,0,0,1,.178,7.917c.008.472.049.88.514,1.112.521.263.23.73.23,1.084,0,.454-.428.255-.661.261-1.422.021-2.844.013-4.266.005-.225,0-.581.108-.537-.31.039-.335-.25-.846.212-.983.754-.227.694-.852.7-1.344.046-2.271.057-4.547.01-6.82-.046-2.15-1.8-3.195-3.783-2.369-1.435.591-1.977.859-1.912,2.756.07,2.147.018,4.3.016,6.444,0,.578.028,1.089.73,1.332.452.155.17.653.2.994.041.421-.32.3-.539.3-1.517.008-3.032.01-4.55,0-.217,0-.6.137-.565-.268.034-.348-.33-.852.253-1.045.6-.2.676-.658.676-1.182,0-3.19-.01-6.382.008-9.571,0-.418-.08-.859-.457-.932-.774-.145-.49-.689-.485-1.079.013-.6.524-.3.8-.317.916-.039,1.837.049,2.746-.034.844-.077,1.164.194.914,1.3" transform="translate(161.638 67.555)" fill="#002f6b"/>
      <path id="Trazado_718585" data-name="Trazado 718585" d="M96.646,30.069A6.682,6.682,0,0,1,89.488,31.2,3.968,3.968,0,0,1,87.2,27.932a81.639,81.639,0,0,1-.173-8.482c-.015-.542-.057-.978-.689-1.154-.55-.15-.2-.635-.253-.957-.075-.47.325-.351.581-.354,1.166-.01,2.338.026,3.5-.018.583-.023.658.217.653.712-.021,2.9-.013,5.809-.008,8.715a2.477,2.477,0,0,0,1.85,2.7,3.965,3.965,0,0,0,3.587-1.551A1.317,1.317,0,0,0,96.314,27c0-2.56-.008-5.117.013-7.675,0-.418-.077-.862-.459-.932-.772-.145-.488-.689-.48-1.079.013-.6.521-.31.795-.317,1.138-.036,2.276.023,3.412-.031.612-.028.723.183.72.746-.026,3.664-.013,7.326-.015,10.991,0,.5,0,.95.529,1.272.457.279.255.823.191,1.223-.057.377-.472.181-.725.188-.756.028-1.515.01-2.273.01-1.288,0-1.288,0-1.373-1.326" transform="translate(135.973 26.765)" fill="#002f6b"/>
      <path id="Trazado_718586" data-name="Trazado 718586" d="M69.595,44.256a7.22,7.22,0,0,1,5.215-1.507c2.9.088,4.134,1.83,4.371,4.366.253,2.7.155,5.409.181,8.113,0,.266-.083.573.31.679.666.178.47.741.428,1.159-.052.563-.547.279-.826.286-1.36.034-2.72.021-4.077.008-.219,0-.583.134-.563-.279.018-.346-.235-.888.183-1,.79-.212.712-.862.725-1.332.059-2.243.052-4.488.015-6.73a2.509,2.509,0,0,0-1.626-2.6,4.029,4.029,0,0,0-3.765,1.146,1.6,1.6,0,0,0-.3.957c.018,2.433.01,4.867.008,7.3,0,.56.085,1.012.728,1.241.459.165.173.65.212.988.046.418-.31.307-.537.31-1.517.008-3.035.01-4.55,0-.217,0-.6.137-.568-.263.031-.351-.335-.852.248-1.05.6-.2.679-.658.676-1.182,0-3.19-.008-6.382.01-9.576,0-.421-.083-.854-.462-.929-.769-.15-.488-.694-.477-1.084.015-.594.526-.294.805-.31.885-.039,1.77.026,2.653-.026.777-.044,1.321.052.981,1.316" transform="translate(102.856 67.555)" fill="#002f6b"/>
      <path id="Trazado_718587" data-name="Trazado 718587" d="M143.231,39.376c.655-1.786,1.3-3.553,1.951-5.321a9.062,9.062,0,0,0,.5-1.375c.1-.526.821-1.257-.4-1.52-.232-.046-.093-.64-.085-.978.013-.413.359-.268.573-.271,1.169-.013,2.341-.015,3.507,0,.217,0,.575-.165.622.2.044.354.219.926-.1,1.05-1.466.586-1.533,1.99-1.961,3.161-1.484,4.046-2.872,8.131-4.418,12.154-.769,2-1.969,3.724-4.31,4.2a6.784,6.784,0,0,1-3.388-.294c-.4-.124-.4-.418-.4-.743,0-.854-.016-1.706.008-2.557.008-.237-.188-.671.268-.658.418.015.911-.271,1.27.237,1.223,1.729,2.413,1.677,3.525-.139a3.689,3.689,0,0,0,.09-3.765c-1.561-3.422-2.947-6.924-4.405-10.392A1.4,1.4,0,0,0,135,31.353c-.612-.1-.418-.655-.434-1.066-.028-.557.4-.374.663-.377q2.369-.019,4.738,0c.217,0,.6-.16.63.191.036.366.258.844-.165,1.11a.669.669,0,0,0-.284.955q1.436,3.522,2.88,7.045c.021.049.1.08.2.163" transform="translate(212.665 47.222)" fill="#002f6b"/>
      <path id="Trazado_718588" data-name="Trazado 718588" d="M90.832,43.11a5.983,5.983,0,0,1-3.406,1.51c-2.828.4-5.93-.643-6.108-4.542-.121-2.673-.049-5.342-.139-8.013-.01-.263.1-.57-.3-.684-.71-.2-.508-.815-.421-1.241.093-.441.583-.2.888-.214.916-.034,1.835.031,2.748-.026.681-.046.911.116.9.859-.052,2.65-.021,5.306-.021,7.958A4.985,4.985,0,0,0,85.137,40c.488,1.848,1.556,2.467,3.36,1.861,1.77-.6,2.168-1.135,2.168-2.952,0-2.021.015-4.044-.01-6.067-.01-.643.126-1.36-.8-1.659-.33-.108-.15-.689-.119-1.04.036-.384.395-.219.612-.222,1.141-.015,2.279.034,3.414-.023.632-.034.707.219.7.759-.021,3.571,0,7.14-.018,10.709a1.638,1.638,0,0,0,.717,1.613c.49.292.222.738.212,1.1-.013.441-.439.237-.676.243-.947.026-1.894.01-2.844.01-.991,0-.991,0-1.024-1.218" transform="translate(127.024 47.213)" fill="#002f6b"/>
      <path id="Trazado_718589" data-name="Trazado 718589" d="M105.122,50.162c-1.326,0-2.655.036-3.982-.018-.632-.026-.777.222-.686.759a4.457,4.457,0,0,0,2.655,3.817,4.293,4.293,0,0,0,4.356-.5,1.581,1.581,0,0,0,.668-.867c.15-.818.741-.552,1.151-.5.511.059.243.557.258.849.039.79.01,1.579.016,2.369,0,.328-.016.6-.408.735a11.937,11.937,0,0,1-8.152.395,6.811,6.811,0,0,1-4.555-5.948,7.843,7.843,0,0,1,1.177-5.623,6.2,6.2,0,0,1,5.334-2.88,6.814,6.814,0,0,1,4.356,1.239,6.537,6.537,0,0,1,2.41,4.108c.41,2.057.335,2.072-1.752,2.072Zm.565-2.279c-.175-.575-.111-1.141-.508-1.654a2.406,2.406,0,0,0-2.632-.764,2.271,2.271,0,0,0-1.8,1.783c-.15.581-.049.645.452.64,1.479-.013,2.957-.005,4.485-.005" transform="translate(152.322 67.556)" fill="#002f6b"/>
      <path id="Trazado_718590" data-name="Trazado 718590" d="M80.351,50.163c-1.388,0-2.782,0-4.17,0-.3,0-.681-.093-.606.434a5.071,5.071,0,0,0,2.307,3.933c1.68,1.019,4.506.7,5.44-1.215a.863.863,0,0,1,1.055-.49c.552.108.261.555.286.839.044.565-.065,1.151.028,1.7.181,1.1-.364,1.541-1.324,1.819a11.838,11.838,0,0,1-7.037.077,6.42,6.42,0,0,1-4.557-5.282,8.024,8.024,0,0,1,1.154-6.555,6.125,6.125,0,0,1,4.95-2.676,6.419,6.419,0,0,1,5.337,1.858A7.241,7.241,0,0,1,85.04,48.94c.129,1.215.07,1.223-1.182,1.223Zm-4.56-2.279h4.6c.25,0,.488.046.5-.361A2.242,2.242,0,0,0,78.96,45.4a2.713,2.713,0,0,0-3.169,2.48" transform="translate(113.095 67.554)" fill="#002f6b"/>
      <path id="Trazado_718591" data-name="Trazado 718591" d="M62.279,37.194a6.237,6.237,0,0,0,1.391,3.639c1.69,1.812,5.195,1.876,6.49-.64.286-.555.7-.258,1.053-.3.483-.054.323.366.328.606.018.852-.028,1.708.023,2.56a.68.68,0,0,1-.488.777,12.489,12.489,0,0,1-6.162.841,7.236,7.236,0,0,1-6.57-8.715,7.077,7.077,0,0,1,1.626-3.845,5.754,5.754,0,0,1,4.351-2.279,8.451,8.451,0,0,1,3.249.258,6.374,6.374,0,0,1,4.147,5.288c.279,1.633.186,1.657-1.515,1.646-2.637-.013-5.264.359-7.922.163m2.784-2.248a16.667,16.667,0,0,1,1.8.013c.828.088.821-.385.643-.911-.4-1.184-1.094-1.711-2.681-1.572a2.6,2.6,0,0,0-2.183,1.966c-.044.333.028.529.436.511.661-.028,1.326-.008,1.99-.008" transform="translate(92.083 47.11)" fill="#002f6b"/>
      <path id="Trazado_718592" data-name="Trazado 718592" d="M127.01,37.064a6.617,6.617,0,0,1,2.591-5.858,6.249,6.249,0,0,1,2.539-1.223,6.484,6.484,0,0,1,8.139,5.29c.3,1.845.294,1.75-1.53,1.866-2.387.155-4.774.181-7.161.155-.526-.005-.684.186-.6.65a4.741,4.741,0,0,0,2.5,3.842,4.376,4.376,0,0,0,4.379-.307,2.36,2.36,0,0,0,.852-1.084c.271-.578.712-.459,1.112-.413.5.057.232.5.25.766.041.6-.057,1.21.028,1.8.137.932-.209,1.378-1.1,1.675a11.349,11.349,0,0,1-7.718.039,6.726,6.726,0,0,1-4.271-7.195m6.635-2.033c.723,0,1.445-.013,2.168.005.426.013.56-.111.423-.547-.4-1.293-1.066-1.9-1.977-1.948a2.607,2.607,0,0,0-2.981,1.881c-.248.632.046.617.485.612.627-.008,1.254,0,1.881,0" transform="translate(200.691 47.026)" fill="#002f6b"/>
      <path id="Trazado_718593" data-name="Trazado 718593" d="M67.041,24.1c-1.422,0-2.841.005-4.263,0-.426,0-.573.031-.475.578a6.625,6.625,0,0,0,1.081,2.893c1.5,2.021,5.254,2.431,6.671-.214.312-.583.774-.423,1.195-.39.508.039.258.49.266.751.036.79-.023,1.582.028,2.369a.738.738,0,0,1-.534.834c-2.991,1.156-6,1.44-8.962-.008a6.447,6.447,0,0,1-3.636-5.133,8.065,8.065,0,0,1,1.561-6.617,5.527,5.527,0,0,1,4.268-2.255,8.131,8.131,0,0,1,3.685.361A6.563,6.563,0,0,1,71.7,22.378c.341,1.713.281,1.726-1.535,1.726ZM65,22.017c.6,0,1.205-.046,1.8.01.852.08.883-.348.645-.95a2.732,2.732,0,0,0-.395-.815,2.581,2.581,0,0,0-4.286.875c-.222.627-.263.934.534.888.565-.036,1.133-.008,1.7-.008" transform="translate(92.103 26.661)" fill="#002f6b"/>
      <path id="Trazado_718594" data-name="Trazado 718594" d="M82.506,24.1c-1.391,0-2.779.018-4.17-.01-.483-.01-.71.106-.627.619.3,1.892,1.179,3.948,3.77,4.428,1.092.2,3.272-.263,3.837-1.461.129-.271.268-.624.627-.728.766-.217,1.053.015,1.058.839,0,.506,0,1.012,0,1.515,0,1.51.015,1.572-1.445,1.961-2.508.671-5.032.97-7.533-.1a6.5,6.5,0,0,1-4.1-4.975,8.056,8.056,0,0,1,1.143-6.645,6.153,6.153,0,0,1,4.955-2.673c2.039-.072,3.889.209,5.326,1.853a7.057,7.057,0,0,1,1.843,4.227c.083,1.143.065,1.146-1.177,1.146Zm-4.521-2.088c1.517,0,3.03-.008,4.544.005.346.005.526-.062.493-.462a2.281,2.281,0,0,0-1.654-2.008,2.677,2.677,0,0,0-3.383,2.464" transform="translate(116.46 26.661)" fill="#002f6b"/>
      <path id="Trazado_718595" data-name="Trazado 718595" d="M85.138,16.548a2.934,2.934,0,0,0,2-.524c.942-.715.864-1.685-.173-2.343a25.455,25.455,0,0,0-3.84-1.489,10.242,10.242,0,0,1-2.083-1.169,3.883,3.883,0,0,1,1.4-6.58,10.4,10.4,0,0,1,8.307.692c.5.261.552.5.281.934-.434.707-.8,1.458-1.285,2.124-.116.155-.075.79-.684.467-.421-.222-.994-.178-.893-.906a1.023,1.023,0,0,0-.612-1.032,4.217,4.217,0,0,0-3.641-.008c-.614.423-.65,1.043-.028,1.435A9.512,9.512,0,0,0,86.33,9.167a9.544,9.544,0,0,1,4.377,2.224,4.513,4.513,0,0,1-.55,6.088,8.561,8.561,0,0,1-6.4,1.383,10.461,10.461,0,0,1-4.5-1.724c-.423-.284-.372-.514-.173-.813.578-.872,1.172-1.729,1.773-2.586.1-.15.271-.343.457-.147.307.333,1.009.39.947.929-.065.506-.23,1.019.232,1.329a3.391,3.391,0,0,0,1.969.7c.191,0,.379,0,.674,0" transform="translate(124.765 6.143)" fill="#002f6b"/>
      <path id="Trazado_718596" data-name="Trazado 718596" d="M141.214,57.793a10.035,10.035,0,0,1-6.02-1.889c-.395-.3-.392-.5-.178-.808.544-.784,1.092-1.566,1.69-2.31.132-.165.2-.666.441-.462.361.3.991.405,1.066.963.219,1.61.186,1.672,1.6,1.951a5.274,5.274,0,0,0,2.867-.157,1.463,1.463,0,0,0,1.04-1.2,1.351,1.351,0,0,0-.743-1.357,9.925,9.925,0,0,0-2.356-1,11.64,11.64,0,0,1-3.848-1.912,3.854,3.854,0,0,1,1.36-6.248,10.746,10.746,0,0,1,8.121.338c1.1.483,1.086.544.467,1.512-.4.619-.751,1.267-1.143,1.889-.132.214-.237.612-.591.395-.294-.183-.877-.178-.846-.594.1-1.432-.994-1.579-1.925-1.8a3.25,3.25,0,0,0-1.75.124c-.557.183-1.014.444-1.066,1-.054.573.485.849.937,1.027.965.382,1.956.7,2.942,1.037a10.024,10.024,0,0,1,2.882,1.4c2.346,1.778,1.837,5.832-.986,7.164a10.175,10.175,0,0,1-3.961.937" transform="translate(213.172 67.527)" fill="#002f6b"/>
      <path id="Trazado_718597" data-name="Trazado 718597" d="M156.085,55.508c0,.6.209,1.332-.059,1.757-.263.41-1.058.3-1.628.387-3.682.581-6.934-.155-9.4-3.12A7,7,0,0,1,143.567,51a7.606,7.606,0,0,1,.457-4.064,6.522,6.522,0,0,1,5.29-4.072,9.372,9.372,0,0,1,5.946.754c.026.013.052.034.08.049,2.08,1.079,2.178,1.644.575,3.259a2.883,2.883,0,0,0-.514.555c-.209.361-.439.862-.875.591-.382-.237-1.094-.485-.7-1.272.132-.263-.052-.516-.258-.751-1.329-1.548-4.263-1.079-5.406.965a5.936,5.936,0,0,0,.594,6.568c1,1.226,3.731,1.9,5.022,1.04a2,2,0,0,0,.8-.756c.3-.681.872-.418,1.308-.374s.194.508.222.782c.039.408.01.823.01,1.234Z" transform="translate(226.767 67.484)" fill="#002f6b"/>
      <path id="Trazado_718598" data-name="Trazado 718598" d="M113.877,29.757c-.067.526.274,1.332-.145,1.724-.338.32-1.117.214-1.693.31a9.745,9.745,0,0,1-8.24-2.085,7.009,7.009,0,0,1-2.421-4.746,7.009,7.009,0,0,1,2.08-6.2,7.575,7.575,0,0,1,4.142-1.824,9.82,9.82,0,0,1,4.55.4,6.936,6.936,0,0,1,2.986,1.948,15.875,15.875,0,0,1-2.356,2.831c-.243.248-1.179-.24-1.154-.65.057-.937-.124-1.685-1.1-2.008a3.649,3.649,0,0,0-3.582.573c-1.595,1.275-2.15,4.126-1.154,6.33a4.438,4.438,0,0,0,4.805,2.728,1.9,1.9,0,0,0,1.672-.937,1.058,1.058,0,0,1,1.308-.552c.617.142.225.674.289,1.022a6.216,6.216,0,0,1,.015,1.133" transform="translate(160.143 26.59)" fill="#002f6b"/>
      <path id="Trazado_718599" data-name="Trazado 718599" d="M113.748,40.762c0,1.6.015,3.143-.013,4.684-.008.483.106.674.622.645.852-.041,1.706.018,2.56-.021.5-.023.63.132.637.632.026,1.654.049,1.654-1.595,1.654-2.212,0-2.212,0-2.212,2.253,0,2.021.018,4.041-.013,6.062-.01.735.181,1.339.924,1.52A1.118,1.118,0,0,0,116,57.324c.235-.666.774-.418,1.195-.415.6,0,.284.5.335.787a5.2,5.2,0,0,1,.01.852c0,1.67,0,1.685-1.577,2.072a6.324,6.324,0,0,1-2.867.206c-2.258-.5-2.741-1.461-2.919-4.15-.165-2.485-.054-4.988-.023-7.478.01-.624-.09-.97-.8-.844-.555.1-.834-.083-.738-.7a3.118,3.118,0,0,0,0-.849c-.08-.578.121-.836.717-.723.671.124.864-.16.818-.821-.057-.911.018-1.832-.026-2.743a.663.663,0,0,1,.49-.772c1.014-.328,2.033-.643,3.128-.986" transform="translate(171.652 64.427)" fill="#002f6b"/>
      <path id="Trazado_718600" data-name="Trazado 718600" d="M112.676,27.822c0,1.577.023,3.086-.013,4.593-.013.557.1.792.715.748.88-.057,1.768.01,2.653-.021.483-.021.635.119.643.624.028,1.659.049,1.639-1.587,1.667-.779.013-1.8-.351-2.271.147s-.121,1.5-.134,2.284c-.021,1.484.01,2.968-.013,4.449-.01.723.253,1.4.227,2.137a.89.89,0,0,0,.784.815,1.293,1.293,0,0,0,1.4-.875c.268-.805.826-.366,1.223-.4.6-.054.292.485.343.766a4.106,4.106,0,0,1,.01.756c0,1.659-.01,1.626-1.623,2.106a5.942,5.942,0,0,1-3.644.072,3.506,3.506,0,0,1-2.129-3.564c-.008-2.619-.023-5.241.013-7.863.008-.624-.1-.968-.8-.839-.555.1-.831-.088-.738-.7a2.925,2.925,0,0,0,0-.849c-.08-.581.126-.836.717-.725.676.129.862-.16.821-.818-.059-.911,0-1.83-.023-2.743-.008-.348.041-.6.41-.723.978-.328,1.951-.674,3.012-1.043" transform="translate(170.257 43.974)" fill="#002f6b"/>
      <path id="Trazado_718601" data-name="Trazado 718601" d="M97.364,24.095c0,2.937.005,5.868-.005,8.8,0,.493.008.939.519,1.2s.227.73.217,1.089c-.015.439-.439.24-.676.243-1.357.018-2.712.021-4.072,0-.235-.005-.658.209-.694-.222-.039-.408-.266-.978.232-1.205.544-.25.5-.64.5-1.074q0-8.1,0-16.2c0-.444.134-.911-.586-1.076-.361-.08-.142-.661-.152-1.014s.3-.253.493-.253c1.2-.01,2.4.028,3.6-.021.6-.021.643.24.64.725-.018,3-.008,6-.008,9" transform="translate(146.308 22.717)" fill="#002f6b"/>
      <path id="Trazado_718602" data-name="Trazado 718602" d="M128.707,36.622c0,2.588.028,5.179-.018,7.767-.013.73.237,1.417.2,2.132-.016.312.214.369.4.434.622.222.351.735.346,1.117,0,.526-.467.289-.725.294q-1.99.039-3.977,0c-.261-.005-.728.237-.748-.266-.015-.351-.294-.818.235-1.081.467-.232.5-.645.5-1.112q-.019-8.152-.01-16.3c0-.426.1-.841-.557-1-.415-.1-.165-.65-.183-.994-.023-.413.341-.281.557-.284,1.107-.01,2.212.023,3.316-.018.547-.021.679.165.676.689-.026,2.872-.013,5.749-.013,8.622" transform="translate(196.142 43.164)" fill="#002f6b"/>
      <path id="Trazado_718603" data-name="Trazado 718603" d="M81.158,10.568c0,1.894-.005,3.788,0,5.682,0,.286-.126.635.325.761.661.186.454.759.4,1.166-.059.529-.555.263-.839.271-1.357.028-2.717.023-4.075,0-.255-.005-.723.237-.728-.289,0-.379-.292-.911.346-1.107.514-.16.6-.519.591-1.017-.021-3.187-.015-6.379,0-9.566,0-.436-.023-.929-.467-1.017-.777-.157-.477-.7-.467-1.089.018-.586.532-.294.808-.3,1.071-.039,2.15.044,3.218-.036.8-.062.916.261.9.952-.044,1.863-.013,3.724-.013,5.589" transform="translate(120.407 6.317)" fill="#002f6b"/>
      <path id="Trazado_718604" data-name="Trazado 718604" d="M145.437,49.283c0,1.83.008,3.659-.01,5.486,0,.467.023.885.488,1.128.544.284.276.784.237,1.159s-.464.191-.712.194c-1.324.023-2.648.026-3.974,0-.258-.005-.725.237-.746-.268-.01-.348-.292-.815.237-1.079.465-.227.506-.643.5-1.112-.015-3.122-.01-6.245-.005-9.37,0-.467.054-.883-.521-1.156-.477-.23-.261-.81-.2-1.213s.47-.188.717-.194c1.1-.026,2.209.015,3.311-.023.526-.018.7.132.689.676-.031,1.923-.013,3.848-.01,5.773" transform="translate(222.277 67.663)" fill="#002f6b"/>
      <path id="Trazado_718605" data-name="Trazado 718605" d="M98.32,49.319c0,1.835,0,3.667,0,5.5,0,.452-.121.911.524,1.138.5.175.212.717.2,1.079-.008.385-.387.219-.6.222-1.391.013-2.779.018-4.17,0-.237-.005-.666.194-.668-.253,0-.356-.294-.823.227-1.086.459-.235.516-.637.514-1.112-.016-3.161-.008-6.32-.01-9.481,0-.392.088-.782-.457-1-.524-.209-.3-.779-.279-1.187.031-.514.488-.266.748-.274,1.074-.028,2.15.034,3.221-.028.655-.034.777.206.764.8-.034,1.894-.013,3.793-.013,5.688" transform="translate(147.817 67.658)" fill="#002f6b"/>
      <path id="Trazado_718606" data-name="Trazado 718606" d="M89.5,10.469c0,1.832.01,3.664-.008,5.5-.005.467.034.872.49,1.125.519.286.284.787.232,1.164s-.472.183-.723.186c-1.326.021-2.653.023-3.982,0-.245-.005-.668.2-.715-.2-.057-.431-.276-1.024.274-1.275a.735.735,0,0,0,.449-.818c0-3.316-.008-6.635.008-9.953,0-.387-.07-.637-.459-.792-.578-.232-.3-.761-.276-1.138.028-.431.457-.214.694-.219,1.107-.028,2.217.028,3.316-.028.632-.034.72.212.71.756-.031,1.9-.01,3.793-.01,5.69" transform="translate(133.876 6.325)" fill="#002f6b"/>
      <path id="Trazado_718607" data-name="Trazado 718607" d="M111.7,23.182q0,2.7,0,5.406c0,.6.064,1.154.7,1.455.521.25.212.723.222,1.084.018.4-.364.25-.578.25-1.484.015-2.973.015-4.457,0-.24,0-.658.165-.614-.32.034-.359-.276-.862.3-1.048.612-.194.648-.632.643-1.174q-.027-4.691,0-9.386c0-.516-.057-.914-.622-1.094-.627-.206-.31-.748-.3-1.128.005-.444.434-.243.671-.248,1.1-.023,2.212.021,3.316-.023.578-.026.756.129.741.725-.044,1.832-.015,3.667-.015,5.5" transform="translate(168.961 26.775)" fill="#002f6b"/>
      <path id="Trazado_718608" data-name="Trazado 718608" d="M78.826,1.385c1.383-.217,2.338,1.05,2.426,2.462a2.678,2.678,0,0,1-2.464,2.645,2.575,2.575,0,0,1-2.431-2.681c.108-1.4.48-2.441,2.47-2.426" transform="translate(120.675 2.15)" fill="#002f6b"/>
      <path id="Trazado_718609" data-name="Trazado 718609" d="M111.808,16.74a2.45,2.45,0,0,1-2.3,2.7,2.487,2.487,0,0,1-2.439-2.686,2.265,2.265,0,0,1,2.387-2.457,2.178,2.178,0,0,1,2.353,2.444" transform="translate(169.226 22.595)" fill="#002f6b"/>
      <path id="Trazado_718610" data-name="Trazado 718610" d="M143.239,40.178a2.383,2.383,0,0,1,2.415,2.493,2.7,2.7,0,0,1-2.483,2.627,2.651,2.651,0,0,1-2.441-2.617,2.421,2.421,0,0,1,2.508-2.5" transform="translate(222.432 63.501)" fill="#002f6b"/>
      <path id="Trazado_718611" data-name="Trazado 718611" d="M96.107,40.177a2.35,2.35,0,0,1,2.421,2.464,2.608,2.608,0,0,1-2.433,2.653,2.635,2.635,0,0,1-2.477-2.661,2.366,2.366,0,0,1,2.49-2.457" transform="translate(147.967 63.502)" fill="#002f6b"/>
      <path id="Trazado_718612" data-name="Trazado 718612" d="M87.253,1.385c1.383-.217,2.335,1,2.449,2.439a2.461,2.461,0,1,1-4.9-.083c.085-1.334.735-2.457,2.446-2.356" transform="translate(134.035 2.15)" fill="#002f6b"/>
      <path id="Trazado_718613" data-name="Trazado 718613" d="M130.737,45.488a55.248,55.248,0,0,1,4.627-5.037,1.124,1.124,0,0,1,1.84.1,1.293,1.293,0,0,1-.421,2.049c-1.228.8-2.516,1.507-3.762,2.279a2.563,2.563,0,0,1-2.284.609" transform="translate(206.638 63.255)" fill="#002f6b"/>
      <path id="Trazado_718614" data-name="Trazado 718614" d="M111.734,19.639c.328-1.022,1.3-1.533,1.889-2.359A22.626,22.626,0,0,1,115.9,14.8c1.014-1.04,2.15-.792,2.4.4a1.285,1.285,0,0,1-.606,1.445c-1.365.877-2.723,1.765-4.1,2.63a2.383,2.383,0,0,1-1.861.364" transform="translate(176.602 22.362)" fill="#002f6b"/>
      <path id="Trazado_718615" data-name="Trazado 718615" d="M89.422,6.743a54.306,54.306,0,0,1,4.66-5.112,1.308,1.308,0,0,1,1.912,0,1.378,1.378,0,0,1-.328,1.974c-1.559,1.035-3.141,2.033-4.725,3.027-.392.245-.844.052-1.52.108" transform="translate(141.337 1.925)" fill="#002f6b"/>
    </g>
  </g>
</svg>
