<svg xmlns="http://www.w3.org/2000/svg" xmlns:xlink="http://www.w3.org/1999/xlink" width="98.955" height="99.541" viewBox="0 0 98.955 99.541">
  <defs>
    <radialGradient id="radial-gradient" cx="0.076" cy="0.019" r="1.465" gradientTransform="translate(0.001)" gradientUnits="objectBoundingBox">
      <stop offset="0" stop-color="#f6f6f7"/>
      <stop offset="0.477" stop-color="#f9f9fa"/>
      <stop offset="0.715" stop-color="#fff"/>
    </radialGradient>
    <filter id="Trazado_40937" x="0" y="0.685" width="98.955" height="98.856" filterUnits="userSpaceOnUse">
      <feOffset dy="7" input="SourceAlpha"/>
      <feGaussianBlur stdDeviation="2.5" result="blur"/>
      <feFlood flood-opacity="0.102"/>
      <feComposite operator="in" in2="blur"/>
      <feComposite in="SourceGraphic"/>
    </filter>
    <clipPath id="clip-path">
      <rect id="Rectángulo_348193" data-name="Rectángulo 348193" width="39.065" height="39.957" transform="translate(0 0)" fill="none"/>
    </clipPath>
  </defs>
  <g id="Grupo_1009283" data-name="Grupo 1009283" transform="translate(-278.586 -3298)">
    <g id="Grupo_997988" data-name="Grupo 997988" transform="translate(285 3298)">
      <g id="Grupo_18423" data-name="Grupo 18423" transform="translate(0 0)">
        <g id="Grupo_18421" data-name="Grupo 18421">
          <g id="Grupo_18420" data-name="Grupo 18420">
            <g id="Grupo_18419" data-name="Grupo 18419">
              <path id="Trazado_40936" data-name="Trazado 40936" d="M279.664,2188.24a42.521,42.521,0,1,1-42.52-42.519A42.52,42.52,0,0,1,279.664,2188.24Z" transform="translate(-194.623 -2145.721)" fill="#fff"/>
            </g>
          </g>
        </g>
        <g transform="matrix(1, 0, 0, 1, -6.41, 0)" filter="url(#Trazado_40937)">
          <path id="Trazado_40937-2" data-name="Trazado 40937" d="M279.432,2187.987a42.52,42.52,0,1,0-42.52,42.521A42.352,42.352,0,0,0,279.432,2187.987Z" transform="translate(-187.98 -2145.47)" fill="url(#radial-gradient)"/>
        </g>
        <path id="Trazado_40938" data-name="Trazado 40938" d="M267.371,2186.006a32.456,32.456,0,1,0-32.456,32.456A32.336,32.336,0,0,0,267.371,2186.006Z" transform="translate(-192.266 -2143.346)" fill="none" stroke="#4db1f0" stroke-miterlimit="10" stroke-width="4"/>
        <g id="Grupo_18422" data-name="Grupo 18422" transform="translate(7.533 23.872)">
          <path id="Trazado_40939" data-name="Trazado 40939" d="M273.754,2164.488a42.526,42.526,0,0,1-73.209,42.344,42.391,42.391,0,0,0,73.209-42.344Z" transform="translate(-200.545 -2164.488)" fill="#eceef0"/>
        </g>
      </g>
    </g>
    <g id="Grupo_1009282" data-name="Grupo 1009282" transform="translate(308 3321)">
      <g id="Grupo_1009281" data-name="Grupo 1009281" clip-path="url(#clip-path)">
        <path id="Trazado_718502" data-name="Trazado 718502" d="M35.695,39.369,14.139,37.137a.5.5,0,0,1-.447-.55l2.232-21.556a.5.5,0,0,1,.55-.446L38.03,16.816a.5.5,0,0,1,.447.55L36.245,38.922a.5.5,0,0,1-.55.447" fill="#eef5f6"/>
        <path id="Trazado_718503" data-name="Trazado 718503" d="M28.053,31.77,7.231,37.775a.5.5,0,0,1-.621-.343L.605,16.61a.5.5,0,0,1,.343-.621l20.822-6a.5.5,0,0,1,.621.342l6,20.822a.5.5,0,0,1-.343.621" fill="#ffdfc0"/>
        <path id="Trazado_718504" data-name="Trazado 718504" d="M28.4,31.149,22.39,10.327a.5.5,0,0,0-.62-.343l-1.985.572,5.489,19.032a.5.5,0,0,1-.343.621L6.093,35.642l.517,1.79a.5.5,0,0,0,.62.342l20.822-6a.5.5,0,0,0,.343-.62" fill="#ffa031"/>
        <path id="Trazado_718505" data-name="Trazado 718505" d="M31.65,26.977H9.979a.5.5,0,0,1-.5-.5V4.8a.5.5,0,0,1,.5-.5H31.65a.5.5,0,0,1,.5.5V26.476a.5.5,0,0,1-.5.5" fill="#94dbff"/>
        <path id="Trazado_718506" data-name="Trazado 718506" d="M38.03,16.816l-1.815-.188L33.9,38.922a.488.488,0,0,1-.1.251l1.89.2a.5.5,0,0,0,.55-.447l2.232-21.556a.5.5,0,0,0-.447-.55" fill="#cbe5e8"/>
        <path id="Trazado_718507" data-name="Trazado 718507" d="M31.65,4.3H29.81V24.135a.5.5,0,0,1-.5.5H9.478v1.84a.5.5,0,0,0,.5.5H31.65a.5.5,0,0,0,.5-.5V4.8a.5.5,0,0,0-.5-.5" fill="#4db1f0"/>
        <path id="Trazado_718508" data-name="Trazado 718508" d="M22.142,7.522H19.488a.429.429,0,0,1-.43-.429V1.015a.429.429,0,0,1,.43-.429h2.654a.429.429,0,0,1,.429.429V7.093a.429.429,0,0,1-.429.429" fill="#ffa031"/>
        <path id="Trazado_718509" data-name="Trazado 718509" d="M32.152,16.208l5.878.609a.5.5,0,0,1,.447.55L36.245,38.922a.5.5,0,0,1-.55.447L14.139,37.138a.5.5,0,0,1-.446-.551l.048-.469" fill="none" stroke="#000" stroke-linecap="round" stroke-linejoin="round" stroke-width="1.17"/>
        <path id="Trazado_718510" data-name="Trazado 718510" d="M27.192,26.977l1.2,4.172a.5.5,0,0,1-.342.621L7.23,37.775a.5.5,0,0,1-.62-.343L.605,16.61a.5.5,0,0,1,.343-.621l8.226-2.372" fill="none" stroke="#000" stroke-linecap="round" stroke-linejoin="round" stroke-width="1.17"/>
        <path id="Trazado_718511" data-name="Trazado 718511" d="M16.406,26.977H9.979a.5.5,0,0,1-.5-.5V4.8a.5.5,0,0,1,.5-.5h8.765" fill="none" stroke="#000" stroke-linecap="round" stroke-linejoin="round" stroke-width="1.17"/>
        <path id="Trazado_718512" data-name="Trazado 718512" d="M29.7,4.3H31.65a.5.5,0,0,1,.5.5V26.475a.5.5,0,0,1-.5.5H19.058" fill="none" stroke="#000" stroke-linecap="round" stroke-linejoin="round" stroke-width="1.17"/>
        <line id="Línea_2881" data-name="Línea 2881" x2="4.208" transform="translate(22.763 4.303)" fill="none" stroke="#000" stroke-linecap="round" stroke-linejoin="round" stroke-width="1.17"/>
        <path id="Rectángulo_348192" data-name="Rectángulo 348192" d="M.429,0H3.083a.43.43,0,0,1,.43.43V6.507a.429.429,0,0,1-.429.429H.429A.429.429,0,0,1,0,6.507V.429A.429.429,0,0,1,.429,0Z" transform="translate(19.058 0.586)" fill="none" stroke="#000" stroke-linecap="round" stroke-linejoin="round" stroke-width="1.17"/>
        <line id="Línea_2882" data-name="Línea 2882" x2="8.038" transform="translate(16.796 11.272)" fill="none" stroke="#000" stroke-linecap="round" stroke-linejoin="round" stroke-width="1.17"/>
        <line id="Línea_2883" data-name="Línea 2883" x2="15.961" transform="translate(12.835 14.735)" fill="none" stroke="#000" stroke-linecap="round" stroke-linejoin="round" stroke-width="1.17"/>
        <line id="Línea_2884" data-name="Línea 2884" x2="15.961" transform="translate(12.835 21.662)" fill="none" stroke="#000" stroke-linecap="round" stroke-linejoin="round" stroke-width="1.17"/>
        <line id="Línea_2885" data-name="Línea 2885" x2="5.081" transform="translate(12.835 18.198)" fill="none" stroke="#000" stroke-linecap="round" stroke-linejoin="round" stroke-width="1.17"/>
        <line id="Línea_2886" data-name="Línea 2886" x2="7.981" transform="translate(20.815 18.198)" fill="none" stroke="#000" stroke-linecap="round" stroke-linejoin="round" stroke-width="1.17"/>
      </g>
    </g>
  </g>
</svg>
