<svg id="Grupo_1009289" data-name="Grupo 1009289" xmlns="http://www.w3.org/2000/svg" xmlns:xlink="http://www.w3.org/1999/xlink" width="129.081" height="116.167" viewBox="0 0 129.081 116.167">
  <defs>
    <clipPath id="clip-path">
      <rect id="Rectángulo_348194" data-name="Rectángulo 348194" width="129.081" height="116.167" fill="none"/>
    </clipPath>
  </defs>
  <g id="Grupo_1009288" data-name="Grupo 1009288" clip-path="url(#clip-path)">
    <path id="Trazado_718516" data-name="Trazado 718516" d="M56.732,7.473l-52.8,92.42a9.723,9.723,0,0,0,8.285,14.6H117.809a9.723,9.723,0,0,0,8.285-14.6L73.3,7.473a9.5,9.5,0,0,0-16.564,0Z" transform="translate(-0.474 -0.475)" fill="#f0c419"/>
    <path id="Trazado_718517" data-name="Trazado 718517" d="M127.484,98.355,74.693,5.939a11.649,11.649,0,0,0-20.307,0L1.6,98.355A11.868,11.868,0,0,0,11.75,116.167H117.331a11.868,11.868,0,0,0,10.154-17.812m-10.154,13.509H11.75a7.568,7.568,0,0,1-6.41-11.38L58.129,8.069a7.34,7.34,0,0,1,12.821,0l52.791,92.416a7.568,7.568,0,0,1-6.411,11.38" transform="translate(0)"/>
    <path id="Trazado_718518" data-name="Trazado 718518" d="M85.161,98.571c.286-.255.565-.514.841-.787a15.814,15.814,0,0,0,4.308-8.037c1.371-4.086.9-8.82-.043-12.455A6.323,6.323,0,0,1,91.983,70.8a4.176,4.176,0,0,0-3.117.627A15.368,15.368,0,0,0,87.3,57.591a11.064,11.064,0,0,1-.7,3.829A15.02,15.02,0,0,0,81.46,51.258a6.159,6.159,0,0,1,0,4.381c-.389-2.269-2.5-5.008-5.222-7.669s-1.493-6.488-1.493-6.488c-3.752,2.584-2.794,6.488-2.018,10.012s0,4.92,0,4.92c-2.259-4.766-5.919-4.528-5.919-4.528,3.9,6.334-1.016,11.881-1.016,11.881-.547-2.654-3.585-2.892-3.585-2.892a6.544,6.544,0,0,1,.469,6.884,15.3,15.3,0,0,0-1.637,5.318c-.935-1.722-3.354-.782-3.354-.782,2.03,2.58,1.247,4.691.547,9.3-.387,2.563.207,4.04.813,4.849v.143a15.812,15.812,0,0,0,4.622,11.2c.276.274.555.533.84.787H56.145v6.152H93.234V98.571Zm1.358-26.117A6.39,6.39,0,0,0,86,75.385a16.316,16.316,0,0,0-1.71-1.484,2.573,2.573,0,0,1,2.227-1.446M81.95,67.709a7.771,7.771,0,0,1,.514,5.008,13.7,13.7,0,0,0-1.481-.725c-.36-.154-.715-.285-1.079-.411.659-3.322,2.046-3.872,2.046-3.872m-6.692-7.22a8.733,8.733,0,0,0,1.362-2.484,8.059,8.059,0,0,1,.033,4.332,4.866,4.866,0,0,0,.41,5.151,6.882,6.882,0,0,1,1.146,3.617,15.691,15.691,0,0,0-3.374-.357c-.245,0-.487,0-.73.011a20.769,20.769,0,0,1-1.133-2.441c-1.207-3.057,1.46-6.905,2.287-7.829m-6.03,7.258a9.9,9.9,0,0,1,1.82,3.452,15.659,15.659,0,0,0-2.023.649,12.143,12.143,0,0,1,.2-4.1m-4.85,3.6A4.635,4.635,0,0,1,66.1,73.389a15.6,15.6,0,0,0-1.786,1.386,5.875,5.875,0,0,1,.068-3.432m10.457,4.784A10.454,10.454,0,0,1,85.26,86.585,10.425,10.425,0,1,1,74.835,76.127" transform="translate(-10.149 -7.498)"/>
  </g>
</svg>
