<svg xmlns="http://www.w3.org/2000/svg" xmlns:xlink="http://www.w3.org/1999/xlink" width="129.081" height="116.167" viewBox="0 0 129.081 116.167">
  <defs>
    <clipPath id="clip-path">
      <rect id="Rectángulo_348195" data-name="Rectángulo 348195" width="129.081" height="116.167" fill="none"/>
    </clipPath>
  </defs>
  <g id="Grupo_1009291" data-name="Grupo 1009291" transform="translate(0 0)">
    <g id="Grupo_1009290" data-name="Grupo 1009290" transform="translate(0 0)" clip-path="url(#clip-path)">
      <path id="Trazado_718519" data-name="Trazado 718519" d="M56.732,7.473l-52.8,92.42a9.723,9.723,0,0,0,8.285,14.6H117.809a9.723,9.723,0,0,0,8.285-14.6L73.3,7.473a9.5,9.5,0,0,0-16.564,0Z" transform="translate(-0.474 -0.475)" fill="#f0c419"/>
      <path id="Trazado_718520" data-name="Trazado 718520" d="M127.484,98.355,74.693,5.939a11.649,11.649,0,0,0-20.307,0L1.6,98.355A11.868,11.868,0,0,0,11.75,116.167H117.331a11.868,11.868,0,0,0,10.154-17.812m-10.154,13.509H11.75a7.568,7.568,0,0,1-6.41-11.38L58.129,8.069a7.34,7.34,0,0,1,12.821,0l52.791,92.416a7.568,7.568,0,0,1-6.411,11.38" transform="translate(0)"/>
      <path id="Trazado_718521" data-name="Trazado 718521" d="M43.884,112.535A14.716,14.716,0,0,1,48.9,88.151a1.086,1.086,0,0,1,1.45,1.158l-.495,3.812a1.076,1.076,0,0,0,1.265,1.2l4.488-.841a1.076,1.076,0,0,1,1.256,1.256l-.826,4.4a1.075,1.075,0,0,0,1.254,1.254l4.4-.826a1.076,1.076,0,0,1,1.256,1.256L62.1,105.3a1.076,1.076,0,0,0,1.2,1.265l3.812-.495a1.086,1.086,0,0,1,1.158,1.45,14.719,14.719,0,0,1-24.384,5.012Z" transform="translate(-7.115 -15.922)"/>
      <path id="Trazado_718522" data-name="Trazado 718522" d="M84.467,63.145,71.791,80.891a2.152,2.152,0,0,0,.229,2.773l.465.465a2.153,2.153,0,0,0,2.773.229L93,71.682a2.15,2.15,0,0,0,.271-3.272l-5.535-5.527a2.15,2.15,0,0,0-3.272.262Z" transform="translate(-12.904 -11.252)"/>
      <path id="Trazado_718523" data-name="Trazado 718523" d="M53.929,52.4,57.513,73.91a2.15,2.15,0,0,0,2.123,1.8H60.3a2.152,2.152,0,0,0,2.121-1.8L66.007,52.4a2.152,2.152,0,0,0-2.129-2.5H56.05a2.152,2.152,0,0,0-2.121,2.5Z" transform="translate(-9.743 -9.019)"/>
      <path id="Trazado_718524" data-name="Trazado 718524" d="M102.092,104.512l-21.512-3.584a2.15,2.15,0,0,1-1.8-2.123V98.16a2.152,2.152,0,0,1,1.8-2.123l21.512-3.584a2.152,2.152,0,0,1,2.506,2.11v7.829a2.151,2.151,0,0,1-2.5,2.121" transform="translate(-14.24 -16.706)"/>
      <path id="Trazado_718525" data-name="Trazado 718525" d="M75.68,61a2.151,2.151,0,0,1-2-2.952l6.085-15.211a2.152,2.152,0,0,1,4,1.6L77.681,59.645A2.152,2.152,0,0,1,75.68,61Z" transform="translate(-13.291 -7.498)"/>
      <path id="Trazado_718526" data-name="Trazado 718526" d="M97.963,85.3a2.151,2.151,0,0,1-.8-4.149l15.211-6.077a2.151,2.151,0,0,1,1.6,3.995C97.132,85.8,98.548,85.3,97.963,85.3Z" transform="translate(-17.318 -13.544)"/>
      <path id="Trazado_718527" data-name="Trazado 718527" d="M85.222,115.136l9.407,1.97a2.151,2.151,0,0,1,1.588,2.822L94.85,123.8a2.15,2.15,0,0,1-3.091,1.153l-8.39-4.765a2.151,2.151,0,0,1-.979-2.551l.356-1.076A2.151,2.151,0,0,1,85.222,115.136Z" transform="translate(-14.873 -20.804)"/>
    </g>
  </g>
</svg>
