<svg id="Grupo_1009476" data-name="Grupo 1009476" xmlns="http://www.w3.org/2000/svg" xmlns:xlink="http://www.w3.org/1999/xlink" width="66" height="66.001" viewBox="0 0 66 66.001">
  <defs>
    <clipPath id="clip-path">
      <rect id="Rectángulo_349996" data-name="Rectángulo 349996" width="66" height="66.001" fill="none"/>
    </clipPath>
  </defs>
  <g id="Grupo_1009475" data-name="Grupo 1009475" clip-path="url(#clip-path)">
    <path id="Trazado_726140" data-name="Trazado 726140" d="M.944,30.711,30.71.945a3.247,3.247,0,0,1,4.579,0L65.055,30.711a3.249,3.249,0,0,1,0,4.579L35.29,65.056a3.247,3.247,0,0,1-4.579,0L.944,35.291a3.247,3.247,0,0,1,0-4.579" transform="translate(0 0)" fill="#fdc800" fill-rule="evenodd"/>
    <path id="Trazado_726141" data-name="Trazado 726141" d="M2.213,31.979,31.978,2.213a2.436,2.436,0,0,1,3.434,0L65.179,31.979a2.435,2.435,0,0,1,0,3.434L35.412,65.179a2.436,2.436,0,0,1-3.434,0L2.213,35.413a2.433,2.433,0,0,1,0-3.434m.572.572a1.624,1.624,0,0,0,0,2.289L32.551,64.607a1.623,1.623,0,0,0,2.289,0L64.607,34.841a1.624,1.624,0,0,0,0-2.289L34.84,2.786a1.624,1.624,0,0,0-2.289,0Z" transform="translate(-0.695 -0.696)" fill="#1d1d1b" fill-rule="evenodd"/>
    <path id="Trazado_726142" data-name="Trazado 726142" d="M30.463,57.845c-.246.008-.339-.2-.275-.633-.005-.536,0-1.041.025-1.5A17.455,17.455,0,0,1,31.8,50.7a15.093,15.093,0,0,1,2.008-3.065,2.857,2.857,0,0,1,1.611-.949,51.391,51.391,0,0,1,9.51,0,2.855,2.855,0,0,1,1.611.949,15.266,15.266,0,0,1,1.968,2.981,17.737,17.737,0,0,1,1.631,5.125c.024.457.03.953.024,1.47q.1.645-.274.633v2.172a1.455,1.455,0,0,1-1.451,1.451H47.7a1.455,1.455,0,0,1-1.452-1.451v-1.4a83.844,83.844,0,0,1-12.146,0v1.4a1.455,1.455,0,0,1-1.451,1.451h-.741a1.455,1.455,0,0,1-1.45-1.451Zm.66-3.063a.212.212,0,0,0-.211.212v.623a.212.212,0,0,0,.211.211H33.87a.212.212,0,0,0,.212-.211v-.623a.213.213,0,0,0-.212-.212Zm15.267,0a.212.212,0,0,0-.211.212v.623a.212.212,0,0,0,.211.211h2.747a.212.212,0,0,0,.211-.211v-.623a.213.213,0,0,0-.211-.212Zm-8.169.327a.234.234,0,0,0-.233.233V56.68A.217.217,0,0,0,38,56.76H34.082v-.528a.213.213,0,0,0-.212-.21H31.123a.212.212,0,0,0-.211.21v.624a.212.212,0,0,0,.211.211H33.87a.163.163,0,0,0,.029,0H46.362a.163.163,0,0,0,.029,0h2.747a.212.212,0,0,0,.211-.211v-.624a.212.212,0,0,0-.211-.21H46.391a.212.212,0,0,0-.211.21v.528H42.353a.24.24,0,0,0,.014-.081V55.342a.235.235,0,0,0-.233-.233Zm-2.8-7.6a1.425,1.425,0,0,0-.6.38L32.294,52.2q-.227.495.253.507a123.609,123.609,0,0,1,15.314,0q.48-.012.254-.507L45.54,47.886a1.415,1.415,0,0,0-.6-.38,63.451,63.451,0,0,0-9.523,0" transform="translate(-13.943 -21.476)" fill="#1d1d1b" fill-rule="evenodd"/>
    <path id="Trazado_726143" data-name="Trazado 726143" d="M52.155,22.36l-.1,1.649.725.58.009,1.7,2.642,4.623.1,1.852.967,1.577.994,3.189L58.1,39.31,59.6,40.743,57.016,45l-4.689,5.617-2.459,0-.411-1.062-1.2,1.065-7.095.009-.822-.855-.959.858L26,50.653,28.344,53.1h33.8L72.356,42.143Z" transform="translate(-12.015 -10.335)" fill="#1d1d1b" fill-rule="evenodd"/>
    <path id="Trazado_726144" data-name="Trazado 726144" d="M73.812,31.031l.765.978v1.574L73,32.562Z" transform="translate(-33.741 -14.342)" fill="#1d1d1b" fill-rule="evenodd"/>
    <path id="Trazado_726145" data-name="Trazado 726145" d="M78.083,42.816l.255,1.617-1.064-.085Z" transform="translate(-35.715 -19.789)" fill="#1d1d1b" fill-rule="evenodd"/>
    <path id="Trazado_726146" data-name="Trazado 726146" d="M76.893,56.181l.154.978-.644-.051Z" transform="translate(-35.312 -25.966)" fill="#1d1d1b" fill-rule="evenodd"/>
    <path id="Trazado_726147" data-name="Trazado 726147" d="M76.284,48.985a.47.47,0,1,1-.51.468.49.49,0,0,1,.51-.468" transform="translate(-35.022 -22.64)" fill="#1d1d1b" fill-rule="evenodd"/>
    <path id="Trazado_726148" data-name="Trazado 726148" d="M79.368,51.99a.47.47,0,1,1-.51.468.49.49,0,0,1,.51-.468" transform="translate(-36.447 -24.029)" fill="#1d1d1b" fill-rule="evenodd"/>
    <path id="Trazado_726149" data-name="Trazado 726149" d="M82.689,56.1a.47.47,0,1,1-.51.468.491.491,0,0,1,.51-.468" transform="translate(-37.982 -25.93)" fill="#1d1d1b" fill-rule="evenodd"/>
    <path id="Trazado_726150" data-name="Trazado 726150" d="M79.725,58.159a.363.363,0,1,1-.394.361.379.379,0,0,1,.394-.361" transform="translate(-36.666 -26.88)" fill="#1d1d1b" fill-rule="evenodd"/>
    <path id="Trazado_726151" data-name="Trazado 726151" d="M78.223,62.43a.363.363,0,1,1-.394.361.379.379,0,0,1,.394-.361" transform="translate(-35.971 -28.854)" fill="#1d1d1b" fill-rule="evenodd"/>
    <path id="Trazado_726152" data-name="Trazado 726152" d="M75.3,65.514a.363.363,0,1,1-.394.361.379.379,0,0,1,.394-.361" transform="translate(-34.619 -30.28)" fill="#1d1d1b" fill-rule="evenodd"/>
    <path id="Trazado_726153" data-name="Trazado 726153" d="M73.715,70.181a.363.363,0,1,1-.395.361.379.379,0,0,1,.395-.361" transform="translate(-33.887 -32.437)" fill="#1d1d1b" fill-rule="evenodd"/>
    <path id="Trazado_726154" data-name="Trazado 726154" d="M77.669,68.52a.363.363,0,1,1-.394.361.379.379,0,0,1,.394-.361" transform="translate(-35.715 -31.669)" fill="#1d1d1b" fill-rule="evenodd"/>
    <path id="Trazado_726155" data-name="Trazado 726155" d="M79.725,65.357a.363.363,0,1,1-.394.361.379.379,0,0,1,.394-.361" transform="translate(-36.666 -30.207)" fill="#1d1d1b" fill-rule="evenodd"/>
  </g>
</svg>
