<svg id="Grupo_1009478" data-name="Grupo 1009478" xmlns="http://www.w3.org/2000/svg" xmlns:xlink="http://www.w3.org/1999/xlink" width="66.517" height="66.516" viewBox="0 0 66.517 66.516">
  <defs>
    <clipPath id="clip-path">
      <rect id="Rect치ngulo_349999" data-name="Rect치ngulo 349999" width="66.517" height="66.516" transform="translate(0 0)" fill="none"/>
    </clipPath>
  </defs>
  <g id="Grupo_1009478-2" data-name="Grupo 1009478" clip-path="url(#clip-path)">
    <path id="Trazado_726160" data-name="Trazado 726160" d="M3.559.259h59.4a3.311,3.311,0,0,1,3.3,3.3v59.4a3.311,3.311,0,0,1-3.3,3.3H3.559a3.31,3.31,0,0,1-3.3-3.3V3.559a3.31,3.31,0,0,1,3.3-3.3" fill="#fff"/>
    <path id="Rect치ngulo_349998" data-name="Rect치ngulo 349998" d="M3.3,0H62.7A3.3,3.3,0,0,1,66,3.3V62.7A3.3,3.3,0,0,1,62.7,66H3.3A3.3,3.3,0,0,1,0,62.7V3.3A3.3,3.3,0,0,1,3.3,0Z" transform="translate(0.259 0.259)" fill="none" stroke="#643a1a" stroke-miterlimit="22.926" stroke-width="0.517"/>
    <path id="Trazado_726161" data-name="Trazado 726161" d="M62.958,1.578H3.559a1.986,1.986,0,0,0-1.98,1.98v59.4a1.986,1.986,0,0,0,1.98,1.98h59.4a1.987,1.987,0,0,0,1.981-1.98V3.558a1.987,1.987,0,0,0-1.981-1.98" fill="#643a1a" fill-rule="evenodd"/>
    <path id="Trazado_726162" data-name="Trazado 726162" d="M57.4,15.808a4.354,4.354,0,0,0-5.351-4.2,5.583,5.583,0,0,0-2.9-2.447,5.367,5.367,0,0,0-4.49.283A3.3,3.3,0,0,0,43.341,8.09a3.483,3.483,0,0,0-1.294-.444,3.44,3.44,0,0,0-2.864,1.033,10.135,10.135,0,0,0-11.594,0,3.67,3.67,0,0,0-5.606.509,4.344,4.344,0,0,0-6.243,2.546,5,5,0,0,0-6.753,3.693V29.3l15.544,8.109,1.784.931,6.8.064,6.83.063,2.1-1.033,1.294-.637,5.811-2.861,8.378-4.127q-.066-7-.128-14.005M24.531,35.794,10.9,28.8a2.974,2.974,0,0,1,.484-2.2,2.906,2.906,0,0,1,2.338-1.314,2.845,2.845,0,0,1,1.765.461l9.046,9.908.255.279Zm0-1.755L16.758,25.23a2.406,2.406,0,0,1,.844-2.325,2.35,2.35,0,0,1,2.315-.381,2.514,2.514,0,0,1,1.428,1.433l3.186,8.83.764,2.119Zm2.42.231L24.531,28.6,22.11,22.939a2.791,2.791,0,0,1,1.128-1.458,2.555,2.555,0,0,1,1.293-.364,2.63,2.63,0,0,1,.927.174,2.417,2.417,0,0,1,1.493,1.521Zm11.152,2.9H28.131V22.21a1,1,0,0,1,1-1h7.978a1,1,0,0,1,1,1Zm1.775-14.207a2.244,2.244,0,0,1,1.549-1.419,3.148,3.148,0,0,1,.62-.08,2.164,2.164,0,0,1,.91.173,4.305,4.305,0,0,1,.384.217,2.072,2.072,0,0,1,.874,1.048l-.874,2.422-1.294,3.585L40,34.579l-.12-11.618M40.962,35.24l1.085-2.706L43.341,29.3l2.2-5.5a2.314,2.314,0,0,1,2.248-1.457,2.409,2.409,0,0,1,1.363.5,2.546,2.546,0,0,1,.6.736,2.338,2.338,0,0,1,.07,2.03l-.666.724-5.811,6.32-1.294,1.408Zm14.819-6.561-6.629,3.477L43.341,35.2l-.873.458.873-.981,5.811-6.533,1.99-2.238a2.86,2.86,0,0,1,4.531,1.226,2.9,2.9,0,0,1,.108,1.543" fill="#fff" fill-rule="evenodd"/>
    <path id="Trazado_726163" data-name="Trazado 726163" d="M36.165,41.347a2.714,2.714,0,1,0-2.713,2.714,2.718,2.718,0,0,0,2.713-2.714" fill="#fff" fill-rule="evenodd"/>
    <path id="Trazado_726164" data-name="Trazado 726164" d="M40.863,49.279a1.171,1.171,0,0,0-1.355.114,1.132,1.132,0,0,0-.43.96,1.958,1.958,0,0,0-3.1-.454v-3.66q2.216-.015,4.432-.03.015-3.071.029-6.142a1.151,1.151,0,0,0-.791-1.01,1.13,1.13,0,0,0-1.143.276,1.1,1.1,0,0,0-.334.9q.02,1.929.04,3.855-4.888.05-9.773.094V40.124a1.012,1.012,0,0,0-.647-.937,1,1,0,0,0-1.158.34.937.937,0,0,0-.2.569q-.028,3.083-.056,6.166h4.924q.045,4.507.091,9.014l3.391-.029,1.418-1.072q.015,1.8.028,3.6a1.337,1.337,0,0,0,.914,1.381,1.321,1.321,0,0,0,1.721-1.027,1.335,1.335,0,0,0,1.258,1.524,1.321,1.321,0,0,0,1.357-1.016q-.012-4.092-.027-8.182a1.15,1.15,0,0,0-.594-1.181" fill="#fff" fill-rule="evenodd"/>
  </g>
</svg>
