<svg id="Grupo_1008567" data-name="Grupo 1008567" xmlns="http://www.w3.org/2000/svg" xmlns:xlink="http://www.w3.org/1999/xlink" width="505" height="422.541" viewBox="0 0 505 422.541">
  <defs>
    <clipPath id="clip-path">
      <rect id="Rectángulo_347427" data-name="Rectángulo 347427" width="505" height="422.541" fill="none"/>
    </clipPath>
  </defs>
  <g id="Grupo_1008566" data-name="Grupo 1008566" clip-path="url(#clip-path)">
    <path id="Trazado_715924" data-name="Trazado 715924" d="M.854,420.834a.853.853,0,1,0,0,1.707H496.208a.853.853,0,1,0,0-1.707Z" fill="#ccc"/>
    <path id="Trazado_715925" data-name="Trazado 715925" d="M449.553,389.164c14.994-46.558-13.123-69.813-49.332-88.693,2.792,27.858,3.086,55.4,49.332,88.693" fill="#f2f2f2"/>
    <path id="Trazado_715926" data-name="Trazado 715926" d="M450.481,389.164c-7.821-15.718-8.192-35.594-2.094-47.41-3.993,16.936-2.571,32.453,2.094,47.41" fill="#e6e6e6"/>
    <path id="Trazado_715927" data-name="Trazado 715927" d="M449.553,389.164c-8.525-36.913-24.712-53.031-39.886-71.9,16.782,23.191,31.927,46.747,39.886,71.9" fill="#e6e6e6"/>
    <path id="Trazado_715928" data-name="Trazado 715928" d="M449.553,389.164C432.7,336.835,464.3,310.7,505,289.478c-3.138,31.31-3.469,62.27-55.447,99.686" fill="#f2f2f2"/>
    <path id="Trazado_715929" data-name="Trazado 715929" d="M449.553,389.164c9.582-41.488,27.775-59.6,44.829-80.811-18.862,26.066-35.883,52.541-44.829,80.811" fill="#e6e6e6"/>
    <path id="Trazado_715930" data-name="Trazado 715930" d="M426.845,375.274a3.124,3.124,0,0,0-.755,6.155v30.325a9.1,9.1,0,0,0,9.12,9.12h31.414a9.1,9.1,0,0,0,9.12-9.12V381.429a3.124,3.124,0,0,0-.755-6.155Z" fill="#e6e6e6"/>
    <rect id="Rectángulo_347420" data-name="Rectángulo 347420" width="119.089" height="41.101" transform="translate(85.06 333.593)" fill="#f9f9f9"/>
    <rect id="Rectángulo_347421" data-name="Rectángulo 347421" width="119.089" height="41.101" transform="translate(85.06 377.24)" fill="#f9f9f9"/>
    <path id="Trazado_715931" data-name="Trazado 715931" d="M323.359,333.593a3.553,3.553,0,0,0-3.561,3.561v36.525a3.6,3.6,0,0,0,.1.824H85.06v2.712H322.938a3.65,3.65,0,0,0,.421.025h18.1a3.553,3.553,0,0,0,3.561-3.561V337.154a3.553,3.553,0,0,0-3.561-3.561Z" fill="#ececec"/>
    <rect id="Rectángulo_347422" data-name="Rectángulo 347422" width="119.089" height="41.101" transform="translate(204.148 333.593)" fill="#f9f9f9"/>
    <path id="Trazado_715932" data-name="Trazado 715932" d="M117.167,342.024h54.875v-8.431H117.167Zm84.458,78.832h2.523V333.593h-2.523Zm34.63-78.832H291.13v-8.431H236.255ZM117.167,385.671h54.875V377.24H117.167Zm119.088,0H291.13V377.24H236.255Z" fill="#e6e6e6"/>
    <path id="Trazado_715933" data-name="Trazado 715933" d="M323.359,377.24A3.553,3.553,0,0,0,319.8,380.8v36.525a3.549,3.549,0,0,0,.1.818H85.06v2.712H322.892a3.588,3.588,0,0,0,.467.031h18.1a3.553,3.553,0,0,0,3.561-3.561V380.8a3.553,3.553,0,0,0-3.561-3.561Z" fill="#ececec"/>
    <rect id="Rectángulo_347423" data-name="Rectángulo 347423" width="119.089" height="41.101" transform="translate(204.148 377.24)" fill="#f9f9f9"/>
    <rect id="Rectángulo_347424" data-name="Rectángulo 347424" width="243.813" height="298.12" transform="translate(14.16)" fill="#e6e6e6"/>
    <rect id="Rectángulo_347425" data-name="Rectángulo 347425" width="243.431" height="249.702" transform="translate(33.068 68.117)" fill="#f9f9f9"/>
    <path id="Trazado_715934" data-name="Trazado 715934" d="M33.068,67.743a.374.374,0,0,0-.374.374v249.7a.375.375,0,0,0,.374.374H276.5a.374.374,0,0,0,.374-.374V68.117a.373.373,0,0,0-.374-.374Zm.374.747H276.125V317.445H33.442Z" fill="#b3b3b3"/>
    <rect id="Rectángulo_347426" data-name="Rectángulo 347426" width="244.194" height="48.797" transform="translate(32.686 19.699)" fill="#3076b6"/>
    <path id="Trazado_715935" data-name="Trazado 715935" d="M68.624,96.6a.375.375,0,0,0-.374.374v19.389a.375.375,0,0,0,.374.374H88.013a.375.375,0,0,0,.374-.374V96.972a.375.375,0,0,0-.374-.374Zm.374.748H87.639v18.641H69Z" fill="#483737"/>
    <path id="Trazado_715936" data-name="Trazado 715936" d="M113.475,98H241.316V96.4H113.475Zm0,9.464H241.316v-1.6H113.475Zm0,9.463H241.316v-1.6H113.475Z" fill="#483737"/>
    <path id="Trazado_715937" data-name="Trazado 715937" d="M84.931,100.515a1.122,1.122,0,0,0-.875.41l-7.483,9.138-4.1-3.808a1.122,1.122,0,0,0-1.527,1.643l4.971,4.62a1.121,1.121,0,0,0,1.631-.11l8.24-10.062a1.12,1.12,0,0,0-.86-1.831" fill="#ffa031"/>
    <path id="Trazado_715938" data-name="Trazado 715938" d="M68.624,154.133a.374.374,0,0,0-.374.373V173.9a.374.374,0,0,0,.374.374H88.013a.375.375,0,0,0,.374-.374V154.506a.375.375,0,0,0-.374-.373Zm.374.747H87.639v18.641H69Z" fill="#483737"/>
    <path id="Trazado_715939" data-name="Trazado 715939" d="M113.475,155.536H241.316v-1.6H113.475Zm0,9.464H241.316v-1.6H113.475Zm0,9.463H241.316v-1.6H113.475Z" fill="#483737"/>
    <path id="Trazado_715940" data-name="Trazado 715940" d="M84.931,158.049a1.122,1.122,0,0,0-.875.41L76.573,167.6l-4.1-3.808a1.122,1.122,0,0,0-1.527,1.643l4.971,4.62a1.121,1.121,0,0,0,1.631-.11l8.24-10.062a1.12,1.12,0,0,0-.86-1.831" fill="#ffa031"/>
    <path id="Trazado_715941" data-name="Trazado 715941" d="M68.624,211.667a.374.374,0,0,0-.374.374V231.43a.374.374,0,0,0,.374.373H88.013a.374.374,0,0,0,.374-.373V212.041a.375.375,0,0,0-.374-.374Zm.374.747H87.639v18.641H69Z" fill="#483737"/>
    <path id="Trazado_715942" data-name="Trazado 715942" d="M113.475,213.071H241.316v-1.6H113.475Zm0,9.463H241.316v-1.6H113.475Zm0,9.464H241.316v-1.6H113.475Z" fill="#483737"/>
    <path id="Trazado_715943" data-name="Trazado 715943" d="M84.931,215.583a1.122,1.122,0,0,0-.875.41l-7.483,9.138-4.1-3.808a1.122,1.122,0,0,0-1.527,1.643l4.971,4.62a1.121,1.121,0,0,0,1.631-.11l8.24-10.062a1.12,1.12,0,0,0-.86-1.831" fill="#ffa031"/>
    <path id="Trazado_715944" data-name="Trazado 715944" d="M68.624,269.2a.374.374,0,0,0-.374.374v19.389a.374.374,0,0,0,.374.374H88.013a.375.375,0,0,0,.374-.374V269.575a.375.375,0,0,0-.374-.374Zm.374.747H87.639V288.59H69Z" fill="#483737"/>
    <path id="Trazado_715945" data-name="Trazado 715945" d="M113.475,270.605H241.316v-1.6H113.475Zm0,9.463H241.316v-1.6H113.475Zm0,9.464H241.316v-1.6H113.475Z" fill="#483737"/>
    <path id="Trazado_715946" data-name="Trazado 715946" d="M84.931,273.118a1.122,1.122,0,0,0-.875.41l-7.483,9.138-4.1-3.808a1.122,1.122,0,0,0-1.527,1.643l4.971,4.62a1.121,1.121,0,0,0,1.631-.11l8.24-10.062a1.12,1.12,0,0,0-.86-1.831" fill="#ffa031"/>
    <path id="Trazado_715947" data-name="Trazado 715947" d="M383.556,344.42l-90.19,1.5a154.759,154.759,0,0,0-32.921,75.333h158.79c-6.167-27.2-16.759-55.628-35.679-76.83" fill="#241c1c"/>
    <path id="Trazado_715948" data-name="Trazado 715948" d="M336.92,372.211l.565,1.21c-8.7-.96-22.353.309-32.7-.807,9.3-.618,22.11-.492,32.138-.4" fill="#483737"/>
    <path id="Trazado_715949" data-name="Trazado 715949" d="M338.372,373.985c14.626-2.1,29.853-1.987,43.867-6.326-10.881,5.527-29.008,5.015-43.544,7.5Z" fill="#483737"/>
    <path id="Trazado_715950" data-name="Trazado 715950" d="M340.3,22.375c-66.277-5.314-58.971,51.6-65.146,78.06-2.136,9.15-15.263,19.918-9.124,40.277,1.13,3.747,9.138,7.964,16.853,7.49-1.345-6.788.563-10.9,3.477-14.177-1.217,5.9-1.43,12.35,1.338,17.655,15.693,4.815,69.721,5.277,91.217-1.6,2.806-4.657,2.037-11.4.083-15.782,4.409,4.1,4.364,8.2,6.052,12.295,3.489.038,11.568-2.823,12.673-8.134,1.694-8.133-.541-16.141-6.052-24.211-3.6-5.275,1.93-10.47.756-16.645-1.949-10.255-9.786-17.836-12.294-39.533-2.237-19.35-16.708-34.712-39.833-35.69" fill="#241c1c"/>
    <path id="Trazado_715951" data-name="Trazado 715951" d="M315.514,134.808H347.2l5.161,26.384c-2.036,13.558-11.924,24.787-19.315,24.729-6.44-.051-17.823-17.417-22.2-24.729Z" fill="#ffb380"/>
    <path id="Trazado_715952" data-name="Trazado 715952" d="M295.632,54.054v56.424a31.232,31.232,0,0,0,31.3,31.3h8.849a31.233,31.233,0,0,0,31.3-31.3V54.054h-71.45Z" fill="#ffb380"/>
    <path id="Trazado_715953" data-name="Trazado 715953" d="M366.717,103.639a10.526,10.526,0,1,0,0-20.822Z" fill="#ffb380"/>
    <path id="Trazado_715954" data-name="Trazado 715954" d="M296.976,103.639a10.526,10.526,0,1,1,0-20.822Z" fill="#ffb380"/>
    <path id="Trazado_715955" data-name="Trazado 715955" d="M314.556,139.3c11.555,3.556,22.78,3.981,33.541,0-12.484,6.827-23.293,4.879-33.541,0" fill="#f95"/>
    <path id="Trazado_715956" data-name="Trazado 715956" d="M284.947,92.018c-.035-6.891,9.625-11.622,12.147-1.014,4.166-26.056,37.914-13.495,48.045-36.348C354.585,71.3,361.821,72.761,366.008,91c2.615-9.282,11.36-6.414,12.684,1.014,5.364-22.51-2.759-38.8-16.908-49.179H308.065c-18.108,4.31-25.625,26.263-23.118,49.179" fill="#241c1c"/>
    <path id="Trazado_715957" data-name="Trazado 715957" d="M333.445,30.775q-.618.006-1.232.023c-11.456.323-21.739,3.695-30.14,12.174-9.6,9.69-16.738,26.026-20.434,52.057-1.124,7.914-5.846,15.38-9.522,23.1s-6.3,15.713-3.142,24.65a.175.175,0,0,0,.09.1.18.18,0,0,0,.135.008.178.178,0,0,0,.108-.227c-3.115-8.816-.535-16.688,3.128-24.38s8.414-15.181,9.553-23.2c3.69-25.989,10.811-42.248,20.334-51.859s21.457-12.6,34.854-12.025a.178.178,0,0,0,.184-.17.177.177,0,0,0-.169-.184q-1.893-.081-3.747-.066m9.408.3h-.01a.177.177,0,0,0,0,.352c10.706,1.006,17.492,4.839,22.363,11.852s7.813,17.23,10.732,30.978c2.83,13.334,10.459,22.952,8.69,39.133-1.807,8.864.676,17.169,6.453,25a.178.178,0,0,0,.116.07.182.182,0,0,0,.132-.032.177.177,0,0,0,.037-.248c-5.739-7.781-8.181-15.971-6.389-24.737a.043.043,0,0,0,0-.016c1.783-16.305-5.886-26.005-8.7-39.246-2.921-13.76-5.863-24.016-10.787-31.106s-11.844-10.989-22.619-12h-.016m-5.138,8.059H337.7c-17.38,1.5-27.356,8.387-33.639,16.908s-8.885,18.664-11.586,26.682a.176.176,0,0,0,.009.135.179.179,0,0,0,.1.089.183.183,0,0,0,.136-.01.174.174,0,0,0,.088-.1c2.708-8.038,5.3-18.133,11.535-26.584s16.086-15.272,33.386-16.765a.178.178,0,0,0,.162-.191.178.178,0,0,0-.181-.163m7.764.536a.177.177,0,0,0-.147.278.174.174,0,0,0,.113.073c8.081,1.484,13.833,7.751,18.1,15.872s7.036,18.08,9.145,26.873a.177.177,0,0,0,.214.131.176.176,0,0,0,.13-.214c-2.111-8.8-4.881-18.783-9.175-26.954s-10.125-14.546-18.351-16.056a.152.152,0,0,0-.03,0m-8.431,6.6h-.011a.179.179,0,0,0-.161.129c-1.51,5.3-3.781,8.588-6.55,10.86s-6.047,3.532-9.575,4.74c-7.055,2.415-15.107,4.631-21.869,14.422a.178.178,0,0,0,.292.2c6.7-9.7,14.621-11.869,21.692-14.29,3.535-1.21,6.858-2.482,9.684-4.8s5.142-5.683,6.668-11.038a.178.178,0,0,0-.122-.218.185.185,0,0,0-.048-.007m8.827,1.027a.177.177,0,0,0-.166.229.173.173,0,0,0,.086.1c11.544,6.125,14.512,19.442,20.256,30.554a.178.178,0,0,0,.238.076.181.181,0,0,0,.088-.1.176.176,0,0,0-.012-.135c-5.714-11.053-8.695-24.492-20.4-30.7a.182.182,0,0,0-.086-.021m-57.063,57.232h0a.177.177,0,0,0-.175.148c-1.262,7.845-5.6,13.616-9.037,19.565s-5.942,12.1-3.441,20.612a.172.172,0,0,0,.084.106.177.177,0,0,0,.135.015.18.18,0,0,0,.106-.085.177.177,0,0,0,.014-.135c-2.469-8.408-.008-14.413,3.409-20.336s7.8-11.742,9.08-19.686a.177.177,0,0,0-.146-.2l-.029,0m86.437,2.081a.177.177,0,0,0-.171.167,78.408,78.408,0,0,0,2.275,21.238.178.178,0,0,0,.215.127.176.176,0,0,0,.128-.214,78.076,78.076,0,0,1-2.265-21.131.177.177,0,0,0-.166-.187h-.016m-8.318,14.186a.172.172,0,0,0-.039,0,.177.177,0,0,0-.11.079.175.175,0,0,0-.022.134c2.274,9.787,4.286,19.56,1.137,29.793a.176.176,0,0,0,.013.135.173.173,0,0,0,.105.086.177.177,0,0,0,.221-.116c3.179-10.334,1.143-20.186-1.132-29.978a.177.177,0,0,0-.173-.137m-70.551,2.08h0a.178.178,0,0,0-.167.119c-5.883,16.7-.752,28.314-.752,28.314a.177.177,0,1,0,.323-.144s-5.083-11.462.762-28.052a.178.178,0,0,0-.108-.226.192.192,0,0,0-.058-.011" fill="#483737"/>
    <path id="Trazado_715958" data-name="Trazado 715958" d="M310,91.832a4.267,4.267,0,1,1,4.267,4.267A4.266,4.266,0,0,1,310,91.832" fill="#241c1c"/>
    <path id="Trazado_715959" data-name="Trazado 715959" d="M314.634,81.075a19.921,19.921,0,0,0-7.106.8,1.061,1.061,0,0,0,.62,2.03c4.315-1.318,8.511-.718,12.5.431a1.061,1.061,0,0,0,.586-2.04,30.671,30.671,0,0,0-6.6-1.219" fill="#241c1c"/>
    <path id="Trazado_715960" data-name="Trazado 715960" d="M351.838,91.832a4.267,4.267,0,1,0-4.267,4.267,4.266,4.266,0,0,0,4.267-4.267" fill="#241c1c"/>
    <path id="Trazado_715961" data-name="Trazado 715961" d="M347.452,81.075a30.671,30.671,0,0,0-6.6,1.219,1.061,1.061,0,1,0,.586,2.04c3.993-1.149,8.189-1.749,12.5-.431a1.061,1.061,0,1,0,.62-2.03,19.921,19.921,0,0,0-7.106-.8" fill="#241c1c"/>
    <path id="Trazado_715962" data-name="Trazado 715962" d="M330.034,89.079a.73.73,0,0,0-.168.015.745.745,0,0,0-.583.879,17.078,17.078,0,0,1-1.823,10.565,11.483,11.483,0,0,0-1.4,3.906,4.742,4.742,0,0,0,.664,3.372,4.889,4.889,0,0,0,3.2,1.89,15.078,15.078,0,0,0,5.539-.167.747.747,0,1,0-.265-1.47,13.817,13.817,0,0,1-4.982.172,3.346,3.346,0,0,1-2.26-1.271,3.236,3.236,0,0,1-.414-2.329,10.152,10.152,0,0,1,1.225-3.386,18.614,18.614,0,0,0,1.977-11.578.747.747,0,0,0-.713-.6" fill="#f95"/>
    <path id="Trazado_715963" data-name="Trazado 715963" d="M322.6,115.314c3.059,10.862,13.033,11,16.881,0a22.305,22.305,0,0,1-16.881,0" fill="#f55"/>
    <path id="Trazado_715964" data-name="Trazado 715964" d="M322.6,115.314a17.511,17.511,0,0,0,.907,2.5c2.854,2.679,11.435,2.4,14.775.233a18.7,18.7,0,0,0,1.2-2.734,22.305,22.305,0,0,1-16.881,0" fill="#fff"/>
    <path id="Trazado_715965" data-name="Trazado 715965" d="M311.345,158.8c-20.558,4.3-51.714,11.788-72.986,19.2-4.739-.507-4.776,11.222-5.028,21.509a21.418,21.418,0,0,1-2.21,9.112c-4.4,10-7.194,25.781-10.3,40.5-3.649,3.871-2.8,7.431-1.793,10.98.809,2.479.406,4.294-1.033,6.722-4.239,7.2-3.49,16-4.907,24.11-3.432,3.737-1.605,5.847-.171,7.3-5.715,5.118-1.187,7.979-2.224,14.373-4,3.52-6.422,7.708-3.466,15.294.206,11.99,10.431,22.09,23.793,19.4,7.683,4.978,26.7-6.33,31.214-16.7-6.658,28.7-13.878,56.412-22.062,82.441-.99,3.537-.886,5.66.9,8.216h43.747c12.723-21.617,25.488-49.761,29.17-69.986,11.88,2.194,23.83,3.492,36.135.154l1.019.9c10.894-1.848,16.864-.921,26.58-4.389,2.121,21.451,11.411,50.374,23.005,73.321H442.8c-.07-.3-.15-.62-.25-.969-12.129-42.278-35.22-86.973-32.884-125.66l12.744,21.132c-.07,9.1,4.479,10.1,8.791,12.34,9.4,7.613,17.047,22.064,31.88,6.354,6.445-6.826,4.294-13.925,6.132-20.482.844-3.6,4-13.895-1.772-21.31-.441-12.147-4.046-24.131-12.372-28.821l-24.182-53.439c2.707-5.331,2.056-31.131-5.7-32.052-22.294-8.883-50.179-13.37-73.246-19.546-5.127,10.264-10.741,17.633-20.286,22.128A46.2,46.2,0,0,1,311.345,158.8" fill="#455a64"/>
    <path id="Trazado_715966" data-name="Trazado 715966" d="M311.345,158.8c-23.643,47.467,15.788,135.1,2.643,192.467,3.193.59,6.391,1.114,9.6,1.5,3.083.365,6.089.6,9.005.666a61.3,61.3,0,0,0,17.531-2.013l1.018.9c10.9-1.848,16.865-.922,26.581-4.39-22.142-50.839,6.837-150.972-25.779-189.132-5.127,10.264-10.741,17.633-20.286,22.129A46.211,46.211,0,0,1,311.345,158.8" fill="#fff"/>
    <path id="Trazado_715967" data-name="Trazado 715967" d="M292.721,164.6a243.023,243.023,0,0,0-8.388,27.746l8.065,6.775-7.864,5c3.546,49.96,29.39,111.753,29.454,147.139C312.78,318.839,286.932,254.6,283.2,203.589l7.639-4.571-7.861-6.186c3.05-11.282,6.263-21.028,9.743-28.229" fill="#2f4249"/>
    <path id="Trazado_715968" data-name="Trazado 715968" d="M368.123,164.683c5.124,8.975,11.272,18.541,15.1,29.386l-8.266,6.9,10.9,4.645c-5.955,46.621-10.344,92.009-8.131,142.316-.2-44.115,3.456-94.548,9.769-143l-10.924-4.063,7.859-6.5c-3.8-10.127-9.492-19.985-16.3-29.682" fill="#2f4249"/>
    <path id="Trazado_715969" data-name="Trazado 715969" d="M238.359,177.992c8.978,32.08,13.06,68.226,24.289,95.936-10.606-31.522-14.028-68.27-24.289-95.936" fill="#2f4249"/>
    <path id="Trazado_715970" data-name="Trazado 715970" d="M425.189,178.342c7.621,15.194-9.156,78.817-15.518,116.278,5.344-41.651,20.556-96.924,15.518-116.278" fill="#2f4249"/>
    <path id="Trazado_715971" data-name="Trazado 715971" d="M432.578,267.8c-2.2,2.114-3.336,12.614-1.918,15.982a5.66,5.66,0,0,0,1.839,1.98,94.557,94.557,0,0,0,.079-17.962" fill="#2f4249"/>
    <path id="Trazado_715972" data-name="Trazado 715972" d="M455.4,264.072c2.232,2.187,4.7,4.125,5.4,7.917-2.271-.291-.468,6.75-.371,10.722-1.678-6.211-3.571-11.92-5.032-18.639" fill="#2f4249"/>
    <path id="Trazado_715973" data-name="Trazado 715973" d="M460.806,271.989l2.415,12.312c1.778,11.254,1.415,19.347.009,25.9.789-6.865.516-15.665-1.054-25.782Z" fill="#2f4249"/>
    <path id="Trazado_715974" data-name="Trazado 715974" d="M467.446,292.654c1.352,4.559,2.06,8.588,1.588,11.645,1.174-2.8.461-6.8-1.588-11.645" fill="#2f4249"/>
    <path id="Trazado_715975" data-name="Trazado 715975" d="M431.976,266.115c-6.4,8.029-3.646,24.2-2.705,38.749,0-13.555-2.517-28.8,2.705-38.749" fill="#2f4249"/>
    <path id="Trazado_715976" data-name="Trazado 715976" d="M429.271,304.863c-.827,10.507,6.737,17.045,15.244,20.083-6.042-.045-19.256-7.679-15.244-20.083" fill="#2f4249"/>
    <path id="Trazado_715977" data-name="Trazado 715977" d="M431.206,328.092c-3.155-3.542-6.331-9.272-2.937-19.374-4.4,7.652-6.1,14.707,2.937,19.374" fill="#2f4249"/>
    <path id="Trazado_715978" data-name="Trazado 715978" d="M422.415,315.752c.91-4.733,2.612-8.064,4.92-10.324a40.977,40.977,0,0,0-4.92,10.324" fill="#2f4249"/>
    <path id="Trazado_715979" data-name="Trazado 715979" d="M429.674,314.219c3.155,8.188,7.428,13.49,11.856,18.389-5.382-3.745-9.377-9.8-11.856-18.389" fill="#2f4249"/>
    <path id="Trazado_715980" data-name="Trazado 715980" d="M434.513,330.512c-3.165-5.024-5.7-10.157-5.565-18.712.345,6.615,3.17,12.61,5.565,18.712" fill="#2f4249"/>
    <path id="Trazado_715981" data-name="Trazado 715981" d="M411.9,280.886a38.637,38.637,0,0,0,9.981-2.623c-4.265,9.2-5.2,19.428-3.536,30.455l-8.674-14.1Z" fill="#2f4249"/>
    <path id="Trazado_715982" data-name="Trazado 715982" d="M415.8,261.148c4.763-.059,14.393-1.865,13.953.242-.64,3.068-9.562,4.272-14.921,5.485Z" fill="#2f4249"/>
    <path id="Trazado_715983" data-name="Trazado 715983" d="M422.012,268.165c4.422-.631,8.848-1.253,11.7-5.243-3.378,2.268-7.6,3.7-11.7,5.243" fill="#2f4249"/>
    <path id="Trazado_715984" data-name="Trazado 715984" d="M448.732,164.4a3.948,3.948,0,0,0-3.587,2.742c-2.311,7.306-1.243,14.773-.469,22.226-1.689,7.5.919,14.366-2.5,14.276-1.455-3.653-3.631-8.9-5.443-11.211-1.9-2.759-6.744.374-12.271,1.5a4.894,4.894,0,0,0-2.449,1.166c-2.859,2.323-7.3,4.695-6.292,6.289-1.049.125-2.1,1.654-3.146,5.323-3.275,2.031-5.727,4.363-3.791,8.308a42.146,42.146,0,0,1,5.475,9.762,18.88,18.88,0,0,0,2.165,4.661c3.581,6.166,7.05,13.851,11.879,18.726,4.809,13.676,4.92,26.054,4.195,37.6,3.259,4.453,26.89,10.182,27.937-3.053-2.826-11.8-8.524-24.819-5.589-36.159,6.616-12.107,9.693-22.529,9.924-31.6,1.971-7.5,7.234-17.589,7.914-19.7.3-3.228-3.445-3.609-4.82-1.976-3.522,3.307-5.137,8.817-8.751,12.7,1.087-10.577,1.288-21.6,3.932-31.4-.248-3.312-4.978-3.321-6.311-.746-1.879,4.578-2.413,8.988-3.529,13.469-1.535-7.055-2.8-13.3-2.02-20.88a2.158,2.158,0,0,0-2.453-2.031m-21.819,36.552,2.438.072a23.22,23.22,0,0,0,3.186,4.8,18.744,18.744,0,0,1,.041,7.7c-1.267,3.644-4.428,5.407-8.873,4.678-2.16-.355-3.112-3.752-4.355-6.332a14.509,14.509,0,0,0-.363-7.662c2.7-.079,5.328-1.469,7.926-3.257" fill="#ffb380"/>
    <path id="Trazado_715985" data-name="Trazado 715985" d="M412.575,206.706c-.39,1.239.055,1.956.78,2.177.809.247,1.491-.5,1.854-1.682a27.022,27.022,0,0,0-.468-5.247c-1.1,1.1-1.721,3.279-2.166,4.752" fill="#fff"/>
    <path id="Trazado_715986" data-name="Trazado 715986" d="M415.551,200.756a2.883,2.883,0,0,0,2.488,1.191,5.2,5.2,0,0,0,3.973-2.863c.318-.787-.524-1.813-1.956-1.694a7.106,7.106,0,0,0-4.505,3.366" fill="#fff"/>
    <path id="Trazado_715987" data-name="Trazado 715987" d="M194.251,273.608a2.161,2.161,0,0,1,1.24-3.951l59.115,1.476a11.36,11.36,0,0,1,6.046,1.825l65.359,49.048c1.849,1.344-.16,3.469-2.082,3.422L264.7,323.717Z" fill="#483737"/>
    <path id="Trazado_715988" data-name="Trazado 715988" d="M195.49,269.657a2.123,2.123,0,0,0-2.056,2.854l61.685,1.873a7.48,7.48,0,0,1,4.449,1.483l65.173,49.456c1.6-.437,2.856-2.164,1.269-3.317l-65.359-49.048a11.356,11.356,0,0,0-6.045-1.825Z" fill="#241c1c"/>
    <path id="Trazado_715989" data-name="Trazado 715989" d="M351.141,352.318l-14.423,1.826c-3.251,7.129-1.176,15.64,1.176,21.56-2.481,14.531-4.839,31.071-5.362,45.545h1.382c.885-15.379,3.144-29.994,5.315-45.328-2.4-7.492-4.451-15.273-1.463-20.97Z" fill="#483737"/>
    <path id="Trazado_715990" data-name="Trazado 715990" d="M207.226,327.89c2.118-17.466,12.705-18.617,20.809-19.236-9.284,1.411-17.894,6.437-20.809,19.236" fill="#2f4249"/>
    <path id="Trazado_715991" data-name="Trazado 715991" d="M210.692,312.6c10.966-5.976,23.613-4.923,33.649.171-6.741-5.074-22.853-8.961-33.649-.171" fill="#2f4249"/>
    <path id="Trazado_715992" data-name="Trazado 715992" d="M211.1,320.511c-.906,6.812.454,13.691,1.29,20.708a19.05,19.05,0,0,1-4.234-7.642c.049-4.711.651-9.21,2.944-13.066" fill="#2f4249"/>
    <path id="Trazado_715993" data-name="Trazado 715993" d="M227.8,329.7c-2.4,8.438-.12,14.593,3.218,17.583-4.283-5.087-4.138-12.549-3.218-17.583" fill="#2f4249"/>
    <path id="Trazado_715994" data-name="Trazado 715994" d="M227.074,337.821c.167,3.724.446,8.45-1.839,9.793,3.537-.233,2.058-6.118,1.839-9.793" fill="#2f4249"/>
    <path id="Trazado_715995" data-name="Trazado 715995" d="M212.916,298.224c3.842-1.39,9.4,1.753,13.887,2.937-4.391-2.314-9.908-4.94-15.4-4.962a7.727,7.727,0,0,0,1.511,2.025" fill="#2f4249"/>
    <path id="Trazado_715996" data-name="Trazado 715996" d="M216.224,303.128a58.427,58.427,0,0,1,24.581,5.133,90.847,90.847,0,0,0-24.581-5.133" fill="#2f4249"/>
    <path id="Trazado_715997" data-name="Trazado 715997" d="M229.633,341.253c5.033,14.1,24.809-1,29.656-8.442-6.87,7.281-24.573,11.793-29.656,8.442" fill="#2f4249"/>
    <path id="Trazado_715998" data-name="Trazado 715998" d="M244.34,312.767c-6.917,1.033-12.807,5.443-16.539,16.939l1.14.969c-.881,3.9-1.022,6.912.692,10.578a3.386,3.386,0,0,0,3.247,1.626c19.553.557,25.064-7.966,30.794-15.341,5.7-3.111,12.108-3.828,18.307-5.247a17.693,17.693,0,0,0,8.27-2c3.916-.938,8.282.37,11.482-.476a2.026,2.026,0,0,0,1.014-.571,36.98,36.98,0,0,0,5.934-8.6,3.235,3.235,0,0,0,0-3.215,67.276,67.276,0,0,1-2.593-8.637c-.067-.266-.123-.425-.4-.51a2.845,2.845,0,0,0-1.493.023c-.988-1.958-2.733-2.341-4.334-3.022-.685-5.684-3.716-4.684-6.859-5.969-.883-2.042-1.542-4.533-2.694-6.037-.893-.919-3.275-1.29-4.391,2.111-.835,2.542-.655,5.114.042,8.882-1.472,2.047-2.208,4.794-3.406,6.443a21.861,21.861,0,0,1-11.126.517c3.464-3.214,2.566-10.84-2.078-10.48-3.13.835-8.006,4.133-10.865,4.333-8.319.562-10.614,6.162-10.608,13.688a11.456,11.456,0,0,1-3.536,3.992" fill="#ffb380"/>
    <path id="Trazado_715999" data-name="Trazado 715999" d="M442.162,203.428a.209.209,0,0,0-.078.02,21.356,21.356,0,0,1-9.545,2.157.217.217,0,0,0-.152.062.209.209,0,0,0-.063.15.213.213,0,0,0,.211.215,21.812,21.812,0,0,0,9.732-2.2.213.213,0,0,0-.105-.4" fill="#f95"/>
    <path id="Trazado_716000" data-name="Trazado 716000" d="M435.237,197.016a.211.211,0,0,0-.189.118,6.621,6.621,0,0,1-5.719,3.674.213.213,0,1,0,.045.424,7.1,7.1,0,0,0,6.056-3.908.213.213,0,0,0-.1-.285.208.208,0,0,0-.1-.023" fill="#f95"/>
    <path id="Trazado_716001" data-name="Trazado 716001" d="M453.2,187.1a.213.213,0,0,0-.2.173c-1.155,5.922-3.711,12.61-2.29,17.314a.213.213,0,1,0,.408-.123c-1.346-4.457,1.135-11.132,2.3-17.11a.211.211,0,0,0-.032-.16.207.207,0,0,0-.187-.094" fill="#f95"/>
    <path id="Trazado_716002" data-name="Trazado 716002" d="M459.109,205.766a.212.212,0,0,0-.2.168c-.166.748-.188,1.492-.326,2.193a3.64,3.64,0,0,1-.99,1.978.214.214,0,0,0,.305.3,4.114,4.114,0,0,0,1.1-2.194c.147-.748.169-1.488.324-2.184a.213.213,0,0,0-.029-.161.209.209,0,0,0-.134-.094.207.207,0,0,0-.05,0" fill="#f95"/>
    <path id="Trazado_716003" data-name="Trazado 716003" d="M419.346,211.654a.212.212,0,0,0-.2.168,4.128,4.128,0,0,1-1.615,2.55,6.98,6.98,0,0,1-3.363,1.155.213.213,0,0,0-.143.079.217.217,0,0,0-.045.157.215.215,0,0,0,.237.188,7.374,7.374,0,0,0,3.567-1.235,4.589,4.589,0,0,0,1.779-2.8.214.214,0,0,0-.163-.254.207.207,0,0,0-.05,0" fill="#f95"/>
    <path id="Trazado_716004" data-name="Trazado 716004" d="M425.356,218.45a.212.212,0,0,0-.2.168c-.452,2.024-1.857,3.665-3.337,5.438a15.883,15.883,0,0,0-3.677,6.247.214.214,0,0,0,.316.236.218.218,0,0,0,.1-.132,15.484,15.484,0,0,1,3.591-6.077c1.476-1.77,2.943-3.46,3.426-5.62a.213.213,0,0,0-.162-.254.222.222,0,0,0-.051-.006" fill="#f95"/>
    <path id="Trazado_716005" data-name="Trazado 716005" d="M415.722,201.169a.213.213,0,0,0-.178.093.208.208,0,0,0-.033.159.212.212,0,0,0,.088.137c1.208.828,2.127,2.139,3.278,2.83a.214.214,0,1,0,.22-.366c-1.027-.617-1.963-1.929-3.256-2.815a.2.2,0,0,0-.119-.038" fill="#f95"/>
    <path id="Trazado_716006" data-name="Trazado 716006" d="M292.987,289.105a.174.174,0,0,0-.055.012.213.213,0,0,0-.131.271c.668,1.925,1.438,3.781,1.231,5.5-.615,5.12-2.727,9.866-4.037,13.411a3.217,3.217,0,0,1-1.642,1.453,20.962,20.962,0,0,1-3.224,1.221,61.1,61.1,0,0,0-7.282,2.385.213.213,0,0,0-.109.121.205.205,0,0,0,.008.163.208.208,0,0,0,.121.11.214.214,0,0,0,.163-.008,62.235,62.235,0,0,1,7.225-2.364,21.246,21.246,0,0,0,3.293-1.248,3.527,3.527,0,0,0,1.847-1.686c1.3-3.521,3.435-8.3,4.061-13.508.226-1.879-.59-3.785-1.252-5.693a.214.214,0,0,0-.217-.143" fill="#f95"/>
    <path id="Trazado_716007" data-name="Trazado 716007" d="M299.853,295.073a.214.214,0,0,0-.2.223,124.678,124.678,0,0,1-.2,12.818v0a9.677,9.677,0,0,1-.253,1.563,2.8,2.8,0,0,1-.9,1.265c-2.611,2.358-7.426,3.994-11,6.028a.213.213,0,1,0,.211.371c3.513-2,8.344-3.617,11.074-6.083h0a3.29,3.29,0,0,0,1.016-1.45,9.618,9.618,0,0,0,.272-1.65v-.013a125.144,125.144,0,0,0,.205-12.871.213.213,0,0,0-.222-.2" fill="#f95"/>
    <path id="Trazado_716008" data-name="Trazado 716008" d="M304.183,298.1l-.03,0a.215.215,0,0,0-.166.252c1.06,5.146.037,12.2-.887,15.611h0a3.411,3.411,0,0,1-1.849,2.228c-3.57,2.188-7.331,2.774-11.121,3.45a.214.214,0,1,0,.075.421c3.783-.676,7.615-1.267,11.269-3.507a3.961,3.961,0,0,0,2.033-2.46l0-.011c.942-3.472,1.982-10.541.895-15.819a.214.214,0,0,0-.222-.17" fill="#f95"/>
    <path id="Trazado_716009" data-name="Trazado 716009" d="M271.422,301.02a.215.215,0,0,0-.1.029c-3.568,2.075-7.373,2.363-11.08,3.645-2.285.791-3.828,2.135-5.618,3.212a.214.214,0,0,0-.073.293.214.214,0,0,0,.293.073c1.83-1.1,3.338-2.413,5.537-3.174,3.64-1.259,7.489-1.549,11.156-3.68a.214.214,0,0,0-.113-.4" fill="#f95"/>
    <path id="Trazado_716010" data-name="Trazado 716010" d="M268.927,291.757a15.658,15.658,0,0,0,.645,5.444c-.668.913-1.61,1.6-2.561,1.089-.739-.4-1.091-3.6-.746-4.4a4.927,4.927,0,0,1,2.662-2.137" fill="#fff"/>
    <path id="Trazado_716011" data-name="Trazado 716011" d="M290.309,283.281a1.522,1.522,0,0,0-2.2.2c-.536,1.825,1.117,4.847,2.681,5.5a1.457,1.457,0,0,0,1.882-.428,27.11,27.11,0,0,0-2.366-5.275" fill="#fff"/>
    <path id="Trazado_716012" data-name="Trazado 716012" d="M305.938,298.476c-.435-.2-.975-.06-1.6.517a39.824,39.824,0,0,0,.856,4.648c.525,1.144,1.995.762,1.91-.228Z" fill="#fff"/>
    <path id="Trazado_716013" data-name="Trazado 716013" d="M337.525,363.823a3.387,3.387,0,1,1,3.388,3.388,3.388,3.388,0,0,1-3.388-3.388" fill="#fff"/>
    <path id="Trazado_716014" data-name="Trazado 716014" d="M348.2,376.3c-3.409,9.23-7.129,23.226-6.471,37.012A161.721,161.721,0,0,1,348.2,376.3" fill="#483737"/>
    <path id="Trazado_716015" data-name="Trazado 716015" d="M55.354,254.586c-.988,12.614.15,24.019,10.669,30.093a100.365,100.365,0,0,1,.244,18.95c-4.011-13.041-13.358-17.806-27.667-14.876,7.365,10.292,15.581,18.29,27.547,16.16a93.379,93.379,0,0,1-5.84,23.916C56.44,315.162,47,310.133,32.4,313.123c7.408,10.353,15.676,18.383,27.756,16.122-.7,1.86-1.426,3.683-2.159,5.486-2.51,6.177-5.11,12.138-7.085,18.618-3.955-13.287-13.338-18.157-27.765-15.2,7.351,10.273,15.548,18.26,27.475,16.174A74.259,74.259,0,0,0,48.264,385.7a.352.352,0,0,0,.134.234.353.353,0,0,0,.494-.062.353.353,0,0,0,.071-.26,77.52,77.52,0,0,1-.262-18.328c10.909,5.213,20.953-.258,30.8-8.153-12.972-6.684-23.254-4.634-30.641,6.81A89.511,89.511,0,0,1,55,343.938c11.038,5.488,21.186-.012,31.134-7.988-13.011-6.705-23.315-4.621-30.707,6.915,1.049-2.615,2.139-5.218,3.216-7.869a136.624,136.624,0,0,0,5.579-15.939c11.592,4.34,21.12-2.217,30.183-11.224C80.6,302.489,70.5,305.788,64.4,318.391a87.411,87.411,0,0,0,2.879-20.676c12.332.234,19.147-9.087,24.719-20.56-14.407-.474-22.789,5.627-24.7,18.794a108.975,108.975,0,0,0-.605-11.58c5.705-12.85,1.693-22.706-11.343-29.783" fill="#241c1c"/>
    <path id="Trazado_716016" data-name="Trazado 716016" d="M35,272.681c.851,10.877-.13,20.712-9.2,25.949a86.6,86.6,0,0,0-.211,16.342c3.458-11.246,11.518-15.355,23.857-12.829-6.351,8.876-13.435,15.773-23.753,13.936A80.566,80.566,0,0,0,30.727,336.7c3.334-11.785,11.47-16.122,24.068-13.544-6.388,8.928-13.518,15.852-23.934,13.9.6,1.6,1.229,3.176,1.861,4.731,2.165,5.327,4.406,10.467,6.11,16.055,3.41-11.458,11.5-15.658,23.941-13.111-6.338,8.858-13.406,15.746-23.691,13.947a64.055,64.055,0,0,1,2.029,27.063.306.306,0,0,1-.116.2.3.3,0,0,1-.426-.054.315.315,0,0,1-.061-.224,66.817,66.817,0,0,0,.227-15.8c-9.407,4.5-18.068-.222-26.56-7.03,11.186-5.764,20.051-4,26.422,5.872a77.122,77.122,0,0,0-5.3-18.976c-9.518,4.733-18.269-.01-26.847-6.888,11.22-5.781,20.1-3.984,26.478,5.963-.9-2.255-1.843-4.5-2.772-6.785a117.834,117.834,0,0,1-4.81-13.744c-10,3.741-18.213-1.913-26.028-9.68,11.9-4.607,20.611-1.763,25.874,9.1a75.4,75.4,0,0,1-2.482-17.83c-10.634.2-16.511-7.835-21.316-17.729,12.424-.409,19.652,4.853,21.3,16.206a94.18,94.18,0,0,1,.523-9.985c-4.92-11.08-1.46-19.579,9.781-25.682" fill="#241c1c"/>
    <path id="Trazado_716017" data-name="Trazado 716017" d="M23.267,373.245H62.761c4.121,0,8.1,3.371,7.439,7.439l-5.309,32.655c-.662,4.067-3.318,7.439-7.44,7.439H28.264c-4.122,0-6.816-3.366-7.439-7.439l-5-32.655c-.624-4.074,3.318-7.439,7.439-7.439" fill="#ffa031"/>
  </g>
</svg>
