<svg id="Grupo_1009659" data-name="Grupo 1009659" xmlns="http://www.w3.org/2000/svg" xmlns:xlink="http://www.w3.org/1999/xlink" width="396.326" height="253.132" viewBox="0 0 396.326 253.132">
  <defs>
    <clipPath id="clip-path">
      <rect id="Rectángulo_350158" data-name="Rectángulo 350158" width="396.326" height="253.132" fill="none"/>
    </clipPath>
  </defs>
  <g id="Grupo_1009656" data-name="Grupo 1009656">
    <g id="Grupo_1009655" data-name="Grupo 1009655" clip-path="url(#clip-path)">
      <path id="Trazado_726614" data-name="Trazado 726614" d="M396.064,145.491,363.221,163.8l.065-6.091,32.514-18.14c.14-.084.264,5.917.264,5.917" fill="#fff"/>
      <path id="Trazado_726615" data-name="Trazado 726615" d="M362.958,164.249l.071-6.688.131-.073,32.64-18.21.131.07c.169.094.215.119.314,3.2.047,1.455.078,2.918.078,2.933l0,.156-.136.075Zm.585-6.382-.058,5.5L395.8,145.341c-.039-1.794-.117-4.448-.193-5.364Z"/>
      <path id="Trazado_726616" data-name="Trazado 726616" d="M363.286,157.714l-.016,5.667a.634.634,0,0,1-.944.552L158.042,49.5l.18-6.5Z" fill="#fff"/>
      <path id="Trazado_726617" data-name="Trazado 726617" d="M362.636,164.274a.886.886,0,0,1-.436-.115L157.779,49.648l.2-7.082,205.569,115-.016,5.819a.9.9,0,0,1-.893.892M158.3,49.35,362.452,163.708a.376.376,0,0,0,.373,0,.363.363,0,0,0,.186-.322l.016-5.515L158.469,43.435Z"/>
      <path id="Trazado_726618" data-name="Trazado 726618" d="M363.286,157.714l-204.8-114.9a.333.333,0,0,1,0-.582l33.442-18.256L395.8,139.574c.13.073-32.514,18.14-32.514,18.14" fill="#fff"/>
      <path id="Trazado_726619" data-name="Trazado 726619" d="M363.285,158.01l-.125-.071L158.356,43.044a.592.592,0,0,1,.006-1.035l33.569-18.324.125.071L395.928,139.349l.131.074v.152c0,.176,0,.176-1.528,1.045-.843.48-2.083,1.178-3.684,2.075-2.7,1.511-6.458,3.606-11.178,6.229-8.036,4.465-16.176,8.971-16.258,9.016ZM191.926,24.277,158.61,42.463a.072.072,0,0,0-.038.065.07.07,0,0,0,.038.065L363.287,157.417c10.325-5.714,29.213-16.193,32.009-17.832Z"/>
      <path id="Trazado_726620" data-name="Trazado 726620" d="M156.816,43.265,361.128,158.843l1.287-.724.57-.32a.126.126,0,0,0,0-.219L158.867,42.112Z" fill="#fff"/>
      <path id="Trazado_726621" data-name="Trazado 726621" d="M156.677,43.51l-.582-.127,2.772-1.6L363.124,157.334a.412.412,0,0,1,.207.356.407.407,0,0,1-.209.355l-1.994,1.121Zm2.19-1.074-1.477.83L361.128,158.519l1.476-.83Z"/>
      <path id="Trazado_726622" data-name="Trazado 726622" d="M97.648,76.518,301.96,192.1l-1.025.576,61.48-34.553-1.287.724L156.816,43.265Z"/>
      <path id="Trazado_726623" data-name="Trazado 726623" d="M301.051,192.879l-.233-.416.656-.369L97.162,76.517l59.654-33.526.117.066L361.128,158.568l1.17-.657.234.416ZM98.134,76.518l203.826,115.3,58.682-32.979L156.815,43.539Z"/>
      <path id="Trazado_726624" data-name="Trazado 726624" d="M95.6,77.67,299.911,193.248l1.024-.576,1.025-.576L97.648,76.518Z" fill="#fff"/>
      <path id="Trazado_726625" data-name="Trazado 726625" d="M95.46,77.915h0c-.191-.108-.6-.115-.4-.223l2.694-1.514L302.1,191.85l.435.247-2.624,1.474Zm2.188-1.073-1.474.829L299.912,192.923l1.474-.828Z"/>
    </g>
  </g>
  <path id="Trazado_726626" data-name="Trazado 726626" d="M294.473,153.612l19.9,11.26,1.231-.691L295.7,152.921Z" fill="#fff"/>
  <path id="Trazado_726627" data-name="Trazado 726627" d="M254.662,131.091l19.9,11.26,1.231-.691L255.892,130.4Z" fill="#fff"/>
  <path id="Trazado_726628" data-name="Trazado 726628" d="M214.85,108.57l19.907,11.261,1.23-.691L216.08,107.879Z" fill="#fff"/>
  <path id="Trazado_726629" data-name="Trazado 726629" d="M135.227,63.527l19.907,11.261,1.23-.691L136.456,62.836Z" fill="#fff"/>
  <path id="Trazado_726630" data-name="Trazado 726630" d="M171.894,74.883l40.131,22.7,5.094-2.863-40.131-22.7Z" fill="#fff"/>
  <path id="Trazado_726631" data-name="Trazado 726631" d="M160.573,81.245l40.131,22.7,5.094-2.863-40.131-22.7Z" fill="#fff"/>
  <path id="Trazado_726632" data-name="Trazado 726632" d="M149.254,87.607l40.131,22.7,5.094-2.863-40.131-22.7Z" fill="#fff"/>
  <path id="Trazado_726633" data-name="Trazado 726633" d="M137.935,93.968l40.131,22.7,5.093-2.862-40.132-22.7Z" fill="#fff"/>
  <path id="Trazado_726634" data-name="Trazado 726634" d="M183.213,68.522l40.131,22.7,5.094-2.863-40.131-22.7Z" fill="#fff"/>
  <g id="Grupo_1009658" data-name="Grupo 1009658">
    <g id="Grupo_1009657" data-name="Grupo 1009657" clip-path="url(#clip-path)">
      <path id="Trazado_726635" data-name="Trazado 726635" d="M299.912,192.923V198.5a.02.02,0,0,1-.029.017L95.519,83.037l.079-5.248a.071.071,0,0,1,.105-.061Z" fill="#fff"/>
      <path id="Trazado_726636" data-name="Trazado 726636" d="M299.892,198.815a.323.323,0,0,1-.154-.039L95.218,83.209l.081-5.425a.369.369,0,0,1,.551-.316L300.21,192.749v5.919l-.156.1a.313.313,0,0,1-.162.044M95.82,82.864,299.613,198.02V193.1L95.89,78.176Z"/>
      <path id="Trazado_726637" data-name="Trazado 726637" d="M363.3,158.084l-.176,5.661-62.491,34.729a.266.266,0,0,1-.4-.233v-5.155l62.776-35.176a.193.193,0,0,1,.287.174" fill="#fff"/>
      <path id="Trazado_726638" data-name="Trazado 726638" d="M300.5,198.806a.568.568,0,0,1-.565-.565V192.91l.153-.085,62.776-35.176a.491.491,0,0,1,.731.444l-.182,5.83-62.638,34.811a.568.568,0,0,1-.275.072m.032-5.546v4.926l62.295-34.62.165-5.3Z"/>
      <path id="Trazado_726639" data-name="Trazado 726639" d="M95.24,77.686l203.9,115.546,1.285-.723.568-.32a.126.126,0,0,0,0-.219L97.287,76.534Z" fill="#fff"/>
      <path id="Trazado_726640" data-name="Trazado 726640" d="M95.1,77.931l-.387-.182,2.707-1.426,203.705,115.4a.408.408,0,0,1,0,.711l-1.991,1.121Zm2.185-1.074-1.473.829L299.135,192.908l1.473-.829Z"/>
      <path id="Trazado_726641" data-name="Trazado 726641" d="M36.193,110.93l203.9,115.546-1.024.576,61.356-34.543-1.285.724L95.24,77.686Z"/>
      <path id="Trazado_726642" data-name="Trazado 726642" d="M239.181,227.26l-.233-.417.655-.368L35.708,110.929,95.24,77.412l.117.066,203.778,115.48,1.168-.658.233.417ZM36.678,110.93,240.088,226.2l58.562-32.97L95.239,77.96Z"/>
      <path id="Trazado_726643" data-name="Trazado 726643" d="M34.148,112.081l203.9,115.546,1.021-.575,1.024-.576L36.193,110.93Z" fill="#fff"/>
      <path id="Trazado_726644" data-name="Trazado 726644" d="M34.009,112.326h0a.282.282,0,0,1,0-.491l2.184-1.23L240.226,226.23l.435.246-2.619,1.475Zm2.183-1.073-1.471.828L238.043,227.3l1.471-.828Z"/>
      <path id="Trazado_726645" data-name="Trazado 726645" d="M232.615,188l19.865,11.257,1.227-.691-19.864-11.257Z" fill="#fff"/>
      <path id="Trazado_726646" data-name="Trazado 726646" d="M192.886,165.488l19.865,11.257,1.227-.691L194.114,164.8Z" fill="#fff"/>
      <path id="Trazado_726647" data-name="Trazado 726647" d="M153.155,142.973l19.866,11.258,1.228-.691-19.866-11.258Z" fill="#fff"/>
      <path id="Trazado_726648" data-name="Trazado 726648" d="M73.694,97.943,93.56,109.2l1.228-.691L74.922,97.252Z" fill="#fff"/>
      <path id="Trazado_726649" data-name="Trazado 726649" d="M110.287,109.3l40.049,22.7,5.084-2.862-40.049-22.7Z" fill="#fff"/>
      <path id="Trazado_726650" data-name="Trazado 726650" d="M98.989,115.656l40.049,22.7,5.084-2.862-40.049-22.7Z" fill="#fff"/>
      <path id="Trazado_726651" data-name="Trazado 726651" d="M87.693,122.016l40.049,22.7,5.084-2.862-40.049-22.7Z" fill="#fff"/>
      <path id="Trazado_726652" data-name="Trazado 726652" d="M76.4,128.375l40.049,22.7,5.082-2.861-40.049-22.7Z" fill="#fff"/>
      <path id="Trazado_726653" data-name="Trazado 726653" d="M121.583,102.936l40.049,22.7,5.084-2.862-40.049-22.7Z" fill="#fff"/>
      <path id="Trazado_726654" data-name="Trazado 726654" d="M238.043,227.3v5.573a.019.019,0,0,1-.029.017L34.068,117.447l.078-5.247a.071.071,0,0,1,.1-.061Z" fill="#fff"/>
      <path id="Trazado_726655" data-name="Trazado 726655" d="M238.023,233.194a.307.307,0,0,1-.153-.04L33.767,117.619l.081-5.423a.369.369,0,0,1,.55-.317l203.943,115.25v5.918l-.156.1a.323.323,0,0,1-.162.044M34.368,117.274,237.745,232.4v-4.921L34.438,112.587Z"/>
      <path id="Trazado_726656" data-name="Trazado 726656" d="M301.3,192.473l-.177,5.66-62.362,34.719a.266.266,0,0,1-.4-.233v-5.153L301.016,192.3a.192.192,0,0,1,.286.174" fill="#fff"/>
      <path id="Trazado_726657" data-name="Trazado 726657" d="M238.633,233.185a.569.569,0,0,1-.286-.079.561.561,0,0,1-.278-.487V227.29l.153-.085,62.647-35.166a.49.49,0,0,1,.73.443l-.182,5.829-62.51,34.8a.561.561,0,0,1-.274.072m.032-5.545v4.925l62.168-34.611.165-5.3Z"/>
      <path id="Trazado_726658" data-name="Trazado 726658" d="M222.573,195.3l3.547-2.061a3.235,3.235,0,0,1,3.264.319l-3.547,2.062a3.236,3.236,0,0,0-3.264-.32"/>
      <path id="Trazado_726659" data-name="Trazado 726659" d="M232.619,204.417l-3.547,2.061a3.209,3.209,0,0,0,1.338-2.942,10.079,10.079,0,0,0-4.573-7.921l3.547-2.061a10.079,10.079,0,0,1,4.573,7.92,3.211,3.211,0,0,1-1.338,2.943"/>
      <path id="Trazado_726660" data-name="Trazado 726660" d="M225.837,195.615a10.079,10.079,0,0,1,4.573,7.92c-.008,2.912-2.069,4.086-4.6,2.623a10.078,10.078,0,0,1-4.572-7.92c.008-2.912,2.068-4.086,4.6-2.623"/>
      <path id="Trazado_726661" data-name="Trazado 726661" d="M225.834,196.912a7.6,7.6,0,0,1,3.448,5.972c-.006,2.2-1.56,3.081-3.471,1.978a7.6,7.6,0,0,1-3.448-5.972c.007-2.2,1.56-3.081,3.471-1.978" fill="#fff"/>
      <path id="Trazado_726662" data-name="Trazado 726662" d="M186.108,174.264l3.547-2.061a3.235,3.235,0,0,1,3.264.319l-3.547,2.062a3.236,3.236,0,0,0-3.264-.32"/>
      <path id="Trazado_726663" data-name="Trazado 726663" d="M196.154,183.385l-3.547,2.061a3.209,3.209,0,0,0,1.338-2.942,10.079,10.079,0,0,0-4.573-7.921l3.547-2.061a10.079,10.079,0,0,1,4.573,7.92,3.211,3.211,0,0,1-1.338,2.943"/>
      <path id="Trazado_726664" data-name="Trazado 726664" d="M189.372,174.583a10.079,10.079,0,0,1,4.573,7.92c-.008,2.912-2.069,4.086-4.6,2.623a10.078,10.078,0,0,1-4.572-7.92c.008-2.912,2.068-4.086,4.6-2.623"/>
      <path id="Trazado_726665" data-name="Trazado 726665" d="M189.368,175.88a7.6,7.6,0,0,1,3.448,5.972c-.006,2.2-1.56,3.081-3.471,1.978a7.6,7.6,0,0,1-3.448-5.972c.007-2.2,1.561-3.081,3.471-1.978" fill="#fff"/>
      <path id="Trazado_726666" data-name="Trazado 726666" d="M177.892,163.7l22.739-13.214,15.846,6.409L193.738,170.11Z" fill="#008b8a"/>
      <path id="Trazado_726667" data-name="Trazado 726667" d="M193.755,170.35l-.1-.039L177.4,163.736l23.212-13.49.1.04,16.256,6.575Zm-15.372-6.684,15.338,6.2,22.264-12.938-15.337-6.2Z"/>
      <path id="Trazado_726668" data-name="Trazado 726668" d="M193.738,170.11,216.477,156.9l11.323-2.97a.04.04,0,0,1,.03.074l-22.483,13.066Z" fill="#008b8a"/>
      <path id="Trazado_726669" data-name="Trazado 726669" d="M192.251,170.724l24.142-14.03,11.352-2.977a.257.257,0,0,1,.194.47L205.43,167.268ZM216.56,157.1l-21.334,12.4,10.037-2.632,21.334-12.4Z"/>
      <path id="Trazado_726670" data-name="Trazado 726670" d="M241.091,205.932l22.566-13.114a.086.086,0,0,1,.127.094l-.465,1.987-22.555,13.108a.091.091,0,0,1-.135-.1Z" fill="#008b8a"/>
      <path id="Trazado_726671" data-name="Trazado 726671" d="M240.718,208.236a.309.309,0,0,1-.3-.379l.484-2.066,22.647-13.161a.3.3,0,0,1,.446.331l-.486,2.078-22.636,13.155a.309.309,0,0,1-.155.042m.563-2.164-.375,1.6,22.223-12.915.376-1.6Z"/>
      <path id="Trazado_726672" data-name="Trazado 726672" d="M240.5,205.325l22.739-13.214.513.525a.088.088,0,0,1-.017.138l-22.641,13.157Z" fill="#008b8a"/>
      <path id="Trazado_726673" data-name="Trazado 726673" d="M241.054,206.2l-.907-.925,23.125-13.439.632.645a.305.305,0,0,1-.064.478Zm-.208-.831.282.287L263.48,192.67l-.282-.288Z"/>
      <path id="Trazado_726674" data-name="Trazado 726674" d="M230.521,182.127l22.739-13.214,5.195,11.113L235.716,193.24Z" fill="#008b8a"/>
      <path id="Trazado_726675" data-name="Trazado 726675" d="M235.62,193.546l-5.379-11.507,23.114-13.432,5.38,11.507ZM230.8,182.215l5.011,10.719,22.363-13-5.011-10.719Z"/>
      <path id="Trazado_726676" data-name="Trazado 726676" d="M205.347,167.066l22.739-13.214L253.1,168.816a.112.112,0,0,1,0,.192l-22.575,13.119Z" fill="#008b8a"/>
      <path id="Trazado_726677" data-name="Trazado 726677" d="M230.52,182.378l-25.6-15.315L228.087,153.6l25.122,15.03a.327.327,0,0,1,0,.564Zm-24.747-15.31,24.75,14.807,22.31-12.965L228.084,154.1Z"/>
      <path id="Trazado_726678" data-name="Trazado 726678" d="M205.347,167.066l25.175,15.061,5.195,11.113,4.022,4.219,1.129,6.184-.371,1.682.594.607-.466,1.992a.176.176,0,0,1-.228.126l-9.023-3.092-.156-.082a5.909,5.909,0,0,0,.043-.721,11.009,11.009,0,0,0-4.995-8.653c-2.769-1.6-5.02-.315-5.029,2.866a7.729,7.729,0,0,0,.12,1.347l-2.184-1.143L195.141,184.7l-.512-.307a5.444,5.444,0,0,0,.15-1.3,11.01,11.01,0,0,0-5-8.653c-2.768-1.6-5.02-.316-5.029,2.865a7.751,7.751,0,0,0,.1,1.229l-.538-.323-9.607-7.706.378-3.734,2.8-3.069,15.846,6.409Z" fill="#008b8a"/>
      <path id="Trazado_726679" data-name="Trazado 726679" d="M240.453,208.276a.394.394,0,0,1-.127-.021l-9.039-3.1-.3-.159.018-.149a5.9,5.9,0,0,0,.042-.694,10.788,10.788,0,0,0-4.887-8.466,3.341,3.341,0,0,0-3.342-.354,3.3,3.3,0,0,0-1.362,3.033,7.539,7.539,0,0,0,.117,1.31l.075.432-2.573-1.346-24.039-13.879-.653-.391.039-.156a5.294,5.294,0,0,0,.143-1.246,10.787,10.787,0,0,0-4.888-8.466,3.339,3.339,0,0,0-3.341-.354,3.3,3.3,0,0,0-1.363,3.033,7.464,7.464,0,0,0,.1,1.194l.073.458-.961-.578-9.7-7.78.4-3.922,2.956-3.233,15.919,6.439,11.627-3.05.078.047,25.231,15.1,5.208,11.141,4.043,4.241,1.149,6.29-.356,1.61.6.608-.494,2.108a.392.392,0,0,1-.382.3m-8.994-3.518,8.965,3.073.429-1.833-.594-.6.388-1.754-1.109-6.077-4-4.2-.015-.032-5.167-11.053L205.313,167.3l-11.59,3.04-.066-.027-15.707-6.353-2.655,2.905-.359,3.545,9.5,7.624.14.084a7.543,7.543,0,0,1-.043-.812,3.27,3.27,0,0,1,5.354-3.053,11.269,11.269,0,0,1,5.1,8.842,5.788,5.788,0,0,1-.12,1.192l.377.227,24.029,13.872,1.8.942a7.757,7.757,0,0,1-.059-.959,3.7,3.7,0,0,1,1.579-3.407,3.741,3.741,0,0,1,3.774.354,11.265,11.265,0,0,1,5.1,8.842c0,.2-.01.4-.028.6Z"/>
      <path id="Trazado_726680" data-name="Trazado 726680" d="M262.478,184.245l-4.023-4.219L235.717,193.24l4.022,4.219,1.129,6.184-.286,1.295a.174.174,0,0,0,.257.188l22.4-13.015.372-1.682Z" fill="#008b8a"/>
      <path id="Trazado_726681" data-name="Trazado 726681" d="M240.752,205.367a.392.392,0,0,1-.381-.476l.277-1.252-1.11-6.077-4.167-4.371,23.123-13.438,4.186,4.389,1.148,6.291-.4,1.817-22.478,13.063a.389.389,0,0,1-.2.054m-4.689-12.078,3.878,4.067,1.148,6.291-.274,1.243,22.229-12.919.342-1.547-1.109-6.077-3.861-4.048Z"/>
      <path id="Trazado_726682" data-name="Trazado 726682" d="M232.339,182.587l3.755,8.747,20.74-12.006-4.049-8.594Z" fill="#fff"/>
      <path id="Trazado_726683" data-name="Trazado 726683" d="M246.485,194.133l.43,1.856-2.76,1.594-.54.924-1.962,1.133-.556-2.4Z" fill="#3076b6"/>
      <path id="Trazado_726684" data-name="Trazado 726684" d="M261.353,185.549l.556,2.4-1.963,1.133-.79-.156-2.761,1.593-.43-1.856Z" fill="#3076b6"/>
      <path id="Trazado_726685" data-name="Trazado 726685" d="M207.915,191.655l-.432-.038.986-11.3.009-.025,3.177-9.381.41.139-3.169,9.356Z"/>
      <path id="Trazado_726686" data-name="Trazado 726686" d="M211.924,173.211l10.249,6.209-.961,6.974-11.383-6.572Z" fill="#fff"/>
      <path id="Trazado_726687" data-name="Trazado 726687" d="M223.677,180.3l6.187,3.806,2.749,9.057-9.722-5.73Z" fill="#fff"/>
      <path id="Trazado_726688" data-name="Trazado 726688" d="M203.751,168.017l6.789,4.094-2.187,6.558-13.553-7.65Z" fill="#fff"/>
      <path id="Trazado_726689" data-name="Trazado 726689" d="M195.95,185.126l-.409-.144c1.9-5.4-2.63-10.246-2.676-10.294l-.074-.078.734-4.535.427.069-.7,4.325a13.852,13.852,0,0,1,2.064,3.134,9.7,9.7,0,0,1,.633,7.523"/>
      <path id="Trazado_726690" data-name="Trazado 726690" d="M175.087,166.77l17.936,7.768Z" fill="#ffa031"/>
      <rect id="Rectángulo_350159" data-name="Rectángulo 350159" width="0.296" height="19.546" transform="translate(175.027 166.906) rotate(-66.583)"/>
      <path id="Trazado_726691" data-name="Trazado 726691" d="M233.284,205.529l-.431-.045a12.345,12.345,0,0,0-1.832-7.223c-1.826-2.795-4.816-5.034-7.11-5.323a2.739,2.739,0,0,0-2.3.624c-2.239,2.049-1.26,5.443-1.25,5.477l-.414.124c-.045-.149-1.071-3.686,1.372-5.921a3.155,3.155,0,0,1,2.643-.734c2.409.3,5.529,2.624,7.419,5.516a12.559,12.559,0,0,1,1.9,7.505"/>
      <path id="Trazado_726692" data-name="Trazado 726692" d="M198.242,168.184l.148-.086,18.387-10.707L225,155.222l-19.972,11.3Z" fill="#fff"/>
      <path id="Trazado_726693" data-name="Trazado 726693" d="M217.131,187.366l2.892,1.681-.1.673-2.892-1.648Z"/>
      <path id="Trazado_726694" data-name="Trazado 726694" d="M204.673,180.658l2.892,1.681-.1.673-2.892-1.648Z"/>
      <path id="Trazado_726695" data-name="Trazado 726695" d="M223.208,177.792l-1.286,10.516-.454,5.094Z" fill="#ffa031"/>
      <path id="Trazado_726696" data-name="Trazado 726696" d="M221.616,193.415l-.3-.026.454-5.094,1.286-10.521.295.036-1.287,10.516Z"/>
      <path id="Trazado_726697" data-name="Trazado 726697" d="M225.04,200.759l.418.241-.287.164a1.608,1.608,0,0,1-.131-.4"/>
      <path id="Trazado_726698" data-name="Trazado 726698" d="M225.926,200.221a1.586,1.586,0,0,1,.31.336l-.311.177Z"/>
      <path id="Trazado_726699" data-name="Trazado 726699" d="M225.649,201.777a1.541,1.541,0,0,1-.279-.285l.28-.16Z"/>
      <path id="Trazado_726700" data-name="Trazado 726700" d="M225.921,201.931v-.442l.273.472a.526.526,0,0,1-.274-.03"/>
      <path id="Trazado_726701" data-name="Trazado 726701" d="M225.65,201.332l.136-.078.136.235v.442l-.01,3.432-.272-.157.01-3.429Z"/>
      <path id="Trazado_726702" data-name="Trazado 726702" d="M225.148,200.149l.31.537-.428-.247a.542.542,0,0,1,.118-.29"/>
      <path id="Trazado_726703" data-name="Trazado 726703" d="M225.03,200.439l.428.247.273.158-.273.156-.418-.241-2.953-1.706v-.313Z"/>
      <path id="Trazado_726704" data-name="Trazado 726704" d="M228.316,199.371l.192.333-2.088,1.189-.3.173-.274.156-.057.033-.136.077-.28.16-2.112,1.2-.192-.332,2.1-1.2.287-.163.273-.156.057-.032.136-.078.311-.177Z"/>
      <path id="Trazado_726705" data-name="Trazado 726705" d="M226.392,201.859l2.1,3.637-.194.11-2.1-3.644-.272-.472-.135-.235.056-.032.272.157Z"/>
      <path id="Trazado_726706" data-name="Trazado 726706" d="M225.652,200.577l.135.235-.056.032-.273-.158-.31-.537-2.066-3.578.194-.11,2.061,3.57Z"/>
      <path id="Trazado_726707" data-name="Trazado 726707" d="M226.392,201.859l-.277-.479.4.233a.5.5,0,0,1-.127.246"/>
      <path id="Trazado_726708" data-name="Trazado 726708" d="M225.652,200.577l-.315-.546a.523.523,0,0,1,.316.03Z"/>
      <path id="Trazado_726709" data-name="Trazado 726709" d="M226.531,201.305l2.957,1.707v.313l-2.968-1.713-.4-.233-.272-.157.273-.156Z"/>
      <path id="Trazado_726710" data-name="Trazado 726710" d="M225.663,196.7l.272.157-.01,3.361v.513l-.137.078-.135-.235v-.516Z"/>
      <path id="Trazado_726711" data-name="Trazado 726711" d="M226.531,201.3l-.414-.239.3-.173a1.478,1.478,0,0,1,.111.412"/>
      <path id="Trazado_726712" data-name="Trazado 726712" d="M188.516,179.728l.418.241-.287.164a1.607,1.607,0,0,1-.131-.4"/>
      <path id="Trazado_726713" data-name="Trazado 726713" d="M189.4,179.191a1.586,1.586,0,0,1,.31.336l-.311.177Z"/>
      <path id="Trazado_726714" data-name="Trazado 726714" d="M189.125,180.747a1.573,1.573,0,0,1-.279-.285l.28-.16Z"/>
      <path id="Trazado_726715" data-name="Trazado 726715" d="M189.4,180.9v-.442l.273.472a.526.526,0,0,1-.274-.03"/>
      <path id="Trazado_726716" data-name="Trazado 726716" d="M189.126,180.3l.136-.078.136.235v.442l-.01,3.432-.272-.157.01-3.429Z"/>
      <path id="Trazado_726717" data-name="Trazado 726717" d="M188.624,179.119l.31.537-.428-.247a.542.542,0,0,1,.118-.29"/>
      <path id="Trazado_726718" data-name="Trazado 726718" d="M188.506,179.409l.428.247.273.158-.273.156-.418-.241-2.953-1.706v-.313Z"/>
      <path id="Trazado_726719" data-name="Trazado 726719" d="M191.792,178.341l.192.333-2.088,1.189-.3.173-.274.156-.057.033-.136.077-.28.16-2.112,1.2-.192-.332,2.1-1.2.287-.163.273-.156.057-.032.136-.078.311-.177Z"/>
      <path id="Trazado_726720" data-name="Trazado 726720" d="M189.868,180.828l2.1,3.637-.194.11-2.1-3.644-.272-.472-.135-.235.056-.032.272.157Z"/>
      <path id="Trazado_726721" data-name="Trazado 726721" d="M189.128,179.547l.135.235-.056.032-.273-.158-.31-.537-2.066-3.578.194-.11,2.061,3.57Z"/>
      <path id="Trazado_726722" data-name="Trazado 726722" d="M189.868,180.828l-.277-.479.4.233a.5.5,0,0,1-.127.246"/>
      <path id="Trazado_726723" data-name="Trazado 726723" d="M189.128,179.547l-.315-.546a.523.523,0,0,1,.316.03Z"/>
      <path id="Trazado_726724" data-name="Trazado 726724" d="M190.007,180.275l2.957,1.707v.313l-2.968-1.713-.4-.233-.272-.157.273-.156Z"/>
      <path id="Trazado_726725" data-name="Trazado 726725" d="M189.139,175.673l.272.157-.01,3.361v.513l-.137.078-.135-.235v-.516Z"/>
      <path id="Trazado_726726" data-name="Trazado 726726" d="M190.007,180.275l-.415-.239.3-.173a1.553,1.553,0,0,1,.112.412"/>
      <path id="Trazado_726727" data-name="Trazado 726727" d="M238.3,227.437l.289,5.471-32.915,19.756.064-6.092s32.56-19.3,32.562-19.135" fill="#fff"/>
      <path id="Trazado_726728" data-name="Trazado 726728" d="M205.416,253.124l.071-6.7.125-.074c.081-.048,8.2-4.859,16.228-9.6,4.716-2.784,8.48-5,11.187-6.582,1.607-.941,2.856-1.667,3.709-2.158,1.542-.887,1.542-.887,1.7-.8l.13.073,0,.144.3,5.622-.133.08Zm.585-6.4-.058,5.483,32.386-19.438-.261-4.918c-2.745,1.522-21.728,12.745-32.067,18.873"/>
      <path id="Trazado_726729" data-name="Trazado 726729" d="M205.744,246.572l-.016,5.667a.634.634,0,0,1-.944.552L.5,138.357l.019-6.746Z" fill="#fff"/>
      <path id="Trazado_726730" data-name="Trazado 726730" d="M205.094,253.132a.89.89,0,0,1-.437-.115L.241,138.509l.021-7.339L206,246.421l-.016,5.82a.9.9,0,0,1-.893.891M.759,138.206,204.91,252.566a.376.376,0,0,0,.559-.327l.016-5.515L.776,132.052Z"/>
      <path id="Trazado_726731" data-name="Trazado 726731" d="M238.3,227.437l-32.562,19.135L.518,131.611l33.491-19.776s204.424,115.526,204.3,115.6" fill="#fff"/>
      <path id="Trazado_726732" data-name="Trazado 726732" d="M205.746,246.871l-.129-.073L0,131.617l34.007-20.081.13.074c.51.288,51.657,29.193,102.147,57.745,29.654,16.769,53.281,30.136,70.226,39.731,10.062,5.7,17.848,10.109,23.144,13.116,2.846,1.615,5.028,2.856,6.484,3.687.749.427,1.323.756,1.71.979.714.411.714.411.716.565v.151l-.129.076ZM1.037,131.6l204.7,114.669L237.8,227.435C228.4,221.993,40,115.517,34.012,112.134Z"/>
      <path id="Trazado_726733" data-name="Trazado 726733" d="M377.334,123.376a19.909,19.909,0,0,0-3.265-2.585c-4.132-2.561-6.952-1.692-8.19-1.024l-.7.381a18.083,18.083,0,0,0-7.439-13.781c-.272-.195-.535-.37-.793-.53-2.639-1.636-4.518-1.564-5.832-.854l-3.07,1.658c-.7-3.769-2.885-11.313-9.571-15.457-2.756-1.708-4.734-1.756-6.153-.99l-5.565,3a38.964,38.964,0,0,0-4.571-5.861,10.8,10.8,0,0,0-2.207-1.885,4.522,4.522,0,0,0-4.8-.358l-4.257,2.3a15.235,15.235,0,0,0-4.418-4.813,4.677,4.677,0,0,0-3.917-.678,3.528,3.528,0,0,0-.652.273l-9.772,5.277a3.586,3.586,0,0,1,.652-.273,4.679,4.679,0,0,1,3.918.678c3.116,1.932,5.225,6.221,5.336,6.447l7.378-3.985a7.048,7.048,0,0,1,.76.41,10.793,10.793,0,0,1,2.206,1.885c6.487,7.03,6.553,10.589,6.557,10.777l9.771-5.277a5.97,5.97,0,0,0-.462-1.906c.139.08.28.163.424.252,8.912,5.524,9.833,17.091,9.881,17.7l7.1-3.832a11,11,0,0,1,1.5.785c.257.16.521.335.793.529a18.081,18.081,0,0,1,7.44,13.872l1.556-.84c1.478-.5,3.973-.692,7.338,1.393a19.908,19.908,0,0,1,3.265,2.585c7.47,7.177,6.838,20.2,6.805,20.886l9.771-5.277c.033-.685.666-13.708-6.8-20.886" fill="#008b8a"/>
      <path id="Trazado_726734" data-name="Trazado 726734" d="M374.174,149.845l.016-.315c.067-1.4.454-13.827-6.751-20.75a19.766,19.766,0,0,0-3.235-2.561c-3.28-2.033-5.709-1.875-7.174-1.382l-1.8.973,0-.294a17.894,17.894,0,0,0-7.365-13.729c-.265-.188-.528-.364-.783-.522a10.946,10.946,0,0,0-1.393-.739l-7.261,3.921-.022-.273c-.1-1.237-1.21-12.239-9.8-17.562a5.53,5.53,0,0,1,.31,1.5l0,.108-.1.052-10.028,5.415-.005-.292c-.007-.376-.25-3.875-6.51-10.659a10.657,10.657,0,0,0-2.17-1.854,6.918,6.918,0,0,0-.659-.362l-7.463,4.03-.081-.166c-.225-.457-2.283-4.523-5.27-6.374a4.485,4.485,0,0,0-3.772-.659,3.381,3.381,0,0,0-.615.256s-.173-.31-.173-.31l.005,0,9.766-5.274a3.663,3.663,0,0,1,.684-.286,4.828,4.828,0,0,1,4.064.7,15.151,15.151,0,0,1,4.386,4.729l4.11-2.22a4.709,4.709,0,0,1,4.977.363,11.051,11.051,0,0,1,2.244,1.916,40.029,40.029,0,0,1,4.5,5.745l5.417-2.925c1.675-.9,3.806-.57,6.332.995,6.525,4.045,8.814,11.243,9.606,15.336l2.856-1.543c1.639-.885,3.661-.6,6.01.86.264.163.534.344.8.536a18.125,18.125,0,0,1,7.5,13.634l.454-.245c1.339-.723,4.206-1.55,8.369,1.03a20.137,20.137,0,0,1,3.294,2.607c7.317,7.03,6.928,19.611,6.859,21.023l0,.1-.089.048Zm-14.927-25.676a10.4,10.4,0,0,1,5.144,1.747,20.194,20.194,0,0,1,3.3,2.608c6.933,6.661,6.947,18.3,6.871,20.709l9.409-5.08c.075-1.8.3-13.87-6.756-20.649a19.787,19.787,0,0,0-3.235-2.562c-4.009-2.485-6.741-1.705-8.012-1.019l-.961.519-.007-.29a17.526,17.526,0,0,0-1.075-5.319,17.262,17.262,0,0,0-6.289-8.322c-.263-.188-.526-.364-.783-.523-2.233-1.384-4.135-1.67-5.654-.85l-3.285,1.775-.045-.241c-.737-3.988-2.95-11.284-9.489-15.337-2.409-1.494-4.42-1.825-5.975-.985l-5.712,3.085-.088-.143a39.261,39.261,0,0,0-4.551-5.834,10.743,10.743,0,0,0-2.17-1.854,4.375,4.375,0,0,0-4.621-.353l-4.4,2.379-.088-.143a14.993,14.993,0,0,0-4.361-4.755,4.485,4.485,0,0,0-3.772-.659,3.461,3.461,0,0,0-.619.259l-8.336,4.5a5.161,5.161,0,0,1,3.143.873c2.841,1.761,4.851,5.442,5.319,6.355l7.3-3.94.08.037a7.309,7.309,0,0,1,.779.42,11.073,11.073,0,0,1,2.244,1.916c5.583,6.05,6.448,9.582,6.58,10.611l9.434-5.094a6.628,6.628,0,0,0-.446-1.74l-.174-.463.429.246c.141.081.284.165.429.255,8.287,5.137,9.729,15.448,9.94,17.567l6.935-3.745.078.033a11.286,11.286,0,0,1,1.52.8c.262.162.532.343.8.536a18.278,18.278,0,0,1,7.505,13.723l1.33-.716a6.635,6.635,0,0,1,2.345-.336"/>
      <path id="Trazado_726735" data-name="Trazado 726735" d="M328.7,96.461c8.912,5.524,9.833,17.091,9.881,17.7.1-.36,1.9-7.2,8.592-3.047q.386.239.793.529a18.081,18.081,0,0,1,7.44,13.871c.167-.144,3.349-2.883,8.894.554a19.8,19.8,0,0,1,3.265,2.585c7.47,7.177,6.838,20.2,6.805,20.886l-85.183-48.864c-.069-.6-1.373-11.963,3.625-13.5a4.676,4.676,0,0,1,3.918.678c3.117,1.932,5.225,6.221,5.336,6.447.149-.338,2.993-6.764,8.138-3.575a10.8,10.8,0,0,1,2.207,1.885c6.486,7.029,6.552,10.589,6.556,10.776.041-.622.821-12.454,9.733-6.93" fill="#008b8a"/>
      <path id="Trazado_726736" data-name="Trazado 726736" d="M374.531,149.837l-.252-.144-85.261-48.909-.01-.089c-.143-1.24-1.247-12.154,3.75-13.685a4.829,4.829,0,0,1,4.064.7c2.7,1.672,4.644,5.073,5.235,6.194.488-.983,1.867-3.351,4.108-4.044a4.9,4.9,0,0,1,4.13.722,11.066,11.066,0,0,1,2.244,1.915c4.452,4.825,5.9,8.048,6.376,9.678.284-2.008,1.133-5.619,3.618-6.9,1.665-.856,3.77-.507,6.258,1.035,7.715,4.781,9.5,14.047,9.877,17.014a5.875,5.875,0,0,1,3.021-3.425c1.559-.621,3.435-.263,5.575,1.063.262.163.532.343.8.536a18.281,18.281,0,0,1,7.5,13.667c.952-.655,4.036-2.213,8.822.752a20.191,20.191,0,0,1,3.294,2.607c7.317,7.031,6.928,19.612,6.859,21.023Zm-85.18-49.272,84.85,48.673c.076-2.338.08-13.883-6.762-20.457a19.788,19.788,0,0,0-3.235-2.562c-5.283-3.274-8.352-.856-8.684-.57l-.29.25,0-.382a17.9,17.9,0,0,0-7.366-13.729c-.265-.189-.528-.365-.783-.523-2.039-1.264-3.808-1.612-5.257-1.035-2.149.856-2.934,3.462-3.069,3.976l-.267,1.01-.083-1.041c-.1-1.237-1.209-12.24-9.8-17.563-2.375-1.472-4.363-1.815-5.908-1.02-3.057,1.572-3.512,7.177-3.554,7.811l-.355-.008c-.007-.377-.25-3.876-6.509-10.659a10.718,10.718,0,0,0-2.17-1.855,4.567,4.567,0,0,0-3.838-.684c-2.419.748-3.793,3.613-4.044,4.18l-.154.348-.168-.342c-.225-.457-2.281-4.521-5.27-6.374a4.485,4.485,0,0,0-3.772-.659c-4.622,1.416-3.683,11.649-3.511,13.215"/>
      <path id="Trazado_726737" data-name="Trazado 726737" d="M297.079,92.545a.149.149,0,0,0-.04-.067L297,92.445a.194.194,0,0,0-.1-.031l-.054,0a.2.2,0,0,0-.092.05l-.143.135a.144.144,0,0,0-.045.064.162.162,0,0,0-.02.078.152.152,0,0,0,.015.079.16.16,0,0,0,.041.068l.04.033a.2.2,0,0,0,.1.031l.055-.006a.2.2,0,0,0,.091-.049l.144-.135a.16.16,0,0,0,.044-.065.151.151,0,0,0,.02-.078.153.153,0,0,0-.015-.079"/>
      <path id="Trazado_726738" data-name="Trazado 726738" d="M297.714,97.451a.2.2,0,0,0-.013.408.2.2,0,0,0,.013-.408"/>
      <path id="Trazado_726739" data-name="Trazado 726739" d="M293.011,96.468a.2.2,0,0,0-.013.408.2.2,0,0,0,.013-.408"/>
      <path id="Trazado_726740" data-name="Trazado 726740" d="M302.35,97.771a.183.183,0,0,0-.073-.136.158.158,0,0,0-.068-.038.207.207,0,0,0-.158.015.223.223,0,0,0-.089.1l.006-.012a.153.153,0,0,1-.014.021l-.006,0h-.005l-.007,0a.163.163,0,0,0-.082-.006.159.159,0,0,0-.076.022.153.153,0,0,0-.059.051.15.15,0,0,0-.039.068.207.207,0,0,0,.016.158l.03.042a.2.2,0,0,0,.089.056.444.444,0,0,0,.1.019.207.207,0,0,0,.043,0,.506.506,0,0,0,.094-.013.525.525,0,0,0,.089-.033.438.438,0,0,0,.058-.037.367.367,0,0,0,.052-.044.42.42,0,0,0,.1-.16.16.16,0,0,0,.006-.081"/>
      <path id="Trazado_726741" data-name="Trazado 726741" d="M300.257,102.552a.208.208,0,0,0-.05-.092l-.04-.033a.2.2,0,0,0-.1-.031l-.139,0a.157.157,0,0,0-.08.015.154.154,0,0,0-.067.04.157.157,0,0,0-.044.064.162.162,0,0,0-.02.078l.006.055a.206.206,0,0,0,.049.092l.041.033a.2.2,0,0,0,.1.031l.139,0a.153.153,0,0,0,.079-.015.188.188,0,0,0,.112-.1.162.162,0,0,0,.02-.078l-.006-.055"/>
      <path id="Trazado_726742" data-name="Trazado 726742" d="M309.2,96.822a.149.149,0,0,0-.04-.067l-.041-.033a.194.194,0,0,0-.1-.031l-.054,0a.2.2,0,0,0-.092.05l-.143.135a.15.15,0,0,0-.045.064.162.162,0,0,0-.02.078.221.221,0,0,0,.056.146l.04.034a.2.2,0,0,0,.1.031l.055-.006a.2.2,0,0,0,.091-.049l.144-.135a.16.16,0,0,0,.044-.065.151.151,0,0,0,.02-.078.153.153,0,0,0-.015-.079"/>
      <path id="Trazado_726743" data-name="Trazado 726743" d="M306.775,103.313a.2.2,0,0,0-.05-.092l-.04-.033a.2.2,0,0,0-.1-.031l-.139,0a.157.157,0,0,0-.08.015.16.16,0,0,0-.067.04.157.157,0,0,0-.044.064.162.162,0,0,0-.02.078l.006.055a.206.206,0,0,0,.049.092l.041.033a.2.2,0,0,0,.1.031l.139,0a.153.153,0,0,0,.079-.015.187.187,0,0,0,.112-.1.162.162,0,0,0,.02-.078l-.006-.055"/>
      <path id="Trazado_726744" data-name="Trazado 726744" d="M312.814,108.641a.2.2,0,0,0-.013.409.2.2,0,0,0,.013-.409"/>
      <path id="Trazado_726745" data-name="Trazado 726745" d="M313.028,103.345a.149.149,0,0,0-.04-.067.145.145,0,0,0-.065-.044.142.142,0,0,0-.078-.02l-.054.005a.2.2,0,0,0-.092.05l-.033.04a.2.2,0,0,0-.031.1l-.005.14a.153.153,0,0,0,.015.079.156.156,0,0,0,.041.067.226.226,0,0,0,.142.064l.055-.005a.209.209,0,0,0,.091-.05l.034-.04a.21.21,0,0,0,.031-.1l0-.139a.153.153,0,0,0-.015-.079"/>
      <path id="Trazado_726746" data-name="Trazado 726746" d="M320.689,106.1a.2.2,0,0,0-.013.408.2.2,0,0,0,.013-.408"/>
      <path id="Trazado_726747" data-name="Trazado 726747" d="M318.407,112.3a.2.2,0,0,0-.013.408.2.2,0,0,0,.013-.408"/>
      <path id="Trazado_726748" data-name="Trazado 726748" d="M327.719,117.38a.209.209,0,0,0-.143-.064l-.278-.009a.208.208,0,0,0-.146.055.16.16,0,0,0-.044.065.142.142,0,0,0-.02.078.2.2,0,0,0,.055.146.209.209,0,0,0,.143.064l.278.009a.208.208,0,0,0,.146-.055.16.16,0,0,0,.044-.065.149.149,0,0,0,.02-.078.2.2,0,0,0-.055-.146"/>
      <path id="Trazado_726749" data-name="Trazado 726749" d="M326.59,108.794a.2.2,0,0,0-.013.409.2.2,0,0,0,.013-.409"/>
      <path id="Trazado_726750" data-name="Trazado 726750" d="M327.978,101.888a.2.2,0,0,0-.05-.092l-.04-.033a.194.194,0,0,0-.1-.031l-.139,0a.157.157,0,0,0-.08.015.16.16,0,0,0-.067.04.157.157,0,0,0-.044.064.162.162,0,0,0-.02.078l.006.055a.206.206,0,0,0,.049.092l.041.033a.2.2,0,0,0,.1.031l.139,0a.153.153,0,0,0,.079-.015.187.187,0,0,0,.112-.1.162.162,0,0,0,.02-.078l-.006-.055"/>
      <path id="Trazado_726751" data-name="Trazado 726751" d="M334.117,108.473a.2.2,0,0,0-.013.408.2.2,0,0,0,.013-.408"/>
      <path id="Trazado_726752" data-name="Trazado 726752" d="M332.774,115.808a.2.2,0,0,0-.013.408.2.2,0,0,0,.013-.408"/>
      <path id="Trazado_726753" data-name="Trazado 726753" d="M336.512,122.757a.2.2,0,0,0-.05-.092l-.04-.033a.2.2,0,0,0-.1-.031l-.139,0a.157.157,0,0,0-.08.015.15.15,0,0,0-.067.04.157.157,0,0,0-.044.064.162.162,0,0,0-.02.078l.006.055a.206.206,0,0,0,.049.092l.041.033a.2.2,0,0,0,.1.031l.139,0a.153.153,0,0,0,.079-.015.187.187,0,0,0,.112-.1.162.162,0,0,0,.02-.078l-.006-.055"/>
      <path id="Trazado_726754" data-name="Trazado 726754" d="M341.364,126.159a.209.209,0,0,0-.143-.064l-.278-.009a.208.208,0,0,0-.146.055.16.16,0,0,0-.044.065.142.142,0,0,0-.02.078.2.2,0,0,0,.055.146.209.209,0,0,0,.143.064l.278.009a.208.208,0,0,0,.146-.055.153.153,0,0,0,.044-.065.149.149,0,0,0,.02-.078.2.2,0,0,0-.055-.146"/>
      <path id="Trazado_726755" data-name="Trazado 726755" d="M344.49,116.579a.149.149,0,0,0-.04-.067.145.145,0,0,0-.065-.044.142.142,0,0,0-.078-.02l-.054.005a.2.2,0,0,0-.092.05l-.033.04a.2.2,0,0,0-.031.1l0,.14a.153.153,0,0,0,.015.079.156.156,0,0,0,.041.067.226.226,0,0,0,.142.064l.055-.005a.209.209,0,0,0,.091-.05l.034-.04a.21.21,0,0,0,.031-.1l0-.139a.153.153,0,0,0-.015-.079"/>
      <path id="Trazado_726756" data-name="Trazado 726756" d="M349.018,121.606a.2.2,0,0,0-.013.408.2.2,0,0,0,.013-.408"/>
      <path id="Trazado_726757" data-name="Trazado 726757" d="M350.8,128.633a.208.208,0,0,0-.05-.092l-.04-.033a.2.2,0,0,0-.1-.031l-.139,0a.157.157,0,0,0-.08.015.154.154,0,0,0-.067.04.157.157,0,0,0-.044.064.162.162,0,0,0-.02.078l.006.055a.206.206,0,0,0,.049.092l.041.033a.2.2,0,0,0,.1.031l.139,0a.153.153,0,0,0,.079-.015.149.149,0,0,0,.067-.04.159.159,0,0,0,.045-.064.162.162,0,0,0,.02-.078l-.006-.055"/>
      <path id="Trazado_726758" data-name="Trazado 726758" d="M358.032,133.452a.208.208,0,0,0-.05-.092c-.045-.048-.09-.1-.134-.143a.151.151,0,0,0-.065-.044.142.142,0,0,0-.078-.02.151.151,0,0,0-.079.015.141.141,0,0,0-.067.04l-.034.04a.214.214,0,0,0-.031.1l.006.055a.208.208,0,0,0,.05.092c.045.047.089.1.134.143a.151.151,0,0,0,.065.044.142.142,0,0,0,.078.02.153.153,0,0,0,.079-.015.148.148,0,0,0,.067-.04l.033-.04a.211.211,0,0,0,.032-.1l-.006-.055"/>
      <path id="Trazado_726759" data-name="Trazado 726759" d="M359.912,129.523a.157.157,0,0,0-.064-.044.152.152,0,0,0-.079-.02.2.2,0,0,0-.146.055.213.213,0,0,0-.064.143l-.009.278a.217.217,0,0,0,.055.146.16.16,0,0,0,.065.044.151.151,0,0,0,.078.02.2.2,0,0,0,.146-.055.214.214,0,0,0,.065-.143l.008-.278a.208.208,0,0,0-.055-.146"/>
      <path id="Trazado_726760" data-name="Trazado 726760" d="M364.775,134.07a.2.2,0,0,0-.013.409.2.2,0,0,0,.013-.409"/>
      <path id="Trazado_726761" data-name="Trazado 726761" d="M368.468,140.788a.157.157,0,0,0-.064-.044.143.143,0,0,0-.079-.02.2.2,0,0,0-.146.055.213.213,0,0,0-.064.142l-.009.279a.213.213,0,0,0,.055.146.16.16,0,0,0,.065.044.151.151,0,0,0,.078.02.2.2,0,0,0,.146-.055.214.214,0,0,0,.065-.143l.008-.278a.208.208,0,0,0-.055-.146"/>
      <path id="Trazado_726762" data-name="Trazado 726762" d="M361.58,138.484a.157.157,0,0,0-.064-.044.143.143,0,0,0-.079-.02.2.2,0,0,0-.146.055.208.208,0,0,0-.064.142l-.009.279a.213.213,0,0,0,.055.146.16.16,0,0,0,.065.044.151.151,0,0,0,.078.02.2.2,0,0,0,.146-.055.214.214,0,0,0,.065-.143l.008-.278a.208.208,0,0,0-.055-.146"/>
      <path id="Trazado_726763" data-name="Trazado 726763" d="M351.216,133.5a.2.2,0,0,0-.09-.125l-.274-.148a.148.148,0,0,0-.075-.027.159.159,0,0,0-.081,0,.153.153,0,0,0-.071.035.143.143,0,0,0-.054.055.2.2,0,0,0,.064.282l.274.148a.149.149,0,0,0,.075.027.159.159,0,0,0,.081,0,.153.153,0,0,0,.071-.035.143.143,0,0,0,.054-.055.207.207,0,0,0,.026-.157"/>
      <path id="Trazado_726764" data-name="Trazado 726764" d="M357.4,129.385a.2.2,0,0,0-.013.409.2.2,0,0,0,.013-.409"/>
      <path id="Trazado_726765" data-name="Trazado 726765" d="M369.977,136.877a.2.2,0,0,0-.013.409.2.2,0,0,0,.013-.409"/>
      <path id="Trazado_726766" data-name="Trazado 726766" d="M309.373,107.42a.2.2,0,0,0-.013.408.2.2,0,0,0,.013-.408"/>
      <path id="Trazado_726767" data-name="Trazado 726767" d="M295.375,101a.2.2,0,0,0-.013.409.2.2,0,0,0,.013-.409"/>
      <path id="Trazado_726768" data-name="Trazado 726768" d="M291.3,99.627a.208.208,0,0,0-.05-.092l-.04-.033a.2.2,0,0,0-.1-.031l-.139,0a.157.157,0,0,0-.08.015.16.16,0,0,0-.067.04.156.156,0,0,0-.044.064.162.162,0,0,0-.02.078l.006.055a.206.206,0,0,0,.049.092l.041.033a.2.2,0,0,0,.1.031l.139,0a.153.153,0,0,0,.079-.015.188.188,0,0,0,.112-.1.162.162,0,0,0,.02-.078l-.006-.055"/>
      <path id="Trazado_726769" data-name="Trazado 726769" d="M110.332,131.549l1.962-1.137.028-9.744a.135.135,0,0,0-.2-.117l-1.759,1.019Z"/>
      <path id="Trazado_726770" data-name="Trazado 726770" d="M110.246,131.7l.029-10.178,1.8-1.043a.223.223,0,0,1,.222,0,.217.217,0,0,1,.11.191l-.027,9.794Zm.2-10.079-.029,9.781,1.79-1.037.028-9.7a.048.048,0,0,0-.024-.042.047.047,0,0,0-.05,0Z" fill="#fff"/>
      <path id="Trazado_726771" data-name="Trazado 726771" d="M110.381,121.558l1.881-1.089a.041.041,0,0,0,0-.071l-3.2-1.84a.038.038,0,0,0-.041,0l-1.88,1.089a.04.04,0,0,0,0,.07l3.2,1.841a.043.043,0,0,0,.041,0"/>
      <path id="Trazado_726772" data-name="Trazado 726772" d="M110.361,121.649a.133.133,0,0,1-.064-.017l-3.2-1.84a.129.129,0,0,1-.064-.11.127.127,0,0,1,.063-.109l1.881-1.089a.128.128,0,0,1,.127,0l3.2,1.841a.126.126,0,0,1,0,.219l-1.881,1.089a.127.127,0,0,1-.063.017m-3.109-1.967,3.108,1.789,1.791-1.037-3.108-1.789Z" fill="#fff"/>
      <path id="Trazado_726773" data-name="Trazado 726773" d="M107.081,119.751l-.028,9.91,3.28,1.888.028-9.979-3.22-1.853a.039.039,0,0,0-.06.034"/>
      <path id="Trazado_726774" data-name="Trazado 726774" d="M110.417,131.7l-3.451-1.986.028-9.96a.126.126,0,0,1,.063-.108.124.124,0,0,1,.126,0l3.263,1.878Zm-3.279-2.085,3.108,1.789.028-9.782-3.108-1.789Z" fill="#fff"/>
      <path id="Trazado_726775" data-name="Trazado 726775" d="M99.874,149.8l-.051,18a1.216,1.216,0,0,1-.715,1,3.846,3.846,0,0,1-3.479,0,1.228,1.228,0,0,1-.726-1.012l.051-18a1.226,1.226,0,0,0,.726,1.011,3.843,3.843,0,0,0,3.479,0,1.216,1.216,0,0,0,.715-1"/>
      <path id="Trazado_726776" data-name="Trazado 726776" d="M97.371,169.329a3.691,3.691,0,0,1-1.8-.429,1.338,1.338,0,0,1-.784-1.112l.052-18h.231a1.119,1.119,0,0,0,.668.911,3.724,3.724,0,0,0,3.363,0,1.112,1.112,0,0,0,.658-.9h.231l-.051,18a1.327,1.327,0,0,1-.773,1.1,3.652,3.652,0,0,1-1.795.43m-2.3-18.895-.049,17.355a1.119,1.119,0,0,0,.668.911,3.721,3.721,0,0,0,3.363,0,1.112,1.112,0,0,0,.658-.9l.049-17.355a1.838,1.838,0,0,1-.539.454,3.977,3.977,0,0,1-3.6,0,1.842,1.842,0,0,1-.555-.468" fill="#fff"/>
      <path id="Trazado_726777" data-name="Trazado 726777" d="M99.148,148.793a1.06,1.06,0,0,1,.011,2.009,3.849,3.849,0,0,1-3.479,0,1.06,1.06,0,0,1-.011-2.009,3.843,3.843,0,0,1,3.479,0"/>
      <path id="Trazado_726778" data-name="Trazado 726778" d="M97.422,151.33a3.68,3.68,0,0,1-1.8-.429,1.172,1.172,0,0,1-.011-2.208,3.98,3.98,0,0,1,3.6,0,1.172,1.172,0,0,1,.011,2.208,3.663,3.663,0,0,1-1.8.429m-.016-2.839a3.431,3.431,0,0,0-1.679.4.949.949,0,0,0,.011,1.81,3.724,3.724,0,0,0,3.363,0,.949.949,0,0,0-.011-1.809,3.449,3.449,0,0,0-1.684-.4" fill="#fff"/>
      <path id="Trazado_726779" data-name="Trazado 726779" d="M97.625,109.808l-.533.309-.113,39.612.537.309.533-.309.109-38.383,10.444,6.011-.02,6.976.536.309.534-.309.021-7.591Z"/>
      <path id="Trazado_726780" data-name="Trazado 726780" d="M97.516,150.172l-.653-.376v-.067l.112-39.678.649-.376,12.164,7-.022,7.723-.648.376-.653-.376.02-6.976-10.213-5.877-.108,38.25Zm-.421-.509.421.242.418-.242.109-38.516,10.675,6.143-.02,6.976.42.242.418-.242.022-7.458-11.933-6.867-.418.242Z" fill="#fff"/>
      <path id="Trazado_726781" data-name="Trazado 726781" d="M34.438,127.982c0-.575,0-1.162.005-1.756v-.521c0-.152,0-.305,0-.458l0-1.052,0-1.106,0-1.191q0-.667,0-1.344v-.068c0-.216,0-.432,0-.649l.006-1.988c0-.159,0-.319,0-.478l.012-4.352q0-1.431.009-2.87l.008-2.878c0-1.462.008-2.916.012-4.351v-.479q0-1,.006-1.987l0-.662v-.044l0-1.356,0-1.189,0-1.108,0-1.05,0-.463c0-.171,0-.342,0-.512l.005-1.765v-.026c0-.011,0-.022,0-.032s0-.024,0-.035l0-.033c0-.011,0-.023-.007-.034l-.006-.033-.009-.034-.009-.032-.013-.035-.011-.031-.015-.035c0-.01-.009-.021-.015-.031s-.012-.023-.018-.034-.01-.021-.016-.031-.014-.023-.022-.034l-.019-.03c-.007-.011-.016-.022-.024-.034l-.022-.029-.027-.034-.024-.028-.031-.034-.026-.027-.035-.034-.027-.026-.039-.033-.029-.025-.044-.034-.03-.023-.053-.037-.026-.018-.084-.053a3.806,3.806,0,0,0-3.451-.035c-.031.017-.06.035-.089.053l-.028.018-.054.036-.032.023-.046.033-.03.025-.041.033-.03.026-.036.033-.028.028-.033.033-.025.029-.029.033-.023.03c-.009.011-.018.022-.026.034s-.014.02-.021.03l-.023.034-.018.031-.02.035-.015.031c-.006.012-.012.023-.017.035l-.013.032-.013.035a.3.3,0,0,0-.01.032c0,.012-.008.023-.011.035s-.005.022-.007.033a.359.359,0,0,0-.008.035l-.005.033,0,.035c0,.011,0,.022,0,.033s0,.024,0,.036v.008l-.031,10.726q0,.845-.005,1.7v.358q0,.869,0,1.743l-.01,3.678,0,1.032,0,.728c0,.153,0,.307,0,.46l-.007,2.481c0,.119,0,.238,0,.357l-.008,2.523q0,.74,0,1.471l0,1.761q0,.833,0,1.651l0,1.333,0,.884v.6c0,.118,0,.235,0,.352l-.006,1.846V128l0,.032c0,.012,0,.024,0,.035a.31.31,0,0,0,0,.032l.006.035a.3.3,0,0,0,.007.032.359.359,0,0,0,.009.035l.009.032.012.035.012.031c0,.012.01.023.015.035l.014.031.018.034.017.031.021.034.019.03.024.034a.317.317,0,0,1,.022.029l.028.034.023.028c.01.011.021.022.031.034l.026.027.035.034.028.026.039.033a.348.348,0,0,0,.029.025c.014.012.029.023.044.034l.029.023.054.037.025.018.085.053A3.806,3.806,0,0,0,33.7,129c.03-.017.06-.035.088-.053l.026-.017c.02-.012.039-.024.057-.037l.031-.022.046-.034.031-.025.041-.033.029-.026.037-.033.027-.028.033-.033.025-.029c.01-.011.021-.022.03-.033l.023-.03c.009-.011.018-.022.026-.034l.021-.03.022-.034c.007-.01.012-.021.018-.031s.014-.023.02-.035.01-.021.016-.031l.016-.035a.3.3,0,0,0,.013-.032c.005-.011.009-.023.014-.035l.01-.032.01-.035.008-.033c0-.011.005-.023.007-.035s0-.022.005-.033,0-.023,0-.035l0-.033,0-.036v-.012Z"/>
      <path id="Trazado_726782" data-name="Trazado 726782" d="M54.3,82.735c.012,15.893-16.16,27.016-30.833,20.959-.2-.081-.394-.166-.591-.253C8.373,96.976,5.155,78.156,15.567,67.1a6.32,6.32,0,0,0,1.579-5.639A15.31,15.31,0,0,1,32.094,43.008a14.744,14.744,0,0,1,7.974,2.4A15.51,15.51,0,0,1,46.6,62.059a5.031,5.031,0,0,0,1.283,4.747l.022.023A22.743,22.743,0,0,1,54.3,82.735" fill="#008b8a"/>
      <path id="Trazado_726783" data-name="Trazado 726783" d="M31.813,105.578a21.93,21.93,0,0,1-8.421-1.695c-.2-.081-.4-.167-.6-.255A22.576,22.576,0,0,1,9.72,87.247a22.992,22.992,0,0,1,5.7-20.282,6.118,6.118,0,0,0,1.528-5.457,15.554,15.554,0,0,1,3.245-13.1A15.131,15.131,0,0,1,40.18,45.24a15.82,15.82,0,0,1,5.952,7.293,15.374,15.374,0,0,1,.67,9.576,4.8,4.8,0,0,0,1.231,4.555c.007.007.018.018.027.029A22.938,22.938,0,0,1,34.4,105.425a22.112,22.112,0,0,1-2.588.153m.158-62.366a14.751,14.751,0,0,0-11.464,5.454,15.145,15.145,0,0,0-3.162,12.758,6.524,6.524,0,0,1-1.63,5.821,22.583,22.583,0,0,0-5.594,19.921,22.171,22.171,0,0,0,12.841,16.089c.195.086.39.17.586.25a21.591,21.591,0,0,0,20.563-2.114,22.571,22.571,0,0,0,3.652-34.419l-.02-.02a5.209,5.209,0,0,1-1.337-4.943,15.384,15.384,0,0,0-6.449-16.428,14.634,14.634,0,0,0-7.865-2.369h-.121"/>
      <path id="Trazado_726784" data-name="Trazado 726784" d="M54.3,82.735c.012,15.893-16.16,27.016-30.833,20.959,4.739-2.722,10.471-8.708,10.378-12.379-.116-4.6,11.725-13.855,7.458-19.212s-11.806-4.961-12-7.541,5.755-3.174,9.128-7.043,1.587-12.1,1.587-12.1l.052,0A15.51,15.51,0,0,1,46.6,62.059a5.031,5.031,0,0,0,1.283,4.747l.022.023A22.743,22.743,0,0,1,54.3,82.735"/>
      <path id="Trazado_726785" data-name="Trazado 726785" d="M153.64,89.888l3.888-2.26a3.55,3.55,0,0,1,3.579.351l-3.889,2.259a3.55,3.55,0,0,0-3.578-.35"/>
      <path id="Trazado_726786" data-name="Trazado 726786" d="M164.653,99.887l-3.888,2.26a3.525,3.525,0,0,0,1.467-3.226,11.051,11.051,0,0,0-5.013-8.683l3.888-2.259a11.046,11.046,0,0,1,5.013,8.682,3.519,3.519,0,0,1-1.467,3.226"/>
      <path id="Trazado_726787" data-name="Trazado 726787" d="M157.219,90.239a11.048,11.048,0,0,1,5.013,8.682c-.009,3.192-2.268,4.479-5.046,2.876a11.049,11.049,0,0,1-5.012-8.683c.009-3.191,2.268-4.479,5.045-2.875"/>
      <path id="Trazado_726788" data-name="Trazado 726788" d="M157.215,91.66a8.328,8.328,0,0,1,3.78,6.547c-.007,2.407-1.71,3.378-3.8,2.168a8.333,8.333,0,0,1-3.78-6.547c.007-2.406,1.711-3.377,3.8-2.168" fill="#fff"/>
      <path id="Trazado_726789" data-name="Trazado 726789" d="M121.039,71.351l3.888-2.26a3.55,3.55,0,0,1,3.579.351L124.617,71.7a3.55,3.55,0,0,0-3.578-.35"/>
      <path id="Trazado_726790" data-name="Trazado 726790" d="M132.051,81.35l-3.888,2.26a3.525,3.525,0,0,0,1.467-3.226,11.051,11.051,0,0,0-5.013-8.683l3.888-2.259a11.046,11.046,0,0,1,5.013,8.682,3.519,3.519,0,0,1-1.467,3.226"/>
      <path id="Trazado_726791" data-name="Trazado 726791" d="M124.617,71.7a11.048,11.048,0,0,1,5.013,8.682c-.009,3.192-2.268,4.479-5.046,2.876a11.05,11.05,0,0,1-5.012-8.683c.009-3.191,2.268-4.479,5.045-2.875"/>
      <path id="Trazado_726792" data-name="Trazado 726792" d="M124.613,73.123a8.328,8.328,0,0,1,3.78,6.547c-.007,2.407-1.71,3.378-3.805,2.168a8.333,8.333,0,0,1-3.78-6.547c.007-2.407,1.711-3.377,3.805-2.168" fill="#fff"/>
      <path id="Trazado_726793" data-name="Trazado 726793" d="M110.8,66.62l20.738-12.051.376.073L111.171,66.693Z" fill="#3076b6"/>
      <path id="Trazado_726794" data-name="Trazado 726794" d="M111.807,63.5l20.738-12.051.585-.047L112.393,63.459Z" fill="#3076b6"/>
      <path id="Trazado_726795" data-name="Trazado 726795" d="M112.731,59.145,133.31,47.186l6.349,2.225L118.922,61.462,112.746,59.3a.084.084,0,0,1-.015-.153" fill="#3076b6"/>
      <path id="Trazado_726796" data-name="Trazado 726796" d="M118.944,61.7l-6.27-2.2a.3.3,0,0,1-.052-.545l20.665-12.009,6.887,2.413Zm-5.857-2.511,5.812,2.036,20.245-11.765-5.812-2.036Z"/>
      <path id="Trazado_726797" data-name="Trazado 726797" d="M118.922,61.462,139.66,49.411l9.759.519a.07.07,0,0,1,.031.13L128.915,61.993Z" fill="#3076b6"/>
      <path id="Trazado_726798" data-name="Trazado 726798" d="M128.95,62.142l-10.529-.56,21.2-12.321,9.8.521a.216.216,0,0,1,.2.166.214.214,0,0,1-.1.238Zm-9.528-.8,9.456.5,20.273-11.782-9.456-.5Z"/>
      <path id="Trazado_726799" data-name="Trazado 726799" d="M128.914,61.993l20.625-11.986a.224.224,0,0,1,.225,0L165.013,59a.114.114,0,0,1,0,.2l-20.57,11.953Z" fill="#3076b6"/>
      <path id="Trazado_726800" data-name="Trazado 726800" d="M144.443,71.4l-15.957-9.411L149.431,49.82a.439.439,0,0,1,.443,0l15.25,8.993a.331.331,0,0,1,0,.57Zm-15.1-9.408,15.1,8.906,20.309-11.8-15.1-8.9Z"/>
      <path id="Trazado_726801" data-name="Trazado 726801" d="M144.443,71.152l20.585-11.963a.2.2,0,0,1,.26.052l9.079,11.866L153.629,83.158Z" fill="#3076b6"/>
      <path id="Trazado_726802" data-name="Trazado 726802" d="M153.574,83.441l-9.452-12.353L164.92,59a.418.418,0,0,1,.541.108l9.228,12.061Zm-8.809-12.226,8.921,11.66,20.36-11.832-8.921-11.66Z"/>
      <path id="Trazado_726803" data-name="Trazado 726803" d="M167.327,97l20.738-12.051.43.473a.035.035,0,0,1-.009.053l-20.7,12.03Z" fill="#3076b6"/>
      <path id="Trazado_726804" data-name="Trazado 726804" d="M167.743,97.781l-.757-.833,21.121-12.274.548.6a.249.249,0,0,1,.062.207.253.253,0,0,1-.122.179Zm-.076-.728.161.177L188.183,85.4l-.161-.177Z"/>
      <path id="Trazado_726805" data-name="Trazado 726805" d="M167.785,97.5l20.58-11.96a.1.1,0,0,1,.148.091l-.211,4.158-20.581,11.961a.1.1,0,0,1-.148-.09Z" fill="#3076b6"/>
      <path id="Trazado_726806" data-name="Trazado 726806" d="M167.671,101.915a.242.242,0,0,1-.127-.036.247.247,0,0,1-.118-.222l.216-4.239,20.649-12a.246.246,0,0,1,.37.225l-.216,4.238-20.65,12a.25.25,0,0,1-.124.033m.257-4.323-.2,3.99,20.434-11.875.2-3.99Z"/>
      <path id="Trazado_726807" data-name="Trazado 726807" d="M128.914,61.993l15.529,9.158,9.186,12.007,12.538,10L167.326,97l.459.5-.207,4.051a.222.222,0,0,1-.29.2l-5.072-1.653c-.006-.358-.122-7.162-4.46-9.667-.071-.042-.142-.081-.216-.12-5.2-2.725-5.151,2.7-5.071,3.944L130.426,81.533c-.03-.358-.606-7.173-5.031-9.776-5.305-3.063-5.619,3.489-5.635,3.834l-8.97-7.148,0-1.824.376.073.636-3.188.586-.046.169-3.98a.178.178,0,0,1,.238-.161l6.121,2.145Z" fill="#3076b6"/>
      <path id="Trazado_726808" data-name="Trazado 726808" d="M167.358,101.983a.46.46,0,0,1-.137-.021l-5.218-1.7,0-.155c-.012-.72-.239-7.109-4.352-9.484-.068-.04-.138-.078-.208-.115-1.528-.8-2.706-.945-3.5-.428-1.354.879-1.3,3.411-1.253,4.166l.026.4L130.22,81.664l-.009-.112c-.061-.723-.718-7.133-4.926-9.608-1.425-.823-2.591-1-3.466-.521-1.639.9-1.827,3.845-1.843,4.179l-.02.422-9.383-7.477.006-2.19.422.082.626-3.138.558-.044.16-3.788a.4.4,0,0,1,.527-.357l6.092,2.135,10.014.533.046.027,15.566,9.179L153.785,83l12.569,10.027,1.166,3.858.486.536-.211,4.141a.439.439,0,0,1-.437.416m-4.929-2.038,4.926,1.605.209-3.966-.431-.475-1.154-3.823L153.474,83.31,144.3,71.316l-15.447-9.11-9.971-.53-6.1-2.138-.175,4.121-.613.048-.647,3.239-.33-.064,0,1.456,8.568,6.829c.1-1.023.5-3.286,2.037-4.124,1.016-.554,2.325-.377,3.891.527,4.226,2.485,5.018,8.691,5.129,9.832l21.6,12.473c-.022-1.086.113-3.28,1.466-4.159.938-.608,2.262-.471,3.939.409.076.04.15.08.224.123,4.1,2.37,4.521,8.455,4.564,9.7"/>
      <path id="Trazado_726809" data-name="Trazado 726809" d="M186.9,81.108l-12.537-10L153.629,83.158l12.537,10L167.326,97l20.738-12.051Z" fill="#3076b6"/>
      <path id="Trazado_726810" data-name="Trazado 726810" d="M167.2,97.325l-1.219-4.039L153.247,83.13l21.14-12.285L187.092,80.98l1.229,4.07ZM154.012,83.186l12.342,9.846,1.1,3.643,20.352-11.828-1.09-3.612-12.369-9.867Z"/>
      <path id="Trazado_726811" data-name="Trazado 726811" d="M135.679,67.064l-.4,6.121L123.375,66.1l-1.7-2.9,7.363-.027Z" fill="#fff"/>
      <path id="Trazado_726812" data-name="Trazado 726812" d="M143.314,71.772l5.985,9.08-1.068.177-11.772-7.172.105-6.145Z" fill="#fff"/>
      <path id="Trazado_726813" data-name="Trazado 726813" d="M146.053,71.084l7.827,11.122L173,70.966l-8.238-10.71Z" fill="#fff"/>
      <rect id="Rectángulo_350160" data-name="Rectángulo 350160" width="0.433" height="11.027" transform="translate(111.021 66.84) rotate(-51.432)"/>
      <path id="Trazado_726814" data-name="Trazado 726814" d="M123.4,77.85l.261.452-1.051,1.144-.664-1.149Z"/>
      <path id="Trazado_726815" data-name="Trazado 726815" d="M124.662,79.229l.33,2.281-.941-.544.241-1.951Z"/>
      <path id="Trazado_726816" data-name="Trazado 726816" d="M121.355,75.21l1.815,1.319v.425l-1.817-.662Z"/>
      <path id="Trazado_726817" data-name="Trazado 726817" d="M124.526,73.5a7.769,7.769,0,0,1,3.52,6.1c-.007,2.238-1.6,3.143-3.543,2.019a7.766,7.766,0,0,1-3.519-6.1c.006-2.237,1.6-3.143,3.542-2.019m-.022,7.922c1.854,1.07,3.368.208,3.374-1.923a7.4,7.4,0,0,0-3.352-5.805c-1.854-1.071-3.368-.209-3.374,1.922a7.4,7.4,0,0,0,3.352,5.806"/>
      <path id="Trazado_726818" data-name="Trazado 726818" d="M125.587,79.194l1.518,2.081-.668.381-1.113-2.312Z"/>
      <path id="Trazado_726819" data-name="Trazado 726819" d="M122.626,73.516l1.113,2.312-.263.15L121.958,73.9Z"/>
      <path id="Trazado_726820" data-name="Trazado 726820" d="M124.518,76.186a2.624,2.624,0,0,1,1.19,2.061c0,.756-.539,1.062-1.2.682a2.628,2.628,0,0,1-1.19-2.061c0-.756.54-1.062,1.2-.682m-.007,2.55c.565.326,1.027.064,1.029-.586a2.257,2.257,0,0,0-1.022-1.771c-.566-.327-1.028-.064-1.029.586a2.255,2.255,0,0,0,1.022,1.771"/>
      <path id="Trazado_726821" data-name="Trazado 726821" d="M125.013,74.206l-.241,1.951-.37-.214-.331-2.281Z"/>
      <path id="Trazado_726822" data-name="Trazado 726822" d="M126.454,75.727l.664,1.15-1.455.446-.26-.451Z"/>
      <path id="Trazado_726823" data-name="Trazado 726823" d="M127.711,78.88l0,1.082-1.815-1.319v-.425Z"/>
      <path id="Trazado_726824" data-name="Trazado 726824" d="M156,96.387l.261.452-1.051,1.144-.664-1.149Z"/>
      <path id="Trazado_726825" data-name="Trazado 726825" d="M157.263,97.766l.33,2.281-.941-.544.241-1.951Z"/>
      <path id="Trazado_726826" data-name="Trazado 726826" d="M153.956,93.747l1.815,1.319v.425l-1.817-.662Z"/>
      <path id="Trazado_726827" data-name="Trazado 726827" d="M157.127,92.036a7.769,7.769,0,0,1,3.52,6.1c-.007,2.238-1.6,3.143-3.543,2.019a7.766,7.766,0,0,1-3.519-6.1c.006-2.237,1.595-3.143,3.542-2.019m-.022,7.922c1.854,1.07,3.368.208,3.374-1.923a7.4,7.4,0,0,0-3.352-5.805c-1.854-1.071-3.368-.209-3.374,1.922a7.4,7.4,0,0,0,3.352,5.806"/>
      <path id="Trazado_726828" data-name="Trazado 726828" d="M158.189,97.731l1.518,2.081-.668.381-1.113-2.312Z"/>
      <path id="Trazado_726829" data-name="Trazado 726829" d="M155.227,92.053l1.113,2.312-.263.15-1.518-2.081Z"/>
      <path id="Trazado_726830" data-name="Trazado 726830" d="M157.12,94.723a2.624,2.624,0,0,1,1.19,2.061c0,.756-.539,1.062-1.2.682a2.628,2.628,0,0,1-1.19-2.061c0-.756.54-1.062,1.2-.682m-.007,2.55c.565.326,1.027.064,1.029-.586a2.257,2.257,0,0,0-1.022-1.771c-.566-.327-1.028-.064-1.029.586a2.255,2.255,0,0,0,1.022,1.771"/>
      <path id="Trazado_726831" data-name="Trazado 726831" d="M157.614,92.743l-.241,1.951-.37-.214-.331-2.281Z"/>
      <path id="Trazado_726832" data-name="Trazado 726832" d="M159.056,94.264l.664,1.15-1.455.446-.26-.451Z"/>
      <path id="Trazado_726833" data-name="Trazado 726833" d="M160.312,97.417l0,1.082-1.815-1.319v-.425Z"/>
      <path id="Trazado_726834" data-name="Trazado 726834" d="M135.681,84.43l-.433-.012.29-10.515.311-7.7.433.018-.311,7.7Z"/>
      <path id="Trazado_726835" data-name="Trazado 726835" d="M150.653,92.907l-.431-.039a6.089,6.089,0,0,1,3.005-5.122l.172-4.577.433.017-.182,4.845-.127.054c-.1.044-2.534,1.124-2.87,4.822"/>
      <path id="Trazado_726836" data-name="Trazado 726836" d="M131.249,78.433c-.015-.062-1.582-6.2-5.279-8.249A5.408,5.408,0,0,0,122,69.313a1.978,1.978,0,0,0-1.179.869l-.122.235-.207-.165-8.239-6.65.273-.337,8.054,6.5a2.528,2.528,0,0,1,1.279-.863c1.147-.353,2.6-.049,4.317.9,3.864,2.139,5.426,8.263,5.49,8.522Z"/>
      <path id="Trazado_726837" data-name="Trazado 726837" d="M163.795,100.664c-.295-4.794-1.706-8.3-4.195-10.429a9.016,9.016,0,0,0-6.141-2.134l-.042-.431a9.282,9.282,0,0,1,6.458,2.23c2.585,2.2,4.05,5.817,4.352,10.737Z"/>
      <path id="Trazado_726838" data-name="Trazado 726838" d="M183.569,89.6l0,1.919-8.892,5.134-.005-1.919Z" fill="#fff"/>
      <path id="Trazado_726839" data-name="Trazado 726839" d="M174.4,89.519,175,90.725l-6.647,3.838-.592-1.207Z" fill="#ffa031"/>
      <path id="Trazado_726840" data-name="Trazado 726840" d="M186.507,82.355l.389,1.319-5.361,3.1-.388-1.319Z" fill="#ffa031"/>
      <path id="Trazado_726841" data-name="Trazado 726841" d="M121.822,60.684l7.166.219,17.948-10.357-7.473-.412Z" fill="#fff"/>
      <path id="Trazado_726842" data-name="Trazado 726842" d="M147.792,197.044c.018-10.212.041-23.448.061-34.337v-.419c0-.14,0-.28,0-.419v-.61l0-.8q0-.6,0-1.187v-.571l0-.01-.005-.01-.006-.01-.009-.01,0,0-.007,0,0,0-.009-.007,0,0-.015-.009a1.617,1.617,0,0,0-.861-.088l-.038.006-.009,0-.03.005h-.006l-.033.007-.007,0-.025.006-.007,0-.029.008-.027.009-.007,0-.024.009-.021.01-.006,0-.016.008-.02.012-.016.011a.071.071,0,0,0-.015.014l-.01.011-.009.014,0,.012,0,.013-.068,38.33,1.288,0"/>
      <path id="Trazado_726843" data-name="Trazado 726843" d="M147.7,197.033l.061-34.327h0l.007-3.98-.023-.017a1.543,1.543,0,0,0-.8-.076l-.194.044-.085.041-.005,0v.005l-.068,38.311Z"/>
      <path id="Trazado_726844" data-name="Trazado 726844" d="M147.866,197.033h-.325l.068-38.207a1.666,1.666,0,0,0-.634-.032l-.151.034-.068,38.2h-.325l.069-38.594.172.1.044-.016.207-.046a1.675,1.675,0,0,1,.909.1l.038.028.064.048-.007,4.061h0Z" fill="#fff"/>
      <path id="Trazado_726845" data-name="Trazado 726845" d="M146.642,158.713h.016l-.07-.04Z" fill="#fff"/>
      <path id="Trazado_726846" data-name="Trazado 726846" d="M147.183,161.954l-.974-.566a.61.61,0,0,1-.15-.126l.974.565a.576.576,0,0,0,.15.127" fill="#3076b6"/>
      <path id="Trazado_726847" data-name="Trazado 726847" d="M147.591,160.762l-.974-.566a.412.412,0,0,0,.412-.041,1.247,1.247,0,0,0,.485-.584l.973.566a1.228,1.228,0,0,1-.485.583.413.413,0,0,1-.411.042" fill="#3076b6"/>
      <path id="Trazado_726848" data-name="Trazado 726848" d="M147.591,160.762l-.974-.566a.292.292,0,0,1-.074-.063l.973.566a.314.314,0,0,0,.075.063" fill="#fff"/>
      <path id="Trazado_726849" data-name="Trazado 726849" d="M148.487,160.136l-.974-.566L153,146.644l.973.566Z" fill="#3076b6"/>
      <path id="Trazado_726850" data-name="Trazado 726850" d="M153,146.645c.159-.375.1-.685-.078-.79l.974.565c.181.106.237.415.078.791l-.974-.566" fill="#3076b6"/>
      <path id="Trazado_726851" data-name="Trazado 726851" d="M152.921,145.854l.974.566a.4.4,0,0,0-.411.042l-.974-.566a.4.4,0,0,1,.411-.042" fill="#fff"/>
      <path id="Trazado_726852" data-name="Trazado 726852" d="M153.809,144.509l.974.566a.815.815,0,0,0-.826.084l-.973-.566a.813.813,0,0,1,.825-.084"/>
      <path id="Trazado_726853" data-name="Trazado 726853" d="M142.419,152.85l-.974-.566L152.51,145.9l.973.566Z" fill="#fff"/>
      <path id="Trazado_726854" data-name="Trazado 726854" d="M141.938,154.161l-.974-.566c-.253-.3.021-1.045.482-1.311l.974.566c-.461.266-.736,1.014-.482,1.311" fill="#fff"/>
      <path id="Trazado_726855" data-name="Trazado 726855" d="M153.958,145.16c.924-.534,1.483.323.982,1.5L148.983,160.7a2.481,2.481,0,0,1-.974,1.172.735.735,0,0,1-.976-.043l-6.058-7.1c-.509-.6.043-2.1.968-2.633Zm.015,2.051c.25-.588-.029-1.014-.489-.749L142.42,152.85c-.461.266-.736,1.014-.482,1.311l5.579,6.538a.366.366,0,0,0,.486.021,1.234,1.234,0,0,0,.485-.583Z" fill="#3076b6"/>
      <path id="Trazado_726856" data-name="Trazado 726856" d="M147.516,160.7l-.974-.566-5.578-6.537.974.565Z" fill="#3076b6"/>
      <path id="Trazado_726857" data-name="Trazado 726857" d="M153.484,146.462c.46-.266.738.161.489.749l-5.485,12.925a1.242,1.242,0,0,1-.485.584.366.366,0,0,1-.486-.022l-5.579-6.537c-.254-.3.021-1.045.482-1.311Z" fill="#fff"/>
      <path id="Trazado_726858" data-name="Trazado 726858" d="M140,154.163l6.058,7.1.974.566-6.058-7.1c-.51-.6.042-2.1.967-2.633l12.015-6.937-.973-.565-12.015,6.936c-.925.535-1.478,2.036-.968,2.633h0" fill="#fff"/>
      <path id="Trazado_726859" data-name="Trazado 726859" d="M287.859,151.056l3.494-2.031a3.19,3.19,0,0,1,3.216.315l-3.494,2.031a3.188,3.188,0,0,0-3.216-.315"/>
      <path id="Trazado_726860" data-name="Trazado 726860" d="M297.755,160.042l-3.494,2.031a3.165,3.165,0,0,0,1.318-2.9,9.925,9.925,0,0,0-4.505-7.8l3.495-2.031a9.927,9.927,0,0,1,4.5,7.8,3.164,3.164,0,0,1-1.318,2.9"/>
      <path id="Trazado_726861" data-name="Trazado 726861" d="M291.074,151.371a9.928,9.928,0,0,1,4.505,7.8c-.008,2.868-2.038,4.025-4.534,2.584a9.928,9.928,0,0,1-4.505-7.8c.008-2.868,2.038-4.025,4.534-2.584"/>
      <path id="Trazado_726862" data-name="Trazado 726862" d="M291.071,152.648a7.488,7.488,0,0,1,3.4,5.883c-.006,2.163-1.537,3.035-3.419,1.949a7.488,7.488,0,0,1-3.4-5.884c.006-2.162,1.537-3.035,3.419-1.948" fill="#fff"/>
      <path id="Trazado_726863" data-name="Trazado 726863" d="M289.98,156.9l.234.406-.944,1.028-.6-1.033Z"/>
      <path id="Trazado_726864" data-name="Trazado 726864" d="M291.114,158.135l.3,2.05-.846-.489.217-1.753Z"/>
      <path id="Trazado_726865" data-name="Trazado 726865" d="M288.143,154.524l1.631,1.185v.382l-1.633-.6Z"/>
      <path id="Trazado_726866" data-name="Trazado 726866" d="M290.992,152.986a6.983,6.983,0,0,1,3.163,5.478c-.006,2.011-1.434,2.825-3.182,1.815a6.98,6.98,0,0,1-3.164-5.478c.005-2.011,1.434-2.825,3.183-1.815m-.019,7.119c1.665.962,3.025.187,3.031-1.728a6.649,6.649,0,0,0-3.012-5.217c-1.666-.962-3.027-.187-3.032,1.728a6.645,6.645,0,0,0,3.013,5.217"/>
      <path id="Trazado_726867" data-name="Trazado 726867" d="M291.946,158.1l1.364,1.87-.6.342-1-2.077Z"/>
      <path id="Trazado_726868" data-name="Trazado 726868" d="M289.285,153l1,2.078-.236.134-1.364-1.87Z"/>
      <path id="Trazado_726869" data-name="Trazado 726869" d="M290.986,155.4a2.361,2.361,0,0,1,1.069,1.852c0,.68-.485.955-1.076.614a2.361,2.361,0,0,1-1.07-1.853c0-.679.485-.954,1.077-.613m-.007,2.292c.508.293.923.057.925-.527a2.029,2.029,0,0,0-.919-1.591c-.508-.294-.923-.057-.925.527a2.029,2.029,0,0,0,.919,1.591"/>
      <path id="Trazado_726870" data-name="Trazado 726870" d="M291.43,153.622l-.217,1.753-.332-.192-.3-2.05Z"/>
      <path id="Trazado_726871" data-name="Trazado 726871" d="M292.725,154.988l.6,1.033-1.306.4-.235-.406Z"/>
      <path id="Trazado_726872" data-name="Trazado 726872" d="M293.854,157.822l0,.972-1.631-1.185v-.382Z"/>
      <path id="Trazado_726873" data-name="Trazado 726873" d="M252.958,130.7l3.494-2.031a3.19,3.19,0,0,1,3.216.315l-3.494,2.031a3.188,3.188,0,0,0-3.216-.315"/>
      <path id="Trazado_726874" data-name="Trazado 726874" d="M262.854,139.683l-3.494,2.031a3.165,3.165,0,0,0,1.318-2.9,9.925,9.925,0,0,0-4.505-7.8l3.495-2.031a9.927,9.927,0,0,1,4.5,7.8,3.164,3.164,0,0,1-1.318,2.9"/>
      <path id="Trazado_726875" data-name="Trazado 726875" d="M256.173,131.012a9.928,9.928,0,0,1,4.505,7.8c-.008,2.868-2.038,4.025-4.534,2.584a9.928,9.928,0,0,1-4.505-7.8c.008-2.868,2.038-4.025,4.534-2.584"/>
      <path id="Trazado_726876" data-name="Trazado 726876" d="M256.17,132.289a7.488,7.488,0,0,1,3.4,5.883c-.006,2.163-1.537,3.035-3.419,1.949a7.488,7.488,0,0,1-3.4-5.884c.006-2.162,1.537-3.035,3.419-1.948" fill="#fff"/>
      <path id="Trazado_726877" data-name="Trazado 726877" d="M255.079,136.537l.235.406-.945,1.028-.6-1.033Z"/>
      <path id="Trazado_726878" data-name="Trazado 726878" d="M256.213,137.776l.3,2.05-.846-.489.217-1.753Z"/>
      <path id="Trazado_726879" data-name="Trazado 726879" d="M253.242,134.165l1.631,1.185v.382l-1.633-.6Z"/>
      <path id="Trazado_726880" data-name="Trazado 726880" d="M256.091,132.627a6.983,6.983,0,0,1,3.163,5.478c-.006,2.011-1.434,2.825-3.183,1.815a6.979,6.979,0,0,1-3.163-5.478c0-2.011,1.434-2.825,3.183-1.815m-.02,7.119c1.666.962,3.026.187,3.032-1.728a6.649,6.649,0,0,0-3.012-5.217c-1.667-.962-3.027-.187-3.032,1.728a6.649,6.649,0,0,0,3.012,5.217"/>
      <path id="Trazado_726881" data-name="Trazado 726881" d="M257.045,137.745l1.364,1.87-.6.342-1-2.077Z"/>
      <path id="Trazado_726882" data-name="Trazado 726882" d="M254.384,132.643l1,2.078-.236.134-1.364-1.87Z"/>
      <path id="Trazado_726883" data-name="Trazado 726883" d="M256.085,135.041a2.361,2.361,0,0,1,1.069,1.852c0,.68-.485.955-1.076.614a2.361,2.361,0,0,1-1.07-1.853c0-.679.485-.954,1.077-.613m-.007,2.292c.508.293.923.057.925-.527a2.029,2.029,0,0,0-.919-1.591c-.508-.294-.923-.057-.925.527a2.029,2.029,0,0,0,.919,1.591"/>
      <path id="Trazado_726884" data-name="Trazado 726884" d="M256.529,133.263l-.217,1.753-.332-.192-.3-2.05Z"/>
      <path id="Trazado_726885" data-name="Trazado 726885" d="M257.824,134.629l.6,1.033-1.306.4-.235-.4Z"/>
      <path id="Trazado_726886" data-name="Trazado 726886" d="M258.953,137.463l0,.972-1.631-1.185v-.382Z"/>
      <path id="Trazado_726887" data-name="Trazado 726887" d="M242.94,124.8,264.6,112.216l.585-.076-21.817,12.679-.4.052a.037.037,0,0,1-.023-.068" fill="#3076b6"/>
      <path id="Trazado_726888" data-name="Trazado 726888" d="M242.958,124.955a.121.121,0,0,1-.06-.225l21.674-12.6,1.015-.131L243.4,124.9l-.421.054h-.016M264.627,112.3l-21.441,12.46.154-.02,21.441-12.46Z"/>
      <path id="Trazado_726889" data-name="Trazado 726889" d="M243.02,120.025l21.772-12.653.585-.127L243.56,119.923l-.534.117a.008.008,0,0,1-.006-.015" fill="#3076b6"/>
      <path id="Trazado_726890" data-name="Trazado 726890" d="M243.023,120.124a.092.092,0,0,1-.046-.172l21.784-12.66,1.121-.244L243.578,120l-.535.116a.065.065,0,0,1-.02,0m21.8-12.673-21.342,12.4.048-.011,21.342-12.4Z"/>
      <path id="Trazado_726891" data-name="Trazado 726891" d="M243.425,115.572l20.861-12.123a1.874,1.874,0,0,1,1.6-.136c1.549.575,4.546,1.87,4.756,1.962l-21.817,12.678c-.241-.105-4.263-1.863-5.375-2.19a.1.1,0,0,1-.023-.191" fill="#ffa031"/>
      <path id="Trazado_726892" data-name="Trazado 726892" d="M248.837,118.2l-.1-.044c-.439-.192-4.286-1.869-5.349-2.181a.321.321,0,0,1-.071-.586l20.862-12.123a2.086,2.086,0,0,1,1.782-.152c1.62.6,4.736,1.953,4.766,1.966l.392.171Zm-5.086-2.563c1.233.419,4.223,1.714,5.058,2.078l21.35-12.408c-.891-.382-3.083-1.316-4.35-1.787a1.657,1.657,0,0,0-1.414.12Z"/>
      <path id="Trazado_726893" data-name="Trazado 726893" d="M248.822,117.954l21.817-12.679,7.6-.86a.036.036,0,0,1,.022.068L256.6,117.074Z" fill="#ffa031"/>
      <path id="Trazado_726894" data-name="Trazado 726894" d="M247.822,118.285l22.748-13.22,7.646-.866a.254.254,0,0,1,.156.471l-21.705,12.614-.045.005Zm22.887-12.8-20.885,12.137,6.7-.759,20.885-12.137Z"/>
      <path id="Trazado_726895" data-name="Trazado 726895" d="M294.344,112.525c-4.731-2.73-15.37-7.86-15.93-8.13L256.6,117.074c.56.27,11.2,5.4,15.93,8.129.473.274.881.521,1.207.732l21.817-12.678c-.326-.212-.734-.458-1.207-.732" fill="#ffa031"/>
      <path id="Trazado_726896" data-name="Trazado 726896" d="M273.728,126.189l-.112-.072c-.312-.2-.715-.447-1.2-.725-4.6-2.654-14.771-7.571-15.916-8.123l-.368-.178L278.4,104.15l.1.05c1.149.554,11.345,5.482,15.945,8.138.489.282.9.53,1.216.737l.3.192Zm-16.67-9.133c2.175,1.052,11.29,5.485,15.577,7.961.433.25.8.473,1.1.664l21.393-12.433q-.385-.239-.9-.535c-4.472-2.582-14.266-7.326-15.812-8.073Z"/>
      <path id="Trazado_726897" data-name="Trazado 726897" d="M323.635,143.306c-.223-.542-3.325-5.57-3.488-5.834-.594-.459-11.879-9.182-12.238-9.647s-11.758-13.864-12.358-14.569l-21.817,12.679c-.326-.212-.734-.458-1.207-.731-4.73-2.731-15.37-7.861-15.93-8.131l-7.775.88c-.276-.12-5.519-2.412-5.654-2.232a37.52,37.52,0,0,0,.392,4.2l-.584.127.391,4.769-.585.075.756,2.708,7.756,6.078.487.285c.022-2.957,2.125-4.146,4.708-2.654a10.317,10.317,0,0,1,4.678,8.151l25.6,14.992c0-.087-.005-.174-.005-.261.009-2.978,2.117-4.18,4.709-2.683a10.309,10.309,0,0,1,4.678,8.1c0,.073,0,.144,0,.215,0,0,5.52,2.413,5.524,2.357,0,.056,9.445-3.308,9.445-3.308l9.1-5.5,3.259-3.757a53.585,53.585,0,0,0,.153-6.313" fill="#ffa031"/>
      <path id="Trazado_726898" data-name="Trazado 726898" d="M301.7,162.4a.189.189,0,0,1-.032,0,.137.137,0,0,1-.1-.023c-.266-.079-.919-.361-2.759-1.156-1.375-.594-2.742-1.192-2.742-1.192l-.135-.059.005-.147c0-.068,0-.137.005-.207a10.089,10.089,0,0,0-4.57-7.916,3.115,3.115,0,0,0-3.116-.331,3.079,3.079,0,0,0-1.269,2.828c0,.083,0,.167.005.252l.015.4L260.95,139.585v-.124a10.127,10.127,0,0,0-4.569-7.963,3.12,3.12,0,0,0-3.111-.334,3.063,3.063,0,0,0-1.273,2.8l0,.375-.834-.491-7.811-6.122-.843-3.018.628-.081-.39-4.751.575-.125c-.509-3.918-.389-4.077-.324-4.163.127-.169.185-.246,3,.921,1.208.5,2.444,1.037,2.862,1.22l7.779-.881.056.027c1.146.553,11.335,5.477,15.944,8.138.434.25.8.473,1.1.665l21.858-12.7.118.138c1.228,1.443,12.01,14.117,12.365,14.577.283.343,6.329,5.071,12.2,9.605l.031.024.024.036c.335.543,3.278,5.318,3.5,5.866a43.919,43.919,0,0,1-.137,6.409l-.005.073-3.33,3.837-.029.018-9.123,5.512-.021.008s-2.349.836-4.705,1.668c-1.367.483-2.459.867-3.245,1.14-.882.306-1.275.443-1.468.489a.136.136,0,0,1-.075.021m-.026-.214.142-.164a.216.216,0,0,0-.11-.05l.011,0a.2.2,0,0,0-.06-.005l-.016,0,.007,0a.223.223,0,0,0-.1.038Zm-5.3-2.5c2,.873,4.891,2.125,5.307,2.274.566-.167,5.829-2.029,9.348-3.282l9.057-5.472,3.189-3.676a45.838,45.838,0,0,0,.164-6.143c-.171-.418-2.32-3.937-3.451-5.77-2.83-2.188-11.9-9.212-12.245-9.661s-10.921-12.879-12.235-14.424l-21.775,12.655-.112-.073c-.312-.2-.715-.446-1.2-.725-4.528-2.614-14.473-7.426-15.86-8.1l-7.77.879-.054-.023c-2.66-1.162-4.757-2.015-5.375-2.191.007.564.2,2.307.415,3.933l.025.2-.593.129.392,4.786-.541.07.67,2.4,7.688,6.025.162.095a3.3,3.3,0,0,1,1.477-2.808,3.521,3.521,0,0,1,3.542.335,10.637,10.637,0,0,1,4.786,8.214l25.168,14.737a3.43,3.43,0,0,1,1.484-3.084,3.521,3.521,0,0,1,3.548.332,10.569,10.569,0,0,1,4.787,8.292c0,.025,0,.049,0,.074"/>
      <path id="Trazado_726899" data-name="Trazado 726899" d="M267.538,123.61l-.774,6.615-16.416-9.478-.114-2.17,5.858-.273Z" fill="#fff"/>
      <path id="Trazado_726900" data-name="Trazado 726900" d="M273.28,127.05l7.922,10.884-1.239.387-11.952-7.352.542-6.6Z" fill="#fff"/>
      <path id="Trazado_726901" data-name="Trazado 726901" d="M275.632,126.268l10.116,12.519s12.835-1.2,20.612-11.824l-10.748-12.708s-12.33,9.357-19.98,12.013" fill="#f6f6f6"/>
      <path id="Trazado_726902" data-name="Trazado 726902" d="M301.955,159.564l-4.7-1.192-.025-.137c-.716-4-3.8-7.647-7.174-8.49a2.813,2.813,0,0,0-3.9,2.4l-.033.329-.289-.163L262.69,139.227l.214-.377,22.873,12.937a3.5,3.5,0,0,1,1.308-2.1,3.643,3.643,0,0,1,3.078-.361c3.49.873,6.68,4.6,7.47,8.7l3.9.989.071-3.173,7-2.846,11.867-6.95,3.015-2.891.3.312-3.052,2.927-.022.013L308.8,153.381l-.015.005-6.749,2.745Z"/>
      <path id="Trazado_726903" data-name="Trazado 726903" d="M301.5,150.385a1.144,1.144,0,0,1,.243-.1q2.477-.744,4.934-1.677a.753.753,0,0,1,1.02.326l.246.653a.908.908,0,0,1-.5,1.029q-.037.023-.078.042-2.457,1.2-4.984,2.22c-.489.2-.973.034-1.076-.36s-.2-.769-.307-1.154a.929.929,0,0,1,.506-.974" fill="#fff"/>
      <path id="Trazado_726904" data-name="Trazado 726904" d="M320.011,139.7a.773.773,0,0,1,.971.08l.714.836a.762.762,0,0,1-.248,1.063q-1.974,1.551-4.051,2.956c-.022.015-.045.03-.067.043a.76.76,0,0,1-1.013-.11l-.37-.531a.77.77,0,0,1,.247-1q1.877-1.536,3.621-3.19a1.085,1.085,0,0,1,.2-.146" fill="#fff"/>
      <path id="Trazado_726905" data-name="Trazado 726905" d="M319.833,148.429l.009,3.17-8.966,5.176-.009-3.17Z" fill="#fff"/>
      <path id="Trazado_726906" data-name="Trazado 726906" d="M250.971,130.741l-7.733-5.748.258-.348,7.733,5.748Z"/>
      <path id="Trazado_726907" data-name="Trazado 726907" d="M262.58,139.045a12.289,12.289,0,0,0-.907-3.836,11.353,11.353,0,0,0-5.734-6.09c-1.977-.932-3.549-.364-4.671,1.688l-.38-.208c.861-1.574,2.468-3.176,5.235-1.872a11.775,11.775,0,0,1,5.957,6.334,12.484,12.484,0,0,1,.933,3.972Z"/>
      <path id="Trazado_726908" data-name="Trazado 726908" d="M267,141.325l-.433-.018.445-10.515,1.011-7.84.43.056-1.011,7.831Z"/>
      <path id="Trazado_726909" data-name="Trazado 726909" d="M256.249,127.914l-4.446-2.288-8.362-5.523.239-.361,8.352,5.516,4.415,2.271Z"/>
      <path id="Trazado_726910" data-name="Trazado 726910" d="M284.078,151.256l-.755-11.509-9.765-13.687.353-.251,9.836,13.787.763,11.632Z"/>
      <rect id="Rectángulo_350161" data-name="Rectángulo 350161" width="0.433" height="13.375" transform="matrix(0.617, -0.787, 0.787, 0.617, 286.247, 141.486)"/>
      <path id="Trazado_726911" data-name="Trazado 726911" d="M251.053,117.084l5.264-.664,19.963-11.238-5.927.758Z" fill="#fff"/>
      <path id="Trazado_726912" data-name="Trazado 726912" d="M39.033,123.789c4.139,2.389,4.161,6.277.049,8.667a16.514,16.514,0,0,1-14.964,0c-4.139-2.389-4.161-6.278-.049-8.668a16.514,16.514,0,0,1,14.964,0m-14.457,8.4a15.5,15.5,0,0,0,14.045,0c3.86-2.243,3.839-5.893-.046-8.136a15.5,15.5,0,0,0-14.045,0c-3.86,2.243-3.839,5.892.046,8.135"/>
      <path id="Trazado_726913" data-name="Trazado 726913" d="M105.046,162.9c4.139,2.389,4.161,6.277.049,8.667a16.511,16.511,0,0,1-14.964,0c-4.139-2.389-4.161-6.278-.049-8.668a16.514,16.514,0,0,1,14.964,0m-14.457,8.4a15.5,15.5,0,0,0,14.045,0c3.86-2.243,3.839-5.893-.046-8.136a15.5,15.5,0,0,0-14.045,0c-3.86,2.243-3.839,5.892.046,8.135"/>
      <path id="Trazado_726914" data-name="Trazado 726914" d="M188.12,43.673c-.794-.478-.767-1.239.061-1.7a3.233,3.233,0,0,1,2.935.029c.794.478.767,1.239-.061,1.7a3.233,3.233,0,0,1-2.935-.03"/>
      <path id="Trazado_726915" data-name="Trazado 726915" d="M191.694,42.831a1.017,1.017,0,0,0-.578-.829,3.233,3.233,0,0,0-2.935-.03,1.052,1.052,0,0,0-.639.871l-.036-12.6a1.055,1.055,0,0,1,.639-.872,3.233,3.233,0,0,1,2.935.03,1.016,1.016,0,0,1,.578.829c.011,3.78.025,8.82.036,12.6"/>
      <path id="Trazado_726916" data-name="Trazado 726916" d="M187.542,42.843l-.036-12.6a1.019,1.019,0,0,0,.578.83l.036,12.6a1.017,1.017,0,0,1-.578-.829"/>
      <path id="Trazado_726917" data-name="Trazado 726917" d="M188.084,31.073c-.794-.478-.767-1.239.061-1.7a3.233,3.233,0,0,1,2.935.029c.794.478.767,1.239-.061,1.7a3.233,3.233,0,0,1-2.935-.03"/>
      <path id="Trazado_726918" data-name="Trazado 726918" d="M191.658,30.232l.036,12.6a1.055,1.055,0,0,1-.639.871,3.233,3.233,0,0,1-2.935-.03l-.036-12.6a3.233,3.233,0,0,0,2.935.03,1.052,1.052,0,0,0,.639-.871"/>
      <path id="Trazado_726919" data-name="Trazado 726919" d="M201.772,22.754c0,.03,0,.06,0,.091,0,.157-.01.317-.018.483-.012.278-.029.564-.057.81-.039.386-.1.829-.169,1.175-.026.132-.055.276-.086.424-.048.241-.1.473-.155.68l-.015.055c-.065.258-.134.507-.207.725-.052.158-.113.331-.178.509-.089.254-.179.5-.266.713s-.2.462-.32.706a11.668,11.668,0,0,1-.771,1.348c-.147.222-.35.514-.516.721l-.1.122c-.022.03-.045.058-.066.086-.083.1-.18.217-.282.331-.117.137-.236.267-.346.376l-.091.089c-.086.087-.17.171-.248.247a9.147,9.147,0,0,1-.873.749c-.134.11-.3.231-.471.344-.057.04-.112.078-.164.112-.034.023-.07.047-.107.07l-.052.035a8.584,8.584,0,0,1-.755.45l-.046.023c-.175.093-.373.2-.534.274-.225.107-.529.247-.763.335-.209.087-.491.193-.707.26-.183.056-.42.133-.613.188l-.009,0c-.083.025-.178.05-.275.075-.148.038-.3.077-.436.1-.341.082-1.035.2-1.318.229-.142.017-.27.031-.392.043-.083.009-.164.017-.239.022-.319.025-.559.034-.677.038-.092,0-.2.006-.305.007H188.8l-.155,0c-.382-.009-.768-.031-1.143-.068-.092-.007-.195-.019-.3-.033s-.233-.029-.347-.046l-.01,0c-.166-.02-.427-.066-.682-.116-.15-.03-.3-.061-.42-.089-.087-.019-.161-.037-.217-.053l-.024-.005c-.166-.042-.375-.1-.559-.152l-.1-.029-.022-.007-.032-.01c-.166-.051-.375-.123-.555-.186l-.057-.019c-.056-.018-.117-.041-.18-.065-.195-.072-.415-.161-.6-.244-.2-.087-.433-.2-.613-.291-.236-.12-.544-.291-.771-.426l-.086-.055c-.187-.118-.412-.254-.577-.375l-.2-.151c-.074-.052-.146-.1-.212-.152-.194-.142-.438-.348-.618-.508a10.6,10.6,0,0,1-1.137-1.163c-.112-.135-.224-.276-.318-.394a10.571,10.571,0,0,1-.939-1.423l-.021-.039-.038-.067a10.6,10.6,0,0,1-.769-1.679c-.015-.042-.03-.085-.044-.129l-.11-.3a13.194,13.194,0,0,1-.525-1.958,11.364,11.364,0,0,1-.234-1.622c-.01-.19-.02-.4-.029-.608-.013-.178-.024-.35-.033-.511a10.475,10.475,0,0,1,.015-1.206c0-.1.009-.195.016-.287s.014-.179.022-.272c.013-.159.026-.313.038-.457a15.413,15.413,0,0,1,.223-1.583c.042-.211.088-.447.138-.689.011-.055.022-.109.032-.162a19.316,19.316,0,0,1,.635-2.326c.009-.027.019-.054.028-.081.045-.143.09-.279.134-.4.059-.169.126-.353.2-.544s.138-.377.2-.541c.015-.035.029-.071.044-.108.1-.251.2-.494.29-.709.125-.288.269-.605.421-.932.039-.088.077-.173.114-.254.246-.552.619-1.268.919-1.793.276-.5.663-1.157.962-1.643.1-.16.214-.339.333-.522s.247-.385.364-.558c.041-.061.084-.125.129-.19l.025-.038c.232-.357.552-.794.831-1.17l.038-.052c.068-.093.144-.194.223-.3.232-.308.521-.676.757-.966l.005-.005.03-.037c.017-.022.035-.043.053-.065l.062-.075q.316-.383.594-.7c.02-.023.039-.044.058-.067l.058-.066L184.14,4c.021-.024.044-.049.065-.074.127-.144.247-.276.36-.4.175-.19.353-.379.511-.542.106-.108.2-.2.287-.291.214-.215.5-.5.727-.7l.37-.329.089-.081c.2-.183.491-.408.709-.575a8.17,8.17,0,0,1,.824-.559l.035-.02.04-.023c.063-.035.125-.068.185-.1l.008,0L188.4.282l.1-.044.018-.007a1.4,1.4,0,0,1,.171-.061l.011,0,.055-.014a.616.616,0,0,1,.137-.017h.009a.219.219,0,0,1,.036,0l.022,0,.024,0,.027.005.033.008a.572.572,0,0,1,.063.018.965.965,0,0,1,.1.032.968.968,0,0,1,.112.045l.034.014c.05.024.114.054.168.082.086.044.2.107.281.157l.1.067.14.088c.163.1.348.24.528.377l.133.1c.062.049.129.1.2.158l.12.1c.128.105.272.23.416.358.091.08.179.157.258.228s.174.159.267.247c.166.152.427.407.724.71.146.148.315.325.478.5l.065.069c.145.156.29.315.427.47l.106.12c.279.316.518.6.733.858l.066.08.007.009c.224.273.438.544.669.843l.151.2.005.006.007.009c.117.153.246.326.377.505l.243.337c.139.194.273.384.39.554l.107.156.047.069c.152.223.327.494.5.759.072.112.143.22.208.319.127.194.265.417.4.647.259.428.533.913.742,1.305.246.459.519,1.007.781,1.556.186.386.363.764.517,1.1.071.157.144.33.217.511.121.291.246.622.365.95.056.152.11.3.161.435.072.192.144.406.215.63.116.341.227.731.331,1.119.032.114.061.224.09.328.07.259.144.569.211.875.1.448.205,1,.263,1.431.046.3.087.6.109.853.005.056.011.114.015.173.044.427.073.84.085,1.272.011.273.013.538,0,.774" fill="#008b8a"/>
      <path id="Trazado_726920" data-name="Trazado 726920" d="M188.941,35.943h-.146l-.157,0c-.391-.008-.779-.031-1.152-.068l-.048,0c-.076-.007-.159-.016-.255-.029-.117-.014-.234-.029-.35-.046l-.012,0c-.149-.019-.4-.062-.686-.118-.151-.029-.3-.06-.424-.089-.089-.02-.165-.038-.222-.054l-.026-.006c-.169-.043-.38-.1-.56-.153l-.1-.029-.024-.007-.033-.01c-.168-.051-.377-.123-.559-.187l-.053-.018c-.059-.019-.122-.043-.187-.068-.212-.077-.432-.168-.6-.247s-.414-.189-.619-.293c-.233-.12-.546-.293-.778-.431l-.208-.132c-.163-.1-.331-.206-.466-.305-.064-.047-.133-.1-.2-.152s-.143-.1-.21-.151c-.25-.183-.544-.441-.627-.516a10.477,10.477,0,0,1-1.152-1.177c-.113-.136-.226-.278-.32-.4a10.575,10.575,0,0,1-.953-1.444l-.006-.011a.183.183,0,0,0-.013-.024l-.038-.067a10.767,10.767,0,0,1-.779-1.7c-.015-.042-.03-.086-.045-.131l-.038-.1c-.024-.067-.047-.131-.07-.191a13.6,13.6,0,0,1-.531-1.979,11.836,11.836,0,0,1-.236-1.641c-.01-.19-.02-.4-.029-.609-.013-.175-.024-.348-.033-.509a10.53,10.53,0,0,1,.015-1.222c0-.1.009-.2.016-.289s.014-.175.022-.266c.011-.144.023-.277.033-.4l.005-.061a15.823,15.823,0,0,1,.225-1.6c.042-.212.089-.448.139-.691l.031-.16a19.3,19.3,0,0,1,.641-2.345l.028-.081c.044-.14.089-.278.133-.4.06-.169.127-.354.2-.546.056-.157.131-.362.2-.544l.044-.108c.109-.279.2-.512.291-.712.124-.286.266-.6.423-.936l.112-.253c.23-.514.593-1.222.925-1.8.253-.458.632-1.1.965-1.647.105-.172.229-.362.335-.525.139-.219.259-.4.365-.56l.13-.191.023-.035c.236-.362.555-.8.835-1.177l.038-.052.224-.3c.231-.3.522-.677.76-.969l.01-.011.022-.028.118-.143c.2-.246.4-.484.6-.706l.059-.067.057-.066c.007-.008.017-.02.027-.03l.062-.071c.129-.145.249-.278.362-.4.185-.2.363-.39.514-.545.106-.109.2-.206.288-.293.222-.223.507-.506.734-.707l.2-.179.255-.229c.212-.191.511-.424.717-.582a8.4,8.4,0,0,1,.84-.57l.024-.013.053-.031c.064-.036.128-.07.19-.1l.009,0,.054-.026.1-.043L188.469.1a1.282,1.282,0,0,1,.179-.063l.011,0,.062-.016.017,0A.767.767,0,0,1,188.889,0h.016a.259.259,0,0,1,.048,0l.036,0,.018,0,.013,0,.16.008V.057c.036.011.062.021.069.024.028.01.071.027.116.047l.031.014c.057.025.122.057.179.086.087.044.2.11.289.162l.108.069.138.087c.147.095.323.22.537.384.044.032.087.065.128.1.069.054.137.109.206.165l.119.1c.114.092.247.207.421.362l.046.04.213.188c.084.076.175.161.269.249.177.163.443.424.728.715.144.146.315.324.48.5l.065.069c.149.16.294.319.43.472l.106.121c.266.3.507.583.736.861l.065.079.011.014c.208.253.42.52.668.842l.159.2c.121.158.252.333.383.513.08.109.162.223.245.338.139.2.273.386.39.556.035.05.071.1.108.158l.047.067c.157.23.34.515.5.763l.207.318c.123.188.263.413.406.652.243.4.514.879.745,1.31s.5.965.783,1.561c.182.379.361.761.518,1.105.069.152.143.326.22.516.106.254.222.558.366.955l.161.433c.069.185.142.4.218.637.1.3.21.67.332,1.125l.075.274.014.053c.069.256.145.569.213.882.1.453.205,1,.263,1.429l0,.023c.053.335.089.62.109.849l.016.174c.046.457.073.864.085,1.28.011.3.012.559,0,.782l0,.091c0,.156-.01.318-.019.485-.01.239-.026.549-.058.819-.04.407-.1.851-.17,1.185-.026.133-.055.277-.087.426-.052.265-.1.49-.156.687l0,.011c0,.015-.009.031-.013.047-.069.276-.14.523-.208.729-.057.17-.117.343-.18.514-.092.263-.182.506-.268.717s-.2.459-.324.715a11.774,11.774,0,0,1-.779,1.363c-.115.172-.335.5-.524.731l-.164.207q-.12.151-.287.338c-.128.148-.246.276-.351.381l-.094.091c-.083.085-.168.169-.247.246a9.09,9.09,0,0,1-.887.761c-.113.093-.266.2-.475.347-.056.039-.112.078-.165.113l-.158.1a8.862,8.862,0,0,1-.769.458l-.047.024c-.218.116-.4.209-.536.275-.321.153-.582.267-.774.34s-.485.191-.716.262l-.177.056c-.145.045-.3.094-.437.133l-.007,0c-.094.029-.2.056-.282.077-.129.034-.3.076-.442.106-.339.082-1.039.2-1.331.23h-.01c-.134.017-.262.031-.383.043-.084.008-.167.017-.243.022-.317.025-.56.034-.677.038l-.312.008h-.2m-1.382-.337c.352.033.717.054,1.086.062l.154,0h.343l.3-.007c.118,0,.358-.013.671-.038.074-.005.154-.013.235-.022.121-.012.249-.026.382-.042l.015,0c.288-.031.963-.144,1.3-.225.142-.029.306-.07.433-.1.078-.02.177-.045.263-.072l.019-.005c.133-.039.287-.087.43-.132l.179-.056c.222-.068.505-.176.7-.255s.446-.185.756-.333c.133-.063.311-.154.528-.27l.049-.025c.213-.111.512-.288.741-.441.016-.012.035-.024.053-.036l.108-.07c.049-.033.1-.07.159-.11.2-.139.351-.246.464-.338a9.086,9.086,0,0,0,.863-.741c.078-.075.161-.158.246-.245.035-.033.064-.062.093-.091.1-.1.214-.223.339-.367q.162-.182.278-.327l.165-.209c.182-.226.4-.542.51-.711a11.58,11.58,0,0,0,.761-1.331c.124-.252.233-.493.316-.7s.173-.446.264-.708c.063-.17.122-.34.178-.507.066-.2.135-.44.2-.715l.015-.057c.051-.188.1-.414.153-.672.032-.149.061-.292.087-.423.064-.327.126-.761.166-1.162.031-.264.047-.567.057-.8.008-.167.014-.326.018-.481l0-.093c.008-.217.007-.474,0-.764-.011-.409-.038-.81-.084-1.263l-.015-.175c-.02-.225-.056-.507-.108-.84l0-.012c-.058-.424-.157-.965-.26-1.414-.068-.31-.142-.619-.21-.87l-.014-.053-.075-.273c-.121-.451-.228-.814-.329-1.113-.075-.236-.146-.446-.214-.626l-.161-.435c-.143-.394-.258-.694-.363-.945-.076-.188-.148-.358-.215-.507-.156-.342-.334-.723-.516-1.1-.283-.593-.552-1.129-.778-1.551s-.5-.9-.738-1.3c-.141-.236-.279-.458-.4-.643-.065-.1-.136-.207-.209-.32-.158-.247-.34-.529-.495-.756l-.047-.068c-.037-.055-.072-.107-.106-.156-.117-.169-.251-.359-.389-.552-.081-.114-.163-.227-.242-.336-.13-.179-.26-.352-.375-.5l-.163-.209c-.247-.321-.459-.588-.666-.84l-.073-.089c-.227-.276-.466-.555-.73-.855l-.106-.12c-.134-.151-.277-.308-.425-.466l-.063-.068c-.165-.177-.334-.354-.477-.5-.278-.284-.547-.547-.719-.706-.094-.087-.183-.17-.266-.245l-.211-.187-.046-.04c-.172-.153-.3-.266-.412-.355l-.119-.1-.2-.157-.129-.1c-.21-.16-.38-.281-.521-.372l-.138-.087c-.038-.025-.072-.047-.1-.067-.079-.049-.187-.109-.27-.151-.054-.028-.115-.057-.164-.08l-.033-.014a.989.989,0,0,0-.1-.04A.859.859,0,0,0,189.064.3a.246.246,0,0,0-.035-.01h-.118V.271h-.027a.518.518,0,0,0-.1.013l-.015,0L188.735.3,188.686.17l.038.13a1.382,1.382,0,0,0-.132.045l-.042.017L188.457.4l-.046.022-.011,0c-.056.027-.115.059-.177.093l-.068.039a8.037,8.037,0,0,0-.815.552c-.2.156-.5.384-.7.569l-.257.23-.2.18c-.221.2-.5.474-.721.695-.085.086-.181.182-.286.29-.15.154-.325.34-.508.54-.112.123-.232.255-.358.4l-.064.074-.022.024-.06.068-.058.067c-.192.221-.392.457-.593.7l-.114.139-.026.033-.009.01c-.236.29-.525.659-.754.961-.079.1-.154.2-.222.3l-.039.053c-.278.375-.593.807-.825,1.163l-.025.038c-.047.068-.09.131-.13.191-.1.156-.223.337-.363.555-.106.163-.228.351-.332.521-.331.538-.707,1.181-.959,1.637-.329.577-.687,1.276-.914,1.783l-.113.254c-.157.335-.3.648-.42.931-.084.195-.182.432-.289.7l-.044.108c-.071.179-.145.381-.2.537-.071.191-.137.375-.2.543-.043.123-.088.258-.133.4l-.029.085a19.115,19.115,0,0,0-.63,2.309l-.032.161c-.05.243-.1.478-.138.689a15.314,15.314,0,0,0-.221,1.568l-.005.062c-.011.125-.022.258-.033.4-.008.1-.016.186-.022.271s-.012.186-.016.283a10.244,10.244,0,0,0-.015,1.192c.01.16.02.331.033.509.01.217.02.422.029.611a11.821,11.821,0,0,0,.231,1.6,13.1,13.1,0,0,0,.52,1.937c.023.061.046.126.071.193l.039.108c.016.047.03.09.045.132a10.528,10.528,0,0,0,.758,1.655l.039.067.018.035a10.346,10.346,0,0,0,.931,1.411c.093.117.2.258.315.391a10.362,10.362,0,0,0,1.121,1.147c.221.2.448.383.61.5.065.048.136.1.21.15s.14.106.2.153c.127.093.291.195.449.294l.206.13c.225.134.532.3.761.421.2.1.426.209.6.287s.381.165.588.241c.062.024.122.046.176.064l.058.019c.17.06.385.134.551.185l.025.007.125.038c.177.051.384.108.554.15l.018.005c.063.017.136.034.22.053.122.028.268.059.416.088.279.055.524.1.673.115l.015,0c.111.017.225.032.341.046s.214.026.292.032Z"/>
      <path id="Trazado_726921" data-name="Trazado 726921" d="M201.772,22.754c0,.03,0,.06,0,.091,0,.157-.01.317-.018.483-.012.278-.029.564-.057.81-.039.386-.1.829-.169,1.175-.026.132-.055.276-.086.424-.048.241-.1.473-.155.68l-.015.055c-.065.258-.134.507-.207.725-.052.158-.113.331-.178.509-.089.254-.179.5-.266.713s-.2.462-.32.706a11.668,11.668,0,0,1-.771,1.348c-.147.222-.35.514-.516.721l-.1.122c-.022.03-.045.058-.066.086-.083.1-.18.217-.282.331-.117.137-.236.267-.346.376l-.091.089c-.086.087-.17.171-.248.247a9.147,9.147,0,0,1-.873.749c-.134.11-.3.231-.471.344-.057.04-.112.078-.164.112-.034.023-.07.047-.107.07l-.052.035a8.584,8.584,0,0,1-.755.45l-.046.023c-.175.093-.373.2-.534.274-.225.107-.529.247-.763.335-.209.087-.491.193-.707.26-.183.056-.42.133-.613.188l-.009,0c-.083.025-.178.05-.275.075-.148.038-.3.077-.436.1-.341.082-1.035.2-1.318.229-.142.017-.27.031-.392.043-.083.009-.164.017-.239.022-.319.025-.559.034-.677.038-.092,0-.2.006-.305.007H188.8l-.155,0c-.382-.009-.768-.031-1.143-.068-.092-.007-.195-.019-.3-.033s-.233-.029-.347-.046l-.01,0c-.166-.02-.427-.066-.682-.116-.15-.03-.3-.061-.42-.089,13.584-8.21,9.642-29.371,9.642-29.371l.005.006.007.009c.117.153.246.326.377.505l.243.337c.139.194.273.384.39.554l.107.156.047.069c.152.223.327.494.5.759.072.112.143.22.208.319.127.194.265.417.4.647.259.428.533.913.742,1.305.246.459.519,1.007.781,1.556.186.386.363.764.517,1.1.071.157.144.33.217.511.121.291.246.622.365.95.056.152.11.3.161.435.072.192.144.406.215.63.116.341.227.731.331,1.119.032.114.061.224.09.328.07.259.144.569.211.875.1.448.205,1,.263,1.431.046.3.087.6.109.853.005.056.011.114.015.173.044.427.073.84.085,1.272.011.273.013.538,0,.774"/>
      <path id="Trazado_726922" data-name="Trazado 726922" d="M194.8,39.208c2.993,1.728,3.01,4.54.035,6.268a11.942,11.942,0,0,1-10.821,0c-2.994-1.728-3.009-4.54-.035-6.268a11.942,11.942,0,0,1,10.821,0M184.321,45.3a11.268,11.268,0,0,0,10.209,0c2.806-1.63,2.791-4.283-.033-5.914a11.268,11.268,0,0,0-10.209,0c-2.806,1.631-2.791,4.284.033,5.914"/>
      <path id="Trazado_726923" data-name="Trazado 726923" d="M248.42,56.012l-.054,18.931a1.279,1.279,0,0,1-.749,1.049,4.017,4.017,0,0,1-3.648,0,1.291,1.291,0,0,1-.761-1.064L243.261,56a1.29,1.29,0,0,0,.762,1.064,4.017,4.017,0,0,0,3.648,0,1.282,1.282,0,0,0,.749-1.049"/>
      <path id="Trazado_726924" data-name="Trazado 726924" d="M245.794,76.548a3.854,3.854,0,0,1-1.886-.451,1.4,1.4,0,0,1-.822-1.169L243.14,56h.242a1.178,1.178,0,0,0,.7.959,3.892,3.892,0,0,0,3.526,0,1.169,1.169,0,0,0,.689-.945h.242l-.053,18.931a1.4,1.4,0,0,1-.81,1.154,3.831,3.831,0,0,1-1.883.451M243.38,56.674l-.052,18.254a1.178,1.178,0,0,0,.7.959,3.892,3.892,0,0,0,3.526,0,1.167,1.167,0,0,0,.689-.945l.052-18.255a1.923,1.923,0,0,1-.565.478,4.158,4.158,0,0,1-3.77,0,1.941,1.941,0,0,1-.581-.492" fill="#fff"/>
      <path id="Trazado_726925" data-name="Trazado 726925" d="M247.658,54.948a1.117,1.117,0,0,1,.012,2.113,4.023,4.023,0,0,1-3.648,0,1.117,1.117,0,0,1-.012-2.113,4.023,4.023,0,0,1,3.648,0"/>
      <path id="Trazado_726926" data-name="Trazado 726926" d="M245.849,57.617a3.856,3.856,0,0,1-1.887-.452,1.234,1.234,0,0,1-.012-2.322,4.162,4.162,0,0,1,3.769,0,1.409,1.409,0,0,1,.822,1.165,1.392,1.392,0,0,1-.81,1.158,3.831,3.831,0,0,1-1.882.452m-.017-2.987a3.586,3.586,0,0,0-1.76.422,1,1,0,0,0,.011,1.9,3.889,3.889,0,0,0,3.526,0,1.164,1.164,0,0,0,.689-.947,1.179,1.179,0,0,0-.7-.956,3.62,3.62,0,0,0-1.766-.422" fill="#fff"/>
      <path id="Trazado_726927" data-name="Trazado 726927" d="M246.062,13.943l-.559.325-.118,41.665.562.325.56-.325.114-40.372,10.95,6.322-.021,7.337.563.325.559-.325.022-7.984Z"/>
      <path id="Trazado_726928" data-name="Trazado 726928" d="M245.947,56.4l-.684-.4v-.07l.119-41.736.68-.395,12.754,7.364-.024,8.124-.679.395-.685-.395.021-7.338L246.741,15.77,246.627,56Zm-.441-.535.441.255.438-.255.115-40.512,11.192,6.461-.021,7.338.441.255.438-.255.023-7.844-12.511-7.224-.438.255Z" fill="#fff"/>
      <path id="Trazado_726929" data-name="Trazado 726929" d="M257.769,36.311l2.057-1.195.029-10.25a.141.141,0,0,0-.212-.123L257.8,25.815Z"/>
      <path id="Trazado_726930" data-name="Trazado 726930" d="M257.678,36.468l.03-10.7,1.889-1.1a.231.231,0,0,1,.348.2l-.03,10.3Zm.21-10.6-.029,10.288,1.876-1.091.029-10.2a.051.051,0,0,0-.025-.045.054.054,0,0,0-.052,0Z" fill="#fff"/>
      <path id="Trazado_726931" data-name="Trazado 726931" d="M257.82,25.8l1.972-1.146a.043.043,0,0,0,0-.074l-3.354-1.936a.042.042,0,0,0-.043,0l-1.971,1.146a.042.042,0,0,0,0,.074l3.353,1.936a.042.042,0,0,0,.043,0"/>
      <path id="Trazado_726932" data-name="Trazado 726932" d="M257.8,25.9a.129.129,0,0,1-.066-.018l-3.354-1.936a.131.131,0,0,1-.066-.115.133.133,0,0,1,.066-.115l1.972-1.146a.137.137,0,0,1,.133,0l3.353,1.936a.134.134,0,0,1,.067.115.132.132,0,0,1-.066.115l-1.972,1.146a.135.135,0,0,1-.067.018m-3.259-2.069,3.259,1.882,1.878-1.091-3.259-1.882Z" fill="#fff"/>
      <path id="Trazado_726933" data-name="Trazado 726933" d="M254.359,23.9l-.03,10.424,3.439,1.985.03-10.5-3.376-1.949a.042.042,0,0,0-.063.036"/>
      <path id="Trazado_726934" data-name="Trazado 726934" d="M257.858,36.467l-3.618-2.089.029-10.476a.135.135,0,0,1,.066-.114.132.132,0,0,1,.132,0l3.422,1.975Zm-3.438-2.193,3.259,1.882.029-10.289-3.259-1.882Z" fill="#fff"/>
      <path id="Trazado_726935" data-name="Trazado 726935" d="M256.082,25.728c-.528-.305-.958-.06-.96.547a2.1,2.1,0,0,0,.954,1.652c.528.305.958.06.96-.547a2.106,2.106,0,0,0-.954-1.652" fill="#3076b6"/>
      <path id="Trazado_726936" data-name="Trazado 726936" d="M256.073,28.9c-.528-.3-.958-.06-.96.547a2.1,2.1,0,0,0,.954,1.652c.528.305.958.06.96-.547a2.106,2.106,0,0,0-.954-1.652" fill="#ffa031"/>
      <path id="Trazado_726937" data-name="Trazado 726937" d="M256.064,32.08c-.528-.305-.958-.06-.96.547a2.1,2.1,0,0,0,.954,1.652c.528.305.958.06.96-.547a2.106,2.106,0,0,0-.954-1.652" fill="#008b8a"/>
      <path id="Trazado_726938" data-name="Trazado 726938" d="M249.734,72.664c2.242,1.295,2.254,3.4.026,4.695a8.94,8.94,0,0,1-8.1,0c-2.243-1.294-2.255-3.4-.027-4.695a8.942,8.942,0,0,1,8.106,0m-7.774,4.518a8.272,8.272,0,0,0,7.493,0c2.059-1.2,2.048-3.144-.024-4.34a8.269,8.269,0,0,0-7.493,0c-2.06,1.2-2.049,3.144.024,4.341"/>
    </g>
  </g>
</svg>
