<svg xmlns="http://www.w3.org/2000/svg" xmlns:xlink="http://www.w3.org/1999/xlink" width="366.408" height="209.375" viewBox="0 0 366.408 209.375">
  <defs>
    <clipPath id="clip-path">
      <rect id="Rect치ngulo_350592" data-name="Rect치ngulo 350592" width="297.559" height="81.125" transform="translate(13.865 128.25)" fill="none"/>
    </clipPath>
    <clipPath id="clip-path-2">
      <rect id="Rect치ngulo_350593" data-name="Rect치ngulo 350593" width="24.233" height="21.685" transform="translate(281.081 111.472)" fill="none"/>
    </clipPath>
  </defs>
  <g id="Grupo_1009956" data-name="Grupo 1009956" transform="translate(-245.735 -11131)">
    <path id="Trazado_728222" data-name="Trazado 728222" d="M338.367,73.485l-27.763.028q-27.777.043-55.523-.037l-55.429-.145-55.239-.187,8.562-15.7q4.279-7.883,8.627-15.79l.065-.117h.134l25.54-.079,25.539-.036,12.77-.016,12.77.015,12.769.015,12.77.046c17.026.061,34.053.142,51.079.15,8.513.023,17.026,0,25.539-.007l25.54-.06h.2v.2l.091,31.355v.29h-.291ZM315.038,41.9c-17.026.008-34.053.09-51.079.15l-12.77.047-12.769.015-12.77.015-12.77-.016-25.539-.037L161.934,42q-4.307,7.724-8.66,15.448L144.482,73.1l111-.332q27.665-.036,55.311-.037l27.655.027,27.377.071.09-30.865-25.34-.06c-8.513-.006-17.026-.03-25.539-.007" transform="translate(245.735 11131)" fill="#fff"/>
    <path id="Trazado_728223" data-name="Trazado 728223" d="M366.145,33.934l-49.852.217-25,.052-12.5.026-12.52,0-12.52-.009-12.528-.043-25.042-.1L191.16,34.03l-25.007.024h-.25l.12-.22,15.2-27.672.071-.128h.148l46.169-.128c15.389-.015,30.779-.064,46.169-.04s30.779,0,46.169.056l23.085.061,23.084.1h.2v.2Zm-46.2-27.29c-15.39.055-30.779.044-46.169.057S243,6.675,227.61,6.66l-46.023-.127L166.4,33.758l24.733.024,24.974-.048,24.949-.1,12.467-.043L266,33.587l12.476,0,12.491.026,24.989.051,50.13.218-.172-27.392-22.884.1Z" transform="translate(245.735 11131)" fill="#fff"/>
    <path id="Trazado_728224" data-name="Trazado 728224" d="M335.451,115.635l-30.679.028q-30.693.043-61.355-.037l-122.332-.332,9.374-17.163q4.688-8.616,9.44-17.256l.064-.116h.134l28.252-.079,28.253-.037,14.126-.016,14.126.014,14.127.015,14.126.047c18.835.06,37.67.142,56.505.15l28.253-.007,28.252-.06h.2v.2l.09,34.289v.288h-.291ZM309.612,81.117c-18.835.008-37.67.09-56.505.151l-14.126.046-14.127.015-14.126.015L196.6,81.328l-28.253-.037-28.12-.08q-4.713,8.458-9.472,16.916l-9.6,17.126,122.666-.332q30.58-.036,61.143-.037l30.571.028,30.294.071.089-33.8-28.052-.06Z" transform="translate(245.735 11131)" fill="#fff"/>
    <path id="Trazado_728225" data-name="Trazado 728225" d="M305.972,123.136h60.145v34.288H278.942v.007l-181.831.4,19.421-35.091,189.44.4ZM98.47,157.023l179.73-.391c.453-4.775,1.59-19.634,2.881-26.19,7.515,1.066,17.687,1.705,24.182,2.666.177-1.414.056-6.772-.018-9.176L117,123.536Z" transform="translate(245.735 11131)" fill="#fff"/>
    <path id="Trazado_728226" data-name="Trazado 728226" d="M366.117,202.866H72.641l20.8-37.58H366.117Z" transform="translate(245.735 11131)" fill="#fff"/>
    <g id="Grupo_1009952" data-name="Grupo 1009952" transform="translate(245.735 11131)" opacity="0.2" style="mix-blend-mode: multiply;isolation: isolate">
      <g id="Grupo_1009951" data-name="Grupo 1009951">
        <g id="Grupo_1009950" data-name="Grupo 1009950" clip-path="url(#clip-path)">
          <path id="Trazado_728227" data-name="Trazado 728227" d="M197.541,172.5l.364.152-.2-.152h-.163" fill="#413b6d"/>
          <path id="Trazado_728228" data-name="Trazado 728228" d="M13.865,188.982c.919-4.627,4.195-30.383,22.317-39.906a47.082,47.082,0,0,1,16.764-4.615,96.98,96.98,0,0,1,10.35-.524,151.827,151.827,0,0,1,27.014,2.64c2.4.463,4.844,1.005,7.2,1.53,2.867.637,5.831,1.3,8.677,1.8a105.3,105.3,0,0,0,34.712-.023q1.352-.2,2.7-.413c7.143-1.106,14.53-2.25,23.942-1.2,8.009.892,16.547,3.276,24.8,5.581l1.364.38c3.265.91,6.663,1.842,10.125,2.738a45.362,45.362,0,0,1-3.584-9.205c-.3-1.23-.547-2.362-.738-3.355L176.3,143.2l-.206-.01.292.284s-13.042-.383-23.827-.869l-4.66-.037-3.874-3.847s.18-.01,1.085.015c-1.117-.83-3.277-2.291-4.245-3.194-4.151-4.612-.5-2.288-.5-2.288l.306-4.994c7.993-.264,7.55,3.625,9.912,5.163a.918.918,0,0,1-.037-.112,8.1,8.1,0,0,1,.764.507,2.244,2.244,0,0,0,.471.144c2,.372,9.94.092,13.253-.045.9-.037,1.463-.064,1.463-.064l.4.392q1.653.036,3.214.073,2.8.066,5.307.133l3.447.1q1.92.057,3.659.112c12.5.4,18.246.785,20.585.983a8.614,8.614,0,0,1,1.807.2h0a18.458,18.458,0,0,1,6.945,2.882,4.719,4.719,0,0,1,.535.482c.107.076,9.729,10.107,16.574,17.729l7.563.97.008.008-.008-.008,3.739.48,5.365.689c-.168-.2-.346-.42-.531-.647h0l-.085-.1c-.069-.084-.14-.17-.211-.258-.526-.639-1.111-1.331-1.71-2.1-.84-1.044-1.749-2.186-2.674-3.369-.627-.8-1.261-1.622-1.887-2.445-.558-.733-1.107-1.467-1.641-2.192-.431-.586-.851-1.166-1.254-1.733q-.648-.912-1.226-1.771l-.913-.023s-5.772-7.335-10.156-13.29l1.234-2.26,3.288-.2s.115.111.518.62c1.327-.115,3.562-.432,5.132-.414,8.418.551,14.053,1.307,14.053,1.307l1.084,1.238c4.676,4.815-3.033,4.082-5.344,4.466.077.015.156.032.237.05a4.831,4.831,0,0,1-.77.118.179.179,0,0,0-.088.182c.168.921,4.856,5.718,6.857,7.731.546.549.892.892.892.892l-1.7-.044c.853.795,1.868,1.744,2.992,2.8l1.608,1.507c.477.447.967.907,1.464,1.375,0-.041.006-.082.012-.123.283-2.135,2.339-3.372,5.638-3.4h.1a33.284,33.284,0,0,1,7.185,1.093c2.719.644,5.485,1.392,8.16,2.116a126.017,126.017,0,0,0,14.872,3.411c-.5-.41-.908-.772-1.113-.956-.613-.547.717-.982,1.622-.69.112-.373,1.072-.585,1.871-.439l0,0,.005,0,.062.014c.015-.564,1.638-.865,2.67-.472h0a2.667,2.667,0,0,1,2.741-.121s.915.839,1.8,1.793c.025-.464.335-.851,1.2-.985a1.968,1.968,0,0,1,.475.419c.021,0,.041,0,.064,0l.04.045c.588-.935.7-2.287.165-4.207l-1.223-.131-1.071-2.544-8.147-4.947-10.842-9.938,24.182,2.667c-.174.44.17,7.26-.325,8.606-.709,1.927-1.448,3.979-1.448,3.979l2.715,2.72-1.493-.161c.8,2.682.493,4.562-.937,5.7l.317.351-.065.007c1.126,1.321,2.178,2.673,1.965,2.752a28.15,28.15,0,0,1-6.812,1.373l-.55,1.323a32.854,32.854,0,0,1,3.348,1.542l-.164,2.673s-.7-.113-1.83-.341c-.347.818-.976,2.313-1.679,4.021-1.39,3.376-3.065,7.587-3.406,9.056-.548,2.365-.74,9.339-3.665,11.368a3.089,3.089,0,0,1-.93.443s1.74,1.115-3.068,3.786c-.232.129-.455.255-.672.381.954.363,1.773.733,2.378,1.026a32.938,32.938,0,0,1,3.765.575,4.3,4.3,0,0,1,.986.349c2.944,1.476,5.79,3.007,8.608,4.54.294.16.594.321.9.483a.88.88,0,0,0-.028-.145,2.2,2.2,0,0,0-.309-.579,2.845,2.845,0,0,1,1.013.645.823.823,0,0,1,.276.586,41.021,41.021,0,0,1,4.525,2.679,10.88,10.88,0,0,1,1.407,1.182c1.5,1.538,1.793,3.147.618,4.083-1.522,1.212-5.08,1.515-8.806,1.072a27.087,27.087,0,0,1-3.237-.583,13.321,13.321,0,0,1-7.607-4.814c-.144-.171-.283-.34-.421-.508a1.2,1.2,0,0,1-.691.227c-1.295.07-3.213-1.88-3.551-3.188-.288-.154-.658-.35-1.09-.574a2.046,2.046,0,0,1-.262.065,5.016,5.016,0,0,1-2.971-.683,19.822,19.822,0,0,0-3.579-1.312c-3.686.915-10.441,1.889-14.254,1.505h0c-8.217.212-33.05-13.9-42.227-20.953-2.056-1.579-3.2-3.094-3.586-4.518l-.116-.1a45.881,45.881,0,0,1-3.653-3.622,17.852,17.852,0,0,1-1.937-2.48s.065-.033.211-.088a24.808,24.808,0,0,1-4.279-3.525,32.623,32.623,0,0,1-4.133-5.823c-3.748-.962-7.422-1.968-10.944-2.95l-1.367-.381c-8.031-2.242-16.335-4.561-23.906-5.4-8.9-.99-16.081.122-23.029,1.2q-1.359.21-2.714.415c-17.2,2.566-28.242,1.336-35.944-.023-2.97-.525-6-1.2-8.926-1.849-2.321-.516-4.72-1.049-7.041-1.5-4.643-.894-20.971-3.684-36.145-2.042a46.484,46.484,0,0,0-16.173,4.451c-17.55,8.989-21.14,35.072-22.03,39.559Zm225.4-28.8c.093.069.19.138.284.207-.093-.068-.183-.137-.275-.205l-.009,0m24.145,5.016h0c-.022-.079-.042-.159-.062-.238.02.079.04.159.062.238m-10.161-10.585-.046-.032.046.032m-10.814,7.7q-.408-.252-.8-.506c.262.168.527.337.8.5l0,0m9.13,4.746q-.852-.376-1.685-.768h0q.835.39,1.687.767m1.348.585q.965.408,1.941.8-.977-.389-1.941-.8m-1.131-.489c.373.163.747.326,1.124.485-.377-.159-.751-.322-1.124-.485m.326-16.023c-.147.026-.291.055-.432.088.144-.03.282-.062.432-.088m-11.417,10.053q.354.24.721.479-.366-.238-.721-.479m-.958-.667q.395.283.807.566-.412-.282-.807-.566m17.517-9.466a6.643,6.643,0,0,0,.062,1.809c4.127,3.894,8.432,8,11.085,10.645a19.972,19.972,0,0,1,2.349,2.275c.153.075.3.153.44.235a2.478,2.478,0,0,1,.962.861c1.331,1.146,1.393,3.109-.426,3.531a5.178,5.178,0,0,1-1.721.044l-4.463-.2-4.611.37q-.474-.151-.949-.311.475.159.949.311l-5.7.456c.379.234,1.354.827,2.682,1.593.987.57,2.166,1.232,3.443,1.913,1.894,1.011,4,2.059,5.981,2.888a27.764,27.764,0,0,0,3.609,1.268s2.981-6.721,4.971-11.03a15.69,15.69,0,0,1,1.182-2.086,23.125,23.125,0,0,1,5.695-5.9,5.946,5.946,0,0,1,2.907-1.241L287.1,156.8a.265.265,0,0,1,.168-.2,4.644,4.644,0,0,1,2.433.139c.53-.449,1.024-.87,1.464-1.245-.082-.088-.16-.176-.235-.265.114.061.223.122.332.183l.647-.554a127.406,127.406,0,0,1-16.117-3.631c-2.628-.711-5.346-1.447-7.97-2.068a28.328,28.328,0,0,0-6.125-.949c-3.679.025-4.338,1.995-4.45,2.84m-1.449,17.76c-.244-.094-.488-.19-.732-.286.244.1.488.192.732.286m.952.362c-.217-.081-.434-.164-.651-.247.217.083.434.166.651.247m.958.352-.621-.227.621.227m.968.344-.616-.217.616.217m1.005.345c-.22-.074-.44-.148-.66-.224.22.076.44.15.66.224" fill="#413b6d"/>
        </g>
      </g>
    </g>
    <g id="Grupo_1009955" data-name="Grupo 1009955" transform="translate(245.735 11131)" opacity="0.45">
      <g id="Grupo_1009954" data-name="Grupo 1009954">
        <g id="Grupo_1009953" data-name="Grupo 1009953" clip-path="url(#clip-path-2)">
          <path id="Trazado_728230" data-name="Trazado 728230" d="M286.346,112.826l.207,3.594c.231-1.215.778-2.148,1.008-3.364a49.749,49.749,0,0,1,1.278,6.538,36.8,36.8,0,0,0,.133-8.121c.985,1.445,1.688,3.208,2.972,4.636-.052-.9-.7-1.762-.455-2.678.912.813,1.917,1.521,2.909,2.245,2.25,2.842,11.695,18.462,10.865,17.433l-24.182-2.667,1.674-12.483c1.281-1.618,2.377-3.372,3.591-5.133" fill="#c9c6e0"/>
        </g>
      </g>
    </g>
    <path id="Trazado_728231" data-name="Trazado 728231" d="M218.634,16.5l.354.885q-.339-.224-.673-.47c.195-.265.319-.415.319-.415" transform="translate(245.735 11131)" fill="#b26b5e"/>
    <path id="Trazado_728232" data-name="Trazado 728232" d="M261.742,89.88l.365.343a1.07,1.07,0,0,1-.365-.343" transform="translate(245.735 11131)" fill="#ff8500"/>
    <path id="Trazado_728233" data-name="Trazado 728233" d="M272.119,82.193a12.786,12.786,0,0,1-1.812,2.636l-1.194-1.456a7.267,7.267,0,0,1,3.006-1.18" transform="translate(245.735 11131)" fill="#ff8500"/>
    <path id="Trazado_728234" data-name="Trazado 728234" d="M262.107,90.224s.373-.5,1-1.252q.659.519,1.287,1.016a2.491,2.491,0,0,1-2.286.236" transform="translate(245.735 11131)" fill="#ff8500"/>
    <path id="Trazado_728235" data-name="Trazado 728235" d="M258.676,87c-.766-.013-2.251-.811-4.12-2.121a17.171,17.171,0,0,0,5.84-6.106,15.316,15.316,0,0,0,1.794-7.438c2.386,2.92,4.488,5.475,5.641,6.874-2.654,1.15-8.039,4.024-9.155,8.791" transform="translate(245.735 11131)" fill="#ff8500"/>
    <path id="Trazado_728236" data-name="Trazado 728236" d="M260.4,78.77a17.169,17.169,0,0,1-5.839,6.106,87.29,87.29,0,0,1-11.491-10.081c-4.06-6.972-8.078-13.864-7.917-22.215-.513,1.532-.127,3.012-.64,4.544-.472-2.977-1.825-5.6-1.7-8.616-.725,3.047-2.684,5.563-3.093,8.892-1.574-7.164,1.6-14.6,5.272-20.987,4.916,3.469,11.99,15.392,14.871,19.437,1.79,2.511,7.614,9.709,12.33,15.482A15.319,15.319,0,0,1,260.4,78.77M249.8,59.2a4.561,4.561,0,0,0-1.507,1.292,5,5,0,0,0-.864,1.762,3.9,3.9,0,0,0-.13.98l.007.247c.01.083.021.166.037.248a1.9,1.9,0,0,0,.144.471,8.983,8.983,0,0,1,.766-1.616,13.978,13.978,0,0,1,.939-1.41,9.9,9.9,0,0,1,1.107-1.244,7.418,7.418,0,0,1,1.431-1.05,2.919,2.919,0,0,0-1.93.32" transform="translate(245.735 11131)" fill="#ff9515"/>
    <path id="Trazado_728237" data-name="Trazado 728237" d="M229.717,57.4c.409-3.329,2.368-5.846,3.092-8.892-.125,3.012,1.227,5.638,1.7,8.616.513-1.532.127-3.012.64-4.544-.16,8.35,3.857,15.242,7.918,22.214-1.147-1.188-2.242-2.39-3.237-3.566-6.235-7.366-15.837-18.857-15.837-18.857a7.483,7.483,0,0,1,.069-1.3c.888-6.579,9.565-15.415,9.565-15.415a6.307,6.307,0,0,1,1.362.757c-3.67,6.384-6.845,13.822-5.271,20.987" transform="translate(245.735 11131)" fill="#ff8500"/>
    <path id="Trazado_728238" data-name="Trazado 728238" d="M249.19,61.171a14.322,14.322,0,0,0-.939,1.41,8.948,8.948,0,0,0-.765,1.616,1.877,1.877,0,0,1-.145-.471c-.016-.082-.027-.165-.037-.248l-.007-.247a3.941,3.941,0,0,1,.13-.98,5.014,5.014,0,0,1,.864-1.762A4.538,4.538,0,0,1,249.8,59.2a2.92,2.92,0,0,1,1.93-.32,7.41,7.41,0,0,0-1.43,1.05,9.832,9.832,0,0,0-1.108,1.244" transform="translate(245.735 11131)" fill="#e58638"/>
    <path id="Trazado_728239" data-name="Trazado 728239" d="M226.619,83.392c.3.228.589.44.855.62a3.578,3.578,0,0,0,1.519.659.393.393,0,0,0,.335-.118c.288.093.375-.116.375-.116l-.344-.407a.118.118,0,0,0-.011-.019c-.258-.307-.614-.729-1.022-1.206l0,0c-1.232-1.443-2.934-3.4-3.818-4.235-1.434-1.357-8.44-4.489-8.915-4.7l-.282-.209c.3-.444.6-.883.92-1.312q-.476.644-.922,1.311l-.162-.12a13.611,13.611,0,0,0,.673-3.417L213.8,68.727a5.737,5.737,0,0,0,2.034-3.071s.024-.067.068-.186l6.128.78c-.215.173-.427.35-.638.53l-.2.172c-.145.126-.29.252-.433.382-.076.068-.151.138-.226.207q-.2.183-.4.371l-.225.217q-.2.192-.394.387c-.071.072-.142.143-.212.215-.136.139-.271.28-.406.421-.062.066-.124.131-.185.2-.15.161-.3.325-.446.489l-.132.146q-.587.665-1.145,1.363h0a6.22,6.22,0,0,1,.656.87A28.242,28.242,0,0,0,223,75.055v0c2.92,1.324,5.654,2.717,6.568,5.793.021.056.038.112.059.168h0a20.606,20.606,0,0,1,1.23,6.862,24.607,24.607,0,0,0-3.7-3.521c-.07-.128-.138-.257-.21-.385-.106-.193-.215-.385-.325-.577m-10.267-11.21q.313-.42.639-.83-.325.41-.639.83" transform="translate(245.735 11131)" fill="#ff9515"/>
    <path id="Trazado_728240" data-name="Trazado 728240" d="M228.866,97.763c-.017.042-.034.083-.05.125-.059-.038-.118-.073-.177-.111-.851.049-1.7.065-2.552.054L225.83,95.1l-.417-3.9c-.127-1.064-.247-2.127-.38-3.19.507.6,1.006,1.169,1.446,1.614a3.65,3.65,0,0,0,1.314.925.4.4,0,0,0,.379-.051c.285.185.416-.018.416-.018l-.284-.513-.005-.013c-.184-.334-.433-.782-.715-1.286l-.009-.017c-.273-.488-.578-1.027-.892-1.574.307.311.6.6.876.847a4.025,4.025,0,0,0,1.17.781.466.466,0,0,0,.072.016,21.6,21.6,0,0,1,2.4,3.191,44.87,44.87,0,0,1,2.143,4.111c.17.354.341.711.514,1.068a37.073,37.073,0,0,1-4.991.673" transform="translate(245.735 11131)" fill="#ff9515"/>
    <path id="Trazado_728241" data-name="Trazado 728241" d="M226.087,97.83q1.275.018,2.552-.054c.059.038.118.074.177.111.017-.041.033-.083.05-.125a36.926,36.926,0,0,0,4.992-.672,36.185,36.185,0,0,0,1.853,3.423,40.606,40.606,0,0,1-9.288,1.209c-.073-.9-.15-1.806-.224-2.709Z" transform="translate(245.735 11131)" fill="#d7d3ea"/>
    <path id="Trazado_728242" data-name="Trazado 728242" d="M225.215,97.809l.138,1.289c.1.876.206,1.751.311,2.627a37.315,37.315,0,0,1-5.713-.472c-.189-1.408-.368-2.811-.534-4.18a32.905,32.905,0,0,0,5.8.736" transform="translate(245.735 11131)" fill="#d7d3ea"/>
    <path id="Trazado_728243" data-name="Trazado 728243" d="M226.666,105.026q-.07-1.05-.149-2.1c-.028-.4-.062-.8-.094-1.207a40.5,40.5,0,0,0,9.288-1.209l.089.141c-.034.8-.067,1.585-.1,2.35a37.658,37.658,0,0,1-9.033,2.023" transform="translate(245.735 11131)" fill="#ff9515"/>
    <path id="Trazado_728244" data-name="Trazado 728244" d="M225.664,101.725c.051.425.1.85.157,1.274q.132,1.04.271,2.078a30.1,30.1,0,0,1-5.611-.076c-.184-1.24-.362-2.494-.53-3.748a37.2,37.2,0,0,0,5.713.472" transform="translate(245.735 11131)" fill="#ff9515"/>
    <path id="Trazado_728245" data-name="Trazado 728245" d="M226.092,105.077q.219,1.627.468,3.253a19.356,19.356,0,0,1-5.616-.367c-.159-.969-.314-1.96-.462-2.962a30.173,30.173,0,0,0,5.61.076" transform="translate(245.735 11131)" fill="#d7d3ea"/>
    <path id="Trazado_728246" data-name="Trazado 728246" d="M226.856,108.3q-.08-1.638-.189-3.274A37.706,37.706,0,0,0,235.7,103c-.039.889-.077,1.751-.114,2.577a22.323,22.323,0,0,1-8.73,2.72" transform="translate(245.735 11131)" fill="#d7d3ea"/>
    <path id="Trazado_728247" data-name="Trazado 728247" d="M226.954,110.742c-.024-.815-.059-1.628-.1-2.442a22.333,22.333,0,0,0,8.73-2.72c-.081,1.8-.156,3.42-.22,4.78Z" transform="translate(245.735 11131)" fill="#ff9515"/>
    <path id="Trazado_728248" data-name="Trazado 728248" d="M226.559,108.33c.123.805.251,1.609.39,2.412l-5.479.249q-.271-1.465-.527-3.028a19.356,19.356,0,0,0,5.616.367" transform="translate(245.735 11131)" fill="#ff9515"/>
    <path id="Trazado_728249" data-name="Trazado 728249" d="M229.624,81.014c-.02-.056-.038-.112-.059-.168-.914-3.076-3.647-4.469-6.567-5.793v0a28.193,28.193,0,0,1-5.349-2.837,6.35,6.35,0,0,0-.655-.87h0q.557-.7,1.145-1.363c.043-.049.088-.1.132-.146.147-.164.295-.328.445-.489l.186-.2q.2-.213.4-.422l.213-.215q.2-.195.393-.387l.226-.217c.132-.125.265-.248.4-.371.075-.069.15-.139.226-.207q.216-.193.433-.382c.066-.057.131-.115.2-.171.212-.18.424-.358.638-.531l4.957.632,4.25-.336a3.273,3.273,0,0,1,1.757.075c2.228.722,4.1,4.078,3.91,6.036a1.636,1.636,0,0,0-.154-.369,3.673,3.673,0,0,1-.725,1.4,4.963,4.963,0,0,1-1.083.951,5.559,5.559,0,0,1-1.309.64,3.185,3.185,0,0,1-1.56.149,1.841,1.841,0,0,0,.323.332,1.9,1.9,0,0,0,.417.231,2.451,2.451,0,0,0,.946.164,3.431,3.431,0,0,0,1.8-.574,3.357,3.357,0,0,0,1.027-1.051,19.574,19.574,0,0,1-.094,3.89c-.029,4.523-.265,11.54-.531,18.2-.244-.492-.485-.993-.729-1.5a46.171,46.171,0,0,0-2.249-4.305,23.662,23.662,0,0,0-2.134-2.936,20.57,20.57,0,0,0-1.23-6.861Z" transform="translate(245.735 11131)" fill="#ffb64d"/>
    <path id="Trazado_728250" data-name="Trazado 728250" d="M225.414,91.2l.417,3.9.257,2.727.111,1.183c.074.9.152,1.806.224,2.709.033.4.067.8.1,1.206q.078,1.048.149,2.1.109,1.636.189,3.274.06,1.221.1,2.442h0c-.139-.8-.267-1.607-.39-2.412q-.249-1.625-.468-3.253-.14-1.04-.271-2.079c-.056-.424-.106-.849-.157-1.273-.1-.876-.206-1.751-.31-2.627l-.138-1.289-.28-2.616-.37-3.91c-.106-1.305-.229-2.608-.318-3.915-.008-.1-.015-.209-.023-.314.267.314.539.638.809.955.133,1.062.252,2.126.38,3.189" transform="translate(245.735 11131)" fill="#e58638"/>
    <path id="Trazado_728251" data-name="Trazado 728251" d="M236.8,74.129a3,3,0,0,1-.206.4,3.368,3.368,0,0,1-1.027,1.051,3.431,3.431,0,0,1-1.8.574,2.451,2.451,0,0,1-.946-.164,1.9,1.9,0,0,1-.417-.231,1.841,1.841,0,0,1-.323-.332,3.184,3.184,0,0,0,1.56-.149,5.54,5.54,0,0,0,1.309-.64,4.963,4.963,0,0,0,1.083-.951,3.673,3.673,0,0,0,.725-1.4,1.617,1.617,0,0,1,.154.369,2.242,2.242,0,0,1-.108,1.472" transform="translate(245.735 11131)" fill="#ff9515"/>
    <path id="Trazado_728252" data-name="Trazado 728252" d="M203.051,80.277q1.373-.153,2.8-.2l3.582,1.263a1.051,1.051,0,0,0,.472.167,2.4,2.4,0,0,0,1.918-1.047c-.1.286-.2.574-.3.862q.143-.433.3-.865c.016-.017.031-.036.046-.053a34.264,34.264,0,0,1,3.8.748A31.724,31.724,0,0,1,218.3,83.6c.778.881,2.086,3.917,3.111,5.6a3.655,3.655,0,0,0,1.075,1.206.4.4,0,0,0,.376.036.31.31,0,0,0,.419-.026l-.547-1.8c-.208-.727-.454-1.571-.706-2.4v0a4.351,4.351,0,0,0-.188-1.243,3.5,3.5,0,0,0-.138-.4c.2.13.363.238.468.313a15.55,15.55,0,0,1,2.053,2.166c.008.1.015.21.023.314.089,1.307.212,2.611.319,3.915l.369,3.91.28,2.616a32.905,32.905,0,0,1-5.8-.736c-.247-2.023-.469-3.975-.661-5.759-.168-1.322-.269-2.506-.376-3.6-.015-.147-.029-.293-.044-.436-.006-.061-.012-.124-.018-.184h0q-.057-.581-.108-1.105l-4.663,1.177-3.25.82v0l-6.574,1.659c-.2-3.582-.418-6.851-.672-9.371m7.8,3.48c-.026.118-.054.235-.079.353l.007,0c.024-.117.046-.234.072-.35m.593-2.187c-.086.273-.169.546-.246.82q.115-.411.246-.82m-.3.992c-.089.322-.17.644-.246.967.076-.323.157-.645.246-.967" transform="translate(245.735 11131)" fill="#ff9515"/>
    <path id="Trazado_728253" data-name="Trazado 728253" d="M182.668,88.684c.479,1.942,1.012,3.869,1.583,5.783.595,1.907,1.211,3.806,1.874,5.688s1.363,3.751,2.11,5.6c1.478,3.7,3.077,7.36,4.887,10.913-1.382-3.738-2.748-7.472-4.065-11.221s-2.582-7.511-3.726-11.308q-.438-1.434-.849-2.875a8.693,8.693,0,0,0,2.011-.461,8.451,8.451,0,0,0,2.577-1.582,9.414,9.414,0,0,0,1.9-2.38,13.636,13.636,0,0,0,1.191-2.776c.12-.4.223-.812.315-1.222A48.03,48.03,0,0,1,202,80.409c.347-.05.7-.093,1.052-.133.254,2.521.477,5.79.672,9.372.707,13.031,1.026,30.181.994,30.309a4.045,4.045,0,0,1-.057.825,6.99,6.99,0,0,1-4.071,4.928,8.056,8.056,0,0,1-1.813-.222,4.4,4.4,0,0,1-1.538-.751,3.824,3.824,0,0,1-1.1-1.282,2.679,2.679,0,0,1-.269-1.722,1.8,1.8,0,0,0-.355.916,2.49,2.49,0,0,0,.107,1.013,3.32,3.32,0,0,0,1.181,1.646,3.6,3.6,0,0,0,1.874.731c.1.01.209.014.314.015-2.134.338-7.477,1-19.53,1.68-2.091-4.83-2.516-10.427-2.233-15.72l-3.065.276c-1.14,5.164-.2,10.61,1.765,15.634-1.068.055-2.179.11-3.339.164-2.766-4.659-3.433-10.033-2.909-15.395l-3.356.3c-.682,5.041-.98,10.761,1.111,15.32q-1.52.063-3.128.124l.324-15.292.2-.017,21.93-2.059c-.789-1.7-1.665-3.633-2.576-5.735A129.917,129.917,0,0,1,178.665,89.6c1.219-.728,2.461-1.442,3.725-2.132q.137.609.278,1.217" transform="translate(245.735 11131)" fill="#ffb64d"/>
    <path id="Trazado_728254" data-name="Trazado 728254" d="M180.97,76.8a40.19,40.19,0,0,0,.523,5.992c.128.845.281,1.686.446,2.524q-1.948,1.048-3.827,2.163a54.059,54.059,0,0,1-1.631-9.954,19.465,19.465,0,0,1,.781-6.027,20.084,20.084,0,0,0,4.045,1.306,21.224,21.224,0,0,0-.337,4" transform="translate(245.735 11131)" fill="#ffb64d"/>
    <path id="Trazado_728255" data-name="Trazado 728255" d="M190.031,86.325a9.747,9.747,0,0,1-1.577,2.266,9.181,9.181,0,0,1-2.191,1.708,10.236,10.236,0,0,1-1.836.769q-.581-2.046-1.1-4.108a73.577,73.577,0,0,1,7.863-3.636c-.038.138-.075.276-.115.412a15.416,15.416,0,0,1-1.048,2.589" transform="translate(245.735 11131)" fill="#ffb64d"/>
    <path id="Trazado_728256" data-name="Trazado 728256" d="M182.086,81.187l-.232-1.463c-.139-.977-.265-1.957-.33-2.941a23.289,23.289,0,0,1,0-3.926,46.678,46.678,0,0,0,9.011.987q.856.434,1.74.838c-.026,1.162-.081,2.316-.179,3.462-.08.918-.195,1.83-.352,2.73a72.093,72.093,0,0,0-8.911,3.972c-.165-.733-.325-1.466-.472-2.2Z" transform="translate(245.735 11131)" fill="#ffb64d"/>
    <path id="Trazado_728257" data-name="Trazado 728257" d="M192.972,78.184a25.8,25.8,0,0,0-.2-3.278,54.316,54.316,0,0,0,6.52,2.413q1.663.5,3.35.89c-.315.037-.629.076-.939.121a49.3,49.3,0,0,0-8.847,2.153,23,23,0,0,0,.117-2.3" transform="translate(245.735 11131)" fill="#ffb64d"/>
    <path id="Trazado_728258" data-name="Trazado 728258" d="M198.678,126.039a3.6,3.6,0,0,1-1.874-.731,3.314,3.314,0,0,1-1.181-1.646,2.49,2.49,0,0,1-.107-1.013,1.8,1.8,0,0,1,.355-.916,2.673,2.673,0,0,0,.269,1.722,3.834,3.834,0,0,0,1.1,1.283,4.451,4.451,0,0,0,1.539.751,8.173,8.173,0,0,0,1.813.222h0a3.732,3.732,0,0,1-1.6.343c-.1,0-.208,0-.313-.015" transform="translate(245.735 11131)" fill="#ff9515"/>
    <path id="Trazado_728259" data-name="Trazado 728259" d="M180.97,76.8a21.224,21.224,0,0,1,.337-4l.216.048a23.3,23.3,0,0,0,0,3.927c.065.984.191,1.964.33,2.941l.232,1.463.274,1.456c.148.737.308,1.47.473,2.2q-.448.235-.894.474c-.165-.838-.318-1.679-.446-2.524a40.19,40.19,0,0,1-.523-5.992" transform="translate(245.735 11131)" fill="#ff9515"/>
    <path id="Trazado_728260" data-name="Trazado 728260" d="M190.967,86.841a9.432,9.432,0,0,1-1.9,2.38,8.455,8.455,0,0,1-2.578,1.582,8.642,8.642,0,0,1-2.011.461q.411,1.441.849,2.875c1.144,3.8,2.418,7.557,3.726,11.308s2.684,7.483,4.065,11.222c-1.81-3.553-3.409-7.21-4.887-10.914-.747-1.849-1.432-3.723-2.11-5.6s-1.279-3.781-1.874-5.688c-.57-1.914-1.1-3.841-1.583-5.783q-.143-.607-.278-1.217.47-.257.941-.507.512,2.063,1.1,4.108a10.236,10.236,0,0,0,1.836-.769,9.181,9.181,0,0,0,2.191-1.708,9.777,9.777,0,0,0,1.577-2.266,15.416,15.416,0,0,0,1.048-2.589c.04-.137.077-.274.115-.412q.638-.248,1.279-.481c-.092.41-.194.818-.315,1.223a13.6,13.6,0,0,1-1.191,2.775" transform="translate(245.735 11131)" fill="#ff9515"/>
    <path id="Trazado_728261" data-name="Trazado 728261" d="M157.061,63.042c.072-.086.143-.172.212-.26-.016.085-.033.172-.05.26h-.162" transform="translate(245.735 11131)" fill="#a49bc4"/>
    <path id="Trazado_728262" data-name="Trazado 728262" d="M174.163,112.29l3.065-.276c-.283,5.293.142,10.891,2.233,15.721q-1.679.094-3.533.19c-1.963-5.025-2.9-10.471-1.765-15.635" transform="translate(245.735 11131)" fill="#fff"/>
    <path id="Trazado_728263" data-name="Trazado 728263" d="M166.325,113l3.356-.3c-.524,5.362.143,10.736,2.909,15.395-1.625.076-3.34.152-5.154.227-2.091-4.558-1.793-10.279-1.111-15.32" transform="translate(245.735 11131)" fill="#fff"/>
    <path id="Trazado_728264" data-name="Trazado 728264" d="M248.508,133.261l.142,2.116a101.611,101.611,0,0,1-12.7,2.235,42.869,42.869,0,0,1-5.521-.709,10.523,10.523,0,0,1,.1,1.061l-6.566.377-.369-4.59a9.327,9.327,0,0,0,2.018.787c7.394,2.035,21.913-.95,22.9-1.277" transform="translate(245.735 11131)" fill="#2b2b3f"/>
    <path id="Trazado_728265" data-name="Trazado 728265" d="M226.949,110.742h0l8.412-.382,1.654-.075s-.007.586-.009,1.524c-5.115.936-8.906,5.358-10.477,10.166a24.357,24.357,0,0,0-.928,12.563,9.388,9.388,0,0,1-2.019-.787c-1.512-10.181-3-22.72-3-22.72l.886-.04Z" transform="translate(245.735 11131)" fill="#3b3b54"/>
    <path id="Trazado_728266" data-name="Trazado 728266" d="M225.606,134.539a24.346,24.346,0,0,1,.929-12.563c1.57-4.808,5.361-9.231,10.477-10.166-.006,3.442.061,11.644.8,13.218a.8.8,0,0,0,.265.309l-.022,0a4.589,4.589,0,0,0-.93,0,4.815,4.815,0,0,0-1.8.541,4.258,4.258,0,0,0-2.26,2.867c.513-.372.941-.732,1.4-1.042a11.914,11.914,0,0,1,1.381-.839,14.561,14.561,0,0,1,1.479-.674c.254-.119.525-.193.794-.311.212-.084.43-.156.653-.252,2.679.657,9.634-.6,9.73,7.636-.989.327-15.508,3.312-22.9,1.277" transform="translate(245.735 11131)" fill="#454560"/>
    <path id="Trazado_728267" data-name="Trazado 728267" d="M237.331,126.189a14.556,14.556,0,0,0-1.479.673,12.2,12.2,0,0,0-1.381.839c-.459.31-.887.671-1.4,1.042a4.257,4.257,0,0,1,2.26-2.867,4.808,4.808,0,0,1,1.8-.54,4.579,4.579,0,0,1,.929,0,.181.181,0,0,1,.023,0,3.138,3.138,0,0,1,.436.077,4.134,4.134,0,0,1,.448.125c-.063.032-.125.06-.187.086-.222.1-.44.169-.653.253-.269.118-.539.192-.793.311" transform="translate(245.735 11131)" fill="#3b3b54"/>
    <path id="Trazado_728268" data-name="Trazado 728268" d="M140.6,139.046h-2.121a101.827,101.827,0,0,1-1.386-12.824,43.1,43.1,0,0,1,1.074-5.461,10.371,10.371,0,0,1-1.065.026l.061-6.577,4.6-.063a9.462,9.462,0,0,0-.92,1.962c-2.521,7.242-.508,21.927-.247,22.936" transform="translate(245.735 11131)" fill="#2b2b3f"/>
    <path id="Trazado_728269" data-name="Trazado 728269" d="M164.307,128.439l-.014.671s-.584-.046-1.52-.11c-.594-5.167-4.755-9.243-9.448-11.13a24.345,24.345,0,0,0-12.473-1.761,9.41,9.41,0,0,1,.919-1.962c10.26-.832,22.87-1.487,22.87-1.487l-.01.487Z" transform="translate(245.735 11131)" fill="#3b3b54"/>
    <path id="Trazado_728270" data-name="Trazado 728270" d="M140.852,116.109a24.345,24.345,0,0,1,12.473,1.762c4.693,1.886,8.854,5.963,9.448,11.129-3.434-.234-11.622-.713-13.243-.077a.813.813,0,0,0-.326.244l.005-.022a4.637,4.637,0,0,0,.06-.928,4.814,4.814,0,0,0-.42-1.828,4.257,4.257,0,0,0-2.711-2.446c.337.536.668.987.947,1.466a12,12,0,0,1,.745,1.434,14.377,14.377,0,0,1,.574,1.52c.1.262.158.536.258.812.069.218.127.44.208.669-.834,2.63-.045,9.652-8.265,9.2-.261-1.009-2.275-15.694.247-22.936" transform="translate(245.735 11131)" fill="#454560"/>
    <path id="Trazado_728271" data-name="Trazado 728271" d="M148.4,128.363a14.377,14.377,0,0,0-.574-1.52,11.845,11.845,0,0,0-.745-1.434c-.278-.479-.61-.93-.946-1.466a4.254,4.254,0,0,1,2.71,2.445,4.823,4.823,0,0,1,.42,1.829,4.569,4.569,0,0,1-.06.928l0,.022a3.25,3.25,0,0,1-.106.43,4.093,4.093,0,0,1-.156.439c-.027-.065-.05-.129-.073-.192-.081-.229-.138-.451-.208-.669-.1-.276-.156-.551-.258-.812" transform="translate(245.735 11131)" fill="#3b3b54"/>
    <path id="Trazado_728272" data-name="Trazado 728272" d="M211.565,21.248a5.614,5.614,0,0,0,2.008,6.8c2.794,2.209,5.146,2.964,7.08,2.92-.333.751-.685,1.492-1.048,2.227q.148-.649.238-1.309a19.787,19.787,0,0,1-1.086,2.961q-1.281,2.406-2.764,4.684-.6.842-1.241,1.653c-1.1,1.392-2.258,2.755-3.426,4.118-1.04,1.23-2.068,2.484-3.045,3.787a40.08,40.08,0,0,1-10.034-4.533c5.321-10.828,7.425-22.851.772-26.749A4.3,4.3,0,0,0,197,17.2h0c3.418-.657,11.106,1.008,15.679,2.573a3.787,3.787,0,0,0-1.117,1.479" transform="translate(245.735 11131)" fill="#ffb64d"/>
    <path id="Trazado_728273" data-name="Trazado 728273" d="M218.758,34.842a28.315,28.315,0,0,1-2.764,4.684q1.482-2.276,2.764-4.684" transform="translate(245.735 11131)" fill="#ffa631"/>
    <path id="Trazado_728274" data-name="Trazado 728274" d="M209.435,49.41c.869-1.163,1.789-2.3,2.712-3.434,1.119-1.4,2.267-2.791,3.309-4.272a30.7,30.7,0,0,0,2.792-4.66,19.348,19.348,0,0,0,1.358-3.855c.362-.735.714-1.476,1.048-2.227a7.3,7.3,0,0,0,5.135-2.429c.339.213.686.43,1.044.65,7.425,4.567,6.793,6.473,6.793,6.473s-8.678,8.835-9.566,15.415a51.95,51.95,0,0,1-14.625-1.661" transform="translate(245.735 11131)" fill="#ffa631"/>
    <path id="Trazado_728275" data-name="Trazado 728275" d="M208.036,49.41c-.029.04-.06.078-.089.118a34.074,34.074,0,0,0-1.87,2.917c-.317-.079-.633-.161-.949-.248q1.5-1.345,2.908-2.787" transform="translate(245.735 11131)" fill="#dfdfef"/>
    <path id="Trazado_728276" data-name="Trazado 728276" d="M221.649,54.538c-4.75-.565-9.658-.778-14.455-1.831.517-.862,1.07-1.7,1.668-2.519.187-.262.38-.52.573-.778a51.961,51.961,0,0,0,14.626,1.661,7.582,7.582,0,0,0-.069,1.3,9.563,9.563,0,0,0-2.343,2.167" transform="translate(245.735 11131)" fill="#dfdfef"/>
    <path id="Trazado_728277" data-name="Trazado 728277" d="M205.128,52.2c-.986-.273-1.967-.585-2.937-.956-1.91-.774-4.028-1.613-6.145-2.588.779-1.334,1.516-2.708,2.2-4.1a40.1,40.1,0,0,0,10.034,4.533c-.082.109-.165.216-.245.326q-1.413,1.437-2.908,2.787" transform="translate(245.735 11131)" fill="#fff"/>
    <path id="Trazado_728278" data-name="Trazado 728278" d="M215.9,65.47c-.044.119-.068.186-.068.186a5.737,5.737,0,0,1-2.034,3.071l-2.393-1.655s-.075-.576-2.556-2.659c2.81-.481,5.55-1.06,8.149-1.667-.566,1.31-.95,2.325-1.1,2.724" transform="translate(245.735 11131)" fill="#ffa631"/>
    <path id="Trazado_728279" data-name="Trazado 728279" d="M190.535,73.844a46.757,46.757,0,0,1-9.012-.988l-.216-.048a20.084,20.084,0,0,1-4.045-1.306c-.2-.1-.3-.151-.3-.151a27.321,27.321,0,0,1-.519-4.239q1.825-.411,3.618-.934a36,36,0,0,0,10.471,7.666" transform="translate(245.735 11131)" fill="#ffa631"/>
    <path id="Trazado_728280" data-name="Trazado 728280" d="M180.064,66.178q-1.794.521-3.618.933a47.324,47.324,0,0,1,.063-6.192c.039.025.08.047.12.072a19.511,19.511,0,0,0,3.435,5.187" transform="translate(245.735 11131)" fill="#ffb64d"/>
    <path id="Trazado_728281" data-name="Trazado 728281" d="M217,62.747c-2.6.606-5.34,1.186-8.15,1.667-1.116-.937-2.725-2.182-5.027-3.813a105.665,105.665,0,0,0,14.717-1.124c-.6,1.164-1.119,2.3-1.54,3.27" transform="translate(245.735 11131)" fill="#dfdfef"/>
    <path id="Trazado_728282" data-name="Trazado 728282" d="M176.509,60.919c0-.058.009-.118.014-.176.035.083.07.166.106.248-.04-.025-.081-.047-.12-.072" transform="translate(245.735 11131)" fill="#fff"/>
    <path id="Trazado_728283" data-name="Trazado 728283" d="M206.09,54.687c.344-.674.715-1.332,1.1-1.98,4.8,1.053,9.705,1.266,14.455,1.831a29.052,29.052,0,0,0-3.106,4.938A105.512,105.512,0,0,1,203.826,60.6l-.069-.049c.1-.328.192-.656.3-.981a33.092,33.092,0,0,1,2.036-4.883" transform="translate(245.735 11131)" fill="#ffa631"/>
    <path id="Trazado_728284" data-name="Trazado 728284" d="M206.076,52.445c-.332.579-.651,1.166-.943,1.765a29.842,29.842,0,0,0-1.923,5.107q-.1.358-.187.718l-.378-.264c-1.123-.78-2.392-1.64-3.821-2.586a65.334,65.334,0,0,0,6.3-4.988c.315.087.631.169.948.248" transform="translate(245.735 11131)" fill="#ffa631"/>
    <path id="Trazado_728285" data-name="Trazado 728285" d="M202.191,51.24c.971.371,1.951.683,2.937.956a65.067,65.067,0,0,1-6.3,4.989c-1.71-1.131-3.65-2.385-5.857-3.777l.1-.137c.109-.07.22-.139.338-.206-.057-.013-.115-.02-.172-.028.981-1.391,1.925-2.861,2.816-4.385,2.117.976,4.235,1.814,6.145,2.588" transform="translate(245.735 11131)" fill="#ffb64d"/>
    <path id="Trazado_728286" data-name="Trazado 728286" d="M208.861,50.188c-.6.815-1.15,1.657-1.668,2.519-.389.648-.76,1.306-1.1,1.98a33.092,33.092,0,0,0-2.036,4.883c-.106.325-.2.653-.3.98l-.734-.516c.059-.239.121-.479.187-.718a29.831,29.831,0,0,1,1.923-5.106c.292-.6.611-1.186.943-1.765a33.935,33.935,0,0,1,1.87-2.918c.03-.04.06-.078.089-.118.081-.11.164-.217.246-.326.977-1.3,2-2.556,3.045-3.787,1.168-1.363,2.321-2.725,3.426-4.117q.638-.813,1.241-1.654a28.236,28.236,0,0,0,2.764-4.683,19.688,19.688,0,0,0,1.086-2.962q-.089.66-.238,1.309a19.222,19.222,0,0,1-1.358,3.855,30.537,30.537,0,0,1-2.792,4.66c-1.042,1.481-2.19,2.872-3.308,4.272-.923,1.138-1.843,2.271-2.712,3.434-.193.258-.387.516-.574.778" transform="translate(245.735 11131)" fill="#e58638"/>
    <path id="Trazado_728287" data-name="Trazado 728287" d="M220.654,30.962c-1.935.045-4.287-.71-7.08-2.919a5.615,5.615,0,0,1-2.009-6.8c.511,2.619,3.414,6.483,8.763,7.136,3.851.47,5.546-.4,6.593-1.563l.222-.043a11.006,11.006,0,0,1-1.355,1.756,7.291,7.291,0,0,1-5.134,2.429" transform="translate(245.735 11131)" fill="#e9dff4"/>
    <path id="Trazado_728288" data-name="Trazado 728288" d="M218.315,16.92c.223.163.447.321.673.47.115.076.231.15.348.223a12.1,12.1,0,0,0-.707,2.056,3.129,3.129,0,0,0,.545,2.6c.749,1,1.892,2.451,2.918,3.656a3.453,3.453,0,0,0,3.156,1.176c.59-.09,1.144-.182,1.673-.282-1.046,1.166-2.742,2.033-6.592,1.563-5.349-.653-8.252-4.517-8.764-7.136a3.8,3.8,0,0,1,1.118-1.479c.839-.722,1.826-1.214,2.269-2.244a1.961,1.961,0,0,1,2.285-1.167,2.607,2.607,0,0,1,.324.111,2.513,2.513,0,0,1,.579.324l.175.127" transform="translate(245.735 11131)" fill="#f9f5ff"/>
    <path id="Trazado_728289" data-name="Trazado 728289" d="M1.726,83.092A63.309,63.309,0,0,0,20.593,101.3a57.164,57.164,0,0,0,20.5,7.609,65.007,65.007,0,0,0,33.978-3.49c1.87-.765,3.733-1.677,5.534-2.558A75.316,75.316,0,0,1,87.67,99.7c6.329-2.323,16.114-4.428,35.77-.04,1.035.231,2.072.47,3.113.71,7.981,1.839,16.234,3.741,24.116,2.048,6.707-1.442,12.689-5.406,18.474-9.239l.983-.651c2.538-1.678,5.2-3.4,7.986-5.044,1.252-.74,2.528-1.465,3.827-2.163q.445-.24.894-.474a72.3,72.3,0,0,1,8.91-3.973c.369-.133.74-.264,1.112-.39a49.3,49.3,0,0,1,8.847-2.154c.31-.044.623-.083.939-.12q1.342.313,2.687.556a8.039,8.039,0,0,0,.131,1.179l.388.137c-.947.028-1.881.094-2.8.195-.354.039-.705.082-1.052.132a48,48,0,0,0-9.526,2.435c-.428.155-.854.316-1.279.48a73.774,73.774,0,0,0-7.863,3.636q-.472.252-.941.507-1.9,1.035-3.725,2.133c-2.564,1.531-5.028,3.124-7.381,4.679l-.981.65c-5.947,3.941-12.1,8.017-19.193,9.542-8.339,1.792-16.823-.164-25.029-2.055-1.035-.239-2.069-.477-3.1-.706-10.045-2.243-23.055-4.273-34.589-.038a73.211,73.211,0,0,0-6.867,3.075c-1.832.9-3.727,1.824-5.662,2.615a66.557,66.557,0,0,1-24.3,4.513,65.392,65.392,0,0,1-10.824-.9A59.269,59.269,0,0,1,19.5,103.09,65.405,65.405,0,0,1,0,84.288Z" transform="translate(245.735 11131)" fill="#fff"/>
    <path id="Trazado_728290" data-name="Trazado 728290" d="M287.719,104.5l-2.091.43a23.379,23.379,0,0,0-4.315-7.191l-.153-2.982c2.547,1.944,4.709,5.159,6.559,9.743" transform="translate(245.735 11131)" fill="#fff"/>
    <path id="Trazado_728291" data-name="Trazado 728291" d="M273.233,93.61c-.01-.059-.02-.116-.03-.173l-.008-.051v0l-.006-.035h.1c-.019.084-.036.169-.053.256" transform="translate(245.735 11131)" fill="#fff"/>
    <path id="Trazado_728292" data-name="Trazado 728292" d="M276.193,94.062c-.008-.034-.013-.067-.02-.1-.039-.277-.084-.544-.138-.8.166-.02.321-.041.468-.061a5.473,5.473,0,0,0-.31.96" transform="translate(245.735 11131)" fill="#fff"/>
    <path id="Trazado_728293" data-name="Trazado 728293" d="M233.858,97.09c-.174-.357-.345-.714-.514-1.068a44.987,44.987,0,0,0-2.143-4.111,21.676,21.676,0,0,0-2.4-3.191.458.458,0,0,0,.417-.1c.307.188.441-.047.441-.047l-.344-.545-.005-.013c-.2-.321-.462-.731-.75-1.184l-.013-.02c-.172-.269-.354-.553-.543-.846v0q-.414-.814-.851-1.609a24.55,24.55,0,0,1,3.7,3.521,23.493,23.493,0,0,1,2.135,2.936,46.387,46.387,0,0,1,2.248,4.3c.245.511.485,1.012.729,1.505a29.233,29.233,0,0,0,1.723,3.092c.947,1.445,3.546,4.812,7.235,4.856a11.2,11.2,0,0,0,5.162-1.623c2-1.062,3.981-2.32,5.9-3.536,3.89-2.469,7.906-5.016,12.467-6.207.2-.052.4-.1.6-.147a12.22,12.22,0,0,0-.492,2.3c-4.056,1.145-7.655,3.425-11.444,5.831-1.949,1.238-3.964,2.517-6.037,3.617a13.121,13.121,0,0,1-6.172,1.869c-3.308-.039-6.577-2.156-8.967-5.806-.045-.069-.088-.14-.132-.209-.03-.047-.06-.094-.089-.141a36.072,36.072,0,0,1-1.854-3.423" transform="translate(245.735 11131)" fill="#fff"/>
    <path id="Trazado_728294" data-name="Trazado 728294" d="M214.487,79.3l0,.014.026.012a4.63,4.63,0,0,0,.927,1.628l.227.2a34.45,34.45,0,0,0-3.8-.748,9.832,9.832,0,0,0,.993-1.415c.641.126,1.191.23,1.627.311" transform="translate(245.735 11131)" fill="#fff"/>
    <path id="Trazado_728295" data-name="Trazado 728295" d="M213.574,72.37a7.234,7.234,0,0,1,2.243-2.249,13.579,13.579,0,0,1-.673,3.418q-.8-.593-1.57-1.169" transform="translate(245.735 11131)" fill="#ff8500"/>
    <path id="Trazado_728296" data-name="Trazado 728296" d="M209.429,81.344l.473.167a1.051,1.051,0,0,1-.473-.167" transform="translate(245.735 11131)" fill="#ff8500"/>
    <path id="Trazado_728297" data-name="Trazado 728297" d="M210.74,78.56c.778.164,1.492.309,2.12.432a9.845,9.845,0,0,1-.993,1.416l-.045.053,0,0a2.4,2.4,0,0,1-1.918,1.048s.286-1.257.838-2.951" transform="translate(245.735 11131)" fill="#ff8500"/>
    <path id="Trazado_728298" data-name="Trazado 728298" d="M227.584,88.666c.282.5.531.953.715,1.287l0,.012Z" transform="translate(245.735 11131)" fill="#fad2c6"/>
    <path id="Trazado_728299" data-name="Trazado 728299" d="M229.31,88.012l.005.013-.755-1.2c.288.452.547.862.75,1.184" transform="translate(245.735 11131)" fill="#fad2c6"/>
    <path id="Trazado_728300" data-name="Trazado 728300" d="M228.326,82.805c.407.478.763.9,1.021,1.206a.184.184,0,0,1,.011.019Z" transform="translate(245.735 11131)" fill="#fad2c6"/>
    <path id="Trazado_728301" data-name="Trazado 728301" d="M228.326,82.805l1.032,1.225.344.407s-.087.209-.375.116c-.226-.072-.575-.33-1.1-1.018-.24-.324.1-.732.1-.732Z" transform="translate(245.735 11131)" fill="#d69d8e"/>
    <path id="Trazado_728302" data-name="Trazado 728302" d="M228.389,87.537c-.18-.347.157-.728.158-.729l.012.02.756,1.2.344.545s-.134.235-.441.047a2.818,2.818,0,0,1-.829-1.08" transform="translate(245.735 11131)" fill="#d69d8e"/>
    <path id="Trazado_728303" data-name="Trazado 728303" d="M227.584,88.666l.719,1.3.285.514s-.131.2-.416.017a2.938,2.938,0,0,1-.821-1.143c-.172-.353.223-.7.224-.7Z" transform="translate(245.735 11131)" fill="#d69d8e"/>
    <path id="Trazado_728304" data-name="Trazado 728304" d="M225.5,82.216a9,9,0,0,0-1.406-1.7,7.981,7.981,0,0,0-1.847-1.241,5.814,5.814,0,0,1,2.018,1.042,6.512,6.512,0,0,1,.827.8q.367.442.687.914c.3.447.573.9.838,1.365q.165.288.326.578c.071.127.139.256.209.384q.437.8.851,1.609v0q-.68-.9-1.285-1.856c-.41-.631-.8-1.273-1.217-1.889" transform="translate(245.735 11131)" fill="#eab3a2"/>
    <path id="Trazado_728305" data-name="Trazado 728305" d="M225.259,84.921c-.44-.608-.875-1.217-1.352-1.787a10.6,10.6,0,0,0-1.568-1.566,8.138,8.138,0,0,0-1.924-1.127,5.919,5.919,0,0,1,2.079.916,8.4,8.4,0,0,1,1.672,1.562,17,17,0,0,1,1.312,1.856c.4.639.768,1.3,1.123,1.964-.465-.6-.907-1.206-1.342-1.818" transform="translate(245.735 11131)" fill="#eab3a2"/>
    <path id="Trazado_728306" data-name="Trazado 728306" d="M215.436,80.958a4.64,4.64,0,0,1-.927-1.628l-.026-.012,0-.014c-.436-.081-.986-.185-1.627-.311s-1.342-.268-2.12-.432a25.545,25.545,0,0,1,2.834-6.191q.772.577,1.57,1.169l.162.119,0,0,.282.208c.475.212,7.48,3.343,8.914,4.7.884.837,2.587,2.791,3.819,4.235,0,0-.339.408-.1.732a2.779,2.779,0,0,0,1.1,1.018.39.39,0,0,1-.335.117,3.56,3.56,0,0,1-1.519-.658c-.266-.181-.555-.393-.855-.62-.265-.462-.54-.919-.838-1.365-.213-.314-.442-.62-.687-.914a6.454,6.454,0,0,0-.827-.8,5.84,5.84,0,0,0-2.018-1.042,8.023,8.023,0,0,1,1.847,1.241,9.067,9.067,0,0,1,1.406,1.7c.418.616.807,1.259,1.217,1.889s.832,1.254,1.285,1.857l.544.846s-.338.382-.158.729a2.829,2.829,0,0,0,.828,1.08.456.456,0,0,1-.416.1.493.493,0,0,1-.072-.016,4.038,4.038,0,0,1-1.17-.781c-.273-.246-.569-.536-.876-.848.314.548.619,1.087.892,1.575,0,0-.4.35-.224.7a2.951,2.951,0,0,0,.821,1.142.4.4,0,0,1-.379.052,3.663,3.663,0,0,1-1.314-.925c-.44-.446-.939-1.018-1.446-1.614-.27-.317-.542-.64-.809-.955a15.55,15.55,0,0,0-2.053-2.166c-.105-.075-.267-.183-.468-.313a5.593,5.593,0,0,0-.386-.76,4.47,4.47,0,0,0-.823-.969,3.334,3.334,0,0,0-1.07-.664,7.282,7.282,0,0,1,.885.85,7.019,7.019,0,0,1,.723.963,7.57,7.57,0,0,1,.562,1.066c.088.183.15.377.228.567s.126.388.206.583c.252.832.5,1.675.706,2.4,0,0-.517.376-.429.718a2.008,2.008,0,0,0,.558,1.1.4.4,0,0,1-.377-.036,3.655,3.655,0,0,1-1.075-1.206c-1.024-1.678-2.333-4.713-3.11-5.6a31.8,31.8,0,0,0-2.638-2.442l-.227-.2m10.041,3.817a16.964,16.964,0,0,0-1.312-1.856,8.4,8.4,0,0,0-1.671-1.562,5.9,5.9,0,0,0-2.08-.915,8.118,8.118,0,0,1,1.924,1.127,10.41,10.41,0,0,1,1.568,1.566c.477.57.913,1.178,1.352,1.786s.878,1.223,1.343,1.818c-.356-.666-.723-1.324-1.124-1.964" transform="translate(245.735 11131)" fill="#fad2c6"/>
    <path id="Trazado_728307" data-name="Trazado 728307" d="M222.3,89.33c-.089-.341.428-.717.429-.717l.547,1.795a.309.309,0,0,1-.419.026,2.017,2.017,0,0,1-.557-1.1" transform="translate(245.735 11131)" fill="#d69d8e"/>
    <path id="Trazado_728308" data-name="Trazado 728308" d="M221.594,85.061a7.478,7.478,0,0,0-.562-1.067,7.08,7.08,0,0,0-.723-.963,7.341,7.341,0,0,0-.884-.849,3.31,3.31,0,0,1,1.069.663,4.493,4.493,0,0,1,.823.969,5.329,5.329,0,0,1,.386.761,3.437,3.437,0,0,1,.138.4,4.277,4.277,0,0,1,.188,1.243v0c-.079-.195-.132-.393-.206-.583s-.139-.384-.228-.567" transform="translate(245.735 11131)" fill="#eab3a2"/>
    <path id="Trazado_728309" data-name="Trazado 728309" d="M277.628,92.228c-.5-.087-.858.275-1.125.874-.147.02-.3.041-.468.061-.222-1.063-.586-1.865-1.172-1.967-.813-.143-1.293.853-1.578,2.158h-.1c-.187-.98-.5-1.735-1.027-1.827-.626-.11-1.019.576-1.266,1.531v0l0,0c-.123-.619-.339-1.071-.7-1.16-.512-.126-.881.4-1.148,1.157-.2.047-.4.1-.6.147l-1.192-.947c.2-.443.352-.894.513-1.328a12.743,12.743,0,0,1,.63-1.538,5.016,5.016,0,0,1,.916-1.294,6.327,6.327,0,0,1,1.368-1,3.058,3.058,0,0,0-1.769.5,3.664,3.664,0,0,0-1.244,1.424,5.5,5.5,0,0,0-.528,1.759,8,8,0,0,0-.063,1.338c-.808-.641-1.715-1.359-2.687-2.127q-.627-.5-1.287-1.015a28.593,28.593,0,0,1,6.007-5.6l1.193,1.457,1.854,2.262a30.962,30.962,0,0,1,8.139,2.347c.29.135.577,2.446.76,4.7-.271-.045-1.242-.175-1.505.23-.3.465.386,3.361,1.7,3.437,0,.452-.016.726-.06.715a3.45,3.45,0,0,1-2.165-1.683c-.08-2.062-.391-4.435-1.4-4.613" transform="translate(245.735 11131)" fill="#fad2c6"/>
    <path id="Trazado_728310" data-name="Trazado 728310" d="M279.555,94.373c.263-.4,1.234-.275,1.5-.23.044.007.071.013.071.013l.031.6.152,2.982,0,.077c-.022,0-.044,0-.065,0-1.312-.075-2-2.972-1.7-3.436" transform="translate(245.735 11131)" fill="#e8bdb3"/>
    <path id="Trazado_728311" data-name="Trazado 728311" d="M276.5,94.466c.069-.706.3-1.986,1.086-1.9.608.069.711,1.343.721,2.03a.567.567,0,0,1-.505.578,2.518,2.518,0,0,1-.875-.1.58.58,0,0,1-.427-.612" transform="translate(245.735 11131)" fill="#ce9891"/>
    <path id="Trazado_728312" data-name="Trazado 728312" d="M276.355,98.266c.041-.478.053-.956.06-1.434s-.013-.957-.051-1.435a10.884,10.884,0,0,0-.172-1.335,5.613,5.613,0,0,1,.311-.96c.266-.6.629-.961,1.124-.873,1.008.178,1.32,2.551,1.4,4.613.063,1.63-.02,3.065-.02,3.065-.3.883-2.056.584-2.85-.208a10.511,10.511,0,0,0,.2-1.433m.571-3.188a2.518,2.518,0,0,0,.875.1.567.567,0,0,0,.505-.578c-.01-.687-.112-1.961-.721-2.03-.783-.09-1.016,1.19-1.086,1.9a.58.58,0,0,0,.427.612" transform="translate(245.735 11131)" fill="#e8bdb3"/>
    <path id="Trazado_728313" data-name="Trazado 728313" d="M275.044,94.357a2.658,2.658,0,0,1-.934-.105.619.619,0,0,1-.455-.655c.076-.758.328-2.13,1.163-2.036.65.074.757,1.439.767,2.176a.609.609,0,0,1-.541.62" transform="translate(245.735 11131)" fill="#ce9891"/>
    <path id="Trazado_728314" data-name="Trazado 728314" d="M273.229,97.545c.057-.459.086-.92.108-1.381s.021-.923,0-1.386a9.564,9.564,0,0,0-.134-1.341c.01.058.022.115.03.173.018-.086.035-.172.053-.256.285-1.3.766-2.3,1.578-2.158.585.1.95.9,1.172,1.968.054.253.1.52.138.8a10.516,10.516,0,0,0-.2,1.434c-.04.478-.053.956-.059,1.434s.012.956.051,1.435a10.671,10.671,0,0,0,.19,1.434c-.639.671-2.549.158-3.123-.8l-.051.022a9.9,9.9,0,0,0,.247-1.372m1.59-5.983c-.837-.094-1.089,1.278-1.164,2.035a.62.62,0,0,0,.454.656,2.69,2.69,0,0,0,.935.105.61.61,0,0,0,.541-.621c-.011-.736-.116-2.1-.766-2.175" transform="translate(245.735 11131)" fill="#e8bdb3"/>
    <path id="Trazado_728315" data-name="Trazado 728315" d="M272.773,93.682a.516.516,0,0,1-.458.526,2.258,2.258,0,0,1-.793-.089.525.525,0,0,1-.385-.556c.064-.642.277-1.806.986-1.726.551.062.642,1.221.65,1.845" transform="translate(245.735 11131)" fill="#ce9891"/>
    <path id="Trazado_728316" data-name="Trazado 728316" d="M269.045,93.056c.267-.761.637-1.284,1.15-1.157.359.088.575.541.7,1.16a8.364,8.364,0,0,0-.229,1.278c-.052.427-.074.855-.09,1.284s-.007.857.021,1.286a8.639,8.639,0,0,0,.16,1.291,8.533,8.533,0,0,0,.229-1.28c.051-.428.073-.856.09-1.284s.008-.857-.02-1.287a8.38,8.38,0,0,0-.161-1.289c.249-.955.642-1.641,1.268-1.531.525.092.839.847,1.025,1.828,0,.011,0,.023.007.034a9.668,9.668,0,0,0-.248,1.374c-.057.46-.085.92-.108,1.382s-.019.923,0,1.385a9.891,9.891,0,0,0,.14,1.387,2.338,2.338,0,0,1-2.3-.75c-.615.5-2.366-.247-2.3-1.182.024-.313.072-.932.165-1.634a12.307,12.307,0,0,1,.493-2.295m3.078-1.219c-.708-.08-.922,1.084-.986,1.726a.525.525,0,0,0,.386.556,2.227,2.227,0,0,0,.792.089.515.515,0,0,0,.458-.526c-.008-.624-.1-1.783-.65-1.845m-2.022.439c-.6-.11-.855.876-.947,1.423a.45.45,0,0,0,.3.5,1.94,1.94,0,0,0,.674.123.444.444,0,0,0,.424-.425c.03-.536.02-1.534-.449-1.62" transform="translate(245.735 11131)" fill="#e8bdb3"/>
    <path id="Trazado_728317" data-name="Trazado 728317" d="M270.55,93.9a.444.444,0,0,1-.424.424,1.946,1.946,0,0,1-.675-.122.453.453,0,0,1-.3-.5c.093-.547.344-1.533.948-1.422.469.085.478,1.084.449,1.62" transform="translate(245.735 11131)" fill="#ce9891"/>
    <path id="Trazado_728318" data-name="Trazado 728318" d="M267.08,92.115a8.12,8.12,0,0,1,.063-1.339,5.5,5.5,0,0,1,.528-1.758,3.66,3.66,0,0,1,1.245-1.424,3.037,3.037,0,0,1,1.767-.5,6.375,6.375,0,0,0-1.367,1,4.975,4.975,0,0,0-.916,1.295,13.179,13.179,0,0,0-.631,1.538c-.16.433-.31.885-.512,1.328-.047.1-.1.209-.15.312q-.02-.228-.027-.453" transform="translate(245.735 11131)" fill="#e8bdb3"/>
    <path id="Trazado_728319" data-name="Trazado 728319" d="M275.966,98.264c-.038-.478-.048-.956-.051-1.435s.018-.956.059-1.434a10.382,10.382,0,0,1,.2-1.434c.007.034.012.067.019.1a10.868,10.868,0,0,1,.172,1.334c.038.478.047.957.05,1.435s-.018.956-.059,1.434a10.511,10.511,0,0,1-.2,1.433h0a10.511,10.511,0,0,1-.19-1.434" transform="translate(245.735 11131)" fill="#ce9891"/>
    <path id="Trazado_728320" data-name="Trazado 728320" d="M272.841,97.53c-.022-.463-.015-.924,0-1.386s.05-.922.108-1.382a9.773,9.773,0,0,1,.247-1.373v0l.008.051a10.188,10.188,0,0,1,.134,1.34c.022.463.014.925,0,1.386s-.051.922-.109,1.382a9.743,9.743,0,0,1-.246,1.371v0a9.921,9.921,0,0,1-.14-1.387" transform="translate(245.735 11131)" fill="#ce9891"/>
    <path id="Trazado_728321" data-name="Trazado 728321" d="M270.895,93.058a8.627,8.627,0,0,1,.159,1.289c.029.429.028.858.022,1.287s-.04.856-.092,1.284a8.655,8.655,0,0,1-.227,1.28,8.4,8.4,0,0,1-.161-1.291c-.029-.429-.028-.858-.02-1.287s.037-.856.088-1.283a8.489,8.489,0,0,1,.229-1.278l0,0v0" transform="translate(245.735 11131)" fill="#ce9891"/>
    <path id="Trazado_728322" data-name="Trazado 728322" d="M289.047,104.224l-.019,4.65-3.044.626-1.444-4.349,1.088-.224,2.09-.43Z" transform="translate(245.735 11131)" fill="#7a7a9e"/>
    <path id="Trazado_728323" data-name="Trazado 728323" d="M289.028,108.873s2.762,3.508,5.37,6.8c-.992-.724-2-1.432-2.909-2.244-.248.915.4,1.779.455,2.678-1.285-1.429-1.987-3.191-2.972-4.637a36.859,36.859,0,0,1-.133,8.121,49.9,49.9,0,0,0-1.278-6.537c-.231,1.215-.778,2.148-1.008,3.363l-.207-3.594c-1.214,1.761-2.311,3.515-3.591,5.133l3.229-8.459Z" transform="translate(245.735 11131)" fill="#fff"/>
    <path id="Trazado_728324" data-name="Trazado 728324" d="M263.107,88.972c-.626.75-1,1.252-1,1.252l-.366-.344L258.676,87c1.116-4.766,6.5-7.641,9.155-8.791.9-.39,1.487-.582,1.487-.582l2.8,4.569a7.294,7.294,0,0,0-3.006,1.18,28.586,28.586,0,0,0-6.006,5.6m5.816-9.244a.88.88,0,1,0,.929.828.88.88,0,0,0-.929-.828" transform="translate(245.735 11131)" fill="#ffa631"/>
    <path id="Trazado_728325" data-name="Trazado 728325" d="M269.024,81.485a.88.88,0,1,1,.828-.929.88.88,0,0,1-.828.929" transform="translate(245.735 11131)" fill="#fff"/>
    <path id="Trazado_728326" data-name="Trazado 728326" d="M202.646,59.771c.13.09.251.176.377.264q.378.264.734.516l.07.049c2.3,1.631,3.91,2.877,5.027,3.813,2.481,2.083,2.556,2.659,2.556,2.659s-6.311,5.668-6.081,11.693q-1.344-.242-2.688-.556-1.683-.392-3.35-.89c4.386-4.006,4.849-11.5,3.355-17.548" transform="translate(245.735 11131)" fill="#ff8500"/>
    <path id="Trazado_728327" data-name="Trazado 728327" d="M198.247,44.551c-.685,1.394-1.422,2.768-2.2,4.1-.89,1.523-1.835,2.994-2.816,4.384a3,3,0,0,0-1.757.348,4.542,4.542,0,0,0-1.508,1.292,5.012,5.012,0,0,0-.863,1.762,3.849,3.849,0,0,0-.13.98l.006.247c.011.083.021.166.037.248a1.865,1.865,0,0,0,.145.471,8.982,8.982,0,0,1,.766-1.616,14.138,14.138,0,0,1,.938-1.41,9.911,9.911,0,0,1,1.108-1.244,7.166,7.166,0,0,1,1.093-.844c-.033.045-.065.092-.1.137,2.207,1.392,4.148,2.646,5.858,3.777,1.429.946,2.7,1.806,3.821,2.586,1.495,6.051,1.031,13.543-3.355,17.549a54.725,54.725,0,0,1-6.52-2.413,25.594,25.594,0,0,1,.2,3.277,23.029,23.029,0,0,1-.116,2.3q-.56.189-1.112.39c.157-.9.272-1.812.352-2.73.1-1.146.153-2.3.179-3.462q-.882-.4-1.74-.838a35.981,35.981,0,0,1-10.47-7.665,19.543,19.543,0,0,1-3.436-5.188c-.036-.082-.071-.165-.106-.248a13.485,13.485,0,0,1-.888-7.724C177.815,40.968,188.611,16.834,197,17.2a4.3,4.3,0,0,1,2.016.6c6.653,3.9,4.549,15.921-.772,26.749" transform="translate(245.735 11131)" fill="#ff9515"/>
    <path id="Trazado_728328" data-name="Trazado 728328" d="M211.409,67.072h0l2.393,1.655,2.015,1.394a7.2,7.2,0,0,0-2.243,2.249,25.582,25.582,0,0,0-2.835,6.19c-.552,1.694-.838,2.951-.838,2.951l-.473-.167-3.581-1.263-.389-.137a8.177,8.177,0,0,1-.13-1.179c-.23-6.025,6.081-11.693,6.081-11.693m.489,2.085a.88.88,0,1,0,1.184.382.879.879,0,0,0-1.184-.382" transform="translate(245.735 11131)" fill="#ffb64d"/>
    <path id="Trazado_728329" data-name="Trazado 728329" d="M212.7,70.723a.88.88,0,1,1,.382-1.184.88.88,0,0,1-.382,1.184" transform="translate(245.735 11131)" fill="#fff"/>
    <path id="Trazado_728330" data-name="Trazado 728330" d="M193.064,53.271a7.215,7.215,0,0,0-1.093.844,9.9,9.9,0,0,0-1.107,1.244,13.975,13.975,0,0,0-.939,1.41,8.982,8.982,0,0,0-.766,1.616,1.9,1.9,0,0,1-.144-.471c-.016-.082-.027-.165-.037-.248l-.007-.247a3.941,3.941,0,0,1,.13-.98,5,5,0,0,1,.864-1.762,4.55,4.55,0,0,1,1.507-1.292,3.007,3.007,0,0,1,1.758-.348c.057.008.115.016.172.028-.119.068-.229.137-.338.206" transform="translate(245.735 11131)" fill="#e58638"/>
    <path id="Trazado_728331" data-name="Trazado 728331" d="M225.249,27.1a3.455,3.455,0,0,1-3.157-1.177c-1.025-1.2-2.169-2.655-2.918-3.655a3.125,3.125,0,0,1-.544-2.6,12.06,12.06,0,0,1,.706-2.057q-.174-.108-.348-.222l-.354-.885s-.124.149-.319.415c-.058-.043-.117-.084-.175-.128a2.541,2.541,0,0,0-.578-.323c.209-.383.384-.718.519-.982-.955-2.236-.97-5.569.389-5.45a1.8,1.8,0,0,1,.913.389q-.043-.43-.083-.868c1.076.67,1.519,1.942,2.144,3.166.287.522,1.206,1.176,1.691.749,1.3-1.016.8-3.2,1.393-4.625,1.292-3.03,5.24-2.5,7.894-1.786a8.083,8.083,0,0,1,5.358,4.1,20.1,20.1,0,0,1-1.863,4.579c-.031-.051-.059-.1-.1-.151a2.04,2.04,0,0,0-.988-.716,1.589,1.589,0,0,0-1.164.036,4.8,4.8,0,0,1,.873.538,3.01,3.01,0,0,1,.928,1.16q-.214.416-.418.826c-1.293,2.62-2.616,5.237-4.09,7.762a1.494,1.494,0,0,1-.638.6,13.015,13.015,0,0,1-3.181.982l-.222.043c-.53.1-1.084.191-1.673.282m2.024-3.576a1.029,1.029,0,0,0-.22-.449,1.427,1.427,0,0,0-.365-.324,1.355,1.355,0,0,0-.452-.184.956.956,0,0,0-.5.01,3.162,3.162,0,0,0,.364.306c.118.089.236.168.357.243s.245.147.379.213a2.577,2.577,0,0,0,.44.185m-.57-7.711c-.017.423.258.693.615.6a1.006,1.006,0,0,0,.665-.812c.408.186.733.316.733.316a1.847,1.847,0,0,0-2.334-1.3,1.939,1.939,0,0,0,.629.492,1.1,1.1,0,0,0-.308.7M219.462,11.9a.677.677,0,0,0-.483-.186.841.841,0,0,1,.286.354c.074.137.141.277.206.414a7.774,7.774,0,0,1,.331.834c.02.06.035.121.053.181a.615.615,0,0,0-.123-.048.6.6,0,0,0-.351.022.485.485,0,0,0-.277.254,3.094,3.094,0,0,0,.289.162.988.988,0,0,0,.45.105c.044,0,.09,0,.143,0,.015.066.032.131.046.2.065.3.108.6.163.938a2.208,2.208,0,0,0,.254-.97,2.81,2.81,0,0,0-.143-1,2.853,2.853,0,0,0-.484-.892,2.648,2.648,0,0,0-.36-.358m9.573-.107a3.288,3.288,0,0,0-1.5-.516,2.611,2.611,0,0,0-1.59.364,1.865,1.865,0,0,0-.905,1.27,3.023,3.023,0,0,1,1.183-.687,3.272,3.272,0,0,1,1.247-.129,5.535,5.535,0,0,1,1.284.277,8.428,8.428,0,0,1,1.317.554,2.677,2.677,0,0,0-1.036-1.133m3.562,5.74a1.1,1.1,0,0,0-.308.7c-.018.423.257.693.615.6a1.006,1.006,0,0,0,.665-.812c.408.186.733.316.733.316a1.847,1.847,0,0,0-2.334-1.3,1.928,1.928,0,0,0,.629.492m-2.164,2.694a.949.949,0,0,0,.448-.712,2.118,2.118,0,0,0-.069-.722,5.864,5.864,0,0,1-.127-.591,2.64,2.64,0,0,1,.025-.569,4.662,4.662,0,0,1,.114-.579c.055-.191.111-.383.185-.572s.164-.376.252-.564c.362-.744.826-1.457,1.246-2.2a10.544,10.544,0,0,0-1.643,1.987,5.727,5.727,0,0,0-.318.575,3.769,3.769,0,0,0-.257.622,3.379,3.379,0,0,0-.151,1.37,6.037,6.037,0,0,0,.151.652,1.636,1.636,0,0,1,.071.536.41.41,0,0,1-.2.333,1,1,0,0,1-.483.119,5.274,5.274,0,0,1-2.31-.66,2.759,2.759,0,0,0,2.326,1.17,1.492,1.492,0,0,0,.737-.19m-1.541,1.839a1.321,1.321,0,0,0-.872-.362L227.7,21.7l-.094-.176a1.329,1.329,0,0,0-.9-.687,5.016,5.016,0,0,1-2.451-.924,6.534,6.534,0,0,0,5.423,3.055c.132,0-.4-.53-.789-.9" transform="translate(245.735 11131)" fill="#f1bcb4"/>
    <path id="Trazado_728332" data-name="Trazado 728332" d="M232.422,7.062c-2.654-.718-6.6-1.244-7.894,1.785-.594,1.427-.093,3.61-1.393,4.626-.485.426-1.4-.227-1.692-.749-.625-1.224-1.068-2.5-2.143-3.167-.272-3.135-.228-6.533,2.823-8.23a10.19,10.19,0,0,1,2.649-1A12.089,12.089,0,0,1,234.6,2.164a9.122,9.122,0,0,1,3.414,6.979,8.71,8.71,0,0,1-.234,2.021,8.081,8.081,0,0,0-5.357-4.1" transform="translate(245.735 11131)" fill="#585252"/>
    <path id="Trazado_728333" data-name="Trazado 728333" d="M226.1,22.885a3.063,3.063,0,0,1-.364-.306.974.974,0,0,1,.5-.01,1.375,1.375,0,0,1,.453.185,1.4,1.4,0,0,1,.364.323,1.025,1.025,0,0,1,.221.449,2.577,2.577,0,0,1-.44-.185,4.315,4.315,0,0,1-.379-.212c-.121-.076-.239-.154-.357-.244" transform="translate(245.735 11131)" fill="#b26b5e"/>
    <path id="Trazado_728334" data-name="Trazado 728334" d="M224.258,19.91a4.991,4.991,0,0,0,2.451.924,1.334,1.334,0,0,1,.9.687l.094.176.322.01a1.322,1.322,0,0,1,.872.361c.387.367.921.895.789.9a6.532,6.532,0,0,1-5.423-3.055" transform="translate(245.735 11131)" fill="#b26b5e"/>
    <path id="Trazado_728335" data-name="Trazado 728335" d="M227.37,19.248a5.27,5.27,0,0,0,2.31.66,1,1,0,0,0,.483-.118.407.407,0,0,0,.2-.333,1.635,1.635,0,0,0-.069-.537,5.962,5.962,0,0,1-.153-.652,3.409,3.409,0,0,1,.151-1.369,3.824,3.824,0,0,1,.258-.622,5.732,5.732,0,0,1,.317-.576,10.626,10.626,0,0,1,1.644-1.987c-.42.748-.883,1.461-1.247,2.206-.087.187-.173.374-.252.563s-.13.382-.184.572a4.487,4.487,0,0,0-.114.579,2.712,2.712,0,0,0-.026.569c.02.174.078.376.127.591a2.1,2.1,0,0,1,.069.723.949.949,0,0,1-.446.711,1.478,1.478,0,0,1-.739.19,2.754,2.754,0,0,1-2.325-1.17" transform="translate(245.735 11131)" fill="#b26b5e"/>
    <path id="Trazado_728336" data-name="Trazado 728336" d="M234.542,15.451a4.884,4.884,0,0,0-.872-.539,1.591,1.591,0,0,1,1.163-.035,2.031,2.031,0,0,1,.988.716c.036.048.064.1.1.151a2.027,2.027,0,0,1,.3,1,1.582,1.582,0,0,1-.372,1.1,4.964,4.964,0,0,0-.264-.991c-.034-.087-.076-.166-.115-.247a3.01,3.01,0,0,0-.928-1.16" transform="translate(245.735 11131)" fill="#4b3c4f"/>
    <path id="Trazado_728337" data-name="Trazado 728337" d="M227.469,12.1a3.276,3.276,0,0,0-1.247.129,3.039,3.039,0,0,0-1.183.686,1.861,1.861,0,0,1,.906-1.269,2.6,2.6,0,0,1,1.589-.364,3.3,3.3,0,0,1,1.5.516,2.665,2.665,0,0,1,1.036,1.133,8.279,8.279,0,0,0-1.317-.554,5.532,5.532,0,0,0-1.285-.277" transform="translate(245.735 11131)" fill="#4b3c4f"/>
    <path id="Trazado_728338" data-name="Trazado 728338" d="M219.821,12.26a2.832,2.832,0,0,1,.484.892,2.79,2.79,0,0,1,.143,1,2.206,2.206,0,0,1-.253.969c-.055-.333-.1-.639-.163-.938-.014-.066-.031-.131-.046-.2l-.144,0a1.02,1.02,0,0,1-.231-.026,1.1,1.1,0,0,1-.219-.079,3.1,3.1,0,0,1-.288-.162.484.484,0,0,1,.276-.254.568.568,0,0,1,.475.026c-.018-.06-.034-.121-.054-.181a7.649,7.649,0,0,0-.331-.834c-.064-.137-.131-.277-.206-.414a.843.843,0,0,0-.285-.353.679.679,0,0,1,.483.185,2.7,2.7,0,0,1,.359.358" transform="translate(245.735 11131)" fill="#b26b5e"/>
    <path id="Trazado_728339" data-name="Trazado 728339" d="M226.382,14.622a1.849,1.849,0,0,1,2.334,1.3s-.325-.13-.733-.316a1,1,0,0,1-.665.812c-.358.089-.633-.181-.615-.6a1.094,1.094,0,0,1,.308-.7,1.928,1.928,0,0,1-.629-.494" transform="translate(245.735 11131)" fill="#4b3c4f"/>
    <path id="Trazado_728340" data-name="Trazado 728340" d="M234.3,18.343s-.325-.13-.733-.316a1.007,1.007,0,0,1-.665.812c-.358.089-.633-.181-.615-.6a1.1,1.1,0,0,1,.308-.7,1.941,1.941,0,0,1-.629-.493,1.848,1.848,0,0,1,2.334,1.3" transform="translate(245.735 11131)" fill="#4b3c4f"/>
  </g>
</svg>
