<svg xmlns="http://www.w3.org/2000/svg" xmlns:xlink="http://www.w3.org/1999/xlink" width="400" height="322" viewBox="0 0 400 322">
  <defs>
    <radialGradient id="radial-gradient" cx="0.5" cy="0.5" r="0.676" gradientTransform="translate(0 -0.181) scale(1 1.361)" gradientUnits="objectBoundingBox">
      <stop offset="0" stop-color="#fff"/>
      <stop offset="1" stop-color="#d8d8d8"/>
    </radialGradient>
  </defs>
  <g id="Grupo_1010062" data-name="Grupo 1010062" transform="translate(-180 -2808)">
    <path id="AdobeStock_225800556" d="M10,0H390a10,10,0,0,1,10,10V312a10,10,0,0,1-10,10H10A10,10,0,0,1,0,312V10A10,10,0,0,1,10,0Z" transform="translate(180 2808)" fill="url(#radial-gradient)"/>
    <path id="Trazado_728949" data-name="Trazado 728949" d="M89.477,30H84.2V13.188L79.008,14.7v-4L88.992,7.25h.484Zm18.188-5.109a3,3,0,0,1,2.078.742,2.59,2.59,0,0,1,0,3.8,3.278,3.278,0,0,1-4.164-.008,2.589,2.589,0,0,1,0-3.781A2.972,2.972,0,0,1,107.664,24.891Zm0-12.469a3,3,0,0,1,2.078.742,2.59,2.59,0,0,1,0,3.8,3.278,3.278,0,0,1-4.164-.008,2.589,2.589,0,0,1,0-3.781A2.972,2.972,0,0,1,107.664,12.422ZM122.2,18.887,123.586,7.25h13.3v4.063h-9.016l-.516,4.551a6.211,6.211,0,0,1,1.477-.581,7.429,7.429,0,0,1,7,1.757,8.088,8.088,0,0,1,1.82,5.633,8.073,8.073,0,0,1-.977,3.961,6.712,6.712,0,0,1-2.742,2.727,8.657,8.657,0,0,1-4.172.953,9.315,9.315,0,0,1-4.016-.882,7.2,7.2,0,0,1-2.937-2.42,5.88,5.88,0,0,1-1.047-3.474h5.281a2.987,2.987,0,0,0,.8,1.98,2.529,2.529,0,0,0,1.891.733q2.656,0,2.656-3.929,0-3.633-3.25-3.633a3.243,3.243,0,0,0-2.75,1.185ZM164.18,20.7q0,4.609-2.07,7.109A8.09,8.09,0,0,1,150.4,27.8q-2.078-2.516-2.078-7.094V16.547q0-4.609,2.07-7.109a8.09,8.09,0,0,1,11.711.016q2.078,2.516,2.078,7.109Zm-5.266-4.828a8.114,8.114,0,0,0-.641-3.664A2.141,2.141,0,0,0,156.242,11a2.091,2.091,0,0,0-1.977,1.125,7.644,7.644,0,0,0-.664,3.406v5.813a8.175,8.175,0,0,0,.641,3.727,2.149,2.149,0,0,0,2.031,1.18,2.121,2.121,0,0,0,1.984-1.148,7.8,7.8,0,0,0,.656-3.6Zm23.8,4.828q0,4.609-2.07,7.109A8.09,8.09,0,0,1,168.93,27.8q-2.078-2.516-2.078-7.094V16.547q0-4.609,2.07-7.109a8.09,8.09,0,0,1,11.711.016q2.078,2.516,2.078,7.109Zm-5.266-4.828a8.114,8.114,0,0,0-.641-3.664A2.141,2.141,0,0,0,174.773,11a2.091,2.091,0,0,0-1.977,1.125,7.644,7.644,0,0,0-.664,3.406v5.813a8.175,8.175,0,0,0,.641,3.727,2.149,2.149,0,0,0,2.031,1.18,2.121,2.121,0,0,0,1.984-1.148,7.8,7.8,0,0,0,.656-3.6Zm23.8,4.828q0,4.609-2.07,7.109a8.09,8.09,0,0,1-11.711-.016q-2.078-2.516-2.078-7.094V16.547q0-4.609,2.07-7.109a8.09,8.09,0,0,1,11.711.016q2.078,2.516,2.078,7.109Zm-5.266-4.828a8.114,8.114,0,0,0-.641-3.664A2.141,2.141,0,0,0,193.3,11a2.091,2.091,0,0,0-1.977,1.125,7.644,7.644,0,0,0-.664,3.406v5.813a8.175,8.175,0,0,0,.641,3.727,2.149,2.149,0,0,0,2.031,1.18A2.121,2.121,0,0,0,195.32,25.1a7.8,7.8,0,0,0,.656-3.6ZM79.4,85H74.117V68.188L68.93,69.7v-4l9.984-3.453H79.4Zm16.719,1.953H92.383l7.766-24.7h3.75ZM125.1,85H119.82V68.188L114.633,69.7v-4l9.984-3.453h.484Zm22.656-9.3q0,4.609-2.07,7.109a8.09,8.09,0,0,1-11.711-.016Q131.9,80.281,131.9,75.7V71.547q0-4.609,2.07-7.109a8.09,8.09,0,0,1,11.711.016q2.078,2.516,2.078,7.109Zm-5.266-4.828a8.114,8.114,0,0,0-.641-3.664A2.141,2.141,0,0,0,139.82,66a2.091,2.091,0,0,0-1.977,1.125,7.644,7.644,0,0,0-.664,3.406v5.813a8.175,8.175,0,0,0,.641,3.727,2.149,2.149,0,0,0,2.031,1.18,2.121,2.121,0,0,0,1.984-1.148,7.8,7.8,0,0,0,.656-3.6ZM174.258,75.7q0,4.609-2.07,7.109a8.09,8.09,0,0,1-11.711-.016Q158.4,80.281,158.4,75.7V71.547q0-4.609,2.07-7.109a8.09,8.09,0,0,1,11.711.016q2.078,2.516,2.078,7.109Zm-5.266-4.828a8.114,8.114,0,0,0-.641-3.664A2.141,2.141,0,0,0,166.32,66a2.091,2.091,0,0,0-1.977,1.125,7.644,7.644,0,0,0-.664,3.406v5.813a8.175,8.175,0,0,0,.641,3.727,2.149,2.149,0,0,0,2.031,1.18,2.121,2.121,0,0,0,1.984-1.148,7.8,7.8,0,0,0,.656-3.6Zm23.8,4.828q0,4.609-2.07,7.109a8.09,8.09,0,0,1-11.711-.016q-2.078-2.516-2.078-7.094V71.547q0-4.609,2.07-7.109a8.09,8.09,0,0,1,11.711.016q2.078,2.516,2.078,7.109Zm-5.266-4.828a8.114,8.114,0,0,0-.641-3.664A2.141,2.141,0,0,0,184.852,66a2.091,2.091,0,0,0-1.977,1.125,7.644,7.644,0,0,0-.664,3.406v5.813a8.175,8.175,0,0,0,.641,3.727,2.149,2.149,0,0,0,2.031,1.18,2.121,2.121,0,0,0,1.984-1.148,7.8,7.8,0,0,0,.656-3.6Zm23.8,4.828q0,4.609-2.07,7.109a8.09,8.09,0,0,1-11.711-.016q-2.078-2.516-2.078-7.094V71.547q0-4.609,2.07-7.109a8.09,8.09,0,0,1,11.711.016q2.078,2.516,2.078,7.109Zm-5.266-4.828a8.114,8.114,0,0,0-.641-3.664A2.141,2.141,0,0,0,203.383,66a2.091,2.091,0,0,0-1.977,1.125,7.644,7.644,0,0,0-.664,3.406v5.813a8.175,8.175,0,0,0,.641,3.727,2.149,2.149,0,0,0,2.031,1.18A2.121,2.121,0,0,0,205.4,80.1a7.8,7.8,0,0,0,.656-3.6Z" transform="translate(241 2907)" fill="#12263f"/>
  </g>
</svg>
