<svg xmlns="http://www.w3.org/2000/svg" xmlns:xlink="http://www.w3.org/1999/xlink" width="400" height="322" viewBox="0 0 400 322">
  <defs>
    <radialGradient id="radial-gradient" cx="0.5" cy="0.5" r="0.676" gradientTransform="translate(0 -0.181) scale(1 1.361)" gradientUnits="objectBoundingBox">
      <stop offset="0" stop-color="#fff"/>
      <stop offset="1" stop-color="#d8d8d8"/>
    </radialGradient>
  </defs>
  <g id="Grupo_1010063" data-name="Grupo 1010063" transform="translate(-1020 -2808)">
    <path id="AdobeStock_225800556" d="M10,0H390a10,10,0,0,1,10,10V312a10,10,0,0,1-10,10H10A10,10,0,0,1,0,312V10A10,10,0,0,1,10,0Z" transform="translate(1020 2808)" fill="url(#radial-gradient)"/>
    <path id="Trazado_728950" data-name="Trazado 728950" d="M126.359,23H122.4V10.391l-3.891,1.137v-3L126,5.938h.363Zm7.664-3.832a2.248,2.248,0,0,1,1.559.557,1.943,1.943,0,0,1,0,2.848,2.459,2.459,0,0,1-3.123-.006,1.942,1.942,0,0,1,0-2.836A2.229,2.229,0,0,1,134.023,19.168Zm0-9.352a2.248,2.248,0,0,1,1.559.557,1.943,1.943,0,0,1,0,2.848,2.459,2.459,0,0,1-3.123-.006,1.942,1.942,0,0,1,0-2.836A2.229,2.229,0,0,1,134.023,9.816ZM147.465,23H143.5V10.391l-3.891,1.137v-3l7.488-2.59h.363Zm16.992-6.973a8.147,8.147,0,0,1-1.553,5.332,6.067,6.067,0,0,1-8.783-.012,8.135,8.135,0,0,1-1.559-5.32V12.91a8.147,8.147,0,0,1,1.553-5.332,6.067,6.067,0,0,1,8.783.012,8.155,8.155,0,0,1,1.559,5.332Zm-3.949-3.621a6.085,6.085,0,0,0-.48-2.748A1.606,1.606,0,0,0,158.5,8.75a1.568,1.568,0,0,0-1.482.844,5.733,5.733,0,0,0-.5,2.555v4.359A6.131,6.131,0,0,0,157,19.3a1.612,1.612,0,0,0,1.523.885,1.59,1.59,0,0,0,1.488-.861,5.853,5.853,0,0,0,.492-2.7Zm8.508,6.762a2.248,2.248,0,0,1,1.559.557,1.943,1.943,0,0,1,0,2.848,2.459,2.459,0,0,1-3.123-.006,1.942,1.942,0,0,1,0-2.836A2.229,2.229,0,0,1,169.016,19.168Zm16.594-3.141a8.147,8.147,0,0,1-1.553,5.332,6.067,6.067,0,0,1-8.783-.012,8.135,8.135,0,0,1-1.559-5.32V12.91a8.147,8.147,0,0,1,1.553-5.332,6.067,6.067,0,0,1,8.783.012,8.155,8.155,0,0,1,1.559,5.332Zm-3.949-3.621a6.085,6.085,0,0,0-.48-2.748,1.606,1.606,0,0,0-1.523-.908,1.568,1.568,0,0,0-1.482.844,5.733,5.733,0,0,0-.5,2.555v4.359a6.131,6.131,0,0,0,.48,2.795,1.612,1.612,0,0,0,1.523.885,1.59,1.59,0,0,0,1.488-.861,5.853,5.853,0,0,0,.492-2.7Zm17.848,3.621a8.147,8.147,0,0,1-1.553,5.332,6.067,6.067,0,0,1-8.783-.012,8.135,8.135,0,0,1-1.559-5.32V12.91a8.147,8.147,0,0,1,1.553-5.332,6.067,6.067,0,0,1,8.783.012,8.155,8.155,0,0,1,1.559,5.332Zm-3.949-3.621a6.085,6.085,0,0,0-.48-2.748,1.606,1.606,0,0,0-1.523-.908,1.568,1.568,0,0,0-1.482.844,5.733,5.733,0,0,0-.5,2.555v4.359a6.131,6.131,0,0,0,.48,2.795,1.612,1.612,0,0,0,1.523.885,1.59,1.59,0,0,0,1.488-.861,5.853,5.853,0,0,0,.492-2.7Zm17.848,3.621a8.147,8.147,0,0,1-1.553,5.332,6.067,6.067,0,0,1-8.783-.012,8.135,8.135,0,0,1-1.559-5.32V12.91a8.147,8.147,0,0,1,1.553-5.332,6.067,6.067,0,0,1,8.783.012,8.155,8.155,0,0,1,1.559,5.332Zm-3.949-3.621a6.085,6.085,0,0,0-.48-2.748,1.606,1.606,0,0,0-1.523-.908,1.568,1.568,0,0,0-1.482.844,5.733,5.733,0,0,0-.5,2.555v4.359a6.131,6.131,0,0,0,.48,2.795,1.612,1.612,0,0,0,1.523.885,1.59,1.59,0,0,0,1.488-.861,5.853,5.853,0,0,0,.492-2.7ZM14.058,67H11.694V55.577L8.208,56.766V54.773l5.547-2.041h.3Zm14.414-1.7a2.146,2.146,0,0,0,1.475-.518,1.768,1.768,0,0,0,.625-1.279h2.236a3.486,3.486,0,0,1-.615,1.841A4.035,4.035,0,0,1,30.63,66.7a4.656,4.656,0,0,1-2.129.5,4.505,4.505,0,0,1-3.516-1.436,5.694,5.694,0,0,1-1.3-3.965v-.244a5.6,5.6,0,0,1,1.289-3.862,4.464,4.464,0,0,1,3.516-1.45,4.341,4.341,0,0,1,3.071,1.1,3.935,3.935,0,0,1,1.245,2.886H30.571a2.173,2.173,0,0,0-.62-1.494,2,2,0,0,0-1.479-.586,2.088,2.088,0,0,0-1.777.835,4.261,4.261,0,0,0-.635,2.534v.381a4.331,4.331,0,0,0,.62,2.563A2.086,2.086,0,0,0,28.472,65.3ZM39.253,67.2A4.91,4.91,0,0,1,35.6,65.774a5.154,5.154,0,0,1-1.4-3.784V61.7a6.34,6.34,0,0,1,.61-2.827,4.645,4.645,0,0,1,1.714-1.938,4.531,4.531,0,0,1,2.461-.693,4.147,4.147,0,0,1,3.335,1.377,5.823,5.823,0,0,1,1.177,3.9v.957h-6.9a3.173,3.173,0,0,0,.874,2.07,2.624,2.624,0,0,0,1.929.762,3.213,3.213,0,0,0,2.656-1.318L43.325,65.2a4.272,4.272,0,0,1-1.694,1.47A5.3,5.3,0,0,1,39.253,67.2Zm-.283-9.053a2,2,0,0,0-1.577.684,3.543,3.543,0,0,0-.767,1.9h4.521v-.176a2.884,2.884,0,0,0-.635-1.8A1.983,1.983,0,0,0,38.97,58.143Zm8.564-1.709.068,1.221a3.8,3.8,0,0,1,3.076-1.416q3.3,0,3.359,3.779V67H51.665V60.154a2.176,2.176,0,0,0-.435-1.489,1.828,1.828,0,0,0-1.421-.483,2.287,2.287,0,0,0-2.139,1.3V67H45.3V56.434Zm11.895-2.568v2.568h1.865v1.758H59.429v5.9a1.3,1.3,0,0,0,.239.874,1.109,1.109,0,0,0,.854.269,3.656,3.656,0,0,0,.83-.1v1.836a5.844,5.844,0,0,1-1.562.225q-2.734,0-2.734-3.018V58.191H55.317V56.434h1.738V53.865ZM65.659,67H63.286V56.434h2.373ZM65.21,52.068h2.705L65.21,55.027l-1.9,0Zm5.381,4.365.068,1.1a3.8,3.8,0,0,1,3.047-1.3,2.921,2.921,0,0,1,2.9,1.621,3.748,3.748,0,0,1,3.242-1.621,3.294,3.294,0,0,1,2.6.967,4.257,4.257,0,0,1,.874,2.852V67H80.952V60.125a2.1,2.1,0,0,0-.439-1.475,1.924,1.924,0,0,0-1.455-.469,1.976,1.976,0,0,0-1.323.435,2.292,2.292,0,0,0-.718,1.138L77.026,67H74.653V60.047a1.693,1.693,0,0,0-1.9-1.865,2.089,2.089,0,0,0-2.021,1.162V67H68.354V56.434ZM90.415,67.2a4.91,4.91,0,0,1-3.657-1.421,5.154,5.154,0,0,1-1.4-3.784V61.7a6.34,6.34,0,0,1,.61-2.827,4.645,4.645,0,0,1,1.714-1.938,4.531,4.531,0,0,1,2.461-.693,4.147,4.147,0,0,1,3.335,1.377,5.822,5.822,0,0,1,1.177,3.9v.957h-6.9a3.173,3.173,0,0,0,.874,2.07,2.624,2.624,0,0,0,1.929.762,3.213,3.213,0,0,0,2.656-1.318L94.487,65.2a4.272,4.272,0,0,1-1.694,1.47A5.3,5.3,0,0,1,90.415,67.2Zm-.283-9.053a2,2,0,0,0-1.577.684,3.543,3.543,0,0,0-.767,1.9H92.31v-.176a2.884,2.884,0,0,0-.635-1.8A1.983,1.983,0,0,0,90.132,58.143Zm9.336-4.277v2.568h1.865v1.758H99.468v5.9a1.3,1.3,0,0,0,.239.874,1.109,1.109,0,0,0,.854.269,3.656,3.656,0,0,0,.83-.1v1.836a5.844,5.844,0,0,1-1.562.225q-2.734,0-2.734-3.018V58.191H95.356V56.434h1.738V53.865Zm9.209,4.736a5.872,5.872,0,0,0-.967-.078,2.177,2.177,0,0,0-2.2,1.25V67H103.14V56.434h2.266l.059,1.182a2.674,2.674,0,0,1,2.383-1.377,2.222,2.222,0,0,1,.84.137Zm.7,3.018a6.231,6.231,0,0,1,.615-2.8,4.493,4.493,0,0,1,1.729-1.914,4.87,4.87,0,0,1,2.559-.669,4.615,4.615,0,0,1,3.472,1.377,5.416,5.416,0,0,1,1.44,3.652l.01.557a6.286,6.286,0,0,1-.6,2.793,4.439,4.439,0,0,1-1.719,1.9,4.906,4.906,0,0,1-2.583.674,4.584,4.584,0,0,1-3.579-1.489,5.7,5.7,0,0,1-1.343-3.97Zm2.373.205a4.258,4.258,0,0,0,.674,2.554,2.191,2.191,0,0,0,1.875.923,2.167,2.167,0,0,0,1.87-.937,4.7,4.7,0,0,0,.669-2.744,4.2,4.2,0,0,0-.688-2.539,2.321,2.321,0,0,0-3.716-.015A4.614,4.614,0,0,0,111.753,61.824ZM130.845,67.2a4.91,4.91,0,0,1-3.657-1.421,5.154,5.154,0,0,1-1.4-3.784V61.7a6.34,6.34,0,0,1,.61-2.827,4.645,4.645,0,0,1,1.714-1.938,4.531,4.531,0,0,1,2.461-.693,4.147,4.147,0,0,1,3.335,1.377,5.823,5.823,0,0,1,1.177,3.9v.957h-6.9a3.173,3.173,0,0,0,.874,2.07,2.624,2.624,0,0,0,1.929.762,3.213,3.213,0,0,0,2.656-1.318l1.279,1.221a4.272,4.272,0,0,1-1.694,1.47A5.3,5.3,0,0,1,130.845,67.2Zm-.283-9.053a2,2,0,0,0-1.577.684,3.543,3.543,0,0,0-.767,1.9h4.521v-.176a2.884,2.884,0,0,0-.635-1.8A1.983,1.983,0,0,0,130.562,58.143Zm8.564-1.709.068,1.221a3.8,3.8,0,0,1,3.076-1.416q3.3,0,3.359,3.779V67h-2.373V60.154a2.176,2.176,0,0,0-.435-1.489,1.828,1.828,0,0,0-1.421-.483,2.287,2.287,0,0,0-2.139,1.3V67H136.89V56.434ZM157.681,67.2a4.91,4.91,0,0,1-3.657-1.421,5.154,5.154,0,0,1-1.4-3.784V61.7a6.34,6.34,0,0,1,.61-2.827,4.646,4.646,0,0,1,1.714-1.938,4.531,4.531,0,0,1,2.461-.693,4.147,4.147,0,0,1,3.335,1.377,5.823,5.823,0,0,1,1.177,3.9v.957h-6.9a3.173,3.173,0,0,0,.874,2.07,2.624,2.624,0,0,0,1.929.762,3.213,3.213,0,0,0,2.656-1.318l1.279,1.221a4.272,4.272,0,0,1-1.694,1.47A5.3,5.3,0,0,1,157.681,67.2Zm-.283-9.053a2,2,0,0,0-1.577.684,3.543,3.543,0,0,0-.767,1.9h4.521v-.176a2.884,2.884,0,0,0-.635-1.8A1.983,1.983,0,0,0,157.4,58.143ZM166.284,67h-2.373V52h2.373Zm9.795-10.566.068,1.1a3.8,3.8,0,0,1,3.047-1.3,2.921,2.921,0,0,1,2.9,1.621,3.748,3.748,0,0,1,3.242-1.621,3.294,3.294,0,0,1,2.6.967,4.257,4.257,0,0,1,.874,2.852V67H186.44V60.125A2.1,2.1,0,0,0,186,58.65a1.924,1.924,0,0,0-1.455-.469,1.976,1.976,0,0,0-1.323.435,2.292,2.292,0,0,0-.718,1.138l.01,7.246h-2.373V60.047a1.693,1.693,0,0,0-1.9-1.865,2.089,2.089,0,0,0-2.021,1.162V67h-2.373V56.434ZM197.563,67a3.662,3.662,0,0,1-.273-.986,3.992,3.992,0,0,1-5.371.273,2.906,2.906,0,0,1-1.006-2.246,3,3,0,0,1,1.255-2.593,6.081,6.081,0,0,1,3.589-.9h1.455v-.693a1.851,1.851,0,0,0-.459-1.313,1.819,1.819,0,0,0-1.4-.493,2.09,2.09,0,0,0-1.328.405,1.254,1.254,0,0,0-.518,1.03h-2.373a2.634,2.634,0,0,1,.576-1.626,3.838,3.838,0,0,1,1.567-1.187,5.506,5.506,0,0,1,2.212-.43,4.434,4.434,0,0,1,2.959.933,3.326,3.326,0,0,1,1.133,2.622v4.766a5.4,5.4,0,0,0,.4,2.275V67Zm-2.607-1.709a2.7,2.7,0,0,0,1.323-.342,2.284,2.284,0,0,0,.933-.918V62.039h-1.279a3.5,3.5,0,0,0-1.982.459,1.487,1.487,0,0,0-.664,1.3,1.387,1.387,0,0,0,.454,1.089A1.758,1.758,0,0,0,194.956,65.291Zm16.367-3.467a6.291,6.291,0,0,1-1.113,3.911,3.867,3.867,0,0,1-5.771.317v5.01h-2.373V56.434h2.188l.1,1.074a3.485,3.485,0,0,1,2.842-1.27,3.6,3.6,0,0,1,3.032,1.44,6.459,6.459,0,0,1,1.1,4Zm-2.363-.205a4.407,4.407,0,0,0-.63-2.51,2.048,2.048,0,0,0-1.8-.928,2.184,2.184,0,0,0-2.09,1.2V64.07a2.2,2.2,0,0,0,2.109,1.23,2.045,2.045,0,0,0,1.772-.913A4.851,4.851,0,0,0,208.96,61.619ZM219.644,67a3.662,3.662,0,0,1-.273-.986,3.992,3.992,0,0,1-5.371.273,2.906,2.906,0,0,1-1.006-2.246,3,3,0,0,1,1.255-2.593,6.081,6.081,0,0,1,3.589-.9h1.455v-.693a1.851,1.851,0,0,0-.459-1.313,1.819,1.819,0,0,0-1.4-.493,2.09,2.09,0,0,0-1.328.405,1.254,1.254,0,0,0-.518,1.03h-2.373a2.634,2.634,0,0,1,.576-1.626,3.838,3.838,0,0,1,1.567-1.187,5.506,5.506,0,0,1,2.212-.43,4.434,4.434,0,0,1,2.959.933,3.326,3.326,0,0,1,1.133,2.622v4.766a5.4,5.4,0,0,0,.4,2.275V67Zm-2.607-1.709a2.7,2.7,0,0,0,1.323-.342,2.284,2.284,0,0,0,.933-.918V62.039h-1.279a3.5,3.5,0,0,0-1.982.459,1.487,1.487,0,0,0-.664,1.3,1.387,1.387,0,0,0,.454,1.089A1.758,1.758,0,0,0,217.036,65.291Zm16.748,1.9a4.91,4.91,0,0,1-3.657-1.421,5.154,5.154,0,0,1-1.4-3.784V61.7a6.34,6.34,0,0,1,.61-2.827,4.646,4.646,0,0,1,1.714-1.938,4.531,4.531,0,0,1,2.461-.693,4.147,4.147,0,0,1,3.335,1.377,5.823,5.823,0,0,1,1.177,3.9v.957h-6.9a3.173,3.173,0,0,0,.874,2.07,2.624,2.624,0,0,0,1.929.762,3.213,3.213,0,0,0,2.656-1.318l1.279,1.221a4.272,4.272,0,0,1-1.694,1.47A5.3,5.3,0,0,1,233.784,67.2Zm-.283-9.053a2,2,0,0,0-1.577.684,3.543,3.543,0,0,0-.767,1.9h4.521v-.176a2.884,2.884,0,0,0-.635-1.8A1.983,1.983,0,0,0,233.5,58.143Zm5.918,3.486a6.244,6.244,0,0,1,1.133-3.936,3.681,3.681,0,0,1,3.066-1.455,3.46,3.46,0,0,1,2.8,1.24l.137-1.045h2.109V71.063h-2.373V66.1a3.542,3.542,0,0,1-2.7,1.094,3.646,3.646,0,0,1-3.037-1.479A6.537,6.537,0,0,1,239.419,61.629Zm2.373.205a4.409,4.409,0,0,0,.64,2.544,2.039,2.039,0,0,0,1.772.923,2.248,2.248,0,0,0,2.09-1.2v-4.8a2.249,2.249,0,0,0-2.07-1.152,2.073,2.073,0,0,0-1.782.908A4.811,4.811,0,0,0,241.792,61.834Zm15.83,4.131a3.68,3.68,0,0,1-2.969,1.23,3.28,3.28,0,0,1-2.6-1.006,4.279,4.279,0,0,1-.884-2.91V56.434h2.373V63.25q0,2.012,1.67,2.012a2.345,2.345,0,0,0,2.334-1.24V56.434h2.373V67h-2.236ZM264.858,67h-2.373V56.434h2.373Zm-2.52-13.32a1.275,1.275,0,0,1,.347-.915,1.3,1.3,0,0,1,.991-.364,1.32,1.32,0,0,1,1,.364,1.265,1.265,0,0,1,.352.915,1.236,1.236,0,0,1-.352.9,1.331,1.331,0,0,1-1,.359,1.314,1.314,0,0,1-.991-.359A1.245,1.245,0,0,1,262.339,53.68Zm8.828,10.313,2.236-7.559h2.451L272.192,67h-2.061L266.44,56.434H268.9ZM283.5,67a3.663,3.663,0,0,1-.273-.986,3.992,3.992,0,0,1-5.371.273,2.906,2.906,0,0,1-1.006-2.246,3,3,0,0,1,1.255-2.593,6.081,6.081,0,0,1,3.589-.9h1.455v-.693a1.851,1.851,0,0,0-.459-1.313,1.819,1.819,0,0,0-1.4-.493,2.09,2.09,0,0,0-1.328.405,1.254,1.254,0,0,0-.518,1.03h-2.373a2.634,2.634,0,0,1,.576-1.626,3.839,3.839,0,0,1,1.567-1.187,5.505,5.505,0,0,1,2.212-.43,4.434,4.434,0,0,1,2.959.933,3.326,3.326,0,0,1,1.133,2.622v4.766a5.4,5.4,0,0,0,.4,2.275V67Zm-2.607-1.709a2.7,2.7,0,0,0,1.323-.342,2.284,2.284,0,0,0,.933-.918V62.039H281.87a3.5,3.5,0,0,0-1.982.459,1.487,1.487,0,0,0-.664,1.3,1.387,1.387,0,0,0,.454,1.089A1.758,1.758,0,0,0,280.894,65.291ZM290.532,67h-2.373V52h2.373Zm7.236.2a4.91,4.91,0,0,1-3.657-1.421,5.154,5.154,0,0,1-1.4-3.784V61.7a6.34,6.34,0,0,1,.61-2.827,4.645,4.645,0,0,1,1.714-1.938,4.531,4.531,0,0,1,2.461-.693,4.147,4.147,0,0,1,3.335,1.377,5.822,5.822,0,0,1,1.177,3.9v.957h-6.9a3.173,3.173,0,0,0,.874,2.07,2.624,2.624,0,0,0,1.929.762,3.213,3.213,0,0,0,2.656-1.318l1.279,1.221a4.272,4.272,0,0,1-1.694,1.47A5.3,5.3,0,0,1,297.769,67.2Zm-.283-9.053a2,2,0,0,0-1.577.684,3.543,3.543,0,0,0-.767,1.9h4.521v-.176a2.884,2.884,0,0,0-.635-1.8A1.983,1.983,0,0,0,297.485,58.143ZM315.142,67a3.663,3.663,0,0,1-.273-.986,3.992,3.992,0,0,1-5.371.273,2.906,2.906,0,0,1-1.006-2.246,3,3,0,0,1,1.255-2.593,6.081,6.081,0,0,1,3.589-.9h1.455v-.693a1.851,1.851,0,0,0-.459-1.313,1.819,1.819,0,0,0-1.4-.493,2.09,2.09,0,0,0-1.328.405,1.254,1.254,0,0,0-.518,1.03h-2.373a2.634,2.634,0,0,1,.576-1.626,3.839,3.839,0,0,1,1.567-1.187,5.505,5.505,0,0,1,2.212-.43,4.434,4.434,0,0,1,2.959.933,3.326,3.326,0,0,1,1.133,2.622v4.766a5.4,5.4,0,0,0,.4,2.275V67Zm-2.607-1.709a2.7,2.7,0,0,0,1.323-.342,2.284,2.284,0,0,0,.933-.918V62.039h-1.279a3.5,3.5,0,0,0-1.982.459,1.487,1.487,0,0,0-.664,1.3,1.387,1.387,0,0,0,.454,1.089A1.758,1.758,0,0,0,312.534,65.291ZM60.293,91H57.93V79.577l-3.486,1.189V78.773l5.547-2.041h.3ZM74.5,85.014a7.754,7.754,0,0,1-1.147,4.624A4.053,4.053,0,0,1,69.863,91.2a4.106,4.106,0,0,1-3.472-1.519,7.425,7.425,0,0,1-1.2-4.5V82.719a7.638,7.638,0,0,1,1.147-4.6,4.783,4.783,0,0,1,6.982-.039A7.4,7.4,0,0,1,74.5,82.553Zm-2.373-2.656a6.016,6.016,0,0,0-.547-2.935,2.09,2.09,0,0,0-3.447-.049,5.56,5.56,0,0,0-.576,2.759v3.223a6.172,6.172,0,0,0,.557,2.969,1.87,1.87,0,0,0,1.748.977,1.837,1.837,0,0,0,1.689-.9,5.807,5.807,0,0,0,.576-2.827Zm13.74,2.656a7.754,7.754,0,0,1-1.147,4.624A4.053,4.053,0,0,1,81.23,91.2a4.106,4.106,0,0,1-3.472-1.519,7.425,7.425,0,0,1-1.2-4.5V82.719a7.638,7.638,0,0,1,1.147-4.6,4.783,4.783,0,0,1,6.982-.039,7.4,7.4,0,0,1,1.177,4.473ZM83.5,82.357a6.016,6.016,0,0,0-.547-2.935,2.09,2.09,0,0,0-3.447-.049,5.56,5.56,0,0,0-.576,2.759v3.223a6.172,6.172,0,0,0,.557,2.969,1.87,1.87,0,0,0,1.748.977,1.837,1.837,0,0,0,1.689-.9A5.807,5.807,0,0,0,83.5,85.57Zm11.836-1.924.068,1.1a3.8,3.8,0,0,1,3.047-1.3,2.921,2.921,0,0,1,2.9,1.621,3.748,3.748,0,0,1,3.242-1.621,3.294,3.294,0,0,1,2.6.967,4.257,4.257,0,0,1,.874,2.852V91h-2.373V84.125a2.1,2.1,0,0,0-.439-1.475,1.924,1.924,0,0,0-1.455-.469,1.976,1.976,0,0,0-1.323.435,2.292,2.292,0,0,0-.718,1.138l.01,7.246H99.395V84.047a1.693,1.693,0,0,0-1.9-1.865,2.089,2.089,0,0,0-2.021,1.162V91H93.1V80.434ZM115.156,91.2a4.91,4.91,0,0,1-3.657-1.421,5.154,5.154,0,0,1-1.4-3.784V85.7a6.34,6.34,0,0,1,.61-2.827,4.645,4.645,0,0,1,1.714-1.938,4.531,4.531,0,0,1,2.461-.693,4.147,4.147,0,0,1,3.335,1.377,5.822,5.822,0,0,1,1.177,3.9v.957h-6.9a3.173,3.173,0,0,0,.874,2.07,2.624,2.624,0,0,0,1.929.762,3.213,3.213,0,0,0,2.656-1.318l1.279,1.221a4.272,4.272,0,0,1-1.694,1.47A5.3,5.3,0,0,1,115.156,91.2Zm-.283-9.053a2,2,0,0,0-1.577.684,3.543,3.543,0,0,0-.767,1.9h4.521v-.176a2.884,2.884,0,0,0-.635-1.8A1.983,1.983,0,0,0,114.873,82.143Zm9.336-4.277v2.568h1.865v1.758h-1.865v5.9a1.3,1.3,0,0,0,.239.874,1.109,1.109,0,0,0,.854.269,3.656,3.656,0,0,0,.83-.1v1.836a5.844,5.844,0,0,1-1.562.225q-2.734,0-2.734-3.018V82.191H120.1V80.434h1.738V77.865Zm9.209,4.736a5.872,5.872,0,0,0-.967-.078,2.177,2.177,0,0,0-2.2,1.25V91h-2.373V80.434h2.266l.059,1.182a2.674,2.674,0,0,1,2.383-1.377,2.221,2.221,0,0,1,.84.137Zm.7,3.018a6.231,6.231,0,0,1,.615-2.8,4.493,4.493,0,0,1,1.729-1.914,4.87,4.87,0,0,1,2.559-.669,4.615,4.615,0,0,1,3.472,1.377,5.416,5.416,0,0,1,1.44,3.652l.01.557a6.286,6.286,0,0,1-.6,2.793,4.439,4.439,0,0,1-1.719,1.9,4.906,4.906,0,0,1-2.583.674,4.584,4.584,0,0,1-3.579-1.489,5.7,5.7,0,0,1-1.343-3.97Zm2.373.205a4.258,4.258,0,0,0,.674,2.554,2.191,2.191,0,0,0,1.875.923,2.167,2.167,0,0,0,1.87-.937,4.7,4.7,0,0,0,.669-2.744,4.2,4.2,0,0,0-.688-2.539,2.321,2.321,0,0,0-3.716-.015A4.614,4.614,0,0,0,136.494,85.824Zm15.381,2.3a1.076,1.076,0,0,0-.522-.967,5.557,5.557,0,0,0-1.733-.586,8.911,8.911,0,0,1-2.021-.645,2.7,2.7,0,0,1-1.777-2.49,2.813,2.813,0,0,1,1.152-2.285,4.556,4.556,0,0,1,2.93-.918,4.74,4.74,0,0,1,3.062.938,2.975,2.975,0,0,1,1.167,2.432h-2.373a1.462,1.462,0,0,0-.508-1.138,1.946,1.946,0,0,0-1.348-.454,2.1,2.1,0,0,0-1.274.361,1.139,1.139,0,0,0-.493.967.962.962,0,0,0,.459.85,6.312,6.312,0,0,0,1.855.61,8.783,8.783,0,0,1,2.192.732,3.1,3.1,0,0,1,1.182,1.021A2.6,2.6,0,0,1,154.209,88a2.753,2.753,0,0,1-1.182,2.31,5.039,5.039,0,0,1-3.1.884,5.464,5.464,0,0,1-2.314-.469,3.809,3.809,0,0,1-1.582-1.289,3.051,3.051,0,0,1-.566-1.768h2.3a1.672,1.672,0,0,0,.635,1.294,2.467,2.467,0,0,0,1.553.454,2.4,2.4,0,0,0,1.426-.356A1.1,1.1,0,0,0,151.875,88.129ZM165.908,91.2a4.91,4.91,0,0,1-3.657-1.421,5.154,5.154,0,0,1-1.4-3.784V85.7a6.34,6.34,0,0,1,.61-2.827,4.646,4.646,0,0,1,1.714-1.938,4.531,4.531,0,0,1,2.461-.693,4.147,4.147,0,0,1,3.335,1.377,5.823,5.823,0,0,1,1.177,3.9v.957h-6.9a3.173,3.173,0,0,0,.874,2.07,2.624,2.624,0,0,0,1.929.762,3.213,3.213,0,0,0,2.656-1.318L169.98,89.2a4.272,4.272,0,0,1-1.694,1.47A5.3,5.3,0,0,1,165.908,91.2Zm-.283-9.053a2,2,0,0,0-1.577.684,3.543,3.543,0,0,0-.767,1.9H167.8v-.176a2.884,2.884,0,0,0-.635-1.8A1.983,1.983,0,0,0,165.625,82.143Zm8.564-1.709.068,1.221a3.8,3.8,0,0,1,3.076-1.416q3.3,0,3.359,3.779V91H178.32V84.154a2.176,2.176,0,0,0-.435-1.489,1.828,1.828,0,0,0-1.421-.483,2.287,2.287,0,0,0-2.139,1.3V91h-2.373V80.434ZM192.744,91.2a4.91,4.91,0,0,1-3.657-1.421,5.154,5.154,0,0,1-1.4-3.784V85.7a6.34,6.34,0,0,1,.61-2.827,4.646,4.646,0,0,1,1.714-1.938,4.531,4.531,0,0,1,2.461-.693,4.147,4.147,0,0,1,3.335,1.377,5.823,5.823,0,0,1,1.177,3.9v.957h-6.9a3.173,3.173,0,0,0,.874,2.07,2.624,2.624,0,0,0,1.929.762,3.213,3.213,0,0,0,2.656-1.318l1.279,1.221a4.272,4.272,0,0,1-1.694,1.47A5.3,5.3,0,0,1,192.744,91.2Zm-.283-9.053a2,2,0,0,0-1.577.684,3.543,3.543,0,0,0-.767,1.9h4.521v-.176a2.884,2.884,0,0,0-.635-1.8A1.983,1.983,0,0,0,192.461,82.143ZM201.348,91h-2.373V76h2.373Zm10.537-13.135v2.568h1.865v1.758h-1.865v5.9a1.3,1.3,0,0,0,.239.874,1.109,1.109,0,0,0,.854.269,3.656,3.656,0,0,0,.83-.1v1.836a5.844,5.844,0,0,1-1.562.225q-2.734,0-2.734-3.018V82.191h-1.738V80.434h1.738V77.865Zm8.33,13.33a4.91,4.91,0,0,1-3.657-1.421,5.154,5.154,0,0,1-1.4-3.784V85.7a6.34,6.34,0,0,1,.61-2.827,4.646,4.646,0,0,1,1.714-1.938,4.531,4.531,0,0,1,2.461-.693,4.147,4.147,0,0,1,3.335,1.377,5.823,5.823,0,0,1,1.177,3.9v.957h-6.9a3.173,3.173,0,0,0,.874,2.07,2.624,2.624,0,0,0,1.929.762,3.213,3.213,0,0,0,2.656-1.318l1.279,1.221a4.272,4.272,0,0,1-1.694,1.47A5.3,5.3,0,0,1,220.215,91.2Zm-.283-9.053a2,2,0,0,0-1.577.684,3.543,3.543,0,0,0-.767,1.9h4.521v-.176a2.884,2.884,0,0,0-.635-1.8A1.983,1.983,0,0,0,219.932,82.143Zm11.895.459a5.872,5.872,0,0,0-.967-.078,2.177,2.177,0,0,0-2.2,1.25V91h-2.373V80.434h2.266l.059,1.182A2.674,2.674,0,0,1,231,80.238a2.221,2.221,0,0,1,.84.137Zm7.031,0a5.872,5.872,0,0,0-.967-.078,2.177,2.177,0,0,0-2.2,1.25V91H233.32V80.434h2.266l.059,1.182a2.674,2.674,0,0,1,2.383-1.377,2.221,2.221,0,0,1,.84.137Zm5.967,8.594a4.91,4.91,0,0,1-3.657-1.421,5.154,5.154,0,0,1-1.4-3.784V85.7a6.34,6.34,0,0,1,.61-2.827,4.646,4.646,0,0,1,1.714-1.938,4.531,4.531,0,0,1,2.461-.693,4.147,4.147,0,0,1,3.335,1.377,5.823,5.823,0,0,1,1.177,3.9v.957h-6.9a3.173,3.173,0,0,0,.874,2.07,2.624,2.624,0,0,0,1.929.762,3.213,3.213,0,0,0,2.656-1.318L248.9,89.2a4.272,4.272,0,0,1-1.694,1.47A5.3,5.3,0,0,1,244.824,91.2Zm-.283-9.053a2,2,0,0,0-1.577.684,3.543,3.543,0,0,0-.767,1.9h4.521v-.176a2.884,2.884,0,0,0-.635-1.8A1.983,1.983,0,0,0,244.541,82.143Zm8.564-1.709.068,1.221a3.8,3.8,0,0,1,3.076-1.416q3.3,0,3.359,3.779V91h-2.373V84.154a2.176,2.176,0,0,0-.435-1.489,1.828,1.828,0,0,0-1.421-.483,2.287,2.287,0,0,0-2.139,1.3V91h-2.373V80.434Zm8.477,5.186a6.231,6.231,0,0,1,.615-2.8,4.493,4.493,0,0,1,1.729-1.914,4.87,4.87,0,0,1,2.559-.669,4.615,4.615,0,0,1,3.472,1.377,5.416,5.416,0,0,1,1.44,3.652l.01.557a6.286,6.286,0,0,1-.6,2.793,4.439,4.439,0,0,1-1.719,1.9,4.906,4.906,0,0,1-2.583.674,4.584,4.584,0,0,1-3.579-1.489,5.7,5.7,0,0,1-1.343-3.97Zm2.373.205a4.258,4.258,0,0,0,.674,2.554,2.191,2.191,0,0,0,1.875.923,2.167,2.167,0,0,0,1.87-.937,4.7,4.7,0,0,0,.669-2.744,4.2,4.2,0,0,0-.688-2.539,2.321,2.321,0,0,0-3.716-.015A4.614,4.614,0,0,0,263.955,85.824Z" transform="translate(1063 2867)" fill="#12263f"/>
    <path id="Trazado_728951" data-name="Trazado 728951" d="M7.893,6.674h.939a1.681,1.681,0,0,0,1.127-.368,1.313,1.313,0,0,0,.416-1.047,1.431,1.431,0,0,0-.346-1.025,1.392,1.392,0,0,0-1.057-.365,1.473,1.473,0,0,0-1.022.359,1.2,1.2,0,0,0-.4.936H6.007a2.335,2.335,0,0,1,.378-1.295,2.538,2.538,0,0,1,1.054-.911,3.432,3.432,0,0,1,1.514-.327,3.179,3.179,0,0,1,2.174.7,2.439,2.439,0,0,1,.79,1.933,1.964,1.964,0,0,1-.4,1.171,2.488,2.488,0,0,1-1.025.828,2.268,2.268,0,0,1,1.158.819,2.242,2.242,0,0,1,.4,1.333,2.482,2.482,0,0,1-.854,1.98,3.315,3.315,0,0,1-2.244.736,3.29,3.29,0,0,1-2.184-.711,2.341,2.341,0,0,1-.851-1.892H7.461a1.29,1.29,0,0,0,.409.99,1.553,1.553,0,0,0,1.1.381,1.6,1.6,0,0,0,1.13-.381,1.429,1.429,0,0,0,.413-1.1,1.443,1.443,0,0,0-.432-1.124A1.845,1.845,0,0,0,8.8,7.893H7.893ZM19.521,8.109a5.04,5.04,0,0,1-.746,3.006,2.634,2.634,0,0,1-2.269,1.012,2.669,2.669,0,0,1-2.257-.987,4.826,4.826,0,0,1-.778-2.923v-1.6a4.965,4.965,0,0,1,.746-2.99,2.659,2.659,0,0,1,2.276-1,2.674,2.674,0,0,1,2.263.971,4.813,4.813,0,0,1,.765,2.907ZM17.979,6.382a3.911,3.911,0,0,0-.355-1.907,1.359,1.359,0,0,0-2.241-.032,3.614,3.614,0,0,0-.375,1.793V8.331a4.012,4.012,0,0,0,.362,1.93,1.215,1.215,0,0,0,1.136.635,1.194,1.194,0,0,0,1.1-.587,3.774,3.774,0,0,0,.375-1.838ZM26.91,8.109a5.04,5.04,0,0,1-.746,3.006A2.634,2.634,0,0,1,23.9,12.127a2.669,2.669,0,0,1-2.257-.987,4.826,4.826,0,0,1-.778-2.923v-1.6a4.965,4.965,0,0,1,.746-2.99,2.659,2.659,0,0,1,2.276-1,2.674,2.674,0,0,1,2.263.971,4.813,4.813,0,0,1,.765,2.907ZM25.368,6.382a3.911,3.911,0,0,0-.355-1.907,1.359,1.359,0,0,0-2.241-.032A3.614,3.614,0,0,0,22.4,6.236V8.331a4.012,4.012,0,0,0,.362,1.93A1.215,1.215,0,0,0,23.9,10.9a1.194,1.194,0,0,0,1.1-.587,3.774,3.774,0,0,0,.375-1.838Z" transform="translate(1227 3006)" fill="#12263f"/>
    <path id="Trazado_728952" data-name="Trazado 728952" d="M11.327,8.706h1.149V9.943H11.327V12H9.784V9.943H5.792L5.747,9,9.733,2.758h1.593Zm-3.961,0H9.784V4.846l-.114.2Zm12.156-.6a5.04,5.04,0,0,1-.746,3.006,2.634,2.634,0,0,1-2.269,1.012,2.669,2.669,0,0,1-2.257-.987,4.826,4.826,0,0,1-.778-2.923v-1.6a4.965,4.965,0,0,1,.746-2.99,2.659,2.659,0,0,1,2.276-1,2.674,2.674,0,0,1,2.263.971,4.813,4.813,0,0,1,.765,2.907ZM17.979,6.382a3.911,3.911,0,0,0-.355-1.907,1.359,1.359,0,0,0-2.241-.032,3.614,3.614,0,0,0-.375,1.793V8.331a4.012,4.012,0,0,0,.362,1.93,1.215,1.215,0,0,0,1.136.635,1.194,1.194,0,0,0,1.1-.587,3.774,3.774,0,0,0,.375-1.838ZM26.91,8.109a5.04,5.04,0,0,1-.746,3.006A2.634,2.634,0,0,1,23.9,12.127a2.669,2.669,0,0,1-2.257-.987,4.826,4.826,0,0,1-.778-2.923v-1.6a4.965,4.965,0,0,1,.746-2.99,2.659,2.659,0,0,1,2.276-1,2.674,2.674,0,0,1,2.263.971,4.813,4.813,0,0,1,.765,2.907ZM25.368,6.382a3.911,3.911,0,0,0-.355-1.907,1.359,1.359,0,0,0-2.241-.032A3.614,3.614,0,0,0,22.4,6.236V8.331a4.012,4.012,0,0,0,.362,1.93A1.215,1.215,0,0,0,23.9,10.9a1.194,1.194,0,0,0,1.1-.587,3.774,3.774,0,0,0,.375-1.838Z" transform="translate(1268 3006)" fill="#12263f"/>
    <path id="Trazado_728953" data-name="Trazado 728953" d="M4.747,7.417l.5-4.659h4.964V4.091H6.531L6.277,6.3a2.854,2.854,0,0,1,1.447-.368,2.575,2.575,0,0,1,2.053.844,3.346,3.346,0,0,1,.733,2.272A3.079,3.079,0,0,1,9.7,11.292a2.965,2.965,0,0,1-2.228.835,3.106,3.106,0,0,1-2.1-.72,2.6,2.6,0,0,1-.9-1.9H5.953a1.629,1.629,0,0,0,.482,1.031,1.467,1.467,0,0,0,1.028.359,1.326,1.326,0,0,0,1.108-.508A2.192,2.192,0,0,0,8.968,9,1.937,1.937,0,0,0,8.53,7.668a1.532,1.532,0,0,0-1.206-.492,2.006,2.006,0,0,0-.711.111,2.014,2.014,0,0,0-.635.435Zm13,.692A5.04,5.04,0,0,1,17,11.115a2.634,2.634,0,0,1-2.269,1.012,2.669,2.669,0,0,1-2.257-.987A4.826,4.826,0,0,1,11.7,8.217v-1.6a4.965,4.965,0,0,1,.746-2.99,2.659,2.659,0,0,1,2.276-1,2.674,2.674,0,0,1,2.263.971,4.813,4.813,0,0,1,.765,2.907ZM16.2,6.382a3.911,3.911,0,0,0-.355-1.907,1.213,1.213,0,0,0-1.13-.606,1.212,1.212,0,0,0-1.111.574,3.614,3.614,0,0,0-.375,1.793V8.331a4.012,4.012,0,0,0,.362,1.93,1.215,1.215,0,0,0,1.136.635,1.194,1.194,0,0,0,1.1-.587A3.774,3.774,0,0,0,16.2,8.471Zm8.931,1.727a5.04,5.04,0,0,1-.746,3.006,2.634,2.634,0,0,1-2.269,1.012,2.669,2.669,0,0,1-2.257-.987,4.826,4.826,0,0,1-.778-2.923v-1.6a4.965,4.965,0,0,1,.746-2.99,2.659,2.659,0,0,1,2.276-1,2.674,2.674,0,0,1,2.263.971,4.813,4.813,0,0,1,.765,2.907ZM23.593,6.382a3.911,3.911,0,0,0-.355-1.907A1.359,1.359,0,0,0,21,4.443a3.614,3.614,0,0,0-.375,1.793V8.331a4.012,4.012,0,0,0,.362,1.93,1.215,1.215,0,0,0,1.136.635,1.194,1.194,0,0,0,1.1-.587,3.774,3.774,0,0,0,.375-1.838Zm7.693-1.25.044.717A2.471,2.471,0,0,1,33.312,5,1.9,1.9,0,0,1,35.2,6.059,2.436,2.436,0,0,1,37.3,5,2.141,2.141,0,0,1,39,5.633a2.767,2.767,0,0,1,.568,1.854V12H38.021V7.531a1.366,1.366,0,0,0-.286-.958,1.25,1.25,0,0,0-.946-.3,1.284,1.284,0,0,0-.86.282,1.49,1.49,0,0,0-.467.74L35.47,12H33.927V7.48a1.1,1.1,0,0,0-1.238-1.212,1.358,1.358,0,0,0-1.314.755V12H29.833V5.132Z" transform="translate(1311 3006)" fill="#12263f"/>
    <path id="Trazado_728954" data-name="Trazado 728954" d="M12.323,12H6.109V10.94L9.188,7.582a7.666,7.666,0,0,0,.949-1.241,2.011,2.011,0,0,0,.282-1,1.519,1.519,0,0,0-.371-1.066,1.288,1.288,0,0,0-1-.406,1.485,1.485,0,0,0-1.162.457,1.8,1.8,0,0,0-.413,1.25H5.931a3.023,3.023,0,0,1,.384-1.52,2.644,2.644,0,0,1,1.1-1.051,3.5,3.5,0,0,1,1.647-.375,3.126,3.126,0,0,1,2.123.676,2.347,2.347,0,0,1,.778,1.869,3.172,3.172,0,0,1-.39,1.45A8.248,8.248,0,0,1,10.292,8.35l-2.26,2.418h4.291Zm7.2-3.891a5.04,5.04,0,0,1-.746,3.006,2.634,2.634,0,0,1-2.269,1.012,2.669,2.669,0,0,1-2.257-.987,4.826,4.826,0,0,1-.778-2.923v-1.6a4.965,4.965,0,0,1,.746-2.99,2.659,2.659,0,0,1,2.276-1,2.674,2.674,0,0,1,2.263.971,4.813,4.813,0,0,1,.765,2.907ZM17.979,6.382a3.911,3.911,0,0,0-.355-1.907,1.359,1.359,0,0,0-2.241-.032,3.614,3.614,0,0,0-.375,1.793V8.331a4.012,4.012,0,0,0,.362,1.93,1.215,1.215,0,0,0,1.136.635,1.194,1.194,0,0,0,1.1-.587,3.774,3.774,0,0,0,.375-1.838ZM26.91,8.109a5.04,5.04,0,0,1-.746,3.006A2.634,2.634,0,0,1,23.9,12.127a2.669,2.669,0,0,1-2.257-.987,4.826,4.826,0,0,1-.778-2.923v-1.6a4.965,4.965,0,0,1,.746-2.99,2.659,2.659,0,0,1,2.276-1,2.674,2.674,0,0,1,2.263.971,4.813,4.813,0,0,1,.765,2.907ZM25.368,6.382a3.911,3.911,0,0,0-.355-1.907,1.359,1.359,0,0,0-2.241-.032A3.614,3.614,0,0,0,22.4,6.236V8.331a4.012,4.012,0,0,0,.362,1.93A1.215,1.215,0,0,0,23.9,10.9a1.194,1.194,0,0,0,1.1-.587,3.774,3.774,0,0,0,.375-1.838Z" transform="translate(1184 3006)" fill="#12263f"/>
    <g id="Grupo_1009905" data-name="Grupo 1009905" transform="translate(32 4.223)">
      <g id="Grupo_1009904" data-name="Grupo 1009904" transform="translate(1083 3026)">
        <g id="Grupo_1009903" data-name="Grupo 1009903">
          <g id="Rectángulo_350569" data-name="Rectángulo 350569" transform="translate(0 -0.223)" fill="#fff" stroke="#12263f" stroke-width="1">
            <rect width="211" height="10" stroke="none"/>
            <rect x="0.5" y="0.5" width="210" height="9" fill="none"/>
          </g>
          <rect id="Rectángulo_350570" data-name="Rectángulo 350570" width="43" height="10" transform="translate(0 -0.223)" fill="#12263f"/>
        </g>
        <rect id="Rectángulo_350572" data-name="Rectángulo 350572" width="44" height="10" transform="translate(167 -0.223)" fill="#12263f"/>
      </g>
      <rect id="Rectángulo_350571" data-name="Rectángulo 350571" width="43" height="10" transform="translate(1167 3025.777)" fill="#12263f"/>
    </g>
  </g>
</svg>
