<svg xmlns="http://www.w3.org/2000/svg" xmlns:xlink="http://www.w3.org/1999/xlink" width="55.387" height="85.716" viewBox="0 0 55.387 85.716">
  <defs>
    <clipPath id="clip-path">
      <rect id="Rectángulo_346374" data-name="Rectángulo 346374" width="18.913" height="43.064" transform="translate(0 0)" fill="none" stroke="#12263f" stroke-width="1"/>
    </clipPath>
  </defs>
  <g id="Grupo_1009263" data-name="Grupo 1009263" transform="translate(-1195.08 -169.331)">
    <g id="Grupo_1009236" data-name="Grupo 1009236" transform="translate(1212.222 255.047) rotate(-155)">
      <g id="Grupo_1002212" data-name="Grupo 1002212" transform="translate(0 0)" clip-path="url(#clip-path)">
        <path id="Trazado_707910" data-name="Trazado 707910" d="M4.1,0C-1.075,10.351-.5,26.027,1.225,37.527" transform="translate(9.957 1.406)" fill="none" stroke="#12263f" stroke-linecap="round" stroke-linejoin="round" stroke-width="3"/>
        <path id="Trazado_707911" data-name="Trazado 707911" d="M0,1.15C3.45,4.6,7.476,6.9,10.925,9.775A31.961,31.961,0,0,1,16.1,0" transform="translate(1.406 31.883)" fill="none" stroke="#12263f" stroke-linecap="round" stroke-linejoin="round" stroke-width="3"/>
      </g>
    </g>
    <g id="Grupo_1009255" data-name="Grupo 1009255" transform="matrix(0.999, -0.035, 0.035, 0.999, 1210.376, 170.143)">
      <path id="Trazado_718494" data-name="Trazado 718494" d="M333.493,491.819a14.086,14.086,0,0,0,12.3,2.094,9.445,9.445,0,0,0,1.09-.369l.125.29a4.893,4.893,0,0,0,.189.682,5.62,5.62,0,0,0,2.4,2.988,2.948,2.948,0,0,1,.721.51c.486.533.4,1.412.863,1.976.816,1,2.745.392,3.474,1.459a9.966,9.966,0,0,1,.494,1.357,2.13,2.13,0,0,0,2.612.8,6.132,6.132,0,0,0,2.314-1.851,24.706,24.706,0,0,0,4.243-5.686c.322-.675.525-1.632-.094-2.063-.306-.212-.729-.227-.98-.494-.377-.392-.149-1.043-.306-1.561a1.534,1.534,0,0,0-1.294-.918,10.843,10.843,0,0,0-1.671.047,1.091,1.091,0,0,1-.423-.063.306.306,0,0,1-.125-.078c-.291-.275-.039-.745.062-1.129a1.894,1.894,0,0,0-.816-1.914,5.33,5.33,0,0,0-1.953-.784c-.031-.008-.055-.016-.086-.024-.957-.235-.957-1-1.177-1.953a9.516,9.516,0,0,1,.039-2.941,16.324,16.324,0,0,0-.329-5.019,9.935,9.935,0,0,0-1.725-3.937c-1.043-1.333-4.549-3.239-5.992-4.118-3.929-1.8-8.635-.761-12.432,1.31-3.741,2.032-6.627,5.357-6.815,9.788a14.1,14.1,0,0,0,5.294,11.6" transform="translate(-327.012 -467.023)" fill="#faf3e6"/>
      <path id="Trazado_718495" data-name="Trazado 718495" d="M328.186,515.638a5.626,5.626,0,0,0,2.4,2.988,2.945,2.945,0,0,1,.721.51c.487.533.4,1.412.862,1.976.816,1,2.745.392,3.475,1.459a10.008,10.008,0,0,1,.494,1.357,2.13,2.13,0,0,0,2.612.8,6.138,6.138,0,0,0,2.314-1.851,24.719,24.719,0,0,0,4.243-5.686c.321-.675.525-1.632-.094-2.063-.307-.212-.73-.227-.981-.494-.377-.392-.149-1.043-.306-1.561a1.535,1.535,0,0,0-1.294-.918,10.822,10.822,0,0,0-1.671.047,1.1,1.1,0,0,1-.424-.063.305.305,0,0,1-.125-.078c-.291-.275-.039-.745.063-1.129a1.9,1.9,0,0,0-.816-1.914,5.332,5.332,0,0,0-1.953-.784,16.952,16.952,0,0,0-5.953,3.8,40.236,40.236,0,0,0-3.569,3.6" transform="translate(-308.003 -488.145)" fill="#ffa031"/>
      <path id="Trazado_718496" data-name="Trazado 718496" d="M336.771,505.766a3.68,3.68,0,0,0,1.254-.216,7.231,7.231,0,0,0,2.784-2.162,25.717,25.717,0,0,0,4.424-5.969c.712-1.478.53-2.835-.475-3.539a2.807,2.807,0,0,0-.716-.343c0-.04,0-.079,0-.113a3.328,3.328,0,0,0-.125-.982,2.644,2.644,0,0,0-2.257-1.733,5.411,5.411,0,0,0-1.122-.017,3.116,3.116,0,0,0-1.3-2.9,6.645,6.645,0,0,0-2.465-1,.338.338,0,0,1-.081-.027c-.022-.052-.087-.374-.134-.609-.029-.142-.059-.289-.094-.441a6.42,6.42,0,0,1,.013-2.025c.019-.183.038-.366.055-.548a17.415,17.415,0,0,0-.359-5.385,10.855,10.855,0,0,0-1.948-4.4,15.126,15.126,0,0,0-4.287-3.4,1.176,1.176,0,1,0-1.22,2.012,13.15,13.15,0,0,1,3.653,2.836,8.589,8.589,0,0,1,1.505,3.469,15.056,15.056,0,0,1,.31,4.658c-.015.17-.033.341-.051.512a8.393,8.393,0,0,0,.034,2.8c.03.13.055.257.08.379a2.656,2.656,0,0,0,1.958,2.456,4.706,4.706,0,0,1,1.623.6.812.812,0,0,1,.381.666c-.015.055-.035.114-.055.173a1.735,1.735,0,0,0,1.7,2.578c.207-.005.415-.021.622-.038a4.319,4.319,0,0,1,.861-.017.635.635,0,0,1,.345.139c0,.016,0,.175,0,.28a2.1,2.1,0,0,0,1.567,2.294l.05.017a1.873,1.873,0,0,1-.191.628,23.95,23.95,0,0,1-4.048,5.41,5.381,5.381,0,0,1-1.845,1.531c-.449.164-1.023.056-1.159-.216a2.325,2.325,0,0,1-.119-.377,2.9,2.9,0,0,0-3-2.38,2.353,2.353,0,0,1-1-.281,2.07,2.07,0,0,1-.189-.535,2.9,2.9,0,0,0-1.583-2.147l-.119-.069a4.438,4.438,0,0,1-2.037-2.892,1.177,1.177,0,0,0-2.308.46,6.829,6.829,0,0,0,3.134,4.45l.146.086a2.007,2.007,0,0,1,.309.2,2.066,2.066,0,0,1,.187.529,3.033,3.033,0,0,0,3.089,2.523c.349.055.875.138.962.265a2.056,2.056,0,0,1,.127.39,4.188,4.188,0,0,0,.287.825,3.053,3.053,0,0,0,2.817,1.595" transform="translate(-306.87 -467.861)" fill="#3e3e3e"/>
      <path id="Trazado_718497" data-name="Trazado 718497" d="M373.28,494.344a16.361,16.361,0,0,0,4.4-.607,6.235,6.235,0,0,0,3.993-2.645,1.177,1.177,0,1,0-2.036-1.18,4.1,4.1,0,0,1-2.589,1.559,12.3,12.3,0,0,1-16.1-12.507c.208-4.84,3.973-7.6,6.2-8.808,4.111-2.239,8.259-2.7,11.38-1.275a1.177,1.177,0,0,0,.979-2.14c-3.8-1.74-8.717-1.249-13.484,1.348-4.6,2.5-7.234,6.33-7.424,10.773a15.315,15.315,0,0,0,5.757,12.585,14.773,14.773,0,0,0,8.927,2.9" transform="translate(-358.581 -465.717)" fill="#3e3e3e"/>
      <path id="Trazado_718498" data-name="Trazado 718498" d="M337.246,522.151a1.176,1.176,0,0,0,.992-.542,25.79,25.79,0,0,1,5.125-5.831,1.176,1.176,0,0,0-1.513-1.8,28.149,28.149,0,0,0-5.593,6.362,1.177,1.177,0,0,0,.989,1.812" transform="translate(-309.894 -491.028)" fill="#3e3e3e"/>
      <path id="Trazado_718499" data-name="Trazado 718499" d="M334.05,528.437a1.174,1.174,0,0,0,.825-.338,46.487,46.487,0,0,0,3.823-4.26,1.177,1.177,0,0,0-1.845-1.461,43.857,43.857,0,0,1-3.629,4.043,1.177,1.177,0,0,0,.825,2.015" transform="translate(-303.556 -495.37)" fill="#3e3e3e"/>
      <path id="Trazado_718500" data-name="Trazado 718500" d="M347.844,517.252a1.172,1.172,0,0,0,.878-.394l4.064-4.561a1.177,1.177,0,1,0-1.757-1.565l-4.064,4.561a1.176,1.176,0,0,0,.878,1.959" transform="translate(-324.204 -489.255)" fill="#3e3e3e"/>
    </g>
  </g>
</svg>
