<svg xmlns="http://www.w3.org/2000/svg" xmlns:xlink="http://www.w3.org/1999/xlink" width="76.672" height="63.931" viewBox="0 0 76.672 63.931">
  <defs>
    <clipPath id="clip-path">
      <rect id="Rectángulo_346374" data-name="Rectángulo 346374" width="14.194" height="32.318" transform="translate(0 0)" fill="none" stroke="#12263f" stroke-width="1"/>
    </clipPath>
  </defs>
  <g id="Grupo_1009264" data-name="Grupo 1009264" transform="translate(-898.512 -175.604)">
    <g id="Grupo_1009237" data-name="Grupo 1009237" transform="matrix(-0.799, 0.602, -0.602, -0.799, 975.185, 230.993)">
      <g id="Grupo_1002212" data-name="Grupo 1002212" transform="translate(0 0)" clip-path="url(#clip-path)">
        <path id="Trazado_707910" data-name="Trazado 707910" d="M3.077,0C-.807,7.768-.376,19.532.919,28.162" transform="translate(7.472 1.055)" fill="none" stroke="#12263f" stroke-linecap="round" stroke-linejoin="round" stroke-width="3"/>
        <path id="Trazado_707911" data-name="Trazado 707911" d="M0,.863C2.589,3.452,5.611,5.179,8.2,7.336A23.985,23.985,0,0,1,12.083,0" transform="translate(1.055 23.927)" fill="none" stroke="#12263f" stroke-linecap="round" stroke-linejoin="round" stroke-width="3"/>
      </g>
    </g>
    <g id="Grupo_1009258" data-name="Grupo 1009258" transform="matrix(-0.966, -0.259, 0.259, -0.966, 930.243, 231.535)">
      <path id="Trazado_718438" data-name="Trazado 718438" d="M15.945,15.321C9.22,12.761,4.646,18.01,3.169,23.96l-.108-.022C2.186,29.244.8,37.754.014,42.564L0,42.858q5.592,2.2,11.127,4.51c2.094-2.438,3.628-5.313,5.564-7.879,2.33-3.1,4.574-6.359,5.607-10.087s1.5-9.528-2.753-12.123C20.677,14.97,22.663,10.51,23.8,8.2a32.091,32.091,0,0,1,2.681-5.456l.265-.882C25.66,1.233,24.584.6,23.494,0l-.466.889Q19.479,8.1,15.945,15.321" transform="translate(1.072 2.727)" fill="#ace0f9"/>
      <path id="Trazado_718439" data-name="Trazado 718439" d="M3.6,0a1.076,1.076,0,0,0-1.06.9L.014,16.375a1.075,1.075,0,0,0,2.123.346L4.662,1.249A1.075,1.075,0,0,0,3.774.014,1.094,1.094,0,0,0,3.6,0" transform="translate(0.013 28.741)" fill="#3e3e3e"/>
      <path id="Trazado_718440" data-name="Trazado 718440" d="M10.458,0A8.7,8.7,0,0,0,6.427.975C3.418,2.53,1.087,5.862.032,10.114a1.075,1.075,0,1,0,2.087.517c.893-3.6,2.872-6.493,5.3-7.745a7.2,7.2,0,0,1,6.15-.107,1.075,1.075,0,1,0,.785-2A10.655,10.655,0,0,0,10.458,0" transform="translate(3.168 16.315)" fill="#3e3e3e"/>
      <path id="Trazado_718441" data-name="Trazado 718441" d="M20.615,0a1.076,1.076,0,0,0-.562,1.994c4.209,2.569,2.81,9.006,2.281,10.918C21.322,16.573,19,19.85,16.9,22.634c-.824,1.094-1.581,2.248-2.313,3.363-.894,1.363-1.746,2.66-2.712,3.868-3.447-1.431-6.946-2.847-10.41-4.215a1.075,1.075,0,0,0-.79,2c3.7,1.46,7.436,2.976,11.108,4.505a1.075,1.075,0,0,0,1.23-.293,45.068,45.068,0,0,0,3.372-4.686c.714-1.087,1.451-2.211,2.233-3.249,2.215-2.942,4.671-6.417,5.785-10.442.631-2.279,2.262-9.975-3.233-13.328A1.072,1.072,0,0,0,20.615,0" transform="translate(0 18.932)" fill="#3e3e3e"/>
      <path id="Trazado_718442" data-name="Trazado 718442" d="M8.164,0A1.076,1.076,0,0,0,7.2.6L.11,15.059a1.075,1.075,0,1,0,1.931.947L9.129,1.549A1.076,1.076,0,0,0,8.164,0" transform="translate(15.936 2.54)" fill="#3e3e3e"/>
      <path id="Trazado_718443" data-name="Trazado 718443" d="M4.474,0a1.075,1.075,0,0,0-.966.6L.11,7.53a1.075,1.075,0,1,0,1.931.947l3.4-6.927A1.076,1.076,0,0,0,4.474,0" transform="translate(19.538 12.004)" fill="#3e3e3e"/>
      <path id="Trazado_718444" data-name="Trazado 718444" d="M3.758,0a1.074,1.074,0,0,0-.917.512A33.461,33.461,0,0,0,.07,6.147a1.075,1.075,0,1,0,2.011.763A31.342,31.342,0,0,1,4.673,1.639,1.076,1.076,0,0,0,3.758,0" transform="translate(23.792 4.397)" fill="#3e3e3e"/>
      <path id="Trazado_718445" data-name="Trazado 718445" d="M1.076,0A1.076,1.076,0,0,0,.66,2.067,50.863,50.863,0,0,1,6.437,5.112C7.962,6,9.539,6.919,11.171,7.7A1.076,1.076,0,1,0,12.1,5.76C10.546,5.017,9.008,4.12,7.521,3.254A52.489,52.489,0,0,0,1.492.084,1.075,1.075,0,0,0,1.076,0" transform="translate(20.139 0)" fill="#3e3e3e"/>
      <path id="Trazado_718446" data-name="Trazado 718446" d="M1.077,0C1.048,0,1.019,0,.99,0A1.076,1.076,0,0,0,0,1.161L.866,11.889a1.075,1.075,0,0,0,2.144-.172L2.148.99A1.076,1.076,0,0,0,1.077,0" transform="translate(13.999 29.407)" fill="#3e3e3e"/>
      <path id="Trazado_718447" data-name="Trazado 718447" d="M6.238,0H6.181L1.019.273a1.075,1.075,0,1,0,.113,2.148l5.162-.272A1.075,1.075,0,0,0,6.238,0" transform="translate(8.294 21.934)" fill="#3e3e3e"/>
    </g>
  </g>
</svg>
