<svg xmlns="http://www.w3.org/2000/svg" xmlns:xlink="http://www.w3.org/1999/xlink" width="49.629" height="111.267" viewBox="0 0 49.629 111.267">
  <defs>
    <clipPath id="clip-path">
      <rect id="Rectángulo_346374" data-name="Rectángulo 346374" width="18.252" height="58.499" transform="translate(0 0)" fill="none" stroke="#12263f" stroke-width="1"/>
    </clipPath>
  </defs>
  <g id="Grupo_1009279" data-name="Grupo 1009279" transform="translate(-1313.263 -192.896)">
    <g id="Grupo_1009234" data-name="Grupo 1009234" transform="translate(1330.521 304.163) rotate(-161)">
      <g id="Grupo_1002212" data-name="Grupo 1002212" transform="translate(0 0)" clip-path="url(#clip-path)">
        <path id="Trazado_707910" data-name="Trazado 707910" d="M3.956,0C-1.037,14.061-.483,35.355,1.182,50.977" transform="translate(9.609 1.91)" fill="none" stroke="#12263f" stroke-linecap="round" stroke-linejoin="round" stroke-width="3"/>
        <path id="Trazado_707911" data-name="Trazado 707911" d="M0,1.562C3.33,6.249,7.215,9.374,10.543,13.279A51.288,51.288,0,0,1,15.538,0" transform="translate(1.357 43.31)" fill="none" stroke="#12263f" stroke-linecap="round" stroke-linejoin="round" stroke-width="3"/>
      </g>
    </g>
    <g id="Grupo_1009256" data-name="Grupo 1009256" transform="translate(1329.109 192.896)">
      <path id="Trazado_718474" data-name="Trazado 718474" d="M26.891,368.524c2.173-.358,4.6-.724,5.944-2.466a8.319,8.319,0,0,0,1.276-4.094l-.136-.043a3.026,3.026,0,0,0,.114-1.455c-.394-2.545-4.022-5.621-7.893-7.449a33.161,33.161,0,0,0-14.948-2.488c-1.348.086-2.925.438-3.549,1.577l-.136-.079c-1.506,1.907-1.527,4.631-.86,6.969s1.922,4.459,2.8,6.725a2.092,2.092,0,0,1,.186,1.19,2,2,0,0,1-.48.81,11.331,11.331,0,0,1-2.832,2.359,4.085,4.085,0,0,0-1.491,1.147,2.38,2.38,0,0,0,.05,2.373A7.1,7.1,0,0,0,6.6,375.428a2.7,2.7,0,0,1-1.671.774,1.871,1.871,0,0,1-.193.029,7.211,7.211,0,0,0-2.23,5.478,4.415,4.415,0,0,0,.631,2.23,5.789,5.789,0,0,0,1.922,1.656,30.685,30.685,0,0,0,17.615,4.424,6.539,6.539,0,0,0,3.118-.767c1.886-1.176,2.294-3.793,1.886-5.972a13.063,13.063,0,0,0-1.907-4.617c-.036-.7-.072-1.4-.108-2.093a1.134,1.134,0,0,1,.064-.538.925.925,0,0,1,.58-.43.818.818,0,0,1,.122-.036c.76-.236,1.584-.208,2.344-.409.81-.215,1.628-.853,1.592-1.685a1.784,1.784,0,0,0-.308-.86c-.825-1.254-2.452-1.713-3.506-2.788-.273-.28-.509-.717-.273-1.025a.892.892,0,0,1,.609-.273" transform="translate(-1.426 -349.381)" fill="#35b7b3"/>
      <path id="Trazado_718475" data-name="Trazado 718475" d="M27.673,358.581a2.922,2.922,0,0,1,.653,2.445,2.391,2.391,0,0,1-1.436,1.319,9.107,9.107,0,0,1-5.095.1,73.456,73.456,0,0,1-13.53-3.885A16.21,16.21,0,0,1,3.5,355.95a3.473,3.473,0,0,1-1.3-1.993A2.809,2.809,0,0,1,3.633,351.3,6.663,6.663,0,0,1,6.7,350.5c7.784-.535,16.37,1.2,20.971,8.078" transform="translate(4.428 -349.355)" fill="#faf3e6"/>
      <path id="Trazado_718476" data-name="Trazado 718476" d="M14.519,368.468q1.167,0,2.329-.1a3.816,3.816,0,0,0,1.939-.574,3.312,3.312,0,0,0,1.173-3.344c-.453-2.924-2.945-4.885-5.246-6.492a1.075,1.075,0,1,0-1.232,1.763c2.025,1.415,4.028,2.971,4.352,5.058a1.362,1.362,0,0,1-.274,1.249,2.117,2.117,0,0,1-.89.2,27.081,27.081,0,0,1-15.078-3.2,1.075,1.075,0,1,0-1.033,1.887,29.307,29.307,0,0,0,13.96,3.55" transform="translate(13.767 -353.533)" fill="#3e3e3e"/>
      <path id="Trazado_718477" data-name="Trazado 718477" d="M22.331,357.535a1.075,1.075,0,0,0,.592-1.974,5.616,5.616,0,0,1-2.224-2.883,2.086,2.086,0,0,1-.108-1.331c.318-.873,1.853-1.1,2.74-1.162a32.132,32.132,0,0,1,14.464,2.407,1.075,1.075,0,1,0,.83-1.984,34.3,34.3,0,0,0-15.438-2.568c-3.117.208-4.231,1.512-4.617,2.57a4.118,4.118,0,0,0,.091,2.756,7.775,7.775,0,0,0,3.08,3.992,1.073,1.073,0,0,0,.59.177" transform="translate(-13.439 -347.966)" fill="#3e3e3e"/>
      <path id="Trazado_718478" data-name="Trazado 718478" d="M19.63,391.792q.872,0,1.742-.049a7.486,7.486,0,0,0,3.621-.926c2.448-1.523,2.809-4.769,2.375-7.086a13.98,13.98,0,0,0-1.9-4.761l-.089-1.729a6.164,6.164,0,0,1,1.049-.182,8.675,8.675,0,0,0,1.261-.213,2.955,2.955,0,0,0,2.389-2.771,2.77,2.77,0,0,0-.484-1.4,6.827,6.827,0,0,0-2.279-1.966c-.317-.2-.623-.389-.9-.592,2.151-.363,4.463-.881,5.9-2.756a9.183,9.183,0,0,0,1.485-4.613,1.075,1.075,0,1,0-2.134-.268,7.444,7.444,0,0,1-1.057,3.57c-1.058,1.377-3.136,1.716-5.146,2.043l-.118.019a1.934,1.934,0,0,0-1.3.685,1.841,1.841,0,0,0,.365,2.429,9.111,9.111,0,0,0,1.756,1.307,5.085,5.085,0,0,1,1.615,1.316.689.689,0,0,1,.136.314c.007.174-.345.481-.793.6a7,7,0,0,1-.959.156,7.341,7.341,0,0,0-1.582.312,1.964,1.964,0,0,0-1.207,1,2.105,2.105,0,0,0-.16,1.043l.108,2.1a1.077,1.077,0,0,0,.181.545,11.886,11.886,0,0,1,1.738,4.213c.334,1.781.032,3.976-1.4,4.864a5.642,5.642,0,0,1-2.607.6,29.646,29.646,0,0,1-16.993-4.266A4.929,4.929,0,0,1,2.673,384a3.343,3.343,0,0,1-.457-1.69,6.114,6.114,0,0,1,1.664-4.419,3.568,3.568,0,0,0,2.213-1.164,1.076,1.076,0,0,0-.155-1.462,6.175,6.175,0,0,1-1.427-1.534,1.337,1.337,0,0,1-.094-1.271,2.81,2.81,0,0,1,.919-.683l.212-.123a12.365,12.365,0,0,0,3.106-2.585,2.948,2.948,0,0,0,.715-1.263,3.079,3.079,0,0,0-.235-1.822c-.357-.928-.776-1.831-1.181-2.7a27.11,27.11,0,0,1-1.585-3.932c-.324-1.139-.907-4.006.675-6a1.075,1.075,0,1,0-1.687-1.335c-1.548,1.957-1.933,4.847-1.056,7.928A29.123,29.123,0,0,0,6,364.19c.39.841.793,1.711,1.126,2.572a1.441,1.441,0,0,1,.148.557,1.171,1.171,0,0,1-.247.347A10.234,10.234,0,0,1,4.459,369.8l-.2.113a4.5,4.5,0,0,0-1.649,1.373,3.4,3.4,0,0,0,.007,3.475,5.392,5.392,0,0,0,.745,1.035l-.105.013a1.075,1.075,0,0,0-.624.286A8.282,8.282,0,0,0,.066,382.4a5.433,5.433,0,0,0,.8,2.772,6.733,6.733,0,0,0,2.265,1.988,31.862,31.862,0,0,0,16.5,4.628m5.932-21.528h0Z" transform="translate(-0.059 -350.033)" fill="#3e3e3e"/>
      <path id="Trazado_718479" data-name="Trazado 718479" d="M36.2,359.889h.026a3.386,3.386,0,0,0,1.761-.425,2.167,2.167,0,0,0,1.071-2.12,1.075,1.075,0,0,0-2.136.24.2.2,0,0,1-.045.039,1.376,1.376,0,0,1-.66.116,4.606,4.606,0,0,1-2.166-.532c-.069-.036-.125-.069-.171-.1a1.075,1.075,0,0,0-.958-1.82,1.646,1.646,0,0,0-1.123.825,1.917,1.917,0,0,0-.125,1.595,2.8,2.8,0,0,0,1.374,1.4,6.781,6.781,0,0,0,3.152.78" transform="translate(-18.928 -352.114)" fill="#3e3e3e"/>
      <path id="Trazado_718480" data-name="Trazado 718480" d="M22.614,391.112a19.807,19.807,0,0,0,2.513-.159,1.075,1.075,0,1,0-.273-2.133,18,18,0,0,1-7.035-.506,1.075,1.075,0,0,0-.575,2.073,20.165,20.165,0,0,0,5.369.725" transform="translate(0.608 -370.864)" fill="#3e3e3e"/>
      <path id="Trazado_718481" data-name="Trazado 718481" d="M20.606,408.459a24.911,24.911,0,0,0,3.371-.229,1.075,1.075,0,1,0-.292-2.131,22.748,22.748,0,0,1-4.8.144,1.075,1.075,0,0,0-.164,2.144c.627.048,1.257.072,1.887.072" transform="translate(1.219 -380.984)" fill="#3e3e3e"/>
      <path id="Trazado_718482" data-name="Trazado 718482" d="M52.78,389.223a1.075,1.075,0,0,0,.73-1.866,24.594,24.594,0,0,1-4.421-5.439,1.075,1.075,0,1,0-1.845,1.105,26.761,26.761,0,0,0,4.808,5.914,1.072,1.072,0,0,0,.729.285" transform="translate(-40.413 -366.957)" fill="#3e3e3e"/>
      <path id="Trazado_718483" data-name="Trazado 718483" d="M57.329,410.858a1.075,1.075,0,0,0,.067-2.149,62.1,62.1,0,0,1-8.8-1.189,1.075,1.075,0,0,0-.44,2.105,64.233,64.233,0,0,0,9.1,1.23l.068,0" transform="translate(-45.053 -381.785)" fill="#3e3e3e"/>
    </g>
  </g>
</svg>
